<svg width="72" height="71" viewBox="0 0 72 71" fill="none" xmlns="http://www.w3.org/2000/svg">
<path d="M36 70.5H1V0.5H36C55.3333 0.5 71 16.1667 71 35.5C71 54.8333 55.3333 70.5 36 70.5Z" stroke="#F6F7FB" stroke-miterlimit="10"/>
<path d="M1 0.333374V70.2C1 70.2334 1.06667 70.2667 1.1 70.2334L35.7 35.4L70.9667 70.2334C71 70.2667 71.0333 70.2334 71.0333 70.2V0.333374" stroke="#F6F7FB" stroke-miterlimit="10"/>
<path d="M35.6667 70.5V0.833329C35.6667 0.699995 35.5 0.633329 35.4333 0.733329L1.2 34.9667C1.03334 35.1333 1.16667 35.4 1.36667 35.4H70.6667" stroke="#F6F7FB" stroke-miterlimit="10"/>
<path d="M1 70.5V0.5H18.0667C18.0667 0.5 35.5667 1 35.5667 18C35.5667 35 18.0667 35.4 18.0667 35.4C18.0667 35.4 35.5667 36 35.5667 53.3333C35.5667 70.6667 18.0667 70.5 18.0667 70.5H1Z" stroke="#F6F7FB" stroke-miterlimit="10"/>
</svg>
