<svg width="64" height="64" viewBox="0 0 64 64" fill="none" xmlns="http://www.w3.org/2000/svg">
<path fill-rule="evenodd" clip-rule="evenodd" d="M60.2353 3.76471H3.76471V60.2353H60.2353V3.76471ZM0 0V64H64V0H0Z" fill="black"/>
<path d="M20.7051 47.7066C20.7051 48.1583 21.0665 48.5649 21.5634 48.5649H32.7672C38.1432 48.5649 42.6157 44.9056 42.6157 39.8459C42.6157 35.6896 38.9564 33.476 36.562 32.4821C38.6853 31.3527 41.8025 28.8228 41.8025 25.3442C41.8025 20.6007 37.4204 16.9414 32.0895 16.9414H21.5634C21.0665 16.9414 20.7051 17.348 20.7051 17.7998V47.7066ZM27.7526 29.7715V23.4468H31.2764C32.9931 23.4468 34.4387 24.7118 34.4387 26.5188C34.4387 28.3259 32.9931 29.7715 31.2764 29.7715H27.7526ZM27.7526 42.1047V35.6445H31.4119C33.1738 35.6445 35.1164 36.9998 35.1164 38.8068C35.1164 40.6591 33.6255 42.1047 31.8637 42.1047H27.7526Z" fill="black"/>
</svg>
