<svg width="201" height="102" viewBox="0 0 201 102" fill="none" xmlns="http://www.w3.org/2000/svg">
<path fill-rule="evenodd" clip-rule="evenodd" d="M79.1365 3.15466H5.15385H0V8.35705V96.7976V102H5.15385H195.846H201V96.7976V8.35705V3.15466H195.846H121.697V8.35705H190.692H195.846V13.5594V91.5952V96.7976H190.692H10.3077H5.15385V91.5952V13.5594V8.35705H10.3077H79.1365V3.15466Z" fill="black"/>
<path d="M87.9168 10.23C87.9168 10.3803 88.0566 10.5155 88.2121 10.5155H90.0771C90.2325 10.5155 90.3724 10.3803 90.3724 10.23V2.20825H92.5949C92.7659 2.20825 92.8902 2.07305 92.8902 1.92283V0.28542C92.8902 0.135199 92.7659 0 92.5949 0H85.6942C85.5233 0 85.3989 0.135199 85.3989 0.28542V1.92283C85.3989 2.07305 85.5233 2.20825 85.6942 2.20825H87.9168V10.23Z" fill="black"/>
<path d="M94.9848 10.23C94.9848 10.3803 95.1247 10.5155 95.2801 10.5155H97.1296C97.3006 10.5155 97.4249 10.3803 97.4249 10.23V6.27923H101.87V10.23C101.87 10.3803 101.994 10.5155 102.165 10.5155H104.015C104.17 10.5155 104.31 10.3803 104.31 10.23V0.28542C104.31 0.135199 104.17 0 104.015 0H102.165C101.994 0 101.87 0.135199 101.87 0.28542V4.07099H97.4249V0.28542C97.4249 0.135199 97.3006 0 97.1296 0H95.2801C95.1247 0 94.9848 0.135199 94.9848 0.28542V10.23Z" fill="black"/>
<path d="M107.534 10.23C107.534 10.3803 107.659 10.5155 107.83 10.5155H114.264C114.435 10.5155 114.56 10.3803 114.56 10.23V8.59264C114.56 8.44241 114.435 8.30722 114.264 8.30722H109.959V6.27923H113.503C113.658 6.27923 113.798 6.15906 113.798 5.99381V4.35641C113.798 4.20619 113.658 4.07099 113.503 4.07099H109.959V2.20825H114.264C114.435 2.20825 114.56 2.07305 114.56 1.92283V0.28542C114.56 0.135199 114.435 0 114.264 0H107.83C107.659 0 107.534 0.135199 107.534 0.28542V10.23Z" fill="black"/>
<path d="M46.8652 45.3786C46.8652 45.6853 47.1125 45.9613 47.4525 45.9613H55.1173C58.7951 45.9613 61.8549 43.477 61.8549 40.042C61.8549 37.2203 59.3515 35.7175 57.7134 35.0428C59.166 34.276 61.2986 32.5585 61.2986 30.1969C61.2986 26.9765 58.3006 24.4922 54.6537 24.4922H47.4525C47.1125 24.4922 46.8652 24.7683 46.8652 25.075V45.3786ZM51.6866 33.2026V28.9087H54.0974C55.2718 28.9087 56.2608 29.7675 56.2608 30.9943C56.2608 32.2211 55.2718 33.2026 54.0974 33.2026H51.6866ZM51.6866 41.5755V37.1897H54.1901C55.3954 37.1897 56.7244 38.1098 56.7244 39.3366C56.7244 40.594 55.7045 41.5755 54.4991 41.5755H51.6866Z" fill="black"/>
<path d="M66.8712 45.3786C66.8712 45.6853 67.1184 45.9613 67.4584 45.9613H71.1363C71.4453 45.9613 71.7235 45.6853 71.7235 45.3786V37.5577H73.856L77.9666 45.6853C78.0284 45.808 78.2138 45.9613 78.4611 45.9613H82.5717C83.0971 45.9613 83.3134 45.4706 83.0971 45.0719L78.8629 37.2817C81.5517 36.2082 83.437 33.9386 83.437 31.117C83.437 27.4672 80.4082 24.4922 76.6994 24.4922H67.4584C67.1184 24.4922 66.8712 24.7683 66.8712 25.075V45.3786ZM71.7235 33.6626V28.8781H76.2976C77.5648 28.8781 78.6465 29.9209 78.6465 31.209C78.6465 32.4971 77.5648 33.6626 76.2976 33.6626H71.7235Z" fill="black"/>
<path d="M86.4016 45.9613H89.8014C90.4195 45.9613 90.7595 45.5933 90.914 45.2252L92.0266 42.7716H100.433L101.546 45.1946C101.824 45.7773 102.071 45.9613 102.628 45.9613H106.058C106.522 45.9613 106.769 45.5626 106.584 45.1639L96.9099 24.5229C96.8171 24.3389 96.6008 24.1855 96.3844 24.1855H96.0754C95.859 24.1855 95.6427 24.3389 95.55 24.5229L85.8762 45.1639C85.6908 45.5626 85.938 45.9613 86.4016 45.9613ZM93.881 38.6005L96.199 33.5399H96.2299L98.5788 38.6005H93.881Z" fill="black"/>
<path d="M110.203 45.3786C110.203 45.6853 110.481 45.9613 110.79 45.9613H114.468C114.808 45.9613 115.055 45.6853 115.055 45.3786V33.9386H115.086L127.294 46.1147C127.356 46.176 127.603 46.268 127.696 46.268H128.191C128.5 46.268 128.778 46.0227 128.778 45.716V25.075C128.778 24.7683 128.5 24.4922 128.191 24.4922H124.482C124.142 24.4922 123.895 24.7683 123.895 25.075V35.9629H123.864L111.532 24.1855H110.759C110.45 24.1855 110.172 24.4309 110.172 24.7376L110.203 45.3786Z" fill="black"/>
<path d="M135.189 45.3786C135.189 45.6853 135.436 45.9613 135.745 45.9613H143.286C149.251 45.9613 154.135 41.1461 154.135 35.1961C154.135 29.3075 149.251 24.4922 143.286 24.4922H135.745C135.436 24.4922 135.189 24.7683 135.189 25.075V45.3786ZM140.01 41.4221V29.0008H142.977C146.47 29.0008 149.004 31.7304 149.004 35.1961C149.004 38.6925 146.47 41.4221 142.977 41.4221H140.01Z" fill="black"/>
<path d="M46.8652 82.1403C46.8652 82.4617 47.1112 82.7508 47.4494 82.7508H55.0738C58.7322 82.7508 61.7758 80.1482 61.7758 76.5496C61.7758 73.5936 59.2856 72.0192 57.6562 71.3123C59.1012 70.5091 61.2225 68.7098 61.2225 66.2357C61.2225 62.862 58.2403 60.2594 54.6126 60.2594H47.4494C47.1112 60.2594 46.8652 60.5486 46.8652 60.8699V82.1403ZM51.6612 69.3845V64.8862H54.0592C55.2275 64.8862 56.2113 65.7859 56.2113 67.0711C56.2113 68.3563 55.2275 69.3845 54.0592 69.3845H51.6612ZM51.6612 78.1562V73.5615H54.1515C55.3504 73.5615 56.6724 74.5254 56.6724 75.8106C56.6724 77.128 55.6579 78.1562 54.4589 78.1562H51.6612Z" fill="black"/>
<path d="M87.948 71.5373C87.948 77.9634 92.8362 83.0721 98.9849 83.0721C105.134 83.0721 110.053 77.9634 110.053 71.5373C110.053 65.1111 105.134 59.9381 98.9849 59.9381C92.8362 59.9381 87.948 65.1111 87.948 71.5373ZM92.8669 71.5373C92.8669 68.0029 95.6338 65.079 98.9849 65.079C102.367 65.079 105.134 68.0029 105.134 71.5373C105.134 75.0395 102.367 77.9312 98.9849 77.9312C95.6338 77.9312 92.8669 75.0395 92.8669 71.5373Z" fill="black"/>
<path d="M135.394 81.8512C135.118 82.2689 135.394 82.7508 135.917 82.7508H140.19C140.436 82.7508 140.621 82.5902 140.713 82.4617L144.648 75.9713H144.71L148.737 82.4617C148.829 82.6223 149.075 82.7508 149.26 82.7508H153.533C154.025 82.7508 154.302 82.301 154.025 81.8512L147.569 71.2159L153.81 61.1591C154.086 60.7414 153.81 60.2594 153.287 60.2594H148.799C148.583 60.2594 148.368 60.4201 148.307 60.5486L144.71 66.5249H144.679L141.143 60.5486C141.051 60.4201 140.867 60.2594 140.651 60.2594H136.163C135.64 60.2594 135.394 60.7414 135.64 61.1591L141.85 71.2159L135.394 81.8512Z" fill="black"/>
<g opacity="0.2">
<path d="M66.6528 81.4498C66.6528 81.7503 66.8983 82.0207 67.2359 82.0207H74.8463C78.4981 82.0207 81.5362 79.5871 81.5362 76.2222C81.5362 73.4581 79.0505 71.9859 77.4241 71.3249C78.8664 70.5738 80.9838 68.8914 80.9838 66.578C80.9838 63.4233 78.0071 60.9897 74.386 60.9897H67.2359C66.8983 60.9897 66.6528 61.2601 66.6528 61.5606V81.4498ZM71.4401 69.5223V65.3161H73.8337C74.9998 65.3161 75.9818 66.1573 75.9818 67.3591C75.9818 68.5609 74.9998 69.5223 73.8337 69.5223H71.4401ZM71.4401 77.7244V73.428H73.9257C75.1225 73.428 76.4421 74.3294 76.4421 75.5311C76.4421 76.7629 75.4294 77.7244 74.2326 77.7244H71.4401Z" fill="black"/>
<path d="M116.683 81.1794C116.406 81.57 116.683 82.0207 117.204 82.0207H121.47C121.715 82.0207 121.899 81.8705 121.991 81.7503L125.919 75.6814H125.981L130.001 81.7503C130.093 81.9005 130.338 82.0207 130.522 82.0207H134.788C135.279 82.0207 135.555 81.6001 135.279 81.1794L128.835 71.2348L135.064 61.831C135.34 61.4404 135.064 60.9897 134.543 60.9897H130.062C129.847 60.9897 129.633 61.14 129.571 61.2601L125.981 66.8484H125.95L122.421 61.2601C122.329 61.14 122.145 60.9897 121.93 60.9897H117.45C116.928 60.9897 116.683 61.4404 116.928 61.831L123.127 71.2348L116.683 81.1794Z" fill="black"/>
</g>
</svg>
