<svg width="132" height="66" viewBox="0 0 132 66" fill="none" xmlns="http://www.w3.org/2000/svg">
<path fill-rule="evenodd" clip-rule="evenodd" d="M51.7023 2.04126H3.36717H0V5.40751V62.6338V66H3.36717H127.952H131.32V62.6338V5.40751V2.04126H127.952H79.5086V5.40751H124.585H127.952V8.77376V59.2675V62.6338H124.585H6.73434H3.36717V59.2675V8.77376V5.40751H6.73434H51.7023V2.04126Z" fill="black"/>
<path d="M57.4387 6.61944C57.4387 6.71664 57.5301 6.80412 57.6316 6.80412H58.8501C58.9517 6.80412 59.043 6.71664 59.043 6.61944V1.42887H60.4951C60.6068 1.42887 60.688 1.34138 60.688 1.24418V0.184683C60.688 0.0874816 60.6068 0 60.4951 0H55.9866C55.8749 0 55.7937 0.0874816 55.7937 0.184683V1.24418C55.7937 1.34138 55.8749 1.42887 55.9866 1.42887H57.4387V6.61944Z" fill="black"/>
<path d="M62.0565 6.61944C62.0565 6.71664 62.1478 6.80412 62.2494 6.80412H63.4577C63.5694 6.80412 63.6507 6.71664 63.6507 6.61944V4.06303H66.5548V6.61944C66.5548 6.71664 66.636 6.80412 66.7477 6.80412H67.956C68.0576 6.80412 68.149 6.71664 68.149 6.61944V0.184683C68.149 0.0874816 68.0576 0 67.956 0H66.7477C66.636 0 66.5548 0.0874816 66.5548 0.184683V2.63417H63.6507V0.184683C63.6507 0.0874816 63.5694 0 63.4577 0H62.2494C62.1478 0 62.0565 0.0874816 62.0565 0.184683V6.61944Z" fill="black"/>
<path d="M70.2556 6.61944C70.2556 6.71664 70.3368 6.80412 70.4485 6.80412H74.6523C74.764 6.80412 74.8452 6.71664 74.8452 6.61944V5.55994C74.8452 5.46274 74.764 5.37526 74.6523 5.37526H71.8396V4.06303H74.1548C74.2563 4.06303 74.3477 3.98527 74.3477 3.87835V2.81885C74.3477 2.72165 74.2563 2.63417 74.1548 2.63417H71.8396V1.42887H74.6523C74.764 1.42887 74.8452 1.34138 74.8452 1.24418V0.184683C74.8452 0.0874816 74.764 0 74.6523 0H70.4485C70.3368 0 70.2556 0.0874816 70.2556 0.184683V6.61944Z" fill="black"/>
<path d="M30.6187 29.3626C30.6187 29.561 30.7802 29.7396 31.0023 29.7396H36.01C38.4128 29.7396 40.4119 28.1321 40.4119 25.9095C40.4119 24.0837 38.7763 23.1113 37.7061 22.6747C38.6551 22.1785 40.0484 21.0672 40.0484 19.5391C40.0484 17.4553 38.0898 15.8479 35.7071 15.8479H31.0023C30.7802 15.8479 30.6187 16.0265 30.6187 16.2249V29.3626ZM33.7686 21.484V18.7056H35.3436C36.1109 18.7056 36.7571 19.2613 36.7571 20.0551C36.7571 20.8489 36.1109 21.484 35.3436 21.484H33.7686ZM33.7686 26.9017V24.0638H35.4042C36.1917 24.0638 37.06 24.6592 37.06 25.453C37.06 26.2667 36.3936 26.9017 35.6061 26.9017H33.7686Z" fill="black"/>
<path d="M43.6891 29.3626C43.6891 29.561 43.8507 29.7396 44.0728 29.7396H46.4757C46.6776 29.7396 46.8593 29.561 46.8593 29.3626V24.302H48.2526L50.9381 29.561C50.9785 29.6404 51.0997 29.7396 51.2612 29.7396H53.9468C54.29 29.7396 54.4314 29.4221 54.29 29.1641L51.5237 24.1234C53.2804 23.4288 54.5122 21.9602 54.5122 20.1345C54.5122 17.7729 52.5333 15.8479 50.1103 15.8479H44.0728C43.8507 15.8479 43.6891 16.0265 43.6891 16.2249V29.3626ZM46.8593 21.7816V18.6858H49.8478C50.6756 18.6858 51.3824 19.3605 51.3824 20.194C51.3824 21.0275 50.6756 21.7816 49.8478 21.7816H46.8593Z" fill="black"/>
<path d="M56.449 29.7396H58.6702C59.074 29.7396 59.2961 29.5015 59.3971 29.2633L60.124 27.6757H65.6163L66.3432 29.2435C66.5249 29.6205 66.6865 29.7396 67.0499 29.7396H69.2912C69.5941 29.7396 69.7557 29.4816 69.6345 29.2236L63.3144 15.8677C63.2538 15.7486 63.1124 15.6494 62.9711 15.6494H62.7692C62.6278 15.6494 62.4865 15.7486 62.4259 15.8677L56.1058 29.2236C55.9846 29.4816 56.1461 29.7396 56.449 29.7396ZM61.3355 24.9767L62.8499 21.7022H62.8701L64.4047 24.9767H61.3355Z" fill="black"/>
<path d="M71.9992 29.3626C71.9992 29.561 72.1809 29.7396 72.3829 29.7396H74.7857C75.0078 29.7396 75.1694 29.561 75.1694 29.3626V21.9602H75.1896L83.1655 29.8388C83.2059 29.8785 83.3674 29.9381 83.428 29.9381H83.7511C83.953 29.9381 84.1347 29.7793 84.1347 29.5809V16.2249C84.1347 16.0265 83.953 15.8479 83.7511 15.8479H81.328C81.1059 15.8479 80.9443 16.0265 80.9443 16.2249V23.27H80.9242L72.8675 15.6494H72.3627C72.1607 15.6494 71.979 15.8082 71.979 16.0066L71.9992 29.3626Z" fill="black"/>
<path d="M88.3233 29.3626C88.3233 29.561 88.4849 29.7396 88.6868 29.7396H93.6137C97.5108 29.7396 100.701 26.6239 100.701 22.7739C100.701 18.9636 97.5108 15.8479 93.6137 15.8479H88.6868C88.4849 15.8479 88.3233 16.0265 88.3233 16.2249V29.3626ZM91.4733 26.8025V18.7651H93.4117C95.6935 18.7651 97.3492 20.5314 97.3492 22.7739C97.3492 25.0363 95.6935 26.8025 93.4117 26.8025H91.4733Z" fill="black"/>
<path d="M30.6187 53.1496C30.6187 53.3575 30.7793 53.5446 31.0003 53.5446H35.9815C38.3717 53.5446 40.3602 51.8606 40.3602 49.5321C40.3602 47.6194 38.7333 46.6006 37.6687 46.1432C38.6128 45.6235 39.9987 44.4592 39.9987 42.8584C39.9987 40.6754 38.0504 38.9914 35.6803 38.9914H31.0003C30.7793 38.9914 30.6187 39.1785 30.6187 39.3864V53.1496ZM33.752 44.8958V41.9852H35.3187C36.082 41.9852 36.7247 42.5673 36.7247 43.3989C36.7247 44.2305 36.082 44.8958 35.3187 44.8958H33.752ZM33.752 50.5716V47.5986H35.379C36.1623 47.5986 37.026 48.2223 37.026 49.0539C37.026 49.9063 36.3632 50.5716 35.5798 50.5716H33.752Z" fill="black"/>
<path d="M57.4593 46.2888C57.4593 50.4469 60.6529 53.7525 64.67 53.7525C68.6872 53.7525 71.9009 50.4469 71.9009 46.2888C71.9009 42.1307 68.6872 38.7834 64.67 38.7834C60.6529 38.7834 57.4593 42.1307 57.4593 46.2888ZM60.673 46.2888C60.673 44.0018 62.4807 42.1099 64.67 42.1099C66.8795 42.1099 68.6872 44.0018 68.6872 46.2888C68.6872 48.5549 66.8795 50.4261 64.67 50.4261C62.4807 50.4261 60.673 48.5549 60.673 46.2888Z" fill="black"/>
<path d="M88.4575 52.9625C88.2767 53.2328 88.4575 53.5446 88.7989 53.5446H91.5908C91.7515 53.5446 91.872 53.4407 91.9323 53.3575L94.5033 49.1578H94.5434L97.1747 53.3575C97.2349 53.4615 97.3956 53.5446 97.5161 53.5446H100.308C100.629 53.5446 100.81 53.2536 100.629 52.9625L96.4114 46.0809L100.489 39.5735C100.67 39.3032 100.489 38.9914 100.147 38.9914H97.2148C97.0742 38.9914 96.9336 39.0953 96.8935 39.1785L94.5434 43.0455H94.5234L92.2135 39.1785C92.1532 39.0953 92.0327 38.9914 91.8921 38.9914H88.9596C88.6182 38.9914 88.4575 39.3032 88.6182 39.5735L92.6755 46.0809L88.4575 52.9625Z" fill="black"/>
<g opacity="0.2">
<path d="M43.5464 52.7028C43.5464 52.8972 43.7068 53.0721 43.9273 53.0721H48.8995C51.2853 53.0721 53.2701 51.4974 53.2701 49.3201C53.2701 47.5316 51.6462 46.579 50.5836 46.1513C51.5259 45.6653 52.9093 44.5767 52.9093 43.0798C52.9093 41.0385 50.9645 39.4639 48.5987 39.4639H43.9273C43.7068 39.4639 43.5464 39.6388 43.5464 39.8332V52.7028ZM46.674 44.9849V42.2633H48.2378C48.9997 42.2633 49.6413 42.8076 49.6413 43.5852C49.6413 44.3628 48.9997 44.9849 48.2378 44.9849H46.674ZM46.674 50.2921V47.5122H48.298C49.0799 47.5122 49.942 48.0954 49.942 48.873C49.942 49.6701 49.2804 50.2921 48.4985 50.2921H46.674Z" fill="black"/>
<path d="M76.2323 52.5278C76.0519 52.7805 76.2323 53.0721 76.5732 53.0721H79.36C79.5204 53.0721 79.6407 52.9749 79.7008 52.8972L82.2671 48.9702H82.3072L84.9336 52.8972C84.9937 52.9944 85.1541 53.0721 85.2744 53.0721H88.0612C88.382 53.0721 88.5625 52.8 88.382 52.5278L84.1717 46.093L88.2417 40.0082C88.4221 39.7555 88.2417 39.4639 87.9008 39.4639H84.9737C84.8334 39.4639 84.693 39.5611 84.6529 39.6388L82.3072 43.2547H82.2871L79.9815 39.6388C79.9213 39.5611 79.8011 39.4639 79.6607 39.4639H76.7336C76.3927 39.4639 76.2323 39.7555 76.3927 40.0082L80.4426 46.093L76.2323 52.5278Z" fill="black"/>
</g>
</svg>
