<svg width="60" height="60" viewBox="0 0 60 60" fill="none" xmlns="http://www.w3.org/2000/svg">
<path fill-rule="evenodd" clip-rule="evenodd" d="M0 30C0 13.44 13.44 0 30 0C46.56 0 60 13.44 60 30C60 46.56 46.56 60 30 60C13.44 60 0 46.56 0 30ZM33 42V48H27V42H33ZM30 54C16.77 54 6 43.23 6 30C6 16.77 16.77 6 30 6C43.23 6 54 16.77 54 30C54 43.23 43.23 54 30 54ZM18 24C18 17.37 23.37 12 30 12C36.63 12 42 17.37 42 24C42 27.8488 39.6299 29.92 37.3223 31.9366C35.1331 33.8498 33 35.7139 33 39H27C27 33.5362 29.8264 31.3698 32.3113 29.465C34.2607 27.9708 36 26.6376 36 24C36 20.7 33.3 18 30 18C26.7 18 24 20.7 24 24H18Z" fill="#198AB1"/>
</svg>
