<svg width="57" height="50" viewBox="0 0 57 50" fill="none" xmlns="http://www.w3.org/2000/svg">
<path d="M49.092 0.907959L44.85 5.14996C48.813 9.11896 51 14.393 51 20C51 25.607 48.813 30.881 44.85 34.85L49.092 39.092C54.192 33.989 57 27.209 57 20C57 12.791 54.192 6.01096 49.092 0.907959Z" fill="#198AB1"/>
<path d="M40.6049 9.39197L36.3629 13.64C38.0639 15.335 38.9999 17.594 38.9999 20C38.9999 22.406 38.0639 24.665 36.3629 26.36L40.6049 30.608C43.4369 27.776 44.9999 24.011 44.9999 20C44.9999 15.989 43.4369 12.224 40.6049 9.39197Z" fill="#198AB1"/>
<path fill-rule="evenodd" clip-rule="evenodd" d="M30 17C30 23.6274 24.6274 29 18 29C11.3726 29 6 23.6274 6 17C6 10.3726 11.3726 5 18 5C24.6274 5 30 10.3726 30 17ZM24 17C24 20.3137 21.3137 23 18 23C14.6863 23 12 20.3137 12 17C12 13.6863 14.6863 11 18 11C21.3137 11 24 13.6863 24 17Z" fill="#198AB1"/>
<path d="M30 50H36C36 40.0589 27.9411 32 18 32C8.05887 32 0 40.0589 0 50H6C6 43.3726 11.3726 38 18 38C24.6274 38 30 43.3726 30 50Z" fill="#198AB1"/>
</svg>
