<svg width="60" height="60" viewBox="0 0 60 60" fill="none" xmlns="http://www.w3.org/2000/svg">
<path fill-rule="evenodd" clip-rule="evenodd" d="M30 36C36.6274 36 42 30.6274 42 24C42 17.3726 36.6274 12 30 12C23.3726 12 18 17.3726 18 24C18 30.6274 23.3726 36 30 36ZM30 30C33.3137 30 36 27.3137 36 24C36 20.6863 33.3137 18 30 18C26.6863 18 24 20.6863 24 24C24 27.3137 26.6863 30 30 30Z" fill="#198AB1"/>
<path fill-rule="evenodd" clip-rule="evenodd" d="M47.7783 54.1671C55.191 48.7049 60 39.9141 60 30C60 13.4315 46.5685 0 30 0C13.4315 0 0 13.4315 0 30C0 39.9141 4.80904 48.7049 12.2216 54.1671C12.358 54.2676 12.4953 54.3669 12.6334 54.4652C13.9799 55.4227 15.4089 56.2719 16.9076 57C20.8639 58.922 25.3061 60 30 60C34.6939 60 39.1361 58.922 43.0924 57C43.1728 56.9609 43.253 56.9215 43.333 56.8818C44.8971 56.1045 46.3838 55.1947 47.7783 54.1671ZM45.6861 48.1649C50.778 43.764 54 37.2583 54 30C54 16.7452 43.2548 6 30 6C16.7452 6 6 16.7452 6 30C6 37.2583 9.22204 43.764 14.3139 48.1649C17.402 42.6939 23.2696 39 30 39C36.7304 39 42.598 42.6939 45.6861 48.1649ZM40.67 51.5036C38.6762 47.6409 34.6465 45 30 45C25.3535 45 21.3238 47.6409 19.33 51.5036C22.544 53.1015 26.1671 54 30 54C33.8329 54 37.456 53.1015 40.67 51.5036Z" fill="#198AB1"/>
</svg>
