<svg width="53" height="54" viewBox="0 0 53 54" fill="none" xmlns="http://www.w3.org/2000/svg">
<path d="M51.8494 22.068H26.8684V32.421H41.2444C39.9064 39 34.3054 42.78 26.8684 42.78C18.0994 42.78 11.0314 35.712 11.0314 26.94C11.0314 18.171 18.0994 11.103 26.8684 11.103C30.6454 11.103 34.0594 12.444 36.7384 14.637L44.5384 6.83999C39.7864 2.69699 33.6934 0.140991 26.8684 0.140991C12.0064 0.140991 0.0664062 12.078 0.0664062 26.943C0.0664062 41.808 12.0034 53.745 26.8684 53.745C40.2694 53.745 52.4554 43.998 52.4554 26.943C52.4554 25.359 52.2124 23.652 51.8494 22.068Z" fill="#198AB1"/>
</svg>
