<svg width="42" height="42" viewBox="0 0 42 42" fill="none" xmlns="http://www.w3.org/2000/svg">
<path fill-rule="evenodd" clip-rule="evenodd" d="M27.7014 23.4301C31.586 17.5667 30.9453 9.58903 25.7793 4.42303C19.882 -1.47434 10.3204 -1.47434 4.42303 4.42303C-1.47434 10.3204 -1.47434 19.882 4.42303 25.7793C9.58903 30.9453 17.5667 31.586 23.4301 27.7014L37.7287 42L42 37.7287L27.7014 23.4301ZM21.5081 8.69429C25.0465 12.2327 25.0465 17.9696 21.5081 21.5081C17.9696 25.0465 12.2327 25.0465 8.69429 21.5081C5.15587 17.9696 5.15587 12.2327 8.69429 8.69429C12.2327 5.15587 17.9696 5.15587 21.5081 8.69429Z" fill="#198AB1"/>
</svg>
