<svg width="60" height="60" viewBox="0 0 60 60" fill="none" xmlns="http://www.w3.org/2000/svg">
<path fill-rule="evenodd" clip-rule="evenodd" d="M42.0842 9.25971C41.2928 8.79762 40.4726 8.37953 39.6269 8.00879L38.391 2.35891C38.0897 0.98166 36.8701 0 35.4603 0H24.5397C23.1298 0 21.9102 0.98166 21.609 2.35891L20.373 8.00879C19.576 8.35819 18.8017 8.74964 18.0527 9.18034C17.2665 9.63049 16.5036 10.1265 15.7682 10.6673L10.2573 8.91266C8.91392 8.48494 7.45398 9.05032 6.74907 10.2713L1.28875 19.7288C0.583845 20.9497 0.824183 22.4968 1.86628 23.4463L6.14127 27.3416C6.04301 28.2276 5.99485 29.1151 5.99567 30C5.99485 30.8849 6.04301 31.7724 6.14127 32.6585L1.86628 36.5537C0.82418 37.5033 0.583843 39.0503 1.28875 40.2713L6.74906 49.7288C7.45397 50.9497 8.91392 51.5151 10.2573 51.0874L15.7682 49.3328C16.5117 49.8795 17.2835 50.3806 18.0789 50.8347C18.8197 51.2595 19.5853 51.6459 20.373 51.9912L21.609 57.6411C21.9102 59.0183 23.1298 60 24.5397 60H35.4603C36.8701 60 38.0897 59.0183 38.391 57.6411L39.6269 51.9912C40.4629 51.6247 41.2741 51.2119 42.0571 50.7561C42.8043 50.3229 43.5303 49.8482 44.2311 49.3328L49.7421 51.0874C51.0854 51.5151 52.5454 50.9497 53.2503 49.7288L58.7106 40.2713C59.4155 39.0503 59.1752 37.5033 58.1331 36.5537L53.8581 32.6585C53.9565 31.7713 54.0046 30.8827 54.0037 29.9966C54.0044 29.1129 53.9562 28.2265 53.8581 27.3416L58.1331 23.4463C59.1752 22.4968 59.4155 20.9497 58.7106 19.7288L53.2503 10.2713C52.5454 9.05033 51.0854 8.48494 49.7421 8.91266L44.2312 10.6673C43.5387 10.1581 42.8219 9.68861 42.0842 9.25971ZM29.9998 42C36.6272 42 41.9998 36.6274 41.9998 30C41.9998 23.3726 36.6272 18 29.9998 18C23.3723 18 17.9998 23.3726 17.9998 30C17.9998 36.6274 23.3723 42 29.9998 42Z" fill="#198AB1"/>
</svg>
