<svg width="60" height="60" viewBox="0 0 60 60" fill="none" xmlns="http://www.w3.org/2000/svg">
<path fill-rule="evenodd" clip-rule="evenodd" d="M41.9998 30C41.9998 36.6274 36.6272 42 29.9998 42C23.3723 42 17.9998 36.6274 17.9998 30C17.9998 23.3726 23.3723 18 29.9998 18C36.6272 18 41.9998 23.3726 41.9998 30ZM35.9998 30C35.9998 33.3137 33.3135 36 29.9998 36C26.686 36 23.9998 33.3137 23.9998 30C23.9998 26.6863 26.686 24 29.9998 24C33.3135 24 35.9998 26.6863 35.9998 30Z" fill="#198AB1"/>
<path fill-rule="evenodd" clip-rule="evenodd" d="M1.28875 19.7288L6.74907 10.2713C7.45398 9.05032 8.91392 8.48494 10.2573 8.91266L15.7682 10.6673C16.5036 10.1265 17.2665 9.63049 18.0527 9.18034C18.8017 8.74964 19.576 8.35819 20.373 8.00879L21.609 2.35891C21.9102 0.98166 23.1298 0 24.5397 0H35.4603C36.8701 0 38.0897 0.98166 38.391 2.35891L39.6269 8.00879C40.4726 8.37953 41.2928 8.79762 42.0842 9.25971C42.8219 9.68861 43.5387 10.1581 44.2312 10.6673L49.7421 8.91266C51.0854 8.48494 52.5454 9.05033 53.2503 10.2713L58.7106 19.7288C59.4155 20.9497 59.1752 22.4968 58.1331 23.4463L53.8581 27.3416C53.9562 28.2265 54.0044 29.1129 54.0037 29.9966C54.0046 30.8827 53.9565 31.7713 53.8581 32.6585L58.1331 36.5537C59.1752 37.5033 59.4155 39.0503 58.7106 40.2713L53.2503 49.7288C52.5454 50.9497 51.0854 51.5151 49.7421 51.0874L44.2311 49.3328C43.5303 49.8482 42.8043 50.3229 42.0571 50.7561C41.2741 51.2119 40.4629 51.6247 39.6269 51.9912L38.391 57.6411C38.0897 59.0183 36.8701 60 35.4603 60H24.5397C23.1298 60 21.9102 59.0183 21.609 57.6411L20.373 51.9912C19.5853 51.6459 18.8197 51.2595 18.0789 50.8347C17.2835 50.3806 16.5117 49.8795 15.7682 49.3328L10.2573 51.0874C8.91392 51.5151 7.45397 50.9497 6.74906 49.7288L1.28875 40.2713C0.583843 39.0503 0.82418 37.5033 1.86628 36.5537L6.14127 32.6585C6.04301 31.7724 5.99485 30.8849 5.99567 30C5.99485 29.1151 6.04301 28.2276 6.14127 27.3416L1.86628 23.4463C0.824183 22.4968 0.583845 20.9497 1.28875 19.7288ZM33.0456 6L34.4186 12.2768L37.2179 13.5039C37.8509 13.7815 38.4654 14.0946 39.0587 14.4411L39.0684 14.4467C39.6214 14.7683 40.1584 15.12 40.6767 15.5011L43.1391 17.3117L49.2615 15.3624L52.3071 20.6376L47.5578 24.9651L47.8946 28.0029C47.9681 28.6653 48.0042 29.3293 48.0037 29.9919L48.0037 30.0031C48.0044 30.6674 47.9683 31.3331 47.8946 31.9971L47.5577 35.0349L52.3071 39.3624L49.2615 44.6376L43.1391 42.6883L40.6767 44.499C40.1521 44.8847 39.6083 45.2404 39.0481 45.5651L39.0385 45.5707C38.4514 45.9125 37.8437 46.2217 37.2179 46.4961L34.4186 47.7232L33.0456 54H26.9543L25.5813 47.7232L22.7821 46.4961C22.1924 46.2376 21.6189 45.9481 21.0635 45.6297L21.0537 45.6241C20.4573 45.2836 19.8792 44.9082 19.3226 44.499L16.8603 42.6883L10.7379 44.6376L7.69225 39.3624L12.4416 35.035L12.1047 31.9972C12.0312 31.3339 11.9951 30.669 11.9957 30.0056L11.9957 29.9944C11.9951 29.331 12.0312 28.6661 12.1047 28.0029L12.4416 24.9651L7.69225 20.6376L10.7379 15.3624L16.8603 17.3117L19.3226 15.5011C19.8731 15.0963 20.4446 14.7247 21.0341 14.3872L21.0439 14.3816C21.6054 14.0587 22.1855 13.7655 22.782 13.5039L25.5813 12.2768L26.9543 6H33.0456Z" fill="#198AB1"/>
</svg>
