<svg width="60" height="60" viewBox="0 0 60 60" fill="none" xmlns="http://www.w3.org/2000/svg">
<path d="M12 36C5.382 36 0 41.382 0 48C0 54.618 5.382 60 12 60C18.597 60 23.961 54.648 23.994 48.06H24V42H36V48.117H36.012C36.075 54.678 41.424 60 48 60C54.618 60 60 54.618 60 48C60 41.382 54.618 36 48 36H42V24H48C54.618 24 60 18.618 60 12C60 5.382 54.618 0 48 0C41.382 0 36 5.382 36 12V18H24V11.94H23.994C23.961 5.352 18.597 0 12 0C5.382 0 0 5.382 0 12C0 18.618 5.382 24 12 24H18V36H12ZM18 48C18 51.366 15.363 54 12 54C8.637 54 6 51.366 6 48C6 44.634 8.637 42 12 42H18V48ZM48 42C51.363 42 54 44.634 54 48C54 51.366 51.363 54 48 54C44.637 54 42 51.366 42 48V42H48ZM42 12C42 8.634 44.637 6 48 6C51.363 6 54 8.634 54 12C54 15.366 51.363 18 48 18H42V12ZM12 18C8.637 18 6 15.366 6 12C6 8.634 8.637 6 12 6C15.363 6 18 8.634 18 12V18H12ZM24 24H36V36H24V24Z" fill="#198AB1"/>
</svg>
