<svg width="54" height="60" viewBox="0 0 54 60" fill="none" xmlns="http://www.w3.org/2000/svg">
<path d="M34.8879 36.5482L29.4876 31.151L33.5997 27.0366L39 32.4338L34.8879 36.5482Z" fill="#198AB1"/>
<path d="M15.015 51.0001V45.6031L27.603 33.0331L33 38.4301L20.412 51.0001H15.015Z" fill="#198AB1"/>
<path fill-rule="evenodd" clip-rule="evenodd" d="M48 6H42V0H36V6H18V0H12V6H6C2.691 6 0 8.691 0 12V54C0 57.309 2.691 60 6 60H48C51.309 60 54 57.309 54 54V12C54 8.691 51.309 6 48 6ZM6 54V24H48L48.006 54H6ZM48.0009 18L48 12H6V18H48.0009Z" fill="#198AB1"/>
</svg>
