<?xml version="1.0" standalone="no"?>
<!DOCTYPE svg PUBLIC "-//W3C//DTD SVG 1.1//EN" "http://www.w3.org/Graphics/SVG/1.1/DTD/svg11.dtd" >
<svg>
<metadata>
Created by FontForge 20090914 at Sat Oct 31 14:23:51 2020
 By www-data
Copyright 2019 The Darkergrotesque Project Authors (https://github.com/bettergui/DarkerGrotesque)
</metadata>
<defs>
<font id="DarkerGrotesque-SemiBold" horiz-adv-x="0" >
  <font-face 
    font-family="Darker Grotesque SemiBold"
    font-weight="600"
    font-stretch="normal"
    units-per-em="1000"
    panose-1="0 0 0 0 0 0 0 0 0 0"
    ascent="800"
    descent="-200"
    x-height="409"
    cap-height="563"
    bbox="-48 -296 1731 1060"
    underline-thickness="50"
    underline-position="-75"
    unicode-range="U+000D-U+240D"
  />
<missing-glyph horiz-adv-x="500" 
d="M50 -296h400v1356h-400v-1356zM100 -246v1256h300v-1256h-300z" />
    <glyph glyph-name="w_w_w.liga" unicode="www" horiz-adv-x="1753" 
d="M107 0l-102 394v16h81l80 -340h2l96 340h73l99 -340h2l79 340h81v-16l-103 -394h-117l-76 266h-2l-75 -266h-118zM674 0l-102 394v16h81l80 -340h2l96 340h73l99 -340h2l79 340h81v-16l-103 -394h-117l-76 266h-2l-75 -266h-118zM1240 0l-102 394v16h81l80 -340h2l96 340
h73l99 -340h2l79 340h81v-16l-103 -394h-117l-76 266h-2l-75 -266h-118z" />
    <glyph glyph-name=".notdef" horiz-adv-x="500" 
d="M50 -296h400v1356h-400v-1356zM100 -246v1256h300v-1256h-300z" />
    <glyph glyph-name="CR" unicode="&#xd;" horiz-adv-x="600" 
 />
    <glyph glyph-name="space" unicode=" " horiz-adv-x="228" 
 />
    <glyph glyph-name="exclam" unicode="!" horiz-adv-x="205" 
d="M82 152c-4.66699 72 -9.83301 134 -15.5 186s-9 94.5 -10 127.5s2.33301 57.5 10 73.5s22.167 24 43.5 24c20.667 0 34.667 -8 42 -24s10.5 -40.667 9.5 -74s-4.16699 -76 -9.5 -128s-10 -113.667 -14 -185l-8 2c-5.33301 1.33301 -12 2 -20 2
c-7.33301 0 -13.833 -0.666992 -19.5 -2zM111.001 -9c-20 0 -33.333 5 -40 15s-10 22.333 -10 37c0 13.333 3.33301 25 10 35s20 15 40 15c18.667 0 31.5 -4.83301 38.5 -14.5s10.5 -21.5 10.5 -35.5c0 -14.667 -3.5 -27 -10.5 -37s-19.833 -15 -38.5 -15z" />
    <glyph glyph-name="quotedbl" unicode="&#x22;" horiz-adv-x="315" 
d="M37 369l0.000976562 56.999h21c16.667 0 27.667 3.16699 33 9.5s8 15.5 8 27.5c-21.333 -1.33301 -36.5 2.83398 -45.5 12.501s-13.5 22.5 -13.5 38.5c0 13.333 3.5 24.833 10.5 34.5s20.167 14.5 39.5 14.5c15.333 0 27.166 -4.66699 35.499 -14s12.5 -27.333 12.5 -54
c0 -36 -5.83301 -66 -17.5 -90s-32.167 -36 -61.5 -36h-22zM184.001 368.999l0.000976562 56.999h21c16.667 0 27.667 3.16699 33 9.5s8 15.5 8 27.5c-21.333 -1.33301 -36.5 2.83398 -45.5 12.501s-13.5 22.5 -13.5 38.5c0 13.333 3.5 24.833 10.5 34.5
s20.167 14.5 39.5 14.5c15.333 0 27.166 -4.66699 35.499 -14s12.5 -27.333 12.5 -54c0 -36 -5.83301 -66 -17.5 -90s-32.167 -36 -61.5 -36h-22z" />
    <glyph glyph-name="numbersign" unicode="#" horiz-adv-x="691" 
d="M87 0l61 152h-120v72h149l48 119h-142v72h166l49 148h79l-61 -148h134l49 148h79l-60 -148h118v-72h-147l-48 -119h143v-72h-167l-50 -152h-79l62 152h-135l-50 -152h-78zM239 225v-1h140l48 119h-140z" />
    <glyph glyph-name="dollar" unicode="$" horiz-adv-x="544" 
d="M247 -109l4.00098 98.998c-32.667 2.66699 -64 11.167 -94 25.5s-55.167 35 -75.5 62s-32.166 61.167 -35.499 102.5l82 12c0 -1.33301 0.5 -6.66602 1.5 -15.999s4 -20.333 9 -33s13.167 -25.167 24.5 -37.5s26.833 -22.666 46.5 -30.999s45.167 -12.5 76.5 -12.5
s56.166 4.83301 74.499 14.5s31.5 20.834 39.5 33.501s12 24 12 34c0.666992 21.333 -5.5 38.333 -18.5 51s-30 22.834 -51 30.501s-44.167 14.667 -69.5 21s-50.5 13.5 -75.5 21.5s-47.833 18.167 -68.5 30.5s-37 28.666 -49 48.999s-17.333 46.5 -16 78.5
c2.66699 40.667 20.5 74 53.5 100s77.5 41.333 133.5 46l-4 100h83l-5 -102c32 -4.66699 61 -14.5 87 -29.5s46.5 -35.5 61.5 -61.5s22.167 -57.333 21.5 -94l-79 -11c0 27.333 -5.33301 49.166 -16 65.499s-24.167 28.666 -40.5 36.999s-32.666 13.833 -48.999 16.5
s-29.5 4 -39.5 4c-32 0 -59.833 -7.16699 -83.5 -21.5s-35.834 -33.833 -36.501 -58.5c-0.666992 -21.333 5.5 -38.333 18.5 -51s30.167 -22.834 51.5 -30.501s44.666 -14.5 69.999 -20.5s50.666 -12.667 75.999 -20s48.333 -17.166 69 -29.499s37 -28.833 49 -49.5
s17.333 -47.334 16 -80.001c-1.33301 -27.333 -10 -51.166 -26 -71.499s-37.167 -36.666 -63.5 -48.999s-55.166 -20.5 -86.499 -24.5l5 -100h-83z" />
    <glyph glyph-name="percent" unicode="%" horiz-adv-x="592" 
d="M132 332c-36 0 -62.333 10.8311 -79 32.498s-25 50.834 -25 87.501s8.16699 66 24.5 88s42.833 33 79.5 33c36 0 62.5 -11 79.5 -33s25.5 -51.333 25.5 -88c0 -35.333 -8.5 -64.166 -25.5 -86.499s-43.5 -33.5 -79.5 -33.5zM116 -0.00195312l-58 41l228 258l191 264
l57 -40l-219 -247zM131 384.998c18.667 0 31.834 6.33398 39.501 19.001s11.5 29 11.5 49s-3.83301 36.5 -11.5 49.5s-20.834 19.5 -39.501 19.5s-31.834 -6.33301 -39.501 -19s-11.5 -29.334 -11.5 -50.001c0 -20 3.83301 -36.333 11.5 -49s20.834 -19 39.501 -19z
M460 -10.001c-36 0 -62.167 11 -78.5 33s-24.5 51.667 -24.5 89c0 36 8 65 24 87s42.333 33 79 33c36 0 62.333 -11 79 -33s25 -51 25 -87s-8.33301 -65.333 -25 -88s-43 -34 -79 -34zM459 42.999c18.667 0 32 6.5 40 19.5s12 29.167 12 48.5c0 20 -4 36.667 -12 50
s-21.333 20 -40 20s-31.834 -6.5 -39.501 -19.5s-11.5 -29.833 -11.5 -50.5c0 -19.333 3.83301 -35.5 11.5 -48.5s20.834 -19.5 39.501 -19.5z" />
    <glyph glyph-name="ampersand" unicode="&#x26;" horiz-adv-x="641" 
d="M593 -2c-24.667 10 -47.833 20.8359 -69.5 32.5029s-44.5 25.5 -68.5 41.5c-27.333 -26.667 -58.666 -46.667 -93.999 -60s-71.166 -20.333 -107.499 -21s-69.833 5.16602 -100.5 17.499s-55.5 31 -74.5 56s-28.5 56.167 -28.5 93.5c0 26 5 48 15 66
s22.333 32.833 37 44.5s29.334 21.334 44.001 29.001l35 18.5l-22.5 30c-9.66699 12.667 -18.334 27.5 -26.001 44.5s-11.5 36.167 -11.5 57.5c0 26.667 7 49.167 21 67.5s32.333 32.166 55 41.499s46.667 14.166 72 14.499s49.333 -3.83398 72 -12.501
s41.167 -21.834 55.5 -39.501s21.5 -39.834 21.5 -66.501c0 -22.667 -5.83301 -42.834 -17.5 -60.501s-25.667 -32.834 -42 -45.501s-31.333 -22.667 -45 -30s-22.5 -12 -26.5 -14c7.33301 -9.33301 18.166 -21.5 32.499 -36.5s31 -30.667 50 -47s38.5 -31.833 58.5 -46.5
c7.33301 11.333 14.333 26.333 21 45s9.83398 37.667 9.50098 57s-7.16602 36 -20.499 50l70 47c5.33301 -8 11.166 -20.667 17.499 -38s10.666 -37.666 12.999 -60.999s0.833008 -47.666 -4.5 -72.999s-16.333 -49.666 -33 -72.999
c19.333 -13.333 38.166 -25.166 56.499 -35.499s40.5 -20.5 66.5 -30.5zM241.001 342.003c4.66699 2 12.666 6.00195 23.999 12.002s23 13.333 35 22s22.5 18.5 31.5 29.5s13.833 22.833 14.5 35.5c1.33301 17.333 -3 31.166 -13 41.499s-22.5 17.333 -37.5 21
s-30.167 3.66699 -45.5 0s-28.166 -10.667 -38.499 -21s-15.5 -24.5 -15.5 -42.5c0.666992 -28.667 15.667 -61.334 45 -98.001zM390 119.005c-30 22.667 -59.666 47.999 -88.999 75.999s-54.333 55 -75 81c-24.667 -12 -46.334 -26 -65.001 -42s-28 -38 -28 -66
c0 -29.333 9.16699 -52.5 27.5 -69.5s41.5 -27.833 69.5 -32.5s56.5 -2.66699 85.5 6s53.833 24.334 74.5 47.001z" />
    <glyph glyph-name="quotesingle" unicode="'" horiz-adv-x="192" 
d="M52 369l0.000976562 56.999h21c16.667 0 27.667 3.16699 33 9.5s8 15.5 8 27.5c-21.333 -1.33301 -36.5 2.83398 -45.5 12.501s-13.5 22.5 -13.5 38.5c0 13.333 3.5 24.833 10.5 34.5s20.167 14.5 39.5 14.5c15.333 0 27.166 -4.66699 35.499 -14s12.5 -27.333 12.5 -54
c0 -36 -5.83301 -66 -17.5 -90s-32.167 -36 -61.5 -36h-22z" />
    <glyph glyph-name="parenleft" unicode="(" horiz-adv-x="309" 
d="M233 -199l-19.5 15.5c-13 10.333 -28.833 26.166 -47.5 47.499s-37.5 47.833 -56.5 79.5s-34.833 68.834 -47.5 111.501s-19 91 -19 145c-0.666992 54 5.5 102.5 18.5 145.5s29 80.667 48 113s37.833 59.166 56.5 80.499s34.5 37.333 47.5 48l19.5 16l64 -65
c-2.66699 -2 -11 -7.66699 -25 -17s-30.667 -22.666 -50 -39.999s-38.333 -39 -57 -65s-34.334 -57 -47.001 -93s-19 -77 -19 -123c0 -47.333 6.66699 -89 20 -125s29.833 -67.167 49.5 -93.5s39.334 -47.833 59.001 -64.5s36.167 -29 49.5 -37l20 -12z" />
    <glyph glyph-name="parenright" unicode=")" horiz-adv-x="299" 
d="M67 -199l-64 67l19.5 12c13 8 29.333 20.333 49 37s39.334 38.167 59.001 64.5s36.167 57.5 49.5 93.5s20 77.667 20 125c0 46 -6.33301 87 -19 123s-28.334 67 -47.001 93s-37.667 47.667 -57 65s-36 30.666 -50 39.999s-22 15 -24 17l64 65
c-0.666992 0 5.5 -5.33301 18.5 -16s29 -26.667 48 -48s37.833 -48.166 56.5 -80.499s34.5 -70 47.5 -113s19.5 -91.5 19.5 -145.5s-6.5 -102.333 -19.5 -145s-28.833 -79.834 -47.5 -111.501s-37.5 -58.167 -56.5 -79.5s-34.833 -37.166 -47.5 -47.499z" />
    <glyph glyph-name="asterisk" unicode="*" horiz-adv-x="380" 
d="M353 418l-132 -23l93 -95l-62 -45l-62 117l-62 -117l-62 45l94 95l-132 23l24 72l119 -60l-19 133h77l-19 -133l119 60z" />
    <glyph glyph-name="plus" unicode="+" horiz-adv-x="355" 
d="M148 84v110h-110v60h110v110h60v-110h110v-60h-110v-110h-60z" />
    <glyph glyph-name="comma" unicode="," horiz-adv-x="206" 
d="M53 -95l0.000976562 58h21c16.667 0 27.667 3.16699 33 9.5s8 15.5 8 27.5c-21.333 -1.33301 -36.5 2.66699 -45.5 12s-13.5 22 -13.5 38c0 14 3.5 25.833 10.5 35.5s20.167 14.5 39.5 14.5c15.333 0 27.166 -4.83301 35.499 -14.5s12.5 -27.5 12.5 -53.5
c0 -36 -5.83301 -66.167 -17.5 -90.5s-32.167 -36.5 -61.5 -36.5h-22z" />
    <glyph glyph-name="hyphen" unicode="-" horiz-adv-x="317" 
d="M40 195v60h222v-60h-222z" />
    <glyph glyph-name="period" unicode="." horiz-adv-x="192" 
d="M87 0c-20.667 0 -34.5 5.16699 -41.5 15.5s-10.5 23.166 -10.5 38.499c0 14 3.5 26.167 10.5 36.5s20.833 15.5 41.5 15.5c19.333 0 32.5 -5.16699 39.5 -15.5s10.5 -22.5 10.5 -36.5c0 -15.333 -3.5 -28.166 -10.5 -38.499s-20.167 -15.5 -39.5 -15.5z" />
    <glyph glyph-name="slash" unicode="/" horiz-adv-x="369" 
d="M25 0l254 563h80l-254 -563h-80z" />
    <glyph glyph-name="zero" unicode="0" horiz-adv-x="529" 
d="M265 -14c-81.333 0 -141.167 26.5 -179.5 79.5s-57.5 124.5 -57.5 214.5c0 59.333 8.16699 110.833 24.5 154.5s42 77.667 77 102s80.167 36.5 135.5 36.5c54 0 98.5 -12 133.5 -36s61 -58 78 -102s25.5 -95.667 25.5 -155c0 -58 -8.5 -109.167 -25.5 -153.5
s-43 -78.833 -78 -103.5s-79.5 -37 -133.5 -37zM263.999 56c55.333 0 95.833 19.333 121.5 58s38.5 94 38.5 166c0 71.333 -12.667 126.5 -38 165.5s-66 58.5 -122 58.5c-54 0 -93.833 -18.833 -119.5 -56.5s-38.5 -93.5 -38.5 -167.5c0 -71.333 12.333 -126.5 37 -165.5
s65 -58.5 121 -58.5z" />
    <glyph glyph-name="one" unicode="1" horiz-adv-x="354" 
d="M314 72l-0.00195312 -71.999h-251v72h91v382c-6 -22.667 -15 -40.167 -27 -52.5s-24.667 -21.333 -38 -27s-25.166 -9 -35.499 -10s-17.166 -1.5 -20.499 -1.5v89c4 -0.666992 12.5 -0.166992 25.5 1.5s27.167 6.16699 42.5 13.5s29 18.666 41 33.999s18.333 36 19 62h74
v-491h79z" />
    <glyph glyph-name="two" unicode="2" horiz-adv-x="506" 
d="M40 0v69.0039c0.666992 0.666992 9.5 6 26.5 16s38.833 23.833 65.5 41.5s54.5 37.667 83.5 60s55.833 46.166 80.5 71.499s43.334 50.333 56.001 75c15.333 32 20.166 60.5 14.499 85.5s-19 44.667 -40 59s-46.833 21.5 -77.5 21.5c-38 -0.666992 -68.333 -13 -91 -37
s-32 -60 -28 -108l-77 10c-3.33301 42.667 3.5 79.167 20.5 109.5s41.5 53.666 73.5 69.999s69 24.5 111 24.5c36 0 68 -6.5 96 -19.5s50.5 -31 67.5 -54s26.5 -49.167 28.5 -78.5s-5 -60.333 -21 -93c-12.667 -24.667 -30.167 -48.834 -52.5 -72.501
s-46.833 -45.834 -73.5 -66.501s-52.5 -39.167 -77.5 -55.5s-46.667 -29.333 -65 -39s-29.833 -15.5 -34.5 -17.5h335v-72h-421z" />
    <glyph glyph-name="three" unicode="3" horiz-adv-x="504" 
d="M259 -10c-41.333 0 -79.1689 7.5 -113.502 22.5s-61.666 37.333 -81.999 67s-30.5 67.167 -30.5 112.5l79 10c2 -46 17.333 -80.667 46 -104s62.667 -35 102 -35c37.333 0 68.833 9.66699 94.5 29s38.5 45 38.5 77c0 25.333 -6.5 45 -19.5 59s-28.5 24 -46.5 30
s-34.667 9 -50 9h-73v45h75c30 0 54.833 6.83301 74.5 20.5s29.5 34.167 29.5 61.5c0 34 -11.833 60.833 -35.5 80.5s-54.834 29.5 -93.501 29.5c-31.333 0 -56.833 -6.66699 -76.5 -20s-34.167 -29.166 -43.5 -47.499s-14.333 -35.5 -15 -51.5l-75 11
c0.666992 10.667 4.33398 25.667 11.001 45s17.667 39.166 33 59.499s36.333 37.5 63 51.5s60.334 21 101.001 21c64 0 114.333 -14.5 151 -43.5s55 -68.167 55 -117.5c0 -33.333 -9 -61 -27 -83s-43.333 -36 -76 -42c32.667 -6 60.167 -21 82.5 -45s33.5 -53.667 33.5 -89
c0 -33.333 -9.16699 -62.333 -27.5 -87s-43.5 -43.5 -75.5 -56.5s-68.333 -19.5 -109 -19.5z" />
    <glyph glyph-name="four" unicode="4" horiz-adv-x="511" 
d="M28 115l-0.00195312 71.999c32.667 14.667 62.834 36 90.501 64s51.5 59.667 71.5 95s35.5 71.833 46.5 109.5s16.5 73.5 16.5 107.5h89c0 -45.333 -9.66699 -91.333 -29 -138s-46.166 -90.667 -80.499 -132s-73.833 -76.666 -118.5 -105.999h205v94h83v-94h74v-72h-74
v-115h-83v115h-291z" />
    <glyph glyph-name="five" unicode="5" horiz-adv-x="517" 
d="M257 -10c-61.333 0 -110.003 15.001 -146.003 45.001s-58.667 66.667 -68 110l83 11c0.666992 -4 3 -11 7 -21s11 -20.833 21 -32.5s23.5 -21.5 40.5 -29.5s38.5 -12 64.5 -12c28.667 0 52.834 5.66699 72.501 17s34.834 26.333 45.501 45s16.667 38 18 58
c2 22 -1.66699 43.167 -11 63.5s-24 37.166 -44 50.499s-45.333 20 -76 20c-29.333 0 -52.666 -4.83301 -69.999 -14.5s-29.833 -19.5 -37.5 -29.5s-11.5 -15.333 -11.5 -16l-84 15l29 293h360v-72h-300l-20 -190l8.5 10.5c5.66699 7 14.667 15.333 27 25
s28.333 18.167 48 25.5s43.834 11 72.501 11c45.333 0 82.5 -9.5 111.5 -28.5s50 -43.167 63 -72.5s18.5 -60 16.5 -92c-2.66699 -32 -12.834 -62.5 -30.501 -91.5s-42.5 -52.667 -74.5 -71s-70.333 -27.5 -115 -27.5z" />
    <glyph glyph-name="six" unicode="6" horiz-adv-x="537" 
d="M277 -10c-54 0 -98.1709 12.667 -132.504 38s-59.5 59 -75.5 101s-24 88.333 -24 139c0 38 5.16699 75.333 15.5 112s25.833 69.5 46.5 98.5s46.667 52 78 69s68 25.5 110 25.5c37.333 0 68 -5.5 92 -16.5s42.5 -23.833 55.5 -38.5s22.167 -27.5 27.5 -38.5l8 -16.5
l-81 -17l-10 13.5c-6.66699 9 -17.667 18 -33 27s-36.333 13.5 -63 13.5c-33.333 0 -63.666 -11 -90.999 -33s-48 -53.5 -62 -94.5s-17.333 -90.5 -10 -148.5c0.666992 10 4.66699 23 12 39s18.166 31.833 32.499 47.5s33 28.667 56 39s50.833 15.166 83.5 14.499
c42.667 -0.666992 77.834 -10.167 105.501 -28.5s47.834 -41.666 60.501 -69.999s17.834 -58.333 15.501 -90s-12 -61.5 -29 -89.5s-41.167 -51 -72.5 -69s-69.666 -27 -114.999 -27zM280.996 60c34 -0.666992 61.834 7.33301 83.501 24s36.667 37.167 45 61.5
s9.66602 48.833 3.99902 73.5s-18.5 45.667 -38.5 63s-47 26.666 -81 27.999c-32.667 0.666992 -60.5 -6.16602 -83.5 -20.499s-40.5 -33 -52.5 -56s-18 -46.5 -18 -70.5c7.33301 -33.333 24 -58.833 50 -76.5s56.333 -26.5 91 -26.5z" />
    <glyph glyph-name="seven" unicode="7" horiz-adv-x="495" 
d="M199 0l-83 -0.000976562c0 76.667 11.167 146 33.5 208s53 116.5 92 163.5s83.5 86.833 133.5 119.5h-333v72h413v-70c-16 -10.667 -35 -24.667 -57 -42s-44.5 -38.833 -67.5 -64.5s-44.5 -56.667 -64.5 -93s-36.167 -78.666 -48.5 -126.999s-18.5 -103.833 -18.5 -166.5
z" />
    <glyph glyph-name="eight" unicode="8" horiz-adv-x="550" 
d="M273 -10c-44.667 0 -84.5 6.16602 -119.5 18.499s-62.667 30.666 -83 54.999s-30.5 54.166 -30.5 89.499c0 36.667 12.5 68.334 37.5 95.001s58.833 43.334 101.5 50.001c-30 6 -52.667 16.5 -68 31.5s-25.5 31 -30.5 48s-7.5 31.833 -7.5 44.5c0 30 8.5 56.333 25.5 79
s40.5 40.334 70.5 53.001s64.667 19 104 19c40.667 0 76 -6.5 106 -19.5s53.333 -30.833 70 -53.5s25 -48.667 25 -78c0 -12.667 -2.5 -27.5 -7.5 -44.5s-15.167 -33 -30.5 -48s-38 -25.5 -68 -31.5c43.333 -8 77.5 -24.833 102.5 -50.5s37.5 -57.167 37.5 -94.5
c0 -36 -10.5 -66.167 -31.5 -90.5s-49.167 -42.5 -84.5 -54.5s-75 -18 -119 -18zM273 318.999c38 0 68.667 7 92 21s35 36 35 66c0 32.667 -12 57.834 -36 75.501s-54.333 26.5 -91 26.5c-38 0 -68.5 -9 -91.5 -27s-34.5 -43 -34.5 -75c0 -30.667 12 -52.834 36 -66.501
s54 -20.5 90 -20.5zM273 55.999c47.333 0 84.666 10.333 111.999 31s41 47.334 41 80.001c0 36.667 -13.667 64.167 -41 82.5s-64.666 27.5 -111.999 27.5c-46.667 0 -83.667 -9.16699 -111 -27.5s-41 -45.833 -41 -82.5c0 -32.667 13.667 -59.334 41 -80.001
s64.333 -31 111 -31z" />
    <glyph glyph-name="nine" unicode="9" horiz-adv-x="538" 
d="M259 -10c-42 0 -76.334 5.83203 -103.001 17.499s-47.5 25.334 -62.5 41.001s-25.5 29.5 -31.5 41.5s-9 18.333 -9 19l81 19c0 -0.666992 2 -4.16699 6 -10.5s10.833 -13.666 20.5 -21.999s22.5 -15.666 38.5 -21.999s36 -9.5 60 -9.5c52 0 90.833 22.667 116.5 68
s37.167 111.666 34.5 198.999c-1.33301 -10 -5.83301 -22.5 -13.5 -37.5s-18.5 -29.833 -32.5 -44.5s-31.833 -27 -53.5 -37s-46.834 -15 -75.501 -15c-44.667 0 -81.5 9 -110.5 27s-50.333 41 -64 69s-19.667 57.833 -18 89.5s10.834 61.5 27.501 89.5s41 51 73 69
s71.333 27 118 27c56.667 0 102.334 -13.5 137.001 -40.5s59.5 -62.833 74.5 -107.5s21.167 -93.334 18.5 -146.001c-2 -52.667 -10.667 -100.5 -26 -143.5s-39.5 -77.167 -72.5 -102.5s-77.5 -38 -133.5 -38zM251.999 248.999c43.333 0 77.5 13.168 102.5 39.501
s39.833 59.166 44.5 98.499c-9.33301 38 -26.333 66.333 -51 85s-54 28 -88 28c-35.333 0 -63.833 -8.33301 -85.5 -25s-36.5 -37.5 -44.5 -62.5s-8.83301 -50 -2.5 -75s19.833 -46 40.5 -63s48.667 -25.5 84 -25.5z" />
    <glyph glyph-name="colon" unicode=":" horiz-adv-x="212" 
d="M106 268c-20 0 -33.5 5 -40.5 15s-10.5 22.667 -10.5 38c0 14 3.5 26.167 10.5 36.5s20.5 15.5 40.5 15.5s33.333 -5.33301 40 -16s10 -22.667 10 -36c0 -15.333 -3.33301 -28 -10 -38s-20 -15 -40 -15zM106 38c-20 0 -33.5 5.16699 -40.5 15.5s-10.5 22.833 -10.5 37.5
c0 14 3.5 26.167 10.5 36.5s20.5 15.5 40.5 15.5s33.333 -5.16699 40 -15.5s10 -22.5 10 -36.5c0 -14.667 -3.33301 -27.167 -10 -37.5s-20 -15.5 -40 -15.5z" />
    <glyph glyph-name="semicolon" unicode=";" horiz-adv-x="211" 
d="M110 305c-20.667 0 -34.334 5 -41.001 15s-10 22.667 -10 38c0 14 3.33301 26.167 10 36.5s20.334 15.5 41.001 15.5c19.333 0 32.5 -5.16699 39.5 -15.5s10.5 -22.5 10.5 -36.5c0 -15.333 -3.5 -28 -10.5 -38s-20.167 -15 -39.5 -15zM58 -95l0.000976562 58h21
c16.667 0 27.834 3.16699 33.501 9.5s8.5 15.5 8.5 27.5c-22 -1.33301 -37.5 2.66699 -46.5 12s-13.5 22 -13.5 38c0 14 3.66699 25.833 11 35.5s20.333 14.5 39 14.5c15.333 0 27.166 -4.83301 35.499 -14.5s12.5 -27.5 12.5 -53.5c0 -36 -5.83301 -66.167 -17.5 -90.5
s-31.834 -36.5 -60.501 -36.5h-23z" />
    <glyph glyph-name="less" unicode="&#x3c;" horiz-adv-x="411" 
d="M363 395v-68l-253 -96l253 -96v-70l-320 166z" />
    <glyph glyph-name="equal" unicode="=" horiz-adv-x="401" 
d="M40 261v57h306v-57h-306zM40 128v57h306v-57h-306z" />
    <glyph glyph-name="greater" unicode="&#x3e;" horiz-adv-x="408" 
d="M43 395l320 -164l-320 -166v70l253 96l-253 96v68z" />
    <glyph glyph-name="question" unicode="?" horiz-adv-x="442" 
d="M251 155l-74.999 0.000976562c0 22 5.16699 41.667 15.5 59s23 33.5 38 48.5l45 43.5c15 14 27.667 29 38 45s16.166 33.667 17.499 53c0.666992 27.333 -7.83301 49.5 -25.5 66.5s-42.167 25.5 -73.5 25.5c-28.667 0 -50.5 -6.66699 -65.5 -20
s-25.167 -29.333 -30.5 -48s-8 -36.667 -8 -54h-79c-4 32 -0.5 62.833 10.5 92.5s30.333 54.167 58 73.5s64.5 29 110.5 29c34 0 65 -6.33301 93 -19s50.333 -30.667 67 -54s25 -50.666 25 -81.999c0 -26.667 -5.33301 -49.334 -16 -68.001s-24 -35.334 -40 -50.001l-48 -42
c-16 -13.333 -29.5 -27.833 -40.5 -43.5s-16.5 -34.167 -16.5 -55.5zM214.001 -8.99902c-20 0 -33.333 5.16699 -40 15.5s-10 22.5 -10 36.5s3.33301 25.833 10 35.5s20 14.5 40 14.5c18.667 0 31.334 -4.83301 38.001 -14.5s10 -21.5 10 -35.5
c0 -15.333 -3.33301 -27.833 -10 -37.5s-19.334 -14.5 -38.001 -14.5z" />
    <glyph glyph-name="at" unicode="@" horiz-adv-x="784" 
d="M358 39c-41.333 0 -71.667 14.498 -91 43.498s-25.666 65.167 -18.999 108.5c4 28.667 13.333 54.334 28 77.001s32.667 40.5 54 53.5s44.333 19.5 69 19.5c26 0 47.667 -5.83301 65 -17.5s30 -27.5 38 -47.5l7 52h64l-32 -180c-2 -12.667 -3 -24.834 -3 -36.501
s2.5 -21.334 7.5 -29.001s14.167 -11.5 27.5 -11.5c24.667 0 45.5 8.33301 62.5 25s29.5 38.334 37.5 65.001s11.167 54.834 9.5 84.501s-9.16699 57.167 -22.5 82.5c-17.333 32 -41.333 58.167 -72 78.5s-64.667 34.5 -102 42.5s-74.666 9.5 -111.999 4.5
s-71.333 -16.167 -102 -33.5c-40.667 -22.667 -73.334 -54.834 -98.001 -96.501s-38.334 -88.5 -41.001 -140.5c-3.33301 -47.333 3.66699 -88.333 21 -123s42 -62.667 74 -84s68.667 -35.666 110 -42.999s84.833 -7 130.5 1s90.834 23.667 135.501 47l42 -71
c-48 -26.667 -99.667 -45.167 -155 -55.5s-109.5 -11.666 -162.5 -3.99902s-101.167 24.334 -144.5 50.001s-77.666 61 -102.999 106s-37 100.5 -35 166.5c1.33301 69.333 18.833 131 52.5 185s78.5 95 134.5 123c41.333 20 86.333 32.333 135 37
s96.334 1.16699 143.001 -10.5s88.167 -31 124.5 -58s63.166 -61.833 80.499 -104.5c13.333 -33.333 19 -68 17 -104s-10.667 -69.833 -26 -101.5s-36.333 -57.334 -63 -77.001s-58.334 -29.5 -95.001 -29.5c-28 0 -47.333 6.83301 -58 20.5s-15.334 30.5 -14.001 50.5
c-14 -20.667 -31.333 -36.667 -52 -48s-43 -17 -67 -17zM377.999 85.998c20.667 0 37.335 4 50.002 12s22.5 17.833 29.5 29.5s12.167 23.167 15.5 34.5s5.66602 21 6.99902 29c4.66699 30 2.16699 54.5 -7.5 73.5s-29.834 28.5 -60.501 28.5c-26 0 -49 -9.33301 -69 -28
s-32.333 -44 -37 -76c-4 -30 0 -54.667 12 -74s32 -29 60 -29z" />
    <glyph glyph-name="A" unicode="A" horiz-adv-x="554" 
d="M19 0l189 563h137l193 -563h-89l-54 168h-234l-54 -168h-88zM278 528l-95 -294h190z" />
    <glyph glyph-name="B" unicode="B" horiz-adv-x="549" 
d="M58 0v562.999h213c22 0 45.667 -1.5 71 -4.5s49 -9.33301 71 -19s40 -24.5 54 -44.5s21 -47 21 -81c0 -21.333 -4.16699 -41.166 -12.5 -59.499s-23.5 -33.166 -45.5 -44.499s-53.333 -17.666 -94 -18.999v-4c47.333 -0.666992 83.833 -7.33398 109.5 -20.001
s43.5 -29.167 53.5 -49.5s15 -42.833 15 -67.5c0 -35.333 -7.66699 -63 -23 -83s-35 -34.833 -59 -44.5s-49.5 -15.834 -76.5 -18.501s-52.5 -4 -76.5 -4h-221zM140 322.999l120.999 0.00195312c27.333 0 51.833 1.5 73.5 4.5s38.834 10.5 51.501 22.5s19 30.667 19 56
c0 27.333 -6.66699 47.166 -20 59.499s-31 20.166 -53 23.499s-45.333 5 -70 5h-122v-171zM139.999 68.001h132.001c28.667 0 54.667 1.83301 78 5.5s42.166 12 56.499 25s21.5 33.5 21.5 61.5c0 28.667 -7.5 50 -22.5 64s-35 23.167 -60 27.5s-52.167 6.5 -81.5 6.5h-124
v-190z" />
    <glyph glyph-name="C" unicode="C" horiz-adv-x="599" 
d="M300 -10c-52 0 -99.1699 10.833 -141.503 32.5s-75.666 54 -99.999 97s-36.5 96.5 -36.5 160.5c0.666992 63.333 13 116.833 37 160.5s57.167 76.667 99.5 99s90.833 33.5 145.5 33.5c72.667 0 131.334 -19.333 176.001 -58s72.334 -89.334 83.001 -152.001h-86
c-5.33301 32 -16.833 57.667 -34.5 77s-38.667 33.333 -63 42s-49.5 13 -75.5 13c-63.333 0 -112.333 -18.167 -147 -54.5s-52 -88.166 -52 -155.499c0 -70.667 17 -124.5 51 -161.5s82.333 -55.5 145 -55.5c43.333 0 82 10.5 116 31.5s55 55.167 63 102.5h87
c-11.333 -62.667 -39.333 -113.667 -84 -153s-105.667 -59 -183 -59z" />
    <glyph glyph-name="D" unicode="D" horiz-adv-x="597" 
d="M562 282c0 -74 -14.333 -131.5 -43 -172.5s-68.834 -69.5 -120.501 -85.5s-112.167 -24 -181.5 -24h-152v563h152c69.333 0 129.833 -10.5 181.5 -31.5s91.834 -52.167 120.501 -93.5s43 -93.333 43 -156zM148 70l91.002 -0.000976562c47.333 0 88.666 5.5 123.999 16.5
s62.666 31.833 81.999 62.5s29 75.334 29 134.001c0 70 -21.333 122.167 -64 156.5s-99.667 51.5 -171 51.5h-91v-421z" />
    <glyph glyph-name="E" unicode="E" horiz-adv-x="490" 
d="M137 68h318v-68h-400v563h390v-72h-308v-171h240v-69h-240v-183z" />
    <glyph glyph-name="F" unicode="F" horiz-adv-x="477" 
d="M150 0h-82v563h395v-72h-313v-159h243v-69h-243v-263z" />
    <glyph glyph-name="G" unicode="G" horiz-adv-x="616" 
d="M291 -12c-54.667 0 -102.167 11.333 -142.5 34s-71.5 55.5 -93.5 98.5s-32.667 95.833 -32 158.5s12.834 115.834 36.501 159.501s56.5 77 98.5 100s91 34.5 147 34.5c73.333 0 131.333 -16.5 174 -49.5s70.667 -81.167 84 -144.5l-80 -11
c-10.667 45.333 -32.334 77.833 -65.001 97.5s-70.334 29.5 -113.001 29.5c-68 0 -118.167 -18.833 -150.5 -56.5s-49.166 -89.167 -50.499 -154.5c0 -68.667 18.167 -121.834 54.5 -159.501s87.5 -56.5 153.5 -56.5c45.333 0 84.666 11.5 117.999 34.5s54 58.5 62 106.5
h-139v63h221v-272h-57l-19 111h-2c-6.66699 -17.333 -18.167 -35.5 -34.5 -54.5s-38.666 -35.167 -66.999 -48.5s-62.833 -20 -103.5 -20z" />
    <glyph glyph-name="H" unicode="H" horiz-adv-x="585" 
d="M146 0h-83v563h83v-242h294v242h82v-563h-82v256h-294v-256z" />
    <glyph glyph-name="I" unicode="I" horiz-adv-x="360" 
d="M294 72v-72h-235v72h77v419h-77v72h235v-72h-76v-419h76z" />
    <glyph glyph-name="J" unicode="J" horiz-adv-x="451" 
d="M215 -10c-30.667 0 -59.332 5.83105 -85.999 17.498s-48.167 30 -64.5 55s-24.5 57.5 -24.5 97.5h78c0 -15.333 2.66699 -30.5 8 -45.5s14.833 -27.5 28.5 -37.5s33.167 -15 58.5 -15c31.333 0 54.666 8.83301 69.999 26.5s23 48.834 23 93.501v316h-113v65h196v-369
c0 -42.667 -5.16699 -79.167 -15.5 -109.5s-28 -53.666 -53 -69.999s-60.167 -24.5 -105.5 -24.5z" />
    <glyph glyph-name="K" unicode="K" horiz-adv-x="566" 
d="M68 0v563h83v-279l273 279h108v-11l-231 -221l243 -320v-11h-96l-208 274l-89 -86v-188h-83z" />
    <glyph glyph-name="L" unicode="L" horiz-adv-x="469" 
d="M65 0v563h83v-491h295v-72h-378z" />
    <glyph glyph-name="M" unicode="M" horiz-adv-x="719" 
d="M58 0v563h144l158 -526h2l155 526h144v-563h-85l5 524h-2l-158 -524h-123l-157 524h-2l4 -524h-85z" />
    <glyph glyph-name="N" unicode="N" horiz-adv-x="594" 
d="M451 563h85v-563h-157l-237 526h-2v-526h-85v563h147l247 -526h2v526z" />
    <glyph glyph-name="O" unicode="O" horiz-adv-x="608" 
d="M297 -14c-90 0 -158.667 26.5 -206 79.5s-71 124.5 -71 214.5c0 59.333 10.167 110.833 30.5 154.5s51 77.667 92 102s92.5 36.5 154.5 36.5c90 0 158.5 -26.5 205.5 -79.5s70.5 -124.167 70.5 -213.5c0 -58 -10.5 -109.167 -31.5 -153.5s-52 -78.833 -93 -103.5
s-91.5 -37 -151.5 -37zM296 66c64.667 0 113.332 19.998 145.999 59.998s49 91.333 49 154s-16.167 114.167 -48.5 154.5s-81.166 60.5 -146.499 60.5c-64 0 -112.5 -19.333 -145.5 -58s-49.5 -91 -49.5 -157c0 -41.333 7 -78.166 21 -110.499s35.5 -57.666 64.5 -75.999
s65.5 -27.5 109.5 -27.5z" />
    <glyph glyph-name="P" unicode="P" horiz-adv-x="494" 
d="M143 0h-83v563h220c62 0 110 -15.333 144 -46s51 -76.667 51 -138c0 -55.333 -17.5 -98.333 -52.5 -129s-82.5 -46 -142.5 -46h-137v-204zM270 494l-126.999 0.000976562v-227h127c40 0 71.5 9.33301 94.5 28s34.5 47 34.5 85c0 39.333 -11.333 68.166 -34 86.499
s-54.334 27.5 -95.001 27.5z" />
    <glyph glyph-name="Q" unicode="Q" horiz-adv-x="619" 
d="M379 -121c-14.667 0 -29.5 2.00098 -44.5 6.00098s-27.833 13.667 -38.5 29s-16.667 39.666 -18 72.999c-79.333 7.33301 -139.833 37 -181.5 89s-62.5 120 -62.5 204c0 58.667 10.167 110 30.5 154s51.166 78.167 92.499 102.5s93 36.5 155 36.5
c60 0 110.5 -12 151.5 -36s72 -58 93 -102s31.5 -95.333 31.5 -154c0 -80 -19.667 -146.5 -59 -199.5s-97 -83.833 -173 -92.5c0.666992 -14.667 3.5 -25.834 8.5 -33.501s17.167 -11.5 36.5 -11.5c6 0 13.833 2 23.5 6s17.834 6 24.501 6l3 -63
c-1.33301 0 -7 -1.16699 -17 -3.5s-20.667 -4.66602 -32 -6.99902s-19.333 -3.5 -24 -3.5zM311 68.001c64 0 112.167 19.333 144.5 58s48.5 91 48.5 157c0 64.667 -16 116.667 -48 156s-80.333 59 -145 59c-63.333 0 -111.333 -18.833 -144 -56.5s-49 -90.5 -49 -158.5
c0 -65.333 15.833 -117.5 47.5 -156.5s80.167 -58.5 145.5 -58.5z" />
    <glyph glyph-name="R" unicode="R" horiz-adv-x="543" 
d="M59 0l-0.000976562 563.001h197c72 0 127.833 -11.833 167.5 -35.5s59.5 -66.167 59.5 -127.5c0 -42.667 -10.833 -78.334 -32.5 -107.001s-54.167 -43 -97.5 -43c26 0 45.333 -5.66699 58 -17s21.334 -25.5 26.001 -42.5s7.66699 -34.5 9 -52.5s3.33301 -34.333 6 -49
s8 -25.167 16 -31.5s21.667 -5.83301 41 1.5v-50c-9.33301 -8 -21.5 -13.5 -36.5 -16.5s-29.833 -2 -44.5 3s-27.167 15.333 -37.5 31s-15.5 38.5 -15.5 68.5c0 35.333 -2 63 -6 83s-13.333 34.667 -28 44s-37.667 14.833 -69 16.5s-74.333 1.5 -129 -0.5v-238h-84z
M142.999 300.001l116.001 0.00195312c34 0 62 2.16699 84 6.5s38.5 13.166 49.5 26.499s16.5 33.666 16.5 60.999c0 31.333 -6.66699 54 -20 68s-32.833 22.833 -58.5 26.5s-56.834 5.5 -93.501 5.5h-94v-194z" />
    <glyph glyph-name="S" unicode="S" horiz-adv-x="540" 
d="M273 -12c-40.667 0 -79.665 6.49609 -116.998 19.4961s-67.833 33.667 -91.5 62s-35.834 65.166 -36.501 110.499h84c0 -2.66699 1.16699 -10.167 3.5 -22.5s8.66602 -25.666 18.999 -39.999s26.833 -26.833 49.5 -37.5s54.334 -16 95.001 -16
c32.667 0 58.5 4.66699 77.5 14s32.333 20.333 40 33s11.834 24 12.501 34c0 20.667 -6.5 37.334 -19.5 50.001s-30.5 22.834 -52.5 30.501s-46.167 14.667 -72.5 21s-52.5 13.333 -78.5 21s-49.833 17.834 -71.5 30.501s-38.667 29.167 -51 49.5s-17.5 46.5 -15.5 78.5
c2 46 23.833 82 65.5 108s95.5 39 161.5 39c38.667 0 74.667 -7 108 -21s60 -35 80 -63s30 -63 30 -105h-81c0 23.333 -5 42.166 -15 56.499s-22.667 25.5 -38 33.5s-31.333 13.5 -48 16.5s-31.667 4.5 -45 4.5c-38 0 -69.167 -7 -93.5 -21s-36.5 -33 -36.5 -57
c-0.666992 -21.333 5.66602 -38.333 18.999 -51s31 -22.667 53 -30s46.167 -14 72.5 -20s52.666 -12.667 78.999 -20s50.333 -17.166 72 -29.499s38.667 -29 51 -50s17.833 -47.5 16.5 -79.5c-2 -31.333 -12.833 -58.166 -32.5 -80.499s-46.167 -39.333 -79.5 -51
s-71.333 -17.5 -114 -17.5z" />
    <glyph glyph-name="T" unicode="T" horiz-adv-x="457" 
d="M10 491v72h430v-72h-173v-491h-83v491h-174z" />
    <glyph glyph-name="U" unicode="U" horiz-adv-x="586" 
d="M292 -14c-77.333 0 -136.501 22.167 -177.501 66.5s-61.5 106.833 -61.5 187.5v323h87v-322c0 -43.333 7 -77.833 21 -103.5s32.5 -44.167 55.5 -55.5s48.167 -17 75.5 -17c30 0 56.5 5.5 79.5 16.5s41 29.333 54 55s19.5 60.5 19.5 104.5v322h87v-323
c0 -82 -20.167 -144.833 -60.5 -188.5s-100.166 -65.5 -179.499 -65.5z" />
    <glyph glyph-name="V" unicode="V" horiz-adv-x="536" 
d="M435 563h91l-192 -563h-139l-192 563h90l171 -526z" />
    <glyph glyph-name="W" unicode="W" horiz-adv-x="830" 
d="M721 563h89l-151 -563h-134l-115 455l-117 -455h-135l-148 563h89l127 -526l139 525v1h89l138 -526z" />
    <glyph glyph-name="X" unicode="X" horiz-adv-x="560" 
d="M23 0l204 298l-186 265h100l140 -214l141 214h98l-183 -265l204 -298h-98l-162 244l-161 -244h-97z" />
    <glyph glyph-name="Y" unicode="Y" horiz-adv-x="439" 
d="M175 0v202l-192 361h93l142 -286l141 286h93l-194 -360v-203h-83z" />
    <glyph glyph-name="Z" unicode="Z" horiz-adv-x="554" 
d="M40 0v70l362 421h-333v72h439v-71l-358 -419h356v-73h-466z" />
    <glyph glyph-name="bracketleft" unicode="[" horiz-adv-x="270" 
d="M255 -199h-220v802h220v-77h-139v-647l139 -1v-77z" />
    <glyph glyph-name="backslash" unicode="\" horiz-adv-x="349" 
d="M262 0l-254 563h80l254 -563h-80z" />
    <glyph glyph-name="bracketright" unicode="]" horiz-adv-x="280" 
d="M35 -199v77l144 1v647h-139v77h220v-802h-225z" />
    <glyph glyph-name="asciicircum" unicode="^" horiz-adv-x="423" 
d="M28 320v23l183 219l184 -219v-23h-80l-103 169h-2l-102 -169h-80z" />
    <glyph glyph-name="underscore" unicode="_" horiz-adv-x="547" 
d="M30 0v60h462v-60h-462z" />
    <glyph glyph-name="grave" unicode="`" horiz-adv-x="600" 
d="M117 632l-81 97v16h72l48 -101v-12h-39z" />
    <glyph glyph-name="a" unicode="a" horiz-adv-x="440" 
d="M180 -9c-38 0 -68.666 8.83105 -91.999 26.498s-40.5 42.334 -51.5 74.001s-16.5 67.834 -16.5 108.501c0 62 12.667 112.833 38 152.5s66 59.5 122 59.5c30 0 54.333 -5.33301 73 -16s33.167 -22.667 43.5 -36s17.5 -25 21.5 -35h2v84h85v-409h-71l-14 73h-2
c-4 -10 -11.333 -21.5 -22 -34.5s-25.334 -24.167 -44.001 -33.5s-42.667 -14 -72 -14zM213.001 61.998c39.333 0 66.832 12.665 82.499 37.998s23.5 58.333 23.5 99c0 42.667 -8.16699 76.334 -24.5 101.001s-43.5 37 -81.5 37c-28 0 -50 -6.16699 -66 -18.5
s-27.5 -28.833 -34.5 -49.5s-10.5 -43.667 -10.5 -69c0 -39.333 8.33301 -72.166 25 -98.499s45.334 -39.5 86.001 -39.5z" />
    <glyph glyph-name="b" unicode="b" horiz-adv-x="485" 
d="M276 -10c-25.333 0 -47.002 4.16699 -65.002 12.5s-32.667 18.166 -44 29.499s-19.666 21.833 -24.999 31.5s-8.66602 15.834 -9.99902 18.501h-2l-13 -82h-72v563h85l1 -250h2c0.666992 2.66699 3.5 9 8.5 19s12.833 21 23.5 33s25 22.333 43 31s40.667 13 68 13
c59.333 0 103.166 -19.667 131.499 -59s42.5 -90 42.5 -152c0 -61.333 -14.167 -111.333 -42.5 -150s-72.166 -58 -131.499 -58zM251.998 62c29.333 0 52.502 6.49902 69.502 19.499s29 30 36 51s10.5 43.167 10.5 66.5c0 22.667 -3.83301 44.334 -11.5 65.001
s-20.334 37.5 -38.001 50.5s-41.167 19.5 -70.5 19.5c-38.667 0 -67.667 -12.5 -87 -37.5s-29 -57.5 -29 -97.5c0 -41.333 10.167 -74.5 30.5 -99.5s50.166 -37.5 89.499 -37.5z" />
    <glyph glyph-name="c" unicode="c" horiz-adv-x="461" 
d="M230 -10c-38.667 0 -73.333 8.00195 -104 24.002s-54.834 39.333 -72.501 70s-26.5 68 -26.5 112c0.666992 43.333 10 81 28 113s42.167 56.833 72.5 74.5s65.166 26.5 104.499 26.5c38.667 0 71.834 -7.33301 99.501 -22s49.5 -33.834 65.5 -57.501
s25.667 -48.834 29 -75.501h-77c-5.33301 26 -18 46.333 -38 61s-45.333 22 -76 22c-40 0 -71.167 -12.667 -93.5 -38s-33.5 -58 -33.5 -98c0 -42.667 10.833 -76.5 32.5 -101.5s52.834 -37.5 93.501 -37.5c28.667 0 53.667 7.33301 75 22s34.666 36 39.999 64h77
c-3.33301 -28 -13.166 -54.167 -29.499 -78.5s-38.5 -43.833 -66.5 -58.5s-61.333 -22 -100 -22z" />
    <glyph glyph-name="d" unicode="d" horiz-adv-x="496" 
d="M218 -10c-60 0 -103.999 19.5 -131.999 58.5s-42 88.833 -42 149.5c0 62.667 14.167 113.5 42.5 152.5s72.166 58.5 131.499 58.5c26.667 0 49 -4.33301 67 -13s32.5 -19 43.5 -31s19 -23 24 -33s7.83301 -16.333 8.5 -19h2l1 250h85v-563h-72l-13 82h-2
c-1.33301 -2.66699 -4.83301 -8.83398 -10.5 -18.501s-14 -20.167 -25 -31.5s-25.5 -21.166 -43.5 -29.499s-39.667 -12.5 -65 -12.5zM242.001 62c38.667 0 68.334 12.501 89.001 37.501s31 58.167 31 99.5c0 40 -9.83301 72.5 -29.5 97.5s-48.5 37.5 -86.5 37.5
c-29.333 0 -52.833 -6.5 -70.5 -19.5s-30.334 -29.833 -38.001 -50.5s-11.5 -42.334 -11.5 -65.001c0 -23.333 3.5 -45.5 10.5 -66.5s19 -38 36 -51s40.167 -19.5 69.5 -19.5z" />
    <glyph glyph-name="e" unicode="e" horiz-adv-x="457" 
d="M226 -10c-46 0 -83.668 10.168 -113.001 30.501s-51 46.5 -65 78.5s-21 65.667 -21 101c-0.666992 39.333 6.83301 75 22.5 107s38.334 57.333 68.001 76s65.167 28 106.5 28c35.333 0 67.166 -7.83301 95.499 -23.5s50.833 -37.667 67.5 -66s25.667 -61.833 27 -100.5
c0 -2 0.166992 -5.83301 0.5 -11.5s0.5 -10.5 0.5 -14.5h-309c0 -42.667 10.5 -75.834 31.5 -99.501s50.167 -35.5 87.5 -35.5c28 0 51.833 7.16699 71.5 21.5s31.834 33.5 36.501 57.5h81c-6 -42.667 -25.333 -78.167 -58 -106.5s-76 -42.5 -130 -42.5zM108.999 236.001
h222.001c-0.666992 7.33301 -2.66699 17 -6 29s-8.83301 23.833 -16.5 35.5s-18.5 21.5 -32.5 29.5s-32 12 -54 12c-27.333 0 -48.833 -5.83301 -64.5 -17.5s-27.334 -25.667 -35.001 -42s-12.167 -31.833 -13.5 -46.5z" />
    <glyph glyph-name="f" unicode="f" horiz-adv-x="278" 
d="M75 -2v351h-60v60h60v79c0 29.333 6.5 51.333 19.5 66s33.833 22 62.5 22h114v-66h-113v-101h108v-60h-108v-351h-83z" />
    <glyph glyph-name="g" unicode="g" horiz-adv-x="465" 
d="M145 -175l-0.00195312 77.999h192v179h-2c-1.33301 -2.66699 -4.66602 -8.83398 -9.99902 -18.501s-13.5 -20.167 -24.5 -31.5s-25.5 -21.166 -43.5 -29.499s-39.667 -12.5 -65 -12.5c-60 0 -104 19.5 -132 58.5s-42 89.167 -42 150.5
c0 62.667 14.333 113.334 43 152.001s72.667 58 132 58c26.667 0 48.834 -4.33301 66.501 -13s31.834 -19 42.501 -31s18.5 -23 23.5 -33s7.83301 -16.333 8.5 -19h2l1 96h85v-461c0 -44 -8.33301 -75.5 -25 -94.5s-44.334 -28.5 -83.001 -28.5h-169zM214.998 61.999
c38.667 0 68.334 12.501 89.001 37.501s31 58.167 31 99.5c0 40 -9.83301 72.5 -29.5 97.5s-48.5 37.5 -86.5 37.5c-29.333 0 -52.833 -6.5 -70.5 -19.5s-30.334 -29.833 -38.001 -50.5s-11.5 -42.334 -11.5 -65.001c0 -23.333 3.5 -45.5 10.5 -66.5s19 -38 36 -51
s40.167 -19.5 69.5 -19.5z" />
    <glyph glyph-name="h" unicode="h" horiz-adv-x="466" 
d="M43 0l-0.000976562 562.999h85v-249h2c0.666992 2.66699 3.33398 9 8.00098 19s12.167 20.833 22.5 32.5s24.166 21.834 41.499 30.501s39.333 13 66 13c35.333 0 63.333 -7 84 -21s36 -32 46 -54s16.333 -44.833 19 -68.5s4 -45.5 4 -65.5v-200h-81v201
c0 25.333 -2.66699 48.166 -8 68.499s-15.166 36.333 -29.499 48s-35.166 17.5 -62.499 17.5c-28 0 -50.333 -6.66699 -67 -20s-28.334 -30.666 -35.001 -51.999s-10 -44 -10 -68v-195h-85z" />
    <glyph glyph-name="i" unicode="i" horiz-adv-x="192" 
d="M97 454c-18 -0.666992 -30 3.66699 -36 13s-9 21 -9 35c0 12 3 22.667 9 32s18 14 36 14c17.333 0 29.166 -4.66699 35.499 -14s9.5 -20 9.5 -32c0 -14 -3.16699 -25.5 -9.5 -34.5s-18.166 -13.5 -35.499 -13.5zM55 0.000976562v409h83v-409h-83z" />
    <glyph glyph-name="j" unicode="j" horiz-adv-x="215" 
d="M121 448c-18.667 0 -31.167 4.83301 -37.5 14.5s-9.5 21.5 -9.5 35.5c0 12.667 3.16699 23.834 9.5 33.501s18.833 14.5 37.5 14.5c18 0 30.167 -4.83301 36.5 -14.5s9.5 -20.834 9.5 -33.501c0 -14 -3.16699 -25.833 -9.5 -35.5s-18.5 -14.5 -36.5 -14.5zM78 409h84
v-496c0 -30 -6.66699 -52.167 -20 -66.5s-34 -21.5 -62 -21.5h-71v66h69v518z" />
    <glyph glyph-name="k" unicode="k" horiz-adv-x="439" 
d="M129 0h-84v563h84v-362l198 210h104l-174 -175l177 -236h-100l-135 176l-70 -70v-106z" />
    <glyph glyph-name="l" unicode="l" horiz-adv-x="182" 
d="M50 0v563h82v-563h-82z" />
    <glyph glyph-name="m" unicode="m" horiz-adv-x="660" 
d="M38 0l0.000976562 408.999h72l2 -95h2c1.33301 3.33301 4.16602 10 8.49902 20s11.333 20.833 21 32.5s22.5 21.667 38.5 30s35.667 12.5 59 12.5c35.333 0 61.5 -9.5 78.5 -28.5s29.167 -41.167 36.5 -66.5h2c0.666992 3.33301 3.66699 10 9 20
s13.166 20.833 23.499 32.5s23.833 21.667 40.5 30s37 12.5 61 12.5c26 0 47.167 -5.33301 63.5 -16s29 -24.5 38 -41.5s15.333 -35 19 -54s5.83398 -37.167 6.50098 -54.5s1 -31.666 1 -42.999v-200h-71v201c0 10 -0.5 22.5 -1.5 37.5s-4 30 -9 45s-13.333 27.333 -25 37
s-28.167 14.5 -49.5 14.5c-25.333 0 -45 -6.66699 -59 -20s-24 -30.833 -30 -52.5s-9 -44.167 -9 -67.5v-195h-71v201c0 10 -0.5 22.5 -1.5 37.5s-4 30 -9 45s-13.333 27.333 -25 37s-28.167 14.5 -49.5 14.5c-25.333 0 -45 -6.66699 -59 -20s-24 -30.833 -30 -52.5
s-9 -44.167 -9 -67.5v-195h-74z" />
    <glyph glyph-name="n" unicode="n" horiz-adv-x="456" 
d="M38 0l-0.00195312 408h71l14 -94h2c0.666992 2.66699 3.33398 9 8.00098 19s12.334 20.833 23.001 32.5s25 21.834 43 30.501s40.667 13 68 13c36 0 64 -6.83301 84 -20.5s34.667 -31.334 44 -53.001s15.166 -44.5 17.499 -68.5s3.5 -46.333 3.5 -67v-200h-81v201
c0 25.333 -2.66699 48.166 -8 68.499s-15.166 36.333 -29.499 48s-35.166 17.5 -62.499 17.5c-28 0 -50.333 -6.66699 -67 -20s-28.334 -30.666 -35.001 -51.999s-10 -44 -10 -68v-195h-85z" />
    <glyph glyph-name="o" unicode="o" horiz-adv-x="465" 
d="M227 -10c-68 0 -118.667 19.668 -152 59.001s-50 89.333 -50 150c-0.666992 61.333 16 111.666 50 150.999s84.667 59.333 152 60c65.333 0 115 -19.333 149 -58s51 -89.667 51 -153c0 -39.333 -7.16699 -74.833 -21.5 -106.5s-36.333 -56.667 -66 -75
s-67.167 -27.5 -112.5 -27.5zM227 61.001c32 0 56.5 7 73.5 21s28.833 31.833 35.5 53.5s10 43.834 10 66.501s-3.33301 44.834 -10 66.501s-18.5 39.667 -35.5 54s-41.5 21.5 -73.5 21.5c-32.667 0 -57.667 -7.16699 -75 -21.5s-29.333 -32.333 -36 -54
s-10 -43.834 -10 -66.501s3.33301 -44.834 10 -66.501s18.667 -39.5 36 -53.5s42.333 -21 75 -21z" />
    <glyph glyph-name="p" unicode="p" horiz-adv-x="484" 
d="M279 -10c-26 0 -47.8369 4.16797 -65.5039 12.501s-32 18.166 -43 29.499s-19 21.833 -24 31.5l-9.5 18.5h-2v-257h-85v584h72l14 -96h2c0.666992 2.66699 3.33398 9 8.00098 19s12.334 21 23.001 33s24.834 22.333 42.501 31s39.834 13 66.501 13
c60 0 104.333 -19.667 133 -59s43 -90 43 -152s-14.5 -112.167 -43.5 -150.5s-72.833 -57.5 -131.5 -57.5zM256.996 62.001c29.333 0 52.502 6.49902 69.502 19.499s29 30 36 51s10.5 43.167 10.5 66.5c0 22.667 -3.83301 44.334 -11.5 65.001s-20.334 37.5 -38.001 50.5
s-41.167 19.5 -70.5 19.5c-38.667 0 -67.667 -12.5 -87 -37.5s-29 -57.5 -29 -97.5c0 -41.333 10.167 -74.5 30.5 -99.5s50.166 -37.5 89.499 -37.5z" />
    <glyph glyph-name="q" unicode="q" horiz-adv-x="484" 
d="M205 -10c-59.333 0 -103.335 19.333 -132.002 58s-43 88.667 -43 150c0 62 14.333 112.667 43 152s73 59 133 59c26.667 0 48.834 -4.33301 66.501 -13s31.667 -19 42 -31s18 -23 23 -33s7.83301 -16.333 8.5 -19h2l14 96h72v-584h-85v257h-2
c-1.33301 -2.66699 -4.66602 -8.83398 -9.99902 -18.501s-13.5 -20.167 -24.5 -31.5s-25.333 -21.166 -43 -29.499s-39.167 -12.5 -64.5 -12.5zM226.998 62c38.667 0 68.334 12.501 89.001 37.501s31 58.167 31 99.5c0 40 -9.83301 72.5 -29.5 97.5s-48.5 37.5 -86.5 37.5
c-29.333 0 -52.833 -6.5 -70.5 -19.5s-30.334 -29.833 -38.001 -50.5s-11.5 -42.334 -11.5 -65.001c0 -23.333 3.5 -45.5 10.5 -66.5s19 -38 36 -51s40.167 -19.5 69.5 -19.5z" />
    <glyph glyph-name="r" unicode="r" horiz-adv-x="320" 
d="M45 0v409.001h77l7 -111c4 18 11.833 35.5 23.5 52.5s28 31 49 42s47.833 16.5 80.5 16.5h17v-92h-18c-40.667 0 -72 -5.16699 -94 -15.5s-37.333 -25.333 -46 -45s-13 -43.834 -13 -72.501v-184h-83z" />
    <glyph glyph-name="s" unicode="s" horiz-adv-x="409" 
d="M205 -10c-30.667 0 -59.501 6.66602 -86.501 19.999s-48.667 31.166 -65 53.499s-24.5 46.5 -24.5 72.5h78c0 -1.33301 0.333008 -6.33301 1 -15s3.66699 -18.334 9 -29.001s14.833 -20 28.5 -28s33.167 -12 58.5 -12c28 0 50.667 5 68 15s26 24 26 42
c0 16.667 -6.33301 29.667 -19 39s-29 16.833 -49 22.5s-41.167 11.167 -63.5 16.5s-43.333 12.5 -63 21.5s-35.667 21.333 -48 37s-18.166 36.834 -17.499 63.501c0 36 15.167 63.833 45.5 83.5s68.833 29.5 115.5 29.5c30 0 58.667 -4.83301 86 -14.5
s49.833 -25.167 67.5 -46.5s26.167 -50 25.5 -86h-77c0.666992 22.667 -4.5 39.834 -15.5 51.501s-24.5 19.667 -40.5 24s-31 6.5 -45 6.5c-26.667 0 -47.667 -4.83301 -63 -14.5s-23 -22.5 -23 -38.5c0 -17.333 6.33301 -30.5 19 -39.5s29 -16.333 49 -22
s41.167 -11.167 63.5 -16.5s43.5 -12.333 63.5 -21s36.5 -21 49.5 -37s19.5 -37.333 19.5 -64c0 -39.333 -16.333 -68.166 -49 -86.499s-74 -27.5 -124 -27.5z" />
    <glyph glyph-name="t" unicode="t" horiz-adv-x="291" 
d="M156 0c-28.667 0 -49.5 7.33301 -62.5 22s-19.5 37 -19.5 67v260h-63v60c20.667 0 36.167 1.83301 46.5 5.5s17.333 13 21 28s5.5 38.833 5.5 71.5h69v-105h94v-60h-94v-283h95v-66h-92z" />
    <glyph glyph-name="u" unicode="u" horiz-adv-x="453" 
d="M185 -10c-34.667 0 -62.166 6.5 -82.499 19.5s-35.333 30.167 -45 51.5s-16 44 -19 68s-4.5 47.333 -4.5 70v210h82v-210c0 -24 2.33301 -46.333 7 -67s14.167 -37.167 28.5 -49.5s36.166 -18.5 65.499 -18.5c28 0 49.667 6.33301 65 19s26.166 29 32.499 49
s9.83301 41 10.5 63l1 214h85v-409h-71l-14 85h-2c-2.66699 -8.66699 -9 -20.5 -19 -35.5s-24.667 -28.667 -44 -41s-44.666 -18.5 -75.999 -18.5z" />
    <glyph glyph-name="v" unicode="v" horiz-adv-x="430" 
d="M325 409h82v-15l-147 -394h-117l-148 393v16h81l126 -340h2z" />
    <glyph glyph-name="w" unicode="w" horiz-adv-x="620" 
d="M107 0l-102 394v16h81l80 -340h2l96 340h73l99 -340h2l79 340h81v-16l-103 -394h-117l-76 266h-2l-75 -266h-118z" />
    <glyph glyph-name="x" unicode="x" horiz-adv-x="432" 
d="M5 0l150 211l-142 198h92l102 -148l102 148h93l-142 -198l151 -211h-93l-111 160l-110 -160h-92z" />
    <glyph glyph-name="y" unicode="y" horiz-adv-x="424" 
d="M-2 -186l0.000976562 65.001h59c14 0 25.667 3.16699 35 9.5s20.666 23.166 33.999 50.499l35 77l-160 393h86l115 -307l123 307h87l-210 -479c-14.667 -34 -28 -59.333 -40 -76s-25.333 -27.5 -40 -32.5s-33 -7.5 -55 -7.5h-69z" />
    <glyph glyph-name="z" unicode="z" horiz-adv-x="438" 
d="M35 0v61l263 286h-249v64h349v-61l-260 -285h260v-65h-363z" />
    <glyph glyph-name="braceleft" unicode="{" horiz-adv-x="320" 
d="M295 -196c-63.333 -11.333 -110.33 -10.6602 -140.997 2.00684s-49 38.167 -55 76.5s-4.33301 90.166 5 155.499c4 31.333 4 55.666 0 72.999s-10.167 29.666 -18.5 36.999s-17.333 11.833 -27 13.5s-18.167 2.5 -25.5 2.5v81c7.33301 0 15.833 0.666992 25.5 2
s18.667 5.66602 27 12.999s14.5 19.666 18.5 36.999s4 41.666 0 72.999c-9.33301 65.333 -10.833 116.666 -4.5 153.999s24.666 62.166 54.999 74.499s77.166 13.833 140.499 4.5v-77c-36.667 8 -63.834 9.83301 -81.501 5.5s-29 -13.666 -34 -27.999
s-6.33301 -32.833 -4 -55.5s5.5 -48 9.5 -76c5.33301 -32 6.83301 -59.333 4.5 -82s-10.5 -41 -24.5 -55s-36.667 -24.667 -68 -32c31.333 -7.33301 54.166 -17.833 68.499 -31.5s22.5 -31.667 24.5 -54s0.333008 -49.5 -5 -81.5c-4 -28.667 -7.16699 -54.334 -9.5 -77.001
s-1 -41.167 4 -55.5s16.333 -23.666 34 -27.999s44.834 -2.5 81.501 5.5v-77z" />
    <glyph glyph-name="bar" unicode="|" horiz-adv-x="204" 
d="M60 -151v752h84v-752h-84z" />
    <glyph glyph-name="braceright" unicode="}" horiz-adv-x="333" 
d="M38 -196l-0.000976562 76.9961c36 -8 63 -9.83301 81 -5.5s29.5 13.666 34.5 27.999s6.16699 32.833 3.5 55.5l-9 77c-5.33301 32 -7 59.167 -5 81.5s10.167 40.333 24.5 54s37.166 24.167 68.499 31.5c-31.333 7.33301 -54.166 18 -68.499 32s-22.5 32.333 -24.5 55
s-0.333008 50 5 82l9 76c2.66699 22.667 1.5 41.167 -3.5 55.5s-16.5 23.666 -34.5 27.999s-45 2.5 -81 -5.5v77c51.333 4 91.5 3.33301 120.5 -2s49.667 -16.833 62 -34.5s18.5 -42.5 18.5 -74.5s-3.33301 -72.667 -10 -122c-4 -31.333 -4.16699 -55.666 -0.5 -72.999
s9.83398 -29.666 18.501 -36.999s17.834 -11.666 27.501 -12.999s18.167 -2 25.5 -2v-81c-7.33301 0 -15.833 -0.833008 -25.5 -2.5s-18.834 -6.16699 -27.501 -13.5s-14.834 -19.666 -18.501 -36.999s-3.5 -41.666 0.5 -72.999
c7.33301 -49.333 10.833 -90.166 10.5 -122.499s-6.5 -57.333 -18.5 -75s-32.667 -29.167 -62 -34.5s-69.666 -6 -120.999 -2z" />
    <glyph glyph-name="asciitilde" unicode="~" horiz-adv-x="338" 
d="M225 195c-17.333 0 -30.8301 3.33203 -40.4971 9.99902s-17.667 14.334 -24 23.001s-12.5 16.334 -18.5 23.001s-14 10 -24 10c-12.667 0 -20.334 -5.5 -23.001 -16.5s-3.66699 -24.833 -3 -41.5h-52c0 12 1 26.5 3 43.5s8.16699 31.833 18.5 44.5s27.833 19 52.5 19
c16.667 0 29.834 -3.33301 39.501 -10s17.667 -14.334 24 -23.001s12.666 -16.167 18.999 -22.5s14.5 -9.5 24.5 -9.5c12.667 0 20.167 5.66699 22.5 17s3.5 25.333 3.5 42h51c0.666992 -14.667 -0.333008 -30.5 -3 -47.5s-9.33398 -31.5 -20.001 -43.5
s-27.334 -18 -50.001 -18z" />
    <glyph glyph-name="uni00A0" unicode="&#xa0;" horiz-adv-x="228" 
 />
    <glyph glyph-name="exclamdown" unicode="&#xa1;" horiz-adv-x="192" 
d="M98 373c18 0 30.167 -4.83301 36.5 -14.5s9.5 -21.5 9.5 -35.5c0 -12.667 -3.16699 -23.667 -9.5 -33s-18.5 -14 -36.5 -14c-19.333 0 -32.166 4.66699 -38.499 14s-9.5 20.333 -9.5 33c0 14 3.16699 25.833 9.5 35.5s19.166 14.5 38.499 14.5zM67 211l9.00195 -1.99902
c6 -1.33301 13 -2 21 -2c10 0 17.5 0.666992 22.5 2l7.5 2c4 -80.667 8.16699 -147.5 12.5 -200.5s6.66602 -94.833 6.99902 -125.5s-3.33398 -52.334 -11.001 -65.001s-20.5 -19 -38.5 -19c-18.667 0 -31.667 6.33301 -39 19s-11 34.167 -11 64.5s2.16699 72 6.5 125
s8.83301 120.167 13.5 201.5z" />
    <glyph glyph-name="cent" unicode="&#xa2;" horiz-adv-x="457" 
d="M186 -94l4 86.999c-48.667 6.66699 -88.667 27.334 -120 62.001s-47 81.667 -47 141c1.33301 58 17.333 105.667 48 143s70.334 60 119.001 68l-4 87h83l-5 -86c46.667 -6.66699 83 -24 109 -52s42.333 -60 49 -96l-76 -12
c-6.66699 29.333 -19.334 51.666 -38.001 66.999s-45 23 -79 23c-40 0 -70.667 -12.667 -92 -38s-32 -58 -32 -98c0 -42.667 10.333 -76.5 31 -101.5s51.334 -37.5 92.001 -37.5c65.333 0 104.666 31 117.999 93l76 -12c-6.66699 -37.333 -23.167 -70.166 -49.5 -98.499
s-62.5 -45.833 -108.5 -52.5l5 -87h-83z" />
    <glyph glyph-name="sterling" unicode="&#xa3;" horiz-adv-x="641" 
d="M104 -13l-39.0059 61.9961c27.333 21.333 49.333 45.333 66 72s21 58.667 13 96l-102 1v62h78c-17.333 36 -26.166 71.333 -26.499 106s7.33398 66 23.001 94s38.834 50.5 69.501 67.5s68.334 25.5 113.001 25.5c47.333 0 86.5 -8.66699 117.5 -26
s54.333 -40.666 70 -69.999s24.167 -62.333 25.5 -99l-79 -11c-2.66699 13.333 -7 27.833 -13 43.5s-14.667 30.667 -26 45s-26 26 -44 35s-40 13.167 -66 12.5c-33.333 -1.33301 -60.333 -11.666 -81 -30.999s-32.167 -45.166 -34.5 -77.499s6.83398 -68.833 27.501 -109.5
c0.666992 -2 1.33398 -3.66699 2.00098 -5h209v-63h-187c6.66699 -33.333 4.5 -60.833 -6.5 -82.5s-24.833 -42.167 -41.5 -61.5c22.667 10.667 45 15.834 67 15.501s43.333 -3.33301 64 -9l59.5 -16.5c19 -5.33301 37 -7.66602 54 -6.99902s33.167 7 48.5 19
c14 11.333 22.167 26.333 24.5 45s-0.166992 38.334 -7.5 59.001l80 15c14 -54.667 12.667 -97.167 -4 -127.5s-41.667 -48.5 -75 -54.5c-26 -12.667 -51 -18.667 -75 -18s-47.667 4.16699 -71 10.5s-46.833 12.166 -70.5 17.499s-48.5 6.33301 -74.5 3
s-53.333 -14.666 -82 -33.999c-0.666992 -0.666992 -1.5 -1.33398 -2.5 -2.00098s-2.16699 -1.33398 -3.5 -2.00098z" />
    <glyph glyph-name="currency" unicode="&#xa4;" horiz-adv-x="550" 
d="M444 4h-34l-41 59c-26 -18 -57 -27 -93 -27c-38.667 0 -70.667 9.33301 -96 28l-42 -60h-31l54 77c-27.333 30.667 -41 72.667 -41 126c0 60 16.667 105 50 135l-47 65h34l35 -50c22 13.333 50 20 84 20c32 0 59.333 -6.33301 82 -19l34 49h35l-47 -65
c34 -30.667 51 -75.667 51 -135c0 -52.667 -13.667 -94.667 -41 -126zM276 57c16 0 30.832 2.16797 44.499 6.50098s25.834 9.83301 36.501 16.5c2 2 4.16699 4 6.5 6s4.5 4 6.5 6l-10 -10l4 4l8.5 8.5l4.5 4.5c21.333 26.667 32 62.667 32 108c0 52 -13.667 91.333 -41 118
c-5.33301 5.33301 -12.666 10.333 -21.999 15c-20.667 10.667 -44 16 -70 16c-28 0 -52 -5.33301 -72 -16c-0.666992 -0.666992 -4.33398 -3.33398 -11.001 -8.00098s-10 -7.33398 -10 -8.00098c-27.333 -25.333 -41 -64.333 -41 -117c0 -22 4 -44.5 12 -67.5
s21 -42.5 39 -58.5c10 -7.33301 21.833 -13.166 35.5 -17.499s29.5 -6.5 47.5 -6.5z" />
    <glyph glyph-name="yen" unicode="&#xa5;" horiz-adv-x="495" 
d="M87 98v50h117v46h-117v49h95l-169 320h93l141 -286l142 286h92l-173 -320h99v-47l-120 -1v-47h120v-50h-120v-98h-83v98h-117z" />
    <glyph glyph-name="brokenbar" unicode="&#xa6;" horiz-adv-x="204" 
d="M60 294v307h84v-307h-84zM60 -151v307h84v-307h-84z" />
    <glyph glyph-name="section" unicode="&#xa7;" horiz-adv-x="600" 
d="M418 223l-0.00292969 -1.99805c15.333 -10 28.333 -23.333 39 -40s15.667 -36.667 15 -60c-2 -37.333 -19.167 -66.666 -51.5 -87.999s-71.166 -32 -116.499 -32c-31.333 0 -61.5 5.33301 -90.5 16s-52.833 27.334 -71.5 50.001s-28.667 51.334 -30 86.001h31
c0 -1.33301 0.5 -6.33301 1.5 -15s4 -19 9 -31s13.167 -23.833 24.5 -35.5s27.333 -21.334 48 -29.001s47.334 -11.5 80.001 -11.5c30 0 54 3.66699 72 11s31.5 16.333 40.5 27s15 21 18 31s4.5 17.333 4.5 22c0.666992 25.333 -6.33301 45.166 -21 59.499
s-34 25.5 -58 33.5s-49.5 15.167 -76.5 21.5s-52.5 14.333 -76.5 24s-43.333 23 -58 40s-21.334 40.5 -20.001 70.5c0.666992 18.667 7.5 34.834 20.5 48.501s28.833 24.167 47.5 31.5v1c-20.667 11.333 -37.334 25.5 -50.001 42.5s-18.667 37.5 -18 61.5
c1.33301 24 9.66602 44.5 24.999 61.5s35.833 30.167 61.5 39.5s53.834 14 84.501 14c31.333 0 59.5 -5.5 84.5 -16.5s44.833 -27.167 59.5 -48.5s21.334 -48.333 20.001 -81h-30c0.666992 24 -3.66602 43.667 -12.999 59s-21.333 27.166 -36 35.499
s-29.834 14.166 -45.501 17.499s-29.5 5 -41.5 5c-39.333 0 -71.833 -8.33301 -97.5 -25s-39.167 -37.667 -40.5 -63c0 -24.667 7.5 -44 22.5 -58s34.333 -24.833 58 -32.5s49 -14.5 76 -20.5s52.333 -13.833 76 -23.5s42.834 -23.334 57.501 -41.001
s21.334 -41.834 20.001 -72.501c-0.666992 -18.667 -6 -34.667 -16 -48s-22.667 -25 -38 -35zM161.997 369.002c0 -23.333 5.83301 -41.8311 17.5 -55.498s27.5 -24.334 47.5 -32.001s41.833 -14.167 65.5 -19.5s46.834 -11.333 69.501 -18
c7.33301 -1.33301 12.333 -2.33301 15 -3s4.66699 -1.33398 6 -2.00098c5.33301 -1.33301 9.33301 -1.5 12 -0.5s4.66699 1.83301 6 2.5c17.333 11.333 28.333 23.666 33 36.999s7 23 7 29c0.666992 22 -4.83301 40 -16.5 54s-27.334 25.333 -47.001 34
s-41.167 15.834 -64.5 21.501l-69 17.5l-21.5 4.5c-5 1 -11.833 -1.16699 -20.5 -6.5c-26 -17.333 -39.333 -38.333 -40 -63z" />
    <glyph glyph-name="dieresis" unicode="&#xa8;" horiz-adv-x="600" 
d="M100 677c-22 0 -36.667 5.33301 -44 16s-11 23.667 -11 39c0 14 3.66699 26.333 11 37s22 16 44 16s36.5 -5.33301 43.5 -16s10.5 -23 10.5 -37c0 -15.333 -3.5 -28.333 -10.5 -39s-21.5 -16 -43.5 -16zM269 677c-22 0 -36.667 5.33301 -44 16s-11 23.667 -11 39
c0 14 3.66699 26.333 11 37s22 16 44 16s36.5 -5.33301 43.5 -16s10.5 -23 10.5 -37c0 -15.333 -3.5 -28.333 -10.5 -39s-21.5 -16 -43.5 -16z" />
    <glyph glyph-name="copyright" unicode="&#xa9;" horiz-adv-x="627" 
d="M328 -10c-40.667 0 -78.667 7.5 -114 22.5s-66.5 36 -93.5 63s-48 58.167 -63 93.5s-22.5 73.333 -22.5 114c0 39.333 7.5 76.5 22.5 111.5s36 65.833 63 92.5s58.167 47.667 93.5 63s73.333 23 114 23c39.333 0 76.5 -7.66699 111.5 -23s65.833 -36.333 92.5 -63
s47.667 -57.5 63 -92.5s23 -72.167 23 -111.5c0 -40.667 -7.66699 -78.667 -23 -114s-36.333 -66.5 -63 -93.5s-57.5 -48 -92.5 -63s-72.167 -22.5 -111.5 -22.5zM328 39c46.667 0 88.167 10.333 124.5 31s65 49.334 86 86.001s31.5 78.667 31.5 126
c0 46.667 -10.5 88.167 -31.5 124.5s-49.667 65 -86 86s-77.833 31.5 -124.5 31.5c-47.333 0 -89.333 -10.5 -126 -31.5s-65.5 -49.667 -86.5 -86s-31.5 -77.833 -31.5 -124.5c0 -47.333 10.5 -89.333 31.5 -126s49.833 -65.334 86.5 -86.001s78.667 -31 126 -31zM328 115
c-45.333 0 -83.501 14.002 -114.501 42.002s-46.5 69.333 -46.5 124c0.666992 53.333 16.334 94.666 47.001 123.999s69.334 44 116.001 44c43.333 0 77.833 -11.833 103.5 -35.5s41.5 -52.834 47.5 -87.501l-54 -9c-5.33301 26 -15.5 46 -30.5 60s-37.167 21 -66.5 21
c-34.667 0 -61.167 -10.167 -79.5 -30.5s-27.5 -47.833 -27.5 -82.5c0 -38 9 -67.333 27 -88s44.333 -31 79 -31c54.667 0 87.667 29 99 87l55 -14c-6.66699 -35.333 -22.834 -64.833 -48.501 -88.5s-61.167 -35.5 -106.5 -35.5z" />
    <glyph glyph-name="ordfeminine" unicode="&#xaa;" horiz-adv-x="297" 
d="M127 404c-36 0 -61.999 12.5 -77.999 37.5s-24 57.167 -24 96.5c0 40 8 72.833 24 98.5s42 38.5 78 38.5c20 0 36 -3.5 48 -10.5s21.167 -14.833 27.5 -23.5s10.833 -16 13.5 -22l1 54h58v-263h-48l-9 46h-2c-3.33301 -9.33301 -11.833 -20.333 -25.5 -33
s-34.834 -19 -63.501 -19zM150.001 452c24.667 0 42 7.83203 52 23.499s15 36.5 15 62.5c0 26.667 -5.16699 47.834 -15.5 63.501s-27.5 23.5 -51.5 23.5c-26.667 0 -45.167 -8.5 -55.5 -25.5s-15.5 -37.5 -15.5 -61.5c0 -24.667 5.33301 -45.167 16 -61.5
s29 -24.5 55 -24.5z" />
    <glyph glyph-name="guillemotleft" unicode="&#xab;" horiz-adv-x="530" 
d="M317 519v-67l-221 -157l221 -162v-65l-295 227zM487 519v-72l-221 -152l221 -157v-70l-295 227z" />
    <glyph glyph-name="logicalnot" unicode="&#xac;" horiz-adv-x="317" 
d="M40 196v56h222v-139h-57v83h-165z" />
    <glyph glyph-name="uni00AD" unicode="&#xad;" horiz-adv-x="280" 
d="M29 195v60h222v-60h-222z" />
    <glyph glyph-name="registered" unicode="&#xae;" horiz-adv-x="408" 
d="M203 229c-32 0 -61 7.66699 -87 23s-46.833 36 -62.5 62s-23.5 54.667 -23.5 86c0 32 7.83301 61 23.5 87s36.5 46.667 62.5 62s55 23 87 23c31.333 0 59.833 -7.66699 85.5 -23s46.167 -36 61.5 -62s23 -55 23 -87c0 -31.333 -7.66699 -60 -23 -86
s-35.833 -46.667 -61.5 -62s-54.167 -23 -85.5 -23zM203 261c27.333 0 51.333 6.33301 72 19s36.834 29.5 48.501 50.5s17.5 44.167 17.5 69.5c0 26 -5.83301 49.5 -17.5 70.5s-27.834 37.833 -48.501 50.5s-44.667 19 -72 19s-51.666 -6.33301 -72.999 -19
s-37.833 -29.5 -49.5 -50.5s-17.5 -44.5 -17.5 -70.5c0 -25.333 5.83301 -48.5 17.5 -69.5s28.167 -37.833 49.5 -50.5s45.666 -19 72.999 -19zM138 317l-0.000976562 175.001h63c23.333 0 41.333 -3.83301 54 -11.5s19 -21.167 19 -40.5c0 -14 -3.83301 -25.667 -11.5 -35
s-19.5 -14 -35.5 -14c12.667 0 21.167 -3.16699 25.5 -9.5s6.83301 -13.5 7.5 -21.5s2.33398 -14.333 5.00098 -19s8.33398 -5 17.001 -1v-19c-5.33301 -4 -11.833 -6.33301 -19.5 -7s-14.5 1.66602 -20.5 6.99902s-9 15 -9 29c0 11.333 -1.16699 20 -3.5 26
s-7.83301 9.83301 -16.5 11.5s-23.334 2.16699 -44.001 1.5v-72h-31zM168.999 412.001h32c14.667 0 25.667 1.33301 33 4s11 9.66699 11 21c0 13.333 -4.5 21.5 -13.5 24.5s-21.5 4.5 -37.5 4.5h-25v-54z" />
    <glyph glyph-name="macron" unicode="&#xaf;" horiz-adv-x="342" 
d="M40 730v60h262v-60h-262z" />
    <glyph glyph-name="degree" unicode="&#xb0;" horiz-adv-x="296" 
d="M135 363c-36.667 0 -63.332 9.5 -79.999 28.5s-25 44.167 -25 75.5c0 32 8.16699 57.667 24.5 77s43.166 29 80.499 29c36 0 62.833 -9.66699 80.5 -29s26.5 -45 26.5 -77c0 -30 -8.83301 -54.833 -26.5 -74.5s-44.5 -29.5 -80.5 -29.5zM134.002 417
c20 0 33.833 4.99902 41.5 14.999s11.5 22.333 11.5 37s-3.83301 27.334 -11.5 38.001s-21.5 16 -41.5 16c-19.333 0 -33 -5.5 -41 -16.5s-12 -23.5 -12 -37.5c0 -15.333 4.33301 -27.833 13 -37.5s22 -14.5 40 -14.5z" />
    <glyph glyph-name="plusminus" unicode="&#xb1;" horiz-adv-x="317" 
d="M129 143v77h-89v51h89v78h51v-78h82v-51h-82v-77h-51zM40 46v51h222v-51h-222z" />
    <glyph glyph-name="uni00B2" unicode="&#xb2;" horiz-adv-x="240" 
d="M15 409v39.9961l19 10c12.667 6.66699 27.667 15.834 45 27.501s34 24.667 50 39s28 29.166 36 44.499c10.667 22 10.834 40.167 0.500977 54.5s-25.833 21.5 -46.5 21.5c-17.333 0 -31.333 -5.83301 -42 -17.5s-14.667 -29.5 -12 -53.5l-44 6
c-3.33301 32.667 5 58.334 25 77.001s46 28 78 28c23.333 0 43.333 -5.66699 60 -17s27.667 -26.166 33 -44.499s2.66602 -38.166 -8.00098 -59.499c-8 -16 -19.167 -30.667 -33.5 -44s-29.5 -25.166 -45.5 -35.499s-30.333 -18.5 -43 -24.5s-20.667 -9.66699 -24 -11h162
v-41h-210z" />
    <glyph glyph-name="uni00B3" unicode="&#xb3;" horiz-adv-x="243" 
d="M126 399c-31.333 0 -57.666 8.16504 -78.999 24.498s-32 40.833 -32 73.5l45 7c0.666992 -21.333 7.16699 -37.333 19.5 -48s28.166 -16 47.499 -16c16 0 29.5 4.33301 40.5 13s16.5 20 16.5 34c0 15.333 -6 26 -18 32s-23.667 9 -35 9h-32v25h33
c13.333 0 24.666 2.83301 33.999 8.5s14 14.834 14 27.501c0 14.667 -5.16699 26.334 -15.5 35.001s-24.166 13 -41.499 13c-20.667 0 -35.834 -6.16699 -45.501 -18.5s-14.5 -23.833 -14.5 -34.5l-42 6c0 6.66699 3 16.834 9 30.501s16.333 26.334 31 38.001
s35 17.5 61 17.5c31.333 0 55.833 -6.83301 73.5 -20.5s26.5 -32.167 26.5 -55.5c0 -15.333 -4.33301 -28.5 -13 -39.5s-21 -17.833 -37 -20.5c16 -2.66699 29.333 -9.83398 40 -21.501s16 -25.5 16 -41.5c0 -24.667 -9.66699 -43.834 -29 -57.501
s-43.666 -20.5 -72.999 -20.5z" />
    <glyph glyph-name="acute" unicode="&#xb4;" horiz-adv-x="600" 
d="M75 632h-39v12l48 101h72v-16z" />
    <glyph glyph-name="uni00B5" unicode="&#xb5;" horiz-adv-x="515" 
d="M67 -155l0.00488281 563.999h82v-211c0 -24 2.33301 -46.167 7 -66.5s14.167 -36.5 28.5 -48.5s36.166 -18 65.499 -18c27.333 0 48.666 6.16699 63.999 18.5s26.166 28.5 32.499 48.5s10.166 40.667 11.499 62v215h85v-408h-71l-9 67h-3c-8 -18 -20 -35.5 -36 -52.5
s-40 -25.5 -72 -25.5c-26.667 0 -47.834 4.33301 -63.501 13s-28.167 20.334 -37.5 35.001h-2v-193h-82z" />
    <glyph glyph-name="paragraph" unicode="&#xb6;" horiz-adv-x="516" 
d="M236 -91l0.000976562 402.999h-19c-36.667 0.666992 -70.334 7.16699 -101.001 19.5s-55 32.333 -73 60s-27 65.5 -27 113.5c0 46.667 9 83.834 27 111.501s42 48 72 61s63.333 19.833 100 20.5h92v0h193v-70h-63v-719h-71l-1 719h-58v-719h-71z" />
    <glyph glyph-name="periodcentered" unicode="&#xb7;" horiz-adv-x="229" 
d="M110 193c-26 0 -43.333 6.33301 -52 19s-13 28 -13 46c0 16.667 4.33301 31.334 13 44.001s26 19 52 19s43.167 -6.33301 51.5 -19s12.5 -27.334 12.5 -44.001c0 -18 -4.16699 -33.333 -12.5 -46s-25.5 -19 -51.5 -19z" />
    <glyph glyph-name="cedilla" unicode="&#xb8;" horiz-adv-x="284" 
d="M35 -118l27.002 41c8 -8 19.167 -14.5 33.5 -19.5s29 -7.83301 44 -8.5s27.5 1.5 37.5 6.5s15 13.5 15 25.5c-0.666992 10.667 -6 18 -16 22s-21.667 4.83301 -35 2.5s-25 -7.83301 -35 -16.5l-36 21l41 87l41 -16l-39 -61c9.33301 8 21.5 13.667 36.5 17
s30.167 3.83301 45.5 1.5s28.166 -8.33301 38.499 -18s15.5 -23.5 15.5 -41.5c0 -20.667 -7.16699 -37.5 -21.5 -50.5s-32.5 -21.667 -54.5 -26s-45.333 -3.83301 -70 1.5s-47.334 16 -68.001 32z" />
    <glyph glyph-name="uni00B9" unicode="&#xb9;" horiz-adv-x="175" 
d="M30 408l0.00195312 42h45v185c-3.33301 -16 -9.5 -27.833 -18.5 -35.5s-17.5 -12.834 -25.5 -15.501s-13.333 -4 -16 -4v52c2.66699 -0.666992 9.16699 -0.166992 19.5 1.5s20.166 6.33398 29.499 14.001s14.666 20.167 15.999 37.5h42v-235h38v-42h-130z" />
    <glyph glyph-name="ordmasculine" unicode="&#xba;" horiz-adv-x="306" 
d="M154 410c-46.667 0 -81.5 13.3311 -104.5 39.998s-34.5 61.334 -34.5 104.001c0 41.333 11.5 75.5 34.5 102.5s57.833 40.5 104.5 40.5c44.667 0 78.667 -13.167 102 -39.5s35 -60.833 35 -103.5c0 -41.333 -11.167 -75.666 -33.5 -102.999s-56.833 -41 -103.5 -41z
M154 457.998c21.333 0 38 4.83301 50 14.5s20.333 22 25 37s7 30.167 7 45.5s-2.33301 30.5 -7 45.5s-13 27.5 -25 37.5s-28.667 15 -50 15c-22.667 0 -40 -5 -52 -15s-20.167 -22.5 -24.5 -37.5s-6.5 -30.167 -6.5 -45.5s2.16699 -30.5 6.5 -45.5s12.5 -27.333 24.5 -37
s29.333 -14.5 52 -14.5z" />
    <glyph glyph-name="guillemotright" unicode="&#xbb;" horiz-adv-x="495" 
d="M185 519l295 -224l-295 -227v65l221 162l-221 157v67zM15 519l295 -224l-295 -227v70l221 157l-221 152v72z" />
    <glyph glyph-name="onequarter" unicode="&#xbc;" horiz-adv-x="695" 
d="M38 290l0.00195312 42.001h45v185c-3.33301 -15.333 -9.5 -27 -18.5 -35s-17.5 -13.333 -25.5 -16s-13.333 -4 -16 -4v53c2.66699 -0.666992 9.16699 -0.333984 19.5 0.999023s20.166 5.83301 29.499 13.5s14.666 20.167 15.999 37.5h42v-235h38v-42h-130z
M166.002 0.000976562l-58 41l228 258l191 264l57 -40l-219 -247zM434.002 55.001l-0.000976562 41c22.667 10 42 25.333 58 46s28.333 43 37 67s13.334 46.667 14.001 68h52c0 -32 -10.167 -64.667 -30.5 -98s-47.5 -61 -81.5 -83h92v42h48v-42h35v-41h-35v-55h-48v55h-141z
" />
    <glyph glyph-name="onehalf" unicode="&#xbd;" horiz-adv-x="722" 
d="M38 290l0.00195312 42.001h45v185c-3.33301 -15.333 -9.5 -27 -18.5 -35s-17.5 -13.333 -25.5 -16s-13.333 -4 -16 -4v53c2.66699 -0.666992 9.16699 -0.333984 19.5 0.999023s20.166 5.83301 29.499 13.5s14.666 20.167 15.999 37.5h42v-235h38v-42h-130z
M166.002 0.000976562l-58 41l228 258l191 264l57 -40l-219 -247zM475.002 0.000976562v39.9961l19 10c12.667 6.66699 27.667 15.834 45 27.501s34 24.667 50 39s28 29.166 36 44.499c10.667 22 10.834 40.167 0.500977 54.5s-25.833 21.5 -46.5 21.5
c-17.333 0 -31.333 -5.83301 -42 -17.5s-14.667 -29.5 -12 -53.5l-44 6c-3.33301 32.667 5 58.334 25 77.001s46 28 78 28c23.333 0 43.333 -5.66699 60 -17s27.667 -26.166 33 -44.499s2.66602 -38.166 -8.00098 -59.499c-8 -16 -19.167 -30.667 -33.5 -44
s-29.5 -25.166 -45.5 -35.499s-30.333 -18.5 -43 -24.5s-20.667 -9.66699 -24 -11h162v-41h-210z" />
    <glyph glyph-name="threequarters" unicode="&#xbe;" horiz-adv-x="695" 
d="M134 296c-31.333 0 -57.666 8.16504 -78.999 24.498s-32 40.833 -32 73.5l45 7c0.666992 -21.333 7.16699 -37.333 19.5 -48s28.166 -16 47.499 -16c16 0 29.5 4.33301 40.5 13s16.5 20 16.5 34c0 15.333 -6 26 -18 32s-23.667 9 -35 9h-32v25h33
c13.333 0 24.666 2.83301 33.999 8.5s14 14.834 14 27.501c0 14.667 -5.16699 26.334 -15.5 35.001s-24.166 13 -41.499 13c-20.667 0 -35.834 -6.16699 -45.501 -18.5s-14.5 -23.833 -14.5 -34.5l-42 6c0 6.66699 3 16.834 9 30.501s16.333 26.334 31 38.001
s35 17.5 61 17.5c31.333 0 55.833 -6.83301 73.5 -20.5s26.5 -32.167 26.5 -55.5c0 -15.333 -4.33301 -28.5 -13 -39.5s-21 -17.833 -37 -20.5c16 -2.66699 29.333 -9.83398 40 -21.501s16 -25.5 16 -41.5c0 -24.667 -9.66699 -43.834 -29 -57.501
s-43.666 -20.5 -72.999 -20.5zM166 -0.00195312l-58 41l228 258l191 264l57 -40l-219 -247zM434 54.998l-0.000976562 41c22.667 10 42 25.333 58 46s28.333 43 37 67s13.334 46.667 14.001 68h52c0 -32 -10.167 -64.667 -30.5 -98s-47.5 -61 -81.5 -83h92v42h48v-42h35v-41
h-35v-55h-48v55h-141z" />
    <glyph glyph-name="questiondown" unicode="&#xbf;" horiz-adv-x="439" 
d="M240 379c19.333 0 32.333 -5.16699 39 -15.5s10 -22.5 10 -36.5s-3.33301 -25.833 -10 -35.5s-19.667 -14.5 -39 -14.5s-32.333 4.83301 -39 14.5s-10 21.5 -10 35.5c0 14.667 3.33301 27 10 37s19.667 15 39 15zM203 215l73.999 -0.000976562
c0 -22 -5.16699 -41.833 -15.5 -59.5s-23 -33.834 -38 -48.501l-45 -43.5c-15 -14.333 -27.667 -29.333 -38 -45s-15.833 -33.167 -16.5 -52.5c-1.33301 -27.333 6.83398 -49.5 24.501 -66.5s42.167 -25.5 73.5 -25.5c28.667 0 50.5 6.5 65.5 19.5s25.333 29 31 48
s8.5 37.167 8.5 54.5h79c3.33301 -32 -0.5 -63 -11.5 -93s-30.333 -54.5 -58 -73.5s-64.167 -28.5 -109.5 -28.5c-34.667 0 -66 6.33301 -94 19s-50.333 30.5 -67 53.5s-25 50.5 -25 82.5c0 26.667 5.33301 49.334 16 68.001s24 35.167 40 49.5l48 42
c16 13.667 29.5 28.334 40.5 44.001s16.833 34.167 17.5 55.5z" />
    <glyph glyph-name="Agrave" unicode="&#xc0;" horiz-adv-x="554" 
d="M19 0l189 563h137l193 -563h-89l-54 168h-234l-54 -168h-88zM278 528l-95 -294h190zM254 610l-81 97v16h72l48 -101v-12h-39z" />
    <glyph glyph-name="Aacute" unicode="&#xc1;" horiz-adv-x="554" 
d="M19 0l189 563h137l193 -563h-89l-54 168h-234l-54 -168h-88zM278 528l-95 -294h190zM295 610h-39v12l48 101h72v-16z" />
    <glyph glyph-name="Acircumflex" unicode="&#xc2;" horiz-adv-x="554" 
d="M19 0l189 563h137l193 -563h-89l-54 168h-234l-54 -168h-88zM278 528l-95 -294h190zM147 620v8l114 106h36l113 -106v-8h-75l-54 59h-4l-52 -59h-78z" />
    <glyph glyph-name="Atilde" unicode="&#xc3;" horiz-adv-x="554" 
d="M19 0l189 563h137l193 -563h-89l-54 168h-234l-54 -168h-88zM278 528l-95 -294h190zM332 620c-16 0 -28.834 2.83301 -38.501 8.5s-17.667 12.167 -24 19.5s-12.5 13.833 -18.5 19.5s-13.333 8.5 -22 8.5c-11.333 0 -18.166 -4.66699 -20.499 -14
s-3.16602 -22.333 -2.49902 -39h-52c0 12 1 26 3 42s7.83301 30 17.5 42s26.167 18 49.5 18c16 0 28.833 -2.83301 38.5 -8.5s17.667 -12.167 24 -19.5s12.666 -13.666 18.999 -18.999s13.833 -8 22.5 -8c11.333 0 18 4.66699 20 14s3 22.666 3 39.999h51
c0.666992 -16 -0.333008 -32 -3 -48s-9 -29.333 -19 -40s-26 -16 -48 -16z" />
    <glyph glyph-name="Adieresis" unicode="&#xc4;" horiz-adv-x="554" 
d="M19 0l189 563h137l193 -563h-89l-54 168h-234l-54 -168h-88zM278 528l-95 -294h190zM195 623c-22 0 -36.667 5.33301 -44 16s-11 23.667 -11 39c0 14 3.66699 26.333 11 37s22 16 44 16s36.5 -5.33301 43.5 -16s10.5 -23 10.5 -37c0 -15.333 -3.5 -28.333 -10.5 -39
s-21.5 -16 -43.5 -16zM364 623c-22 0 -36.667 5.33301 -44 16s-11 23.667 -11 39c0 14 3.66699 26.333 11 37s22 16 44 16s36.5 -5.33301 43.5 -16s10.5 -23 10.5 -37c0 -15.333 -3.5 -28.333 -10.5 -39s-21.5 -16 -43.5 -16z" />
    <glyph glyph-name="Aring" unicode="&#xc5;" horiz-adv-x="554" 
d="M19 0l189 563h137l193 -563h-89l-54 168h-234l-54 -168h-88zM278 528l-95 -294h190zM272 607c-31.333 0 -55 8.50098 -71 25.501s-24 39.5 -24 67.5c0 29.333 7.83301 52.666 23.5 69.999s39.5 26 71.5 26c31.333 0 55.333 -8.66699 72 -26s25 -40.666 25 -69.999
c0 -26.667 -8.33301 -48.834 -25 -66.501s-40.667 -26.5 -72 -26.5zM271 656.001c15.333 0 27 4.5 35 13.5s12 19.833 12 32.5c0 13.333 -4 24.5 -12 33.5s-19.667 13.5 -35 13.5c-14.667 0 -26 -4.66699 -34 -14s-12 -20.333 -12 -33c0 -13.333 4.16699 -24.333 12.5 -33
s19.5 -13 33.5 -13z" />
    <glyph glyph-name="AE" unicode="&#xc6;" horiz-adv-x="847" 
d="M19 0l334 563h448v-72h-307v-171h240v-69h-240v-183h317v-68h-399v168h-207l-97 -168h-89zM243 234h169v290z" />
    <glyph glyph-name="Ccedilla" unicode="&#xc7;" horiz-adv-x="599" 
d="M300 -10c-52 0 -99.1699 10.833 -141.503 32.5s-75.666 54 -99.999 97s-36.5 96.5 -36.5 160.5c0.666992 63.333 13 116.833 37 160.5s57.167 76.667 99.5 99s90.833 33.5 145.5 33.5c72.667 0 131.334 -19.333 176.001 -58s72.334 -89.334 83.001 -152.001h-86
c-5.33301 32 -16.833 57.667 -34.5 77s-38.667 33.333 -63 42s-49.5 13 -75.5 13c-63.333 0 -112.333 -18.167 -147 -54.5s-52 -88.166 -52 -155.499c0 -70.667 17 -124.5 51 -161.5s82.333 -55.5 145 -55.5c43.333 0 82 10.5 116 31.5s55 55.167 63 102.5h87
c-11.333 -62.667 -39.333 -113.667 -84 -153s-105.667 -59 -183 -59zM199.997 -134l27.002 41c8 -8 19.167 -14.5 33.5 -19.5s29 -7.83301 44 -8.5s27.5 1.5 37.5 6.5s15 13.5 15 25.5c-0.666992 10.667 -6 18 -16 22s-21.667 4.83301 -35 2.5s-25 -7.83301 -35 -16.5
l-36 21l41 87l41 -16l-39 -61c9.33301 8 21.5 13.667 36.5 17s30.167 3.83301 45.5 1.5s28.166 -8.33301 38.499 -18s15.5 -23.5 15.5 -41.5c0 -20.667 -7.16699 -37.5 -21.5 -50.5s-32.5 -21.667 -54.5 -26s-45.333 -3.83301 -70 1.5s-47.334 16 -68.001 32z" />
    <glyph glyph-name="Egrave" unicode="&#xc8;" horiz-adv-x="490" 
d="M137 68h318v-68h-400v563h390v-72h-308v-171h240v-69h-240v-183zM213 610l-81 97v16h72l48 -101v-12h-39z" />
    <glyph glyph-name="Eacute" unicode="&#xc9;" horiz-adv-x="490" 
d="M137 68h318v-68h-400v563h390v-72h-308v-171h240v-69h-240v-183zM251 610h-39v12l48 101h72v-16z" />
    <glyph glyph-name="Ecircumflex" unicode="&#xca;" horiz-adv-x="490" 
d="M137 68h318v-68h-400v563h390v-72h-308v-171h240v-69h-240v-183zM115 628v8l114 106h36l113 -106v-8h-75l-54 59h-4l-52 -59h-78z" />
    <glyph glyph-name="Edieresis" unicode="&#xcb;" horiz-adv-x="490" 
d="M137 68h318v-68h-400v563h390v-72h-308v-171h240v-69h-240v-183zM169 623c-22 0 -36.667 5.33301 -44 16s-11 23.667 -11 39c0 14 3.66699 26.333 11 37s22 16 44 16s36.5 -5.33301 43.5 -16s10.5 -23 10.5 -37c0 -15.333 -3.5 -28.333 -10.5 -39s-21.5 -16 -43.5 -16z
M338 623c-22 0 -36.667 5.33301 -44 16s-11 23.667 -11 39c0 14 3.66699 26.333 11 37s22 16 44 16s36.5 -5.33301 43.5 -16s10.5 -23 10.5 -37c0 -15.333 -3.5 -28.333 -10.5 -39s-21.5 -16 -43.5 -16z" />
    <glyph glyph-name="Igrave" unicode="&#xcc;" horiz-adv-x="360" 
d="M294 72v-72h-235v72h77v419h-77v72h235v-72h-76v-419h76zM144 610l-81 97v16h72l48 -101v-12h-39z" />
    <glyph glyph-name="Iacute" unicode="&#xcd;" horiz-adv-x="360" 
d="M294 72v-72h-235v72h77v419h-77v72h235v-72h-76v-419h76zM187 610h-39v12l48 101h72v-16z" />
    <glyph glyph-name="Icircumflex" unicode="&#xce;" horiz-adv-x="360" 
d="M294 72v-72h-235v72h77v419h-77v72h235v-72h-76v-419h76zM44 628v8l114 106h36l113 -106v-8h-75l-54 59h-4l-52 -59h-78z" />
    <glyph glyph-name="Idieresis" unicode="&#xcf;" horiz-adv-x="360" 
d="M294 72v-72h-235v72h77v419h-77v72h235v-72h-76v-419h76zM93 623c-22 0 -36.667 5.33301 -44 16s-11 23.667 -11 39c0 14 3.66699 26.333 11 37s22 16 44 16s36.5 -5.33301 43.5 -16s10.5 -23 10.5 -37c0 -15.333 -3.5 -28.333 -10.5 -39s-21.5 -16 -43.5 -16zM262 623
c-22 0 -36.667 5.33301 -44 16s-11 23.667 -11 39c0 14 3.66699 26.333 11 37s22 16 44 16s36.5 -5.33301 43.5 -16s10.5 -23 10.5 -37c0 -15.333 -3.5 -28.333 -10.5 -39s-21.5 -16 -43.5 -16z" />
    <glyph glyph-name="Eth" unicode="&#xd0;" horiz-adv-x="600" 
d="M65 0v258h-65v57h65v248h152c69.333 0 129.833 -10.5 181.5 -31.5s91.834 -52.167 120.501 -93.5s43 -93.333 43 -156c0 -74 -14.333 -131.5 -43 -172.5s-68.834 -69.5 -120.501 -85.5s-112.167 -24 -181.5 -24h-152zM148 70l91.002 -0.000976562
c47.333 0 88.666 5.5 123.999 16.5s62.666 31.833 81.999 62.5s29 75.334 29 134.001c0 70 -21.333 122.167 -64 156.5s-99.667 51.5 -171 51.5h-91v-176h156v-57h-156v-188z" />
    <glyph glyph-name="Ntilde" unicode="&#xd1;" horiz-adv-x="594" 
d="M451 563h85v-563h-157l-237 526h-2v-526h-85v563h147l247 -526h2v526zM346 620c-16 0 -28.834 2.83301 -38.501 8.5s-17.667 12.167 -24 19.5s-12.5 13.833 -18.5 19.5s-13.333 8.5 -22 8.5c-11.333 0 -18.166 -4.66699 -20.499 -14s-3.16602 -22.333 -2.49902 -39h-52
c0 12 1 26 3 42s7.83301 30 17.5 42s26.167 18 49.5 18c16 0 28.833 -2.83301 38.5 -8.5s17.667 -12.167 24 -19.5s12.666 -13.666 18.999 -18.999s13.833 -8 22.5 -8c11.333 0 18 4.66699 20 14s3 22.666 3 39.999h51c0.666992 -16 -0.333008 -32 -3 -48
s-9 -29.333 -19 -40s-26 -16 -48 -16z" />
    <glyph glyph-name="Ograve" unicode="&#xd2;" horiz-adv-x="608" 
d="M297 -14c-90 0 -158.667 26.5 -206 79.5s-71 124.5 -71 214.5c0 59.333 10.167 110.833 30.5 154.5s51 77.667 92 102s92.5 36.5 154.5 36.5c90 0 158.5 -26.5 205.5 -79.5s70.5 -124.167 70.5 -213.5c0 -58 -10.5 -109.167 -31.5 -153.5s-52 -78.833 -93 -103.5
s-91.5 -37 -151.5 -37zM296 66c64.667 0 113.332 19.998 145.999 59.998s49 91.333 49 154s-16.167 114.167 -48.5 154.5s-81.166 60.5 -146.499 60.5c-64 0 -112.5 -19.333 -145.5 -58s-49.5 -91 -49.5 -157c0 -41.333 7 -78.166 21 -110.499s35.5 -57.666 64.5 -75.999
s65.5 -27.5 109.5 -27.5zM272.998 609.998l-81 97v16h72l48 -101v-12h-39z" />
    <glyph glyph-name="Oacute" unicode="&#xd3;" horiz-adv-x="608" 
d="M297 -14c-90 0 -158.667 26.5 -206 79.5s-71 124.5 -71 214.5c0 59.333 10.167 110.833 30.5 154.5s51 77.667 92 102s92.5 36.5 154.5 36.5c90 0 158.5 -26.5 205.5 -79.5s70.5 -124.167 70.5 -213.5c0 -58 -10.5 -109.167 -31.5 -153.5s-52 -78.833 -93 -103.5
s-91.5 -37 -151.5 -37zM296 66c64.667 0 113.332 19.998 145.999 59.998s49 91.333 49 154s-16.167 114.167 -48.5 154.5s-81.166 60.5 -146.499 60.5c-64 0 -112.5 -19.333 -145.5 -58s-49.5 -91 -49.5 -157c0 -41.333 7 -78.166 21 -110.499s35.5 -57.666 64.5 -75.999
s65.5 -27.5 109.5 -27.5zM319.998 609.998h-39v12l48 101h72v-16z" />
    <glyph glyph-name="Ocircumflex" unicode="&#xd4;" horiz-adv-x="608" 
d="M297 -14c-90 0 -158.667 26.5 -206 79.5s-71 124.5 -71 214.5c0 59.333 10.167 110.833 30.5 154.5s51 77.667 92 102s92.5 36.5 154.5 36.5c90 0 158.5 -26.5 205.5 -79.5s70.5 -124.167 70.5 -213.5c0 -58 -10.5 -109.167 -31.5 -153.5s-52 -78.833 -93 -103.5
s-91.5 -37 -151.5 -37zM296 66c64.667 0 113.332 19.998 145.999 59.998s49 91.333 49 154s-16.167 114.167 -48.5 154.5s-81.166 60.5 -146.499 60.5c-64 0 -112.5 -19.333 -145.5 -58s-49.5 -91 -49.5 -157c0 -41.333 7 -78.166 21 -110.499s35.5 -57.666 64.5 -75.999
s65.5 -27.5 109.5 -27.5zM166.998 627.998v8l114 106h36l113 -106v-8h-75l-54 59h-4l-52 -59h-78z" />
    <glyph glyph-name="Otilde" unicode="&#xd5;" horiz-adv-x="608" 
d="M297 -14c-90 0 -158.667 26.5 -206 79.5s-71 124.5 -71 214.5c0 59.333 10.167 110.833 30.5 154.5s51 77.667 92 102s92.5 36.5 154.5 36.5c90 0 158.5 -26.5 205.5 -79.5s70.5 -124.167 70.5 -213.5c0 -58 -10.5 -109.167 -31.5 -153.5s-52 -78.833 -93 -103.5
s-91.5 -37 -151.5 -37zM296 66c64.667 0 113.332 19.998 145.999 59.998s49 91.333 49 154s-16.167 114.167 -48.5 154.5s-81.166 60.5 -146.499 60.5c-64 0 -112.5 -19.333 -145.5 -58s-49.5 -91 -49.5 -157c0 -41.333 7 -78.166 21 -110.499s35.5 -57.666 64.5 -75.999
s65.5 -27.5 109.5 -27.5zM351.998 622.998c-16 0 -28.834 2.83301 -38.501 8.5s-17.667 12.167 -24 19.5s-12.5 13.833 -18.5 19.5s-13.333 8.5 -22 8.5c-11.333 0 -18.166 -4.66699 -20.499 -14s-3.16602 -22.333 -2.49902 -39h-52c0 12 1 26 3 42s7.83301 30 17.5 42
s26.167 18 49.5 18c16 0 28.833 -2.83301 38.5 -8.5s17.667 -12.167 24 -19.5s12.666 -13.666 18.999 -18.999s13.833 -8 22.5 -8c11.333 0 18 4.66699 20 14s3 22.666 3 39.999h51c0.666992 -16 -0.333008 -32 -3 -48s-9 -29.333 -19 -40s-26 -16 -48 -16z" />
    <glyph glyph-name="Odieresis" unicode="&#xd6;" horiz-adv-x="608" 
d="M297 -14c-90 0 -158.667 26.5 -206 79.5s-71 124.5 -71 214.5c0 59.333 10.167 110.833 30.5 154.5s51 77.667 92 102s92.5 36.5 154.5 36.5c90 0 158.5 -26.5 205.5 -79.5s70.5 -124.167 70.5 -213.5c0 -58 -10.5 -109.167 -31.5 -153.5s-52 -78.833 -93 -103.5
s-91.5 -37 -151.5 -37zM296 66c64.667 0 113.332 19.998 145.999 59.998s49 91.333 49 154s-16.167 114.167 -48.5 154.5s-81.166 60.5 -146.499 60.5c-64 0 -112.5 -19.333 -145.5 -58s-49.5 -91 -49.5 -157c0 -41.333 7 -78.166 21 -110.499s35.5 -57.666 64.5 -75.999
s65.5 -27.5 109.5 -27.5zM219.998 622.998c-22 0 -36.667 5.33301 -44 16s-11 23.667 -11 39c0 14 3.66699 26.333 11 37s22 16 44 16s36.5 -5.33301 43.5 -16s10.5 -23 10.5 -37c0 -15.333 -3.5 -28.333 -10.5 -39s-21.5 -16 -43.5 -16zM388.998 622.998
c-22 0 -36.667 5.33301 -44 16s-11 23.667 -11 39c0 14 3.66699 26.333 11 37s22 16 44 16s36.5 -5.33301 43.5 -16s10.5 -23 10.5 -37c0 -15.333 -3.5 -28.333 -10.5 -39s-21.5 -16 -43.5 -16z" />
    <glyph glyph-name="multiply" unicode="&#xd7;" horiz-adv-x="316" 
d="M281 300l-81 -82l81 -82l-40 -42l-83 83l-81 -82l-42 42l82 81l-81 81l41 42l81 -81l82 81z" />
    <glyph glyph-name="Oslash" unicode="&#xd8;" horiz-adv-x="600" 
d="M86 -24l40.001 58c-34.667 24.667 -61 58 -79 100s-27 90.667 -27 146c0 59.333 10.167 110.833 30.5 154.5s51 77.667 92 102s92.167 36.5 153.5 36.5c34.667 0 66.167 -4 94.5 -12s53.5 -19.667 75.5 -35l46 66l25 -14l-49 -70c56.667 -52 85 -128 85 -228
c0 -58 -10.5 -109.167 -31.5 -153.5s-52 -78.833 -93 -103.5s-91.5 -37 -151.5 -37c-56.667 0 -105.334 11 -146.001 33l-40 -58zM101.001 280c0 -38 5.99902 -72.332 17.999 -102.999s30.333 -55.334 55 -74.001l245 354c-16 12 -34.167 21.333 -54.5 28
s-43.166 10 -68.499 10c-64 0 -112.5 -19.333 -145.5 -58s-49.5 -91 -49.5 -157zM296 66.001c64.667 0 113.332 20 145.999 60s49 91.333 49 154c0 32 -4.16699 61.5 -12.5 88.5s-21.166 50.167 -38.499 69.5l-242 -351c28 -14 60.667 -21 98 -21z" />
    <glyph glyph-name="Ugrave" unicode="&#xd9;" horiz-adv-x="586" 
d="M292 -14c-77.333 0 -136.501 22.167 -177.501 66.5s-61.5 106.833 -61.5 187.5v323h87v-322c0 -43.333 7 -77.833 21 -103.5s32.5 -44.167 55.5 -55.5s48.167 -17 75.5 -17c30 0 56.5 5.5 79.5 16.5s41 29.333 54 55s19.5 60.5 19.5 104.5v322h87v-323
c0 -82 -20.167 -144.833 -60.5 -188.5s-100.166 -65.5 -179.499 -65.5zM263.999 610l-81 97v16h72l48 -101v-12h-39z" />
    <glyph glyph-name="Uacute" unicode="&#xda;" horiz-adv-x="586" 
d="M292 -14c-77.333 0 -136.501 22.167 -177.501 66.5s-61.5 106.833 -61.5 187.5v323h87v-322c0 -43.333 7 -77.833 21 -103.5s32.5 -44.167 55.5 -55.5s48.167 -17 75.5 -17c30 0 56.5 5.5 79.5 16.5s41 29.333 54 55s19.5 60.5 19.5 104.5v322h87v-323
c0 -82 -20.167 -144.833 -60.5 -188.5s-100.166 -65.5 -179.499 -65.5zM307.999 610h-39v12l48 101h72v-16z" />
    <glyph glyph-name="Ucircumflex" unicode="&#xdb;" horiz-adv-x="586" 
d="M292 -14c-77.333 0 -136.501 22.167 -177.501 66.5s-61.5 106.833 -61.5 187.5v323h87v-322c0 -43.333 7 -77.833 21 -103.5s32.5 -44.167 55.5 -55.5s48.167 -17 75.5 -17c30 0 56.5 5.5 79.5 16.5s41 29.333 54 55s19.5 60.5 19.5 104.5v322h87v-323
c0 -82 -20.167 -144.833 -60.5 -188.5s-100.166 -65.5 -179.499 -65.5zM161.999 620v8l114 106h36l113 -106v-8h-75l-54 59h-4l-52 -59h-78z" />
    <glyph glyph-name="Udieresis" unicode="&#xdc;" horiz-adv-x="586" 
d="M292 -14c-77.333 0 -136.501 22.167 -177.501 66.5s-61.5 106.833 -61.5 187.5v323h87v-322c0 -43.333 7 -77.833 21 -103.5s32.5 -44.167 55.5 -55.5s48.167 -17 75.5 -17c30 0 56.5 5.5 79.5 16.5s41 29.333 54 55s19.5 60.5 19.5 104.5v322h87v-323
c0 -82 -20.167 -144.833 -60.5 -188.5s-100.166 -65.5 -179.499 -65.5zM210.999 623c-22 0 -36.667 5.33301 -44 16s-11 23.667 -11 39c0 14 3.66699 26.333 11 37s22 16 44 16s36.5 -5.33301 43.5 -16s10.5 -23 10.5 -37c0 -15.333 -3.5 -28.333 -10.5 -39
s-21.5 -16 -43.5 -16zM379.999 623c-22 0 -36.667 5.33301 -44 16s-11 23.667 -11 39c0 14 3.66699 26.333 11 37s22 16 44 16s36.5 -5.33301 43.5 -16s10.5 -23 10.5 -37c0 -15.333 -3.5 -28.333 -10.5 -39s-21.5 -16 -43.5 -16z" />
    <glyph glyph-name="Yacute" unicode="&#xdd;" horiz-adv-x="439" 
d="M175 0v202l-192 361h93l142 -286l141 286h93l-194 -360v-203h-83zM230 610h-39v12l48 101h72v-16z" />
    <glyph glyph-name="Thorn" unicode="&#xde;" horiz-adv-x="487" 
d="M143 0h-83v563h83v-102h131c62 0 109.833 -15.333 143.5 -46s50.5 -76.667 50.5 -138c0 -55.333 -17.333 -98.333 -52 -129s-82 -46 -142 -46h-131v-102zM263 392l-120 0.000976562v-227h120c40 0 71.667 9.33301 95 28s35 47 35 85c0 39.333 -11.333 68.166 -34 86.499
s-54.667 27.5 -96 27.5z" />
    <glyph glyph-name="germandbls" unicode="&#xdf;" horiz-adv-x="555" 
d="M352 -10c-39.333 0 -71.5 6.67383 -96.5 20.0068s-43.833 30.666 -56.5 51.999s-20.667 44 -24 68h72c0 -0.666992 1.16699 -4.33398 3.5 -11.001s6.66602 -14.334 12.999 -23.001s15.833 -16.334 28.5 -23.001s29.334 -10 50.001 -10c33.333 0 60 9.33301 80 28
s30 40.667 30 66c-0.666992 21.333 -7.5 39 -20.5 53s-29.167 25.5 -48.5 34.5s-38.833 17.5 -58.5 25.5s-36 16.833 -49 26.5s-19.5 22.167 -19.5 37.5c0 13.333 4 23.666 12 30.999s17.833 13.5 29.5 18.5s23.334 10.333 35.001 16s21.667 13.167 30 22.5
s12.5 22.333 12.5 39c0 10 -6 17.333 -18 22s-26.5 7.83398 -43.5 9.50098s-32.833 2.5 -47.5 2.5h-128v-495h-83v563h211c16 0 34.5 -0.333008 55.5 -1s41.5 -3.16699 61.5 -7.5s36.667 -12.5 50 -24.5s20 -29.333 20 -52c0 -20.667 -4.5 -37.334 -13.5 -50.001
s-20 -22.834 -33 -30.501s-26 -14.334 -39 -20.001s-23.833 -11.5 -32.5 -17.5s-13 -14 -13 -24c-0.666992 -12 6.16602 -21.5 20.499 -28.5s32 -14.167 53 -21.5s42 -16.333 63 -27s38.667 -25.167 53 -43.5s21.5 -42.5 21.5 -72.5c0 -30.667 -8.5 -57.5 -25.5 -80.5
s-39.167 -40.833 -66.5 -53.5s-57 -19 -89 -19z" />
    <glyph glyph-name="agrave" unicode="&#xe0;" horiz-adv-x="440" 
d="M180 -9c-38 0 -68.666 8.83105 -91.999 26.498s-40.5 42.334 -51.5 74.001s-16.5 67.834 -16.5 108.501c0 62 12.667 112.833 38 152.5s66 59.5 122 59.5c30 0 54.333 -5.33301 73 -16s33.167 -22.667 43.5 -36s17.5 -25 21.5 -35h2v84h85v-409h-71l-14 73h-2
c-4 -10 -11.333 -21.5 -22 -34.5s-25.334 -24.167 -44.001 -33.5s-42.667 -14 -72 -14zM213.001 61.998c39.333 0 66.832 12.665 82.499 37.998s23.5 58.333 23.5 99c0 42.667 -8.16699 76.334 -24.5 101.001s-43.5 37 -81.5 37c-28 0 -50 -6.16699 -66 -18.5
s-27.5 -28.833 -34.5 -49.5s-10.5 -43.667 -10.5 -69c0 -39.333 8.33301 -72.166 25 -98.499s45.334 -39.5 86.001 -39.5zM204 452.996l-81 97v16h72l48 -101v-12h-39z" />
    <glyph glyph-name="aacute" unicode="&#xe1;" horiz-adv-x="440" 
d="M180 -9c-38 0 -68.666 8.83105 -91.999 26.498s-40.5 42.334 -51.5 74.001s-16.5 67.834 -16.5 108.501c0 62 12.667 112.833 38 152.5s66 59.5 122 59.5c30 0 54.333 -5.33301 73 -16s33.167 -22.667 43.5 -36s17.5 -25 21.5 -35h2v84h85v-409h-71l-14 73h-2
c-4 -10 -11.333 -21.5 -22 -34.5s-25.334 -24.167 -44.001 -33.5s-42.667 -14 -72 -14zM213.001 61.998c39.333 0 66.832 12.665 82.499 37.998s23.5 58.333 23.5 99c0 42.667 -8.16699 76.334 -24.5 101.001s-43.5 37 -81.5 37c-28 0 -50 -6.16699 -66 -18.5
s-27.5 -28.833 -34.5 -49.5s-10.5 -43.667 -10.5 -69c0 -39.333 8.33301 -72.166 25 -98.499s45.334 -39.5 86.001 -39.5zM240 452.996h-39v12l48 101h72v-16z" />
    <glyph glyph-name="acircumflex" unicode="&#xe2;" horiz-adv-x="440" 
d="M180 -9c-38 0 -68.666 8.83105 -91.999 26.498s-40.5 42.334 -51.5 74.001s-16.5 67.834 -16.5 108.501c0 62 12.667 112.833 38 152.5s66 59.5 122 59.5c30 0 54.333 -5.33301 73 -16s33.167 -22.667 43.5 -36s17.5 -25 21.5 -35h2v84h85v-409h-71l-14 73h-2
c-4 -10 -11.333 -21.5 -22 -34.5s-25.334 -24.167 -44.001 -33.5s-42.667 -14 -72 -14zM213.001 61.998c39.333 0 66.832 12.665 82.499 37.998s23.5 58.333 23.5 99c0 42.667 -8.16699 76.334 -24.5 101.001s-43.5 37 -81.5 37c-28 0 -50 -6.16699 -66 -18.5
s-27.5 -28.833 -34.5 -49.5s-10.5 -43.667 -10.5 -69c0 -39.333 8.33301 -72.166 25 -98.499s45.334 -39.5 86.001 -39.5zM85 462.996v8l114 106h36l113 -106v-8h-75l-54 59h-4l-52 -59h-78z" />
    <glyph glyph-name="atilde" unicode="&#xe3;" horiz-adv-x="440" 
d="M180 -9c-38 0 -68.666 8.83105 -91.999 26.498s-40.5 42.334 -51.5 74.001s-16.5 67.834 -16.5 108.501c0 62 12.667 112.833 38 152.5s66 59.5 122 59.5c30 0 54.333 -5.33301 73 -16s33.167 -22.667 43.5 -36s17.5 -25 21.5 -35h2v84h85v-409h-71l-14 73h-2
c-4 -10 -11.333 -21.5 -22 -34.5s-25.334 -24.167 -44.001 -33.5s-42.667 -14 -72 -14zM213.001 61.998c39.333 0 66.832 12.665 82.499 37.998s23.5 58.333 23.5 99c0 42.667 -8.16699 76.334 -24.5 101.001s-43.5 37 -81.5 37c-28 0 -50 -6.16699 -66 -18.5
s-27.5 -28.833 -34.5 -49.5s-10.5 -43.667 -10.5 -69c0 -39.333 8.33301 -72.166 25 -98.499s45.334 -39.5 86.001 -39.5zM270 470.996c-16 0 -28.834 2.83301 -38.501 8.5s-17.667 12.167 -24 19.5s-12.5 13.833 -18.5 19.5s-13.333 8.5 -22 8.5
c-11.333 0 -18.166 -4.66699 -20.499 -14s-3.16602 -22.333 -2.49902 -39h-52c0 12 1 26 3 42s7.83301 30 17.5 42s26.167 18 49.5 18c16 0 28.833 -2.83301 38.5 -8.5s17.667 -12.167 24 -19.5s12.666 -13.666 18.999 -18.999s13.833 -8 22.5 -8c11.333 0 18 4.66699 20 14
s3 22.666 3 39.999h51c0.666992 -16 -0.333008 -32 -3 -48s-9 -29.333 -19 -40s-26 -16 -48 -16z" />
    <glyph glyph-name="adieresis" unicode="&#xe4;" horiz-adv-x="497" 
d="M148 456c-22 0 -36.667 5.5 -44 16.5s-11 23.833 -11 38.5c0 14 3.66699 26.5 11 37.5s22 16.5 44 16.5c21.333 0 35.5 -5.5 42.5 -16.5s10.5 -23.5 10.5 -37.5c0 -14.667 -3.5 -27.5 -10.5 -38.5s-21.167 -16.5 -42.5 -16.5zM317 456c-22 0 -36.667 5.5 -44 16.5
s-11 23.833 -11 38.5c0 14 3.66699 26.5 11 37.5s22 16.5 44 16.5c21.333 0 35.5 -5.5 42.5 -16.5s10.5 -23.5 10.5 -37.5c0 -14.667 -3.5 -27.5 -10.5 -38.5s-21.167 -16.5 -42.5 -16.5zM201 -9c-40.667 0 -74.3359 9.66895 -101.003 29.002s-46.667 45.166 -60 77.499
s-20 67.833 -20 106.5c0 39.333 6.83301 75.166 20.5 107.499s33.834 58 60.501 77s60 28.5 100 28.5c32.667 0 60.834 -6.83301 84.501 -20.5s42.834 -31.167 57.501 -52.5v65h83v-302c0 -26.667 5.66699 -43 17 -49s25 -5 41 3l3 -48
c-1.33301 -0.666992 -7.5 -4.5 -18.5 -11.5s-27.5 -10.5 -49.5 -10.5c-20 0 -35.333 4 -46 12s-18.167 18 -22.5 30s-6.83301 24.333 -7.5 37c-14 -23.333 -32.667 -42.333 -56 -57s-52 -22 -86 -22zM222.998 58.002c41.333 0 70.834 13.833 88.501 41.5
s26.5 62.5 26.5 104.5c0 42.667 -9 78 -27 106s-47.333 42 -88 42c-29.333 0 -52.833 -6.83301 -70.5 -20.5s-30.167 -31.667 -37.5 -54s-11 -46.833 -11 -73.5s3.83301 -51.167 11.5 -73.5s20.167 -40 37.5 -53s40.666 -19.5 69.999 -19.5z" />
    <glyph glyph-name="aring" unicode="&#xe5;" horiz-adv-x="440" 
d="M180 -9c-38 0 -68.666 8.83105 -91.999 26.498s-40.5 42.334 -51.5 74.001s-16.5 67.834 -16.5 108.501c0 62 12.667 112.833 38 152.5s66 59.5 122 59.5c30 0 54.333 -5.33301 73 -16s33.167 -22.667 43.5 -36s17.5 -25 21.5 -35h2v84h85v-409h-71l-14 73h-2
c-4 -10 -11.333 -21.5 -22 -34.5s-25.334 -24.167 -44.001 -33.5s-42.667 -14 -72 -14zM213.001 61.998c39.333 0 66.832 12.665 82.499 37.998s23.5 58.333 23.5 99c0 42.667 -8.16699 76.334 -24.5 101.001s-43.5 37 -81.5 37c-28 0 -50 -6.16699 -66 -18.5
s-27.5 -28.833 -34.5 -49.5s-10.5 -43.667 -10.5 -69c0 -39.333 8.33301 -72.166 25 -98.499s45.334 -39.5 86.001 -39.5zM215 468.996c-31.333 0 -55 8.50098 -71 25.501s-24 39.5 -24 67.5c0 29.333 7.83301 52.666 23.5 69.999s39.5 26 71.5 26
c31.333 0 55.333 -8.66699 72 -26s25 -40.666 25 -69.999c0 -26.667 -8.33301 -48.834 -25 -66.501s-40.667 -26.5 -72 -26.5zM214 517.997c15.333 0 27 4.5 35 13.5s12 19.833 12 32.5c0 13.333 -4 24.5 -12 33.5s-19.667 13.5 -35 13.5c-14.667 0 -26 -4.66699 -34 -14
s-12 -20.333 -12 -33c0 -13.333 4.16699 -24.333 12.5 -33s19.5 -13 33.5 -13z" />
    <glyph glyph-name="ae" unicode="&#xe6;" horiz-adv-x="730" 
d="M147 0c-37.333 0 -67.165 9.66309 -89.498 28.9961s-33.5 45 -33.5 77c0 30 8.83301 53.167 26.5 69.5s40 28.833 67 37.5s54.833 16 83.5 22c29.333 6.66699 51.333 12.334 66 17.001s24.667 9.83398 30 15.501s8 13.167 8 22.5c0 21.333 -8.5 37.833 -25.5 49.5
s-36.833 17.5 -59.5 17.5c-15.333 0 -30.166 -2.83301 -44.499 -8.5s-26.333 -14.667 -36 -27s-14.5 -28.5 -14.5 -48.5h-78c2 34.667 11.5 62.834 28.5 84.501s38.5 37.5 64.5 47.5s53 15 81 15c28.667 0 55.667 -5.66699 81 -17s44 -28 56 -50
c15.333 20 35.333 36.333 60 49s54.667 19 90 19c34 0 64.667 -8.16699 92 -24.5s49.166 -38.833 65.499 -67.5s25.5 -61.334 27.5 -98.001v-26h-307c0 -41.333 10.5 -73.666 31.5 -96.999s50.833 -35 89.5 -35c29.333 0 53.166 7.16699 71.499 21.5s30.5 33.833 36.5 58.5
l80 -13c-10.667 -40 -31.834 -73.333 -63.501 -100s-73.167 -40 -124.5 -40c-37.333 0 -69.333 6.66699 -96 20s-48 31.333 -64 54s-27.333 47.334 -34 74.001c-2 -20.667 -9.5 -42.5 -22.5 -65.5s-31.5 -42.5 -55.5 -58.5s-53.333 -24 -88 -24zM387.001 251.996
l222 0.000976562c0 7.33301 -1.5 17 -4.5 29s-8.16699 24 -15.5 36s-17.833 22.167 -31.5 30.5s-31.167 12.5 -52.5 12.5c-27.333 0 -49.333 -6 -66 -18s-29 -26.333 -37 -43s-13 -32.334 -15 -47.001zM177.001 61.9971c26 0.666992 48.332 9.16602 66.999 25.499
s33.167 37.5 43.5 63.5s15.5 54 15.5 84c-6.66699 -6 -17.5 -11.167 -32.5 -15.5l-44.5 -12.5c-21.333 -5.33301 -41 -11.666 -59 -18.999s-32.5 -16.833 -43.5 -28.5s-16.167 -26.5 -15.5 -44.5s7.83398 -31.5 21.501 -40.5s29.5 -13.167 47.5 -12.5z" />
    <glyph glyph-name="ccedilla" unicode="&#xe7;" horiz-adv-x="461" 
d="M230 -10c-38.667 0 -73.333 8.00195 -104 24.002s-54.834 39.333 -72.501 70s-26.5 68 -26.5 112c0.666992 43.333 10 81 28 113s42.167 56.833 72.5 74.5s65.166 26.5 104.499 26.5c38.667 0 71.834 -7.33301 99.501 -22s49.5 -33.834 65.5 -57.501
s25.667 -48.834 29 -75.501h-77c-5.33301 26 -18 46.333 -38 61s-45.333 22 -76 22c-40 0 -71.167 -12.667 -93.5 -38s-33.5 -58 -33.5 -98c0 -42.667 10.833 -76.5 32.5 -101.5s52.834 -37.5 93.501 -37.5c28.667 0 53.667 7.33301 75 22s34.666 36 39.999 64h77
c-3.33301 -28 -13.166 -54.167 -29.499 -78.5s-38.5 -43.833 -66.5 -58.5s-61.333 -22 -100 -22zM120.001 -132.998l27.002 41c8 -8 19.167 -14.5 33.5 -19.5s29 -7.83301 44 -8.5s27.5 1.5 37.5 6.5s15 13.5 15 25.5c-0.666992 10.667 -6 18 -16 22
s-21.667 4.83301 -35 2.5s-25 -7.83301 -35 -16.5l-36 21l41 87l41 -16l-39 -61c9.33301 8 21.5 13.667 36.5 17s30.167 3.83301 45.5 1.5s28.166 -8.33301 38.499 -18s15.5 -23.5 15.5 -41.5c0 -20.667 -7.16699 -37.5 -21.5 -50.5s-32.5 -21.667 -54.5 -26
s-45.333 -3.83301 -70 1.5s-47.334 16 -68.001 32z" />
    <glyph glyph-name="egrave" unicode="&#xe8;" horiz-adv-x="457" 
d="M226 -10c-46 0 -83.668 10.168 -113.001 30.501s-51 46.5 -65 78.5s-21 65.667 -21 101c-0.666992 39.333 6.83301 75 22.5 107s38.334 57.333 68.001 76s65.167 28 106.5 28c35.333 0 67.166 -7.83301 95.499 -23.5s50.833 -37.667 67.5 -66s25.667 -61.833 27 -100.5
c0 -2 0.166992 -5.83301 0.5 -11.5s0.5 -10.5 0.5 -14.5h-309c0 -42.667 10.5 -75.834 31.5 -99.501s50.167 -35.5 87.5 -35.5c28 0 51.833 7.16699 71.5 21.5s31.834 33.5 36.501 57.5h81c-6 -42.667 -25.333 -78.167 -58 -106.5s-76 -42.5 -130 -42.5zM108.999 236.001
h222.001c-0.666992 7.33301 -2.66699 17 -6 29s-8.83301 23.833 -16.5 35.5s-18.5 21.5 -32.5 29.5s-32 12 -54 12c-27.333 0 -48.833 -5.83301 -64.5 -17.5s-27.334 -25.667 -35.001 -42s-12.167 -31.833 -13.5 -46.5zM204 453.001l-81 97v16h72l48 -101v-12h-39z" />
    <glyph glyph-name="eacute" unicode="&#xe9;" horiz-adv-x="457" 
d="M226 -10c-46 0 -83.668 10.168 -113.001 30.501s-51 46.5 -65 78.5s-21 65.667 -21 101c-0.666992 39.333 6.83301 75 22.5 107s38.334 57.333 68.001 76s65.167 28 106.5 28c35.333 0 67.166 -7.83301 95.499 -23.5s50.833 -37.667 67.5 -66s25.667 -61.833 27 -100.5
c0 -2 0.166992 -5.83301 0.5 -11.5s0.5 -10.5 0.5 -14.5h-309c0 -42.667 10.5 -75.834 31.5 -99.501s50.167 -35.5 87.5 -35.5c28 0 51.833 7.16699 71.5 21.5s31.834 33.5 36.501 57.5h81c-6 -42.667 -25.333 -78.167 -58 -106.5s-76 -42.5 -130 -42.5zM108.999 236.001
h222.001c-0.666992 7.33301 -2.66699 17 -6 29s-8.83301 23.833 -16.5 35.5s-18.5 21.5 -32.5 29.5s-32 12 -54 12c-27.333 0 -48.833 -5.83301 -64.5 -17.5s-27.334 -25.667 -35.001 -42s-12.167 -31.833 -13.5 -46.5zM239 453.001h-39v12l48 101h72v-16z" />
    <glyph glyph-name="ecircumflex" unicode="&#xea;" horiz-adv-x="457" 
d="M226 -10c-46 0 -83.668 10.168 -113.001 30.501s-51 46.5 -65 78.5s-21 65.667 -21 101c-0.666992 39.333 6.83301 75 22.5 107s38.334 57.333 68.001 76s65.167 28 106.5 28c35.333 0 67.166 -7.83301 95.499 -23.5s50.833 -37.667 67.5 -66s25.667 -61.833 27 -100.5
c0 -2 0.166992 -5.83301 0.5 -11.5s0.5 -10.5 0.5 -14.5h-309c0 -42.667 10.5 -75.834 31.5 -99.501s50.167 -35.5 87.5 -35.5c28 0 51.833 7.16699 71.5 21.5s31.834 33.5 36.501 57.5h81c-6 -42.667 -25.333 -78.167 -58 -106.5s-76 -42.5 -130 -42.5zM108.999 236.001
h222.001c-0.666992 7.33301 -2.66699 17 -6 29s-8.83301 23.833 -16.5 35.5s-18.5 21.5 -32.5 29.5s-32 12 -54 12c-27.333 0 -48.833 -5.83301 -64.5 -17.5s-27.334 -25.667 -35.001 -42s-12.167 -31.833 -13.5 -46.5zM91 459.001v8l114 106h36l113 -106v-8h-75l-54 59h-4
l-52 -59h-78z" />
    <glyph glyph-name="edieresis" unicode="&#xeb;" horiz-adv-x="457" 
d="M226 -10c-46 0 -83.668 10.168 -113.001 30.501s-51 46.5 -65 78.5s-21 65.667 -21 101c-0.666992 39.333 6.83301 75 22.5 107s38.334 57.333 68.001 76s65.167 28 106.5 28c35.333 0 67.166 -7.83301 95.499 -23.5s50.833 -37.667 67.5 -66s25.667 -61.833 27 -100.5
c0 -2 0.166992 -5.83301 0.5 -11.5s0.5 -10.5 0.5 -14.5h-309c0 -42.667 10.5 -75.834 31.5 -99.501s50.167 -35.5 87.5 -35.5c28 0 51.833 7.16699 71.5 21.5s31.834 33.5 36.501 57.5h81c-6 -42.667 -25.333 -78.167 -58 -106.5s-76 -42.5 -130 -42.5zM108.999 236.001
h222.001c-0.666992 7.33301 -2.66699 17 -6 29s-8.83301 23.833 -16.5 35.5s-18.5 21.5 -32.5 29.5s-32 12 -54 12c-27.333 0 -48.833 -5.83301 -64.5 -17.5s-27.334 -25.667 -35.001 -42s-12.167 -31.833 -13.5 -46.5zM138 457.001c-22 0 -36.667 5.33301 -44 16
s-11 23.667 -11 39c0 14 3.66699 26.333 11 37s22 16 44 16s36.5 -5.33301 43.5 -16s10.5 -23 10.5 -37c0 -15.333 -3.5 -28.333 -10.5 -39s-21.5 -16 -43.5 -16zM307 457.001c-22 0 -36.667 5.33301 -44 16s-11 23.667 -11 39c0 14 3.66699 26.333 11 37s22 16 44 16
s36.5 -5.33301 43.5 -16s10.5 -23 10.5 -37c0 -15.333 -3.5 -28.333 -10.5 -39s-21.5 -16 -43.5 -16z" />
    <glyph glyph-name="igrave" unicode="&#xec;" horiz-adv-x="191" 
d="M79 457l-82 96v17h73l48 -102v-11h-39zM54 0v409h83v-409h-83z" />
    <glyph glyph-name="iacute" unicode="&#xed;" horiz-adv-x="185" 
d="M103 459h-39v11l48 102h72v-17zM43 0v411h83v-411h-83z" />
    <glyph glyph-name="icircumflex" unicode="&#xee;" horiz-adv-x="225" 
d="M-20 459v8l113 106h36l114 -106v-8h-76l-54 59h-4l-52 -59h-77zM70 0v411h83v-411h-83z" />
    <glyph glyph-name="idieresis" unicode="&#xef;" horiz-adv-x="243" 
d="M35 456c-22 0 -36.667 5.5 -44 16.5s-11 23.833 -11 38.5c0 14 3.66699 26.5 11 37.5s22 16.5 44 16.5s36.5 -5.5 43.5 -16.5s10.5 -23.5 10.5 -37.5c0 -14.667 -3.5 -27.5 -10.5 -38.5s-21.5 -16.5 -43.5 -16.5zM204 456c-22 0 -36.667 5.5 -44 16.5
s-11 23.833 -11 38.5c0 14 3.66699 26.5 11 37.5s22 16.5 44 16.5s36.5 -5.5 43.5 -16.5s10.5 -23.5 10.5 -37.5c0 -14.667 -3.5 -27.5 -10.5 -38.5s-21.5 -16.5 -43.5 -16.5zM78 0v411h83v-411h-83z" />
    <glyph glyph-name="eth" unicode="&#xf0;" horiz-adv-x="505" 
d="M251 -10c-45.333 0 -83.498 9.66895 -114.498 29.002s-54.5 44.166 -70.5 74.499s-24.833 62.5 -26.5 96.5s3.66602 66.167 15.999 96.5s31.833 55.166 58.5 74.499s60 29 100 29c32.667 0 60.5 -6.33301 83.5 -19s41.5 -27.5 55.5 -44.5s24.167 -31.833 30.5 -44.5
l9.5 -19h1c-6 34.667 -20.167 68.834 -42.5 102.501s-46.5 63.834 -72.5 90.501l-56 -34l-31 29l56 34c-30.667 26.667 -56.334 44 -77.001 52l57 69c20 -8.66699 38.667 -18.834 56 -30.501s33.333 -24.834 48 -39.501l68 41l31 -29l-70 -43
c32.667 -37.333 57.667 -79 75 -125s26.833 -91.833 28.5 -137.5s-4.83301 -87.667 -19.5 -126s-38.167 -69 -70.5 -92s-73.5 -34.5 -123.5 -34.5zM394.002 168.002c-0.666992 32.667 -7.83398 60.333 -21.501 83s-31.334 40.167 -53.001 52.5s-44.5 19.5 -68.5 21.5
s-46.333 -1.5 -67 -10.5s-37.167 -23.5 -49.5 -43.5s-17.166 -45.667 -14.499 -77c2 -33.333 11.5 -60.5 28.5 -81.5s38 -36 63 -45s50.333 -11.333 76 -7s48.334 15.333 68.001 33s32.5 42.5 38.5 74.5z" />
    <glyph glyph-name="ntilde" unicode="&#xf1;" horiz-adv-x="456" 
d="M38 0l-0.00195312 408h71l14 -94h2c0.666992 2.66699 3.33398 9 8.00098 19s12.334 20.833 23.001 32.5s25 21.834 43 30.501s40.667 13 68 13c36 0 64 -6.83301 84 -20.5s34.667 -31.334 44 -53.001s15.166 -44.5 17.499 -68.5s3.5 -46.333 3.5 -67v-200h-81v201
c0 25.333 -2.66699 48.166 -8 68.499s-15.166 36.333 -29.499 48s-35.166 17.5 -62.499 17.5c-28 0 -50.333 -6.66699 -67 -20s-28.334 -30.666 -35.001 -51.999s-10 -44 -10 -68v-195h-85zM292.998 471c-16 0 -28.834 2.83301 -38.501 8.5s-17.667 12.167 -24 19.5
s-12.5 13.833 -18.5 19.5s-13.333 8.5 -22 8.5c-11.333 0 -18.166 -4.66699 -20.499 -14s-3.16602 -22.333 -2.49902 -39h-52c0 12 1 26 3 42s7.83301 30 17.5 42s26.167 18 49.5 18c16 0 28.833 -2.83301 38.5 -8.5s17.667 -12.167 24 -19.5s12.666 -13.666 18.999 -18.999
s13.833 -8 22.5 -8c11.333 0 18 4.66699 20 14s3 22.666 3 39.999h51c0.666992 -16 -0.333008 -32 -3 -48s-9 -29.333 -19 -40s-26 -16 -48 -16z" />
    <glyph glyph-name="ograve" unicode="&#xf2;" horiz-adv-x="465" 
d="M227 -10c-68 0 -118.667 19.668 -152 59.001s-50 89.333 -50 150c-0.666992 61.333 16 111.666 50 150.999s84.667 59.333 152 60c65.333 0 115 -19.333 149 -58s51 -89.667 51 -153c0 -39.333 -7.16699 -74.833 -21.5 -106.5s-36.333 -56.667 -66 -75
s-67.167 -27.5 -112.5 -27.5zM227 61.001c32 0 56.5 7 73.5 21s28.833 31.833 35.5 53.5s10 43.834 10 66.501s-3.33301 44.834 -10 66.501s-18.5 39.667 -35.5 54s-41.5 21.5 -73.5 21.5c-32.667 0 -57.667 -7.16699 -75 -21.5s-29.333 -32.333 -36 -54
s-10 -43.834 -10 -66.501s3.33301 -44.834 10 -66.501s18.667 -39.5 36 -53.5s42.333 -21 75 -21zM204 453.001l-81 97v16h72l48 -101v-12h-39z" />
    <glyph glyph-name="oacute" unicode="&#xf3;" horiz-adv-x="465" 
d="M227 -10c-68 0 -118.667 19.668 -152 59.001s-50 89.333 -50 150c-0.666992 61.333 16 111.666 50 150.999s84.667 59.333 152 60c65.333 0 115 -19.333 149 -58s51 -89.667 51 -153c0 -39.333 -7.16699 -74.833 -21.5 -106.5s-36.333 -56.667 -66 -75
s-67.167 -27.5 -112.5 -27.5zM227 61.001c32 0 56.5 7 73.5 21s28.833 31.833 35.5 53.5s10 43.834 10 66.501s-3.33301 44.834 -10 66.501s-18.5 39.667 -35.5 54s-41.5 21.5 -73.5 21.5c-32.667 0 -57.667 -7.16699 -75 -21.5s-29.333 -32.333 -36 -54
s-10 -43.834 -10 -66.501s3.33301 -44.834 10 -66.501s18.667 -39.5 36 -53.5s42.333 -21 75 -21zM239 453.001h-39v12l48 101h72v-16z" />
    <glyph glyph-name="ocircumflex" unicode="&#xf4;" horiz-adv-x="465" 
d="M227 -10c-68 0 -118.667 19.668 -152 59.001s-50 89.333 -50 150c-0.666992 61.333 16 111.666 50 150.999s84.667 59.333 152 60c65.333 0 115 -19.333 149 -58s51 -89.667 51 -153c0 -39.333 -7.16699 -74.833 -21.5 -106.5s-36.333 -56.667 -66 -75
s-67.167 -27.5 -112.5 -27.5zM227 61.001c32 0 56.5 7 73.5 21s28.833 31.833 35.5 53.5s10 43.834 10 66.501s-3.33301 44.834 -10 66.501s-18.5 39.667 -35.5 54s-41.5 21.5 -73.5 21.5c-32.667 0 -57.667 -7.16699 -75 -21.5s-29.333 -32.333 -36 -54
s-10 -43.834 -10 -66.501s3.33301 -44.834 10 -66.501s18.667 -39.5 36 -53.5s42.333 -21 75 -21zM91 459.001v8l114 106h36l113 -106v-8h-75l-54 59h-4l-52 -59h-78z" />
    <glyph glyph-name="otilde" unicode="&#xf5;" horiz-adv-x="465" 
d="M227 -10c-68 0 -118.667 19.668 -152 59.001s-50 89.333 -50 150c-0.666992 61.333 16 111.666 50 150.999s84.667 59.333 152 60c65.333 0 115 -19.333 149 -58s51 -89.667 51 -153c0 -39.333 -7.16699 -74.833 -21.5 -106.5s-36.333 -56.667 -66 -75
s-67.167 -27.5 -112.5 -27.5zM227 61.001c32 0 56.5 7 73.5 21s28.833 31.833 35.5 53.5s10 43.834 10 66.501s-3.33301 44.834 -10 66.501s-18.5 39.667 -35.5 54s-41.5 21.5 -73.5 21.5c-32.667 0 -57.667 -7.16699 -75 -21.5s-29.333 -32.333 -36 -54
s-10 -43.834 -10 -66.501s3.33301 -44.834 10 -66.501s18.667 -39.5 36 -53.5s42.333 -21 75 -21zM279 471.001c-16 0 -28.834 2.83301 -38.501 8.5s-17.667 12.167 -24 19.5s-12.5 13.833 -18.5 19.5s-13.333 8.5 -22 8.5c-11.333 0 -18.166 -4.66699 -20.499 -14
s-3.16602 -22.333 -2.49902 -39h-52c0 12 1 26 3 42s7.83301 30 17.5 42s26.167 18 49.5 18c16 0 28.833 -2.83301 38.5 -8.5s17.667 -12.167 24 -19.5s12.666 -13.666 18.999 -18.999s13.833 -8 22.5 -8c11.333 0 18 4.66699 20 14s3 22.666 3 39.999h51
c0.666992 -16 -0.333008 -32 -3 -48s-9 -29.333 -19 -40s-26 -16 -48 -16z" />
    <glyph glyph-name="odieresis" unicode="&#xf6;" horiz-adv-x="465" 
d="M227 -10c-68 0 -118.667 19.668 -152 59.001s-50 89.333 -50 150c-0.666992 61.333 16 111.666 50 150.999s84.667 59.333 152 60c65.333 0 115 -19.333 149 -58s51 -89.667 51 -153c0 -39.333 -7.16699 -74.833 -21.5 -106.5s-36.333 -56.667 -66 -75
s-67.167 -27.5 -112.5 -27.5zM227 61.001c32 0 56.5 7 73.5 21s28.833 31.833 35.5 53.5s10 43.834 10 66.501s-3.33301 44.834 -10 66.501s-18.5 39.667 -35.5 54s-41.5 21.5 -73.5 21.5c-32.667 0 -57.667 -7.16699 -75 -21.5s-29.333 -32.333 -36 -54
s-10 -43.834 -10 -66.501s3.33301 -44.834 10 -66.501s18.667 -39.5 36 -53.5s42.333 -21 75 -21zM138 457.001c-22 0 -36.667 5.33301 -44 16s-11 23.667 -11 39c0 14 3.66699 26.333 11 37s22 16 44 16s36.5 -5.33301 43.5 -16s10.5 -23 10.5 -37
c0 -15.333 -3.5 -28.333 -10.5 -39s-21.5 -16 -43.5 -16zM307 457.001c-22 0 -36.667 5.33301 -44 16s-11 23.667 -11 39c0 14 3.66699 26.333 11 37s22 16 44 16s36.5 -5.33301 43.5 -16s10.5 -23 10.5 -37c0 -15.333 -3.5 -28.333 -10.5 -39s-21.5 -16 -43.5 -16z" />
    <glyph glyph-name="divide" unicode="&#xf7;" horiz-adv-x="317" 
d="M151 291c-12 0 -20.999 3.5 -26.999 10.5s-9 16.167 -9 27.5c-0.666992 10.667 2.16602 19.667 8.49902 27s15.5 11 27.5 11s21.167 -3.5 27.5 -10.5s9.5 -16.167 9.5 -27.5s-3 -20.5 -9 -27.5s-15.333 -10.5 -28 -10.5zM40.001 195v60h222v-60h-222zM151.001 81
c-12 0 -20.999 3.66699 -26.999 11s-9 16.333 -9 27c-0.666992 11.333 2.16602 20.5 8.49902 27.5s15.5 10.5 27.5 10.5s21.167 -3.5 27.5 -10.5s9.5 -16.167 9.5 -27.5c0 -10.667 -3 -19.667 -9 -27s-15.333 -11 -28 -11z" />
    <glyph glyph-name="oslash" unicode="&#xf8;" horiz-adv-x="458" 
d="M60 -24l34.001 55c-22.667 18.667 -39.834 42.334 -51.501 71.001s-17.5 61 -17.5 97c-0.666992 61.333 16 111.666 50 150.999s84.333 59.333 151 60c36 0 67.667 -6.33301 95 -19l35 56l26 -14l-35 -56c26 -18 45.833 -42.167 59.5 -72.5s20.5 -65.5 20.5 -105.5
c0 -39.333 -7.16699 -74.833 -21.5 -106.5s-36.333 -56.667 -66 -75s-67.167 -27.5 -112.5 -27.5c-42 0 -78 8.33301 -108 25l-34 -54zM106.001 202c0 -18.667 2.16797 -37.332 6.50098 -55.999s12.166 -34.667 23.499 -48l148 234c-16 8 -35 12 -57 12
c-32.667 0 -57.667 -7.16699 -75 -21.5s-29.333 -32.333 -36 -54s-10 -43.834 -10 -66.501zM227.002 61.002c32 0 56.5 6.99805 73.5 20.998s28.833 31.833 35.5 53.5s10 43.834 10 66.501c0 20.667 -2.66699 41.334 -8 62.001s-15.333 37.667 -30 51l-149 -237
c18 -11.333 40.667 -17 68 -17z" />
    <glyph glyph-name="ugrave" unicode="&#xf9;" horiz-adv-x="453" 
d="M185 -10c-34.667 0 -62.166 6.5 -82.499 19.5s-35.333 30.167 -45 51.5s-16 44 -19 68s-4.5 47.333 -4.5 70v210h82v-210c0 -24 2.33301 -46.333 7 -67s14.167 -37.167 28.5 -49.5s36.166 -18.5 65.499 -18.5c28 0 49.667 6.33301 65 19s26.166 29 32.499 49
s9.83301 41 10.5 63l1 214h85v-409h-71l-14 85h-2c-2.66699 -8.66699 -9 -20.5 -19 -35.5s-24.667 -28.667 -44 -41s-44.666 -18.5 -75.999 -18.5zM203.001 457l-81 97v16h72l48 -101v-12h-39z" />
    <glyph glyph-name="uacute" unicode="&#xfa;" horiz-adv-x="453" 
d="M185 -10c-34.667 0 -62.166 6.5 -82.499 19.5s-35.333 30.167 -45 51.5s-16 44 -19 68s-4.5 47.333 -4.5 70v210h82v-210c0 -24 2.33301 -46.333 7 -67s14.167 -37.167 28.5 -49.5s36.166 -18.5 65.499 -18.5c28 0 49.667 6.33301 65 19s26.166 29 32.499 49
s9.83301 41 10.5 63l1 214h85v-409h-71l-14 85h-2c-2.66699 -8.66699 -9 -20.5 -19 -35.5s-24.667 -28.667 -44 -41s-44.666 -18.5 -75.999 -18.5zM240.001 459h-39v12l48 101h72v-16z" />
    <glyph glyph-name="ucircumflex" unicode="&#xfb;" horiz-adv-x="453" 
d="M185 -10c-34.667 0 -62.166 6.5 -82.499 19.5s-35.333 30.167 -45 51.5s-16 44 -19 68s-4.5 47.333 -4.5 70v210h82v-210c0 -24 2.33301 -46.333 7 -67s14.167 -37.167 28.5 -49.5s36.166 -18.5 65.499 -18.5c28 0 49.667 6.33301 65 19s26.166 29 32.499 49
s9.83301 41 10.5 63l1 214h85v-409h-71l-14 85h-2c-2.66699 -8.66699 -9 -20.5 -19 -35.5s-24.667 -28.667 -44 -41s-44.666 -18.5 -75.999 -18.5zM89.001 459v8l114 106h36l113 -106v-8h-75l-54 59h-4l-52 -59h-78z" />
    <glyph glyph-name="udieresis" unicode="&#xfc;" horiz-adv-x="453" 
d="M185 -10c-34.667 0 -62.166 6.5 -82.499 19.5s-35.333 30.167 -45 51.5s-16 44 -19 68s-4.5 47.333 -4.5 70v210h82v-210c0 -24 2.33301 -46.333 7 -67s14.167 -37.167 28.5 -49.5s36.166 -18.5 65.499 -18.5c28 0 49.667 6.33301 65 19s26.166 29 32.499 49
s9.83301 41 10.5 63l1 214h85v-409h-71l-14 85h-2c-2.66699 -8.66699 -9 -20.5 -19 -35.5s-24.667 -28.667 -44 -41s-44.666 -18.5 -75.999 -18.5zM136.001 457c-22 0 -36.667 5.33301 -44 16s-11 23.667 -11 39c0 14 3.66699 26.333 11 37s22 16 44 16
s36.5 -5.33301 43.5 -16s10.5 -23 10.5 -37c0 -15.333 -3.5 -28.333 -10.5 -39s-21.5 -16 -43.5 -16zM305.001 457c-22 0 -36.667 5.33301 -44 16s-11 23.667 -11 39c0 14 3.66699 26.333 11 37s22 16 44 16s36.5 -5.33301 43.5 -16s10.5 -23 10.5 -37
c0 -15.333 -3.5 -28.333 -10.5 -39s-21.5 -16 -43.5 -16z" />
    <glyph glyph-name="yacute" unicode="&#xfd;" horiz-adv-x="424" 
d="M-2 -186l0.000976562 65.001h59c14 0 25.667 3.16699 35 9.5s20.666 23.166 33.999 50.499l35 77l-160 393h86l115 -307l123 307h87l-210 -479c-14.667 -34 -28 -59.333 -40 -76s-25.333 -27.5 -40 -32.5s-33 -7.5 -55 -7.5h-69zM215.001 459.001h-39v12l48 101h72v-16z
" />
    <glyph glyph-name="thorn" unicode="&#xfe;" horiz-adv-x="485" 
d="M50 -199l-0.000976562 761.998h86v-267c0.666992 2.66699 3.66699 9.83398 9 21.501s13.666 24.5 24.999 38.5s26.333 26.333 45 37s42 16 70 16c38 0 69.167 -10 93.5 -30s42.5 -45.833 54.5 -77.5s18 -64.5 18 -98.5c0 -35.333 -5.83301 -69.333 -17.5 -102
s-29.667 -59.334 -54 -80.001s-55.833 -31 -94.5 -31c-25.333 0 -47.166 4.66699 -65.499 14s-33.333 20.333 -45 33s-20.667 24.334 -27 35.001s-10.166 17.334 -11.499 20.001v-291h-86zM248.999 59.998c28 0 50.002 6.66602 66.002 19.999s27.5 30.5 34.5 51.5
s10.5 43.167 10.5 66.5c0 22.667 -3.83301 44.5 -11.5 65.5s-19.834 38.333 -36.501 52s-38.667 20.5 -66 20.5c-31.333 0 -56.333 -9.66699 -75 -29s-30.334 -45 -35.001 -77v-65c4.66699 -31.333 16.5 -56.666 35.5 -75.999s44.833 -29 77.5 -29zM134.001 197.997
c0 -10.667 0.666992 -20.667 2 -30v60c-1.33301 -10 -2 -20 -2 -30zM136.001 92.9971c-0.666992 0 -0.666992 0 0 0z" />
    <glyph glyph-name="ydieresis" unicode="&#xff;" horiz-adv-x="424" 
d="M-2 -186l0.000976562 65.001h59c14 0 25.667 3.16699 35 9.5s20.666 23.166 33.999 50.499l35 77l-160 393h86l115 -307l123 307h87l-210 -479c-14.667 -34 -28 -59.333 -40 -76s-25.333 -27.5 -40 -32.5s-33 -7.5 -55 -7.5h-69zM125.001 457.001
c-22 0 -36.667 5.33301 -44 16s-11 23.667 -11 39c0 14 3.66699 26.333 11 37s22 16 44 16s36.5 -5.33301 43.5 -16s10.5 -23 10.5 -37c0 -15.333 -3.5 -28.333 -10.5 -39s-21.5 -16 -43.5 -16zM294.001 457.001c-22 0 -36.667 5.33301 -44 16s-11 23.667 -11 39
c0 14 3.66699 26.333 11 37s22 16 44 16s36.5 -5.33301 43.5 -16s10.5 -23 10.5 -37c0 -15.333 -3.5 -28.333 -10.5 -39s-21.5 -16 -43.5 -16z" />
    <glyph glyph-name="Amacron" unicode="&#x100;" horiz-adv-x="600" 
d="M19 0l189 563h137l193 -563h-89l-54 168h-234l-54 -168h-88zM278 528l-95 -294h190zM148 622v60h262v-60h-262z" />
    <glyph glyph-name="amacron" unicode="&#x101;" horiz-adv-x="440" 
d="M180 -9c-38 0 -68.666 8.83105 -91.999 26.498s-40.5 42.334 -51.5 74.001s-16.5 67.834 -16.5 108.501c0 62 12.667 112.833 38 152.5s66 59.5 122 59.5c30 0 54.333 -5.33301 73 -16s33.167 -22.667 43.5 -36s17.5 -25 21.5 -35h2v84h85v-409h-71l-14 73h-2
c-4 -10 -11.333 -21.5 -22 -34.5s-25.334 -24.167 -44.001 -33.5s-42.667 -14 -72 -14zM213.001 61.998c39.333 0 66.832 12.665 82.499 37.998s23.5 58.333 23.5 99c0 42.667 -8.16699 76.334 -24.5 101.001s-43.5 37 -81.5 37c-28 0 -50 -6.16699 -66 -18.5
s-27.5 -28.833 -34.5 -49.5s-10.5 -43.667 -10.5 -69c0 -39.333 8.33301 -72.166 25 -98.499s45.334 -39.5 86.001 -39.5zM86 456.996v60h262v-60h-262z" />
    <glyph glyph-name="Abreve" unicode="&#x102;" horiz-adv-x="554" 
d="M19 0l189 563h137l193 -563h-89l-54 168h-234l-54 -168h-88zM278 528l-95 -294h190zM279 622c-39.333 0 -69.999 8.83301 -91.999 26.5s-33 41.5 -33 71.5h59c0 -20 6.33301 -33.167 19 -39.5s28 -9.5 46 -9.5s33.167 3.16699 45.5 9.5s18.5 19.5 18.5 39.5h60
c0 -30 -10.833 -53.833 -32.5 -71.5s-51.834 -26.5 -90.501 -26.5z" />
    <glyph glyph-name="abreve" unicode="&#x103;" horiz-adv-x="440" 
d="M180 -9c-38 0 -68.666 8.83105 -91.999 26.498s-40.5 42.334 -51.5 74.001s-16.5 67.834 -16.5 108.501c0 62 12.667 112.833 38 152.5s66 59.5 122 59.5c30 0 54.333 -5.33301 73 -16s33.167 -22.667 43.5 -36s17.5 -25 21.5 -35h2v84h85v-409h-71l-14 73h-2
c-4 -10 -11.333 -21.5 -22 -34.5s-25.334 -24.167 -44.001 -33.5s-42.667 -14 -72 -14zM213.001 61.998c39.333 0 66.832 12.665 82.499 37.998s23.5 58.333 23.5 99c0 42.667 -8.16699 76.334 -24.5 101.001s-43.5 37 -81.5 37c-28 0 -50 -6.16699 -66 -18.5
s-27.5 -28.833 -34.5 -49.5s-10.5 -43.667 -10.5 -69c0 -39.333 8.33301 -72.166 25 -98.499s45.334 -39.5 86.001 -39.5zM216 460.996c-39.333 0 -69.999 8.83301 -91.999 26.5s-33 41.5 -33 71.5h59c0 -20 6.33301 -33.167 19 -39.5s28 -9.5 46 -9.5
s33.167 3.16699 45.5 9.5s18.5 19.5 18.5 39.5h60c0 -30 -10.833 -53.833 -32.5 -71.5s-51.834 -26.5 -90.501 -26.5z" />
    <glyph glyph-name="Aogonek" unicode="&#x104;" horiz-adv-x="563" 
d="M19 0l188.998 563.002h137l180 -526l0.5 0.5l0.5 0.5l12 -38l-15 -6.5c-10 -4.33301 -21.5 -10.333 -34.5 -18s-24.333 -17.167 -34 -28.5s-14.5 -24 -14.5 -38c0 -11.333 3.33301 -20.333 10 -27s16 -10 28 -10c10.667 0 19.334 2.5 26.001 7.5s11.5 10 14.5 15l4.5 7.5
l47 -39l-10.5 -13c-7 -8.66699 -17.833 -17.334 -32.5 -26.001s-33 -13 -55 -13c-24.667 0 -46.5 7 -65.5 21s-28.833 35.333 -29.5 64c0 23.333 7.33301 43.666 22 60.999s31.334 32 50.001 44l-54 167h-234l-54 -168h-88zM277.998 528.002l-95 -294h190z" />
    <glyph glyph-name="aogonek" unicode="&#x105;" horiz-adv-x="440" 
d="M180 -9c-38 0 -68.666 8.83105 -91.999 26.498s-40.5 42.334 -51.5 74.001s-16.5 67.834 -16.5 108.501c0 62 12.667 112.833 38 152.5s66 59.5 122 59.5c30 0 54.333 -5.33301 73 -16s33.167 -22.667 43.5 -36s17.5 -25 21.5 -35h2v84h85v-409h-71l-14 73h-2
c-4 -10 -11.333 -21.5 -22 -34.5s-25.334 -24.167 -44.001 -33.5s-42.667 -14 -72 -14zM213.001 61.998c39.333 0 66.832 12.665 82.499 37.998s23.5 58.333 23.5 99c0 42.667 -8.16699 76.334 -24.5 101.001s-43.5 37 -81.5 37c-28 0 -50 -6.16699 -66 -18.5
s-27.5 -28.833 -34.5 -49.5s-10.5 -43.667 -10.5 -69c0 -39.333 8.33301 -72.166 25 -98.499s45.334 -39.5 86.001 -39.5zM356 -199.004c-24.667 0 -46.499 7.00195 -65.499 21.002s-28.5 35.333 -28.5 64c0 19.333 4.66699 36.5 14 51.5s21.166 28.167 35.499 39.5
s28.666 20.666 42.999 27.999s26.333 13 36 17l14.5 6v-38l-12.5 -6.5c-8.33301 -4.33301 -17.833 -10.333 -28.5 -18s-20 -17.167 -28 -28.5s-12 -24 -12 -38c0 -11.333 3.33301 -20.333 10 -27s16 -10 28 -10c10.667 0 19.334 2.5 26.001 7.5s11.5 10 14.5 15l4.5 7.5
l47 -39l-10.5 -13c-7 -8.66699 -17.833 -17.334 -32.5 -26.001s-33 -13 -55 -13z" />
    <glyph glyph-name="Cacute" unicode="&#x106;" horiz-adv-x="599" 
d="M300 -10c-52 0 -99.1699 10.833 -141.503 32.5s-75.666 54 -99.999 97s-36.5 96.5 -36.5 160.5c0.666992 63.333 13 116.833 37 160.5s57.167 76.667 99.5 99s90.833 33.5 145.5 33.5c72.667 0 131.334 -19.333 176.001 -58s72.334 -89.334 83.001 -152.001h-86
c-5.33301 32 -16.833 57.667 -34.5 77s-38.667 33.333 -63 42s-49.5 13 -75.5 13c-63.333 0 -112.333 -18.167 -147 -54.5s-52 -88.166 -52 -155.499c0 -70.667 17 -124.5 51 -161.5s82.333 -55.5 145 -55.5c43.333 0 82 10.5 116 31.5s55 55.167 63 102.5h87
c-11.333 -62.667 -39.333 -113.667 -84 -153s-105.667 -59 -183 -59zM319.997 610h-39v12l48 101h72v-16z" />
    <glyph glyph-name="cacute" unicode="&#x107;" horiz-adv-x="461" 
d="M230 -10c-38.667 0 -73.333 8.00195 -104 24.002s-54.834 39.333 -72.501 70s-26.5 68 -26.5 112c0.666992 43.333 10 81 28 113s42.167 56.833 72.5 74.5s65.166 26.5 104.499 26.5c38.667 0 71.834 -7.33301 99.501 -22s49.5 -33.834 65.5 -57.501
s25.667 -48.834 29 -75.501h-77c-5.33301 26 -18 46.333 -38 61s-45.333 22 -76 22c-40 0 -71.167 -12.667 -93.5 -38s-33.5 -58 -33.5 -98c0 -42.667 10.833 -76.5 32.5 -101.5s52.834 -37.5 93.501 -37.5c28.667 0 53.667 7.33301 75 22s34.666 36 39.999 64h77
c-3.33301 -28 -13.166 -54.167 -29.499 -78.5s-38.5 -43.833 -66.5 -58.5s-61.333 -22 -100 -22zM234.001 459.002h-39v12l48 101h72v-16z" />
    <glyph glyph-name="Cdotaccent" unicode="&#x10a;" horiz-adv-x="599" 
d="M300 -10c-52 0 -99.1699 10.833 -141.503 32.5s-75.666 54 -99.999 97s-36.5 96.5 -36.5 160.5c0.666992 63.333 13 116.833 37 160.5s57.167 76.667 99.5 99s90.833 33.5 145.5 33.5c72.667 0 131.334 -19.333 176.001 -58s72.334 -89.334 83.001 -152.001h-86
c-5.33301 32 -16.833 57.667 -34.5 77s-38.667 33.333 -63 42s-49.5 13 -75.5 13c-63.333 0 -112.333 -18.167 -147 -54.5s-52 -88.166 -52 -155.499c0 -70.667 17 -124.5 51 -161.5s82.333 -55.5 145 -55.5c43.333 0 82 10.5 116 31.5s55 55.167 63 102.5h87
c-11.333 -62.667 -39.333 -113.667 -84 -153s-105.667 -59 -183 -59zM304.997 623c-22 0 -36.667 5.33301 -44 16s-11 23.667 -11 39c0 14 3.66699 26.333 11 37s22 16 44 16s36.5 -5.33301 43.5 -16s10.5 -23 10.5 -37c0 -15.333 -3.5 -28.333 -10.5 -39
s-21.5 -16 -43.5 -16z" />
    <glyph glyph-name="cdotaccent" unicode="&#x10b;" horiz-adv-x="461" 
d="M230 -10c-38.667 0 -73.333 8.00195 -104 24.002s-54.834 39.333 -72.501 70s-26.5 68 -26.5 112c0.666992 43.333 10 81 28 113s42.167 56.833 72.5 74.5s65.166 26.5 104.499 26.5c38.667 0 71.834 -7.33301 99.501 -22s49.5 -33.834 65.5 -57.501
s25.667 -48.834 29 -75.501h-77c-5.33301 26 -18 46.333 -38 61s-45.333 22 -76 22c-40 0 -71.167 -12.667 -93.5 -38s-33.5 -58 -33.5 -98c0 -42.667 10.833 -76.5 32.5 -101.5s52.834 -37.5 93.501 -37.5c28.667 0 53.667 7.33301 75 22s34.666 36 39.999 64h77
c-3.33301 -28 -13.166 -54.167 -29.499 -78.5s-38.5 -43.833 -66.5 -58.5s-61.333 -22 -100 -22zM227.001 457.002c-22 0 -36.667 5.33301 -44 16s-11 23.667 -11 39c0 14 3.66699 26.333 11 37s22 16 44 16s36.5 -5.33301 43.5 -16s10.5 -23 10.5 -37
c0 -15.333 -3.5 -28.333 -10.5 -39s-21.5 -16 -43.5 -16z" />
    <glyph glyph-name="Ccaron" unicode="&#x10c;" horiz-adv-x="600" 
d="M300 -10c-52 0 -99.1699 10.833 -141.503 32.5s-75.666 54 -99.999 97s-36.5 96.5 -36.5 160.5c0.666992 63.333 13 116.833 37 160.5s57.167 76.667 99.5 99s90.833 33.5 145.5 33.5c72.667 0 131.334 -19.333 176.001 -58s72.334 -89.334 83.001 -152.001h-86
c-5.33301 32 -16.833 57.667 -34.5 77s-38.667 33.333 -63 42s-49.5 13 -75.5 13c-63.333 0 -112.333 -18.167 -147 -54.5s-52 -88.166 -52 -155.499c0 -70.667 17 -124.5 51 -161.5s82.333 -55.5 145 -55.5c43.333 0 82 10.5 116 31.5s55 55.167 63 102.5h87
c-11.333 -62.667 -39.333 -113.667 -84 -153s-105.667 -59 -183 -59zM147.997 750h87l69 -97l70 97h86l-138 -136h-36z" />
    <glyph glyph-name="ccaron" unicode="&#x10d;" horiz-adv-x="461" 
d="M230 -10c-38.667 0 -73.333 8.00195 -104 24.002s-54.834 39.333 -72.501 70s-26.5 68 -26.5 112c0.666992 43.333 10 81 28 113s42.167 56.833 72.5 74.5s65.166 26.5 104.499 26.5c38.667 0 71.834 -7.33301 99.501 -22s49.5 -33.834 65.5 -57.501
s25.667 -48.834 29 -75.501h-77c-5.33301 26 -18 46.333 -38 61s-45.333 22 -76 22c-40 0 -71.167 -12.667 -93.5 -38s-33.5 -58 -33.5 -98c0 -42.667 10.833 -76.5 32.5 -101.5s52.834 -37.5 93.501 -37.5c28.667 0 53.667 7.33301 75 22s34.666 36 39.999 64h77
c-3.33301 -28 -13.166 -54.167 -29.499 -78.5s-38.5 -43.833 -66.5 -58.5s-61.333 -22 -100 -22zM71.001 597.002h87l69 -97l70 97h86l-138 -136h-36z" />
    <glyph glyph-name="Dcaron" unicode="&#x10e;" horiz-adv-x="597" 
d="M562 282c0 -74 -14.333 -131.5 -43 -172.5s-68.834 -69.5 -120.501 -85.5s-112.167 -24 -181.5 -24h-152v563h152c69.333 0 129.833 -10.5 181.5 -31.5s91.834 -52.167 120.501 -93.5s43 -93.333 43 -156zM148 70l91.002 -0.000976562c47.333 0 88.666 5.5 123.999 16.5
s62.666 31.833 81.999 62.5s29 75.334 29 134.001c0 70 -21.333 122.167 -64 156.5s-99.667 51.5 -171 51.5h-91v-421zM109.002 749.999h87l69 -97l70 97h86l-138 -136h-36z" />
    <glyph glyph-name="dcaron" unicode="&#x10f;" horiz-adv-x="568" 
d="M478 415l32 154h80l-63 -154h-49zM218 -10c-60 0 -103.999 19.5 -131.999 58.5s-42 88.833 -42 149.5c0 62.667 14.167 113.5 42.5 152.5s72.166 58.5 131.499 58.5c26.667 0 49 -4.33301 67 -13s32.5 -19 43.5 -31s19 -23 24 -33s7.83301 -16.333 8.5 -19h2l1 250h85
v-563h-72l-13 82h-2c-1.33301 -2.66699 -4.83301 -8.83398 -10.5 -18.501s-14 -20.167 -25 -31.5s-25.5 -21.166 -43.5 -29.499s-39.667 -12.5 -65 -12.5zM242.001 62c38.667 0 68.334 12.501 89.001 37.501s31 58.167 31 99.5c0 40 -9.83301 72.5 -29.5 97.5
s-48.5 37.5 -86.5 37.5c-29.333 0 -52.833 -6.5 -70.5 -19.5s-30.334 -29.833 -38.001 -50.5s-11.5 -42.334 -11.5 -65.001c0 -23.333 3.5 -45.5 10.5 -66.5s19 -38 36 -51s40.167 -19.5 69.5 -19.5z" />
    <glyph glyph-name="Dcroat" unicode="&#x110;" horiz-adv-x="600" 
d="M65 0v258h-65v57h65v248h152c69.333 0 129.833 -10.5 181.5 -31.5s91.834 -52.167 120.501 -93.5s43 -93.333 43 -156c0 -74 -14.333 -131.5 -43 -172.5s-68.834 -69.5 -120.501 -85.5s-112.167 -24 -181.5 -24h-152zM148 70l91.002 -0.000976562
c47.333 0 88.666 5.5 123.999 16.5s62.666 31.833 81.999 62.5s29 75.334 29 134.001c0 70 -21.333 122.167 -64 156.5s-99.667 51.5 -171 51.5h-91v-176h156v-57h-156v-188z" />
    <glyph glyph-name="dcroat" unicode="&#x111;" horiz-adv-x="497" 
d="M215 -10c-60 0 -103.831 19.5 -131.498 58.5s-41.5 88.833 -41.5 149.5c0 62.667 14.167 113.5 42.5 152.5s72.166 58.5 131.499 58.5c26.667 0 49 -4.33301 67 -13s32.333 -19 43 -31s18.5 -23 23.5 -33l9.5 -19h2v148h-146v52h146v50h86v-50h34v-52h-34v-461h-72
l-14 82h-2c-0.666992 -2.66699 -3.83398 -8.83398 -9.50098 -18.501s-14.167 -20.167 -25.5 -31.5s-26 -21.166 -44 -29.499s-39.667 -12.5 -65 -12.5zM240.002 62c38.667 0 68.334 12.501 89.001 37.501s31 58.167 31 99.5c0 40 -9.83301 72.5 -29.5 97.5
s-48.5 37.5 -86.5 37.5c-30 0 -53.833 -6.5 -71.5 -19.5s-30.334 -29.833 -38.001 -50.5s-11.5 -42.334 -11.5 -65.001c0 -23.333 3.5 -45.5 10.5 -66.5s19 -38 36 -51s40.5 -19.5 70.5 -19.5z" />
    <glyph glyph-name="Emacron" unicode="&#x112;" horiz-adv-x="490" 
d="M137 68h318v-68h-400v563h390v-72h-308v-171h240v-69h-240v-183zM116 622v60h262v-60h-262z" />
    <glyph glyph-name="emacron" unicode="&#x113;" horiz-adv-x="451" 
d="M226 -10c-46 0 -83.668 10.168 -113.001 30.501s-51 46.5 -65 78.5s-21 65.667 -21 101c-0.666992 39.333 6.83301 75 22.5 107s38.334 57.333 68.001 76s65.167 28 106.5 28c35.333 0 67.166 -7.83301 95.499 -23.5s50.833 -37.667 67.5 -66s25.667 -61.833 27 -100.5
c0 -2 0.166992 -5.83301 0.5 -11.5s0.5 -10.5 0.5 -14.5h-309c0 -42.667 10.5 -75.834 31.5 -99.501s50.167 -35.5 87.5 -35.5c28 0 51.833 7.16699 71.5 21.5s31.834 33.5 36.501 57.5h81c-6 -42.667 -25.333 -78.167 -58 -106.5s-76 -42.5 -130 -42.5zM108.999 236.001
h222.001c-0.666992 7.33301 -2.66699 17 -6 29s-8.83301 23.833 -16.5 35.5s-18.5 21.5 -32.5 29.5s-32 12 -54 12c-27.333 0 -48.833 -5.83301 -64.5 -17.5s-27.334 -25.667 -35.001 -42s-12.167 -31.833 -13.5 -46.5zM92 470.001v60h262v-60h-262z" />
    <glyph glyph-name="Edotaccent" unicode="&#x116;" horiz-adv-x="490" 
d="M137 68h318v-68h-400v563h390v-72h-308v-171h240v-69h-240v-183zM253 623c-22 0 -36.667 5.33301 -44 16s-11 23.667 -11 39c0 14 3.66699 26.333 11 37s22 16 44 16s36.5 -5.33301 43.5 -16s10.5 -23 10.5 -37c0 -15.333 -3.5 -28.333 -10.5 -39s-21.5 -16 -43.5 -16z
" />
    <glyph glyph-name="edotaccent" unicode="&#x117;" horiz-adv-x="457" 
d="M226 -10c-46 0 -83.668 10.168 -113.001 30.501s-51 46.5 -65 78.5s-21 65.667 -21 101c-0.666992 39.333 6.83301 75 22.5 107s38.334 57.333 68.001 76s65.167 28 106.5 28c35.333 0 67.166 -7.83301 95.499 -23.5s50.833 -37.667 67.5 -66s25.667 -61.833 27 -100.5
c0 -2 0.166992 -5.83301 0.5 -11.5s0.5 -10.5 0.5 -14.5h-309c0 -42.667 10.5 -75.834 31.5 -99.501s50.167 -35.5 87.5 -35.5c28 0 51.833 7.16699 71.5 21.5s31.834 33.5 36.501 57.5h81c-6 -42.667 -25.333 -78.167 -58 -106.5s-76 -42.5 -130 -42.5zM108.999 236.001
h222.001c-0.666992 7.33301 -2.66699 17 -6 29s-8.83301 23.833 -16.5 35.5s-18.5 21.5 -32.5 29.5s-32 12 -54 12c-27.333 0 -48.833 -5.83301 -64.5 -17.5s-27.334 -25.667 -35.001 -42s-12.167 -31.833 -13.5 -46.5zM221 457.001c-22 0 -36.667 5.33301 -44 16
s-11 23.667 -11 39c0 14 3.66699 26.333 11 37s22 16 44 16s36.5 -5.33301 43.5 -16s10.5 -23 10.5 -37c0 -15.333 -3.5 -28.333 -10.5 -39s-21.5 -16 -43.5 -16z" />
    <glyph glyph-name="Eogonek" unicode="&#x118;" horiz-adv-x="490" 
d="M137 68l318 0.000976562v-68l-13 -6.5c-8.66699 -4.33301 -18.834 -10.333 -30.501 -18s-21.667 -17.167 -30 -28.5s-12.5 -24 -12.5 -38c0 -11.333 3.33301 -20.333 10 -27s16 -10 28 -10c10.667 0 19.334 2.5 26.001 7.5s11.5 10 14.5 15l4.5 7.5l47 -39l-10.5 -13
c-7 -8.66699 -17.833 -17.334 -32.5 -26.001s-33 -13 -55 -13c-24.667 0 -46.5 7 -65.5 21s-28.5 35.333 -28.5 64c0 23.333 7 43.5 21 60.5s29.667 31.5 47 43.5h-320v563h390v-72h-308v-171h240v-69h-240v-183z" />
    <glyph glyph-name="eogonek" unicode="&#x119;" horiz-adv-x="457" 
d="M226 -10c-46 0 -83.668 10.168 -113.001 30.501s-51 46.5 -65 78.5s-21 65.667 -21 101c-0.666992 39.333 6.83301 75 22.5 107s38.334 57.333 68.001 76s65.167 28 106.5 28c35.333 0 67.166 -7.83301 95.499 -23.5s50.833 -37.667 67.5 -66s25.667 -61.833 27 -100.5
c0 -2 0.166992 -5.83301 0.5 -11.5s0.5 -10.5 0.5 -14.5h-309c0 -42.667 10.5 -75.834 31.5 -99.501s50.167 -35.5 87.5 -35.5c28 0 51.833 7.16699 71.5 21.5s31.834 33.5 36.501 57.5h81c-6 -42.667 -25.333 -78.167 -58 -106.5s-76 -42.5 -130 -42.5zM108.999 236.001
h222.001c-0.666992 7.33301 -2.66699 17 -6 29s-8.83301 23.833 -16.5 35.5s-18.5 21.5 -32.5 29.5s-32 12 -54 12c-27.333 0 -48.833 -5.83301 -64.5 -17.5s-27.334 -25.667 -35.001 -42s-12.167 -31.833 -13.5 -46.5zM242 -189.999
c-24.667 0 -46.499 7.00195 -65.499 21.002s-28.5 35.333 -28.5 64c0 19.333 4.66699 36.5 14 51.5s21.166 28.167 35.499 39.5s28.666 20.666 42.999 27.999s26.333 13 36 17l14.5 6v-38l-12.5 -6.5c-8.33301 -4.33301 -17.833 -10.333 -28.5 -18s-20 -17.167 -28 -28.5
s-12 -24 -12 -38c0 -11.333 3.33301 -20.333 10 -27s16 -10 28 -10c10.667 0 19.334 2.5 26.001 7.5s11.5 10 14.5 15l4.5 7.5l47 -39l-10.5 -13c-7 -8.66699 -17.833 -17.334 -32.5 -26.001s-33 -13 -55 -13z" />
    <glyph glyph-name="Ecaron" unicode="&#x11a;" horiz-adv-x="490" 
d="M137 68h318v-68h-400v563h390v-72h-308v-171h240v-69h-240v-183zM92 750h87l69 -97l70 97h86l-138 -136h-36z" />
    <glyph glyph-name="ecaron" unicode="&#x11b;" horiz-adv-x="457" 
d="M226 -10c-46 0 -83.668 10.168 -113.001 30.501s-51 46.5 -65 78.5s-21 65.667 -21 101c-0.666992 39.333 6.83301 75 22.5 107s38.334 57.333 68.001 76s65.167 28 106.5 28c35.333 0 67.166 -7.83301 95.499 -23.5s50.833 -37.667 67.5 -66s25.667 -61.833 27 -100.5
c0 -2 0.166992 -5.83301 0.5 -11.5s0.5 -10.5 0.5 -14.5h-309c0 -42.667 10.5 -75.834 31.5 -99.501s50.167 -35.5 87.5 -35.5c28 0 51.833 7.16699 71.5 21.5s31.834 33.5 36.501 57.5h81c-6 -42.667 -25.333 -78.167 -58 -106.5s-76 -42.5 -130 -42.5zM108.999 236.001
h222.001c-0.666992 7.33301 -2.66699 17 -6 29s-8.83301 23.833 -16.5 35.5s-18.5 21.5 -32.5 29.5s-32 12 -54 12c-27.333 0 -48.833 -5.83301 -64.5 -17.5s-27.334 -25.667 -35.001 -42s-12.167 -31.833 -13.5 -46.5zM63 594.001h87l69 -83l70 83h86v-15l-138 -121h-36
l-138 122v14z" />
    <glyph glyph-name="Gbreve" unicode="&#x11e;" horiz-adv-x="616" 
d="M291 -12c-54.667 0 -102.167 11.333 -142.5 34s-71.5 55.5 -93.5 98.5s-32.667 95.833 -32 158.5s12.834 115.834 36.501 159.501s56.5 77 98.5 100s91 34.5 147 34.5c73.333 0 131.333 -16.5 174 -49.5s70.667 -81.167 84 -144.5l-80 -11
c-10.667 45.333 -32.334 77.833 -65.001 97.5s-70.334 29.5 -113.001 29.5c-68 0 -118.167 -18.833 -150.5 -56.5s-49.166 -89.167 -50.499 -154.5c0 -68.667 18.167 -121.834 54.5 -159.501s87.5 -56.5 153.5 -56.5c45.333 0 84.666 11.5 117.999 34.5s54 58.5 62 106.5
h-139v63h221v-272h-57l-19 111h-2c-6.66699 -17.333 -18.167 -35.5 -34.5 -54.5s-38.666 -35.167 -66.999 -48.5s-62.833 -20 -103.5 -20zM301 623c-39.333 0 -69.999 8.83301 -91.999 26.5s-33 41.5 -33 71.5h59c0 -20 6.33301 -33.167 19 -39.5s28 -9.5 46 -9.5
s33.167 3.16699 45.5 9.5s18.5 19.5 18.5 39.5h60c0 -30 -10.833 -53.833 -32.5 -71.5s-51.834 -26.5 -90.501 -26.5z" />
    <glyph glyph-name="gbreve" unicode="&#x11f;" horiz-adv-x="455" 
d="M229 464c-39.333 0 -69.999 8.83301 -91.999 26.5s-33 41.5 -33 71.5h59c0 -20 6.33301 -33.167 19 -39.5s28 -9.5 46 -9.5s33.167 3.16699 45.5 9.5s18.5 19.5 18.5 39.5h60c0 -30 -10.833 -53.833 -32.5 -71.5s-51.834 -26.5 -90.501 -26.5zM145.001 -175
l-0.00195312 77.999h192v179h-2c-1.33301 -2.66699 -4.66602 -8.83398 -9.99902 -18.501s-13.5 -20.167 -24.5 -31.5s-25.5 -21.166 -43.5 -29.499s-39.667 -12.5 -65 -12.5c-60 0 -104 19.5 -132 58.5s-42 89.167 -42 150.5c0 62.667 14.333 113.334 43 152.001
s72.667 58 132 58c26.667 0 48.834 -4.33301 66.501 -13s31.834 -19 42.501 -31s18.5 -23 23.5 -33s7.83301 -16.333 8.5 -19h2l1 96h85v-461c0 -44 -8.33301 -75.5 -25 -94.5s-44.334 -28.5 -83.001 -28.5h-169zM214.999 59.999c38.667 0 68.334 12.8311 89.001 38.498
s31 59.167 31 100.5c0 40 -9.83301 72.833 -29.5 98.5s-48.5 38.5 -86.5 38.5c-29.333 0 -52.833 -6.66699 -70.5 -20s-30.334 -30.5 -38.001 -51.5s-11.5 -42.833 -11.5 -65.5c0 -23.333 3.5 -45.666 10.5 -66.999s19 -38.666 36 -51.999s40.167 -20 69.5 -20z" />
    <glyph glyph-name="Gdotaccent" unicode="&#x120;" horiz-adv-x="616" 
d="M291 -12c-54.667 0 -102.167 11.333 -142.5 34s-71.5 55.5 -93.5 98.5s-32.667 95.833 -32 158.5s12.834 115.834 36.501 159.501s56.5 77 98.5 100s91 34.5 147 34.5c73.333 0 131.333 -16.5 174 -49.5s70.667 -81.167 84 -144.5l-80 -11
c-10.667 45.333 -32.334 77.833 -65.001 97.5s-70.334 29.5 -113.001 29.5c-68 0 -118.167 -18.833 -150.5 -56.5s-49.166 -89.167 -50.499 -154.5c0 -68.667 18.167 -121.834 54.5 -159.501s87.5 -56.5 153.5 -56.5c45.333 0 84.666 11.5 117.999 34.5s54 58.5 62 106.5
h-139v63h221v-272h-57l-19 111h-2c-6.66699 -17.333 -18.167 -35.5 -34.5 -54.5s-38.666 -35.167 -66.999 -48.5s-62.833 -20 -103.5 -20zM301 623c-22 0 -36.667 5.33301 -44 16s-11 23.667 -11 39c0 14 3.66699 26.333 11 37s22 16 44 16s36.5 -5.33301 43.5 -16
s10.5 -23 10.5 -37c0 -15.333 -3.5 -28.333 -10.5 -39s-21.5 -16 -43.5 -16z" />
    <glyph glyph-name="gdotaccent" unicode="&#x121;" horiz-adv-x="455" 
d="M220 462c-22 0 -36.667 5.33301 -44 16s-11 23.667 -11 39c0 14 3.66699 26.333 11 37s22 16 44 16s36.5 -5.33301 43.5 -16s10.5 -23 10.5 -37c0 -15.333 -3.5 -28.333 -10.5 -39s-21.5 -16 -43.5 -16zM145 -175l-0.00195312 77.999h192v179h-2
c-1.33301 -2.66699 -4.66602 -8.83398 -9.99902 -18.501s-13.5 -20.167 -24.5 -31.5s-25.5 -21.166 -43.5 -29.499s-39.667 -12.5 -65 -12.5c-60 0 -104 19.5 -132 58.5s-42 89.167 -42 150.5c0 62.667 14.333 113.334 43 152.001s72.667 58 132 58
c26.667 0 48.834 -4.33301 66.501 -13s31.834 -19 42.501 -31s18.5 -23 23.5 -33s7.83301 -16.333 8.5 -19h2l1 96h85v-461c0 -44 -8.33301 -75.5 -25 -94.5s-44.334 -28.5 -83.001 -28.5h-169zM214.998 59.999c38.667 0 68.334 12.8311 89.001 38.498s31 59.167 31 100.5
c0 40 -9.83301 72.833 -29.5 98.5s-48.5 38.5 -86.5 38.5c-29.333 0 -52.833 -6.66699 -70.5 -20s-30.334 -30.5 -38.001 -51.5s-11.5 -42.833 -11.5 -65.5c0 -23.333 3.5 -45.666 10.5 -66.999s19 -38.666 36 -51.999s40.167 -20 69.5 -20z" />
    <glyph glyph-name="uni0122" unicode="&#x122;" horiz-adv-x="616" 
d="M291 -12c-54.667 0 -102.167 11.333 -142.5 34s-71.5 55.5 -93.5 98.5s-32.667 95.833 -32 158.5s12.834 115.834 36.501 159.501s56.5 77 98.5 100s91 34.5 147 34.5c73.333 0 131.333 -16.5 174 -49.5s70.667 -81.167 84 -144.5l-80 -11
c-10.667 45.333 -32.334 77.833 -65.001 97.5s-70.334 29.5 -113.001 29.5c-68 0 -118.167 -18.833 -150.5 -56.5s-49.166 -89.167 -50.499 -154.5c0 -68.667 18.167 -121.834 54.5 -159.501s87.5 -56.5 153.5 -56.5c45.333 0 84.666 11.5 117.999 34.5s54 58.5 62 106.5
h-139v63h221v-272h-57l-19 111h-2c-6.66699 -17.333 -18.167 -35.5 -34.5 -54.5s-38.666 -35.167 -66.999 -48.5s-62.833 -20 -103.5 -20zM245 -247l0.000976562 56.999h21c16.667 0 27.834 3.16699 33.501 9.5s8.5 15.5 8.5 27.5c-22 -1.33301 -37.5 2.83398 -46.5 12.501
s-13.5 22.5 -13.5 38.5c0 13.333 3.66699 24.833 11 34.5s20.333 14.5 39 14.5c15.333 0 27.166 -4.66699 35.499 -14s12.5 -27.333 12.5 -54c0 -36 -5.83301 -66 -17.5 -90s-31.834 -36 -60.501 -36h-23z" />
    <glyph glyph-name="uni0123" unicode="&#x123;" horiz-adv-x="455" 
d="M240 459h-39v12l48 101h72v-16zM145 -175l-0.00195312 77.999h192v179h-2c-1.33301 -2.66699 -4.66602 -8.83398 -9.99902 -18.501s-13.5 -20.167 -24.5 -31.5s-25.5 -21.166 -43.5 -29.499s-39.667 -12.5 -65 -12.5c-60 0 -104 19.5 -132 58.5s-42 89.167 -42 150.5
c0 62.667 14.333 113.334 43 152.001s72.667 58 132 58c26.667 0 48.834 -4.33301 66.501 -13s31.834 -19 42.501 -31s18.5 -23 23.5 -33s7.83301 -16.333 8.5 -19h2l1 96h85v-461c0 -44 -8.33301 -75.5 -25 -94.5s-44.334 -28.5 -83.001 -28.5h-169zM214.998 59.999
c38.667 0 68.334 12.8311 89.001 38.498s31 59.167 31 100.5c0 40 -9.83301 72.833 -29.5 98.5s-48.5 38.5 -86.5 38.5c-29.333 0 -52.833 -6.66699 -70.5 -20s-30.334 -30.5 -38.001 -51.5s-11.5 -42.833 -11.5 -65.5c0 -23.333 3.5 -45.666 10.5 -66.999
s19 -38.666 36 -51.999s40.167 -20 69.5 -20z" />
    <glyph glyph-name="Hbar" unicode="&#x126;" horiz-adv-x="590" 
d="M63 0v419h-48v61h48v83h83v-83h294v83h82v-83h48v-61h-48v-419h-82v256h-294v-256h-83zM146 321h294v98h-294v-98z" />
    <glyph glyph-name="hbar" unicode="&#x127;" horiz-adv-x="474" 
d="M53 0l-0.00195312 460.999h-52v52h52v50h83v-50h130v-52h-130v-168c0.666992 4 3.5 12.167 8.5 24.5s12.833 25.666 23.5 39.999s24.5 26.833 41.5 37.5s38.5 16 64.5 16c37.333 0 66.333 -8 87 -24s35.334 -36.167 44.001 -60.5s13.834 -50 15.501 -77
s2.5 -52.167 2.5 -75.5v-174h-83v167c0 32.667 -2.16699 61.834 -6.5 87.501s-13.333 45.834 -27 60.501s-35.167 22 -64.5 22c-36.667 0 -63.5 -15.167 -80.5 -45.5s-25.5 -70.833 -25.5 -121.5v-170h-83z" />
    <glyph glyph-name="Itilde" unicode="&#x128;" horiz-adv-x="360" 
d="M294 72v-72h-235v72h77v419h-77v72h235v-72h-76v-419h76zM231 623c-16 0 -28.834 2.83301 -38.501 8.5s-17.667 12.167 -24 19.5s-12.5 13.833 -18.5 19.5s-13.333 8.5 -22 8.5c-11.333 0 -18.166 -4.66699 -20.499 -14s-3.16602 -22.333 -2.49902 -39h-52
c0 12 1 26 3 42s7.83301 30 17.5 42s26.167 18 49.5 18c16 0 28.833 -2.83301 38.5 -8.5s17.667 -12.167 24 -19.5s12.666 -13.666 18.999 -18.999s13.833 -8 22.5 -8c11.333 0 18 4.66699 20 14s3 22.666 3 39.999h51c0.666992 -16 -0.333008 -32 -3 -48
s-9 -29.333 -19 -40s-26 -16 -48 -16z" />
    <glyph glyph-name="itilde" unicode="&#x129;" horiz-adv-x="213" 
d="M155 471c-16 0 -28.834 2.66895 -38.501 8.00195s-17.667 11.666 -24 18.999s-12.5 13.833 -18.5 19.5s-13.333 8.5 -22 8.5c-11.333 0 -18.166 -4.66699 -20.499 -14s-3.16602 -22.333 -2.49902 -39h-52c0 12.667 1 27 3 43s7.83301 30 17.5 42s26.167 18 49.5 18
c16 0 28.833 -2.83301 38.5 -8.5s17.667 -12.167 24 -19.5s12.666 -13.833 18.999 -19.5s13.833 -8.5 22.5 -8.5c11.333 0 18 4.66699 20 14s3 22.666 3 39.999h51c0.666992 -15.333 -0.333008 -31 -3 -47s-9 -29.333 -19 -40s-26 -16 -48 -16zM59.999 0.00195312v411h83
v-411h-83z" />
    <glyph glyph-name="Imacron" unicode="&#x12a;" horiz-adv-x="357" 
d="M294 72v-72h-235v72h77v419h-77v72h235v-72h-76v-419h76zM45 622v60h262v-60h-262z" />
    <glyph glyph-name="imacron" unicode="&#x12b;" horiz-adv-x="198" 
d="M-30 470v60h223v-60h-223zM43 0v411h83v-411h-83z" />
    <glyph glyph-name="Iogonek" unicode="&#x12e;" horiz-adv-x="360" 
d="M179 -189c-24.667 0 -46.499 7.00098 -65.499 21.001s-28.5 35.333 -28.5 64c0 23.333 7.16699 43.5 21.5 60.5s30.166 31.5 47.499 43.5h-95v72h77v419h-77v72h235v-72h-76v-419h76v-72h-61l-13 -6.5c-8.66699 -4.33301 -18.667 -10.333 -30 -18
s-21.333 -17.167 -30 -28.5s-13 -24 -13 -38c0 -11.333 3.33301 -20.333 10 -27s16.334 -10 29.001 -10c10.667 0 19.167 2.5 25.5 7.5s11.166 10 14.499 15l5 7.5l46 -39l-10.5 -13c-7 -8.66699 -17.667 -17.334 -32 -26.001s-32.833 -13 -55.5 -13z" />
    <glyph glyph-name="iogonek" unicode="&#x12f;" horiz-adv-x="213" 
d="M95 447c-19.333 0 -32.166 4.83301 -38.499 14.5s-9.5 21.5 -9.5 35.5c0 13.333 3.16699 24.666 9.5 33.999s19.166 14 38.499 14c18 0 30.167 -4.66699 36.5 -14s9.5 -20.666 9.5 -33.999c0 -14 -3.16699 -25.833 -9.5 -35.5s-18.5 -14.5 -36.5 -14.5zM53 0
l0.000976562 411.001l10 -4c6.66699 -2.66699 17 -4 31 -4s24.5 1.33301 31.5 4l10.5 4v-411l-13 -6.5c-8.66699 -4.33301 -18.834 -10.333 -30.501 -18s-21.667 -17.167 -30 -28.5s-12.5 -24 -12.5 -38c0 -11.333 3.33301 -20.333 10 -27s16 -10 28 -10
c10.667 0 19.334 2.5 26.001 7.5s11.5 10 14.5 15l4.5 7.5l47 -39l-10.5 -13c-7 -8.66699 -17.833 -17.334 -32.5 -26.001s-33 -13 -55 -13c-24.667 0 -46.5 7 -65.5 21s-28.833 35.333 -29.5 64c0 23.333 7.16699 43.5 21.5 60.5s30.166 31.5 47.499 43.5h-3z" />
    <glyph glyph-name="Idotaccent" unicode="&#x130;" horiz-adv-x="360" 
d="M294 72v-72h-235v72h77v419h-77v72h235v-72h-76v-419h76zM135 646c-22 0 -36.667 5.33301 -44 16s-11 23.667 -11 39c0 14 3.66699 26.333 11 37s22 16 44 16s36.5 -5.33301 43.5 -16s10.5 -23 10.5 -37c0 -15.333 -3.5 -28.333 -10.5 -39s-21.5 -16 -43.5 -16z" />
    <glyph glyph-name="dotlessi" unicode="&#x131;" horiz-adv-x="184" 
d="M50 0v411h83v-411h-83z" />
    <glyph glyph-name="uni0136" unicode="&#x136;" horiz-adv-x="571" 
d="M68 0v563h83v-279l276 279h117l-242 -231l249 -332h-100l-210 274l-90 -86v-188h-83zM225 -247l0.000976562 56.999h21c16.667 0 27.667 3.16699 33 9.5s8 15.5 8 27.5c-21.333 -1.33301 -36.5 2.83398 -45.5 12.501s-13.5 22.5 -13.5 38.5
c0 13.333 3.5 24.833 10.5 34.5s20.167 14.5 39.5 14.5c15.333 0 27.166 -4.66699 35.499 -14s12.5 -27.333 12.5 -54c0 -36 -5.83301 -66 -17.5 -90s-32.167 -36 -61.5 -36h-22z" />
    <glyph glyph-name="uni0137" unicode="&#x137;" horiz-adv-x="451" 
d="M136 0h-83v563h83v-362l199 210h103l-173 -175l177 -236h-101l-135 176l-70 -70v-106zM165 -233l0.000976562 58h21c16.667 0 27.834 3.16699 33.501 9.5s8.5 15.5 8.5 27.5c-22 -1.33301 -37.5 2.66699 -46.5 12s-13.5 22 -13.5 38c0 14 3.66699 25.833 11 35.5
s20.333 14.5 39 14.5c15.333 0 27.166 -4.83301 35.499 -14.5s12.5 -27.5 12.5 -53.5c0 -36 -5.83301 -66.167 -17.5 -90.5s-31.834 -36.5 -60.501 -36.5h-23z" />
    <glyph glyph-name="Lacute" unicode="&#x139;" horiz-adv-x="469" 
d="M65 0v563h83v-491h295v-72h-378zM125 610h-39v12l48 101h72v-16z" />
    <glyph glyph-name="lacute" unicode="&#x13a;" horiz-adv-x="182" 
d="M50 0v563h82v-563h-82zM113 632h-39v12l48 101h72v-16z" />
    <glyph glyph-name="uni013B" unicode="&#x13b;" horiz-adv-x="469" 
d="M65 0v563h83v-491h295v-72h-378zM194 -247l0.000976562 56.999h21c16.667 0 27.834 3.16699 33.501 9.5s8.5 15.5 8.5 27.5c-22 -1.33301 -37.5 2.83398 -46.5 12.501s-13.5 22.5 -13.5 38.5c0 13.333 3.66699 24.833 11 34.5s20.333 14.5 39 14.5
c15.333 0 27.166 -4.66699 35.499 -14s12.5 -27.333 12.5 -54c0 -36 -5.83301 -66 -17.5 -90s-31.834 -36 -60.501 -36h-23z" />
    <glyph glyph-name="uni013C" unicode="&#x13c;" horiz-adv-x="242" 
d="M65 -232l0.000976562 56.999h21c16.667 0 27.834 3.16699 33.501 9.5s8.5 15.5 8.5 27.5c-22 -1.33301 -37.5 2.83398 -46.5 12.501s-13.5 22.5 -13.5 38.5c0 13.333 3.66699 24.833 11 34.5s20.333 14.5 39 14.5c15.333 0 27.166 -4.66699 35.499 -14
s12.5 -27.333 12.5 -54c0 -36 -5.83301 -66 -17.5 -90s-31.834 -36 -60.501 -36h-23zM54.001 -0.000976562v563h82v-563h-82z" />
    <glyph glyph-name="Lcaron" unicode="&#x13d;" horiz-adv-x="463" 
d="M65 0v563h83v-491h295v-72h-378zM-48 750h87l69 -97l70 97h86l-138 -136h-36z" />
    <glyph glyph-name="lcaron" unicode="&#x13e;" horiz-adv-x="258" 
d="M179 415l32 154h80l-64 -154h-48zM50 0v563h82v-563h-82z" />
    <glyph glyph-name="Lslash" unicode="&#x141;" horiz-adv-x="469" 
d="M65 0v233l-67 -33v75l67 33v255h83v-215l127 61v-75l-127 -61v-201h295v-72h-378z" />
    <glyph glyph-name="lslash" unicode="&#x142;" horiz-adv-x="239" 
d="M50 0v236l-57 -36v75l57 36v252h82v-200l73 46v-75l-73 -46v-288h-82z" />
    <glyph glyph-name="Nacute" unicode="&#x143;" horiz-adv-x="594" 
d="M451 563h85v-563h-157l-237 526h-2v-526h-85v563h147l247 -526h2v526zM294 610h-39v12l48 101h72v-16z" />
    <glyph glyph-name="nacute" unicode="&#x144;" horiz-adv-x="456" 
d="M38 0l-0.00195312 408h71l14 -94h2c0.666992 2.66699 3.33398 9 8.00098 19s12.334 20.833 23.001 32.5s25 21.834 43 30.501s40.667 13 68 13c36 0 64 -6.83301 84 -20.5s34.667 -31.334 44 -53.001s15.166 -44.5 17.499 -68.5s3.5 -46.333 3.5 -67v-200h-81v201
c0 25.333 -2.66699 48.166 -8 68.499s-15.166 36.333 -29.499 48s-35.166 17.5 -62.499 17.5c-28 0 -50.333 -6.66699 -67 -20s-28.334 -30.666 -35.001 -51.999s-10 -44 -10 -68v-195h-85zM256.998 459h-39v12l48 101h72v-16z" />
    <glyph glyph-name="uni0145" unicode="&#x145;" horiz-adv-x="594" 
d="M451 563h85v-563h-157l-237 526h-2v-526h-85v563h147l247 -526h2v526zM241 -247l0.000976562 56.999h21c16.667 0 27.834 3.16699 33.501 9.5s8.5 15.5 8.5 27.5c-22 -1.33301 -37.5 2.83398 -46.5 12.501s-13.5 22.5 -13.5 38.5c0 13.333 3.66699 24.833 11 34.5
s20.333 14.5 39 14.5c15.333 0 27.166 -4.66699 35.499 -14s12.5 -27.333 12.5 -54c0 -36 -5.83301 -66 -17.5 -90s-31.834 -36 -60.501 -36h-23z" />
    <glyph glyph-name="uni0146" unicode="&#x146;" horiz-adv-x="456" 
d="M38 0l-0.00195312 408h71l14 -94h2c0.666992 2.66699 3.33398 9 8.00098 19s12.334 20.833 23.001 32.5s25 21.834 43 30.501s40.667 13 68 13c36 0 64 -6.83301 84 -20.5s34.667 -31.334 44 -53.001s15.166 -44.5 17.499 -68.5s3.5 -46.333 3.5 -67v-200h-81v201
c0 25.333 -2.66699 48.166 -8 68.499s-15.166 36.333 -29.499 48s-35.166 17.5 -62.499 17.5c-28 0 -50.333 -6.66699 -67 -20s-28.334 -30.666 -35.001 -51.999s-10 -44 -10 -68v-195h-85zM165.998 -232l0.000976562 56.999h21c16.667 0 27.834 3.16699 33.501 9.5
s8.5 15.5 8.5 27.5c-22 -1.33301 -37.5 2.83398 -46.5 12.501s-13.5 22.5 -13.5 38.5c0 13.333 3.66699 24.833 11 34.5s20.333 14.5 39 14.5c15.333 0 27.166 -4.66699 35.499 -14s12.5 -27.333 12.5 -54c0 -36 -5.83301 -66 -17.5 -90s-31.834 -36 -60.501 -36h-23z" />
    <glyph glyph-name="Ncaron" unicode="&#x147;" horiz-adv-x="600" 
d="M451 563h85v-563h-157l-237 526h-2v-526h-85v563h147l247 -526h2v526zM144 750h87l69 -97l70 97h86l-138 -136h-36z" />
    <glyph glyph-name="ncaron" unicode="&#x148;" horiz-adv-x="479" 
d="M38 0l-0.00195312 408h71l14 -94h2c0.666992 2.66699 3.33398 9 8.00098 19s12.334 20.833 23.001 32.5s25 21.834 43 30.501s40.667 13 68 13c36 0 64 -6.83301 84 -20.5s34.667 -31.334 44 -53.001s15.166 -44.5 17.499 -68.5s3.5 -46.333 3.5 -67v-200h-81v201
c0 25.333 -2.66699 48.166 -8 68.499s-15.166 36.333 -29.499 48s-35.166 17.5 -62.499 17.5c-28 0 -50.333 -6.66699 -67 -20s-28.334 -30.666 -35.001 -51.999s-10 -44 -10 -68v-195h-85zM83.998 597h87l69 -97l70 97h86l-138 -136h-36z" />
    <glyph glyph-name="Eng" unicode="&#x14a;" horiz-adv-x="600" 
d="M411 -203c-27.333 0 -49 5.33301 -65 16s-26 18 -30 22l47 56c2.66699 -3.33301 7.66699 -7.33301 15 -12s16.333 -7 27 -7c14.667 0 26.5 4.5 35.5 13.5s13.5 24.5 13.5 46.5v68h-75l-237 526h-2v-526h-85v563h147l247 -526h2v526h85v-639
c0 -35.333 -9.66699 -65.333 -29 -90s-51.333 -37 -96 -37z" />
    <glyph glyph-name="eng" unicode="&#x14b;" horiz-adv-x="479" 
d="M38 0l-0.00292969 408.002h71l14 -94h2c0.666992 2.66699 3.33398 9 8.00098 19s12.334 20.833 23.001 32.5s25 21.834 43 30.501s40.667 13 68 13c36 0 64 -6.83301 84 -20.5s34.667 -31.334 44 -53.001s15.166 -44.5 17.499 -68.5s3.5 -46.333 3.5 -67v-179h13v-93
c0 -34.667 -9.66699 -64.334 -29 -89.001s-51.666 -37 -96.999 -37c-27.333 0 -49 5.16699 -65 15.5s-26 17.5 -30 21.5l47 56c2.66699 -2.66699 7.66699 -6.33398 15 -11.001s16.333 -7 27 -7c14.667 0 26.5 4.5 35.5 13.5s13.5 24.5 13.5 46.5v63h-11v201
c0 25.333 -2.66699 48.166 -8 68.499s-15.166 36.333 -29.499 48s-35.166 17.5 -62.499 17.5c-28 0 -50.333 -6.66699 -67 -20s-28.334 -30.666 -35.001 -51.999s-10 -44 -10 -68v-195h-85z" />
    <glyph glyph-name="Omacron" unicode="&#x14c;" horiz-adv-x="600" 
d="M297 -14c-90 0 -158.667 26.5 -206 79.5s-71 124.5 -71 214.5c0 59.333 10.167 110.833 30.5 154.5s51 77.667 92 102s92.5 36.5 154.5 36.5c90 0 158.5 -26.5 205.5 -79.5s70.5 -124.167 70.5 -213.5c0 -58 -10.5 -109.167 -31.5 -153.5s-52 -78.833 -93 -103.5
s-91.5 -37 -151.5 -37zM296 66c64.667 0 113.332 19.998 145.999 59.998s49 91.333 49 154s-16.167 114.167 -48.5 154.5s-81.166 60.5 -146.499 60.5c-64 0 -112.5 -19.333 -145.5 -58s-49.5 -91 -49.5 -157c0 -41.333 7 -78.166 21 -110.499s35.5 -57.666 64.5 -75.999
s65.5 -27.5 109.5 -27.5zM170.998 621.998v60h262v-60h-262z" />
    <glyph glyph-name="omacron" unicode="&#x14d;" horiz-adv-x="458" 
d="M227 -10c-68 0 -118.667 19.668 -152 59.001s-50 89.333 -50 150c-0.666992 61.333 16 111.666 50 150.999s84.667 59.333 152 60c65.333 0 115 -19.333 149 -58s51 -89.667 51 -153c0 -39.333 -7.16699 -74.833 -21.5 -106.5s-36.333 -56.667 -66 -75
s-67.167 -27.5 -112.5 -27.5zM227 61.001c32 0 56.5 7 73.5 21s28.833 31.833 35.5 53.5s10 43.834 10 66.501s-3.33301 44.834 -10 66.501s-18.5 39.667 -35.5 54s-41.5 21.5 -73.5 21.5c-32.667 0 -57.667 -7.16699 -75 -21.5s-29.333 -32.333 -36 -54
s-10 -43.834 -10 -66.501s3.33301 -44.834 10 -66.501s18.667 -39.5 36 -53.5s42.333 -21 75 -21zM92 470.001v60h262v-60h-262z" />
    <glyph glyph-name="Ohungarumlaut" unicode="&#x150;" horiz-adv-x="599" 
d="M189 640l74 142l69 -33l-104 -128zM344 640l75 142l68 -33l-104 -128zM297 -14c-90 0 -158.667 26.5 -206 79.5s-71 124.5 -71 214.5c0 59.333 10.167 110.833 30.5 154.5s51 77.667 92 102s92.5 36.5 154.5 36.5c90 0 158.5 -26.5 205.5 -79.5
s70.5 -124.167 70.5 -213.5c0 -58 -10.5 -109.167 -31.5 -153.5s-52 -78.833 -93 -103.5s-91.5 -37 -151.5 -37zM296 66c64.667 0 113.332 19.998 145.999 59.998s49 91.333 49 154s-16.167 114.167 -48.5 154.5s-81.166 60.5 -146.499 60.5
c-64 0 -112.5 -19.333 -145.5 -58s-49.5 -91 -49.5 -157c0 -41.333 7 -78.166 21 -110.499s35.5 -57.666 64.5 -75.999s65.5 -27.5 109.5 -27.5z" />
    <glyph glyph-name="ohungarumlaut" unicode="&#x151;" horiz-adv-x="468" 
d="M119 471l75 143l68 -33l-104 -128zM275 471l74 143l69 -33l-104 -128zM227 -10c-68 0 -118.667 19.668 -152 59.001s-50 89.333 -50 150c-0.666992 61.333 16 111.666 50 150.999s84.667 59.333 152 60c65.333 0 115 -19.333 149 -58s51 -89.667 51 -153
c0 -39.333 -7.16699 -74.833 -21.5 -106.5s-36.333 -56.667 -66 -75s-67.167 -27.5 -112.5 -27.5zM227 61.001c32 0 56.5 7 73.5 21s28.833 31.833 35.5 53.5s10 43.834 10 66.501s-3.33301 44.834 -10 66.501s-18.5 39.667 -35.5 54s-41.5 21.5 -73.5 21.5
c-32.667 0 -57.667 -7.16699 -75 -21.5s-29.333 -32.333 -36 -54s-10 -43.834 -10 -66.501s3.33301 -44.834 10 -66.501s18.667 -39.5 36 -53.5s42.333 -21 75 -21z" />
    <glyph glyph-name="OE" unicode="&#x152;" horiz-adv-x="842" 
d="M376 0c-70 0 -130.5 8 -181.5 24s-90.333 44.5 -118 85.5s-41.5 98.5 -41.5 172.5c0 62.667 13.833 114.667 41.5 156s67 72.5 118 93.5s111.5 31.5 181.5 31.5h420v-72h-307v-171h240v-69h-240v-183h317v-68h-430zM359 70l48 0.000976562v421h-48
c-72 0 -129.167 -17.167 -171.5 -51.5s-63.5 -86.5 -63.5 -156.5c0 -58.667 9.5 -103.334 28.5 -134.001s46.167 -51.5 81.5 -62.5s77 -16.5 125 -16.5z" />
    <glyph glyph-name="oe" unicode="&#x153;" horiz-adv-x="764" 
d="M223 -10c-68 0 -118.665 19.668 -151.998 59.001s-50 89.333 -50 150c-0.666992 61.333 16 111.666 50 150.999s84.667 59.333 152 60c36.667 0 68.5 -6.5 95.5 -19.5s48.833 -30.833 65.5 -53.5c16 22 37.333 39.833 64 53.5s59.334 20.5 98.001 20.5
c34 0 64.5 -8.16699 91.5 -24.5s48.833 -38.833 65.5 -67.5s26 -61.334 28 -98.001v-11.5v-14.5h-308c0 -41.333 10.667 -73.666 32 -96.999s51.333 -35 90 -35c29.333 0 53.166 7.16699 71.499 21.5s30.5 33.833 36.5 58.5l80 -13
c-10.667 -40 -31.834 -73.333 -63.501 -100s-73.167 -40 -124.5 -40c-38 0 -70.167 6.83301 -96.5 20.5s-47.5 31.5 -63.5 53.5c-16.667 -22.667 -38.334 -40.667 -65.001 -54s-59 -20 -97 -20zM425.002 242.001l222 0.000976562c0 7.33301 -1.5 17 -4.5 29
s-8.16699 24 -15.5 36s-17.833 22.167 -31.5 30.5s-31.167 12.5 -52.5 12.5c-28.667 0 -51.167 -6 -67.5 -18s-28.5 -26.333 -36.5 -43s-12.667 -32.334 -14 -47.001zM223.002 61.002c32 0 56.667 7 74 21s29.333 31.833 36 53.5s10 43.834 10 66.501
s-3.33301 44.834 -10 66.501s-18.667 39.667 -36 54s-42 21.5 -74 21.5c-32.667 0 -57.667 -7.16699 -75 -21.5s-29.333 -32.333 -36 -54s-10 -43.834 -10 -66.501s3.33301 -44.834 10 -66.501s18.667 -39.5 36 -53.5s42.333 -21 75 -21z" />
    <glyph glyph-name="Racute" unicode="&#x154;" horiz-adv-x="543" 
d="M59 0l-0.000976562 563.001h197c72 0 127.833 -11.833 167.5 -35.5s59.5 -66.167 59.5 -127.5c0 -42.667 -10.833 -78.334 -32.5 -107.001s-54.167 -43 -97.5 -43c26 0 45.333 -5.66699 58 -17s21.334 -25.5 26.001 -42.5s7.66699 -34.5 9 -52.5s3.33301 -34.333 6 -49
s8 -25.167 16 -31.5s21.667 -5.83301 41 1.5v-50c-9.33301 -8 -21.5 -13.5 -36.5 -16.5s-29.833 -2 -44.5 3s-27.167 15.333 -37.5 31s-15.5 38.5 -15.5 68.5c0 35.333 -2 63 -6 83s-13.333 34.667 -28 44s-37.667 14.833 -69 16.5s-74.333 1.5 -129 -0.5v-238h-84z
M142.999 300.001l116.001 0.00195312c34 0 62 2.16699 84 6.5s38.5 13.166 49.5 26.499s16.5 33.666 16.5 60.999c0 31.333 -6.66699 54 -20 68s-32.833 22.833 -58.5 26.5s-56.834 5.5 -93.501 5.5h-94v-194zM270 610.003h-39v12l48 101h72v-16z" />
    <glyph glyph-name="racute" unicode="&#x155;" horiz-adv-x="320" 
d="M45 0v409.001h77l7 -111c4 18 11.833 35.5 23.5 52.5s28 31 49 42s47.833 16.5 80.5 16.5h17v-92h-18c-40.667 0 -72 -5.16699 -94 -15.5s-37.333 -25.333 -46 -45s-13 -43.834 -13 -72.501v-184h-83zM204 459.001h-39v12l48 101h72v-16z" />
    <glyph glyph-name="uni0156" unicode="&#x156;" horiz-adv-x="543" 
d="M59 0l-0.000976562 563.001h197c72 0 127.833 -11.833 167.5 -35.5s59.5 -66.167 59.5 -127.5c0 -42.667 -10.833 -78.334 -32.5 -107.001s-54.167 -43 -97.5 -43c26 0 45.333 -5.66699 58 -17s21.334 -25.5 26.001 -42.5s7.66699 -34.5 9 -52.5s3.33301 -34.333 6 -49
s8 -25.167 16 -31.5s21.667 -5.83301 41 1.5v-50c-9.33301 -8 -21.5 -13.5 -36.5 -16.5s-29.833 -2 -44.5 3s-27.167 15.333 -37.5 31s-15.5 38.5 -15.5 68.5c0 35.333 -2 63 -6 83s-13.333 34.667 -28 44s-37.667 14.833 -69 16.5s-74.333 1.5 -129 -0.5v-238h-84z
M142.999 300.001l116.001 0.00195312c34 0 62 2.16699 84 6.5s38.5 13.166 49.5 26.499s16.5 33.666 16.5 60.999c0 31.333 -6.66699 54 -20 68s-32.833 22.833 -58.5 26.5s-56.834 5.5 -93.501 5.5h-94v-194zM213 -246.997l0.000976562 56.999h21
c16.667 0 27.834 3.16699 33.501 9.5s8.5 15.5 8.5 27.5c-22 -1.33301 -37.5 2.83398 -46.5 12.501s-13.5 22.5 -13.5 38.5c0 13.333 3.66699 24.833 11 34.5s20.333 14.5 39 14.5c15.333 0 27.166 -4.66699 35.499 -14s12.5 -27.333 12.5 -54c0 -36 -5.83301 -66 -17.5 -90
s-31.834 -36 -60.501 -36h-23z" />
    <glyph glyph-name="uni0157" unicode="&#x157;" horiz-adv-x="343" 
d="M34 -232l0.000976562 56.999h21c16.667 0 27.834 3.16699 33.501 9.5s8.5 15.5 8.5 27.5c-22 -1.33301 -37.5 2.83398 -46.5 12.501s-13.5 22.5 -13.5 38.5c0 13.333 3.66699 24.833 11 34.5s20.333 14.5 39 14.5c15.333 0 27.166 -4.66699 35.499 -14
s12.5 -27.333 12.5 -54c0 -36 -5.83301 -66 -17.5 -90s-31.834 -36 -60.501 -36h-23zM49.001 -0.000976562v409.001h77l7 -111c4 18 11.833 35.5 23.5 52.5s28 31 49 42s47.833 16.5 80.5 16.5h17v-92h-18c-40.667 0 -72 -5.16699 -94 -15.5s-37.333 -25.333 -46 -45
s-13 -43.834 -13 -72.501v-184h-83z" />
    <glyph glyph-name="Rcaron" unicode="&#x158;" horiz-adv-x="554" 
d="M59 0l-0.000976562 563.001h197c72 0 127.833 -11.833 167.5 -35.5s59.5 -66.167 59.5 -127.5c0 -42.667 -10.833 -78.334 -32.5 -107.001s-54.167 -43 -97.5 -43c26 0 45.333 -5.66699 58 -17s21.334 -25.5 26.001 -42.5s7.66699 -34.5 9 -52.5s3.33301 -34.333 6 -49
s8 -25.167 16 -31.5s21.667 -5.83301 41 1.5v-50c-9.33301 -8 -21.5 -13.5 -36.5 -16.5s-29.833 -2 -44.5 3s-27.167 15.333 -37.5 31s-15.5 38.5 -15.5 68.5c0 35.333 -2 63 -6 83s-13.333 34.667 -28 44s-37.667 14.833 -69 16.5s-74.333 1.5 -129 -0.5v-238h-84z
M142.999 300.001l116.001 0.00195312c34 0 62 2.16699 84 6.5s38.5 13.166 49.5 26.499s16.5 33.666 16.5 60.999c0 31.333 -6.66699 54 -20 68s-32.833 22.833 -58.5 26.5s-56.834 5.5 -93.501 5.5h-94v-194zM96 750.003h87l69 -97l70 97h86l-138 -136h-36z" />
    <glyph glyph-name="rcaron" unicode="&#x159;" horiz-adv-x="359" 
d="M45 0v409.001h77l7 -111c4 18 11.833 35.5 23.5 52.5s28 31 49 42s47.833 16.5 80.5 16.5h17v-92h-18c-40.667 0 -72 -5.16699 -94 -15.5s-37.333 -25.333 -46 -45s-13 -43.834 -13 -72.501v-184h-83zM38 597.001h87l69 -97l70 97h86l-138 -136h-36z" />
    <glyph glyph-name="Sacute" unicode="&#x15a;" horiz-adv-x="540" 
d="M273 -12c-40.667 0 -79.665 6.49609 -116.998 19.4961s-67.833 33.667 -91.5 62s-35.834 65.166 -36.501 110.499h84c0 -2.66699 1.16699 -10.167 3.5 -22.5s8.66602 -25.666 18.999 -39.999s26.833 -26.833 49.5 -37.5s54.334 -16 95.001 -16
c32.667 0 58.5 4.66699 77.5 14s32.333 20.333 40 33s11.834 24 12.501 34c0 20.667 -6.5 37.334 -19.5 50.001s-30.5 22.834 -52.5 30.501s-46.167 14.667 -72.5 21s-52.5 13.333 -78.5 21s-49.833 17.834 -71.5 30.501s-38.667 29.167 -51 49.5s-17.5 46.5 -15.5 78.5
c2 46 23.833 82 65.5 108s95.5 39 161.5 39c38.667 0 74.667 -7 108 -21s60 -35 80 -63s30 -63 30 -105h-81c0 23.333 -5 42.166 -15 56.499s-22.667 25.5 -38 33.5s-31.333 13.5 -48 16.5s-31.667 4.5 -45 4.5c-38 0 -69.167 -7 -93.5 -21s-36.5 -33 -36.5 -57
c-0.666992 -21.333 5.66602 -38.333 18.999 -51s31 -22.667 53 -30s46.167 -14 72.5 -20s52.666 -12.667 78.999 -20s50.333 -17.166 72 -29.499s38.667 -29 51 -50s17.833 -47.5 16.5 -79.5c-2 -31.333 -12.833 -58.166 -32.5 -80.499s-46.167 -39.333 -79.5 -51
s-71.333 -17.5 -114 -17.5zM283.002 609.996h-39v12l48 101h72v-16z" />
    <glyph glyph-name="sacute" unicode="&#x15b;" horiz-adv-x="409" 
d="M205 -10c-30.667 0 -59.501 6.66602 -86.501 19.999s-48.667 31.166 -65 53.499s-24.5 46.5 -24.5 72.5h78c0 -1.33301 0.333008 -6.33301 1 -15s3.66699 -18.334 9 -29.001s14.833 -20 28.5 -28s33.167 -12 58.5 -12c28 0 50.667 5 68 15s26 24 26 42
c0 16.667 -6.33301 29.667 -19 39s-29 16.833 -49 22.5s-41.167 11.167 -63.5 16.5s-43.333 12.5 -63 21.5s-35.667 21.333 -48 37s-18.166 36.834 -17.499 63.501c0 36 15.167 63.833 45.5 83.5s68.833 29.5 115.5 29.5c30 0 58.667 -4.83301 86 -14.5
s49.833 -25.167 67.5 -46.5s26.167 -50 25.5 -86h-77c0.666992 22.667 -4.5 39.834 -15.5 51.501s-24.5 19.667 -40.5 24s-31 6.5 -45 6.5c-26.667 0 -47.667 -4.83301 -63 -14.5s-23 -22.5 -23 -38.5c0 -17.333 6.33301 -30.5 19 -39.5s29 -16.333 49 -22
s41.167 -11.167 63.5 -16.5s43.5 -12.333 63.5 -21s36.5 -21 49.5 -37s19.5 -37.333 19.5 -64c0 -39.333 -16.333 -68.166 -49 -86.499s-74 -27.5 -124 -27.5zM223.999 458.999h-39v12l48 101h72v-16z" />
    <glyph glyph-name="Scedilla" unicode="&#x15e;" horiz-adv-x="540" 
d="M273 -12c-40.667 0 -79.665 6.49609 -116.998 19.4961s-67.833 33.667 -91.5 62s-35.834 65.166 -36.501 110.499h84c0 -2.66699 1.16699 -10.167 3.5 -22.5s8.66602 -25.666 18.999 -39.999s26.833 -26.833 49.5 -37.5s54.334 -16 95.001 -16
c32.667 0 58.5 4.66699 77.5 14s32.333 20.333 40 33s11.834 24 12.501 34c0 20.667 -6.5 37.334 -19.5 50.001s-30.5 22.834 -52.5 30.501s-46.167 14.667 -72.5 21s-52.5 13.333 -78.5 21s-49.833 17.834 -71.5 30.501s-38.667 29.167 -51 49.5s-17.5 46.5 -15.5 78.5
c2 46 23.833 82 65.5 108s95.5 39 161.5 39c38.667 0 74.667 -7 108 -21s60 -35 80 -63s30 -63 30 -105h-81c0 23.333 -5 42.166 -15 56.499s-22.667 25.5 -38 33.5s-31.333 13.5 -48 16.5s-31.667 4.5 -45 4.5c-38 0 -69.167 -7 -93.5 -21s-36.5 -33 -36.5 -57
c-0.666992 -21.333 5.66602 -38.333 18.999 -51s31 -22.667 53 -30s46.167 -14 72.5 -20s52.666 -12.667 78.999 -20s50.333 -17.166 72 -29.499s38.667 -29 51 -50s17.833 -47.5 16.5 -79.5c-2 -31.333 -12.833 -58.166 -32.5 -80.499s-46.167 -39.333 -79.5 -51
s-71.333 -17.5 -114 -17.5zM155.002 -140.004l27.002 41c8 -8 19.167 -14.5 33.5 -19.5s29 -7.83301 44 -8.5s27.5 1.5 37.5 6.5s15 13.5 15 25.5c-0.666992 10.667 -6 18 -16 22s-21.667 4.83301 -35 2.5s-25 -7.83301 -35 -16.5l-36 21l41 87l41 -16l-39 -61
c9.33301 8 21.5 13.667 36.5 17s30.167 3.83301 45.5 1.5s28.166 -8.33301 38.499 -18s15.5 -23.5 15.5 -41.5c0 -20.667 -7.16699 -37.5 -21.5 -50.5s-32.5 -21.667 -54.5 -26s-45.333 -3.83301 -70 1.5s-47.334 16 -68.001 32z" />
    <glyph glyph-name="scedilla" unicode="&#x15f;" horiz-adv-x="409" 
d="M205 -10c-30.667 0 -59.501 6.66602 -86.501 19.999s-48.667 31.166 -65 53.499s-24.5 46.5 -24.5 72.5h78c0 -1.33301 0.333008 -6.33301 1 -15s3.66699 -18.334 9 -29.001s14.833 -20 28.5 -28s33.167 -12 58.5 -12c28 0 50.667 5 68 15s26 24 26 42
c0 16.667 -6.33301 29.667 -19 39s-29 16.833 -49 22.5s-41.167 11.167 -63.5 16.5s-43.333 12.5 -63 21.5s-35.667 21.333 -48 37s-18.166 36.834 -17.499 63.501c0 36 15.167 63.833 45.5 83.5s68.833 29.5 115.5 29.5c30 0 58.667 -4.83301 86 -14.5
s49.833 -25.167 67.5 -46.5s26.167 -50 25.5 -86h-77c0.666992 22.667 -4.5 39.834 -15.5 51.501s-24.5 19.667 -40.5 24s-31 6.5 -45 6.5c-26.667 0 -47.667 -4.83301 -63 -14.5s-23 -22.5 -23 -38.5c0 -17.333 6.33301 -30.5 19 -39.5s29 -16.333 49 -22
s41.167 -11.167 63.5 -16.5s43.5 -12.333 63.5 -21s36.5 -21 49.5 -37s19.5 -37.333 19.5 -64c0 -39.333 -16.333 -68.166 -49 -86.499s-74 -27.5 -124 -27.5zM107.999 -133.001l27.002 41c8 -8 19.167 -14.5 33.5 -19.5s29 -7.83301 44 -8.5s27.5 1.5 37.5 6.5
s15 13.5 15 25.5c-0.666992 10.667 -6 18 -16 22s-21.667 4.83301 -35 2.5s-25 -7.83301 -35 -16.5l-36 21l41 87l41 -16l-39 -61c9.33301 8 21.5 13.667 36.5 17s30.167 3.83301 45.5 1.5s28.166 -8.33301 38.499 -18s15.5 -23.5 15.5 -41.5
c0 -20.667 -7.16699 -37.5 -21.5 -50.5s-32.5 -21.667 -54.5 -26s-45.333 -3.83301 -70 1.5s-47.334 16 -68.001 32z" />
    <glyph glyph-name="Scaron" unicode="&#x160;" horiz-adv-x="533" 
d="M273 -12c-40.667 0 -79.665 6.49609 -116.998 19.4961s-67.833 33.667 -91.5 62s-35.834 65.166 -36.501 110.499h84c0 -2.66699 1.16699 -10.167 3.5 -22.5s8.66602 -25.666 18.999 -39.999s26.833 -26.833 49.5 -37.5s54.334 -16 95.001 -16
c32.667 0 58.5 4.66699 77.5 14s32.333 20.333 40 33s11.834 24 12.501 34c0 20.667 -6.5 37.334 -19.5 50.001s-30.5 22.834 -52.5 30.501s-46.167 14.667 -72.5 21s-52.5 13.333 -78.5 21s-49.833 17.834 -71.5 30.501s-38.667 29.167 -51 49.5s-17.5 46.5 -15.5 78.5
c2 46 23.833 82 65.5 108s95.5 39 161.5 39c38.667 0 74.667 -7 108 -21s60 -35 80 -63s30 -63 30 -105h-81c0 23.333 -5 42.166 -15 56.499s-22.667 25.5 -38 33.5s-31.333 13.5 -48 16.5s-31.667 4.5 -45 4.5c-38 0 -69.167 -7 -93.5 -21s-36.5 -33 -36.5 -57
c-0.666992 -21.333 5.66602 -38.333 18.999 -51s31 -22.667 53 -30s46.167 -14 72.5 -20s52.666 -12.667 78.999 -20s50.333 -17.166 72 -29.499s38.667 -29 51 -50s17.833 -47.5 16.5 -79.5c-2 -31.333 -12.833 -58.166 -32.5 -80.499s-46.167 -39.333 -79.5 -51
s-71.333 -17.5 -114 -17.5zM117.002 749.996h87l69 -97l70 97h86l-138 -136h-36z" />
    <glyph glyph-name="scaron" unicode="&#x161;" horiz-adv-x="441" 
d="M205 -10c-30.667 0 -59.501 6.66602 -86.501 19.999s-48.667 31.166 -65 53.499s-24.5 46.5 -24.5 72.5h78c0 -1.33301 0.333008 -6.33301 1 -15s3.66699 -18.334 9 -29.001s14.833 -20 28.5 -28s33.167 -12 58.5 -12c28 0 50.667 5 68 15s26 24 26 42
c0 16.667 -6.33301 29.667 -19 39s-29 16.833 -49 22.5s-41.167 11.167 -63.5 16.5s-43.333 12.5 -63 21.5s-35.667 21.333 -48 37s-18.166 36.834 -17.499 63.501c0 36 15.167 63.833 45.5 83.5s68.833 29.5 115.5 29.5c30 0 58.667 -4.83301 86 -14.5
s49.833 -25.167 67.5 -46.5s26.167 -50 25.5 -86h-77c0.666992 22.667 -4.5 39.834 -15.5 51.501s-24.5 19.667 -40.5 24s-31 6.5 -45 6.5c-26.667 0 -47.667 -4.83301 -63 -14.5s-23 -22.5 -23 -38.5c0 -17.333 6.33301 -30.5 19 -39.5s29 -16.333 49 -22
s41.167 -11.167 63.5 -16.5s43.5 -12.333 63.5 -21s36.5 -21 49.5 -37s19.5 -37.333 19.5 -64c0 -39.333 -16.333 -68.166 -49 -86.499s-74 -27.5 -124 -27.5zM53.999 596.999h87l69 -97l70 97h86l-138 -136h-36z" />
    <glyph glyph-name="uni0162" unicode="&#x162;" horiz-adv-x="457" 
d="M10 491v72h430v-72h-173v-491h-83v491h-174zM118 -140l27.002 41c8 -8 19.167 -14.5 33.5 -19.5s29 -7.83301 44 -8.5s27.5 1.5 37.5 6.5s15 13.5 15 25.5c-0.666992 10.667 -6 18 -16 22s-21.667 4.83301 -35 2.5s-25 -7.83301 -35 -16.5l-36 21l41 87l41 -16l-39 -61
c9.33301 8 21.5 13.667 36.5 17s30.167 3.83301 45.5 1.5s28.166 -8.33301 38.499 -18s15.5 -23.5 15.5 -41.5c0 -20.667 -7.16699 -37.5 -21.5 -50.5s-32.5 -21.667 -54.5 -26s-45.333 -3.83301 -70 1.5s-47.334 16 -68.001 32z" />
    <glyph glyph-name="uni0163" unicode="&#x163;" horiz-adv-x="291" 
d="M156 0c-28.667 0 -49.5 7.33301 -62.5 22s-19.5 37 -19.5 67v260h-63v60c20.667 0 36.167 1.83301 46.5 5.5s17.333 13 21 28s5.5 38.833 5.5 71.5h69v-105h94v-60h-94v-283h95v-66h-92zM45 -133l27.002 41c8 -8 19.167 -14.5 33.5 -19.5s29 -7.83301 44 -8.5
s27.5 1.5 37.5 6.5s15 13.5 15 25.5c-0.666992 10.667 -6 18 -16 22s-21.667 4.83301 -35 2.5s-25 -7.83301 -35 -16.5l-36 21l41 87l41 -16l-39 -61c9.33301 8 21.5 13.667 36.5 17s30.167 3.83301 45.5 1.5s28.166 -8.33301 38.499 -18s15.5 -23.5 15.5 -41.5
c0 -20.667 -7.16699 -37.5 -21.5 -50.5s-32.5 -21.667 -54.5 -26s-45.333 -3.83301 -70 1.5s-47.334 16 -68.001 32z" />
    <glyph glyph-name="Tcaron" unicode="&#x164;" horiz-adv-x="457" 
d="M10 491v72h430v-72h-173v-491h-83v491h-174zM72 750h87l69 -97l70 97h86l-138 -136h-36z" />
    <glyph glyph-name="tcaron" unicode="&#x165;" horiz-adv-x="294" 
d="M194 454l32 154h80l-64 -154h-48zM156 0c-28.667 0 -49.5 7.33301 -62.5 22s-19.5 37 -19.5 67v260h-63v60c20.667 0 36.167 1.83301 46.5 5.5s17.333 13 21 28s5.5 38.833 5.5 71.5h69v-105h94v-60h-94v-283h95v-66h-92z" />
    <glyph glyph-name="Tbar" unicode="&#x166;" horiz-adv-x="457" 
d="M57 270v60h127v161h-174v72h430v-72h-173v-161h127v-60h-127v-270h-83v270h-127z" />
    <glyph glyph-name="tbar" unicode="&#x167;" horiz-adv-x="291" 
d="M17 185v60h57v100h-63v66c20.667 0 36.167 1.83301 46.5 5.5s17.333 12.834 21 27.501s5.5 38.667 5.5 72h69v-105h94v-66h-94v-100h84v-60h-84v-58c0 -28.667 5.16699 -48.5 15.5 -59.5s22.5 -16 36.5 -15s26.667 5.5 38 13.5l4 -48
c-25.333 -19.333 -51.333 -28.5 -78 -27.5s-49.167 11.167 -67.5 30.5s-27.5 47.666 -27.5 84.999v79h-57z" />
    <glyph glyph-name="Utilde" unicode="&#x168;" horiz-adv-x="586" 
d="M292 -14c-77.333 0 -136.501 22.167 -177.501 66.5s-61.5 106.833 -61.5 187.5v323h87v-322c0 -43.333 7 -77.833 21 -103.5s32.5 -44.167 55.5 -55.5s48.167 -17 75.5 -17c30 0 56.5 5.5 79.5 16.5s41 29.333 54 55s19.5 60.5 19.5 104.5v322h87v-323
c0 -82 -20.167 -144.833 -60.5 -188.5s-100.166 -65.5 -179.499 -65.5zM347.999 625c-16 0 -28.834 2.83301 -38.501 8.5s-17.667 12.167 -24 19.5s-12.5 13.833 -18.5 19.5s-13.333 8.5 -22 8.5c-11.333 0 -18.166 -4.66699 -20.499 -14s-3.16602 -22.333 -2.49902 -39h-52
c0 12 1 26 3 42s7.83301 30 17.5 42s26.167 18 49.5 18c16 0 28.833 -2.83301 38.5 -8.5s17.667 -12.167 24 -19.5s12.666 -13.666 18.999 -18.999s13.833 -8 22.5 -8c11.333 0 18 4.66699 20 14s3 22.666 3 39.999h51c0.666992 -16 -0.333008 -32 -3 -48
s-9 -29.333 -19 -40s-26 -16 -48 -16z" />
    <glyph glyph-name="utilde" unicode="&#x169;" horiz-adv-x="453" 
d="M185 -10c-34.667 0 -62.166 6.5 -82.499 19.5s-35.333 30.167 -45 51.5s-16 44 -19 68s-4.5 47.333 -4.5 70v210h82v-210c0 -24 2.33301 -46.333 7 -67s14.167 -37.167 28.5 -49.5s36.166 -18.5 65.499 -18.5c28 0 49.667 6.33301 65 19s26.166 29 32.499 49
s9.83301 41 10.5 63l1 214h85v-409h-71l-14 85h-2c-2.66699 -8.66699 -9 -20.5 -19 -35.5s-24.667 -28.667 -44 -41s-44.666 -18.5 -75.999 -18.5zM278.001 483c-16 0 -28.834 2.83301 -38.501 8.5s-17.667 12.167 -24 19.5s-12.5 13.833 -18.5 19.5s-13.333 8.5 -22 8.5
c-11.333 0 -18.166 -4.66699 -20.499 -14s-3.16602 -22.333 -2.49902 -39h-52c0 12 1 26 3 42s7.83301 30 17.5 42s26.167 18 49.5 18c16 0 28.833 -2.83301 38.5 -8.5s17.667 -12.167 24 -19.5s12.666 -13.666 18.999 -18.999s13.833 -8 22.5 -8c11.333 0 18 4.66699 20 14
s3 22.666 3 39.999h51c0.666992 -16 -0.333008 -32 -3 -48s-9 -29.333 -19 -40s-26 -16 -48 -16z" />
    <glyph glyph-name="Umacron" unicode="&#x16a;" horiz-adv-x="579" 
d="M292 -14c-77.333 0 -136.501 22.167 -177.501 66.5s-61.5 106.833 -61.5 187.5v323h87v-322c0 -43.333 7 -77.833 21 -103.5s32.5 -44.167 55.5 -55.5s48.167 -17 75.5 -17c30 0 56.5 5.5 79.5 16.5s41 29.333 54 55s19.5 60.5 19.5 104.5v322h87v-323
c0 -82 -20.167 -144.833 -60.5 -188.5s-100.166 -65.5 -179.499 -65.5zM161.999 622v60h262v-60h-262z" />
    <glyph glyph-name="umacron" unicode="&#x16b;" horiz-adv-x="460" 
d="M185 -10c-34.667 0 -62.166 6.5 -82.499 19.5s-35.333 30.167 -45 51.5s-16 44 -19 68s-4.5 47.333 -4.5 70v210h82v-210c0 -24 2.33301 -46.333 7 -67s14.167 -37.167 28.5 -49.5s36.166 -18.5 65.499 -18.5c28 0 49.667 6.33301 65 19s26.166 29 32.499 49
s9.83301 41 10.5 63l1 214h85v-409h-71l-14 85h-2c-2.66699 -8.66699 -9 -20.5 -19 -35.5s-24.667 -28.667 -44 -41s-44.666 -18.5 -75.999 -18.5zM89.001 470v60h262v-60h-262z" />
    <glyph glyph-name="Uring" unicode="&#x16e;" horiz-adv-x="586" 
d="M292 -14c-77.333 0 -136.501 22.167 -177.501 66.5s-61.5 106.833 -61.5 187.5v323h87v-322c0 -43.333 7 -77.833 21 -103.5s32.5 -44.167 55.5 -55.5s48.167 -17 75.5 -17c30 0 56.5 5.5 79.5 16.5s41 29.333 54 55s19.5 60.5 19.5 104.5v322h87v-323
c0 -82 -20.167 -144.833 -60.5 -188.5s-100.166 -65.5 -179.499 -65.5zM288.999 591c-31.333 0 -55 8.50098 -71 25.501s-24 39.5 -24 67.5c0 29.333 7.83301 52.666 23.5 69.999s39.5 26 71.5 26c31.333 0 55.333 -8.66699 72 -26s25 -40.666 25 -69.999
c0 -26.667 -8.33301 -48.834 -25 -66.501s-40.667 -26.5 -72 -26.5zM287.999 640.001c15.333 0 27 4.5 35 13.5s12 19.833 12 32.5c0 13.333 -4 24.5 -12 33.5s-19.667 13.5 -35 13.5c-14.667 0 -26 -4.66699 -34 -14s-12 -20.333 -12 -33
c0 -13.333 4.16699 -24.333 12.5 -33s19.5 -13 33.5 -13z" />
    <glyph glyph-name="uring" unicode="&#x16f;" horiz-adv-x="453" 
d="M185 -10c-34.667 0 -62.166 6.5 -82.499 19.5s-35.333 30.167 -45 51.5s-16 44 -19 68s-4.5 47.333 -4.5 70v210h82v-210c0 -24 2.33301 -46.333 7 -67s14.167 -37.167 28.5 -49.5s36.166 -18.5 65.499 -18.5c28 0 49.667 6.33301 65 19s26.166 29 32.499 49
s9.83301 41 10.5 63l1 214h85v-409h-71l-14 85h-2c-2.66699 -8.66699 -9 -20.5 -19 -35.5s-24.667 -28.667 -44 -41s-44.666 -18.5 -75.999 -18.5zM219.001 456c-31.333 0 -55 8.50098 -71 25.501s-24 39.5 -24 67.5c0 29.333 7.83301 52.666 23.5 69.999s39.5 26 71.5 26
c31.333 0 55.333 -8.66699 72 -26s25 -40.666 25 -69.999c0 -26.667 -8.33301 -48.834 -25 -66.501s-40.667 -26.5 -72 -26.5zM218.001 505.001c15.333 0 27 4.5 35 13.5s12 19.833 12 32.5c0 13.333 -4 24.5 -12 33.5s-19.667 13.5 -35 13.5
c-14.667 0 -26 -4.66699 -34 -14s-12 -20.333 -12 -33c0 -13.333 4.16699 -24.333 12.5 -33s19.5 -13 33.5 -13z" />
    <glyph glyph-name="Uhungarumlaut" unicode="&#x170;" horiz-adv-x="579" 
d="M171 640l75 142l68 -33l-104 -128zM327 640l74 142l69 -33l-104 -128zM292 -14c-77.333 0 -136.501 22.167 -177.501 66.5s-61.5 106.833 -61.5 187.5v323h87v-322c0 -43.333 7 -77.833 21 -103.5s32.5 -44.167 55.5 -55.5s48.167 -17 75.5 -17c30 0 56.5 5.5 79.5 16.5
s41 29.333 54 55s19.5 60.5 19.5 104.5v322h87v-323c0 -82 -20.167 -144.833 -60.5 -188.5s-100.166 -65.5 -179.499 -65.5z" />
    <glyph glyph-name="uhungarumlaut" unicode="&#x171;" horiz-adv-x="470" 
d="M109 471l75 143l68 -33l-104 -128zM265 471l74 143l69 -33l-104 -128zM185 -10c-34.667 0 -62.166 6.5 -82.499 19.5s-35.333 30.167 -45 51.5s-16 44 -19 68s-4.5 47.333 -4.5 70v210h82v-210c0 -24 2.33301 -46.333 7 -67s14.167 -37.167 28.5 -49.5
s36.166 -18.5 65.499 -18.5c28 0 49.667 6.33301 65 19s26.166 29 32.499 49s9.83301 41 10.5 63l1 214h85v-409h-71l-14 85h-2c-2.66699 -8.66699 -9 -20.5 -19 -35.5s-24.667 -28.667 -44 -41s-44.666 -18.5 -75.999 -18.5z" />
    <glyph glyph-name="Uogonek" unicode="&#x172;" horiz-adv-x="586" 
d="M300 -192c-24.667 0 -46.498 7.00293 -65.498 21.0029s-28.5 35.333 -28.5 64c0 20.667 5.66699 38.667 17 54s24.666 28.666 39.999 39.999c-68.667 6 -120.834 30.833 -156.501 74.5s-53.5 103.167 -53.5 178.5v323h87v-322c0 -43.333 7 -77.833 21 -103.5
s32.5 -44.167 55.5 -55.5s48.167 -17 75.5 -17c30 0 56.5 5.5 79.5 16.5s41 29.333 54 55s19.5 60.5 19.5 104.5v322h87v-323c0 -72.667 -15.833 -130.334 -47.5 -173.001s-78.5 -68.334 -140.5 -77.001c-8 -4 -18 -9.66699 -30 -17s-22.667 -16.666 -32 -27.999
s-14 -24.333 -14 -39c0 -11.333 3.33301 -20.333 10 -27s16.334 -10 29.001 -10c10.667 0 19.167 2.5 25.5 7.5s11.166 10 14.499 15l5 7.5l46 -39l-10.5 -13c-7 -8.66699 -17.667 -17.334 -32 -26.001s-32.833 -13 -55.5 -13z" />
    <glyph glyph-name="uogonek" unicode="&#x173;" horiz-adv-x="460" 
d="M185 -10c-34.667 0 -62.166 6.50195 -82.499 19.502s-35.333 30.167 -45 51.5s-16 44 -19 68s-4.5 47.333 -4.5 70v210h82v-210c0 -24 2.33301 -46.333 7 -67s14.167 -37.167 28.5 -49.5s36.166 -18.5 65.499 -18.5c28 0 49.667 6.33301 65 19s26.166 29 32.499 49
s9.83301 41 10.5 63l1 214h85v-409h-4l-13 -6.5c-8.66699 -4.33301 -18.667 -10.333 -30 -18s-21.333 -17.167 -30 -28.5s-13 -24 -13 -38c0 -11.333 3.33301 -20.333 10 -27s16.334 -10 29.001 -10c10.667 0 19.167 2.5 25.5 7.5s11.166 10 14.499 15l5 7.5l46 -39
l-10.5 -13c-7 -8.66699 -17.667 -17.334 -32 -26.001s-32.833 -13 -55.5 -13c-24.667 0 -46.5 7 -65.5 21s-28.5 35.333 -28.5 64c0 25.333 8.5 47.166 25.5 65.499s34.833 33.5 53.5 45.5l-12 78h-2c-2.66699 -8.66699 -9 -20.5 -19 -35.5s-24.667 -28.667 -44 -41
s-44.666 -18.5 -75.999 -18.5z" />
    <glyph glyph-name="Wcircumflex" unicode="&#x174;" horiz-adv-x="830" 
d="M721 563h89l-151 -563h-134l-115 455l-117 -455h-135l-148 563h89l127 -526l139 525v1h89l138 -526zM278 628v8l114 106h36l113 -106v-8h-75l-54 59h-4l-52 -59h-78z" />
    <glyph glyph-name="wcircumflex" unicode="&#x175;" horiz-adv-x="620" 
d="M107 0l-102 394v16h81l80 -340h2l96 340h73l99 -340h2l79 340h81v-16l-103 -394h-117l-76 266h-2l-75 -266h-118zM166 459v8l114 106h36l113 -106v-8h-75l-54 59h-4l-52 -59h-78z" />
    <glyph glyph-name="Ycircumflex" unicode="&#x176;" horiz-adv-x="439" 
d="M175 0v202l-192 361h93l142 -286l141 286h93l-194 -360v-203h-83zM87 628v8l114 106h36l113 -106v-8h-75l-54 59h-4l-52 -59h-78z" />
    <glyph glyph-name="ycircumflex" unicode="&#x177;" horiz-adv-x="424" 
d="M-2 -186l0.000976562 65.001h59c14 0 25.667 3.16699 35 9.5s20.666 23.166 33.999 50.499l35 77l-160 393h86l115 -307l123 307h87l-210 -479c-14.667 -34 -28 -59.333 -40 -76s-25.333 -27.5 -40 -32.5s-33 -7.5 -55 -7.5h-69zM78.001 459.001v8l114 106h36l113 -106
v-8h-75l-54 59h-4l-52 -59h-78z" />
    <glyph glyph-name="Ydieresis" unicode="&#x178;" horiz-adv-x="439" 
d="M175 0v202l-192 361h93l142 -286l141 286h93l-194 -360v-203h-83zM135 623c-22 0 -36.667 5.33301 -44 16s-11 23.667 -11 39c0 14 3.66699 26.333 11 37s22 16 44 16s36.5 -5.33301 43.5 -16s10.5 -23 10.5 -37c0 -15.333 -3.5 -28.333 -10.5 -39s-21.5 -16 -43.5 -16z
M304 623c-22 0 -36.667 5.33301 -44 16s-11 23.667 -11 39c0 14 3.66699 26.333 11 37s22 16 44 16s36.5 -5.33301 43.5 -16s10.5 -23 10.5 -37c0 -15.333 -3.5 -28.333 -10.5 -39s-21.5 -16 -43.5 -16z" />
    <glyph glyph-name="Zacute" unicode="&#x179;" horiz-adv-x="554" 
d="M40 0v70l362 421h-333v72h439v-71l-358 -419h356v-73h-466zM300 610h-39v12l48 101h72v-16z" />
    <glyph glyph-name="zacute" unicode="&#x17a;" horiz-adv-x="438" 
d="M35 0v61l263 286h-249v64h349v-61l-260 -285h260v-65h-363zM228 459h-39v12l48 101h72v-16z" />
    <glyph glyph-name="Zdotaccent" unicode="&#x17b;" horiz-adv-x="554" 
d="M40 0v70l362 421h-333v72h439v-71l-358 -419h356v-73h-466zM281 646c-22 0 -36.667 5.33301 -44 16s-11 23.667 -11 39c0 14 3.66699 26.333 11 37s22 16 44 16s36.5 -5.33301 43.5 -16s10.5 -23 10.5 -37c0 -15.333 -3.5 -28.333 -10.5 -39s-21.5 -16 -43.5 -16z" />
    <glyph glyph-name="zdotaccent" unicode="&#x17c;" horiz-adv-x="438" 
d="M35 0v61l263 286h-249v64h349v-61l-260 -285h260v-65h-363zM221 457c-22 0 -36.667 5.33301 -44 16s-11 23.667 -11 39c0 14 3.66699 26.333 11 37s22 16 44 16s36.5 -5.33301 43.5 -16s10.5 -23 10.5 -37c0 -15.333 -3.5 -28.333 -10.5 -39s-21.5 -16 -43.5 -16z" />
    <glyph glyph-name="Zcaron" unicode="&#x17d;" horiz-adv-x="554" 
d="M40 0v70l362 421h-333v72h439v-71l-358 -419h356v-73h-466zM134 750h87l69 -97l70 97h86l-138 -136h-36z" />
    <glyph glyph-name="zcaron" unicode="&#x17e;" horiz-adv-x="438" 
d="M35 0v61l263 286h-249v64h349v-61l-260 -285h260v-65h-363zM69 597h87l69 -97l70 97h86l-138 -136h-36z" />
    <glyph glyph-name="Ohorn" unicode="&#x1a0;" horiz-adv-x="608" 
d="M297 -14c-90 0 -158.667 26.5 -206 79.5s-71 124.5 -71 214.5c0 59.333 10.167 110.833 30.5 154.5s51 77.667 92 102s92.5 36.5 154.5 36.5c90 0 158.5 -26.5 205.5 -79.5s70.5 -124.167 70.5 -213.5c0 -58 -10.5 -109.167 -31.5 -153.5s-52 -78.833 -93 -103.5
s-91.5 -37 -151.5 -37zM296 66c64.667 0 113.332 19.998 145.999 59.998s49 91.333 49 154s-16.167 114.167 -48.5 154.5s-81.166 60.5 -146.499 60.5c-64 0 -112.5 -19.333 -145.5 -58s-49.5 -91 -49.5 -157c0 -41.333 7 -78.166 21 -110.499s35.5 -57.666 64.5 -75.999
s65.5 -27.5 109.5 -27.5zM372.998 511.998l0.999023 51.001h35c13.333 0 21.333 2.66699 24 8s4.33398 17.666 5.00098 36.999h63c0 -36 -7.33301 -61 -22 -75s-40 -21 -76 -21h-30z" />
    <glyph glyph-name="ohorn" unicode="&#x1a1;" horiz-adv-x="465" 
d="M227 -10c-68 0 -118.667 19.668 -152 59.001s-50 89.333 -50 150c-0.666992 61.333 16 111.666 50 150.999s84.667 59.333 152 60c65.333 0 115 -19.333 149 -58s51 -89.667 51 -153c0 -39.333 -7.16699 -74.833 -21.5 -106.5s-36.333 -56.667 -66 -75
s-67.167 -27.5 -112.5 -27.5zM227 61.001c32 0 56.5 7 73.5 21s28.833 31.833 35.5 53.5s10 43.834 10 66.501s-3.33301 44.834 -10 66.501s-18.5 39.667 -35.5 54s-41.5 21.5 -73.5 21.5c-32.667 0 -57.667 -7.16699 -75 -21.5s-29.333 -32.333 -36 -54
s-10 -43.834 -10 -66.501s3.33301 -44.834 10 -66.501s18.667 -39.5 36 -53.5s42.333 -21 75 -21zM281 349.001l0.999023 51.001h35c13.333 0 21.333 2.66699 24 8s4.33398 17.666 5.00098 36.999h63c0 -36 -7.33301 -61 -22 -75s-40 -21 -76 -21h-30z" />
    <glyph glyph-name="Uhorn" unicode="&#x1af;" horiz-adv-x="586" 
d="M497 512l0.999023 51.001h35c13.333 0 21.333 2.66699 24 8s4.33398 17.666 5.00098 36.999h63c0 -36 -7.33301 -61 -22 -75s-40 -21 -76 -21h-30zM291.999 -13.999c-77.333 0 -136.501 22.167 -177.501 66.5s-61.5 106.833 -61.5 187.5v323h87v-322
c0 -43.333 7 -77.833 21 -103.5s32.5 -44.167 55.5 -55.5s48.167 -17 75.5 -17c30 0 56.5 5.5 79.5 16.5s41 29.333 54 55s19.5 60.5 19.5 104.5v322h87v-323c0 -82 -20.167 -144.833 -60.5 -188.5s-100.166 -65.5 -179.499 -65.5z" />
    <glyph glyph-name="uhorn" unicode="&#x1b0;" horiz-adv-x="468" 
d="M185 -10c-34.667 0 -62.166 6.5 -82.499 19.5s-35.333 30.167 -45 51.5s-16 44 -19 68s-4.5 47.333 -4.5 70v210h82v-210c0 -24 2.33301 -46.333 7 -67s14.167 -37.167 28.5 -49.5s36.166 -18.5 65.499 -18.5c28 0 49.667 6.33301 65 19s26.166 29 32.499 49
s9.83301 41 10.5 63l1 214h85v-409h-71l-14 85h-2c-2.66699 -8.66699 -9 -20.5 -19 -35.5s-24.667 -28.667 -44 -41s-44.666 -18.5 -75.999 -18.5zM364.001 358l0.999023 51.001h35c13.333 0 21.333 2.66699 24 8s4.33398 17.666 5.00098 36.999h63
c0 -36 -7.33301 -61 -22 -75s-40 -21 -76 -21h-30z" />
    <glyph glyph-name="uni0218" unicode="&#x218;" horiz-adv-x="540" 
d="M273 -12c-40.667 0 -79.665 6.49609 -116.998 19.4961s-67.833 33.667 -91.5 62s-35.834 65.166 -36.501 110.499h84c0 -2.66699 1.16699 -10.167 3.5 -22.5s8.66602 -25.666 18.999 -39.999s26.833 -26.833 49.5 -37.5s54.334 -16 95.001 -16
c32.667 0 58.5 4.66699 77.5 14s32.333 20.333 40 33s11.834 24 12.501 34c0 20.667 -6.5 37.334 -19.5 50.001s-30.5 22.834 -52.5 30.501s-46.167 14.667 -72.5 21s-52.5 13.333 -78.5 21s-49.833 17.834 -71.5 30.501s-38.667 29.167 -51 49.5s-17.5 46.5 -15.5 78.5
c2 46 23.833 82 65.5 108s95.5 39 161.5 39c38.667 0 74.667 -7 108 -21s60 -35 80 -63s30 -63 30 -105h-81c0 23.333 -5 42.166 -15 56.499s-22.667 25.5 -38 33.5s-31.333 13.5 -48 16.5s-31.667 4.5 -45 4.5c-38 0 -69.167 -7 -93.5 -21s-36.5 -33 -36.5 -57
c-0.666992 -21.333 5.66602 -38.333 18.999 -51s31 -22.667 53 -30s46.167 -14 72.5 -20s52.666 -12.667 78.999 -20s50.333 -17.166 72 -29.499s38.667 -29 51 -50s17.833 -47.5 16.5 -79.5c-2 -31.333 -12.833 -58.166 -32.5 -80.499s-46.167 -39.333 -79.5 -51
s-71.333 -17.5 -114 -17.5zM213.002 -247.004l0.000976562 56.999h21c16.667 0 27.834 3.16699 33.501 9.5s8.5 15.5 8.5 27.5c-22 -1.33301 -37.5 2.83398 -46.5 12.501s-13.5 22.5 -13.5 38.5c0 13.333 3.66699 24.833 11 34.5s20.333 14.5 39 14.5
c15.333 0 27.166 -4.66699 35.499 -14s12.5 -27.333 12.5 -54c0 -36 -5.83301 -66 -17.5 -90s-31.834 -36 -60.501 -36h-23z" />
    <glyph glyph-name="uni0219" unicode="&#x219;" horiz-adv-x="409" 
d="M205 -10c-30.667 0 -59.501 6.66602 -86.501 19.999s-48.667 31.166 -65 53.499s-24.5 46.5 -24.5 72.5h78c0 -1.33301 0.333008 -6.33301 1 -15s3.66699 -18.334 9 -29.001s14.833 -20 28.5 -28s33.167 -12 58.5 -12c28 0 50.667 5 68 15s26 24 26 42
c0 16.667 -6.33301 29.667 -19 39s-29 16.833 -49 22.5s-41.167 11.167 -63.5 16.5s-43.333 12.5 -63 21.5s-35.667 21.333 -48 37s-18.166 36.834 -17.499 63.501c0 36 15.167 63.833 45.5 83.5s68.833 29.5 115.5 29.5c30 0 58.667 -4.83301 86 -14.5
s49.833 -25.167 67.5 -46.5s26.167 -50 25.5 -86h-77c0.666992 22.667 -4.5 39.834 -15.5 51.501s-24.5 19.667 -40.5 24s-31 6.5 -45 6.5c-26.667 0 -47.667 -4.83301 -63 -14.5s-23 -22.5 -23 -38.5c0 -17.333 6.33301 -30.5 19 -39.5s29 -16.333 49 -22
s41.167 -11.167 63.5 -16.5s43.5 -12.333 63.5 -21s36.5 -21 49.5 -37s19.5 -37.333 19.5 -64c0 -39.333 -16.333 -68.166 -49 -86.499s-74 -27.5 -124 -27.5zM153.999 -232.001l0.000976562 56.999h21c16.667 0 27.834 3.16699 33.501 9.5s8.5 15.5 8.5 27.5
c-22 -1.33301 -37.5 2.83398 -46.5 12.501s-13.5 22.5 -13.5 38.5c0 13.333 3.66699 24.833 11 34.5s20.333 14.5 39 14.5c15.333 0 27.166 -4.66699 35.499 -14s12.5 -27.333 12.5 -54c0 -36 -5.83301 -66 -17.5 -90s-31.834 -36 -60.501 -36h-23z" />
    <glyph glyph-name="uni021A" unicode="&#x21a;" horiz-adv-x="457" 
d="M10 491v72h430v-72h-173v-491h-83v491h-174zM161 -247l0.000976562 56.999h21c16.667 0 27.834 3.16699 33.501 9.5s8.5 15.5 8.5 27.5c-22 -1.33301 -37.5 2.83398 -46.5 12.501s-13.5 22.5 -13.5 38.5c0 13.333 3.66699 24.833 11 34.5s20.333 14.5 39 14.5
c15.333 0 27.166 -4.66699 35.499 -14s12.5 -27.333 12.5 -54c0 -36 -5.83301 -66 -17.5 -90s-31.834 -36 -60.501 -36h-23z" />
    <glyph glyph-name="uni021B" unicode="&#x21b;" horiz-adv-x="291" 
d="M156 0c-28.667 0 -49.5 7.33301 -62.5 22s-19.5 37 -19.5 67v260h-63v60c20.667 0 36.167 1.83301 46.5 5.5s17.333 13 21 28s5.5 38.833 5.5 71.5h69v-105h94v-60h-94v-283h95v-66h-92zM85 -232l0.000976562 56.999h21c16.667 0 27.834 3.16699 33.501 9.5
s8.5 15.5 8.5 27.5c-22 -1.33301 -37.5 2.83398 -46.5 12.501s-13.5 22.5 -13.5 38.5c0 13.333 3.66699 24.833 11 34.5s20.333 14.5 39 14.5c15.333 0 27.166 -4.66699 35.499 -14s12.5 -27.333 12.5 -54c0 -36 -5.83301 -66 -17.5 -90s-31.834 -36 -60.501 -36h-23z" />
    <glyph glyph-name="circumflex" unicode="&#x2c6;" horiz-adv-x="493" 
d="M87 661v8l114 106h36l113 -106v-8h-75l-54 59h-4l-52 -59h-78z" />
    <glyph glyph-name="caron" unicode="&#x2c7;" horiz-adv-x="417" 
d="M53 768h87l69 -97l70 97h86l-138 -136h-36z" />
    <glyph glyph-name="breve" unicode="&#x2d8;" horiz-adv-x="600" 
d="M179 688c-39.333 0 -69.999 8.83301 -91.999 26.5s-33 41.5 -33 71.5h59c0 -20 6.33301 -33.167 19 -39.5s28 -9.5 46 -9.5s33.167 3.16699 45.5 9.5s18.5 19.5 18.5 39.5h60c0 -30 -10.833 -53.833 -32.5 -71.5s-51.834 -26.5 -90.501 -26.5z" />
    <glyph glyph-name="dotaccent" unicode="&#x2d9;" horiz-adv-x="600" 
d="M100 682c-22 0 -36.667 5.33301 -44 16s-11 23.667 -11 39c0 14 3.66699 26.333 11 37s22 16 44 16s36.5 -5.33301 43.5 -16s10.5 -23 10.5 -37c0 -15.333 -3.5 -28.333 -10.5 -39s-21.5 -16 -43.5 -16z" />
    <glyph glyph-name="ring" unicode="&#x2da;" horiz-adv-x="600" 
d="M130 591c-31.333 0 -55 8.50098 -71 25.501s-24 39.5 -24 67.5c0 29.333 7.83301 52.666 23.5 69.999s39.5 26 71.5 26c31.333 0 55.333 -8.66699 72 -26s25 -40.666 25 -69.999c0 -26.667 -8.33301 -48.834 -25 -66.501s-40.667 -26.5 -72 -26.5zM129 640.001
c15.333 0 27 4.5 35 13.5s12 19.833 12 32.5c0 13.333 -4 24.5 -12 33.5s-19.667 13.5 -35 13.5c-14.667 0 -26 -4.66699 -34 -14s-12 -20.333 -12 -33c0 -13.333 4.16699 -24.333 12.5 -33s19.5 -13 33.5 -13z" />
    <glyph glyph-name="tilde" unicode="&#x2dc;" horiz-adv-x="600" 
d="M239 618c-16 0 -28.834 2.83301 -38.501 8.5s-17.667 12.167 -24 19.5s-12.5 13.833 -18.5 19.5s-13.333 8.5 -22 8.5c-11.333 0 -18.166 -4.66699 -20.499 -14s-3.16602 -22.333 -2.49902 -39h-52c0 12 1 26 3 42s7.83301 30 17.5 42s26.167 18 49.5 18
c16 0 28.833 -2.83301 38.5 -8.5s17.667 -12.167 24 -19.5s12.666 -13.666 18.999 -18.999s13.833 -8 22.5 -8c11.333 0 18 4.66699 20 14s3 22.666 3 39.999h51c0.666992 -16 -0.333008 -32 -3 -48s-9 -29.333 -19 -40s-26 -16 -48 -16z" />
    <glyph glyph-name="gravecomb" unicode="&#x300;" 
d="M117 632l-81 97v16h72l48 -101v-12h-39z" />
    <glyph glyph-name="acutecomb" unicode="&#x301;" 
d="M75 632h-39v12l48 101h72v-16z" />
    <glyph glyph-name="uni0302" unicode="&#x302;" 
d="M87 661v8l114 106h36l113 -106v-8h-75l-54 59h-4l-52 -59h-78z" />
    <glyph glyph-name="tildecomb" unicode="&#x303;" 
d="M239 618c-16 0 -28.834 2.83301 -38.501 8.5s-17.667 12.167 -24 19.5s-12.5 13.833 -18.5 19.5s-13.333 8.5 -22 8.5c-11.333 0 -18.166 -4.66699 -20.499 -14s-3.16602 -22.333 -2.49902 -39h-52c0 12 1 26 3 42s7.83301 30 17.5 42s26.167 18 49.5 18
c16 0 28.833 -2.83301 38.5 -8.5s17.667 -12.167 24 -19.5s12.666 -13.666 18.999 -18.999s13.833 -8 22.5 -8c11.333 0 18 4.66699 20 14s3 22.666 3 39.999h51c0.666992 -16 -0.333008 -32 -3 -48s-9 -29.333 -19 -40s-26 -16 -48 -16z" />
    <glyph glyph-name="uni0304" unicode="&#x304;" 
d="M40 730v60h262v-60h-262z" />
    <glyph glyph-name="uni0306" unicode="&#x306;" 
d="M179 688c-39.333 0 -69.999 8.83301 -91.999 26.5s-33 41.5 -33 71.5h59c0 -20 6.33301 -33.167 19 -39.5s28 -9.5 46 -9.5s33.167 3.16699 45.5 9.5s18.5 19.5 18.5 39.5h60c0 -30 -10.833 -53.833 -32.5 -71.5s-51.834 -26.5 -90.501 -26.5z" />
    <glyph glyph-name="uni0307" unicode="&#x307;" 
d="M100 682c-22 0 -36.667 5.33301 -44 16s-11 23.667 -11 39c0 14 3.66699 26.333 11 37s22 16 44 16s36.5 -5.33301 43.5 -16s10.5 -23 10.5 -37c0 -15.333 -3.5 -28.333 -10.5 -39s-21.5 -16 -43.5 -16z" />
    <glyph glyph-name="uni0308" unicode="&#x308;" 
d="M100 677c-22 0 -36.667 5.33301 -44 16s-11 23.667 -11 39c0 14 3.66699 26.333 11 37s22 16 44 16s36.5 -5.33301 43.5 -16s10.5 -23 10.5 -37c0 -15.333 -3.5 -28.333 -10.5 -39s-21.5 -16 -43.5 -16zM269 677c-22 0 -36.667 5.33301 -44 16s-11 23.667 -11 39
c0 14 3.66699 26.333 11 37s22 16 44 16s36.5 -5.33301 43.5 -16s10.5 -23 10.5 -37c0 -15.333 -3.5 -28.333 -10.5 -39s-21.5 -16 -43.5 -16z" />
    <glyph glyph-name="hookabovecomb" unicode="&#x309;" 
d="M88 608v13.001c3.33301 8.66699 10 16 20 22s19.5 12.667 28.5 20s13.5 16.666 13.5 27.999c0 10.667 -5 18.167 -15 22.5s-20.833 4.5 -32.5 0.5s-20.167 -12.333 -25.5 -25l-37 21c6 20.667 17.5 36 34.5 46s35.333 14.5 55 13.5s36.667 -7.33301 51 -19
s21.5 -28.5 21.5 -50.5c0 -18.667 -4.33301 -33 -13 -43s-17.667 -18.333 -27 -25s-15.333 -14.667 -18 -24h-56z" />
    <glyph glyph-name="uni030A" unicode="&#x30a;" 
d="M130 591c-31.333 0 -55 8.50098 -71 25.501s-24 39.5 -24 67.5c0 29.333 7.83301 52.666 23.5 69.999s39.5 26 71.5 26c31.333 0 55.333 -8.66699 72 -26s25 -40.666 25 -69.999c0 -26.667 -8.33301 -48.834 -25 -66.501s-40.667 -26.5 -72 -26.5zM129 640.001
c15.333 0 27 4.5 35 13.5s12 19.833 12 32.5c0 13.333 -4 24.5 -12 33.5s-19.667 13.5 -35 13.5c-14.667 0 -26 -4.66699 -34 -14s-12 -20.333 -12 -33c0 -13.333 4.16699 -24.333 12.5 -33s19.5 -13 33.5 -13z" />
    <glyph glyph-name="uni030B" unicode="&#x30b;" 
d="M32 651l74 142l69 -33l-104 -128zM187 651l75 142l68 -33l-104 -128z" />
    <glyph glyph-name="uni030C" unicode="&#x30c;" 
d="M53 768h87l69 -83l70 83h86v-15l-138 -121h-36l-138 122v14z" />
    <glyph glyph-name="uni0312" unicode="&#x312;" 
d="M92 684c17.333 0 29.501 -4.66895 36.501 -14.002s10.5 -20.333 10.5 -33c0 -13.333 -3.5 -24.666 -10.5 -33.999s-18.833 -14 -35.5 -14s-28.334 4.5 -35.001 13.5s-10 20.167 -10 33.5v0v1v0v0c0 6 0.833008 17 2.5 33s6 33.167 13 51.5s17.833 34.333 32.5 48
s34.667 20.5 60 20.5v-71c-20 0 -35.167 -3.66699 -45.5 -11s-17.833 -15.666 -22.5 -24.999z" />
    <glyph glyph-name="uni031B" unicode="&#x31b;" 
d="M45 607l0.999023 51.001h35c13.333 0 21.333 2.66699 24 8s4.33398 17.666 5.00098 36.999h63c0 -36 -7.33301 -61 -22 -75s-40 -21 -76 -21h-30z" />
    <glyph glyph-name="dotbelowcomb" unicode="&#x323;" 
d="M92 -113c-18.667 0 -31.167 4.5 -37.5 13.5s-9.5 20.167 -9.5 33.5c0 12 3.16699 22.5 9.5 31.5s18.833 13.5 37.5 13.5s31 -4.5 37 -13.5s9 -19.5 9 -31.5c0 -13.333 -3 -24.5 -9 -33.5s-18.333 -13.5 -37 -13.5z" />
    <glyph glyph-name="uni0326" unicode="&#x326;" 
d="M52 -247l0.000976562 56.999h21c16.667 0 27.834 3.16699 33.501 9.5s8.5 15.5 8.5 27.5c-22 -1.33301 -37.5 2.83398 -46.5 12.501s-13.5 22.5 -13.5 38.5c0 13.333 3.66699 24.833 11 34.5s20.333 14.5 39 14.5c15.333 0 27.166 -4.66699 35.499 -14
s12.5 -27.333 12.5 -54c0 -36 -5.83301 -66 -17.5 -90s-31.834 -36 -60.501 -36h-23z" />
    <glyph glyph-name="uni0327" unicode="&#x327;" 
d="M35 -118l27.002 41c8 -8 19.167 -14.5 33.5 -19.5s29 -7.83301 44 -8.5s27.5 1.5 37.5 6.5s15 13.5 15 25.5c-0.666992 10.667 -6 18 -16 22s-21.667 4.83301 -35 2.5s-25 -7.83301 -35 -16.5l-36 21l41 87l41 -16l-39 -61c9.33301 8 21.5 13.667 36.5 17
s30.167 3.83301 45.5 1.5s28.166 -8.33301 38.499 -18s15.5 -23.5 15.5 -41.5c0 -20.667 -7.16699 -37.5 -21.5 -50.5s-32.5 -21.667 -54.5 -26s-45.333 -3.83301 -70 1.5s-47.334 16 -68.001 32z" />
    <glyph glyph-name="uni0328" unicode="&#x328;" 
d="M136 -199c-24.667 0 -46.499 7.00195 -65.499 21.002s-28.5 35.333 -28.5 64c0 19.333 4.66699 36.5 14 51.5s21.166 28.167 35.499 39.5s28.666 20.666 42.999 27.999s26.333 13 36 17l14.5 6v-38l-12.5 -6.5c-8.33301 -4.33301 -17.833 -10.333 -28.5 -18
s-20 -17.167 -28 -28.5s-12 -24 -12 -38c0 -11.333 3.33301 -20.333 10 -27s16 -10 28 -10c10.667 0 19.334 2.5 26.001 7.5s11.5 10 14.5 15l4.5 7.5l47 -39l-10.5 -13c-7 -8.66699 -17.833 -17.334 -32.5 -26.001s-33 -13 -55 -13z" />
    <glyph glyph-name="Wgrave" unicode="&#x1e80;" horiz-adv-x="830" 
d="M721 563h89l-151 -563h-134l-115 455l-117 -455h-135l-148 563h89l127 -526l139 525v1h89l138 -526zM368 610l-81 97v16h72l48 -101v-12h-39z" />
    <glyph glyph-name="wgrave" unicode="&#x1e81;" horiz-adv-x="620" 
d="M107 0l-102 394v16h81l80 -340h2l96 340h73l99 -340h2l79 340h81v-16l-103 -394h-117l-76 266h-2l-75 -266h-118zM255 459l-81 97v16h72l48 -101v-12h-39z" />
    <glyph glyph-name="Wacute" unicode="&#x1e82;" horiz-adv-x="830" 
d="M721 563h89l-151 -563h-134l-115 455l-117 -455h-135l-148 563h89l127 -526l139 525v1h89l138 -526zM429 610h-39v12l48 101h72v-16z" />
    <glyph glyph-name="wacute" unicode="&#x1e83;" horiz-adv-x="620" 
d="M107 0l-102 394v16h81l80 -340h2l96 340h73l99 -340h2l79 340h81v-16l-103 -394h-117l-76 266h-2l-75 -266h-118zM320 459h-39v12l48 101h72v-16z" />
    <glyph glyph-name="Wdieresis" unicode="&#x1e84;" horiz-adv-x="830" 
d="M721 563h89l-151 -563h-134l-115 455l-117 -455h-135l-148 563h89l127 -526l139 525v1h89l138 -526zM326 623c-22 0 -36.667 5.33301 -44 16s-11 23.667 -11 39c0 14 3.66699 26.333 11 37s22 16 44 16s36.5 -5.33301 43.5 -16s10.5 -23 10.5 -37
c0 -15.333 -3.5 -28.333 -10.5 -39s-21.5 -16 -43.5 -16zM495 623c-22 0 -36.667 5.33301 -44 16s-11 23.667 -11 39c0 14 3.66699 26.333 11 37s22 16 44 16s36.5 -5.33301 43.5 -16s10.5 -23 10.5 -37c0 -15.333 -3.5 -28.333 -10.5 -39s-21.5 -16 -43.5 -16z" />
    <glyph glyph-name="wdieresis" unicode="&#x1e85;" horiz-adv-x="620" 
d="M107 0l-102 394v16h81l80 -340h2l96 340h73l99 -340h2l79 340h81v-16l-103 -394h-117l-76 266h-2l-75 -266h-118zM215 457c-22 0 -36.667 5.33301 -44 16s-11 23.667 -11 39c0 14 3.66699 26.333 11 37s22 16 44 16s36.5 -5.33301 43.5 -16s10.5 -23 10.5 -37
c0 -15.333 -3.5 -28.333 -10.5 -39s-21.5 -16 -43.5 -16zM384 457c-22 0 -36.667 5.33301 -44 16s-11 23.667 -11 39c0 14 3.66699 26.333 11 37s22 16 44 16s36.5 -5.33301 43.5 -16s10.5 -23 10.5 -37c0 -15.333 -3.5 -28.333 -10.5 -39s-21.5 -16 -43.5 -16z" />
    <glyph glyph-name="uni1EA0" unicode="&#x1ea0;" horiz-adv-x="554" 
d="M19 0l189 563h137l193 -563h-89l-54 168h-234l-54 -168h-88zM278 528l-95 -294h190zM269 -161c-18.667 0 -31.167 4.5 -37.5 13.5s-9.5 20.167 -9.5 33.5c0 12 3.16699 22.5 9.5 31.5s18.833 13.5 37.5 13.5s31 -4.5 37 -13.5s9 -19.5 9 -31.5
c0 -13.333 -3 -24.5 -9 -33.5s-18.333 -13.5 -37 -13.5z" />
    <glyph glyph-name="uni1EA1" unicode="&#x1ea1;" horiz-adv-x="440" 
d="M180 -9c-38 0 -68.666 8.83105 -91.999 26.498s-40.5 42.334 -51.5 74.001s-16.5 67.834 -16.5 108.501c0 62 12.667 112.833 38 152.5s66 59.5 122 59.5c30 0 54.333 -5.33301 73 -16s33.167 -22.667 43.5 -36s17.5 -25 21.5 -35h2v84h85v-409h-71l-14 73h-2
c-4 -10 -11.333 -21.5 -22 -34.5s-25.334 -24.167 -44.001 -33.5s-42.667 -14 -72 -14zM213.001 61.998c39.333 0 66.832 12.665 82.499 37.998s23.5 58.333 23.5 99c0 42.667 -8.16699 76.334 -24.5 101.001s-43.5 37 -81.5 37c-28 0 -50 -6.16699 -66 -18.5
s-27.5 -28.833 -34.5 -49.5s-10.5 -43.667 -10.5 -69c0 -39.333 8.33301 -72.166 25 -98.499s45.334 -39.5 86.001 -39.5zM211 -161.004c-18.667 0 -31.167 4.5 -37.5 13.5s-9.5 20.167 -9.5 33.5c0 12 3.16699 22.5 9.5 31.5s18.833 13.5 37.5 13.5s31 -4.5 37 -13.5
s9 -19.5 9 -31.5c0 -13.333 -3 -24.5 -9 -33.5s-18.333 -13.5 -37 -13.5z" />
    <glyph glyph-name="uni1EA2" unicode="&#x1ea2;" horiz-adv-x="554" 
d="M19 0l189 563h137l193 -563h-89l-54 168h-234l-54 -168h-88zM278 528l-95 -294h190zM251 619v13.001c3.33301 8.66699 10 16 20 22s19.5 12.667 28.5 20s13.5 16.666 13.5 27.999c0 10.667 -5 18.167 -15 22.5s-20.833 4.5 -32.5 0.5s-20.167 -12.333 -25.5 -25l-37 21
c6 20.667 17.5 36 34.5 46s35.333 14.5 55 13.5s36.667 -7.33301 51 -19s21.5 -28.5 21.5 -50.5c0 -18.667 -4.33301 -33 -13 -43s-17.667 -18.333 -27 -25s-15.333 -14.667 -18 -24h-56z" />
    <glyph glyph-name="uni1EA3" unicode="&#x1ea3;" horiz-adv-x="440" 
d="M180 -9c-38 0 -68.666 8.83105 -91.999 26.498s-40.5 42.334 -51.5 74.001s-16.5 67.834 -16.5 108.501c0 62 12.667 112.833 38 152.5s66 59.5 122 59.5c30 0 54.333 -5.33301 73 -16s33.167 -22.667 43.5 -36s17.5 -25 21.5 -35h2v84h85v-409h-71l-14 73h-2
c-4 -10 -11.333 -21.5 -22 -34.5s-25.334 -24.167 -44.001 -33.5s-42.667 -14 -72 -14zM213.001 61.998c39.333 0 66.832 12.665 82.499 37.998s23.5 58.333 23.5 99c0 42.667 -8.16699 76.334 -24.5 101.001s-43.5 37 -81.5 37c-28 0 -50 -6.16699 -66 -18.5
s-27.5 -28.833 -34.5 -49.5s-10.5 -43.667 -10.5 -69c0 -39.333 8.33301 -72.166 25 -98.499s45.334 -39.5 86.001 -39.5zM190 467.996v13.001c3.33301 8.66699 10 16 20 22s19.5 12.667 28.5 20s13.5 16.666 13.5 27.999c0 10.667 -5 18.167 -15 22.5
s-20.833 4.5 -32.5 0.5s-20.167 -12.333 -25.5 -25l-37 21c6 20.667 17.5 36 34.5 46s35.333 14.5 55 13.5s36.667 -7.33301 51 -19s21.5 -28.5 21.5 -50.5c0 -18.667 -4.33301 -33 -13 -43s-17.667 -18.333 -27 -25s-15.333 -14.667 -18 -24h-56z" />
    <glyph glyph-name="uni1EA4" unicode="&#x1ea4;" horiz-adv-x="554" 
d="M19 0l189 563h137l193 -563h-89l-54 168h-234l-54 -168h-88zM278 528l-95 -294h190zM147 610v8l114 106h36l113 -106v-8h-75l-54 59h-4l-52 -59h-78zM417 701h-39v12l48 101h72v-16z" />
    <glyph glyph-name="uni1EA5" unicode="&#x1ea5;" horiz-adv-x="440" 
d="M180 -9c-38 0 -68.666 8.83105 -91.999 26.498s-40.5 42.334 -51.5 74.001s-16.5 67.834 -16.5 108.501c0 62 12.667 112.833 38 152.5s66 59.5 122 59.5c30 0 54.333 -5.33301 73 -16s33.167 -22.667 43.5 -36s17.5 -25 21.5 -35h2v84h85v-409h-71l-14 73h-2
c-4 -10 -11.333 -21.5 -22 -34.5s-25.334 -24.167 -44.001 -33.5s-42.667 -14 -72 -14zM213.001 61.998c39.333 0 66.832 12.665 82.499 37.998s23.5 58.333 23.5 99c0 42.667 -8.16699 76.334 -24.5 101.001s-43.5 37 -81.5 37c-28 0 -50 -6.16699 -66 -18.5
s-27.5 -28.833 -34.5 -49.5s-10.5 -43.667 -10.5 -69c0 -39.333 8.33301 -72.166 25 -98.499s45.334 -39.5 86.001 -39.5zM85 462.996v8l114 106h36l113 -106v-8h-75l-54 59h-4l-52 -59h-78zM355 553.996h-39v12l48 101h72v-16z" />
    <glyph glyph-name="uni1EA6" unicode="&#x1ea6;" horiz-adv-x="554" 
d="M19 0l189 563h137l193 -563h-89l-54 168h-234l-54 -168h-88zM278 528l-95 -294h190zM129 701l-81 97v16h72l48 -101v-12h-39zM147 610v8l114 106h36l113 -106v-8h-75l-54 59h-4l-52 -59h-78z" />
    <glyph glyph-name="uni1EA7" unicode="&#x1ea7;" horiz-adv-x="440" 
d="M180 -9c-38 0 -68.666 8.83105 -91.999 26.498s-40.5 42.334 -51.5 74.001s-16.5 67.834 -16.5 108.501c0 62 12.667 112.833 38 152.5s66 59.5 122 59.5c30 0 54.333 -5.33301 73 -16s33.167 -22.667 43.5 -36s17.5 -25 21.5 -35h2v84h85v-409h-71l-14 73h-2
c-4 -10 -11.333 -21.5 -22 -34.5s-25.334 -24.167 -44.001 -33.5s-42.667 -14 -72 -14zM213.001 61.998c39.333 0 66.832 12.665 82.499 37.998s23.5 58.333 23.5 99c0 42.667 -8.16699 76.334 -24.5 101.001s-43.5 37 -81.5 37c-28 0 -50 -6.16699 -66 -18.5
s-27.5 -28.833 -34.5 -49.5s-10.5 -43.667 -10.5 -69c0 -39.333 8.33301 -72.166 25 -98.499s45.334 -39.5 86.001 -39.5zM67 553.996l-81 97v16h72l48 -101v-12h-39zM85 462.996v8l114 106h36l113 -106v-8h-75l-54 59h-4l-52 -59h-78z" />
    <glyph glyph-name="uni1EA8" unicode="&#x1ea8;" horiz-adv-x="554" 
d="M19 0l189 563h137l193 -563h-89l-54 168h-234l-54 -168h-88zM278 528l-95 -294h190zM147 616v8l114 106h36l113 -106v-8h-75l-54 59h-4l-52 -59h-78zM367 707v13.001c3.33301 8.66699 10 16 20 22s19.5 12.667 28.5 20s13.5 16.666 13.5 27.999
c0 10.667 -5 18.167 -15 22.5s-20.833 4.5 -32.5 0.5s-20.167 -12.333 -25.5 -25l-37 21c6 20.667 17.5 36 34.5 46s35.333 14.5 55 13.5s36.667 -7.33301 51 -19s21.5 -28.5 21.5 -50.5c0 -18.667 -4.33301 -33 -13 -43s-17.667 -18.333 -27 -25s-15.333 -14.667 -18 -24
h-56z" />
    <glyph glyph-name="uni1EA9" unicode="&#x1ea9;" horiz-adv-x="440" 
d="M180 -9c-38 0 -68.666 8.83105 -91.999 26.498s-40.5 42.334 -51.5 74.001s-16.5 67.834 -16.5 108.501c0 62 12.667 112.833 38 152.5s66 59.5 122 59.5c30 0 54.333 -5.33301 73 -16s33.167 -22.667 43.5 -36s17.5 -25 21.5 -35h2v84h85v-409h-71l-14 73h-2
c-4 -10 -11.333 -21.5 -22 -34.5s-25.334 -24.167 -44.001 -33.5s-42.667 -14 -72 -14zM213.001 61.998c39.333 0 66.832 12.665 82.499 37.998s23.5 58.333 23.5 99c0 42.667 -8.16699 76.334 -24.5 101.001s-43.5 37 -81.5 37c-28 0 -50 -6.16699 -66 -18.5
s-27.5 -28.833 -34.5 -49.5s-10.5 -43.667 -10.5 -69c0 -39.333 8.33301 -72.166 25 -98.499s45.334 -39.5 86.001 -39.5zM85 462.996v8l114 106h36l113 -106v-8h-75l-54 59h-4l-52 -59h-78zM305 553.996v13.001c3.33301 8.66699 10 16 20 22s19.5 12.667 28.5 20
s13.5 16.666 13.5 27.999c0 10.667 -5 18.167 -15 22.5s-20.833 4.5 -32.5 0.5s-20.167 -12.333 -25.5 -25l-37 21c6 20.667 17.5 36 34.5 46s35.333 14.5 55 13.5s36.667 -7.33301 51 -19s21.5 -28.5 21.5 -50.5c0 -18.667 -4.33301 -33 -13 -43s-17.667 -18.333 -27 -25
s-15.333 -14.667 -18 -24h-56z" />
    <glyph glyph-name="uni1EAA" unicode="&#x1eaa;" horiz-adv-x="554" 
d="M19 0l189 563h137l193 -563h-89l-54 168h-234l-54 -168h-88zM278 528l-95 -294h190zM147 616v8l114 106h36l113 -106v-8h-75l-54 59h-4l-52 -59h-78zM329 768c-16 0 -28.834 2.83301 -38.501 8.5s-17.667 12.167 -24 19.5s-12.5 13.833 -18.5 19.5s-13.333 8.5 -22 8.5
c-11.333 0 -18.166 -4.66699 -20.499 -14s-3.16602 -22.333 -2.49902 -39h-52c0 12 1 26 3 42s7.83301 30 17.5 42s26.167 18 49.5 18c16 0 28.833 -2.83301 38.5 -8.5s17.667 -12.167 24 -19.5s12.666 -13.666 18.999 -18.999s13.833 -8 22.5 -8c11.333 0 18 4.66699 20 14
s3 22.666 3 39.999h51c0.666992 -16 -0.333008 -32 -3 -48s-9 -29.333 -19 -40s-26 -16 -48 -16z" />
    <glyph glyph-name="uni1EAB" unicode="&#x1eab;" horiz-adv-x="440" 
d="M180 -9c-38 0 -68.666 8.83105 -91.999 26.498s-40.5 42.334 -51.5 74.001s-16.5 67.834 -16.5 108.501c0 62 12.667 112.833 38 152.5s66 59.5 122 59.5c30 0 54.333 -5.33301 73 -16s33.167 -22.667 43.5 -36s17.5 -25 21.5 -35h2v84h85v-409h-71l-14 73h-2
c-4 -10 -11.333 -21.5 -22 -34.5s-25.334 -24.167 -44.001 -33.5s-42.667 -14 -72 -14zM213.001 61.998c39.333 0 66.832 12.665 82.499 37.998s23.5 58.333 23.5 99c0 42.667 -8.16699 76.334 -24.5 101.001s-43.5 37 -81.5 37c-28 0 -50 -6.16699 -66 -18.5
s-27.5 -28.833 -34.5 -49.5s-10.5 -43.667 -10.5 -69c0 -39.333 8.33301 -72.166 25 -98.499s45.334 -39.5 86.001 -39.5zM85 462.996v8l114 106h36l113 -106v-8h-75l-54 59h-4l-52 -59h-78zM267 614.996c-16 0 -28.834 2.83301 -38.501 8.5s-17.667 12.167 -24 19.5
s-12.5 13.833 -18.5 19.5s-13.333 8.5 -22 8.5c-11.333 0 -18.166 -4.66699 -20.499 -14s-3.16602 -22.333 -2.49902 -39h-52c0 12 1 26 3 42s7.83301 30 17.5 42s26.167 18 49.5 18c16 0 28.833 -2.83301 38.5 -8.5s17.667 -12.167 24 -19.5s12.666 -13.666 18.999 -18.999
s13.833 -8 22.5 -8c11.333 0 18 4.66699 20 14s3 22.666 3 39.999h51c0.666992 -16 -0.333008 -32 -3 -48s-9 -29.333 -19 -40s-26 -16 -48 -16z" />
    <glyph glyph-name="uni1EAC" unicode="&#x1eac;" horiz-adv-x="554" 
d="M19 0l189 563h137l193 -563h-89l-54 168h-234l-54 -168h-88zM278 528l-95 -294h190zM269 -161c-18.667 0 -31.167 4.5 -37.5 13.5s-9.5 20.167 -9.5 33.5c0 12 3.16699 22.5 9.5 31.5s18.833 13.5 37.5 13.5s31 -4.5 37 -13.5s9 -19.5 9 -31.5
c0 -13.333 -3 -24.5 -9 -33.5s-18.333 -13.5 -37 -13.5zM147 616v8l114 106h36l113 -106v-8h-75l-54 59h-4l-52 -59h-78z" />
    <glyph glyph-name="uni1EAD" unicode="&#x1ead;" horiz-adv-x="440" 
d="M180 -9c-38 0 -68.666 8.83105 -91.999 26.498s-40.5 42.334 -51.5 74.001s-16.5 67.834 -16.5 108.501c0 62 12.667 112.833 38 152.5s66 59.5 122 59.5c30 0 54.333 -5.33301 73 -16s33.167 -22.667 43.5 -36s17.5 -25 21.5 -35h2v84h85v-409h-71l-14 73h-2
c-4 -10 -11.333 -21.5 -22 -34.5s-25.334 -24.167 -44.001 -33.5s-42.667 -14 -72 -14zM213.001 61.998c39.333 0 66.832 12.665 82.499 37.998s23.5 58.333 23.5 99c0 42.667 -8.16699 76.334 -24.5 101.001s-43.5 37 -81.5 37c-28 0 -50 -6.16699 -66 -18.5
s-27.5 -28.833 -34.5 -49.5s-10.5 -43.667 -10.5 -69c0 -39.333 8.33301 -72.166 25 -98.499s45.334 -39.5 86.001 -39.5zM85 462.996v8l114 106h36l113 -106v-8h-75l-54 59h-4l-52 -59h-78zM211 -161.004c-18.667 0 -31.167 4.5 -37.5 13.5s-9.5 20.167 -9.5 33.5
c0 12 3.16699 22.5 9.5 31.5s18.833 13.5 37.5 13.5s31 -4.5 37 -13.5s9 -19.5 9 -31.5c0 -13.333 -3 -24.5 -9 -33.5s-18.333 -13.5 -37 -13.5z" />
    <glyph glyph-name="uni1EAE" unicode="&#x1eae;" horiz-adv-x="554" 
d="M19 0l189 563h137l193 -563h-89l-54 168h-234l-54 -168h-88zM278 528l-95 -294h190zM279 622c-39.333 0 -69.999 8.83301 -91.999 26.5s-33 41.5 -33 71.5h59c0 -20 6.33301 -33.167 19 -39.5s28 -9.5 46 -9.5s33.167 3.16699 45.5 9.5s18.5 19.5 18.5 39.5h60
c0 -30 -10.833 -53.833 -32.5 -71.5s-51.834 -26.5 -90.501 -26.5zM297.001 736h-39v12l48 101h72v-16z" />
    <glyph glyph-name="uni1EAF" unicode="&#x1eaf;" horiz-adv-x="440" 
d="M180 -9c-38 0 -68.666 8.83105 -91.999 26.498s-40.5 42.334 -51.5 74.001s-16.5 67.834 -16.5 108.501c0 62 12.667 112.833 38 152.5s66 59.5 122 59.5c30 0 54.333 -5.33301 73 -16s33.167 -22.667 43.5 -36s17.5 -25 21.5 -35h2v84h85v-409h-71l-14 73h-2
c-4 -10 -11.333 -21.5 -22 -34.5s-25.334 -24.167 -44.001 -33.5s-42.667 -14 -72 -14zM213.001 61.998c39.333 0 66.832 12.665 82.499 37.998s23.5 58.333 23.5 99c0 42.667 -8.16699 76.334 -24.5 101.001s-43.5 37 -81.5 37c-28 0 -50 -6.16699 -66 -18.5
s-27.5 -28.833 -34.5 -49.5s-10.5 -43.667 -10.5 -69c0 -39.333 8.33301 -72.166 25 -98.499s45.334 -39.5 86.001 -39.5zM216 460.996c-39.333 0 -69.999 8.83301 -91.999 26.5s-33 41.5 -33 71.5h59c0 -20 6.33301 -33.167 19 -39.5s28 -9.5 46 -9.5
s33.167 3.16699 45.5 9.5s18.5 19.5 18.5 39.5h60c0 -30 -10.833 -53.833 -32.5 -71.5s-51.834 -26.5 -90.501 -26.5zM234.001 574.996h-39v12l48 101h72v-16z" />
    <glyph glyph-name="uni1EB0" unicode="&#x1eb0;" horiz-adv-x="554" 
d="M19 0l189 563h137l193 -563h-89l-54 168h-234l-54 -168h-88zM278 528l-95 -294h190zM279 623c-39.333 0 -69.999 8.83301 -91.999 26.5s-33 41.5 -33 71.5h59c0 -20 6.33301 -33.167 19 -39.5s28 -9.5 46 -9.5s33.167 3.16699 45.5 9.5s18.5 19.5 18.5 39.5h60
c0 -30 -10.833 -53.833 -32.5 -71.5s-51.834 -26.5 -90.501 -26.5zM254.001 737l-81 97v16h72l48 -101v-12h-39z" />
    <glyph glyph-name="uni1EB1" unicode="&#x1eb1;" horiz-adv-x="440" 
d="M180 -9c-38 0 -68.666 8.83105 -91.999 26.498s-40.5 42.334 -51.5 74.001s-16.5 67.834 -16.5 108.501c0 62 12.667 112.833 38 152.5s66 59.5 122 59.5c30 0 54.333 -5.33301 73 -16s33.167 -22.667 43.5 -36s17.5 -25 21.5 -35h2v84h85v-409h-71l-14 73h-2
c-4 -10 -11.333 -21.5 -22 -34.5s-25.334 -24.167 -44.001 -33.5s-42.667 -14 -72 -14zM213.001 61.998c39.333 0 66.832 12.665 82.499 37.998s23.5 58.333 23.5 99c0 42.667 -8.16699 76.334 -24.5 101.001s-43.5 37 -81.5 37c-28 0 -50 -6.16699 -66 -18.5
s-27.5 -28.833 -34.5 -49.5s-10.5 -43.667 -10.5 -69c0 -39.333 8.33301 -72.166 25 -98.499s45.334 -39.5 86.001 -39.5zM216 460.996c-39.333 0 -69.999 8.83301 -91.999 26.5s-33 41.5 -33 71.5h59c0 -20 6.33301 -33.167 19 -39.5s28 -9.5 46 -9.5
s33.167 3.16699 45.5 9.5s18.5 19.5 18.5 39.5h60c0 -30 -10.833 -53.833 -32.5 -71.5s-51.834 -26.5 -90.501 -26.5zM191.001 574.996l-81 97v16h72l48 -101v-12h-39z" />
    <glyph glyph-name="uni1EB2" unicode="&#x1eb2;" horiz-adv-x="554" 
d="M19 0l189 563h137l193 -563h-89l-54 168h-234l-54 -168h-88zM278 528l-95 -294h190zM278 623c-39.333 0 -69.999 8.83301 -91.999 26.5s-33 41.5 -33 71.5h59c0 -20 6.33301 -33.167 19 -39.5s28 -9.5 46 -9.5s33.167 3.16699 45.5 9.5s18.5 19.5 18.5 39.5h60
c0 -30 -10.833 -53.833 -32.5 -71.5s-51.834 -26.5 -90.501 -26.5zM250.001 735v13.001c3.33301 8.66699 10 16 20 22s19.5 12.667 28.5 20s13.5 16.666 13.5 27.999c0 10.667 -5 18.167 -15 22.5s-20.833 4.5 -32.5 0.5s-20.167 -12.333 -25.5 -25l-37 21
c6 20.667 17.5 36 34.5 46s35.333 14.5 55 13.5s36.667 -7.33301 51 -19s21.5 -28.5 21.5 -50.5c0 -18.667 -4.33301 -33 -13 -43s-17.667 -18.333 -27 -25s-15.333 -14.667 -18 -24h-56z" />
    <glyph glyph-name="uni1EB3" unicode="&#x1eb3;" horiz-adv-x="440" 
d="M180 -9c-38 0 -68.666 8.83105 -91.999 26.498s-40.5 42.334 -51.5 74.001s-16.5 67.834 -16.5 108.501c0 62 12.667 112.833 38 152.5s66 59.5 122 59.5c30 0 54.333 -5.33301 73 -16s33.167 -22.667 43.5 -36s17.5 -25 21.5 -35h2v84h85v-409h-71l-14 73h-2
c-4 -10 -11.333 -21.5 -22 -34.5s-25.334 -24.167 -44.001 -33.5s-42.667 -14 -72 -14zM213.001 61.998c39.333 0 66.832 12.665 82.499 37.998s23.5 58.333 23.5 99c0 42.667 -8.16699 76.334 -24.5 101.001s-43.5 37 -81.5 37c-28 0 -50 -6.16699 -66 -18.5
s-27.5 -28.833 -34.5 -49.5s-10.5 -43.667 -10.5 -69c0 -39.333 8.33301 -72.166 25 -98.499s45.334 -39.5 86.001 -39.5zM216 460.996c-39.333 0 -69.999 8.83301 -91.999 26.5s-33 41.5 -33 71.5h59c0 -20 6.33301 -33.167 19 -39.5s28 -9.5 46 -9.5
s33.167 3.16699 45.5 9.5s18.5 19.5 18.5 39.5h60c0 -30 -10.833 -53.833 -32.5 -71.5s-51.834 -26.5 -90.501 -26.5zM188.001 572.996v13.001c3.33301 8.66699 10 16 20 22s19.5 12.667 28.5 20s13.5 16.666 13.5 27.999c0 10.667 -5 18.167 -15 22.5
s-20.833 4.5 -32.5 0.5s-20.167 -12.333 -25.5 -25l-37 21c6 20.667 17.5 36 34.5 46s35.333 14.5 55 13.5s36.667 -7.33301 51 -19s21.5 -28.5 21.5 -50.5c0 -18.667 -4.33301 -33 -13 -43s-17.667 -18.333 -27 -25s-15.333 -14.667 -18 -24h-56z" />
    <glyph glyph-name="uni1EB4" unicode="&#x1eb4;" horiz-adv-x="554" 
d="M19 0l189 563h137l193 -563h-89l-54 168h-234l-54 -168h-88zM278 528l-95 -294h190zM278 623c-39.333 0 -69.999 8.83301 -91.999 26.5s-33 41.5 -33 71.5h59c0 -20 6.33301 -33.167 19 -39.5s28 -9.5 46 -9.5s33.167 3.16699 45.5 9.5s18.5 19.5 18.5 39.5h60
c0 -30 -10.833 -53.833 -32.5 -71.5s-51.834 -26.5 -90.501 -26.5zM331.001 772c-16 0 -28.834 2.83301 -38.501 8.5s-17.667 12.167 -24 19.5s-12.5 13.833 -18.5 19.5s-13.333 8.5 -22 8.5c-11.333 0 -18.166 -4.66699 -20.499 -14s-3.16602 -22.333 -2.49902 -39h-52
c0 12 1 26 3 42s7.83301 30 17.5 42s26.167 18 49.5 18c16 0 28.833 -2.83301 38.5 -8.5s17.667 -12.167 24 -19.5s12.666 -13.666 18.999 -18.999s13.833 -8 22.5 -8c11.333 0 18 4.66699 20 14s3 22.666 3 39.999h51c0.666992 -16 -0.333008 -32 -3 -48
s-9 -29.333 -19 -40s-26 -16 -48 -16z" />
    <glyph glyph-name="uni1EB5" unicode="&#x1eb5;" horiz-adv-x="440" 
d="M180 -9c-38 0 -68.666 8.83105 -91.999 26.498s-40.5 42.334 -51.5 74.001s-16.5 67.834 -16.5 108.501c0 62 12.667 112.833 38 152.5s66 59.5 122 59.5c30 0 54.333 -5.33301 73 -16s33.167 -22.667 43.5 -36s17.5 -25 21.5 -35h2v84h85v-409h-71l-14 73h-2
c-4 -10 -11.333 -21.5 -22 -34.5s-25.334 -24.167 -44.001 -33.5s-42.667 -14 -72 -14zM213.001 61.998c39.333 0 66.832 12.665 82.499 37.998s23.5 58.333 23.5 99c0 42.667 -8.16699 76.334 -24.5 101.001s-43.5 37 -81.5 37c-28 0 -50 -6.16699 -66 -18.5
s-27.5 -28.833 -34.5 -49.5s-10.5 -43.667 -10.5 -69c0 -39.333 8.33301 -72.166 25 -98.499s45.334 -39.5 86.001 -39.5zM213 460.996c-39.333 0 -69.999 8.83301 -91.999 26.5s-33 41.5 -33 71.5h59c0 -20 6.33301 -33.167 19 -39.5s28 -9.5 46 -9.5
s33.167 3.16699 45.5 9.5s18.5 19.5 18.5 39.5h60c0 -30 -10.833 -53.833 -32.5 -71.5s-51.834 -26.5 -90.501 -26.5zM266.001 609.996c-16 0 -28.834 2.83301 -38.501 8.5s-17.667 12.167 -24 19.5s-12.5 13.833 -18.5 19.5s-13.333 8.5 -22 8.5
c-11.333 0 -18.166 -4.66699 -20.499 -14s-3.16602 -22.333 -2.49902 -39h-52c0 12 1 26 3 42s7.83301 30 17.5 42s26.167 18 49.5 18c16 0 28.833 -2.83301 38.5 -8.5s17.667 -12.167 24 -19.5s12.666 -13.666 18.999 -18.999s13.833 -8 22.5 -8c11.333 0 18 4.66699 20 14
s3 22.666 3 39.999h51c0.666992 -16 -0.333008 -32 -3 -48s-9 -29.333 -19 -40s-26 -16 -48 -16z" />
    <glyph glyph-name="uni1EB6" unicode="&#x1eb6;" horiz-adv-x="554" 
d="M19 0l189 563h137l193 -563h-89l-54 168h-234l-54 -168h-88zM278 528l-95 -294h190zM275 -161c-18.667 0 -31.167 4.5 -37.5 13.5s-9.5 20.167 -9.5 33.5c0 12 3.16699 22.5 9.5 31.5s18.833 13.5 37.5 13.5s31 -4.5 37 -13.5s9 -19.5 9 -31.5
c0 -13.333 -3 -24.5 -9 -33.5s-18.333 -13.5 -37 -13.5zM279 623c-39.333 0 -69.999 8.83301 -91.999 26.5s-33 41.5 -33 71.5h59c0 -20 6.33301 -33.167 19 -39.5s28 -9.5 46 -9.5s33.167 3.16699 45.5 9.5s18.5 19.5 18.5 39.5h60c0 -30 -10.833 -53.833 -32.5 -71.5
s-51.834 -26.5 -90.501 -26.5z" />
    <glyph glyph-name="uni1EB7" unicode="&#x1eb7;" horiz-adv-x="440" 
d="M180 -9c-38 0 -68.666 8.83105 -91.999 26.498s-40.5 42.334 -51.5 74.001s-16.5 67.834 -16.5 108.501c0 62 12.667 112.833 38 152.5s66 59.5 122 59.5c30 0 54.333 -5.33301 73 -16s33.167 -22.667 43.5 -36s17.5 -25 21.5 -35h2v84h85v-409h-71l-14 73h-2
c-4 -10 -11.333 -21.5 -22 -34.5s-25.334 -24.167 -44.001 -33.5s-42.667 -14 -72 -14zM213.001 61.998c39.333 0 66.832 12.665 82.499 37.998s23.5 58.333 23.5 99c0 42.667 -8.16699 76.334 -24.5 101.001s-43.5 37 -81.5 37c-28 0 -50 -6.16699 -66 -18.5
s-27.5 -28.833 -34.5 -49.5s-10.5 -43.667 -10.5 -69c0 -39.333 8.33301 -72.166 25 -98.499s45.334 -39.5 86.001 -39.5zM216 460.996c-39.333 0 -69.999 8.83301 -91.999 26.5s-33 41.5 -33 71.5h59c0 -20 6.33301 -33.167 19 -39.5s28 -9.5 46 -9.5
s33.167 3.16699 45.5 9.5s18.5 19.5 18.5 39.5h60c0 -30 -10.833 -53.833 -32.5 -71.5s-51.834 -26.5 -90.501 -26.5zM211.001 -161.004c-18.667 0 -31.167 4.5 -37.5 13.5s-9.5 20.167 -9.5 33.5c0 12 3.16699 22.5 9.5 31.5s18.833 13.5 37.5 13.5s31 -4.5 37 -13.5
s9 -19.5 9 -31.5c0 -13.333 -3 -24.5 -9 -33.5s-18.333 -13.5 -37 -13.5z" />
    <glyph glyph-name="uni1EB8" unicode="&#x1eb8;" horiz-adv-x="490" 
d="M137 68h318v-68h-400v563h390v-72h-308v-171h240v-69h-240v-183zM249 -161c-18.667 0 -31.167 4.5 -37.5 13.5s-9.5 20.167 -9.5 33.5c0 12 3.16699 22.5 9.5 31.5s18.833 13.5 37.5 13.5s31 -4.5 37 -13.5s9 -19.5 9 -31.5c0 -13.333 -3 -24.5 -9 -33.5
s-18.333 -13.5 -37 -13.5z" />
    <glyph glyph-name="uni1EB9" unicode="&#x1eb9;" horiz-adv-x="457" 
d="M226 -10c-46 0 -83.668 10.168 -113.001 30.501s-51 46.5 -65 78.5s-21 65.667 -21 101c-0.666992 39.333 6.83301 75 22.5 107s38.334 57.333 68.001 76s65.167 28 106.5 28c35.333 0 67.166 -7.83301 95.499 -23.5s50.833 -37.667 67.5 -66s25.667 -61.833 27 -100.5
c0 -2 0.166992 -5.83301 0.5 -11.5s0.5 -10.5 0.5 -14.5h-309c0 -42.667 10.5 -75.834 31.5 -99.501s50.167 -35.5 87.5 -35.5c28 0 51.833 7.16699 71.5 21.5s31.834 33.5 36.501 57.5h81c-6 -42.667 -25.333 -78.167 -58 -106.5s-76 -42.5 -130 -42.5zM108.999 236.001
h222.001c-0.666992 7.33301 -2.66699 17 -6 29s-8.83301 23.833 -16.5 35.5s-18.5 21.5 -32.5 29.5s-32 12 -54 12c-27.333 0 -48.833 -5.83301 -64.5 -17.5s-27.334 -25.667 -35.001 -42s-12.167 -31.833 -13.5 -46.5zM222 -160.999c-18.667 0 -31.167 4.5 -37.5 13.5
s-9.5 20.167 -9.5 33.5c0 12 3.16699 22.5 9.5 31.5s18.833 13.5 37.5 13.5s31 -4.5 37 -13.5s9 -19.5 9 -31.5c0 -13.333 -3 -24.5 -9 -33.5s-18.333 -13.5 -37 -13.5z" />
    <glyph glyph-name="uni1EBA" unicode="&#x1eba;" horiz-adv-x="490" 
d="M137 68h318v-68h-400v563h390v-72h-308v-171h240v-69h-240v-183zM217 619v13.001c3.33301 8.66699 10 16 20 22s19.5 12.667 28.5 20s13.5 16.666 13.5 27.999c0 10.667 -5 18.167 -15 22.5s-20.833 4.5 -32.5 0.5s-20.167 -12.333 -25.5 -25l-37 21
c6 20.667 17.5 36 34.5 46s35.333 14.5 55 13.5s36.667 -7.33301 51 -19s21.5 -28.5 21.5 -50.5c0 -18.667 -4.33301 -33 -13 -43s-17.667 -18.333 -27 -25s-15.333 -14.667 -18 -24h-56z" />
    <glyph glyph-name="uni1EBB" unicode="&#x1ebb;" horiz-adv-x="457" 
d="M226 -10c-46 0 -83.668 10.168 -113.001 30.501s-51 46.5 -65 78.5s-21 65.667 -21 101c-0.666992 39.333 6.83301 75 22.5 107s38.334 57.333 68.001 76s65.167 28 106.5 28c35.333 0 67.166 -7.83301 95.499 -23.5s50.833 -37.667 67.5 -66s25.667 -61.833 27 -100.5
c0 -2 0.166992 -5.83301 0.5 -11.5s0.5 -10.5 0.5 -14.5h-309c0 -42.667 10.5 -75.834 31.5 -99.501s50.167 -35.5 87.5 -35.5c28 0 51.833 7.16699 71.5 21.5s31.834 33.5 36.501 57.5h81c-6 -42.667 -25.333 -78.167 -58 -106.5s-76 -42.5 -130 -42.5zM108.999 236.001
h222.001c-0.666992 7.33301 -2.66699 17 -6 29s-8.83301 23.833 -16.5 35.5s-18.5 21.5 -32.5 29.5s-32 12 -54 12c-27.333 0 -48.833 -5.83301 -64.5 -17.5s-27.334 -25.667 -35.001 -42s-12.167 -31.833 -13.5 -46.5zM152 529.001v13.001c3.33301 8.66699 10 16 20 22
s19.5 12.667 28.5 20s13.5 16.666 13.5 27.999c0 10.667 -5 18.167 -15 22.5s-20.833 4.5 -32.5 0.5s-20.167 -12.333 -25.5 -25l-37 21c6 20.667 17.5 36 34.5 46s35.333 14.5 55 13.5s36.667 -7.33301 51 -19s21.5 -28.5 21.5 -50.5c0 -18.667 -4.33301 -33 -13 -43
s-17.667 -18.333 -27 -25s-15.333 -14.667 -18 -24h-56z" />
    <glyph glyph-name="uni1EBC" unicode="&#x1ebc;" horiz-adv-x="490" 
d="M137 68h318v-68h-400v563h390v-72h-308v-171h240v-69h-240v-183zM299 625c-16 0 -28.834 2.83301 -38.501 8.5s-17.667 12.167 -24 19.5s-12.5 13.833 -18.5 19.5s-13.333 8.5 -22 8.5c-11.333 0 -18.166 -4.66699 -20.499 -14s-3.16602 -22.333 -2.49902 -39h-52
c0 12 1 26 3 42s7.83301 30 17.5 42s26.167 18 49.5 18c16 0 28.833 -2.83301 38.5 -8.5s17.667 -12.167 24 -19.5s12.666 -13.666 18.999 -18.999s13.833 -8 22.5 -8c11.333 0 18 4.66699 20 14s3 22.666 3 39.999h51c0.666992 -16 -0.333008 -32 -3 -48
s-9 -29.333 -19 -40s-26 -16 -48 -16z" />
    <glyph glyph-name="uni1EBD" unicode="&#x1ebd;" horiz-adv-x="457" 
d="M226 -10c-46 0 -83.668 10.168 -113.001 30.501s-51 46.5 -65 78.5s-21 65.667 -21 101c-0.666992 39.333 6.83301 75 22.5 107s38.334 57.333 68.001 76s65.167 28 106.5 28c35.333 0 67.166 -7.83301 95.499 -23.5s50.833 -37.667 67.5 -66s25.667 -61.833 27 -100.5
c0 -2 0.166992 -5.83301 0.5 -11.5s0.5 -10.5 0.5 -14.5h-309c0 -42.667 10.5 -75.834 31.5 -99.501s50.167 -35.5 87.5 -35.5c28 0 51.833 7.16699 71.5 21.5s31.834 33.5 36.501 57.5h81c-6 -42.667 -25.333 -78.167 -58 -106.5s-76 -42.5 -130 -42.5zM108.999 236.001
h222.001c-0.666992 7.33301 -2.66699 17 -6 29s-8.83301 23.833 -16.5 35.5s-18.5 21.5 -32.5 29.5s-32 12 -54 12c-27.333 0 -48.833 -5.83301 -64.5 -17.5s-27.334 -25.667 -35.001 -42s-12.167 -31.833 -13.5 -46.5zM279 471.001c-16 0 -28.834 2.83301 -38.501 8.5
s-17.667 12.167 -24 19.5s-12.5 13.833 -18.5 19.5s-13.333 8.5 -22 8.5c-11.333 0 -18.166 -4.66699 -20.499 -14s-3.16602 -22.333 -2.49902 -39h-52c0 12 1 26 3 42s7.83301 30 17.5 42s26.167 18 49.5 18c16 0 28.833 -2.83301 38.5 -8.5s17.667 -12.167 24 -19.5
s12.666 -13.666 18.999 -18.999s13.833 -8 22.5 -8c11.333 0 18 4.66699 20 14s3 22.666 3 39.999h51c0.666992 -16 -0.333008 -32 -3 -48s-9 -29.333 -19 -40s-26 -16 -48 -16z" />
    <glyph glyph-name="uni1EBE" unicode="&#x1ebe;" horiz-adv-x="490" 
d="M137 68h318v-68h-400v563h390v-72h-308v-171h240v-69h-240v-183zM116 622v8l114 106h36l113 -106v-8h-75l-54 59h-4l-52 -59h-78zM386 713h-39v12l48 101h72v-16z" />
    </font>
</defs>
</svg>
