<svg width="17" height="34" viewBox="0 0 17 34" fill="none" xmlns="http://www.w3.org/2000/svg">
<path d="M16.6177 30.64V34H2.69766V30.64H8.03766V5.98C7.63766 7.22 7.07766 8.2 6.35766 8.92C5.67766 9.6 4.93766 10.12 4.13766 10.48C3.37766 10.8 2.67766 11.02 2.03766 11.14C1.43766 11.22 1.01766 11.26 0.777656 11.26V7.18C1.01766 7.22 1.51766 7.16 2.27766 7C3.07766 6.84 3.93766 6.52 4.85766 6.04C5.77766 5.56 6.57766 4.86 7.25766 3.94C7.93766 3.02 8.29766 1.78 8.33766 0.219999H11.8177V30.64H16.6177Z" fill="#F6F7FB"/>
</svg>
