<svg width="26" height="34" viewBox="0 0 26 34" fill="none" xmlns="http://www.w3.org/2000/svg">
<path d="M0.514375 34V30.82C0.554375 30.78 1.09438 30.42 2.13438 29.74C3.21438 29.02 4.55438 28.08 6.15437 26.92C7.79438 25.76 9.49438 24.44 11.2544 22.96C13.0544 21.48 14.6944 19.96 16.1744 18.4C17.6944 16.8 18.8344 15.26 19.5944 13.78C20.5544 11.78 20.8344 10 20.4344 8.44C20.0744 6.84 19.2144 5.58 17.8544 4.66C16.4944 3.7 14.7944 3.22 12.7544 3.22C10.3544 3.26 8.43438 4 6.99438 5.44C5.55438 6.84 4.87438 8.94 4.95438 11.74L1.41438 11.38C1.33438 9.02 1.77438 7 2.73438 5.32C3.69438 3.6 5.07438 2.3 6.87438 1.42C8.67438 0.499997 10.7544 0.0399973 13.1144 0.0399973C15.2744 0.0399973 17.1744 0.419997 18.8144 1.18C20.4944 1.94 21.8144 3 22.7744 4.36C23.7344 5.68 24.2544 7.22 24.3344 8.98C24.4544 10.7 24.0344 12.5 23.0744 14.38C22.3544 15.78 21.3144 17.22 19.9544 18.7C18.5944 20.18 17.0944 21.62 15.4544 23.02C13.8144 24.38 12.2144 25.62 10.6544 26.74C9.13438 27.82 7.81438 28.72 6.69438 29.44C5.61438 30.12 4.93438 30.52 4.65438 30.64H25.0544V34H0.514375Z" fill="#F6F7FB"/>
</svg>
