<svg width="26" height="36" viewBox="0 0 26 36" fill="none" xmlns="http://www.w3.org/2000/svg">
<path d="M13.2344 35.6C10.9944 35.6 8.87438 35.18 6.87438 34.34C4.87438 33.46 3.25438 32.16 2.01438 30.44C0.814375 28.72 0.194375 26.54 0.154375 23.9L3.81438 23.54C3.89438 25.5 4.39438 27.12 5.31438 28.4C6.23438 29.68 7.39438 30.64 8.79438 31.28C10.2344 31.88 11.7344 32.18 13.2944 32.18C14.9344 32.18 16.4144 31.9 17.7344 31.34C19.0544 30.78 20.1144 29.98 20.9144 28.94C21.7144 27.86 22.1144 26.62 22.1144 25.22C22.1144 23.5 21.6744 22.18 20.7944 21.26C19.9544 20.3 18.9544 19.64 17.7944 19.28C16.6744 18.92 15.6944 18.74 14.8544 18.74H10.0544V16.52H14.9144C16.9144 16.52 18.4944 16.04 19.6544 15.08C20.8144 14.12 21.3944 12.78 21.3944 11.06C21.3944 8.82 20.6344 7.06 19.1144 5.78C17.5944 4.5 15.5544 3.86 12.9944 3.86C10.9544 3.86 9.29438 4.3 8.01438 5.18C6.77438 6.06 5.85438 7.08 5.25438 8.24C4.69438 9.4 4.37438 10.44 4.29438 11.36L0.814375 10.94C0.854375 10.3 1.07438 9.42 1.47438 8.3C1.87438 7.14 2.53438 5.98 3.45438 4.82C4.37438 3.66 5.59438 2.68 7.11438 1.88C8.67438 1.04 10.6144 0.619999 12.9344 0.619999C16.6144 0.619999 19.5344 1.5 21.6944 3.26C23.8544 4.98 24.9344 7.34 24.9344 10.34C24.9344 12.34 24.3944 13.96 23.3144 15.2C22.2744 16.4 20.8344 17.24 18.9944 17.72C20.8744 18.12 22.4744 19.04 23.7944 20.48C25.1144 21.92 25.7744 23.7 25.7744 25.82C25.7744 27.82 25.2144 29.56 24.0944 31.04C23.0144 32.48 21.5344 33.6 19.6544 34.4C17.7744 35.2 15.6344 35.6 13.2344 35.6Z" fill="#F6F7FB"/>
</svg>
