<svg width="760" height="409" viewBox="0 0 760 409" fill="none" xmlns="http://www.w3.org/2000/svg">
<path d="M0 0H760V409H0V0Z" fill="#C4C4C4"/>
<path d="M260.992 211V182.85H266.542L275.692 209.55H275.792L284.792 182.85H290.342V211H287.092L287.242 184.5H287.142L278.042 211H273.292L264.192 184.5H264.092L264.242 211H260.992ZM295.248 211L305.148 182.85H310.448L320.498 211H317.098L314.048 202.2H301.698L298.648 211H295.248ZM307.898 184.25L302.598 199.5H313.148L307.898 184.25ZM328.699 211H325.499V182.85H336.199C339.299 182.85 341.665 183.6 343.299 185.1C344.932 186.6 345.749 188.833 345.749 191.8C345.749 194.567 344.899 196.7 343.199 198.2C341.532 199.7 339.199 200.45 336.199 200.45H328.699V211ZM335.849 185.6H328.699V197.95H335.849C338.049 197.95 339.749 197.45 340.949 196.45C342.182 195.417 342.799 193.867 342.799 191.8C342.799 189.667 342.199 188.1 340.999 187.1C339.832 186.1 338.115 185.6 335.849 185.6ZM362.677 201V198.55H373.777V201H362.677ZM394.861 188.45C394.128 188.45 393.628 188.267 393.361 187.9C393.128 187.5 393.011 187 393.011 186.4C393.011 185.9 393.128 185.467 393.361 185.1C393.628 184.7 394.128 184.5 394.861 184.5C395.594 184.5 396.078 184.7 396.311 185.1C396.578 185.467 396.711 185.9 396.711 186.4C396.711 187 396.578 187.5 396.311 187.9C396.078 188.267 395.594 188.45 394.861 188.45ZM393.261 211V190.65H396.461V211H393.261ZM402.149 211V190.65H404.899L405.099 195.7H405.199C405.266 195.467 405.416 195.083 405.649 194.55C405.882 193.983 406.249 193.4 406.749 192.8C407.249 192.2 407.899 191.7 408.699 191.3C409.499 190.867 410.516 190.65 411.749 190.65C413.616 190.65 414.982 191.167 415.849 192.2C416.749 193.233 417.349 194.4 417.649 195.7H417.749C417.849 195.467 418.032 195.083 418.299 194.55C418.566 193.983 418.966 193.4 419.499 192.8C420.032 192.2 420.716 191.7 421.549 191.3C422.416 190.867 423.466 190.65 424.699 190.65C425.999 190.65 427.066 190.917 427.899 191.45C428.732 191.95 429.366 192.633 429.799 193.5C430.266 194.333 430.599 195.217 430.799 196.15C430.999 197.083 431.116 197.983 431.149 198.85C431.182 199.717 431.199 200.417 431.199 200.95V211H428.399V200.95C428.399 200.417 428.366 199.733 428.299 198.9C428.232 198.067 428.066 197.25 427.799 196.45C427.532 195.617 427.066 194.933 426.399 194.4C425.766 193.833 424.849 193.55 423.649 193.55C422.316 193.55 421.249 193.917 420.449 194.65C419.649 195.383 419.066 196.35 418.699 197.55C418.332 198.717 418.149 199.983 418.149 201.35V211H415.349V200.95C415.349 200.417 415.316 199.733 415.249 198.9C415.182 198.067 415.016 197.25 414.749 196.45C414.482 195.617 414.016 194.933 413.349 194.4C412.716 193.833 411.799 193.55 410.599 193.55C409.266 193.55 408.199 193.917 407.399 194.65C406.599 195.383 406.016 196.35 405.649 197.55C405.282 198.717 405.099 199.983 405.099 201.35V211H402.149ZM443.307 211.45C441.44 211.45 439.907 211 438.707 210.1C437.507 209.167 436.607 207.917 436.007 206.35C435.44 204.783 435.157 203 435.157 201C435.157 197.933 435.824 195.417 437.157 193.45C438.524 191.45 440.574 190.45 443.307 190.45C444.707 190.45 445.874 190.7 446.807 191.2C447.774 191.667 448.54 192.25 449.107 192.95C449.707 193.65 450.14 194.317 450.407 194.95H450.457V190.65H453.757V211H451.007L450.507 207.05H450.407C450.107 207.717 449.674 208.4 449.107 209.1C448.54 209.767 447.774 210.333 446.807 210.8C445.874 211.233 444.707 211.45 443.307 211.45ZM444.557 208.6C446.624 208.6 448.107 207.917 449.007 206.55C449.94 205.183 450.407 203.35 450.407 201.05C450.407 198.583 449.924 196.7 448.957 195.4C448.024 194.1 446.557 193.45 444.557 193.45C442.357 193.45 440.774 194.183 439.807 195.65C438.874 197.083 438.407 198.867 438.407 201C438.407 203.233 438.89 205.067 439.857 206.5C440.824 207.9 442.39 208.6 444.557 208.6ZM463.495 219.4V216.35H473.645V206.5H473.545C473.478 206.667 473.295 207.017 472.995 207.55C472.728 208.083 472.295 208.65 471.695 209.25C471.128 209.85 470.378 210.383 469.445 210.85C468.545 211.283 467.445 211.5 466.145 211.5C464.178 211.5 462.528 211.05 461.195 210.15C459.895 209.217 458.911 207.967 458.245 206.4C457.578 204.833 457.245 203.067 457.245 201.1C457.245 198.033 457.995 195.533 459.495 193.6C461.028 191.633 463.261 190.65 466.195 190.65C467.561 190.65 468.695 190.883 469.595 191.35C470.528 191.783 471.261 192.317 471.795 192.95C472.361 193.583 472.778 194.167 473.045 194.7C473.311 195.233 473.478 195.583 473.545 195.75H473.645V190.65H476.945V214.5C476.945 216.1 476.645 217.317 476.045 218.15C475.445 218.983 474.361 219.4 472.795 219.4H463.495ZM466.845 208.65C468.845 208.65 470.461 207.983 471.695 206.65C472.928 205.283 473.545 203.433 473.545 201.1C473.545 198.8 472.961 196.983 471.795 195.65C470.628 194.283 469.078 193.6 467.145 193.6C465.545 193.6 464.245 193.967 463.245 194.7C462.278 195.4 461.561 196.317 461.095 197.45C460.628 198.583 460.395 199.8 460.395 201.1C460.395 202.367 460.595 203.583 460.995 204.75C461.428 205.883 462.111 206.817 463.045 207.55C464.011 208.283 465.278 208.65 466.845 208.65ZM491.45 211.5C489.216 211.5 487.366 211 485.9 210C484.466 208.967 483.4 207.65 482.7 206.05C482.033 204.417 481.7 202.733 481.7 201C481.7 199.1 482.066 197.367 482.8 195.8C483.566 194.2 484.666 192.933 486.1 192C487.566 191.067 489.316 190.6 491.35 190.6C493.95 190.6 496.116 191.45 497.85 193.15C499.583 194.817 500.516 197.067 500.65 199.9C500.683 200.033 500.7 200.233 500.7 200.5C500.7 200.733 500.7 200.95 500.7 201.15H484.8C484.8 203.517 485.366 205.383 486.5 206.75C487.666 208.083 489.3 208.75 491.4 208.75C492.966 208.75 494.3 208.35 495.4 207.55C496.533 206.75 497.233 205.667 497.5 204.3H500.65C500.316 206.367 499.333 208.083 497.7 209.45C496.066 210.817 493.983 211.5 491.45 211.5ZM484.9 199.4H497.4C497.4 198.7 497.2 197.867 496.8 196.9C496.433 195.933 495.8 195.1 494.9 194.4C494.033 193.667 492.833 193.3 491.3 193.3C489.9 193.3 488.75 193.6 487.85 194.2C486.95 194.8 486.266 195.567 485.8 196.5C485.333 197.433 485.033 198.4 484.9 199.4Z" fill="black"/>
</svg>
