<svg width="58" height="57" viewBox="0 0 58 57" fill="none" xmlns="http://www.w3.org/2000/svg" style="">
<path d="M53.5 7H56.5C56.7761 7 57 7.22386 57 7.5V50.5C57 50.7761 56.7761 51 56.5 51H52.5" stroke="#F6F7FB" class="pLzdNLlc_0"></path>
<path d="M29 7.37202C29 7.15121 29.1448 6.95655 29.3563 6.8931L48.5577 1.13269C48.8075 1.05776 49.0695 1.18715 49.1474 1.43602C49.775 3.4428 52.0563 12.4088 49 29C46.1615 44.409 47.2693 52.5831 47.7895 55.1225C47.8684 55.5075 47.5061 55.87 47.1259 55.77L29.3728 51.0981C29.1531 51.0403 29 50.8417 29 50.6146V7.37202Z" stroke="#F6F7FB" class="pLzdNLlc_1"></path>
<path d="M11.5 5.5L5.35474 4.57223C5.088 4.53196 4.83928 4.70614 4.79667 4.97252C4.43066 7.26068 3.00552 17.5484 4.87629 29C6.71776 40.2723 6.21063 50.4169 6.04331 52.9141C6.02259 53.2234 6.28216 53.4765 6.59102 53.4507L12 53" stroke="#F6F7FB" class="pLzdNLlc_2"></path>
<path d="M29 7.37609C29 7.15335 28.8527 6.95747 28.6387 6.8957L12.2512 2.16554C11.9522 2.07923 11.6494 2.2784 11.6207 2.5883C11.3582 5.42756 10.3342 18.046 11.6778 29.5C12.9893 40.6809 12.0448 51.492 11.7548 54.2986C11.7191 54.6437 12.035 54.9175 12.373 54.8395L28.6125 51.0895C28.8393 51.0371 29 50.8351 29 50.6023V7.37609Z" stroke="#F6F7FB" class="pLzdNLlc_3"></path>
<path d="M49.5 3L52.5109 2.15393C52.8013 2.07232 53.0951 2.25685 53.1337 2.55604C53.4916 5.33067 54.9319 18.002 53.0587 29.5C51.2224 40.7708 52.5702 51.6658 52.9612 54.3648C53.0082 54.6893 52.7391 54.9713 52.4125 54.9419L47.5 54.5" stroke="#F6F7FB" class="pLzdNLlc_4"></path>
<path d="M5 7H1.5C1.22386 7 1 7.22386 1 7.5V50.5C1 50.7761 1.22386 51 1.5 51H6" stroke="#F6F7FB" class="pLzdNLlc_5"></path>
<style data-made-with="vivus-instant">.pLzdNLlc_0{stroke-dasharray:52 54;stroke-dashoffset:53;animation:pLzdNLlc_draw 2000ms linear 0ms forwards;}.pLzdNLlc_1{stroke-dasharray:139 141;stroke-dashoffset:140;animation:pLzdNLlc_draw 2000ms linear 200ms forwards;}.pLzdNLlc_2{stroke-dasharray:62 64;stroke-dashoffset:63;animation:pLzdNLlc_draw 2000ms linear 400ms forwards;}.pLzdNLlc_3{stroke-dasharray:132 134;stroke-dashoffset:133;animation:pLzdNLlc_draw 2000ms linear 600ms forwards;}.pLzdNLlc_4{stroke-dasharray:62 64;stroke-dashoffset:63;animation:pLzdNLlc_draw 2000ms linear 800ms forwards;}.pLzdNLlc_5{stroke-dasharray:53 55;stroke-dashoffset:54;animation:pLzdNLlc_draw 2000ms linear 1000ms forwards;}@keyframes pLzdNLlc_draw{100%{stroke-dashoffset:0;}}@keyframes pLzdNLlc_fade{0%{stroke-opacity:1;}94.44444444444444%{stroke-opacity:1;}100%{stroke-opacity:0;}}</style></svg>
