<svg width="64" height="64" viewBox="0 0 64 64" fill="none" xmlns="http://www.w3.org/2000/svg">
<circle cx="32" cy="32" r="31.5" fill="#1D1D1D" stroke="#F6F7FB"/>
<path d="M47.0039 18.717H48.6171C48.8933 18.717 49.1171 18.9408 49.1171 19.217V44.783C49.1171 45.0592 48.8933 45.283 48.6171 45.283H46.4001" stroke="#F6F7FB"/>
<path d="M32.2114 19.089C32.2114 18.8682 32.3563 18.6735 32.5678 18.6101L43.8446 15.227C44.0944 15.1521 44.3553 15.2805 44.4281 15.5309C44.864 17.0282 46.0553 22.4 44.2869 32C42.6866 40.6871 43.1638 45.5657 43.4897 47.4222C43.5577 47.8093 43.1892 48.1719 42.809 48.0719L32.5842 45.3811C32.3645 45.3233 32.2114 45.1247 32.2114 44.8976V19.089Z" fill="#1D1D1D" stroke="#F6F7FB"/>
<path d="M21.6454 17.8113L18.1246 17.2798C17.8579 17.2395 17.6088 17.4176 17.5682 17.6843C17.3106 19.3789 16.5624 25.366 17.6462 32C18.7075 38.4969 18.4767 44.3733 18.3656 46.2052C18.3469 46.5145 18.6068 46.7689 18.9156 46.7432L21.9473 46.4906" stroke="#F6F7FB"/>
<path d="M32.2114 19.0931C32.2114 18.8703 32.0641 18.6745 31.8501 18.6127L22.3262 15.8637C22.0272 15.7773 21.7242 15.9814 21.6968 16.2914C21.5118 18.3863 20.9745 25.6676 21.7527 32.3019C22.5058 38.7218 22.027 44.9397 21.8276 46.9912C21.7941 47.3365 22.1099 47.6156 22.4479 47.5376L31.8239 45.3725C32.0508 45.3201 32.2114 45.1181 32.2114 44.8853V19.0931Z" fill="#1D1D1D" stroke="#F6F7FB"/>
<path d="M44.5887 16.3019L46.1895 15.852C46.4799 15.7704 46.774 15.9596 46.811 16.259C47.064 18.3101 47.8238 25.6329 46.7373 32.3019C45.6792 38.7963 46.3721 45.0841 46.6427 47.061C46.6872 47.3858 46.4177 47.6694 46.0911 47.64L43.3811 47.3962" stroke="#F6F7FB"/>
<path d="M17.7208 18.717H15.8057C15.5295 18.717 15.3057 18.9408 15.3057 19.217V44.783C15.3057 45.0592 15.5295 45.283 15.8057 45.283H18.3245" stroke="#F6F7FB"/>
</svg>
