<svg width="632" height="418" viewBox="0 0 632 418" fill="none" xmlns="http://www.w3.org/2000/svg">
<path d="M632 7.99999C632 3.58172 628.418 0 624 0H8C3.58173 0 0 3.58172 0 8V29.1692H632V7.99999Z" fill="#F4F4F4"/>
<circle cx="17.5012" cy="15.557" r="4.86154" fill="#4285F4"/>
<path d="M31.1143 11.9918C31.1143 11.2759 31.6947 10.6954 32.4107 10.6954H39.5409C40.2569 10.6954 40.8373 11.2759 40.8373 11.9918V19.1221C40.8373 19.8381 40.2569 20.4185 39.5409 20.4185H32.4107C31.6947 20.4185 31.1143 19.8381 31.1143 19.1221V11.9918Z" fill="#4285F4"/>
<path d="M53.7821 11.3639C54.2864 10.4726 55.5848 10.4726 56.0891 11.3639L60.1135 18.4768C60.6057 19.3467 59.969 20.4185 58.96 20.4185H50.9112C49.9022 20.4185 49.2655 19.3467 49.7577 18.4768L53.7821 11.3639Z" fill="#4285F4"/>
<path d="M632 29H0V418H632V29Z" fill="#FAD882"/>
<g clip-path="url(#clip0)">
<path d="M69.7942 66.814H290.063C293.838 66.814 296.898 69.711 296.898 73.2846V222.828C296.898 226.401 293.838 229.299 290.063 229.299H69.7942C66.0191 229.299 62.9588 226.401 62.9588 222.828V73.2846C62.9588 69.711 66.0191 66.814 69.7942 66.814Z" fill="#E4EBF7"/>
<path fill-rule="evenodd" clip-rule="evenodd" d="M226.291 211.735V99.2534C226.291 98.0307 225.244 97.0396 223.952 97.0396H79.9159C78.6243 97.0396 77.5773 98.0307 77.5773 99.2534V212.15C77.5773 213.144 78.4504 213.949 79.5274 213.949H223.952C225.244 213.949 226.291 212.958 226.291 211.735Z" fill="white"/>
<path fill-rule="evenodd" clip-rule="evenodd" d="M196.618 119.488H205.13C205.788 119.488 206.322 118.995 206.322 118.388C206.322 117.78 205.788 117.288 205.13 117.288H196.618C195.96 117.288 195.426 117.78 195.426 118.388C195.426 118.995 195.96 119.488 196.618 119.488Z" fill="white"/>
<path fill-rule="evenodd" clip-rule="evenodd" d="M196.48 124.765H204.992C205.651 124.765 206.185 124.273 206.185 123.665C206.185 123.058 205.651 122.566 204.992 122.566H196.48C195.822 122.566 195.288 123.058 195.288 123.665C195.288 124.273 195.822 124.765 196.48 124.765Z" fill="white"/>
<path d="M92.0194 195.405C91.5351 195.405 91.1424 195.777 91.1424 196.236C91.1424 196.679 91.5093 197.041 91.9713 197.065L92.0194 197.066H212.268C212.752 197.066 213.145 196.694 213.145 196.236C213.145 195.792 212.778 195.43 212.316 195.407L212.268 195.405H92.0194Z" fill="#E4E6EF"/>
<path d="M111.237 203.002C110.753 203.002 110.36 203.373 110.36 203.832C110.36 204.275 110.727 204.637 111.189 204.661L111.237 204.662H212.268C212.752 204.662 213.145 204.29 213.145 203.832C213.145 203.389 212.778 203.027 212.316 203.003L212.268 203.002H111.237Z" fill="#E4E6EF"/>
<path d="M290.632 59.493H69.3425C65.8818 59.493 63.0763 62.0904 63.0763 65.2943V82.5822H296.898V65.2943C296.898 62.0904 294.093 59.493 290.632 59.493Z" fill="#253369"/>
<path d="M283.725 75.0953C281.255 75.0953 279.252 73.2415 279.252 70.9546C279.252 68.6678 281.255 66.814 283.725 66.814C286.195 66.814 288.197 68.6678 288.197 70.9546C288.197 73.2415 286.195 75.0953 283.725 75.0953Z" fill="#FF7946"/>
<path d="M266.324 75.0953C263.854 75.0953 261.852 73.2415 261.852 70.9546C261.852 68.6678 263.854 66.814 266.324 66.814C268.794 66.814 270.797 68.6678 270.797 70.9546C270.797 73.2415 268.794 75.0953 266.324 75.0953Z" fill="#FFC53D"/>
<path d="M249.891 75.0953C247.421 75.0953 245.418 73.2415 245.418 70.9546C245.418 68.6678 247.421 66.814 249.891 66.814C252.361 66.814 254.363 68.6678 254.363 70.9546C254.363 73.2415 252.361 75.0953 249.891 75.0953Z" fill="#BAE637"/>
<path d="M217.652 153.177L220.529 151.173L217.652 149.174L214.775 151.173L217.652 153.177Z" fill="white"/>
<path fill-rule="evenodd" clip-rule="evenodd" d="M130.136 182.981C130.136 184.421 131.385 185.6 132.912 185.6H150.113C151.64 185.6 152.89 184.421 152.89 182.981V118.346C152.89 116.905 151.64 115.727 150.113 115.727H132.912C131.385 115.727 130.136 116.905 130.136 118.346V182.981Z" fill="#FF7946"/>
<path fill-rule="evenodd" clip-rule="evenodd" d="M207.055 111.058C207.916 111.058 208.614 110.382 208.614 109.549C208.614 108.715 207.916 108.04 207.055 108.04H178.469C177.608 108.04 176.91 108.715 176.91 109.549C176.91 110.382 177.608 111.058 178.469 111.058H207.055Z" fill="#CCD7EE"/>
<path fill-rule="evenodd" clip-rule="evenodd" d="M206.698 117.968C207.559 117.968 208.257 117.293 208.257 116.459C208.257 115.626 207.559 114.95 206.698 114.95H195.572C194.711 114.95 194.013 115.626 194.013 116.459C194.013 117.293 194.711 117.968 195.572 117.968H206.698Z" fill="#CCD7EE"/>
<path fill-rule="evenodd" clip-rule="evenodd" d="M184.954 182.925C184.954 184.365 186.204 185.544 187.731 185.544H204.931C206.458 185.544 207.707 184.365 207.707 182.925V157.425C207.707 155.985 206.458 154.807 204.931 154.807H187.731C186.204 154.807 184.954 155.985 184.954 157.425V182.925Z" fill="#AAC2FE"/>
<path fill-rule="evenodd" clip-rule="evenodd" d="M157.546 182.948C157.546 184.388 158.795 185.567 160.322 185.567H177.522C179.049 185.567 180.299 184.388 180.299 182.948V136.283C180.299 134.844 179.049 133.666 177.522 133.666H160.322C158.795 133.666 157.546 134.844 157.546 136.283V182.948Z" fill="#597EF7"/>
<path fill-rule="evenodd" clip-rule="evenodd" d="M102.728 182.948C102.728 184.388 103.977 185.567 105.504 185.567H122.704C124.231 185.567 125.48 184.388 125.48 182.948V136.283C125.48 134.844 124.231 133.666 122.704 133.666H105.504C103.977 133.666 102.728 134.844 102.728 136.283V182.948Z" fill="#FFC53D"/>
<path d="M237.629 97.0127H278.833C280.268 97.0127 281.432 98.114 281.432 99.4725V211.687C281.432 213.046 280.268 214.147 278.833 214.147H237.629C236.194 214.147 235.03 213.046 235.03 211.687V99.4725C235.03 98.114 236.194 97.0127 237.629 97.0127Z" fill="#597EF7"/>
<path d="M246.483 143.683H270.288C271.103 143.683 271.764 144.309 271.764 145.081V148.536C271.764 149.308 271.103 149.934 270.288 149.934H246.483C245.668 149.934 245.007 149.308 245.007 148.536V145.081C245.007 144.309 245.668 143.683 246.483 143.683Z" fill="white"/>
<path d="M246.461 155.58H270.31C271.113 155.58 271.764 156.196 271.764 156.956V160.265C271.764 161.025 271.113 161.641 270.31 161.641H246.461C245.658 161.641 245.007 161.025 245.007 160.265V156.956C245.007 156.196 245.658 155.58 246.461 155.58Z" fill="#AAC2FE"/>
<path d="M246.461 167.476H270.31C271.113 167.476 271.764 168.092 271.764 168.852V172.161C271.764 172.921 271.113 173.537 270.31 173.537H246.461C245.658 173.537 245.007 172.921 245.007 172.161V168.852C245.007 168.092 245.658 167.476 246.461 167.476Z" fill="#FF7946"/>
<path d="M246.461 179.373H270.31C271.113 179.373 271.764 179.989 271.764 180.749V184.058C271.764 184.818 271.113 185.434 270.31 185.434H246.461C245.658 185.434 245.007 184.818 245.007 184.058V180.749C245.007 179.989 245.658 179.373 246.461 179.373Z" fill="#FFC53D"/>
<path d="M257.878 130.88C251.277 130.88 245.926 125.757 245.926 119.437C245.926 113.117 251.277 107.994 257.878 107.994C264.479 107.994 269.83 113.117 269.83 119.437C269.83 125.757 264.479 130.88 257.878 130.88Z" fill="white"/>
<path d="M257.997 130.862C254.552 130.863 251.282 129.406 249.066 126.882C250.812 123.708 254.251 121.721 257.998 121.721C261.745 121.721 265.184 123.708 266.931 126.882C264.713 129.407 261.443 130.864 257.997 130.862Z" fill="#253369"/>
<path d="M258.568 122.092C256.086 122.092 254.073 120.165 254.073 117.788C254.073 115.412 256.086 113.485 258.568 113.485C261.051 113.485 263.063 115.412 263.063 117.788C263.063 120.165 261.051 122.092 258.568 122.092Z" fill="#253369"/>
<path fill-rule="evenodd" clip-rule="evenodd" d="M194.143 569.43C182.516 560.102 180.666 543.778 189.938 532.327L281.16 419.672C293.655 404.241 317.248 401.844 332.916 414.416C348.585 426.985 349.959 449.409 335.928 463.608L233.497 567.272C223.085 577.809 205.771 578.759 194.143 569.43Z" fill="#4E5C93"/>
<path fill-rule="evenodd" clip-rule="evenodd" d="M400.404 365.837C400.404 365.837 458.074 255.701 452.559 245.257C447.042 234.813 406.327 211.332 344.783 215.342C282.973 219.37 261.36 243.139 261.36 243.139C261.36 243.139 277.251 312.944 290.58 358.241C283.559 370.11 296.321 378.534 296.321 378.534C296.321 378.534 376.431 375.029 395.487 375.977C404.386 372.366 400.404 365.837 400.404 365.837Z" fill="#597EF7"/>
<path fill-rule="evenodd" clip-rule="evenodd" d="M267.027 444.841L328.007 472.501L400.188 468.894C400.188 468.894 416.937 425.599 397.156 387.711C394.612 381.093 393.579 376.128 393.579 376.128C393.579 376.128 330.648 367.102 296.321 378.535L295.049 389.367C295.049 389.367 287.072 405.378 282.272 415.978C274.65 432.814 267.027 444.841 267.027 444.841Z" fill="#4E5C93"/>
<path fill-rule="evenodd" clip-rule="evenodd" d="M387.858 207.034L384.685 154.629H332.243L332.292 211.245L347.334 238.326L387.858 207.034Z" fill="#FFC2BD"/>
<path d="M346.621 184.988C346.31 184.986 346.056 185.224 346.055 185.519C346.054 185.784 346.257 186.005 346.525 186.048L346.616 186.055L351.971 186.078C352.282 186.079 352.536 185.842 352.537 185.547C352.538 185.281 352.335 185.06 352.067 185.018L351.976 185.01L346.621 184.988Z" fill="#965C56"/>
<path fill-rule="evenodd" clip-rule="evenodd" d="M369.113 125.843C369.113 125.843 340.32 117.157 331.657 129.676C323.233 141.851 320.138 187.246 334.982 194.926C347.082 201.185 372.581 199.838 379.847 178.21C379.847 178.21 385.875 161.641 384.817 146.522C383.759 131.403 369.113 125.843 369.113 125.843Z" fill="#FFC2BD"/>
<path fill-rule="evenodd" clip-rule="evenodd" d="M380.593 164.99C380.593 164.99 389.341 150.969 394.931 159.086C400.521 167.203 389.551 181.11 380.698 180.061C371.846 179.011 380.593 164.99 380.593 164.99Z" fill="#FFC2BD"/>
<path fill-rule="evenodd" clip-rule="evenodd" d="M325.106 155.559C325.106 155.559 322.28 137.94 327.332 127.348C332.386 116.757 338.709 106.23 342.512 112.145C343.3 109.474 347.414 104.258 350.371 102.6C353.329 100.942 361.556 113.108 361.556 113.108C361.556 113.108 361.225 107.668 364.531 111.149C367.836 114.63 388.525 125.92 391.712 131.504C394.898 137.088 391.923 156.876 391.923 156.876C391.923 156.876 385.132 155.931 380.788 168.065C382.298 158.199 378.231 152.796 376.105 150.711C375.297 149.921 374.87 148.856 374.844 147.758C374.793 145.65 374.741 142.11 374.843 138.662C374.888 137.141 373.786 135.827 372.22 135.488C356.277 132.037 338.455 133.516 332.096 134.225C330.658 134.386 329.507 135.414 329.239 136.761L327.018 147.949C327.018 147.949 326.063 149.882 325.106 155.559Z" fill="#253368"/>
<path d="M362.655 152.045L362.518 152.054L352.129 153.236C351.433 153.315 350.936 153.914 351.02 154.573C351.098 155.191 351.659 155.643 352.303 155.632L352.433 155.623L362.543 154.472L367.571 156.013C368.196 156.205 368.865 155.913 369.124 155.355L369.17 155.24C369.373 154.647 369.064 154.014 368.475 153.769L368.353 153.725L363.06 152.104C362.929 152.064 362.792 152.044 362.655 152.045Z" fill="#253368"/>
<path d="M331.83 150.894C331.657 150.841 331.475 150.824 331.296 150.843L331.162 150.864L327.136 151.716C326.451 151.86 326.02 152.503 326.173 153.151C326.316 153.759 326.922 154.155 327.561 154.083L327.69 154.062L331.378 153.282L341.06 156.248C341.686 156.44 342.354 156.148 342.613 155.59L342.66 155.475C342.862 154.882 342.553 154.249 341.964 154.004L341.842 153.96L331.83 150.894Z" fill="#253368"/>
<path fill-rule="evenodd" clip-rule="evenodd" d="M379.79 170.75C379.79 170.75 371.246 176.396 366.605 182.489C361.049 175.203 354.948 171.882 354.948 171.882C354.948 171.882 347.473 176.574 343.754 174.805C342.64 173.392 342.847 172.024 342.847 172.024C342.847 172.024 336.293 173.953 331.414 180.034C329.764 175.431 324.727 169.325 324.727 169.325C324.727 169.325 321.928 198.689 344.754 200.293C367.844 201.459 376.221 189.754 379.413 179.747C380.197 176.599 381.583 168.581 379.79 170.75Z" fill="#EFADAB"/>
<path d="M358.281 179.014C358.15 178.641 357.724 178.439 357.33 178.564L356.955 178.675C356.829 178.71 356.68 178.751 356.509 178.797C355.839 178.975 355.083 179.154 354.258 179.321C351.079 179.964 347.843 180.251 344.841 179.986C343.233 179.844 341.746 179.544 340.406 179.072C340.017 178.934 339.584 179.122 339.439 179.491C339.294 179.859 339.492 180.269 339.882 180.406C341.353 180.924 342.968 181.25 344.701 181.403C347.875 181.684 351.257 181.384 354.572 180.713C355.429 180.54 356.216 180.354 356.916 180.167L357.52 180C357.64 179.966 357.735 179.937 357.806 179.914C358.2 179.79 358.413 179.387 358.281 179.014Z" fill="#D18682"/>
<path d="M344.083 155.392C343.765 155.403 343.51 155.635 343.476 155.926L343.472 156.015L343.599 159.244L343.221 160.605C342.919 161.726 342.616 162.916 342.334 164.124C342.098 165.129 341.888 166.104 341.707 167.034L341.568 167.768C340.823 171.84 340.78 174.393 341.835 175.259C342.873 176.111 344.828 175.912 347.563 175.031C348.26 174.806 348.991 174.54 349.743 174.242C350.587 173.907 351.414 173.549 352.191 173.191L352.926 172.844C353.057 172.781 353.15 172.735 353.199 172.71C353.509 172.555 353.627 172.191 353.463 171.898C353.299 171.605 352.915 171.493 352.605 171.648L352.349 171.774C352.139 171.875 351.9 171.988 351.635 172.11C350.878 172.459 350.072 172.808 349.253 173.133C348.525 173.422 347.821 173.678 347.154 173.893C344.866 174.63 343.212 174.799 342.666 174.351C342.089 173.877 342.2 171.136 342.955 167.251C343.133 166.337 343.341 165.376 343.573 164.384C343.796 163.428 344.033 162.483 344.272 161.575L344.528 160.618L344.849 159.473L344.872 159.29L344.741 155.97C344.728 155.638 344.433 155.38 344.083 155.392Z" fill="#D18682"/>
<path d="M357.621 161.996C357.206 161.975 356.852 162.276 356.83 162.669C356.713 164.763 357.949 166.603 359.743 166.692C361.538 166.783 362.974 165.08 363.094 162.985C363.116 162.593 362.798 162.257 362.383 162.236C361.968 162.215 361.614 162.516 361.592 162.909C361.512 164.301 360.659 165.313 359.822 165.27C358.988 165.229 358.254 164.136 358.332 162.744C358.354 162.352 358.036 162.016 357.621 161.996Z" fill="#253368"/>
<path d="M332.627 160.734C332.212 160.713 331.858 161.014 331.836 161.407C331.718 163.5 332.954 165.339 334.748 165.43C336.544 165.521 337.98 163.818 338.099 161.722C338.122 161.329 337.804 160.994 337.389 160.973C336.974 160.952 336.62 161.253 336.598 161.645C336.518 163.039 335.665 164.051 334.829 164.008C333.994 163.966 333.26 162.874 333.338 161.482C333.36 161.09 333.041 160.755 332.627 160.734Z" fill="#253368"/>
<path d="M356.993 176.295C356.716 176.003 356.24 175.979 355.931 176.242C355.65 176.48 355.604 176.874 355.806 177.164L355.874 177.247L359.78 181.362C360.058 181.654 360.533 181.678 360.842 181.415C361.123 181.176 361.17 180.783 360.967 180.493L360.899 180.41L356.993 176.295Z" fill="#D18682"/>
<path d="M379.338 180.07C379.008 179.958 378.645 180.121 378.526 180.433L378.425 180.684C378.364 180.826 378.283 181.01 378.181 181.23C377.88 181.88 377.505 182.605 377.054 183.388C375.762 185.627 374.113 187.868 372.077 189.957C364.545 197.69 353.965 201.329 339.769 198.617C339.425 198.551 339.09 198.762 339.021 199.087C338.952 199.412 339.174 199.729 339.518 199.795C354.167 202.594 365.188 198.803 373.011 190.772C375.121 188.605 376.828 186.285 378.168 183.964C378.559 183.286 378.896 182.648 379.179 182.06L379.343 181.713C379.427 181.534 379.5 181.369 379.565 181.219L379.721 180.838C379.84 180.526 379.668 180.182 379.338 180.07Z" fill="#D18682"/>
<path d="M392.94 163.427C392.705 162.024 391.569 161.338 389.66 161.926C386.742 162.821 386.219 164.741 386.868 168.293L386.972 168.825C387.41 170.967 386.572 172.119 384.476 172.407C384.129 172.455 383.889 172.76 383.939 173.088C383.989 173.416 384.311 173.644 384.658 173.596C387.402 173.22 388.719 171.503 388.261 168.828L388.115 168.068C387.569 165.081 387.958 163.711 390.051 163.069C391.209 162.713 391.572 162.932 391.686 163.615C391.729 163.871 391.722 164.16 391.683 164.435L391.66 164.575C391.658 164.586 391.657 164.594 391.655 164.6C391.581 164.924 391.798 165.245 392.14 165.315C392.483 165.386 392.821 165.18 392.895 164.856L392.917 164.748C392.925 164.704 392.934 164.652 392.942 164.594C392.995 164.213 393.005 163.814 392.94 163.427Z" fill="#D18682"/>
<path fill-rule="evenodd" clip-rule="evenodd" d="M354.934 184.16C354.97 184.469 355.265 184.692 355.591 184.658C355.919 184.624 356.155 184.343 356.119 184.034C356.082 183.725 355.787 183.502 355.461 183.538C355.133 183.57 354.898 183.851 354.934 184.16Z" fill="#D18682"/>
<path fill-rule="evenodd" clip-rule="evenodd" d="M363.749 186.731C363.785 187.04 364.08 187.264 364.407 187.23C364.734 187.196 364.97 186.915 364.934 186.606C364.896 186.297 364.601 186.074 364.275 186.109C363.947 186.142 363.713 186.422 363.749 186.731Z" fill="#D18682"/>
<path fill-rule="evenodd" clip-rule="evenodd" d="M334.863 187.119C334.732 187.405 334.871 187.737 335.173 187.861C335.475 187.985 335.826 187.854 335.957 187.568C336.087 187.283 335.949 186.95 335.647 186.826C335.346 186.702 334.994 186.833 334.863 187.119Z" fill="#D18682"/>
<path fill-rule="evenodd" clip-rule="evenodd" d="M329.431 184.144C329.3 184.43 329.438 184.762 329.74 184.885C330.043 185.009 330.393 184.878 330.524 184.592C330.655 184.307 330.516 183.974 330.214 183.85C329.913 183.727 329.561 183.858 329.431 184.144Z" fill="#D18682"/>
<path fill-rule="evenodd" clip-rule="evenodd" d="M339.618 189.005C339.487 189.291 339.626 189.622 339.928 189.746C340.229 189.87 340.581 189.739 340.711 189.453C340.842 189.168 340.704 188.835 340.402 188.711C340.099 188.587 339.749 188.718 339.618 189.005Z" fill="#D18682"/>
<path fill-rule="evenodd" clip-rule="evenodd" d="M346.636 188.063C346.505 188.349 346.643 188.681 346.945 188.805C347.246 188.929 347.598 188.798 347.729 188.512C347.86 188.227 347.721 187.894 347.419 187.77C347.117 187.646 346.766 187.777 346.636 188.063Z" fill="#D18682"/>
<path fill-rule="evenodd" clip-rule="evenodd" d="M370.812 184.764C370.681 185.051 370.82 185.382 371.122 185.506C371.423 185.63 371.775 185.501 371.906 185.213C372.037 184.928 371.898 184.595 371.596 184.471C371.294 184.349 370.943 184.478 370.812 184.764Z" fill="#D18682"/>
<path fill-rule="evenodd" clip-rule="evenodd" d="M358.978 192.293C359.014 192.603 359.309 192.827 359.635 192.791C359.963 192.757 360.199 192.478 360.163 192.169C360.126 191.859 359.831 191.635 359.505 191.671C359.177 191.705 358.942 191.984 358.978 192.293Z" fill="#D18682"/>
<path fill-rule="evenodd" clip-rule="evenodd" d="M354.411 191.186C354.447 191.496 354.742 191.719 355.068 191.684C355.396 191.65 355.632 191.371 355.596 191.061C355.558 190.752 355.264 190.528 354.937 190.564C354.609 190.597 354.375 190.877 354.411 191.186Z" fill="#D18682"/>
<path fill-rule="evenodd" clip-rule="evenodd" d="M335.677 191.761C335.713 192.071 336.008 192.295 336.335 192.259C336.663 192.225 336.899 191.946 336.863 191.637C336.825 191.327 336.53 191.103 336.204 191.139C335.876 191.173 335.641 191.452 335.677 191.761Z" fill="#D18682"/>
<path fill-rule="evenodd" clip-rule="evenodd" d="M339.007 185.255C339.043 185.566 339.337 185.788 339.664 185.754C339.992 185.719 340.228 185.44 340.192 185.13C340.154 184.821 339.859 184.598 339.533 184.633C339.205 184.666 338.97 184.946 339.007 185.255Z" fill="#D18682"/>
<path fill-rule="evenodd" clip-rule="evenodd" d="M337.181 179.514C337.217 179.824 337.512 180.046 337.839 180.012C338.166 179.978 338.403 179.699 338.366 179.388C338.329 179.079 338.034 178.856 337.708 178.891C337.38 178.924 337.145 179.205 337.181 179.514Z" fill="#D18682"/>
<path fill-rule="evenodd" clip-rule="evenodd" d="M364.136 190.273C364.172 190.582 364.467 190.805 364.795 190.771C365.122 190.737 365.358 190.456 365.322 190.147C365.284 189.837 364.989 189.615 364.663 189.649C364.335 189.683 364.1 189.962 364.136 190.273Z" fill="#D18682"/>
<path fill-rule="evenodd" clip-rule="evenodd" d="M326.833 219.069L329.216 209.893L339.92 210.794L346.33 234.109L360.524 208.441L392.197 205.38L396.653 219.821C396.653 219.821 376.023 246.357 342.566 241.485C326.039 239.078 326.833 219.069 326.833 219.069Z" fill="#597EF7"/>
<path fill-rule="evenodd" clip-rule="evenodd" d="M298.653 234.823C298.653 234.823 270.242 268.495 274.336 307.546C248.138 321.999 234.286 323.851 224.559 328.384C214.834 332.916 186.217 323.075 191.117 300.009C195.513 279.321 251.728 254.362 259.913 247.252C272.131 236.641 293.09 233.231 298.653 234.823Z" fill="#FFC2BD"/>
<path fill-rule="evenodd" clip-rule="evenodd" d="M227.019 266.356C242.219 252.91 256.548 246.734 260.809 243.033C273.027 232.421 294.066 232.334 299.629 233.926C299.629 233.926 279.242 265.288 283.334 304.34C272.072 310.338 260.105 314.336 252.362 317.001C252.362 317.001 254.234 312.064 248.137 294.345C240.751 272.877 227.019 266.356 227.019 266.356Z" fill="#597EF7"/>
<path d="M277.308 255.493C276.996 255.432 276.691 255.622 276.626 255.917L276.539 256.345C276.47 256.694 276.394 257.107 276.313 257.581L276.157 258.516C275.976 259.646 275.798 260.912 275.629 262.306C273.114 283.024 274.768 307.719 283.695 333.572C283.794 333.859 284.12 334.015 284.423 333.922C284.725 333.828 284.891 333.52 284.792 333.233C275.921 307.545 274.278 283.003 276.775 262.43C276.966 260.853 277.17 259.443 277.374 258.211L277.451 257.757C277.515 257.384 277.576 257.05 277.632 256.757L277.756 256.138C277.82 255.843 277.62 255.554 277.308 255.493Z" fill="#1D39C4"/>
<path fill-rule="evenodd" clip-rule="evenodd" d="M294.891 389.517C343.282 383.649 397.394 387.011 397.394 387.011L395.486 374.149C395.486 374.149 333.985 366.702 296.004 376.33C295.13 382.498 294.891 389.517 294.891 389.517Z" fill="#253368"/>
<path d="M341.732 387.406C341.29 387.26 340.808 387.481 340.654 387.899L340.295 388.92C340.199 389.2 340.095 389.507 339.983 389.842L339.688 390.736C339.287 391.965 338.856 393.342 338.4 394.862L338.228 395.438C336.414 401.543 334.601 408.583 332.91 416.462C329.206 433.714 326.617 452.441 325.623 472.267L325.541 474.001L299.769 452.656C299.447 452.388 298.97 452.395 298.656 452.654L298.574 452.731C298.292 453.037 298.299 453.488 298.573 453.785L298.654 453.862L325.757 476.311C326.293 476.755 327.133 476.412 327.16 475.738C328.013 454.738 330.671 434.937 334.569 416.782C336.176 409.298 337.892 402.578 339.612 396.705L339.858 395.872C340.374 394.136 340.859 392.58 341.306 391.21L341.598 390.324C341.782 389.775 341.944 389.3 342.084 388.901L342.254 388.426C342.407 388.008 342.174 387.551 341.732 387.406Z" fill="#253368"/>
<path d="M323.23 387.988C322.777 387.878 322.315 388.137 322.199 388.565L321.755 390.234L321.048 392.944C320.899 393.525 320.744 394.128 320.585 394.752C319.376 399.505 318.166 404.491 317.037 409.471C316.468 411.983 315.933 414.433 315.438 416.804L315.194 417.982C311.645 435.274 310.672 445.787 313.513 447.879C314.807 448.832 316.284 449.767 317.908 450.679C320.052 451.883 322.344 452.989 324.636 453.973C325.277 454.249 325.882 454.499 326.441 454.723L327.429 455.108C327.543 455.151 327.635 455.186 327.703 455.21C328.139 455.369 328.629 455.163 328.797 454.749C328.965 454.336 328.747 453.872 328.31 453.714L327.5 453.404C326.848 453.148 326.12 452.85 325.336 452.514C323.097 451.551 320.858 450.471 318.772 449.3C317.205 448.42 315.786 447.522 314.553 446.614C312.584 445.164 313.542 434.567 316.75 418.809L316.857 418.288C317.415 415.565 318.031 412.729 318.693 409.807C319.678 405.463 320.725 401.112 321.779 396.916L322.543 393.911L323.47 390.349L323.839 388.964C323.956 388.535 323.683 388.098 323.23 387.988Z" fill="#253368"/>
<path fill-rule="evenodd" clip-rule="evenodd" d="M353.85 385.378V372.53C353.85 370.853 352.497 369.478 350.786 369.429C345.11 369.268 332.495 369.126 321.053 370.498C319.457 370.691 318.252 372.008 318.252 373.582V385.663C318.252 387.39 319.683 388.785 321.447 388.764C327.934 388.688 342.709 388.522 350.711 388.481C352.452 388.471 353.85 387.085 353.85 385.378Z" fill="#E1E7F3"/>
<path fill-rule="evenodd" clip-rule="evenodd" d="M350.178 383.161L350.175 374.656C350.175 373.547 349.071 372.637 347.674 372.604C343.043 372.5 332.752 372.409 323.417 373.322C322.114 373.45 321.132 374.322 321.132 375.365L321.135 383.361C321.137 384.504 322.304 385.426 323.743 385.412C329.034 385.36 341.09 385.246 347.618 385.214C349.039 385.209 350.178 384.29 350.178 383.161Z" fill="#253368"/>
<path fill-rule="evenodd" clip-rule="evenodd" d="M321.232 371.68L351.282 384.376L350.041 386.961L319.741 374.031L321.232 371.68Z" fill="#E1E7F3"/>
<path fill-rule="evenodd" clip-rule="evenodd" d="M319.941 383.969L350.062 371.421L351.252 374.03L320.78 386.593L319.941 383.969Z" fill="#E1E7F3"/>
<path d="M378.68 385.122C378.22 385.198 377.911 385.613 377.991 386.049L378.055 386.374L378.193 387.023L378.248 387.268C378.465 388.226 378.734 389.293 379.06 390.441C379.989 393.723 381.18 397.005 382.66 400.075C386.951 408.974 392.78 414.374 400.422 414.374C400.889 414.374 401.269 414.015 401.269 413.573C401.269 413.13 400.889 412.771 400.422 412.771C393.613 412.771 388.246 407.799 384.201 399.409C382.763 396.428 381.602 393.228 380.695 390.026C380.378 388.905 380.115 387.865 379.904 386.932L379.758 386.264L379.66 385.774C379.586 385.372 379.207 385.092 378.786 385.111L378.68 385.122Z" fill="#253368"/>
<path d="M394.121 220.086C394.023 219.831 393.746 219.687 393.473 219.736L393.382 219.76L372.406 226.981C372.106 227.084 371.952 227.397 372.061 227.681C372.159 227.936 372.436 228.08 372.709 228.031L372.8 228.007L393.776 220.786C394.076 220.683 394.23 220.37 394.121 220.086Z" fill="#1D39C4"/>
<path d="M346.492 233.583C346.186 233.499 345.866 233.666 345.777 233.956L345.585 234.608L345.295 235.643C345.227 235.892 345.156 236.153 345.084 236.427C344.565 238.377 344.047 240.535 343.563 242.839C342.421 248.277 341.649 253.664 341.419 258.705C341.266 262.06 341.36 265.167 341.731 267.977C341.771 268.277 342.059 268.489 342.375 268.451C342.691 268.414 342.915 268.141 342.876 267.842C342.513 265.097 342.421 262.05 342.572 258.752C342.799 253.774 343.563 248.44 344.694 243.052C345.121 241.021 345.574 239.104 346.031 237.345L346.202 236.693C346.31 236.287 346.413 235.908 346.511 235.558L346.885 234.26C346.974 233.97 346.798 233.667 346.492 233.583Z" fill="#1D39C4"/>
<path fill-rule="evenodd" clip-rule="evenodd" d="M261.625 277.044C280.765 294.959 323.769 338.798 354.044 358.8C354.044 358.8 386.138 378.903 404.803 352.128C423.002 326.021 389.173 306.994 389.173 306.994C351.804 284.931 307.184 260.264 286.793 247.281C286.793 247.281 275.504 240.827 264.114 252.055C250.597 265.379 261.625 277.044 261.625 277.044Z" fill="#FFC2BD"/>
<path fill-rule="evenodd" clip-rule="evenodd" d="M391.715 248.412C397.691 239.733 415.575 217.297 439.928 233.315C456.388 244.141 459.992 264.22 454.399 277.688C445.86 298.244 425.947 326.521 407.792 349.374C407.792 349.374 388.122 375.995 361.107 357.986C338.246 342.745 352.647 319.517 352.647 319.517C352.647 319.517 384.886 258.332 391.715 248.412Z" fill="#FFC2BD"/>
<mask id="mask0" mask-type="alpha" maskUnits="userSpaceOnUse" x="368" y="227" width="90" height="96">
<path d="M457.264 227.205H368.55V322.802H457.264V227.205Z" fill="white"/>
</mask>
<g mask="url(#mask0)">
<path fill-rule="evenodd" clip-rule="evenodd" d="M368.55 289.055C373.669 279.436 387.79 252.897 389.942 249.772C395.916 241.093 412.343 217.821 438.34 231.327C459.13 242.128 459.639 264.141 454.645 277.817C451.203 287.247 434.386 313.12 428.196 322.802L368.55 289.055Z" fill="#597EF7"/>
</g>
<path d="M393.538 245.146C393.272 244.982 392.914 245.053 392.74 245.306L392.511 245.652C389.63 250.136 373.579 278.461 368.445 288.108C368.325 288.336 368.387 288.607 368.584 288.768L368.665 288.823L428.31 322.569C428.583 322.724 428.937 322.639 429.101 322.38C429.246 322.15 429.192 321.86 428.986 321.69L428.902 321.632L369.718 288.146L370.913 285.933C377.027 274.696 390.579 250.821 393.397 246.376L393.707 245.902C393.881 245.649 393.805 245.311 393.538 245.146Z" fill="#1D39C4"/>
<path fill-rule="evenodd" clip-rule="evenodd" d="M244.692 273.181C244.692 273.181 275.964 280.267 285.456 269.137C294.051 259.059 287.354 248.544 287.354 248.544C287.354 248.544 279.926 239.213 265.897 233.045C256.705 229.001 231.864 218.114 228.414 222.012C223.917 227.095 242.335 234.904 242.176 239.725C241.851 249.497 211.506 240.098 205.721 241.075C194.416 242.983 207.111 264.952 244.692 273.181Z" fill="#FFC2BD"/>
<path d="M205.294 245.549C204.925 245.367 204.471 245.503 204.279 245.851C204.087 246.2 204.23 246.63 204.598 246.812C206.507 247.753 208.53 248.587 210.651 249.319C215.675 251.052 221.046 252.155 226.447 252.752C228.398 252.968 230.236 253.104 231.922 253.175L232.857 253.208C233.34 253.222 233.762 253.229 234.119 253.23L234.603 253.228C235.019 253.22 235.349 252.895 235.341 252.502C235.333 252.142 235.044 251.849 234.676 251.809L234.537 251.805L234.12 251.806C233.571 251.804 232.854 251.789 231.989 251.753C230.338 251.683 228.535 251.55 226.622 251.338C221.329 250.752 216.07 249.673 211.166 247.981C209.104 247.27 207.142 246.461 205.294 245.549Z" fill="#D18682"/>
<path d="M207.398 252.865C207.038 252.668 206.578 252.784 206.37 253.125C206.162 253.465 206.285 253.9 206.644 254.097L206.857 254.21C206.978 254.272 207.133 254.35 207.323 254.443C207.87 254.71 208.518 255.007 209.266 255.326C211.393 256.235 213.893 257.142 216.747 257.988C222.634 259.733 229.244 260.987 236.518 261.54C236.932 261.572 237.294 261.279 237.328 260.888C237.361 260.496 237.052 260.152 236.638 260.121C229.479 259.577 222.979 258.343 217.197 256.629C214.401 255.801 211.958 254.914 209.884 254.028L209.194 253.727C208.865 253.581 208.562 253.441 208.283 253.308L208.013 253.177C207.702 253.026 207.496 252.919 207.398 252.865Z" fill="#D18682"/>
<path d="M218.853 262.362C218.46 262.234 218.032 262.43 217.896 262.802C217.76 263.173 217.967 263.579 218.36 263.708C224.593 265.754 230.13 267.09 234.906 267.855C236.583 268.124 238.047 268.302 239.289 268.406L239.786 268.445C239.942 268.456 240.089 268.465 240.227 268.473L240.828 268.498C241.244 268.503 241.585 268.189 241.591 267.796C241.596 267.403 241.264 267.08 240.849 267.074L240.502 267.062L240.112 267.04C239.973 267.031 239.824 267.02 239.666 267.008L239.422 266.988C238.219 266.887 236.795 266.714 235.157 266.451C230.462 265.699 225.007 264.383 218.853 262.362Z" fill="#D18682"/>
<path fill-rule="evenodd" clip-rule="evenodd" d="M119.028 255.884C134.936 270.774 170.68 307.211 195.843 323.836C195.843 323.836 222.518 340.546 238.03 318.291C253.156 296.592 225.04 280.777 225.04 280.777C193.981 262.439 156.894 241.939 139.945 231.146C139.945 231.146 130.563 225.782 121.096 235.115C109.862 246.188 119.028 255.884 119.028 255.884Z" fill="#FFC2BD"/>
<mask id="mask1" mask-type="alpha" maskUnits="userSpaceOnUse" x="93" y="194" width="51" height="66">
<path d="M143.824 194.309H93.4292V259.071H143.824V194.309Z" fill="white"/>
</mask>
<g mask="url(#mask1)">
<path fill-rule="evenodd" clip-rule="evenodd" d="M139.608 254.873C139.608 254.873 147.825 245.203 141.317 228.651C136.284 215.853 139.067 213.554 137.939 206.18C136.809 198.806 130.504 205.956 129.637 219.83C129.776 229.941 108.615 209.682 104.61 196.847C100.722 184.386 76.4708 220.261 114.563 251.188C133.341 266.433 139.608 254.873 139.608 254.873Z" fill="#FFC2BD"/>
</g>
<path d="M98.8201 210.139C98.007 208.78 97.032 208.327 96.1817 208.486L96.07 208.512C96.0539 208.517 96.0391 208.521 96.0256 208.526C95.7015 208.638 95.5349 208.978 95.6535 209.285C95.7602 209.561 96.0616 209.716 96.3571 209.663L96.4237 209.647C96.499 209.633 96.6167 209.644 96.7769 209.718C97.0772 209.858 97.403 210.171 97.7325 210.722C98.2014 211.506 98.6119 212.669 98.9352 214.263L99.0031 214.611C100.497 222.566 106.573 228.602 117.761 233.984C120.495 235.299 122.457 236.875 123.747 238.655C125.608 241.222 125.943 243.937 125.404 246.369C125.323 246.731 125.245 246.984 125.197 247.108C125.079 247.415 125.245 247.755 125.569 247.867C125.893 247.979 126.252 247.821 126.371 247.514L126.435 247.332C126.493 247.155 126.56 246.912 126.627 246.612C127.23 243.89 126.855 240.852 124.777 237.985C123.365 236.037 121.242 234.331 118.327 232.929C107.63 227.783 101.836 222.115 100.305 214.767L100.234 214.404C99.8779 212.508 99.4003 211.109 98.8201 210.139Z" fill="#D18682"/>
<path d="M100.279 203.676C98.9341 202.144 97.3819 201.683 96.3011 202.738C96.061 202.973 96.0671 203.347 96.315 203.575C96.5628 203.802 96.9585 203.796 97.1987 203.562C97.6274 203.143 98.3828 203.367 99.3176 204.432C100.477 205.753 101.509 207.996 102.138 210.784C102.702 213.281 104.106 215.892 106.091 218.509C107.003 219.712 107.98 220.838 108.957 221.856C109.213 222.124 109.456 222.37 109.683 222.592L110.087 222.982C110.167 223.058 110.228 223.114 110.27 223.152C110.519 223.377 110.915 223.369 111.153 223.132C111.392 222.896 111.382 222.522 111.133 222.296L110.794 221.977C110.519 221.712 110.213 221.406 109.882 221.061C108.935 220.074 107.989 218.983 107.106 217.819C105.213 215.323 103.883 212.848 103.361 210.537C102.692 207.575 101.581 205.159 100.279 203.676Z" fill="#D18682"/>
<path d="M100.303 198.916L100.279 198.93L100.339 198.916C100.588 198.874 100.962 198.999 101.499 199.506C102.478 200.431 103.517 202.291 104.553 205.293L104.677 205.659C105.585 208.372 106.863 210.867 108.415 213.135C109.557 214.805 110.781 216.257 112.007 217.486C112.352 217.831 112.677 218.139 112.978 218.409L113.398 218.776C113.517 218.876 113.608 218.95 113.667 218.996C113.935 219.202 114.329 219.165 114.547 218.912C114.765 218.658 114.725 218.286 114.458 218.079L114.3 217.952C114.231 217.894 114.146 217.822 114.045 217.734C113.706 217.439 113.326 217.085 112.916 216.674C111.74 215.495 110.563 214.099 109.464 212.492C107.97 210.309 106.742 207.909 105.869 205.301C103.84 199.244 101.738 197.259 99.9061 197.8C99.8051 197.83 99.725 197.865 99.6663 197.898C99.3694 198.064 99.2713 198.427 99.4472 198.708C99.6231 198.989 100.006 199.082 100.303 198.916Z" fill="#D18682"/>
<path d="M346.292 193.172C346.044 192.938 345.642 192.938 345.394 193.172C345.193 193.363 344.91 193.689 344.63 194.132C343.491 195.929 343.491 197.915 345.394 199.717C345.642 199.952 346.044 199.952 346.292 199.717C346.54 199.482 346.54 199.102 346.292 198.867C344.852 197.505 344.852 196.116 345.719 194.75C345.94 194.401 346.159 194.148 346.292 194.022C346.54 193.787 346.54 193.407 346.292 193.172Z" fill="#D18682"/>
<path fill-rule="evenodd" clip-rule="evenodd" d="M137.513 283.096V350.09H148.323V284.472C148.323 284.472 136.681 283.096 137.513 283.096Z" fill="#253368"/>
<path fill-rule="evenodd" clip-rule="evenodd" d="M179.526 270.105C179.526 281.99 169.347 291.619 156.796 291.619C144.245 291.619 134.069 281.99 134.069 270.105C134.069 258.22 144.245 248.591 156.796 248.591C169.347 248.591 179.526 258.22 179.526 270.105Z" fill="#4E5C93"/>
<path fill-rule="evenodd" clip-rule="evenodd" d="M119.253 301.255L150.094 289.362C157.564 286.482 160.655 278.041 156.674 271.401C152.628 264.649 143.171 262.908 136.746 267.737L110.958 287.104C107.734 289.352 106.362 293.44 108 296.899C108.676 298.323 109.799 299.705 111.608 300.771C113.89 302.113 116.761 302.205 119.253 301.255Z" fill="#4E5C93"/>
<path d="M140.763 268.708C140.763 268.708 152.424 272.388 150.87 285.63" stroke="#253368" stroke-width="2.45625" stroke-linecap="round" stroke-linejoin="round"/>
<path fill-rule="evenodd" clip-rule="evenodd" d="M70.1765 464.498H296.633C305.566 464.498 312.81 457.645 312.81 449.185V357.313C312.81 348.854 305.566 342 296.633 342H70.1765C61.2436 342 54.0003 348.854 54.0003 357.313V449.185C54.0003 457.645 61.2436 464.498 70.1765 464.498Z" fill="#0A2067"/>
<mask id="mask2" mask-type="alpha" maskUnits="userSpaceOnUse" x="411" y="84" width="117" height="14">
<path d="M527.296 84.0468H411.701V97.7032H527.296V84.0468Z" fill="white"/>
</mask>
<g mask="url(#mask2)">
<path fill-rule="evenodd" clip-rule="evenodd" d="M411.702 97.7029H527.297V87.8978C527.297 85.7709 525.475 84.0464 523.228 84.0464H415.77C413.523 84.0464 411.702 85.7709 411.702 87.8978V97.7029Z" fill="#253369"/>
</g>
<mask id="mask3" mask-type="alpha" maskUnits="userSpaceOnUse" x="411" y="96" width="117" height="97">
<path d="M527.296 96.5548H411.701V192.111H527.296V96.5548Z" fill="white"/>
</mask>
<g mask="url(#mask3)">
<path fill-rule="evenodd" clip-rule="evenodd" d="M415.77 192.111H523.228C525.475 192.111 527.297 190.387 527.297 188.26V96.5548H411.702V188.26C411.702 190.387 413.523 192.111 415.77 192.111Z" fill="#E4EBF7"/>
</g>
<path fill-rule="evenodd" clip-rule="evenodd" d="M517.902 90.4021C517.902 91.7369 519.045 92.8192 520.456 92.8192C521.866 92.8192 523.009 91.7369 523.009 90.4021C523.009 89.0672 521.866 87.985 520.456 87.985C519.045 87.985 517.902 89.0672 517.902 90.4021Z" fill="#FF7946"/>
<path fill-rule="evenodd" clip-rule="evenodd" d="M508.366 90.4021C508.366 91.7369 509.509 92.8192 510.919 92.8192C512.33 92.8192 513.473 91.7369 513.473 90.4021C513.473 89.0672 512.33 87.985 510.919 87.985C509.509 87.985 508.366 89.0672 508.366 90.4021Z" fill="#FFC53D"/>
<path fill-rule="evenodd" clip-rule="evenodd" d="M498.831 90.4021C498.831 91.7369 499.974 92.8192 501.384 92.8192C502.794 92.8192 503.938 91.7369 503.938 90.4021C503.938 89.0672 502.794 87.985 501.384 87.985C499.974 87.985 498.831 89.0672 498.831 90.4021Z" fill="#BAE637"/>
<path fill-rule="evenodd" clip-rule="evenodd" d="M514.803 179.113C515.504 179.113 516.072 178.576 516.072 177.912V108.297C516.072 107.634 515.504 107.096 514.803 107.096H422.932C422.231 107.096 421.662 107.634 421.662 108.297V177.912C421.662 178.576 422.231 179.113 422.932 179.113H514.803Z" fill="white"/>
<path fill-rule="evenodd" clip-rule="evenodd" d="M483.322 116.21H506.579C507.531 116.21 508.31 115.472 508.31 114.571C508.31 113.67 507.531 112.933 506.579 112.933H483.322C482.37 112.933 481.591 113.67 481.591 114.571C481.591 115.472 482.37 116.21 483.322 116.21Z" fill="#E4EBF7"/>
<path fill-rule="evenodd" clip-rule="evenodd" d="M496.769 123.938H505.424C506.38 123.938 507.155 123.204 507.155 122.3C507.155 121.394 506.38 120.661 505.424 120.661H496.769C495.813 120.661 495.038 121.394 495.038 122.3C495.038 123.204 495.813 123.938 496.769 123.938Z" fill="#E4EBF7"/>
<path d="M469.506 122.589C481.466 122.589 491.162 131.767 491.162 143.089C491.162 154.411 481.466 163.59 469.506 163.59C457.546 163.59 447.85 154.411 447.85 143.089C447.85 131.767 457.546 122.589 469.506 122.589ZM469.506 129.008C461.291 129.008 454.631 135.312 454.631 143.089C454.631 150.866 461.291 157.171 469.506 157.171C477.721 157.171 484.381 150.866 484.381 143.089C484.381 135.312 477.721 129.008 469.506 129.008Z" fill="#FFC53D"/>
<path d="M454.3 132.982C452.598 132.245 450.586 132.953 449.806 134.565C448.523 137.218 447.85 140.112 447.85 143.089C447.85 145.527 448.301 147.912 449.173 150.158C449.818 151.821 451.767 152.675 453.524 152.064C455.264 151.459 456.165 149.645 455.557 147.994L455.538 147.944C454.94 146.405 454.631 144.769 454.631 143.089C454.631 141.081 455.074 139.137 455.919 137.348L455.972 137.237C456.751 135.625 456.003 133.72 454.3 132.982Z" fill="#FF7946"/>
<path d="M434.059 159.592C438.112 159.592 441.39 162.739 441.39 166.612C441.39 170.485 438.112 173.631 434.059 173.631C430.006 173.631 426.728 170.485 426.728 166.612C426.728 162.739 430.006 159.592 434.059 159.592ZM434.059 162.238C431.558 162.238 429.523 164.192 429.523 166.612C429.523 169.032 431.558 170.986 434.059 170.986C436.56 170.986 438.595 169.032 438.595 166.612C438.595 164.192 436.56 162.238 434.059 162.238Z" fill="#E4EBF7"/>
<path d="M429.185 162.909C428.476 162.621 427.654 162.932 427.35 163.603C426.942 164.504 426.729 165.485 426.729 166.493C426.729 167.318 426.872 168.125 427.148 168.887C427.399 169.578 428.194 169.946 428.924 169.708C429.641 169.475 430.029 168.744 429.804 168.063L429.791 168.027C429.615 167.541 429.523 167.025 429.523 166.493C429.523 165.844 429.66 165.218 429.919 164.646C430.223 163.974 429.894 163.196 429.185 162.909Z" fill="#597EF7"/>
<path fill-rule="evenodd" clip-rule="evenodd" d="M438.177 237.497C405.31 222.78 385.722 261.376 402.251 282.866C422.422 309.09 432.755 339.265 438.509 348.356C443.362 356.025 456.659 374.723 472.67 366.105C487.404 358.174 479.374 327.046 479.374 327.046C479.374 327.046 478.723 255.652 438.177 237.497Z" fill="#389E0D"/>
<path fill-rule="evenodd" clip-rule="evenodd" d="M537.035 360.112C548.208 345.841 552.288 325.362 539.816 320.111C527.859 315.076 508.052 327.473 498.877 351.331C489.703 375.189 484.41 392.343 493.384 395.325C508.108 400.218 522.276 378.96 537.035 360.112Z" fill="#389E0D"/>
<path fill-rule="evenodd" clip-rule="evenodd" d="M419.566 361.195C432.204 375.215 450.441 403.418 461.866 393.541C468.791 387.554 459.534 359.205 434.195 343.781C412.641 330.66 406.928 347.175 419.566 361.195Z" fill="#BAE637"/>
<path fill-rule="evenodd" clip-rule="evenodd" d="M540.499 263.904C535.694 260.843 529.648 260.144 524.131 261.817C516.432 264.151 504.749 271.102 493.186 291.052C478.089 317.098 470.231 345.653 471.784 363.74C472.8 375.569 488.194 380.668 496.805 372.043C500.76 368.082 504.945 361.977 509.039 352.714C525.517 315.439 540.922 292.081 542.759 289.736C547.661 283.477 551.166 270.698 540.499 263.904Z" fill="#BAE637"/>
<path fill-rule="evenodd" clip-rule="evenodd" d="M529.448 278.772C529.285 280.612 530.729 282.229 532.673 282.384C534.617 282.538 536.325 281.171 536.488 279.331C536.651 277.491 535.208 275.874 533.263 275.719C531.319 275.565 529.611 276.932 529.448 278.772Z" fill="white"/>
<path fill-rule="evenodd" clip-rule="evenodd" d="M499.443 293.049C499.28 294.89 500.724 296.507 502.668 296.661C504.612 296.816 506.32 295.449 506.484 293.608C506.647 291.768 505.203 290.151 503.258 289.997C501.315 289.842 499.606 291.209 499.443 293.049Z" fill="white"/>
<path fill-rule="evenodd" clip-rule="evenodd" d="M504.472 331.064C504.285 333.172 505.939 335.023 508.165 335.2C510.392 335.377 512.348 333.812 512.534 331.704C512.721 329.597 511.068 327.745 508.841 327.568C506.615 327.391 504.659 328.956 504.472 331.064Z" fill="white"/>
<path fill-rule="evenodd" clip-rule="evenodd" d="M412.312 274.253C412.312 277.244 414.873 279.669 418.033 279.669C421.193 279.669 423.754 277.244 423.754 274.253C423.754 271.262 421.193 268.837 418.033 268.837C414.873 268.837 412.312 271.262 412.312 274.253Z" fill="white"/>
<path fill-rule="evenodd" clip-rule="evenodd" d="M458.368 290.791C458.368 293.782 460.93 296.207 464.089 296.207C467.249 296.207 469.81 293.782 469.81 290.791C469.81 287.8 467.249 285.375 464.089 285.375C460.93 285.375 458.368 287.8 458.368 290.791Z" fill="white"/>
<path fill-rule="evenodd" clip-rule="evenodd" d="M443.452 327.554C443.452 328.804 444.523 329.818 445.843 329.818C447.164 329.818 448.235 328.804 448.235 327.554C448.235 326.304 447.164 325.29 445.843 325.29C444.523 325.29 443.452 326.304 443.452 327.554Z" fill="white"/>
<path fill-rule="evenodd" clip-rule="evenodd" d="M426.225 356.504C426.225 358.35 427.807 359.848 429.757 359.848C431.708 359.848 433.29 358.35 433.29 356.504C433.29 354.657 431.708 353.16 429.757 353.16C427.807 353.16 426.225 354.657 426.225 356.504Z" fill="white"/>
<path d="M508.734 363.921C508.405 363.623 507.884 363.635 507.57 363.947L507.419 364.101L507.305 364.22C507.097 364.44 506.858 364.702 506.588 365.006C505.822 365.87 504.971 366.903 504.056 368.103C501.447 371.523 498.84 375.603 496.409 380.336C489.471 393.846 485.309 409.892 485.309 428.416C485.309 428.846 485.678 429.195 486.133 429.195C486.588 429.195 486.957 428.846 486.957 428.416C486.957 410.136 491.058 394.322 497.89 381.018C500.279 376.368 502.836 372.365 505.391 369.016C506.231 367.915 507.012 366.962 507.719 366.157L507.85 366.008C508.051 365.781 508.233 365.581 508.397 365.405L508.603 365.186C508.68 365.106 508.733 365.052 508.762 365.023C509.076 364.711 509.064 364.218 508.734 363.921Z" fill="#253369"/>
<path d="M446.503 369.378C446.231 369.033 445.715 368.962 445.351 369.22C444.986 369.478 444.911 369.966 445.183 370.311C448.183 374.115 450.952 378.205 453.498 382.54C458.881 391.705 463.042 401.53 466.13 411.356C467.212 414.795 468.081 417.988 468.758 420.852L468.895 421.439C469.056 422.139 469.196 422.778 469.315 423.351L469.392 423.725L469.528 424.433C469.604 424.857 470.029 425.144 470.477 425.072C470.926 425.001 471.228 424.598 471.153 424.174L471.106 423.923C471.067 423.72 471.02 423.481 470.964 423.208L470.828 422.559C470.695 421.94 470.542 421.256 470.366 420.511L470.216 419.885C469.554 417.151 468.724 414.138 467.709 410.911C464.589 400.983 460.384 391.055 454.938 381.782C452.357 377.388 449.549 373.24 446.503 369.378Z" fill="#253369"/>
<path d="M432.109 272.094C431.794 272.38 431.771 272.846 432.048 273.158L432.084 273.196C432.1 273.212 432.135 273.247 432.188 273.301L432.391 273.51L432.508 273.634C432.863 274.008 433.275 274.459 433.74 274.985C435.074 276.496 436.562 278.314 438.166 280.44C442.757 286.523 447.35 293.851 451.639 302.429C458.779 316.712 464.341 333.002 467.711 351.315C471.804 373.552 472.482 397.845 469.132 424.21C469.078 424.638 469.4 425.026 469.851 425.077C470.303 425.129 470.713 424.824 470.767 424.396C474.137 397.88 473.455 373.434 469.334 351.047C465.938 332.593 460.331 316.169 453.128 301.762C448.796 293.097 444.153 285.69 439.507 279.533L439.147 279.059C437.714 277.181 436.375 275.547 435.156 274.158L435.004 273.985C434.566 273.489 434.173 273.058 433.828 272.691L433.735 272.593C433.627 272.479 433.53 272.378 433.445 272.291L433.274 272.117C432.959 271.806 432.438 271.796 432.109 272.094Z" fill="#253369"/>
<path d="M503.408 318.334C503.019 318.111 502.512 318.229 502.277 318.597L502.194 318.729C502.128 318.834 502.051 318.96 501.962 319.106L501.833 319.32C501.612 319.688 501.364 320.11 501.09 320.587L500.864 320.984C500.026 322.46 499.108 324.168 498.127 326.103L497.993 326.369C494.796 332.71 491.6 340.126 488.618 348.553C480.268 372.148 475.188 398.928 474.998 428.411C474.996 428.841 475.362 429.193 475.817 429.195C476.272 429.198 476.643 428.851 476.646 428.42C476.835 399.11 481.884 372.493 490.18 349.048C493.086 340.835 496.196 333.594 499.307 327.384L499.48 327.04C500.544 324.931 501.534 323.09 502.427 321.525L502.695 321.057C502.953 320.611 503.186 320.22 503.39 319.883L503.487 319.724L503.686 319.405C503.921 319.037 503.797 318.558 503.408 318.334Z" fill="#253369"/>
<path fill-rule="evenodd" clip-rule="evenodd" d="M440.013 467.094H511.213C515.062 467.094 518.211 464.113 518.211 460.469V411.297C518.211 407.654 515.062 404.673 511.213 404.673H440.013C436.164 404.673 433.015 407.654 433.015 411.297V460.469C433.015 464.113 436.164 467.094 440.013 467.094Z" fill="#253369"/>
<path d="M489.063 65.7272H535.819C537.189 65.7272 538.3 66.7788 538.3 68.076V112.337C538.3 113.634 537.189 114.686 535.819 114.686H489.063C487.693 114.686 486.582 113.634 486.582 112.337V68.076C486.582 66.7788 487.693 65.7272 489.063 65.7272Z" fill="#597EF7"/>
<path d="M465.904 206.124H488.321C488.978 206.124 489.511 206.628 489.511 207.25V228.471C489.511 229.093 488.978 229.597 488.321 229.597H465.904C465.247 229.597 464.715 229.093 464.715 228.471V207.25C464.715 206.628 465.247 206.124 465.904 206.124Z" fill="#597EF7"/>
</g>
<defs>
<clipPath id="clip0">
<rect width="632" height="398" fill="white" transform="matrix(-1 0 0 1 632 20)"/>
</clipPath>
</defs>
</svg>
