<svg width="651" height="490" viewBox="0 0 651 490" fill="none" xmlns="http://www.w3.org/2000/svg">
<path d="M739.977 8C739.977 3.58173 736.395 0 731.977 0H8.00006C3.58179 0 6.10352e-05 3.58172 6.10352e-05 8V34.1528H739.977V8Z" fill="#F4F4F4"/>
<circle cx="15.491" cy="18.2148" r="5.69213" fill="#4285F4"/>
<path d="M31.4316 14.0405C31.4316 13.2022 32.1112 12.5226 32.9495 12.5226H41.298C42.1363 12.5226 42.8159 13.2022 42.8159 14.0405V22.389C42.8159 23.2273 42.1363 23.9069 41.298 23.9069H32.9495C32.1112 23.9069 31.4316 23.2273 31.4316 22.389V14.0405Z" fill="#4285F4"/>
<path d="M57.9713 13.3053C58.5618 12.2618 60.082 12.2618 60.6724 13.3053L65.3844 21.6334C65.9607 22.652 65.2152 23.9069 64.0339 23.9069H54.6099C53.4285 23.9069 52.6831 22.652 53.2594 21.6334L57.9713 13.3053Z" fill="#4285F4"/>
<path d="M739.977 34.1528H6.10352e-05V489.523H739.977V34.1528Z" fill="#F5F8FF"/>
<mask id="mask0" mask-type="alpha" maskUnits="userSpaceOnUse" x="0" y="34" width="740" height="456">
<path d="M739.977 34.1528H6.10352e-05V489.523H739.977V34.1528Z" fill="#548EFE"/>
</mask>
<g mask="url(#mask0)">
<path fill-rule="evenodd" clip-rule="evenodd" d="M300.612 87.9694H21V62.8621C21 57.4158 25.4064 53 30.8413 53H290.771C296.206 53 300.612 57.4158 300.612 62.8621V87.9694Z" fill="#253369"/>
<path fill-rule="evenodd" clip-rule="evenodd" d="M290.771 329.714H30.8413C25.4064 329.714 21 325.298 21 319.852V85.0291H300.612V319.852C300.612 325.298 296.206 329.714 290.771 329.714Z" fill="#E4EBF7"/>
<path fill-rule="evenodd" clip-rule="evenodd" d="M43.7235 69.2746C43.7235 72.6926 40.9581 75.4638 37.5469 75.4638C34.1361 75.4638 31.3711 72.6926 31.3711 69.2746C31.3711 65.8565 34.1361 63.0853 37.5469 63.0853C40.9581 63.0853 43.7235 65.8565 43.7235 69.2746Z" fill="#FF7946"/>
<path fill-rule="evenodd" clip-rule="evenodd" d="M66.7895 69.2746C66.7895 72.6926 64.0245 75.4638 60.6133 75.4638C57.2025 75.4638 54.4375 72.6926 54.4375 69.2746C54.4375 65.8565 57.2025 63.0853 60.6133 63.0853C64.0245 63.0853 66.7895 65.8565 66.7895 69.2746Z" fill="#FFC53D"/>
<path fill-rule="evenodd" clip-rule="evenodd" d="M89.854 69.2746C89.854 72.6926 87.089 75.4638 83.6778 75.4638C80.2669 75.4638 77.502 72.6926 77.502 69.2746C77.502 65.8565 80.2669 63.0853 83.6778 63.0853C87.089 63.0853 89.854 65.8565 89.854 69.2746Z" fill="#BAE637"/>
<path fill-rule="evenodd" clip-rule="evenodd" d="M51.2213 296.431C49.525 296.431 48.1504 295.054 48.1504 293.356V115.096C48.1504 113.398 49.525 112.021 51.2213 112.021H273.446C275.142 112.021 276.517 113.398 276.517 115.096V293.356C276.517 295.054 275.142 296.431 273.446 296.431H51.2213Z" fill="white"/>
<path d="M125.33 189.721C126.608 188.627 128.544 188.873 129.512 190.233L129.562 190.306L174.281 257.334L208.871 233.029C209.281 232.741 209.759 232.566 210.257 232.521L210.364 232.514L256.069 230.129C257.643 230.047 258.986 231.256 259.069 232.831C259.149 234.378 257.983 235.702 256.449 235.826L256.366 235.831L211.482 238.173L175.171 263.688C173.882 264.594 172.11 264.283 171.203 263.009L171.154 262.937L126.598 196.152L74.5245 240.736C73.3489 241.742 71.5909 241.626 70.5566 240.489L70.4988 240.424C69.4923 239.248 69.6082 237.49 70.7454 236.456L70.8108 236.398L125.33 189.721Z" fill="#FF7946"/>
<path d="M249.3 149.269C250.178 147.959 251.952 147.61 253.262 148.488C254.547 149.35 254.908 151.076 254.089 152.378L254.043 152.45L213.38 213.083C212.36 214.603 210.201 214.78 208.946 213.467L208.885 213.401L162.409 161.689L130.192 183.427C129.737 183.734 129.205 183.902 128.658 183.915L128.548 183.915L72.6214 183.001C71.0447 182.975 69.7875 181.676 69.8129 180.099C69.8386 178.55 71.0929 177.31 72.632 177.291L72.7147 177.291L127.743 178.19L161.275 155.566C162.431 154.786 163.977 154.957 164.935 155.96L164.995 156.025L210.68 206.856L249.3 149.269Z" fill="#FFC53D"/>
<path d="M178.855 188.1C179.567 187.476 180.54 187.248 181.452 187.485L181.546 187.511L211.321 196.343L255.204 189.351C256.734 189.107 258.173 190.127 258.459 191.64L258.473 191.721C258.717 193.251 257.697 194.691 256.184 194.976L256.103 194.99L211.58 202.084C211.197 202.145 210.806 202.127 210.431 202.033L210.319 202.002L181.43 193.433L131.233 237.335C130.309 238.144 128.974 238.269 127.918 237.654L127.839 237.607L67.8704 200.084C66.5336 199.248 66.128 197.486 66.9644 196.149C67.7856 194.837 69.4987 194.422 70.8259 195.199L70.8992 195.243L129.07 231.641L178.855 188.1Z" fill="#597EF7"/>
<path fill-rule="evenodd" clip-rule="evenodd" d="M127.367 135.358H71.1128C68.8096 135.358 66.9258 133.47 66.9258 131.162C66.9258 128.854 68.8096 126.966 71.1128 126.966H127.367C129.67 126.966 131.554 128.854 131.554 131.162C131.554 133.47 129.67 135.358 127.367 135.358Z" fill="#CCD7EE"/>
<path fill-rule="evenodd" clip-rule="evenodd" d="M94.8443 155.148H73.9082C71.5959 155.148 69.7207 153.269 69.7207 150.952C69.7207 148.634 71.5959 146.756 73.9082 146.756H94.8443C97.157 146.756 99.0313 148.634 99.0313 150.952C99.0313 153.269 97.157 155.148 94.8443 155.148Z" fill="#CCD7EE"/>
<path d="M246.53 246.452C236.725 246.452 228.799 254.509 228.799 264.42C228.799 274.331 236.725 282.387 246.53 282.387C256.335 282.387 264.261 274.33 264.261 264.42C264.261 254.509 256.335 246.452 246.53 246.452ZM246.53 253.211C252.578 253.211 257.503 258.217 257.503 264.42C257.503 270.622 252.578 275.628 246.53 275.628C240.482 275.628 235.558 270.622 235.558 264.42C235.558 258.217 240.482 253.211 246.53 253.211Z" fill="#CCD7EE"/>
<path d="M258.322 254.943C260.038 254.209 262.024 255.005 262.759 256.721C263.745 259.026 264.261 261.535 264.261 264.115C264.261 266.226 263.915 268.292 263.246 270.242C262.641 272.007 260.719 272.947 258.953 272.341C257.216 271.745 256.278 269.875 256.825 268.134L256.854 268.048C257.281 266.803 257.503 265.478 257.503 264.115C257.503 262.52 257.199 260.98 256.622 259.563L256.545 259.379C255.811 257.663 256.606 255.677 258.322 254.943Z" fill="#597EF7"/>
<path fill-rule="evenodd" clip-rule="evenodd" d="M476.506 492.809C476.506 502.833 484.632 510.96 494.656 510.96C504.68 510.96 512.807 502.833 512.807 492.809C512.807 482.785 504.68 474.659 494.656 474.659C484.632 474.659 476.506 482.785 476.506 492.809Z" fill="#132E55"/>
<path fill-rule="evenodd" clip-rule="evenodd" d="M380.889 489.477H608.428C608.428 467.113 590.299 448.984 567.935 448.984H421.382C399.019 448.984 380.889 467.113 380.889 489.477Z" fill="#A3B5D6"/>
<path fill-rule="evenodd" clip-rule="evenodd" d="M409.501 326.691C409.501 326.691 411.326 357.069 439.083 354.924C467.386 352.737 464.343 322.074 464.343 322.074C464.343 322.074 465.719 303.016 463.746 277.386C462.203 257.358 459.832 231.202 457.625 218.482C455.246 204.754 442.615 195.696 429.614 196.7C409.855 198.226 403.154 214.169 403.59 228.023C404.016 241.497 404.654 263.666 405.453 278.505C406.985 307.04 409.501 326.691 409.501 326.691Z" fill="#ADC6FF"/>
<path fill-rule="evenodd" clip-rule="evenodd" d="M347.534 363.743C344.193 376.234 316.413 371.993 316.413 371.993L302.796 383.095C300.638 384.588 299.714 383.132 298.539 383.399C295.376 384.121 294.619 380.795 294.619 380.795C293.41 380.523 291.845 381.76 290.686 378.858C290.686 378.858 288.432 379.204 287.664 376.547C287.375 375.56 291.723 362.182 294.317 354.356C295.459 350.919 298.428 348.422 302.004 347.882L335.252 342.87C335.252 342.87 352.027 346.939 347.534 363.743Z" fill="#CE998A"/>
<path d="M318.454 363.274C318.834 363.112 319.274 363.289 319.436 363.669C319.58 364.007 319.457 364.392 319.161 364.588L319.042 364.652L309.22 368.85L299.415 382.37C299.2 382.668 298.806 382.76 298.487 382.606L298.371 382.536C298.074 382.32 297.982 381.926 298.136 381.606L298.205 381.49L308.132 367.803C308.185 367.73 308.25 367.668 308.325 367.618L308.443 367.555L318.454 363.274Z" fill="#965C56"/>
<path d="M311.776 359.149C312.136 358.946 312.592 359.073 312.794 359.434C312.975 359.754 312.894 360.15 312.621 360.377L312.51 360.454L303.495 365.54L295.503 379.538C295.32 379.857 294.939 379.991 294.605 379.873L294.482 379.816C294.164 379.634 294.03 379.252 294.148 378.917L294.204 378.794L302.299 364.618C302.343 364.54 302.402 364.471 302.47 364.414L302.581 364.338L311.776 359.149Z" fill="#965C56"/>
<path d="M305.308 355.335C305.632 355.078 306.102 355.133 306.359 355.458C306.586 355.746 306.568 356.15 306.334 356.417L306.236 356.51L300.165 361.319L292.874 376.341C292.713 376.671 292.342 376.83 292 376.735L291.874 376.687C291.544 376.526 291.385 376.154 291.481 375.812L291.529 375.686L298.896 360.51C298.929 360.442 298.971 360.38 299.022 360.326L299.104 360.25L305.308 355.335Z" fill="#965C56"/>
<path fill-rule="evenodd" clip-rule="evenodd" d="M435.703 305.49C435.703 305.49 463.676 299.599 469.357 322.848C475.213 346.826 448.642 353.722 448.642 353.722C448.642 353.722 429.822 358.115 406.653 363.628C392.508 366.993 376.814 370.398 365.067 371.232C352.347 372.137 349.468 365.622 346.629 353.996C343.256 340.189 343.264 334.142 355.04 329.409C366.267 324.898 382.05 320.835 394.141 317.131C417.191 310.072 435.703 305.49 435.703 305.49Z" fill="#ADC6FF"/>
<path fill-rule="evenodd" clip-rule="evenodd" d="M340.766 369.35L334.199 342.465L351.862 336.085L359.377 366.841L340.766 369.35Z" fill="#ADC6FF"/>
<path fill-rule="evenodd" clip-rule="evenodd" d="M321.418 418.539C376.977 404.085 434.556 389.709 480.622 379.324C480.622 379.324 515.388 377.424 517.226 409.202C519.026 440.35 481.469 449.602 481.469 449.602L330.598 473.086C330.598 473.086 305.985 476.638 301.871 449.289C298.122 424.341 321.418 418.539 321.418 418.539Z" fill="#597EF7"/>
<path fill-rule="evenodd" clip-rule="evenodd" d="M297.166 449.714C304.655 540.761 313.179 629.846 313.179 629.846L351.667 629.82L357.68 446.438C357.68 446.438 354.305 425.395 324.575 421.565C297.231 418.041 297.166 449.714 297.166 449.714Z" fill="#597EF7"/>
<path fill-rule="evenodd" clip-rule="evenodd" d="M573.209 420.492C569.745 383.767 568.827 364.884 564.715 357.986C476.334 360.517 454.317 359.352 454.317 359.352C454.317 359.352 453.416 372.343 449.344 412.331C449.344 412.331 476.555 461.989 511.668 461.989C543.325 461.989 573.209 420.492 573.209 420.492Z" fill="#597EF7"/>
<path fill-rule="evenodd" clip-rule="evenodd" d="M564.713 357.987L563.042 341.33L454.818 342.63L454.314 359.313C454.314 359.313 511.59 361.521 564.713 357.987Z" fill="#597EF7"/>
<mask id="mask1" mask-type="alpha" maskUnits="userSpaceOnUse" x="421" y="56" width="107" height="108">
<path d="M421.234 56H527.265V163.997H421.234V56Z" fill="white"/>
</mask>
<g mask="url(#mask1)">
<path fill-rule="evenodd" clip-rule="evenodd" d="M516.063 137.494C516.063 137.494 531.095 128.268 525.075 111.879C531.171 97.2297 522.603 88.8081 522.603 88.8081C522.603 88.8081 521.361 70.0453 508.887 69.6127C500.1 50.7478 478.612 59.3998 478.612 59.3998C478.612 59.3998 464.053 48.6652 444.83 65.3432C430.223 66.6062 429.802 59.3324 425.355 64.6302C420.905 69.9257 419.398 81.8799 425.904 86.2277C415.317 91.4407 426.043 108.166 426.043 108.166C426.043 108.166 423.004 118.314 435.858 125.184C448.715 132.055 454.654 155.516 475.771 161.927C496.09 168.096 516.927 160.631 516.063 137.494Z" fill="#7D4556"/>
</g>
<path fill-rule="evenodd" clip-rule="evenodd" d="M509.933 173.113L503.825 141.006L461.258 148.561L462.306 176.886C462.773 189.532 473.559 199.303 486.171 198.503C486.412 198.488 486.65 198.473 486.894 198.458C499.79 197.645 511.505 185.958 509.933 173.113Z" fill="#CE998A"/>
<path fill-rule="evenodd" clip-rule="evenodd" d="M492.352 91.9901C492.352 91.9901 490.047 103.512 498.942 106.14C497.677 120.97 504.058 119.568 504.058 119.568C504.058 119.568 514.083 106.266 521.317 117.603C528.192 128.372 516.887 144.611 506.114 142.318C488.731 171.28 453.013 173.33 440.857 154.756C433.472 143.47 435.808 126.831 434.764 119.051C432.194 99.9312 435.623 94.0683 435.623 94.0683C435.623 94.0683 442.967 95.5008 450.857 89.3531C459.557 95.5748 471.748 89.0553 471.748 89.0553C471.748 89.0553 480.183 99.4595 492.352 91.9901Z" fill="#CE998A"/>
<path d="M512.219 119.967C514.677 119.441 516.371 120.052 517.303 121.434C517.72 122.053 517.893 122.665 517.932 123.115C517.971 123.564 517.639 123.959 517.191 123.998C516.743 124.036 516.349 123.704 516.31 123.256C516.293 123.058 516.192 122.699 515.954 122.346C515.408 121.537 514.39 121.169 512.559 121.561C510.831 121.931 509.4 123.267 508.573 125.05C508.227 125.796 508.029 126.551 508.006 127.147C507.989 127.583 508.065 127.806 508.081 127.814C509.759 128.736 511.071 130.066 511.507 131.538C512.066 133.424 511.161 135.266 508.786 136.801C508.409 137.045 507.905 136.936 507.661 136.558C507.417 136.179 507.526 135.675 507.904 135.431C509.719 134.258 510.277 133.12 509.946 132.002C509.652 131.01 508.635 129.978 507.299 129.244C504.595 127.762 507.77 120.919 512.219 119.967Z" fill="#965C56"/>
<path d="M509.822 125.959C510.573 125.868 511.352 125.84 512.094 125.914C514.11 126.117 515.469 127.057 515.461 128.943C515.459 129.393 515.093 129.757 514.643 129.755C514.194 129.753 513.831 129.387 513.833 128.936C513.836 128.094 513.218 127.666 511.932 127.537C511.325 127.476 510.66 127.5 510.017 127.577L509.721 127.617C509.64 127.63 509.576 127.64 509.533 127.649C509.092 127.734 508.665 127.445 508.579 127.003C508.494 126.561 508.783 126.134 509.224 126.048L509.53 125.997C509.616 125.985 509.714 125.972 509.822 125.959Z" fill="#965C56"/>
<path fill-rule="evenodd" clip-rule="evenodd" d="M464.128 118.84C464.805 126.666 471.684 132.461 479.5 131.787C487.315 131.111 493.102 124.218 492.427 116.392C491.754 108.566 484.871 102.768 477.056 103.444C469.24 104.12 463.453 111.014 464.128 118.84Z" fill="white"/>
<path d="M476.969 102.446C468.602 103.169 462.407 110.548 463.13 118.926C463.855 127.304 471.219 133.507 479.585 132.786C487.95 132.062 494.145 124.683 493.423 116.306C492.714 108.066 485.574 101.926 477.38 102.416L476.969 102.446ZM491.429 116.478C492.056 123.753 486.677 130.16 479.413 130.789C472.148 131.415 465.753 126.029 465.123 118.753C464.496 111.478 469.876 105.071 477.141 104.443C484.405 103.814 490.803 109.204 491.429 116.478Z" fill="#7D4556"/>
<path fill-rule="evenodd" clip-rule="evenodd" d="M429.696 120.482C430.373 128.308 437.252 134.103 445.069 133.43C452.883 132.753 458.673 125.86 457.995 118.034C457.322 110.208 450.439 104.41 442.625 105.086C434.808 105.763 429.021 112.656 429.696 120.482Z" fill="white"/>
<path d="M442.537 104.088C434.171 104.812 427.975 112.19 428.698 120.568C429.423 128.946 436.787 135.149 445.153 134.428C453.519 133.704 459.716 126.325 458.991 117.948C458.283 109.708 451.142 103.568 442.948 104.058L442.537 104.088ZM456.997 118.12C457.627 125.394 452.246 131.803 444.982 132.431C437.716 133.057 431.321 127.671 430.692 120.395C430.064 113.12 435.444 106.713 442.71 106.085C449.974 105.456 456.372 110.846 456.997 118.12Z" fill="#7D4556"/>
<path d="M460.631 116.516C461.022 116.738 461.159 117.236 460.937 117.627L460.732 117.999C460.566 118.304 460.38 118.651 460.181 119.035C459.61 120.133 459.039 121.302 458.506 122.493C458.027 123.565 457.602 124.603 457.247 125.587C456.051 128.899 455.776 131.297 456.526 132.162C457.368 133.134 458.467 133.707 459.785 133.944C461.127 134.186 462.592 134.067 464.017 133.718C464.554 133.586 464.951 133.456 465.16 133.374C465.579 133.211 466.051 133.418 466.214 133.837C466.378 134.257 466.171 134.729 465.752 134.893L465.473 134.994C465.203 135.086 464.841 135.194 464.405 135.301C462.777 135.7 461.095 135.837 459.496 135.549C457.832 135.249 456.398 134.501 455.297 133.231C453.992 131.726 454.315 128.914 455.716 125.033C456.086 124.008 456.525 122.934 457.021 121.826C457.567 120.604 458.152 119.407 458.737 118.282L459.126 117.546L459.521 116.823C459.743 116.432 460.24 116.294 460.631 116.516Z" fill="#965C56"/>
<path fill-rule="evenodd" clip-rule="evenodd" d="M475.64 138.539C475.64 138.539 462.677 141.169 453.195 140.48C453.195 140.48 456.623 149.619 465.879 147.686C474.097 145.969 475.64 138.539 475.64 138.539Z" fill="white"/>
<path d="M475.467 137.699L473.765 138.016C472.413 138.256 470.923 138.495 469.338 138.719C465.949 139.196 462.608 139.535 459.489 139.672C457.211 139.772 455.119 139.761 453.254 139.626C452.632 139.58 452.172 140.196 452.391 140.781L452.502 141.053C452.614 141.312 452.777 141.654 452.993 142.055C453.494 142.983 454.117 143.911 454.871 144.779C457.624 147.947 461.345 149.507 466.05 148.525C469.435 147.817 472.021 146.152 473.896 143.826C474.789 142.718 475.46 141.533 475.943 140.346C476.236 139.627 476.403 139.058 476.474 138.713C476.599 138.111 476.069 137.577 475.467 137.699ZM474.063 139.703L474.379 139.645L474.359 139.699C473.936 140.739 473.346 141.78 472.564 142.75C470.93 144.778 468.684 146.224 465.701 146.848C461.653 147.693 458.535 146.386 456.162 143.655L455.776 143.188C455.403 142.716 455.071 142.227 454.778 141.734L454.595 141.413L454.624 141.416C456.157 141.473 457.809 141.46 459.564 141.383C462.744 141.243 466.137 140.9 469.576 140.415C471.182 140.188 472.692 139.946 474.063 139.703Z" fill="#7D4556"/>
<path d="M452.63 100.408C453.038 100.17 453.562 100.309 453.799 100.719C454.036 101.128 453.897 101.652 453.488 101.889C449.098 104.44 443.494 105.472 437.622 104.389C437.158 104.303 436.851 103.856 436.936 103.391C437.022 102.926 437.468 102.618 437.932 102.704C443.397 103.712 448.587 102.757 452.63 100.408Z" fill="#7D4556"/>
<path d="M459.801 113.442C461.411 113.232 463.11 113.234 464.707 113.362L465.323 113.419L465.591 113.451L465.327 115.438L464.758 115.378C464.692 115.372 464.622 115.366 464.548 115.36C463.078 115.242 461.51 115.24 460.059 115.429C459.19 115.542 458.415 115.72 457.757 115.965L457.438 116.093L456.645 114.253C457.555 113.859 458.616 113.596 459.801 113.442Z" fill="#7D4556"/>
<path d="M443.558 115.858C445.994 115.647 447.776 116.708 448.907 118.544C449.504 119.513 449.804 120.468 449.915 121.144C450.005 121.691 449.635 122.206 449.09 122.296C448.544 122.385 448.03 122.015 447.94 121.469L447.907 121.307C447.882 121.204 447.846 121.068 447.796 120.909C447.654 120.459 447.458 120.01 447.204 119.597C446.445 118.364 445.353 117.715 443.73 117.855C442.249 117.983 441.396 118.735 440.938 120.002C440.693 120.681 440.597 121.406 440.595 122.032L440.606 122.403C440.654 122.954 440.246 123.44 439.695 123.488C439.191 123.531 438.741 123.192 438.633 122.71L438.608 122.53C438.607 122.512 438.606 122.485 438.603 122.431C438.559 121.502 438.666 120.402 439.056 119.321C439.763 117.363 441.242 116.058 443.558 115.858Z" fill="#7D4556"/>
<path d="M477.597 112.914C480.033 112.703 481.815 113.763 482.947 115.599C483.544 116.568 483.845 117.523 483.956 118.2C484.046 118.746 483.676 119.261 483.131 119.351C482.635 119.433 482.165 119.134 482.016 118.669L481.919 118.249C481.897 118.167 481.87 118.071 481.836 117.965C481.695 117.515 481.499 117.065 481.244 116.653C480.484 115.42 479.392 114.77 477.769 114.911C476.288 115.038 475.436 115.791 474.978 117.058C474.733 117.737 474.637 118.462 474.635 119.089L474.645 119.459C474.692 120.01 474.284 120.496 473.734 120.543C473.229 120.587 472.78 120.247 472.672 119.765L472.645 119.549L472.642 119.487C472.598 118.558 472.705 117.458 473.096 116.376C473.803 114.418 475.282 113.113 477.597 112.914Z" fill="#7D4556"/>
<path d="M492.428 116.392L506.411 115.181" stroke="#7D4556" stroke-width="1.383"/>
<path d="M467.906 99.0137C468.083 98.575 468.581 98.3629 469.019 98.5398C470.586 99.1729 472.443 99.6183 474.528 99.8929C477.691 100.309 481.081 100.31 484.256 100.06L484.912 100.004L485.93 99.8958C486.398 99.8343 486.827 100.165 486.889 100.634C486.95 101.103 486.62 101.533 486.152 101.594L485.676 101.649L485.071 101.71C484.856 101.73 484.629 101.749 484.39 101.768C481.106 102.026 477.604 102.026 474.305 101.591C472.087 101.299 470.094 100.821 468.379 100.128C467.941 99.9515 467.729 99.4524 467.906 99.0137Z" fill="#7D4556"/>
<path d="M466.576 156.526C467.025 156.505 467.405 156.853 467.426 157.303L467.453 157.727C467.47 157.959 467.496 158.246 467.531 158.576C467.634 159.539 467.784 160.5 467.988 161.391C468.413 163.246 469.022 164.515 469.695 164.884C470.09 165.1 470.234 165.595 470.018 165.99C469.803 166.385 469.308 166.53 468.914 166.314C467.696 165.646 466.925 164.042 466.401 161.756C466.181 160.795 466.021 159.772 465.912 158.75L465.848 158.072L465.8 157.377C465.779 156.928 466.127 156.546 466.576 156.526Z" fill="#965C56"/>
<path d="M463.736 159.321C464.185 159.316 464.553 159.678 464.558 160.128L464.577 160.787C464.583 160.93 464.591 161.088 464.601 161.259C464.649 162.113 464.73 162.965 464.851 163.756C464.97 164.538 465.121 165.214 465.304 165.747C465.45 166.173 465.224 166.636 464.798 166.783C464.373 166.929 463.91 166.703 463.764 166.277C463.545 165.639 463.374 164.873 463.241 164.001C463.112 163.155 463.027 162.253 462.975 161.352L462.942 160.638C462.935 160.434 462.931 160.267 462.93 160.144C462.925 159.693 463.286 159.325 463.736 159.321Z" fill="#965C56"/>
<path d="M470.336 159.898C470.765 159.766 471.221 160.008 471.352 160.439L471.42 160.649C471.463 160.778 471.52 160.942 471.589 161.131C471.782 161.658 471.999 162.184 472.235 162.67C472.673 163.573 473.125 164.219 473.483 164.465L473.588 164.527C473.992 164.725 474.16 165.213 473.962 165.617C473.765 166.022 473.278 166.19 472.874 165.992C472.071 165.6 471.404 164.687 470.771 163.383C470.508 162.841 470.271 162.266 470.06 161.692L469.874 161.159C469.841 161.062 469.815 160.98 469.796 160.916C469.664 160.486 469.906 160.03 470.336 159.898Z" fill="#965C56"/>
<path d="M461.266 158.705C461.667 158.764 461.956 159.105 461.963 159.497L461.954 159.63L461.244 164.503C461.18 164.949 460.766 165.257 460.321 165.192C459.921 165.134 459.632 164.793 459.625 164.4L459.633 164.268L460.343 159.394C460.402 158.993 460.742 158.703 461.134 158.697L461.266 158.705Z" fill="#965C56"/>
<path d="M489.206 158.344C489.582 158.097 490.087 158.202 490.333 158.579C490.58 158.955 490.475 159.461 490.099 159.708C488.832 160.539 487.526 161.295 486.184 161.978C478.011 166.137 469.477 167.316 462.145 166.814L461.461 166.762C460.838 166.71 460.397 166.657 460.157 166.621C459.713 166.554 459.407 166.138 459.474 165.693C459.541 165.248 459.956 164.941 460.401 165.009L460.773 165.057C460.933 165.075 461.128 165.095 461.357 165.116L461.597 165.137C468.803 165.739 477.328 164.656 485.447 160.524C486.736 159.868 487.99 159.142 489.206 158.344Z" fill="#965C56"/>
<path d="M472.498 132.85C472.625 132.418 473.078 132.171 473.509 132.298L473.885 132.417C474.174 132.513 474.496 132.625 474.842 132.755C475.832 133.126 476.821 133.561 477.75 134.058C480.858 135.719 482.642 137.689 482.209 140.072C482.129 140.515 481.705 140.809 481.263 140.728C480.82 140.647 480.527 140.223 480.607 139.78C480.869 138.341 479.522 136.854 476.984 135.496C476.124 135.036 475.198 134.63 474.271 134.282L473.828 134.12C473.486 133.999 473.219 133.912 473.049 133.862C472.618 133.735 472.371 133.282 472.498 132.85Z" fill="#965C56"/>
<path fill-rule="evenodd" clip-rule="evenodd" d="M512.157 174.634L516.702 183.083C516.702 183.083 548.24 186.873 563.639 196.162C577.564 204.561 575.81 293.236 573.667 323.079C581.169 358.118 553.176 355.292 553.176 355.292L453.279 363.544C453.279 363.544 438.658 355.229 445.927 330.538C444.063 310.46 411.509 214.166 424.084 201.572C433.863 191.779 457.467 189.864 457.467 189.864L459.049 180.047C459.049 180.047 474.2 178.314 512.157 174.634Z" fill="#ADC6FF"/>
<path d="M428.893 239.915C429.35 239.87 429.757 240.206 429.802 240.664C430.66 249.509 432.337 260.068 434.696 271.98C436.026 278.691 437.551 285.726 439.235 292.983C441.223 301.548 443.339 310.033 445.467 318.13L446.72 322.847C447.076 324.173 447.42 325.44 447.749 326.643L448.606 329.75L449.331 332.326C449.458 332.768 449.203 333.23 448.761 333.357C448.319 333.485 447.858 333.229 447.731 332.786L446.86 329.688L446.143 327.084C445.648 325.276 445.122 323.324 444.568 321.244C442.197 312.33 439.827 302.896 437.614 293.36C435.926 286.086 434.396 279.034 433.063 272.304L432.529 269.568C430.44 258.721 428.943 249.047 428.145 240.825C428.1 240.367 428.435 239.959 428.893 239.915Z" fill="#597EF7"/>
<path d="M508.932 187.75C509.376 187.633 509.831 187.899 509.949 188.344C510.066 188.789 509.8 189.245 509.356 189.362C493.761 193.477 478.451 194.53 465.56 193.831L464.491 193.769C463.832 193.728 463.236 193.684 462.706 193.64L461.649 193.543C461.613 193.539 461.581 193.535 461.554 193.532C461.097 193.481 460.768 193.068 460.82 192.61C460.871 192.153 461.284 191.824 461.74 191.876L462.469 191.946L463.671 192.043C463.963 192.064 464.271 192.084 464.595 192.105C477.541 192.912 493.098 191.928 508.932 187.75Z" fill="#597EF7"/>
<path fill-rule="evenodd" clip-rule="evenodd" d="M378.559 455.762C383.228 554.32 389.091 650.796 389.091 650.796L430.635 652.218L443.998 454.499C443.998 454.499 441.541 424.954 409.198 426.408C380.015 427.719 378.559 455.762 378.559 455.762Z" fill="#597EF7"/>
<path fill-rule="evenodd" clip-rule="evenodd" d="M395.996 423.485C440.913 406.805 498.276 394.677 539.829 386.216C539.829 386.216 571.002 390.379 573.11 421.062C575.174 451.133 541.305 458.787 541.305 458.787L405.067 476.352C405.067 476.352 382.835 478.948 378.732 452.457C374.988 428.294 395.996 423.485 395.996 423.485Z" fill="#597EF7"/>
<path d="M565.879 362.549C566.328 362.549 566.693 362.914 566.693 363.364C566.693 363.769 566.397 364.106 566.011 364.169L565.879 364.179H455.05C454.601 364.179 454.236 363.814 454.236 363.364C454.236 362.959 454.532 362.623 454.918 362.56L455.05 362.549H565.879Z" fill="#1D39C4"/>
<path d="M564.652 375.198C565.101 375.198 565.466 375.563 565.466 376.014C565.466 376.419 565.171 376.755 564.784 376.818L564.652 376.829H453.418C452.968 376.829 452.604 376.464 452.604 376.014C452.604 375.608 452.899 375.272 453.286 375.209L453.418 375.198H564.652Z" fill="#1D39C4"/>
<path d="M488.296 362.346C488.7 362.365 489.021 362.677 489.066 363.067L489.07 363.199L488.458 376.053C488.437 376.503 488.055 376.85 487.606 376.829C487.202 376.809 486.881 376.498 486.836 376.108L486.832 375.976L487.444 363.121C487.466 362.672 487.847 362.325 488.296 362.346Z" fill="#1D39C4"/>
<path fill-rule="evenodd" clip-rule="evenodd" d="M389.644 423.081L514.864 395.884L387.502 365.034L284.957 397.938L389.644 423.081Z" fill="#BAC9E5"/>
<path fill-rule="evenodd" clip-rule="evenodd" d="M384.382 414.53L475.325 394.778L384.979 372.078L308.35 396.269L384.382 414.53Z" fill="#4E5C93"/>
<path fill-rule="evenodd" clip-rule="evenodd" d="M515.157 402.42L514.892 395.926L387.037 422.643L389.612 429.445L515.157 402.42Z" fill="#253368"/>
<path d="M368.462 378.486L442.178 400.905C442.465 400.992 442.627 401.296 442.54 401.583C442.464 401.834 442.222 401.99 441.971 401.966L441.863 401.945L368.147 379.526C367.86 379.439 367.698 379.135 367.785 378.848C367.861 378.597 368.103 378.441 368.354 378.465L368.462 378.486Z" fill="#BAC9E5"/>
<path d="M377.821 374.088L460.163 397.629C460.451 397.711 460.618 398.012 460.536 398.301C460.464 398.553 460.225 398.713 459.973 398.694L459.865 398.674L377.523 375.133C377.235 375.051 377.068 374.75 377.15 374.461C377.222 374.209 377.461 374.049 377.713 374.069L377.821 374.088Z" fill="#BAC9E5"/>
<path d="M367.751 385.132L429.71 404.92C429.996 405.012 430.154 405.317 430.063 405.603C429.983 405.854 429.739 406.006 429.488 405.979L429.381 405.956L367.421 386.167C367.135 386.076 366.978 385.77 367.069 385.484C367.148 385.234 367.392 385.082 367.643 385.109L367.751 385.132Z" fill="#BAC9E5"/>
<path d="M351.227 387.734L413.187 407.523C413.473 407.614 413.63 407.92 413.539 408.206C413.459 408.456 413.216 408.609 412.965 408.582L412.857 408.559L350.897 388.77C350.612 388.679 350.454 388.373 350.545 388.087C350.625 387.837 350.869 387.685 351.12 387.712L351.227 387.734Z" fill="#BAC9E5"/>
<path d="M336.032 391.22L397.992 411.009C398.277 411.1 398.435 411.406 398.344 411.692C398.264 411.942 398.02 412.094 397.77 412.067L397.662 412.045L335.702 392.256C335.417 392.165 335.259 391.859 335.35 391.573C335.43 391.323 335.673 391.171 335.924 391.198L336.032 391.22Z" fill="#BAC9E5"/>
<path d="M460.091 391.646C460.386 391.592 460.669 391.788 460.722 392.084C460.769 392.342 460.625 392.591 460.391 392.685L460.285 392.715L382.306 406.872C382.011 406.925 381.728 406.729 381.675 406.434C381.628 406.176 381.772 405.927 382.006 405.833L382.112 405.802L460.091 391.646Z" fill="#BAC9E5"/>
<path d="M442.326 386.483C442.621 386.429 442.903 386.625 442.957 386.921C443.004 387.179 442.86 387.428 442.625 387.522L442.52 387.552L364.538 401.709C364.243 401.762 363.961 401.566 363.907 401.271C363.86 401.013 364.004 400.764 364.239 400.67L364.344 400.639L442.326 386.483Z" fill="#BAC9E5"/>
<path d="M420.498 383.604C420.793 383.551 421.075 383.747 421.128 384.042C421.175 384.3 421.031 384.549 420.797 384.643L420.691 384.674L342.712 398.83C342.417 398.884 342.135 398.688 342.081 398.392C342.034 398.134 342.178 397.885 342.413 397.791L342.518 397.761L420.498 383.604Z" fill="#BAC9E5"/>
<path d="M405.281 373.549C405.576 373.495 405.858 373.691 405.912 373.987C405.959 374.245 405.815 374.494 405.58 374.588L405.475 374.618L327.493 388.775C327.198 388.828 326.916 388.632 326.862 388.337C326.816 388.079 326.96 387.83 327.194 387.736L327.299 387.705L405.281 373.549Z" fill="#BAC9E5"/>
<path fill-rule="evenodd" clip-rule="evenodd" d="M389.509 429.456L383.859 430.271L284.707 405.146L236.008 242.448L342.124 257.474L389.509 429.456Z" fill="#253368"/>
<path fill-rule="evenodd" clip-rule="evenodd" d="M383.659 430.293L279.099 403.843C278.144 403.604 277.385 402.876 277.1 401.93L230.122 245.585C229.53 243.619 231.175 241.704 233.203 241.993L333.87 256.389C334.97 256.548 335.878 257.345 336.175 258.421L383.659 430.293Z" fill="#4E5C93"/>
<mask id="mask2" mask-type="alpha" maskUnits="userSpaceOnUse" x="523" y="192" width="67" height="159">
<path d="M523.883 192.881H589.924V350.901H523.883V192.881Z" fill="white"/>
</mask>
<g mask="url(#mask2)">
<path fill-rule="evenodd" clip-rule="evenodd" d="M535.114 323.968C535.114 323.968 538.535 354.207 566.142 350.602C594.291 346.926 589.637 316.464 589.637 316.464C589.637 316.464 590.011 297.362 586.692 271.871C584.098 251.952 580.356 225.959 577.484 213.37C574.384 199.787 561.295 191.409 548.364 193.096C528.715 195.663 522.859 211.937 524.024 225.75C525.157 239.182 526.961 261.286 528.537 276.064C531.57 304.477 535.114 323.968 535.114 323.968Z" fill="#ADC6FF"/>
</g>
<path fill-rule="evenodd" clip-rule="evenodd" d="M455.26 362.827C451.624 376.423 421.389 371.807 421.389 371.807L406.569 383.89C404.223 385.514 403.214 383.931 401.937 384.22C398.494 385.007 397.672 381.386 397.672 381.386C396.354 381.09 394.65 382.438 393.389 379.279C393.389 379.279 390.938 379.655 390.1 376.764C389.79 375.688 394.52 361.129 397.344 352.612C398.586 348.871 401.816 346.153 405.708 345.566L441.893 340.11C441.893 340.11 460.15 344.536 455.26 362.827Z" fill="#CE998A"/>
<path d="M423.614 362.316C424.028 362.139 424.506 362.331 424.683 362.745C424.842 363.118 424.702 363.543 424.371 363.753L424.254 363.815L413.566 368.387L402.895 383.101C402.66 383.424 402.231 383.524 401.884 383.356L401.757 383.281C401.434 383.046 401.335 382.617 401.502 382.269L401.577 382.142L412.383 367.247C412.441 367.167 412.512 367.099 412.593 367.046L412.722 366.976L423.614 362.316Z" fill="#965C56"/>
<path d="M416.349 357.829C416.741 357.608 417.237 357.747 417.458 358.139C417.654 358.488 417.566 358.92 417.269 359.166L417.148 359.25L407.336 364.785L398.64 380.018C398.442 380.365 398.027 380.511 397.663 380.382L397.529 380.321C397.182 380.122 397.037 379.707 397.165 379.342L397.227 379.208L406.035 363.781C406.084 363.695 406.147 363.62 406.222 363.558L406.342 363.475L416.349 357.829Z" fill="#965C56"/>
<path d="M409.307 353.677C409.66 353.397 410.172 353.457 410.451 353.81C410.699 354.124 410.679 354.564 410.424 354.854L410.317 354.956L403.71 360.187L395.773 376.537C395.596 376.902 395.184 377.075 394.808 376.962L394.685 376.914C394.321 376.737 394.148 376.324 394.261 375.948L394.309 375.825L402.327 359.307C402.363 359.234 402.409 359.166 402.465 359.107L402.554 359.024L409.307 353.677Z" fill="#965C56"/>
<path fill-rule="evenodd" clip-rule="evenodd" d="M551.225 299.429C551.225 299.429 581.666 293.016 587.85 318.32C594.228 344.415 565.306 351.922 565.306 351.922C565.306 351.922 544.825 356.702 519.611 362.702C504.214 366.365 487.133 370.069 474.348 370.978C460.503 371.963 457.373 364.871 454.282 352.219C450.609 337.196 450.618 330.609 463.436 325.461C475.655 320.55 492.833 316.129 505.99 312.098C531.076 304.414 551.225 299.429 551.225 299.429Z" fill="#ADC6FF"/>
<path fill-rule="evenodd" clip-rule="evenodd" d="M447.904 368.929L440.754 339.671L459.98 332.728L468.159 366.199L447.904 368.929Z" fill="#ADC6FF"/>
<path d="M524.223 242.365C524.68 242.316 525.09 242.647 525.139 243.105L525.384 245.218C525.943 249.793 527.039 257.489 528.617 268.067L534.111 304.393C534.17 304.808 533.912 305.202 533.509 305.314C526.044 307.377 518.418 309.574 510.744 311.894L505.497 313.485L488.121 318.568L485.293 319.406C476.556 322.016 470.282 324.097 464.965 326.234C458.714 328.746 455.673 331.552 454.652 335.588C454.595 335.812 454.449 336 454.251 336.111L454.127 336.168L442.959 340.198L449.751 368.001L461.882 366.368C462.088 366.34 462.295 366.39 462.463 366.506L462.582 366.604C465.39 369.416 469.401 370.583 475.508 370.147C486.282 369.381 500.123 366.747 519.491 362.163L535.574 358.347L566.336 351.11C566.783 351.006 567.231 351.285 567.335 351.733C567.44 352.182 567.161 352.63 566.713 352.734L553.324 355.873C546.744 357.42 539.925 359.029 532.993 360.671L518.734 364.055C499.877 368.493 486.301 371.052 475.626 371.81C469.483 372.248 465.159 371.13 462.017 368.359L461.704 368.073L449.232 369.755C448.857 369.805 448.502 369.597 448.357 369.259L448.313 369.127L441.165 339.869C441.075 339.501 441.244 339.125 441.564 338.944L441.691 338.886L453.156 334.745L453.254 334.42C454.562 330.323 457.818 327.405 463.794 324.912L464.345 324.686L465.473 324.239C470.235 322.379 475.776 320.536 483.083 318.329L489.432 316.452C493.062 315.398 501.293 313 505.408 311.772L506.965 311.302C514.664 308.943 522.331 306.705 529.852 304.6L532.356 303.903L527.089 269.107C525.163 256.217 523.932 247.483 523.484 243.282C523.435 242.824 523.766 242.414 524.223 242.365Z" fill="#597EF7"/>
<path fill-rule="evenodd" clip-rule="evenodd" d="M96.2476 306.161C66.2515 291.906 48.3739 329.291 63.4595 350.106C81.8688 375.507 91.299 404.734 96.5504 413.54C100.98 420.968 113.115 439.078 127.728 430.731C141.176 423.049 133.846 392.898 133.846 392.898C133.846 392.898 133.252 323.746 96.2476 306.161Z" fill="#389E0D"/>
<path fill-rule="evenodd" clip-rule="evenodd" d="M186.471 424.926C196.669 411.104 200.392 391.268 189.01 386.181C178.097 381.304 160.019 393.312 151.646 416.421C143.273 439.53 138.443 456.145 146.633 459.034C160.071 463.774 173.002 443.183 186.471 424.926Z" fill="#389E0D"/>
<path fill-rule="evenodd" clip-rule="evenodd" d="M79.2618 425.976C90.7958 439.555 107.44 466.873 117.867 457.305C124.187 451.507 115.738 424.048 92.6126 409.108C72.9414 396.399 67.7275 412.396 79.2618 425.976Z" fill="#BAE637"/>
<path fill-rule="evenodd" clip-rule="evenodd" d="M189.632 331.739C185.246 328.774 179.728 328.097 174.694 329.717C167.667 331.978 157.004 338.711 146.451 358.034C132.673 383.263 125.501 410.921 126.919 428.44C127.846 439.898 141.895 444.837 149.754 436.483C153.364 432.646 157.183 426.733 160.92 417.761C175.958 381.656 190.018 359.031 191.695 356.76C196.168 350.698 199.367 338.319 189.632 331.739Z" fill="#BAE637"/>
<path fill-rule="evenodd" clip-rule="evenodd" d="M179.547 346.14C179.399 347.923 180.716 349.489 182.491 349.638C184.265 349.788 185.824 348.464 185.973 346.682C186.122 344.899 184.804 343.333 183.029 343.183C181.255 343.034 179.696 344.358 179.547 346.14Z" fill="white"/>
<path fill-rule="evenodd" clip-rule="evenodd" d="M152.163 359.969C152.014 361.752 153.332 363.318 155.106 363.468C156.881 363.617 158.44 362.293 158.589 360.511C158.738 358.728 157.42 357.162 155.645 357.012C153.871 356.863 152.312 358.187 152.163 359.969Z" fill="white"/>
<path fill-rule="evenodd" clip-rule="evenodd" d="M156.753 396.79C156.582 398.832 158.091 400.626 160.124 400.797C162.156 400.968 163.941 399.452 164.111 397.41C164.282 395.369 162.773 393.575 160.741 393.404C158.709 393.233 156.924 394.749 156.753 396.79Z" fill="white"/>
<path fill-rule="evenodd" clip-rule="evenodd" d="M72.6425 341.763C72.6425 344.66 74.98 347.009 77.8639 347.009C80.7477 347.009 83.0852 344.66 83.0852 341.763C83.0852 338.866 80.7477 336.517 77.8639 336.517C74.98 336.517 72.6425 338.866 72.6425 341.763Z" fill="white"/>
<path fill-rule="evenodd" clip-rule="evenodd" d="M114.676 357.782C114.676 360.679 117.014 363.028 119.897 363.028C122.781 363.028 125.119 360.679 125.119 357.782C125.119 354.885 122.781 352.536 119.897 352.536C117.014 352.536 114.676 354.885 114.676 357.782Z" fill="white"/>
<path fill-rule="evenodd" clip-rule="evenodd" d="M101.063 393.391C101.063 394.602 102.04 395.584 103.245 395.584C104.45 395.584 105.427 394.602 105.427 393.391C105.427 392.18 104.45 391.198 103.245 391.198C102.04 391.198 101.063 392.18 101.063 393.391Z" fill="white"/>
<path fill-rule="evenodd" clip-rule="evenodd" d="M85.34 421.431C85.34 423.22 86.7836 424.67 88.5639 424.67C90.3447 424.67 91.7878 423.22 91.7878 421.431C91.7878 419.643 90.3447 418.192 88.5639 418.192C86.7836 418.192 85.34 419.643 85.34 421.431Z" fill="white"/>
<path d="M160.642 428.615C160.342 428.327 159.866 428.339 159.579 428.641L159.442 428.79L159.338 428.906C159.148 429.118 158.929 429.372 158.683 429.666C157.985 430.504 157.208 431.504 156.372 432.666C153.991 435.979 151.612 439.93 149.393 444.516C143.061 457.601 139.263 473.143 139.263 491.085C139.263 491.503 139.6 491.841 140.015 491.841C140.43 491.841 140.767 491.503 140.767 491.085C140.767 473.38 144.51 458.062 150.745 445.176C152.925 440.672 155.259 436.794 157.591 433.55C158.357 432.485 159.071 431.561 159.715 430.781L159.835 430.637C160.018 430.418 160.185 430.223 160.334 430.053L160.522 429.841C160.592 429.764 160.641 429.711 160.667 429.683C160.954 429.381 160.943 428.903 160.642 428.615Z" fill="#253369"/>
<path d="M103.847 433.902C103.598 433.567 103.127 433.499 102.794 433.748C102.462 433.998 102.393 434.471 102.642 434.805C105.38 438.49 107.907 442.451 110.23 446.65C115.143 455.527 118.94 465.044 121.759 474.562C122.746 477.893 123.54 480.985 124.157 483.759L124.282 484.328C124.43 485.006 124.557 485.625 124.666 486.179L124.736 486.542L124.86 487.227C124.929 487.639 125.317 487.916 125.727 487.847C126.136 487.778 126.412 487.388 126.343 486.977L126.3 486.733C126.265 486.537 126.222 486.306 126.171 486.041L126.046 485.412C125.925 484.813 125.785 484.151 125.624 483.429L125.488 482.823C124.884 480.175 124.126 477.256 123.2 474.131C120.352 464.514 116.515 454.898 111.544 445.916C109.189 441.66 106.626 437.642 103.847 433.902Z" fill="#253369"/>
<path d="M90.7094 339.671C90.4217 339.948 90.4008 340.4 90.6537 340.702L90.6868 340.739C90.7016 340.755 90.7333 340.789 90.7816 340.841L90.9664 341.043L91.0739 341.163C91.3974 341.526 91.7736 341.962 92.1982 342.472C93.4155 343.935 94.7736 345.696 96.2376 347.755C100.427 353.648 104.619 360.745 108.533 369.054C115.05 382.888 120.126 398.667 123.202 416.405C126.938 437.944 127.556 461.474 124.499 487.012C124.449 487.426 124.743 487.802 125.155 487.852C125.567 487.902 125.942 487.606 125.991 487.192C129.067 461.508 128.444 437.83 124.683 416.146C121.584 398.271 116.466 382.363 109.892 368.408C105.939 360.016 101.701 352.841 97.4611 346.877L97.1325 346.417C95.8252 344.598 94.6029 343.016 93.4903 341.67L93.3518 341.503C92.9522 341.023 92.5931 340.605 92.278 340.25L92.1931 340.155C92.0947 340.044 92.0066 339.947 91.9291 339.863L91.7724 339.694C91.4851 339.393 91.0092 339.383 90.7094 339.671Z" fill="#253369"/>
<path d="M155.781 384.46C155.426 384.244 154.964 384.358 154.748 384.715L154.673 384.842C154.613 384.944 154.542 385.066 154.461 385.208L154.343 385.415C154.142 385.771 153.915 386.18 153.665 386.642L153.459 387.026C152.694 388.456 151.856 390.111 150.962 391.985L150.839 392.242C147.921 398.385 145.004 405.568 142.283 413.73C134.662 436.584 130.026 462.524 129.853 491.081C129.85 491.498 130.185 491.838 130.6 491.841C131.015 491.843 131.354 491.507 131.356 491.09C131.529 462.7 136.136 436.918 143.708 414.21C146.361 406.255 149.198 399.241 152.038 393.226L152.196 392.893C153.167 390.85 154.07 389.067 154.885 387.551L155.131 387.097C155.366 386.666 155.578 386.287 155.765 385.961L155.853 385.806L156.034 385.498C156.249 385.141 156.136 384.676 155.781 384.46Z" fill="#253369"/>
<path fill-rule="evenodd" clip-rule="evenodd" d="M97.9227 528.549H162.904C166.417 528.549 169.291 525.662 169.291 522.133V474.505C169.291 470.975 166.417 468.088 162.904 468.088H97.9227C94.4103 468.088 91.536 470.975 91.536 474.505V522.133C91.536 525.662 94.4103 528.549 97.9227 528.549Z" fill="#253369"/>
<path d="M564.631 142H595.369C596.27 142 597 141.291 597 140.417V110.583C597 109.709 596.27 109 595.369 109H564.631C563.73 109 563 109.709 563 110.583V140.417C563 141.291 563.73 142 564.631 142Z" fill="#8EA7F8"/>
<path d="M21.4318 413H29.5682C29.8067 413 30 412.807 30 412.568V404.432C30 404.193 29.8067 404 29.5682 404H21.4318C21.1933 404 21 404.193 21 404.432V412.568C21 412.807 21.1933 413 21.4318 413Z" fill="#8EA7F8"/>
<path d="M25.7676 439H40.2324C40.6563 439 41 438.656 41 438.232V423.768C41 423.344 40.6563 423 40.2324 423H25.7676C25.3437 423 25 423.344 25 423.768V438.232C25 438.656 25.3437 439 25.7676 439Z" fill="#597EF7"/>
<path d="M592.816 101H608.184C608.635 101 609 100.656 609 100.232V85.7676C609 85.3437 608.635 85 608.184 85H592.816C592.365 85 592 85.3437 592 85.7676V100.232C592 100.656 592.365 101 592.816 101Z" fill="#597EF7"/>
<path d="M589.247 383H612.753C613.442 383 614 382.484 614 381.849V360.151C614 359.516 613.442 359 612.753 359H589.247C588.558 359 588 359.516 588 360.151V381.849C588 382.484 588.558 383 589.247 383Z" fill="#597EF7"/>
</g>
</svg>
