<svg width="663" height="419" viewBox="0 0 663 419" fill="none" xmlns="http://www.w3.org/2000/svg">
<path d="M632 7.99999C632 3.58172 628.418 0 624 0H8C3.58173 0 0 3.58172 0 8V29.1692H632V7.99999Z" fill="#F4F4F4"/>
<circle cx="17.5012" cy="15.5569" r="4.86154" fill="#4285F4"/>
<path d="M31.1143 11.9918C31.1143 11.2758 31.6947 10.6954 32.4107 10.6954H39.5409C40.2569 10.6954 40.8373 11.2758 40.8373 11.9918V19.1221C40.8373 19.838 40.2569 20.4185 39.5409 20.4185H32.4107C31.6947 20.4185 31.1143 19.838 31.1143 19.1221V11.9918Z" fill="#4285F4"/>
<path d="M53.7821 11.3638C54.2864 10.4726 55.5848 10.4726 56.0891 11.3638L60.1135 18.4767C60.6057 19.3467 59.969 20.4185 58.96 20.4185H50.9112C49.9022 20.4185 49.2655 19.3467 49.7577 18.4767L53.7821 11.3638Z" fill="#4285F4"/>
<mask id="mask0" mask-type="alpha" maskUnits="userSpaceOnUse" x="0" y="29" width="632" height="390">
<path d="M632 29.1693H0V418.092H632V29.1693Z" fill="#F498BF"/>
</mask>
<g mask="url(#mask0)">
<path d="M632 29.1693H0V418.092H632V29.1693Z" fill="#97CCF3"/>
<path fill-rule="evenodd" clip-rule="evenodd" d="M400.978 125.404C400.978 125.404 419.916 122.639 424.941 142.656C443.301 149.313 438.313 169.34 438.313 169.34C438.313 169.34 447.547 185.059 429.243 193.134C427.793 209.25 409.478 206.337 409.478 206.337C409.478 206.337 405.094 218.793 391.172 213.68C376.166 225.374 347.864 223.055 337.803 208.786C317.894 223.679 283.205 205.557 287.542 191.975C264.271 190.588 252.968 165.918 266.581 144.941C256.094 128.368 268.023 118.57 268.023 118.57C268.023 118.57 264.692 80.4827 291.056 75.3308C304.589 54.8079 333.904 71.2618 333.904 71.2618C333.904 71.2618 353.312 67.2149 360.286 84.056C381.978 87.3731 380.973 99.2977 382.651 109.306C402.062 110.388 400.978 125.404 400.978 125.404Z" fill="#253368"/>
<path fill-rule="evenodd" clip-rule="evenodd" d="M340.774 106.861C325.568 109.545 320.935 98.0407 320.935 98.0407C320.935 98.0407 314.644 81.8408 313.047 91.7909C312.198 97.0793 304.015 90.0716 300.261 95.7113C297.737 99.5095 304.065 104.39 295.854 114.514C291.099 120.378 309.886 125.038 298.308 135.85C298.308 135.85 306.561 149.027 292.412 153.34L290.926 168.802C290.061 177.8 297.149 185.58 306.187 185.558L306.189 185.558C314.808 185.536 321.706 178.4 321.437 169.785L320.847 150.936C342.822 150.915 343.865 120.711 340.774 106.861Z" fill="#FFC999"/>
<path d="M312.753 122.965C313.134 122.584 313.752 122.583 314.133 122.964L314.245 123.069C314.295 123.114 314.358 123.168 314.432 123.23L314.553 123.33C314.924 123.633 315.363 123.946 315.864 124.253C318.111 125.63 320.745 126.379 323.686 126.092C324.223 126.04 324.7 126.432 324.752 126.968C324.805 127.505 324.412 127.982 323.876 128.034C320.473 128.367 317.429 127.501 314.844 125.917C313.849 125.308 313.144 124.734 312.755 124.345C312.373 123.964 312.373 123.346 312.753 122.965Z" fill="#F5222D"/>
<path d="M324.732 107.792C325.076 107.816 325.344 108.087 325.374 108.419L325.375 108.729C325.378 108.821 325.384 108.939 325.397 109.083C325.442 109.584 325.546 110.174 325.727 110.849C326.253 112.81 327.299 115.037 329.01 117.483C329.237 117.808 329.146 118.257 328.81 118.468L327.802 119.095C326.497 119.9 325.346 120.575 324.345 121.132L323.977 121.335C323.605 121.539 323.277 121.714 322.991 121.861L322.378 122.167C322.03 122.327 321.618 122.176 321.457 121.828C321.296 121.481 321.448 121.068 321.796 120.908L322.159 120.729L322.571 120.516C322.793 120.4 323.04 120.268 323.311 120.119L324.048 119.709C324.813 119.276 325.663 118.776 326.601 118.205L327.462 117.674L327.229 117.321C325.902 115.269 325.018 113.356 324.5 111.609L324.387 111.209C324.039 109.909 323.954 108.967 323.992 108.435C324.019 108.053 324.35 107.765 324.732 107.792Z" fill="#DD936F"/>
<path d="M314.523 107.616C315.041 107.616 315.461 108.036 315.462 108.554C315.465 112.16 312.753 115.117 309.364 115.119C305.972 115.123 303.255 112.171 303.251 108.564C303.251 108.046 303.67 107.626 304.189 107.625C304.707 107.625 305.127 108.044 305.127 108.562C305.13 111.167 307.044 113.246 309.363 113.243C311.679 113.242 313.588 111.159 313.586 108.555C313.585 108.037 314.005 107.617 314.523 107.616Z" fill="#373A65"/>
<path d="M338.204 108.238C338.696 108.238 339.095 108.636 339.096 109.128C339.099 112.692 336.662 115.643 333.561 115.645C330.459 115.649 328.017 112.703 328.014 109.139C328.013 108.647 328.412 108.248 328.903 108.248C329.395 108.247 329.794 108.646 329.795 109.137C329.797 111.784 331.523 113.867 333.559 113.864C335.594 113.863 337.317 111.776 337.315 109.13C337.314 108.638 337.712 108.239 338.204 108.238Z" fill="#373A65"/>
<path d="M306.153 96.7896C309.405 96.0406 312.665 96.4703 315.607 97.5503C316.308 97.8076 316.822 98.0404 317.114 98.1941C317.572 98.4354 317.748 99.0026 317.507 99.461C317.266 99.9194 316.698 100.095 316.24 99.854L316.014 99.7442L315.923 99.7029C315.646 99.5772 315.323 99.4445 314.961 99.3114C312.331 98.346 309.42 97.9623 306.574 98.6177C305.316 98.9072 304.116 99.3966 302.982 100.107C302.543 100.381 301.964 100.248 301.689 99.8093C301.414 99.3702 301.547 98.7914 301.986 98.5165C303.301 97.6937 304.696 97.1252 306.153 96.7896Z" fill="#373A65"/>
<path d="M306.768 147.209C306.951 146.872 307.372 146.747 307.708 146.93C311.977 149.246 316.398 150.408 320.834 150.464C321.217 150.469 321.523 150.783 321.518 151.166C321.514 151.549 321.199 151.856 320.816 151.851C316.154 151.792 311.512 150.572 307.047 148.149C306.71 147.966 306.585 147.545 306.768 147.209Z" fill="#DD936F"/>
<path fill-rule="evenodd" clip-rule="evenodd" d="M404.228 294.925L403.318 295.412C394.7 300.04 383.964 296.803 379.335 288.185L336.043 207.549C331.418 198.93 334.653 188.194 343.27 183.566L344.178 183.078C352.796 178.451 363.535 181.686 368.162 190.306L411.455 270.942C416.082 279.561 412.845 290.297 404.228 294.925Z" fill="#FFC999"/>
<path fill-rule="evenodd" clip-rule="evenodd" d="M386.477 224.419L367.918 189.851C363.443 181.519 352.556 178.58 343.723 183.322C334.89 188.064 331.325 198.762 335.799 207.095L354.183 241.334L386.477 224.419Z" fill="#597EF7"/>
<path d="M368.139 189.151C368.357 189.034 368.622 189.091 368.775 189.274L368.833 189.361L387.392 223.929C387.51 224.148 387.451 224.415 387.266 224.567L387.178 224.625L354.885 241.54C354.634 241.671 354.324 241.575 354.193 241.324C354.078 241.104 354.138 240.84 354.322 240.689L354.409 240.632L386.244 223.957L367.93 189.845C367.813 189.627 367.87 189.362 368.053 189.209L368.139 189.151Z" fill="#1D39C4"/>
<path fill-rule="evenodd" clip-rule="evenodd" d="M464.193 188.732C468.982 192.262 470.398 198.599 467.405 203.12L409.612 290.371C404.011 298.195 392.484 299.47 383.98 293.205C375.403 286.885 373.251 275.37 379.22 267.715L449.801 189.581C453.317 185.687 459.558 185.319 464.193 188.732Z" fill="#FFC999"/>
<path fill-rule="evenodd" clip-rule="evenodd" d="M481.696 200.986C481.696 200.986 464.307 209.043 455.185 201.018C446.924 193.75 452.675 185.477 452.675 185.477C452.675 185.477 456.968 176.248 465.597 168.91C471.28 164.076 483.147 156.037 486.439 158.835C490.73 162.486 474.553 168.655 476.784 172.038C479.074 175.509 481.414 175.947 489.711 174.888C494.896 174.226 500.205 171.778 504.786 172.045C513.743 172.568 509.013 191.115 481.696 200.986Z" fill="#FFC999"/>
<path d="M505.392 174.271C505.71 174.091 506.114 174.202 506.294 174.52C506.475 174.838 506.364 175.242 506.046 175.422C501.066 178.251 496.475 180.002 492.377 180.897C490.935 181.212 489.656 181.397 488.552 181.48L488.086 181.51C487.659 181.532 487.346 181.532 487.155 181.522C486.79 181.503 486.509 181.192 486.528 180.827C486.547 180.462 486.858 180.181 487.223 180.2L487.413 180.205C487.643 180.206 487.991 180.195 488.453 180.16C489.496 180.081 490.714 179.905 492.095 179.604C496.063 178.737 500.529 177.034 505.392 174.271Z" fill="#DD936F"/>
<path d="M504.015 178.797C504.307 178.577 504.722 178.637 504.941 178.929C505.161 179.222 505.101 179.637 504.809 179.856L504.531 180.055C504.41 180.14 504.262 180.242 504.085 180.359C503.502 180.748 502.818 181.174 502.035 181.626C499.804 182.915 497.233 184.153 494.353 185.239C492.274 186.023 490.106 186.698 487.858 187.244C487.502 187.331 487.144 187.113 487.058 186.757C486.972 186.402 487.19 186.044 487.545 185.958C489.74 185.425 491.856 184.765 493.885 184C496.695 182.94 499.202 181.734 501.373 180.48L502.098 180.052C502.56 179.772 502.978 179.507 503.351 179.258L503.868 178.903C503.929 178.86 503.978 178.824 504.015 178.797Z" fill="#DD936F"/>
<path d="M499.771 185.782C500.097 185.617 500.495 185.748 500.66 186.074C500.825 186.4 500.695 186.798 500.369 186.963C496.094 189.128 492.571 190.607 489.75 191.526L489.033 191.752C488.346 191.961 487.745 192.119 487.23 192.234L486.902 192.304C486.803 192.323 486.716 192.34 486.64 192.353L486.372 192.393L486.118 192.371L485.712 192.266C485.577 192.233 485.416 192.195 485.232 192.154C482.165 191.468 478.647 191.146 475.232 191.585C471.321 192.087 468.121 193.549 465.894 196.171C465.657 196.449 465.239 196.483 464.961 196.247C464.682 196.01 464.648 195.592 464.885 195.314C467.349 192.412 470.85 190.812 475.063 190.272C478.655 189.811 482.317 190.146 485.521 190.862L486.171 191.016L486.341 191.059L486.654 191.003L486.942 190.942C487.587 190.798 488.384 190.578 489.34 190.267C492.093 189.37 495.554 187.917 499.771 185.782Z" fill="#DD936F"/>
<path d="M475.549 173.859C475.908 173.924 476.147 174.269 476.081 174.629L475.978 175.104L475.832 175.679C475.778 175.879 475.718 176.088 475.651 176.304C475.272 177.538 474.771 178.756 474.131 179.876C472.679 182.416 470.724 184.084 468.194 184.451C467.832 184.503 467.496 184.252 467.444 183.89C467.391 183.529 467.642 183.193 468.004 183.14C470.069 182.841 471.713 181.438 472.982 179.219C473.568 178.192 474.033 177.062 474.386 175.914C474.51 175.512 474.61 175.137 474.69 174.8L474.779 174.391C474.844 174.031 475.189 173.793 475.549 173.859Z" fill="#DD936F"/>
<path fill-rule="evenodd" clip-rule="evenodd" d="M326.26 341.371C339.066 332.857 356.148 336.216 364.082 348.811L449.381 484.216C455.951 494.646 452.729 508.598 442.124 515.649C431.52 522.701 417.407 520.27 410.332 510.178L318.486 379.124C309.942 366.934 313.454 349.885 326.26 341.371Z" fill="#F4B784"/>
<path fill-rule="evenodd" clip-rule="evenodd" d="M279.814 335.104C294.462 330.42 310.094 338.714 314.428 353.471L361.022 512.112C364.61 524.331 357.791 537.181 345.662 541.059C333.532 544.936 320.525 538.426 316.359 526.392L262.275 370.145C257.245 355.612 265.165 339.788 279.814 335.104Z" fill="#FFC999"/>
<path fill-rule="evenodd" clip-rule="evenodd" d="M349.627 299.822C365.329 301.122 429.428 376.857 456.693 400.861C454.784 408.001 402.68 455.818 402.68 455.818C402.68 455.818 403.88 461.516 404.619 464.937C391.166 475.902 365.214 481.776 365.214 481.776L365.136 486.666C323.601 505.567 268.174 487.028 268.174 487.028C268.174 487.028 267.143 485.964 267.905 482.132C249.083 481.83 208.892 457.773 208.892 457.773L214.674 445.985L198.174 428.949C198.174 428.949 243.3 346.808 257.18 323.838C269.363 303.674 280.734 297.903 280.734 297.903C280.734 297.903 321.763 297.515 349.627 299.822Z" fill="#4E5C93"/>
<path d="M278.006 317.333C278.177 316.988 278.596 316.846 278.941 317.017C279.252 317.171 279.398 317.526 279.299 317.847L279.257 317.953L210.483 456.88L210.995 457.26L211.251 457.447C212.263 458.183 213.46 459.013 214.835 459.92C218.767 462.514 223.333 465.199 228.48 467.833C240.393 473.929 253.546 478.806 267.694 481.794C268.071 481.874 268.313 482.244 268.233 482.621C268.153 482.999 267.783 483.24 267.406 483.16C253.129 480.145 239.861 475.225 227.844 469.076C222.996 466.595 218.657 464.068 214.869 461.61L214.066 461.085C213.022 460.396 212.078 459.75 211.237 459.155L210.169 458.385L209.171 457.634C208.941 457.452 208.851 457.149 208.937 456.877L208.978 456.776L278.006 317.333Z" fill="#253368"/>
<path d="M360.687 345.998C361.012 345.876 361.37 346.013 361.537 346.305L361.585 346.408L405.962 465.404C406.076 465.71 405.962 466.055 405.688 466.233L405.298 466.48C404.982 466.678 404.609 466.907 404.182 467.162L403.233 467.723C402.249 468.297 401.159 468.911 399.971 469.553C395.447 471.998 390.423 474.371 385.033 476.487C378.589 479.015 372.051 481.001 365.528 482.29C365.15 482.365 364.783 482.119 364.708 481.74C364.634 481.362 364.88 480.995 365.258 480.92C371.694 479.649 378.153 477.687 384.523 475.187C389.857 473.094 394.83 470.745 399.307 468.325L400.448 467.7C401.372 467.188 402.226 466.699 403.005 466.238L404.16 465.543L404.455 465.361L360.277 346.896C360.156 346.57 360.292 346.212 360.584 346.046L360.687 345.998Z" fill="#253368"/>
<path d="M331.703 302.395C332.081 302.321 332.448 302.568 332.521 302.946L334.789 314.655C335.804 319.924 336.894 325.61 338.045 331.646L338.919 336.237C343.695 361.357 348.428 386.781 352.784 410.935L354.842 422.409C359.339 447.637 363.061 469.558 365.814 487.258C365.867 487.594 365.669 487.919 365.346 488.027C360.021 489.811 354.532 491.242 348.9 492.338C323.151 497.346 296.991 495.246 274.186 489.597L272.932 489.281C271.71 488.968 270.589 488.664 269.572 488.374L268.216 487.977L267.258 487.68C266.959 487.582 266.767 487.298 266.778 486.992L266.792 486.877L298.743 330.376C298.82 329.999 299.189 329.755 299.567 329.832C299.907 329.902 300.138 330.207 300.125 330.543L300.111 330.656L268.285 486.539L269.462 486.89L270.467 487.176C271.68 487.516 273.034 487.874 274.522 488.242C297.147 493.847 323.115 495.931 348.633 490.967C353.7 489.982 358.648 488.722 363.463 487.176L364.343 486.886L363.201 479.659C360.732 464.253 357.637 446.118 354.019 425.755L352.425 416.823L351.41 411.183C347.567 389.874 343.431 367.577 339.231 345.372L336.962 333.423C335.608 326.315 334.335 319.675 333.166 313.611L331.151 303.214C331.077 302.835 331.324 302.469 331.703 302.395Z" fill="#253368"/>
<path d="M315.05 305C315.397 305.022 315.669 305.292 315.703 305.626L315.705 305.74L307.778 435.982C307.755 436.367 307.424 436.659 307.039 436.636C306.693 436.615 306.421 436.345 306.387 436.01L306.385 435.897L314.311 305.655C314.335 305.27 314.666 304.977 315.05 305Z" fill="#253368"/>
<path d="M296.399 301.584C296.73 301.689 296.928 302.017 296.88 302.349L296.855 302.46L268.88 391.126C268.764 391.493 268.372 391.697 268.005 391.581C267.674 391.477 267.476 391.149 267.524 390.816L267.549 390.705L295.523 302.04C295.628 301.709 295.956 301.511 296.288 301.559L296.399 301.584Z" fill="#253368"/>
<path fill-rule="evenodd" clip-rule="evenodd" d="M277.726 299.499L278.95 290.526C278.95 290.526 317.041 292.726 351.821 291.137C352.683 295.127 351.02 300.476 351.02 300.476C348.108 298.063 316.492 304.936 277.726 299.499Z" fill="#4E5C93"/>
<path d="M347.289 299.762C347.674 299.746 348 300.045 348.016 300.43C348.032 300.816 347.733 301.141 347.348 301.157L343.74 301.303C328.744 301.882 314.259 302.096 301.36 302.012L299.819 302.001C295.226 301.962 291.084 301.886 287.755 301.786L285.267 301.701C284.238 301.661 283.377 301.62 282.728 301.58L282.494 301.565C282.095 301.539 281.797 301.514 281.604 301.49C281.479 301.474 281.39 301.459 281.309 301.434L281.255 301.428C281.19 301.411 281.133 301.35 280.849 301.045L280.934 300.584C281.029 300.1 281.07 300.097 281.273 300.078C281.419 300.028 281.57 300.03 281.707 300.073L281.787 300.105L282.245 300.148L283.064 300.201C283.841 300.246 284.88 300.292 286.12 300.336L288.392 300.408C291.604 300.499 295.518 300.569 299.831 300.605C314.111 300.725 330.434 300.476 347.289 299.762Z" fill="#253368"/>
<path fill-rule="evenodd" clip-rule="evenodd" d="M350.765 206.266C353.57 214.685 358.878 229.227 358.73 238.436C358.491 253.366 347.668 263.313 347.668 263.313C347.668 263.313 348.047 258.955 342.933 297.146C298.011 300.069 270.805 288.78 270.805 288.78L272.772 278.723L268.233 253.949C268.233 253.949 264.857 244.539 258.098 223.629C253.397 209.092 255.704 191.958 257.546 182.864C258.337 178.968 261.441 175.958 265.362 175.305C279.061 173.018 284.108 173.449 284.108 173.449L286.317 164.817C286.695 163.339 288.103 162.364 289.621 162.53L322.02 166.066C323.412 166.217 324.525 167.293 324.724 168.678L326.087 178.198L354.548 181.706C357.63 182.668 350.881 188.14 350.863 191.368L350.765 206.266Z" fill="#597EF7"/>
<path d="M322.369 177.525C322.676 177.558 322.898 177.834 322.864 178.141C322.834 178.414 322.613 178.619 322.349 178.638L322.248 178.636L293.073 175.454C292.766 175.42 292.544 175.144 292.578 174.837C292.607 174.565 292.829 174.359 293.093 174.34L293.194 174.342L322.369 177.525Z" fill="#1D39C4"/>
<path d="M283.581 170.91C283.883 170.721 284.271 170.783 284.5 171.042L284.57 171.135L311.129 213.329L327.035 178.409C327.182 178.085 327.542 177.923 327.875 178.014L327.985 178.054C328.309 178.202 328.471 178.561 328.38 178.894L328.34 179.004L311.884 215.134C311.663 215.619 311.022 215.693 310.69 215.308L310.624 215.219L283.356 171.9C283.145 171.564 283.246 171.122 283.581 170.91Z" fill="#C9D4EA"/>
<path fill-rule="evenodd" clip-rule="evenodd" d="M319.73 218.815C322.369 224.626 320.165 231.31 314.806 233.745C309.445 236.18 302.96 233.445 300.321 227.636C297.681 221.825 299.886 215.141 305.247 212.707C310.606 210.271 317.09 213.006 319.73 218.815Z" fill="#C9D4EA"/>
<path fill-rule="evenodd" clip-rule="evenodd" d="M320.895 218.916C323.536 224.725 321.33 231.41 315.971 233.845C310.61 236.28 304.125 233.544 301.487 227.735C298.846 221.925 301.052 215.241 306.412 212.807C311.771 210.372 318.255 213.106 320.895 218.916Z" fill="#F0F0F5"/>
<path fill-rule="evenodd" clip-rule="evenodd" d="M318.738 219.643C320.788 224.154 319.076 229.342 314.914 231.233C310.754 233.124 305.719 231 303.668 226.49C301.62 221.98 303.331 216.79 307.491 214.899C311.653 213.007 316.688 215.131 318.738 219.643Z" fill="#FAAD14"/>
<path d="M257.623 182.31C257.929 182.352 258.143 182.635 258.1 182.94L257.78 185.387C257.683 186.151 257.583 186.965 257.48 187.82C257.04 191.485 256.65 195.157 256.357 198.593L256.255 199.827C255.884 204.482 255.743 208.239 255.887 210.79C256.049 213.663 257.329 218.648 259.45 225.124C259.812 226.229 260.195 227.368 260.598 228.535C261.521 231.212 262.51 233.945 263.521 236.638L264.502 239.223L265.613 242.078L265.968 242.979L266.016 243.112L273.815 278.837L273.816 279.071L271.744 288.955L272.286 289.127L273.208 289.406L274.309 289.727C275.638 290.108 277.126 290.509 278.763 290.922C297.159 295.559 318.778 298.118 341.681 296.558L342.545 296.495L342.963 293.426L344.776 280.794L347.162 264.457L347.258 264.216L347.652 263.642L348.05 263.046C348.258 262.731 348.479 262.391 348.711 262.029C349.815 260.304 350.943 258.419 352.027 256.437C353.63 253.507 354.995 250.624 356.025 247.882C357.048 245.161 357.708 242.66 357.951 240.438C358.549 234.959 358.267 230.695 357.077 226.163C356.501 223.972 355.712 221.682 354.541 218.735L353.933 217.232L350.079 208.027L350.038 207.773L350.688 198.628C350.71 198.32 350.977 198.089 351.285 198.11C351.559 198.13 351.773 198.343 351.802 198.607L351.803 198.708L351.162 207.717L354.655 216.053L355.34 217.719L355.814 218.913C356.873 221.62 357.609 223.788 358.158 225.879C359.384 230.546 359.675 234.948 359.062 240.56C358.808 242.885 358.125 245.473 357.072 248.275C356.022 251.071 354.634 254.001 353.008 256.974C352.067 258.693 351.095 260.339 350.132 261.874L349.652 262.632C349.339 263.121 349.046 263.57 348.776 263.974L348.249 264.749L344.435 291.004C343.962 294.328 343.67 296.444 343.601 297.081C343.572 297.349 343.356 297.558 343.087 297.578C319.562 299.341 297.348 296.759 278.49 292.006C276.605 291.531 274.916 291.071 273.435 290.639L272.249 290.285L270.977 289.884C270.953 289.876 270.932 289.869 270.915 289.863C270.68 289.784 270.529 289.562 270.534 289.322L270.546 289.219L272.696 278.958L264.951 243.44L264.286 241.759L263.674 240.184C263.532 239.817 263.387 239.437 263.238 239.047C261.961 235.704 260.699 232.258 259.54 228.899L258.949 227.163C258.853 226.877 258.758 226.593 258.664 226.311L258.387 225.472C256.236 218.904 254.94 213.855 254.771 210.853C254.617 208.132 254.778 204.124 255.188 199.152L255.243 198.498C255.495 195.541 255.818 192.412 256.184 189.263L256.37 187.687C256.499 186.615 256.624 185.607 256.743 184.681L256.993 182.788C257.035 182.482 257.317 182.268 257.623 182.31Z" fill="#1D39C4"/>
<path fill-rule="evenodd" clip-rule="evenodd" d="M334.966 300.528C336.219 294.946 332.856 289.367 327.336 287.863L220.776 258.851C210.896 256.507 201.004 262.691 198.784 272.6C196.545 282.597 202.983 292.473 213.031 294.463L323.143 308.801C328.63 309.516 333.758 305.929 334.966 300.528Z" fill="#FFC999"/>
<path fill-rule="evenodd" clip-rule="evenodd" d="M206.62 291.799L206.936 291.995C215.571 297.336 226.901 294.667 232.243 286.033L283.575 203.058C288.916 194.423 286.247 183.092 277.613 177.751L277.296 177.555C268.662 172.212 257.332 174.883 251.989 183.517L200.659 266.492C195.317 275.127 197.986 286.456 206.62 291.799Z" fill="#FFC999"/>
<path fill-rule="evenodd" clip-rule="evenodd" d="M231.048 217.369L253.339 181.337C258.712 172.651 270.214 169.941 278.903 175.314C287.588 180.687 290.297 192.19 284.924 200.876L262.846 236.567L231.048 217.369Z" fill="#597EF7"/>
<path d="M280.626 205.406C280.788 205.142 281.132 205.059 281.395 205.22C281.629 205.364 281.721 205.652 281.625 205.899L281.58 205.989L262.865 236.576C262.722 236.809 262.436 236.901 262.189 236.807L262.099 236.762L230.302 217.565C230.038 217.405 229.953 217.061 230.113 216.797C230.255 216.562 230.542 216.469 230.79 216.563L230.88 216.607L262.2 235.518L280.626 205.406Z" fill="#1D39C4"/>
<path fill-rule="evenodd" clip-rule="evenodd" d="M342.978 316.712C342.978 316.712 323.253 314.713 320.162 303.442C317.361 293.232 327.206 289.21 327.206 289.21C327.206 289.21 336.362 283.662 348.127 281.863C355.877 280.68 370.846 279.923 372.017 283.909C373.546 289.108 356.555 288.979 356.472 292.922C356.385 296.966 359.894 297.254 367.657 300.53C372.507 302.578 378.097 302.688 381.88 305.21C389.272 310.134 372.315 322.173 342.978 316.712Z" fill="#FFC999"/>
<path d="M357.197 303.276C357.43 302.972 357.865 302.914 358.169 303.147L358.43 303.334C358.583 303.439 358.784 303.571 359.032 303.726C359.767 304.185 360.638 304.664 361.642 305.14C366.624 307.499 372.706 308.838 379.761 308.415C380.144 308.392 380.472 308.684 380.495 309.066C380.518 309.449 380.227 309.777 379.844 309.8C372.543 310.237 366.231 308.848 361.048 306.393C359.995 305.895 359.077 305.39 358.298 304.903L357.928 304.667C357.651 304.486 357.449 304.343 357.326 304.249C357.022 304.016 356.964 303.58 357.197 303.276Z" fill="#DD936F"/>
<path d="M353.385 309.555C353.552 309.21 353.967 309.066 354.312 309.233C359.582 311.788 365.356 312.814 370.732 312.84L371.438 312.837C371.663 312.833 371.877 312.828 372.08 312.821L372.786 312.786C372.855 312.781 372.909 312.777 372.948 312.773C373.329 312.739 373.667 313.02 373.701 313.401C373.736 313.783 373.454 314.12 373.073 314.155L372.76 314.177C372.668 314.183 372.561 314.189 372.44 314.194C371.939 314.218 371.365 314.23 370.725 314.227C365.159 314.2 359.19 313.14 353.707 310.481C353.362 310.314 353.218 309.899 353.385 309.555Z" fill="#DD936F"/>
<path d="M347.077 313.084C347.279 312.759 347.707 312.659 348.032 312.861L348.166 312.938C348.252 312.987 348.368 313.048 348.513 313.122L348.668 313.199C349.23 313.476 349.918 313.772 350.732 314.074C354.129 315.332 358.535 316.278 364.008 316.65C364.39 316.676 364.679 317.007 364.653 317.389C364.627 317.772 364.296 318.06 363.914 318.034C358.309 317.653 353.772 316.679 350.25 315.375C349.534 315.109 348.907 314.846 348.368 314.594L348.055 314.444C347.684 314.261 347.434 314.122 347.301 314.039C346.975 313.837 346.875 313.41 347.077 313.084Z" fill="#DD936F"/>
<path d="M399.414 245.252C399.666 244.987 400.085 244.976 400.35 245.227C400.586 245.451 400.621 245.807 400.449 246.07L400.374 246.163L387.419 259.812C387.168 260.077 386.749 260.088 386.483 259.836C386.248 259.613 386.213 259.257 386.385 258.994L386.459 258.9L399.414 245.252Z" fill="#DD936F"/>
<mask id="mask1" mask-type="alpha" maskUnits="userSpaceOnUse" x="92" y="59" width="516" height="340">
<rect width="515.104" height="338.962" transform="matrix(-1 0 0 1 607.764 59.6605)" fill="#F498BF"/>
</mask>
<g mask="url(#mask1)">
</g>
<g opacity="0.1">
<path d="M141.5 181.12C105.739 181.12 76.749 151.741 76.749 115.5C76.749 79.259 105.739 49.8799 141.5 49.8799C177.261 49.8799 206.251 79.259 206.251 115.5C206.251 151.741 177.261 181.12 141.5 181.12Z" fill="#4E5C93"/>
<path d="M141.5 176.433C108.293 176.433 81.3742 149.152 81.3742 115.5C81.3742 81.8478 108.293 54.5672 141.5 54.5672C174.707 54.5672 201.626 81.8478 201.626 115.5C201.626 149.152 174.707 176.433 141.5 176.433Z" fill="#A3B5D6"/>
<path d="M141.5 174.236C109.491 174.236 83.5422 147.939 83.5422 115.5C83.5422 83.0609 109.491 56.764 141.5 56.764C173.509 56.764 199.458 83.0609 199.458 115.5C199.458 147.939 173.509 174.236 141.5 174.236Z" fill="#F4F6FB"/>
<path d="M141.5 78.1374C140.223 78.1374 139.187 79.1866 139.187 80.4809V113.782H143.812V80.4809C143.812 79.1866 142.777 78.1374 141.5 78.1374Z" fill="#253368"/>
<path d="M117.953 115.5C117.953 116.794 118.988 117.844 120.266 117.844H141.501V113.156H120.266C118.988 113.156 117.953 114.206 117.953 115.5Z" fill="#253368"/>
<path d="M141.5 120.919C138.546 120.919 136.152 118.493 136.152 115.5C136.152 112.507 138.546 110.08 141.5 110.08C144.453 110.08 146.848 112.507 146.848 115.5C146.848 118.493 144.453 120.919 141.5 120.919Z" fill="#A3B5D6"/>
<path d="M139.193 66.2848C139.193 64.9905 140.229 63.9412 141.506 63.9412C142.783 63.9412 143.818 64.9905 143.818 66.2848V70.972C143.818 72.2663 142.783 73.3155 141.506 73.3155C140.229 73.3155 139.193 72.2663 139.193 70.972V66.2848Z" fill="#CED7EC"/>
<path d="M177.479 79.0452C176.576 78.1299 175.112 78.1299 174.209 79.0452L170.938 82.3595C170.035 83.2747 170.035 84.7586 170.938 85.6738C171.841 86.589 173.306 86.589 174.209 85.6738L177.479 82.3595C178.382 81.4443 178.382 79.9604 177.479 79.0452Z" fill="#CED7EC"/>
<path d="M192.376 115.506C192.376 114.211 191.341 113.162 190.063 113.162H185.438C184.161 113.162 183.126 114.211 183.126 115.506C183.126 116.8 184.161 117.849 185.438 117.849H190.063C191.341 117.849 192.376 116.8 192.376 115.506Z" fill="#CED7EC"/>
<path d="M177.471 151.962C178.374 151.047 178.374 149.563 177.471 148.648L174.201 145.334C173.298 144.418 171.833 144.418 170.93 145.334C170.027 146.249 170.027 147.733 170.93 148.648L174.201 151.962C175.104 152.877 176.568 152.877 177.471 151.962Z" fill="#CED7EC"/>
<path d="M143.807 164.715C143.807 166.009 142.771 167.059 141.494 167.059C140.217 167.059 139.182 166.009 139.182 164.715V160.028C139.182 158.734 140.217 157.684 141.494 157.684C142.771 157.684 143.807 158.734 143.807 160.028V164.715Z" fill="#CED7EC"/>
<path d="M105.522 151.953C106.425 152.868 107.889 152.868 108.792 151.953L112.063 148.639C112.966 147.724 112.966 146.24 112.063 145.324C111.16 144.409 109.695 144.409 108.792 145.324L105.522 148.639C104.619 149.554 104.619 151.038 105.522 151.953Z" fill="#CED7EC"/>
<path d="M90.625 115.494C90.625 116.788 91.6604 117.837 92.9375 117.837H97.5626C98.8398 117.837 99.8752 116.788 99.8752 115.494C99.8752 114.2 98.8398 113.15 97.5626 113.15H92.9375C91.6604 113.15 90.625 114.2 90.625 115.494Z" fill="#CED7EC"/>
<path d="M105.529 79.0391C104.626 79.9543 104.626 81.4381 105.529 82.3534L108.799 85.6677C109.702 86.5829 111.167 86.5829 112.07 85.6677C112.973 84.7525 112.973 83.2686 112.07 82.3534L108.799 79.0391C107.896 78.1238 106.432 78.1238 105.529 79.0391Z" fill="#CED7EC"/>
</g>
<path fill-rule="evenodd" clip-rule="evenodd" d="M36.3313 126.934C-7.5569 106.017 -33.7142 160.873 -11.642 191.416C15.2932 228.687 29.0908 271.573 36.7744 284.494C43.256 295.394 61.011 321.968 82.3909 309.72C102.067 298.447 91.343 254.206 91.343 254.206C91.343 254.206 90.4739 152.737 36.3313 126.934Z" fill="#389E0D"/>
<path fill-rule="evenodd" clip-rule="evenodd" d="M168.34 301.202C183.26 280.92 188.708 251.814 172.054 244.35C156.087 237.194 129.638 254.813 117.387 288.722C105.136 322.631 98.0683 347.01 110.052 351.249C129.713 358.204 148.633 327.99 168.34 301.202Z" fill="#389E0D"/>
<path fill-rule="evenodd" clip-rule="evenodd" d="M11.4788 302.742C28.3547 322.668 52.7073 362.752 67.9638 348.713C77.2102 340.205 64.849 299.913 31.0128 277.991C2.23125 259.343 -5.3974 282.816 11.4788 302.742Z" fill="#BAE637"/>
<path fill-rule="evenodd" clip-rule="evenodd" d="M172.965 164.465C166.548 160.115 158.474 159.122 151.108 161.499C140.828 164.816 125.227 174.695 109.786 203.049C89.627 240.068 79.1327 280.651 81.2072 306.358C82.5633 323.17 103.119 330.418 114.619 318.16C119.9 312.53 125.488 303.852 130.956 290.688C152.958 237.711 173.53 204.512 175.983 201.179C182.528 192.284 187.208 174.121 172.965 164.465Z" fill="#BAE637"/>
<path fill-rule="evenodd" clip-rule="evenodd" d="M158.209 185.596C157.991 188.212 159.919 190.51 162.515 190.729C165.111 190.949 167.392 189.006 167.61 186.391C167.828 183.775 165.9 181.477 163.304 181.257C160.708 181.038 158.427 182.981 158.209 185.596Z" fill="white"/>
<path fill-rule="evenodd" clip-rule="evenodd" d="M118.142 205.888C117.924 208.504 119.852 210.802 122.449 211.021C125.045 211.241 127.326 209.299 127.544 206.683C127.761 204.067 125.833 201.769 123.237 201.549C120.641 201.33 118.36 203.273 118.142 205.888Z" fill="white"/>
<path fill-rule="evenodd" clip-rule="evenodd" d="M124.858 259.917C124.608 262.913 126.816 265.544 129.789 265.796C132.762 266.047 135.374 263.822 135.624 260.827C135.873 257.831 133.665 255.2 130.692 254.948C127.719 254.697 125.107 256.921 124.858 259.917Z" fill="white"/>
<path fill-rule="evenodd" clip-rule="evenodd" d="M1.79279 179.173C1.79279 183.425 5.21289 186.871 9.43233 186.871C13.6518 186.871 17.0719 183.425 17.0719 179.173C17.0719 174.922 13.6518 171.476 9.43233 171.476C5.21289 171.476 1.79279 174.922 1.79279 179.173Z" fill="white"/>
<path fill-rule="evenodd" clip-rule="evenodd" d="M63.2935 202.679C63.2935 206.93 66.714 210.376 70.933 210.376C75.1525 210.376 78.5726 206.93 78.5726 202.679C78.5726 198.428 75.1525 194.982 70.933 194.982C66.714 194.982 63.2935 198.428 63.2935 202.679Z" fill="white"/>
<path fill-rule="evenodd" clip-rule="evenodd" d="M43.3751 254.929C43.3751 256.705 44.8049 258.146 46.5683 258.146C48.3316 258.146 49.7614 256.705 49.7614 254.929C49.7614 253.152 48.3316 251.711 46.5683 251.711C44.8049 251.711 43.3751 253.152 43.3751 254.929Z" fill="white"/>
<path fill-rule="evenodd" clip-rule="evenodd" d="M20.3708 296.073C20.3708 298.698 22.4831 300.826 25.0879 300.826C27.6935 300.826 29.8049 298.698 29.8049 296.073C29.8049 293.449 27.6935 291.321 25.0879 291.321C22.4831 291.321 20.3708 293.449 20.3708 296.073Z" fill="white"/>
<path d="M130.549 306.615C130.109 306.193 129.413 306.209 128.994 306.652L128.793 306.871L128.64 307.041C128.363 307.353 128.042 307.725 127.683 308.157C126.66 309.386 125.523 310.853 124.301 312.559C120.817 317.42 117.336 323.218 114.09 329.946C104.825 349.147 99.2685 371.952 99.2685 398.28C99.2685 398.892 99.761 399.388 100.368 399.388C100.976 399.388 101.468 398.892 101.468 398.28C101.468 372.3 106.945 349.823 116.068 330.916C119.258 324.306 122.673 318.616 126.084 313.857C127.205 312.293 128.249 310.938 129.193 309.794L129.368 309.582C129.636 309.26 129.88 308.974 130.098 308.725L130.374 308.414C130.476 308.3 130.547 308.223 130.586 308.182C131.005 307.739 130.988 307.038 130.549 306.615Z" fill="#253369"/>
<path d="M47.4492 314.372C47.0858 313.882 46.3966 313.781 45.9098 314.147C45.423 314.513 45.3231 315.208 45.6865 315.698C49.6926 321.104 53.3897 326.917 56.7896 333.078C63.9769 346.103 69.5337 360.068 73.6581 374.034C75.1016 378.921 76.2627 383.459 77.1665 387.529L77.3495 388.364C77.5652 389.359 77.7517 390.267 77.9103 391.081L78.0127 391.613L78.1953 392.619C78.2962 393.222 78.8635 393.629 79.4626 393.527C80.0616 393.426 80.4655 392.854 80.3646 392.251L80.3021 391.894C80.2504 391.606 80.1873 391.267 80.1124 390.878L79.9306 389.955C79.7537 389.076 79.5483 388.104 79.3133 387.045L79.1133 386.156C78.2296 382.27 77.1209 377.987 75.7666 373.401C71.5994 359.291 65.9844 345.18 58.7123 332.001C55.2661 325.756 51.5162 319.86 47.4492 314.372Z" fill="#253369"/>
<path d="M28.228 176.105C27.8069 176.511 27.7764 177.174 28.1465 177.618L28.1948 177.672C28.2164 177.695 28.2629 177.744 28.3335 177.821L28.6039 178.118L28.7612 178.294C29.2345 178.826 29.785 179.466 30.4063 180.215C32.1873 182.362 34.1744 184.945 36.3164 187.967C42.4461 196.613 48.5796 207.027 54.3066 219.219C63.8419 239.519 71.2683 262.671 75.7692 288.699C81.2346 320.304 82.1397 354.83 77.6659 392.302C77.5934 392.91 78.0235 393.462 78.6266 393.535C79.2298 393.608 79.7775 393.175 79.8501 392.567C84.3494 354.88 83.4386 320.137 77.9364 288.319C73.4008 262.09 65.9134 238.748 56.295 218.271C50.5106 205.957 44.3104 195.429 38.1065 186.678L37.6258 186.004C35.713 183.335 33.9247 181.013 32.2968 179.038L32.0941 178.793C31.5095 178.089 30.9841 177.476 30.523 176.954L30.3988 176.814C30.2549 176.652 30.126 176.51 30.0126 176.386L29.7832 176.138C29.3629 175.696 28.6666 175.681 28.228 176.105Z" fill="#253369"/>
<path d="M123.436 241.825C122.917 241.508 122.24 241.675 121.925 242.199L121.815 242.385C121.727 242.536 121.624 242.714 121.505 242.922L121.333 243.226C121.037 243.748 120.706 244.349 120.341 245.026L120.039 245.59C118.92 247.689 117.694 250.117 116.385 252.867L116.206 253.244C111.936 262.257 107.668 272.797 103.686 284.774C92.5365 318.308 85.7534 356.37 85.4996 398.273C85.496 398.885 85.9854 399.384 86.5929 399.388C87.2003 399.391 87.6958 398.898 87.6995 398.286C87.9518 356.629 94.6937 318.798 105.772 285.478C109.653 273.805 113.805 263.513 117.96 254.687L118.191 254.199C119.611 251.2 120.933 248.584 122.126 246.36L122.485 245.695C122.829 245.061 123.139 244.505 123.412 244.027L123.542 243.8L123.807 243.347C124.122 242.824 123.956 242.142 123.436 241.825Z" fill="#253369"/>
<path fill-rule="evenodd" clip-rule="evenodd" d="M38.7819 453.251H133.859C138.998 453.251 143.203 449.015 143.203 443.836V373.95C143.203 368.771 138.998 364.535 133.859 364.535H38.7819C33.6427 364.535 29.4373 368.771 29.4373 373.95V443.836C29.4373 449.015 33.6427 453.251 38.7819 453.251Z" fill="#253369"/>
</g>
<path d="M459.227 43.1484H403.511C382.635 43.1484 365.711 60.0721 365.711 80.9484C365.711 101.825 382.635 118.748 403.511 118.748H459.227C480.103 118.748 497.027 101.825 497.027 80.9484C497.027 60.0721 480.103 43.1484 459.227 43.1484Z" fill="#597EF7"/>
<path fill-rule="evenodd" clip-rule="evenodd" d="M383.922 107.753V127.542C383.922 128.412 384.627 129.117 385.497 129.117C385.905 129.117 386.297 128.958 386.59 128.675L401.132 114.644L383.922 107.753Z" fill="#597EF7"/>
<path d="M406.07 85.6734C409.441 85.6734 412.173 82.941 412.173 79.5703C412.173 76.1996 409.441 73.4672 406.07 73.4672C402.699 73.4672 399.967 76.1996 399.967 79.5703C399.967 82.941 402.699 85.6734 406.07 85.6734Z" fill="white"/>
<path d="M431.074 85.6734C434.444 85.6734 437.177 82.941 437.177 79.5703C437.177 76.1996 434.444 73.4672 431.074 73.4672C427.703 73.4672 424.971 76.1996 424.971 79.5703C424.971 82.941 427.703 85.6734 431.074 85.6734Z" fill="white"/>
<path d="M456.668 85.6734C460.038 85.6734 462.771 82.941 462.771 79.5703C462.771 76.1996 460.038 73.4672 456.668 73.4672C453.297 73.4672 450.564 76.1996 450.564 79.5703C450.564 82.941 453.297 85.6734 456.668 85.6734Z" fill="white"/>
<path d="M646.695 225.223H477.305C474.401 225.223 472.047 227.577 472.047 230.481V351.56C472.047 354.464 474.401 356.819 477.305 356.819H646.695C649.599 356.819 651.953 354.464 651.953 351.56V230.481C651.953 227.577 649.599 225.223 646.695 225.223Z" fill="#E4EBF7"/>
<path fill-rule="evenodd" clip-rule="evenodd" d="M523.973 341.93V251.559C523.973 250.565 524.778 249.76 525.772 249.76H635.245C636.239 249.76 637.044 250.565 637.044 251.559V342.283C637.044 343.082 636.38 343.729 635.562 343.729H525.772C524.778 343.729 523.973 342.923 523.973 341.93Z" fill="white"/>
<path fill-rule="evenodd" clip-rule="evenodd" d="M535.126 320.919C534.307 320.919 533.644 320.271 533.644 319.473V260.755C533.644 259.956 534.307 259.309 535.126 259.309H626.41C627.229 259.309 627.892 259.956 627.892 260.755V319.473C627.892 320.271 627.229 320.919 626.41 320.919H535.126Z" fill="#A3B5D6"/>
<path fill-rule="evenodd" clip-rule="evenodd" d="M546.534 267.803H540.062C539.561 267.803 539.155 267.407 539.155 266.919C539.155 266.431 539.561 266.035 540.062 266.035H546.534C547.034 266.035 547.44 266.431 547.44 266.919C547.44 267.407 547.034 267.803 546.534 267.803Z" fill="white"/>
<path fill-rule="evenodd" clip-rule="evenodd" d="M546.639 272.045H540.167C539.667 272.045 539.261 271.649 539.261 271.161C539.261 270.673 539.667 270.277 540.167 270.277H546.639C547.14 270.277 547.546 270.673 547.546 271.161C547.546 271.649 547.14 272.045 546.639 272.045Z" fill="white"/>
<path fill-rule="evenodd" clip-rule="evenodd" d="M533.644 304.648C543.452 304.648 540.848 292.53 555.703 292.53C570.559 292.53 569.785 303.363 581.371 303.363C593.138 303.363 592.36 272.248 603.633 272.248C615.532 272.248 612.846 300.443 627.668 300.443V319.55C627.668 320.349 627.003 320.997 626.184 320.996L535.125 320.92C534.307 320.919 533.644 320.272 533.644 319.474V304.648Z" fill="#253368"/>
<path d="M555.581 275.629C557.334 275.629 558.748 276.67 559.966 278.646C560.901 280.162 561.702 282.138 562.712 285.226L562.848 285.647C563.085 286.399 564.502 290.906 565.031 292.481L565.064 292.58C566.768 297.605 568.435 301.124 570.617 303.797C573.282 307.061 576.571 308.768 580.791 308.768C583.381 308.768 585.682 308.074 587.896 306.738L588.09 306.619C589.739 305.597 591.215 304.328 593.256 302.299L594.135 301.416L594.738 300.808C595.248 300.295 595.639 299.908 596.016 299.545L596.087 299.478C599.103 296.591 601.403 295.26 604.206 295.26C607.144 295.26 609.711 296.716 613.227 299.867L613.472 300.087C613.665 300.262 613.865 300.445 614.081 300.644L615.95 302.388C618.27 304.545 619.691 305.726 621.313 306.743C623.403 308.054 625.42 308.74 627.538 308.767L627.667 308.768V309.893C625.272 309.893 623.016 309.138 620.716 307.696L620.544 307.587C618.889 306.529 617.424 305.299 615.067 303.102L613.703 301.827C613.267 301.421 612.903 301.087 612.557 300.776L612.477 300.704C609.151 297.724 606.789 296.384 604.206 296.384C601.796 296.384 599.741 297.556 596.967 300.192L596.864 300.29C596.542 300.598 596.213 300.922 595.807 301.328L594.171 302.974L593.924 303.219C591.809 305.315 590.265 306.622 588.477 307.701C586.094 309.139 583.595 309.893 580.791 309.893C576.218 309.893 572.616 308.024 569.746 304.508C567.49 301.744 565.788 298.178 564.068 293.144L563.91 292.675C563.294 290.823 561.788 286.019 561.746 285.89L561.62 285.503C559.569 279.263 557.973 276.754 555.581 276.754C554.018 276.754 552.709 277.797 551.497 279.937L551.441 280.036C550.447 281.823 549.613 284.085 548.454 287.911L547.117 292.401C547.054 292.61 547 292.789 546.959 292.925L546.787 293.485C545.231 298.527 543.909 301.806 542.169 304.461C539.868 307.97 537.029 309.854 533.419 309.892L533.309 309.893V308.768C536.551 308.768 539.096 307.096 541.228 303.844L541.35 303.657C542.979 301.111 544.256 297.897 545.771 292.966L545.938 292.416L547.233 288.068C548.491 283.873 549.371 281.443 550.458 279.489C551.865 276.963 553.507 275.629 555.581 275.629Z" fill="white"/>
<path d="M626.063 328.839C626.436 328.839 626.738 329.141 626.738 329.513C626.738 329.874 626.455 330.168 626.1 330.187L626.063 330.188H534.635C534.262 330.188 533.96 329.886 533.96 329.513C533.96 329.153 534.242 328.859 534.598 328.84L534.635 328.839H626.063Z" fill="#E4E6EF"/>
<path d="M611.451 334.944C611.824 334.944 612.126 335.246 612.126 335.619C612.126 335.979 611.844 336.273 611.488 336.293L611.451 336.294H534.635C534.262 336.294 533.96 335.992 533.96 335.619C533.96 335.259 534.242 334.965 534.598 334.945L534.635 334.944H611.451Z" fill="#E4E6EF"/>
<path d="M476.866 219.154H647.044C649.705 219.154 651.863 221.258 651.863 223.853V237.854H472.047V223.853C472.047 221.258 474.204 219.154 476.866 219.154Z" fill="#253368"/>
<path d="M482.348 231.858C484.247 231.858 485.787 230.356 485.787 228.504C485.787 226.652 484.247 225.151 482.348 225.151C480.448 225.151 478.908 226.652 478.908 228.504C478.908 230.356 480.448 231.858 482.348 231.858Z" fill="#A3B5D6"/>
<path d="M495.193 231.858C497.093 231.858 498.633 230.356 498.633 228.504C498.633 226.652 497.093 225.151 495.193 225.151C493.294 225.151 491.754 226.652 491.754 228.504C491.754 230.356 493.294 231.858 495.193 231.858Z" fill="#E4EBF7"/>
<path d="M508.042 231.858C509.942 231.858 511.482 230.356 511.482 228.504C511.482 226.652 509.942 225.151 508.042 225.151C506.142 225.151 504.603 226.652 504.603 228.504C504.603 230.356 506.142 231.858 508.042 231.858Z" fill="#E4EBF7"/>
<path d="M531.779 294.721L529.566 293.098L531.779 291.479L533.992 293.098L531.779 294.721Z" fill="white"/>
<path d="M509.17 286.315H486.268C485.484 286.315 484.849 286.95 484.849 287.734V291.232C484.849 292.016 485.484 292.652 486.268 292.652H509.17C509.954 292.652 510.59 292.016 510.59 291.232V287.734C510.59 286.95 509.954 286.315 509.17 286.315Z" fill="#A3B5D6"/>
<path d="M509.192 298.515H486.246C485.474 298.515 484.849 299.141 484.849 299.913V303.262C484.849 304.034 485.474 304.66 486.246 304.66H509.192C509.964 304.66 510.59 304.034 510.59 303.262V299.913C510.59 299.141 509.964 298.515 509.192 298.515Z" fill="#A3B5D6"/>
<path d="M509.192 310.467H486.246C485.474 310.467 484.849 311.092 484.849 311.864V315.214C484.849 315.986 485.474 316.612 486.246 316.612H509.192C509.964 316.612 510.59 315.986 510.59 315.214V311.864C510.59 311.092 509.964 310.467 509.192 310.467Z" fill="#4E5C93"/>
<path d="M497.719 275.966C504.816 275.966 510.569 270.357 510.569 263.437C510.569 256.517 504.816 250.908 497.719 250.908C490.622 250.908 484.868 256.517 484.868 263.437C484.868 270.357 490.622 275.966 497.719 275.966Z" fill="white"/>
<path d="M497.719 275.966C501.423 275.968 504.938 274.373 507.321 271.609C505.443 268.133 501.746 265.958 497.717 265.958C493.688 265.958 489.991 268.133 488.113 271.609C490.497 274.374 494.014 275.969 497.719 275.966Z" fill="#253368"/>
<path d="M497.787 266.456C500.456 266.456 502.62 264.346 502.62 261.744C502.62 259.141 500.456 257.032 497.787 257.032C495.118 257.032 492.954 259.141 492.954 261.744C492.954 264.346 495.118 266.456 497.787 266.456Z" fill="#253368"/>
</svg>
