<svg width="106" height="92" viewBox="0 0 106 92" fill="none" xmlns="http://www.w3.org/2000/svg">
<path d="M49.3028 48H92.6972C93.969 48 95 46.969 95 45.6972V2.30285C95 1.03102 93.969 0 92.6972 0H49.3028C48.031 0 47 1.03102 47 2.30285V45.6972C47 46.969 48.031 48 49.3028 48Z" fill="#597EF7"/>
<path d="M82.1994 92H104.801C105.463 92 106 91.4845 106 90.8486V69.1514C106 68.5155 105.463 68 104.801 68H82.1994C81.537 68 81 68.5155 81 69.1514V90.8486C81 91.4845 81.537 92 82.1994 92Z" fill="#8EA7F8"/>
<path d="M0.863569 36H17.1364C17.6134 36 18 35.6134 18 35.1364V18.8636C18 18.3866 17.6134 18 17.1364 18H0.863569C0.386633 18 0 18.3866 0 18.8636V35.1364C0 35.6134 0.386633 36 0.863569 36Z" fill="#8EA7F8"/>
</svg>
