<svg width="127" height="148" viewBox="0 0 127 148" fill="none" xmlns="http://www.w3.org/2000/svg">
<path d="M81.5127 148H53.4873C52.6659 148 52 147.334 52 146.513V118.487C52 117.666 52.6659 117 53.4873 117H81.5127C82.3341 117 83 117.666 83 118.487V146.513C83 147.334 82.3341 148 81.5127 148Z" fill="#597EF7"/>
<path d="M83.7781 85H4.22189C1.8902 85 0 83.1742 0 80.922V4.07796C0 1.82577 1.8902 0 4.22189 0H83.7781C86.1098 0 88 1.82577 88 4.07796V80.922C88 83.1742 86.1098 85 83.7781 85Z" fill="#8EA7F8"/>
<path d="M126.136 32H109.864C109.387 32 109 31.6134 109 31.1364V14.8636C109 14.3866 109.387 14 109.864 14H126.136C126.613 14 127 14.3866 127 14.8636V31.1364C127 31.6134 126.613 32 126.136 32Z" fill="#597EF7"/>
</svg>
