<svg width="67" height="101" viewBox="0 0 67 101" fill="none" xmlns="http://www.w3.org/2000/svg">
<path d="M54.6012 51H9.3988C8.07398 51 7 52.074 7 53.3988V98.6012C7 99.926 8.07398 101 9.3988 101H54.6012C55.926 101 57 99.926 57 98.6012V53.3988C57 52.074 55.926 51 54.6012 51Z" fill="#8EA7F8"/>
<path d="M66.3283 24H53.6717C53.3007 24 53 24.3007 53 24.6717V37.3283C53 37.6993 53.3007 38 53.6717 38H66.3283C66.6993 38 67 37.6993 67 37.3283V24.6717C67 24.3007 66.6993 24 66.3283 24Z" fill="#597EF7"/>
<path d="M31.4168 0H1.58321C0.708827 0 0 0.708827 0 1.58321V31.4168C0 32.2912 0.708827 33 1.58321 33H31.4168C32.2912 33 33 32.2912 33 31.4168V1.58321C33 0.708827 32.2912 0 31.4168 0Z" fill="#597EF7"/>
</svg>
