<svg width="262" height="262" viewBox="0 0 262 262" fill="none" xmlns="http://www.w3.org/2000/svg">
<path fill-rule="evenodd" clip-rule="evenodd" d="M131.396 119V143.493L139.431 135.412L140 135.948L131 145L122 135.948L122.569 135.412L130.604 143.493V119H131.396Z" fill="#F6F7FB"/>
<path fill-rule="evenodd" clip-rule="evenodd" d="M131 261.234C202.926 261.234 261.234 202.926 261.234 131C261.234 59.0738 202.926 0.766082 131 0.766082C59.0738 0.766082 0.766082 59.0738 0.766082 131C0.766082 202.926 59.0738 261.234 131 261.234ZM131 262C203.349 262 262 203.349 262 131C262 58.6507 203.349 0 131 0C58.6507 0 0 58.6507 0 131C0 203.349 58.6507 262 131 262Z" fill="#F6F7FB"/>
</svg>
