<svg width="129" height="121" viewBox="0 0 129 121" fill="none" xmlns="http://www.w3.org/2000/svg">
<path d="M125.834 66H66.1664C64.4177 66 63 64.5823 63 62.8336V3.16642C63 1.41765 64.4177 0 66.1664 0H125.834C127.582 0 129 1.41765 129 3.16642V62.8336C129 64.5823 127.582 66 125.834 66Z" fill="#597EF7"/>
<path d="M32.3688 81H1.63118C0.730306 81 0 80.2912 0 79.4168V49.5832C0 48.7088 0.730306 48 1.63118 48H32.3688C33.2697 48 34 48.7088 34 49.5832V79.4168C34 80.2912 33.2697 81 32.3688 81Z" fill="#8EA7F8"/>
<path d="M113.136 121H96.8636C96.3866 121 96 120.613 96 120.136V103.864C96 103.387 96.3866 103 96.8636 103H113.136C113.613 103 114 103.387 114 103.864V120.136C114 120.613 113.613 121 113.136 121Z" fill="#597EF7"/>
</svg>
