<svg width="237" height="30" viewBox="0 0 237 30" fill="none" xmlns="http://www.w3.org/2000/svg">
<path d="M0 26.0384V3.78083H7.16874C9.18526 3.78083 10.9648 4.23944 12.5075 5.15664C14.0602 6.07385 15.2752 7.34265 16.1524 8.96305C17.0295 10.5733 17.4681 12.4331 17.4681 14.5427V15.2918C17.4681 17.3912 17.0295 19.251 16.1524 20.8714C15.2752 22.4918 14.0703 23.7606 12.5377 24.6778C11.0052 25.5849 9.24576 26.0384 7.25948 26.0384H0ZM7.16874 8.41272H5.6866V21.4218H7.25948C8.69122 21.4218 9.78518 20.9173 10.5414 19.9084C11.3077 18.8994 11.6908 17.3606 11.6908 15.2918V14.5121C11.6908 10.4459 10.1834 8.41272 7.16874 8.41272Z" fill="white"/>
<path d="M35.3295 26.0384H20.0241V3.78083H35.3749V8.41272H25.7107V12.4026H33.8322V16.851H25.7107V21.4218H35.3295V26.0384Z" fill="white"/>
<path d="M50.9223 3.78083H57.2743L49.9241 26.0384H43.7233L36.4184 3.78083H42.7402L46.8237 19.2969L50.9223 3.78083Z" fill="white"/>
<path d="M74.0165 26.0384H58.7111V3.78083H74.0619V8.41272H64.3977V12.4026H72.5192V16.851H64.3977V21.4218H74.0165V26.0384Z" fill="white"/>
<path d="M90.7587 26.0384H76.0129V3.78083H81.6843V21.4218H90.7587V26.0384Z" fill="white"/>
<path d="M110.632 15.2459C110.632 17.5491 110.213 19.5313 109.376 21.1925C108.549 22.8434 107.405 24.1173 105.943 25.0142C104.481 25.9008 102.807 26.3441 100.922 26.3441C99.0164 26.3441 97.3275 25.9008 95.8554 25.0142C94.3834 24.1173 93.2289 22.8434 92.3921 21.1925C91.5653 19.5313 91.1519 17.5491 91.1519 15.2459V14.5886C91.1519 12.2854 91.5653 10.3083 92.3921 8.65731C93.2188 6.99615 94.3632 5.71716 95.8252 4.82033C97.2973 3.92351 98.9861 3.4751 100.892 3.4751C102.777 3.4751 104.451 3.92351 105.913 4.82033C107.385 5.71716 108.539 6.99615 109.376 8.65731C110.213 10.3083 110.632 12.2854 110.632 14.5886V15.2459ZM104.869 14.558C104.869 12.4484 104.521 10.8586 103.826 9.78853C103.14 8.70827 102.162 8.16814 100.892 8.16814C98.2501 8.16814 96.9293 10.2981 96.9293 14.558V15.2459C96.9293 17.3147 97.262 18.9045 97.9274 20.0154C98.5929 21.116 99.5911 21.6664 100.922 21.6664C102.192 21.6664 103.165 21.116 103.841 20.0154C104.526 18.9045 104.869 17.3147 104.869 15.2459V14.558Z" fill="white"/>
<path d="M122.126 18.7924H118.874V26.0384H113.187V3.78083H122.126C123.91 3.78083 125.448 4.11714 126.739 4.78976C128.039 5.46238 129.037 6.37958 129.733 7.54138C130.439 8.70317 130.792 10.028 130.792 11.5159C130.792 12.9631 130.439 14.2319 129.733 15.3223C129.037 16.4128 128.039 17.2638 126.739 17.8752C125.448 18.4867 123.91 18.7924 122.126 18.7924ZM122.126 8.41272H118.874V14.1605H122.126C123.144 14.1605 123.88 13.916 124.334 13.4268C124.798 12.9376 125.03 12.3109 125.03 11.5465C125.03 10.721 124.798 9.99236 124.334 9.3605C123.88 8.72865 123.144 8.41272 122.126 8.41272Z" fill="white"/>
<path d="M184.248 20.046C184.248 19.6485 184.162 19.2969 183.991 18.9912C183.829 18.6854 183.486 18.3848 182.962 18.0892C182.448 17.7835 181.662 17.4523 180.603 17.0956C179.655 16.7695 178.733 16.3975 177.835 15.9797C176.938 15.5618 176.131 15.0727 175.415 14.5121C174.7 13.9414 174.13 13.2739 173.706 12.5096C173.283 11.735 173.071 10.8331 173.071 9.80382C173.071 8.49935 173.444 7.37832 174.19 6.44073C174.936 5.49295 175.955 4.76428 177.245 4.25472C178.536 3.73497 180.003 3.4751 181.646 3.4751C183.27 3.4751 184.701 3.75536 185.942 4.31587C187.192 4.86619 188.17 5.66111 188.876 6.70061C189.592 7.74011 189.949 8.98343 189.949 10.4306H184.293C184.293 9.707 184.066 9.12101 183.613 8.6726C183.169 8.22419 182.473 7.99998 181.525 7.99998C180.598 7.99998 179.897 8.18852 179.423 8.56559C178.959 8.93247 178.728 9.37069 178.728 9.88025C178.728 10.4713 179.08 10.9605 179.786 11.3478C180.492 11.735 181.415 12.1223 182.554 12.5096C184.903 13.2739 186.718 14.2421 187.998 15.4141C189.279 16.5759 189.919 18.1096 189.919 20.0154C189.919 22.0536 189.178 23.618 187.696 24.7084C186.214 25.7989 184.223 26.3441 181.722 26.3441C180.573 26.3441 179.443 26.1963 178.334 25.9008C177.235 25.6052 176.237 25.1466 175.34 24.525C174.452 23.9033 173.742 23.1084 173.207 22.1402C172.683 21.1619 172.421 19.995 172.421 18.6396H178.107C178.107 19.8523 178.405 20.6931 179 21.1619C179.595 21.6205 180.502 21.8498 181.722 21.8498C182.65 21.8498 183.3 21.6664 183.673 21.2995C184.056 20.9224 184.248 20.5046 184.248 20.046Z" fill="white"/>
<path d="M198.555 26.0384H192.899V3.78083H198.555V26.0384Z" fill="white"/>
<path d="M213.029 26.0384H207.357V8.41272H200.99V3.78083H219.532V8.41272H213.029V26.0384Z" fill="white"/>
<path d="M236.955 26.0384H221.649V3.78083H237V8.41272H227.336V12.4026H235.457V16.851H227.336V21.4218H236.955V26.0384Z" fill="white"/>
<path d="M153.101 11.3193C153.101 10.606 152.924 10.0403 152.571 9.62251C152.229 9.19448 151.674 8.98047 150.908 8.98047C150.252 8.98047 149.743 9.13843 149.38 9.45436C149.017 9.77028 148.836 10.2289 148.836 10.8302H144.117C144.117 9.83143 144.404 8.92951 144.979 8.12441C145.564 7.30911 146.381 6.66707 147.429 6.19827C148.488 5.71929 149.733 5.4798 151.165 5.4798C152.445 5.4798 153.585 5.69891 154.583 6.13713C155.591 6.56516 156.388 7.21739 156.972 8.09383C157.557 8.96008 157.85 10.0454 157.85 11.3499V18.2137C157.85 19.2226 157.905 20.0124 158.016 20.5831C158.137 21.1436 158.303 21.6379 158.515 22.0659V22.3258H153.766C153.585 21.9487 153.438 21.4698 153.328 20.8889C152.904 21.378 152.37 21.7908 151.724 22.1271C151.079 22.4634 150.278 22.6315 149.32 22.6315C148.281 22.6315 147.338 22.4226 146.492 22.0048C145.655 21.5768 144.984 20.9908 144.48 20.2468C143.986 19.4927 143.739 18.6264 143.739 17.6481C143.739 15.9258 144.369 14.5856 145.629 13.6276C146.9 12.6697 148.805 12.1907 151.346 12.1907H153.101V11.3193ZM150.378 19.0392C151.054 19.0392 151.624 18.8914 152.087 18.5958C152.561 18.3003 152.899 17.9793 153.101 17.6328V14.9117H151.437C150.368 14.9117 149.607 15.1563 149.153 15.6455C148.7 16.1245 148.473 16.6901 148.473 17.3423C148.473 17.8417 148.644 18.2493 148.987 18.5653C149.33 18.8812 149.794 19.0392 150.378 19.0392Z" fill="#8EA7F8"/>
<path d="M141.218 29.8856C139.827 29.4882 138.733 28.9328 137.936 28.2194C137.15 27.5162 136.59 26.6958 136.258 25.7582C135.925 24.8308 135.759 23.8321 135.759 22.762V19.6741C135.759 18.7467 135.557 18.0078 135.154 17.4575C134.75 16.9072 134.095 16.632 133.188 16.632V13.2536C134.095 13.2536 134.75 12.9785 135.154 12.4281C135.557 11.8676 135.759 11.1237 135.759 10.1963V7.10835C135.759 6.03827 135.925 5.03954 136.258 4.11214C136.59 3.17455 137.15 2.35416 137.936 1.65097C138.733 0.937589 139.827 0.387265 141.218 0L142.126 2.62932C141.269 2.94525 140.694 3.51086 140.402 4.32616C140.109 5.13126 139.963 6.05866 139.963 7.10835V10.1963C139.963 11.2052 139.741 12.1275 139.298 12.9632C138.864 13.7887 138.173 14.446 137.226 14.9352C138.173 15.4243 138.864 16.0868 139.298 16.9225C139.741 17.7479 139.963 18.6651 139.963 19.6741V22.762C139.963 23.8117 140.109 24.7391 140.402 25.5442C140.694 26.3595 141.269 26.9251 142.126 27.241L141.218 29.8856Z" fill="#8EA7F8"/>
<path d="M160.943 27.241C161.8 26.9251 162.375 26.3595 162.667 25.5442C162.97 24.7391 163.121 23.8117 163.121 22.762V19.6741C163.121 18.655 163.343 17.7327 163.786 16.9072C164.23 16.0715 164.936 15.4142 165.904 14.9352C164.936 14.4562 164.23 13.804 163.786 12.9785C163.343 12.1428 163.121 11.2154 163.121 10.1963V7.10835C163.121 6.05866 162.97 5.13126 162.667 4.32616C162.375 3.51086 161.8 2.94525 160.943 2.62932L161.85 0C163.242 0.387265 164.336 0.937589 165.132 1.65097C165.929 2.35416 166.488 3.17455 166.811 4.11214C167.144 5.03954 167.31 6.03827 167.31 7.10835V10.1963C167.31 11.1237 167.512 11.8676 167.915 12.4281C168.318 12.9785 168.974 13.2536 169.881 13.2536V16.632C168.974 16.632 168.318 16.9072 167.915 17.4575C167.512 18.0078 167.31 18.7467 167.31 19.6741V22.762C167.31 23.8321 167.144 24.8308 166.811 25.7582C166.488 26.6958 165.929 27.5162 165.132 28.2194C164.336 28.9328 163.242 29.4882 161.85 29.8856L160.943 27.241Z" fill="#8EA7F8"/>
</svg>
