<svg width="650" height="480" viewBox="0 0 650 480" fill="none" xmlns="http://www.w3.org/2000/svg">
<path d="M0 8C0 3.58172 3.58172 0 8 0H650V30H0V8Z" fill="#F4F4F4"/>
<path d="M0 30H650V480H0V30Z" fill="#F97B99"/>
<circle cx="15" cy="15" r="5" fill="#4285F4"/>
<path d="M29 11.3333C29 10.597 29.597 10 30.3333 10H37.6667C38.403 10 39 10.597 39 11.3333V18.6667C39 19.403 38.403 20 37.6667 20H30.3333C29.597 20 29 19.403 29 18.6667V11.3333Z" fill="#4285F4"/>
<path d="M52.3137 10.6875C52.8323 9.77084 54.1677 9.77084 54.6863 10.6875L58.8254 18.0029C59.3316 18.8977 58.6767 20 57.639 20H49.361C48.3233 20 47.6684 18.8977 48.1746 18.0029L52.3137 10.6875Z" fill="#4285F4"/>
<g clip-path="url(#clip0)">
<path d="M104.813 182.487H75.7309C74.7351 182.487 73.9277 183.295 73.9277 184.292V188.756C73.9277 189.752 74.7351 190.561 75.7309 190.561H104.813C105.808 190.561 106.616 189.752 106.616 188.756V184.292C106.616 183.295 105.808 182.487 104.813 182.487Z" fill="#597EF7"/>
<path d="M104.84 197.854H75.7036C74.7228 197.854 73.9277 198.65 73.9277 199.632V203.906C73.9277 204.888 74.7228 205.684 75.7036 205.684H104.84C105.821 205.684 106.616 204.888 106.616 203.906V199.632C106.616 198.65 105.821 197.854 104.84 197.854Z" fill="#AAC2FE"/>
<path d="M104.84 213.222H75.7036C74.7228 213.222 73.9277 214.018 73.9277 215V219.274C73.9277 220.256 74.7228 221.052 75.7036 221.052H104.84C105.821 221.052 106.616 220.256 106.616 219.274V215C106.616 214.018 105.821 213.222 104.84 213.222Z" fill="#FF7946"/>
<path d="M104.84 228.59H75.7036C74.7228 228.59 73.9277 229.386 73.9277 230.368V234.642C73.9277 235.624 74.7228 236.42 75.7036 236.42H104.84C105.821 236.42 106.616 235.624 106.616 234.642V230.368C106.616 229.386 105.821 228.59 104.84 228.59Z" fill="#AAC2FE"/>
<path d="M303.356 79.6404H47.6318C43.2394 79.6404 39.6787 83.2045 39.6787 87.6011V271.421C39.6787 275.817 43.2394 279.381 47.6318 279.381H303.356C307.748 279.381 311.309 275.817 311.309 271.421V87.6011C311.309 83.2045 307.748 79.6404 303.356 79.6404Z" fill="#E4EBF7"/>
<path d="M285.847 115.105H131.277C129.608 115.105 128.254 116.459 128.254 118.131V258.664C128.254 260.335 129.608 261.69 131.277 261.69H285.847C287.516 261.69 288.87 260.335 288.87 258.664V118.131C288.87 116.459 287.516 115.105 285.847 115.105Z" fill="#597EF7"/>
<path d="M261.707 160.026H148.331V167.119H261.707V160.026Z" fill="white"/>
<path d="M205.019 184.851H148.331V191.944H205.019V184.851Z" fill="#FFC53D"/>
<path d="M253.44 135.201H196.752V142.294H253.44V135.201Z" fill="#FFC53D"/>
<path d="M252.259 233.319H148.331V240.412H252.259V233.319Z" fill="white"/>
<path d="M182.58 135.201H148.331V142.294H182.58V135.201Z" fill="white"/>
<path d="M233.363 184.851H216.829V191.944H233.363V184.851Z" fill="#E4EBF7"/>
<path d="M232.182 208.494H148.331V215.587H232.182V208.494Z" fill="#E4EBF7"/>
<path d="M46.9545 70.1832H303.897C307.915 70.1832 311.172 73.376 311.172 77.3147V98.5665H39.6787V77.3147C39.6787 73.376 42.9362 70.1832 46.9545 70.1832Z" fill="#253369"/>
<path d="M55.5007 89.8206C58.3688 89.8206 60.6938 87.5416 60.6938 84.7305C60.6938 81.9193 58.3688 79.6404 55.5007 79.6404C52.6326 79.6404 50.3076 81.9193 50.3076 84.7305C50.3076 87.5416 52.6326 89.8206 55.5007 89.8206Z" fill="#FF7946"/>
<path d="M75.5779 89.8206C78.4459 89.8206 80.771 87.5416 80.771 84.7305C80.771 81.9193 78.4459 79.6404 75.5779 79.6404C72.7098 79.6404 70.3848 81.9193 70.3848 84.7305C70.3848 87.5416 72.7098 89.8206 75.5779 89.8206Z" fill="#FFC53D"/>
<path d="M94.4734 89.8206C97.3414 89.8206 99.6665 87.5416 99.6665 84.7305C99.6665 81.9193 97.3414 79.6404 94.4734 79.6404C91.6053 79.6404 89.2803 81.9193 89.2803 84.7305C89.2803 87.5416 91.6053 89.8206 94.4734 89.8206Z" fill="#BAE637"/>
<path d="M116.812 112.74H64.1111C62.3578 112.74 60.9365 114.163 60.9365 115.918V258.512C60.9365 260.267 62.3578 261.69 64.1111 261.69H116.812C118.565 261.69 119.987 260.267 119.987 258.512V115.918C119.987 114.163 118.565 112.74 116.812 112.74Z" fill="white"/>
<path d="M104.813 182.487H75.7309C74.7351 182.487 73.9277 183.295 73.9277 184.292V188.756C73.9277 189.752 74.7351 190.561 75.7309 190.561H104.813C105.808 190.561 106.616 189.752 106.616 188.756V184.292C106.616 183.295 105.808 182.487 104.813 182.487Z" fill="#597EF7"/>
<path d="M104.84 197.854H75.7036C74.7228 197.854 73.9277 198.65 73.9277 199.632V203.906C73.9277 204.888 74.7228 205.684 75.7036 205.684H104.84C105.821 205.684 106.616 204.888 106.616 203.906V199.632C106.616 198.65 105.821 197.854 104.84 197.854Z" fill="#AAC2FE"/>
<path d="M104.84 213.222H75.7036C74.7228 213.222 73.9277 214.018 73.9277 215V219.274C73.9277 220.256 74.7228 221.052 75.7036 221.052H104.84C105.821 221.052 106.616 220.256 106.616 219.274V215C106.616 214.018 105.821 213.222 104.84 213.222Z" fill="#FF7946"/>
<path d="M104.84 228.59H75.7036C74.7228 228.59 73.9277 229.386 73.9277 230.368V234.642C73.9277 235.624 74.7228 236.42 75.7036 236.42H104.84C105.821 236.42 106.616 235.624 106.616 234.642V230.368C106.616 229.386 105.821 228.59 104.84 228.59Z" fill="#AAC2FE"/>
<path d="M89.8653 161.271C97.9296 161.271 104.467 154.653 104.467 146.49C104.467 138.326 97.9296 131.708 89.8653 131.708C81.8011 131.708 75.2637 138.326 75.2637 146.49C75.2637 154.653 81.8011 161.271 89.8653 161.271Z" fill="#FFC53D"/>
<path d="M89.8649 161.271C94.0734 161.274 98.0674 159.392 100.775 156.13C98.6416 152.03 94.4404 149.463 89.8626 149.463C85.2849 149.463 81.0837 152.03 78.9502 156.13C81.6593 159.392 85.655 161.275 89.8649 161.271Z" fill="#253369"/>
<path d="M89.9428 150.051C92.9757 150.051 95.4343 147.562 95.4343 144.492C95.4343 141.421 92.9757 138.932 89.9428 138.932C86.9098 138.932 84.4512 141.421 84.4512 144.492C84.4512 147.562 86.9098 150.051 89.9428 150.051Z" fill="#253369"/>
<path d="M371.547 132.247C371.547 112.266 355.361 95.8986 335.393 95.8986C315.425 95.8986 299.237 112.266 299.237 132.247C299.237 140.155 303.432 150.37 310.169 157.901C316.848 165.364 318.751 177.927 318.751 187.945V191.873H352.035V187.978C352.035 177.96 353.938 165.42 360.583 157.934C367.342 150.325 371.547 139.203 371.547 132.247Z" fill="#FFE58F"/>
<path d="M365.597 132.149C365.597 115.459 352.079 101.785 335.393 101.785C318.708 101.785 305.192 115.458 305.192 132.149C305.192 138.761 308.695 147.29 314.324 153.581C319.904 159.816 324.047 170.311 324.047 178.68V181.958H346.742V178.708C346.742 170.338 350.885 159.862 356.437 153.608C362.084 147.253 365.597 137.962 365.597 132.15V132.149Z" fill="#FFC53D"/>
<path d="M344.57 210.202H326.217C325.575 210.202 324.99 209.784 324.642 209.099L322.146 202.633H348.644L346.148 209.099C345.798 209.784 345.214 210.202 344.573 210.202H344.57Z" fill="#253369"/>
<path d="M349.026 176.93H321.759C319.733 176.93 318.091 178.574 318.091 180.602V201.745C318.091 203.773 319.733 205.417 321.759 205.417H349.026C351.052 205.417 352.694 203.773 352.694 201.745V180.602C352.694 178.574 351.052 176.93 349.026 176.93Z" fill="#597EF7"/>
<path d="M337.631 184.563C337.968 184.563 338.242 184.837 338.242 185.175C338.242 185.504 337.983 185.772 337.657 185.786L337.631 185.787H318.136C317.799 185.787 317.525 185.513 317.525 185.175C317.525 184.846 317.785 184.578 318.11 184.564L318.136 184.563H337.631Z" fill="white"/>
<path d="M337.631 197.228C337.968 197.228 338.242 197.502 338.242 197.84C338.242 198.169 337.983 198.437 337.657 198.451L337.631 198.451H318.136C317.799 198.451 317.525 198.177 317.525 197.84C317.525 197.511 317.785 197.242 318.11 197.228L318.136 197.228H337.631Z" fill="white"/>
<path d="M352.583 190.895C352.921 190.895 353.194 191.169 353.194 191.507C353.194 191.835 352.935 192.104 352.61 192.118L352.583 192.118H333.089C332.751 192.118 332.478 191.844 332.478 191.507C332.478 191.178 332.737 190.909 333.062 190.895L333.089 190.895H352.583Z" fill="white"/>
<path d="M337.859 117.638L324.23 138.418C323.497 139.545 324.285 140.93 325.607 140.93H331.712L324.205 155.123C323.646 156.27 325.089 157.335 325.974 156.428L346.388 135.899C347.429 134.831 346.69 133.006 345.216 133.006H335.984L339.847 118.545C340.149 117.31 338.545 116.586 337.859 117.638Z" fill="white"/>
<path fill-rule="evenodd" clip-rule="evenodd" d="M235.427 383.702L210.882 460.882H225.721L250.266 383.702H235.427Z" fill="#597EF7"/>
<path fill-rule="evenodd" clip-rule="evenodd" d="M200.427 392.477H184.674H174.743C173.969 392.477 173.341 393.105 173.341 393.881V403.821V440.764V450.704C173.341 451.479 173.969 452.108 174.743 452.108H184.674H200.427C201.201 452.108 201.829 451.479 201.829 450.704V442.168C201.829 441.392 201.201 440.764 200.427 440.764H184.674V403.821H200.427C201.201 403.821 201.829 403.192 201.829 402.417V393.881C201.829 393.105 201.201 392.477 200.427 392.477Z" fill="#CCD7EE"/>
<path fill-rule="evenodd" clip-rule="evenodd" d="M286.404 392.477H276.474H260.721C259.946 392.477 259.318 393.105 259.318 393.881V402.417C259.318 403.192 259.946 403.821 260.721 403.821H276.474V440.764H260.721C259.946 440.764 259.318 441.392 259.318 442.168V450.704C259.318 451.479 259.946 452.108 260.721 452.108H276.474H286.404C287.179 452.108 287.807 451.479 287.807 450.704V442.168V402.417V393.881C287.807 393.105 287.179 392.477 286.404 392.477Z" fill="#CCD7EE"/>
<path fill-rule="evenodd" clip-rule="evenodd" d="M269.814 357.618C277.333 368.038 291.672 370.768 302.486 363.84L400.462 301.093C414.875 291.864 418.571 272.409 408.555 258.528C398.654 244.812 379.346 242.086 366.041 252.524L274.503 324.356C264.272 332.384 262.202 347.07 269.814 357.618Z" fill="#FFC999"/>
<path fill-rule="evenodd" clip-rule="evenodd" d="M342.388 342.791L404.622 303.279C417.763 293.054 417.771 266.828 407.323 253.858C396.876 240.89 377.835 239.017 365.067 249.704L306.729 298.526C306.729 298.526 324.187 333.818 342.388 342.791Z" fill="#597EF7"/>
<path fill-rule="evenodd" clip-rule="evenodd" d="M228.511 217.942C222.22 221.199 219.35 228.646 221.826 235.29L265.36 352.06C270.361 365.47 285.827 371.635 298.668 365.337C311.217 359.182 315.959 343.691 309.009 331.554L247.089 223.422C243.36 216.91 235.172 214.494 228.511 217.942Z" fill="#FFC999"/>
<path fill-rule="evenodd" clip-rule="evenodd" d="M441.764 244.61L426.005 227.395L430.972 170.739L475.041 174.848L474.82 230.913L441.764 244.61Z" fill="#FFC999"/>
<path fill-rule="evenodd" clip-rule="evenodd" d="M419.707 165.144C419.707 165.144 413.166 157.942 410.179 162.563C407.194 167.187 411.66 184.175 418.966 184.834C428.725 185.715 419.707 165.144 419.707 165.144Z" fill="#FFC999"/>
<path fill-rule="evenodd" clip-rule="evenodd" d="M460.989 209.573C460.989 209.573 446.266 220.907 427.6 208.652C414.162 199.831 413.407 169.371 416.732 147.134C418.615 134.551 424.641 127.937 437.058 124.58C449.476 121.223 482.835 122.13 481.899 159.3C480.854 200.702 460.989 209.573 460.989 209.573Z" fill="#FFC999"/>
<path d="M438.017 153.652L437.896 153.667C437.571 153.739 437.353 154.033 437.365 154.354L437.381 154.475L439.092 162.246L434.267 183.15C434.18 183.527 434.423 183.891 434.787 183.966L434.9 183.98L443.792 184.332C444.166 184.347 444.481 184.056 444.496 183.682C444.509 183.345 444.275 183.056 443.955 182.991L443.846 182.978L435.771 182.657L440.446 162.4C440.461 162.335 440.466 162.268 440.462 162.201L440.447 162.102L438.703 154.183C438.632 153.859 438.338 153.64 438.017 153.652Z" fill="#DD936F"/>
<path d="M446.569 151.879C446.43 152.867 447.118 153.781 448.106 153.92L454.041 154.787L454.804 154.895C460.592 155.71 464.108 156.002 466.213 155.651C467.197 155.487 467.862 154.557 467.698 153.572C467.544 152.645 466.711 152.001 465.793 152.065L465.28 152.131C463.759 152.291 460.984 152.076 456.852 151.528L454.156 151.152L448.608 150.341C447.621 150.202 446.708 150.89 446.569 151.879Z" fill="#253368"/>
<path d="M450.977 189.76C450.862 189.25 450.356 188.929 449.846 189.044L449.509 189.11L449.376 189.134C448.969 189.206 448.489 189.278 447.94 189.345C444.241 189.799 439.745 189.811 434.669 189.087C434.151 189.013 433.673 189.373 433.599 189.891C433.525 190.408 433.885 190.888 434.402 190.962C439.651 191.71 444.313 191.698 448.17 191.225L448.835 191.137C449.045 191.107 449.244 191.076 449.432 191.045L450.098 190.926C450.166 190.912 450.221 190.9 450.261 190.891C450.771 190.776 451.091 190.27 450.977 189.76Z" fill="#FF7A46"/>
<path fill-rule="evenodd" clip-rule="evenodd" d="M477.191 175.102L484.855 161.001C484.855 161.001 490.057 140.497 485.55 131.475C478.553 117.475 461.585 117.338 451.629 113.362C441.674 109.384 441.87 105.996 437.771 106.44C433.67 106.881 417.535 117.444 415.416 128.93C413.553 139.028 415.363 164.951 415.363 164.951C415.363 164.951 418.895 142.148 421.278 136.168C429.353 133.073 458.341 133.773 470.326 137.867C470.326 137.867 471.143 145.691 471.584 151.197C477.923 156.027 477.191 175.102 477.191 175.102Z" fill="#253368"/>
<path d="M427.367 207.353C427.124 207.069 426.696 207.037 426.412 207.281C426.129 207.525 426.096 207.953 426.34 208.237C426.525 208.453 426.88 208.81 427.408 209.262C428.276 210.004 429.325 210.743 430.558 211.432C437.196 215.137 446.066 215.921 457.253 211.998C457.606 211.874 457.791 211.488 457.668 211.134C457.544 210.781 457.158 210.595 456.805 210.719C445.985 214.512 437.518 213.764 431.218 210.248C430.065 209.604 429.089 208.916 428.288 208.231L427.964 207.946C427.672 207.681 427.473 207.477 427.367 207.353Z" fill="#DD936F"/>
<path d="M438.311 160.903C437.565 160.85 436.917 161.413 436.864 162.159C436.815 162.856 437.301 163.468 437.973 163.589L438.12 163.608L444.655 164.071C445.401 164.124 446.049 163.562 446.102 162.815C446.151 162.118 445.665 161.507 444.993 161.385L444.847 161.367L438.311 160.903Z" fill="#393C68"/>
<path d="M443.983 165.448C442.614 164.811 441.211 164.47 439.83 164.607C438.664 164.722 437.598 165.182 436.703 166.017C436.157 166.528 436.127 167.386 436.637 167.933C437.148 168.481 438.005 168.511 438.551 168C438.999 167.582 439.506 167.364 440.096 167.305C440.917 167.224 441.873 167.456 442.841 167.907C443.357 168.147 443.748 168.384 443.946 168.525C444.556 168.96 445.401 168.818 445.835 168.208C446.269 167.598 446.128 166.752 445.518 166.317C445.195 166.086 444.666 165.766 443.983 165.448Z" fill="#393C68"/>
<path d="M433.866 149.634C430.745 148.374 427.582 147.683 424.554 147.875C422.421 148.011 420.445 148.59 418.688 149.674C417.839 150.198 417.575 151.311 418.098 152.161C418.621 153.011 419.734 153.275 420.583 152.751C421.81 151.994 423.214 151.582 424.783 151.482C427.19 151.329 429.852 151.911 432.515 152.987C433.188 153.258 433.82 153.545 434.4 153.835L434.826 154.053C435.232 154.266 435.513 154.427 435.648 154.509C436.497 155.032 437.609 154.767 438.132 153.917C438.654 153.066 438.389 151.953 437.539 151.43L437.155 151.202C436.384 150.761 435.258 150.196 433.866 149.634Z" fill="#253368"/>
<path d="M438.269 195.932C437.895 195.91 437.575 196.196 437.553 196.57C437.534 196.906 437.763 197.199 438.081 197.27L438.19 197.286L443.519 197.596C443.892 197.618 444.212 197.333 444.234 196.959C444.254 196.623 444.025 196.329 443.707 196.258L443.597 196.243L438.269 195.932Z" fill="#DD936F"/>
<path d="M469.056 162.722C468.309 162.682 467.671 163.257 467.632 164.004C467.595 164.702 468.093 165.304 468.767 165.414L468.913 165.429L479.639 165.993C480.386 166.033 481.023 165.458 481.063 164.711C481.099 164.013 480.602 163.411 479.928 163.301L479.781 163.286L469.056 162.722Z" fill="#393C68"/>
<path fill-rule="evenodd" clip-rule="evenodd" d="M468.304 161.909L447.829 160.72C446.401 160.636 445.175 161.725 445.101 163.155C444.967 165.826 444.869 170.115 445.349 173.82C445.917 178.189 449.645 181.061 454.024 181.519C459.493 182.093 464.413 182.383 467.067 179.679C471.109 175.559 470.597 168.36 470.735 164.571C470.786 163.181 469.692 161.988 468.304 161.909Z" fill="white"/>
<path d="M447.855 160.269L468.33 161.458C469.964 161.552 471.246 162.953 471.185 164.588L471.164 165.48L471.14 167.099C471.097 169.503 471.01 170.846 470.746 172.499C470.244 175.643 469.198 178.151 467.389 179.995C464.98 182.449 461.459 182.753 453.977 181.968C449.197 181.468 445.476 178.296 444.902 173.879C444.494 170.731 444.456 167 444.651 163.131C444.737 161.453 446.176 160.171 447.855 160.269ZM447.803 161.171C446.684 161.105 445.719 161.909 445.569 162.995L445.552 163.177C445.36 166.996 445.397 170.679 445.797 173.762C446.313 177.738 449.684 180.611 454.071 181.07L455.05 181.168C461.572 181.793 464.711 181.434 466.745 179.362C468.404 177.671 469.38 175.331 469.855 172.357L469.943 171.767C470.132 170.41 470.201 169.145 470.238 167.073L470.279 164.69C470.281 164.644 470.282 164.6 470.284 164.554C470.326 163.412 469.423 162.425 468.278 162.36L447.803 161.171Z" fill="#253368"/>
<path d="M454 166.145C453.502 166.116 453.075 166.497 453.047 166.995C452.883 169.827 454.789 172.287 457.375 172.439C459.96 172.589 462.138 170.366 462.301 167.533C462.33 167.035 461.95 166.607 461.452 166.578C460.954 166.549 460.527 166.93 460.498 167.429C460.389 169.315 459.01 170.723 457.48 170.634C455.949 170.544 454.741 168.986 454.85 167.099C454.879 166.601 454.498 166.173 454 166.145Z" fill="#253368"/>
<path fill-rule="evenodd" clip-rule="evenodd" d="M436.384 159.826L413.204 158.48C412.149 161.82 412.217 174.979 416.032 178.02C421.2 181.123 432.034 180.54 433.87 177.791C436.659 173.62 438.077 165.436 438.238 161.888C438.287 160.807 437.464 159.888 436.384 159.826Z" fill="white"/>
<path d="M413.231 158.029L436.411 159.375C437.736 159.452 438.749 160.579 438.689 161.908C438.461 166.935 436.661 174.428 434.245 178.042C432.156 181.17 420.931 181.488 415.8 178.407C412.344 175.657 411.24 163.198 412.774 158.343C412.837 158.146 413.025 158.017 413.231 158.029ZM413.539 158.951L413.48 159.172C412.286 164.069 413.388 175.335 416.313 177.667C421.031 180.495 431.724 180.192 433.495 177.54C435.802 174.089 437.566 166.744 437.787 161.867C437.825 161.032 437.191 160.325 436.358 160.277L413.539 158.951Z" fill="#253368"/>
<path d="M425.07 164.464C424.572 164.434 424.144 164.815 424.115 165.313C423.949 168.146 425.856 170.608 428.441 170.758C431.027 170.908 433.206 168.684 433.37 165.852C433.398 165.353 433.018 164.926 432.52 164.897C432.022 164.868 431.595 165.249 431.566 165.748C431.457 167.633 430.077 169.042 428.546 168.953C427.015 168.864 425.808 167.305 425.918 165.419C425.948 164.921 425.568 164.493 425.07 164.464Z" fill="#253368"/>
<path d="M445.143 160.015C444.395 159.991 443.77 160.579 443.746 161.327C443.724 162.026 444.234 162.617 444.91 162.713L445.057 162.725L470.475 163.534C471.222 163.558 471.848 162.97 471.871 162.222C471.894 161.523 471.384 160.932 470.708 160.836L470.561 160.824L445.143 160.015Z" fill="#393C68"/>
<path d="M413.082 157.627C412.336 157.573 411.688 158.135 411.634 158.882C411.584 159.579 412.069 160.191 412.741 160.313L412.887 160.332L437.738 162.127C438.484 162.18 439.132 161.619 439.186 160.872C439.236 160.175 438.751 159.563 438.079 159.441L437.932 159.422L413.082 157.627Z" fill="#393C68"/>
<path fill-rule="evenodd" clip-rule="evenodd" d="M480.789 163.63C483.46 160.975 487.54 160.303 490.359 163.473C494.9 168.579 490.264 187.173 477.751 187.726C473.016 186.982 476.62 167.771 480.789 163.63Z" fill="#FFC999"/>
<path fill-rule="evenodd" clip-rule="evenodd" d="M493.649 396.392C493.649 396.392 504.872 340.155 509.839 319.38C514.805 298.603 522.349 248.862 513.774 245.138C505.197 241.413 484.666 233.504 484.666 233.504C484.666 233.504 464.297 236.123 445.897 240.044C431.333 243.15 435.469 229.462 417.81 232.382C410.333 233.62 386.863 237.322 375.147 243.72C370.448 246.285 371.206 261.864 370.539 277.008C368.409 325.344 380.192 399.402 380.192 399.402C380.192 399.402 373.204 406.59 381.675 415.911C385.872 420.276 404.045 418.797 427.308 418.854C453.789 418.918 484.938 422.247 490.717 417.206C501.573 407.739 493.649 396.392 493.649 396.392Z" fill="#597EF7"/>
<path fill-rule="evenodd" clip-rule="evenodd" d="M425.304 225.118L443.057 242.178L421.753 257.106L412.522 234.358L425.304 225.118Z" fill="#597EF7"/>
<path fill-rule="evenodd" clip-rule="evenodd" d="M473.84 867.131L436.522 513.531L435.036 512.798L395.864 867.946C395.864 867.946 366.657 874.72 351.224 865.448C350.622 796.587 366.82 572.903 373.675 470.752C374.778 454.305 379.829 431.951 380.837 425.737C427.728 417.806 491.255 429.244 491.255 429.244L493.999 437.49C494.533 439.094 494.856 440.762 494.958 442.449L524.401 863.64C524.401 863.64 495.541 874.097 473.84 867.131Z" fill="#ADC6FF"/>
<path fill-rule="evenodd" clip-rule="evenodd" d="M491 417.059C491 417.059 431.291 408.226 381.657 416.929C381.248 421.333 380.823 426.756 380.823 426.756C380.823 426.756 423.293 429.683 491.963 431.378C491.772 419.424 491 417.059 491 417.059Z" fill="#ADC6FF"/>
<path d="M471.658 429.685C449.908 427.914 427.582 427.232 406.733 428.274C397.97 428.712 389.704 429.451 382.014 430.517C381.644 430.568 381.385 430.911 381.436 431.281C381.488 431.652 381.83 431.911 382.2 431.86C389.848 430.799 398.076 430.064 406.8 429.628C427.583 428.589 449.852 429.269 471.548 431.036L474.992 431.327C478.363 431.621 481.514 431.926 484.413 432.233L487.665 432.589L489.98 432.862C490.201 432.889 490.369 432.91 490.482 432.925C490.853 432.973 491.193 432.71 491.24 432.339C491.288 431.968 491.026 431.628 490.655 431.58L489.319 431.417C488.385 431.306 487.317 431.184 486.123 431.053L483.578 430.782C479.957 430.407 475.964 430.035 471.658 429.685Z" fill="#597EF7"/>
<path d="M471.897 414.759C450.147 412.988 427.821 412.306 406.972 413.348C398.21 413.786 389.943 414.525 382.254 415.591C381.883 415.642 381.624 415.985 381.676 416.355C381.727 416.726 382.069 416.985 382.439 416.934C390.087 415.873 398.315 415.138 407.039 414.702C427.822 413.663 450.092 414.343 471.787 416.11L474.099 416.303C477.519 416.595 480.722 416.899 483.677 417.205L487.362 417.602L490.722 417.999C491.093 418.047 491.432 417.784 491.48 417.413C491.527 417.042 491.265 416.702 490.894 416.654L489.558 416.491C488.78 416.398 487.908 416.298 486.948 416.192L483.817 415.856C480.196 415.481 476.203 415.109 471.897 414.759Z" fill="#597EF7"/>
<path d="M431.176 415.689C430.802 415.68 430.492 415.976 430.482 416.35L430.408 419.887C430.379 421.405 430.35 423.078 430.323 424.889C430.098 439.899 430.084 455.824 430.421 470.744L430.504 474.138C430.871 487.914 431.536 499.465 432.549 508.127C432.592 508.498 432.928 508.765 433.3 508.721C433.671 508.678 433.937 508.341 433.894 507.969L433.733 506.547C432.737 497.379 432.101 485.191 431.775 470.713C431.465 456.959 431.453 442.345 431.629 428.385L431.689 424.143L431.836 416.384C431.846 416.01 431.55 415.699 431.176 415.689Z" fill="#597EF7"/>
<path fill-rule="evenodd" clip-rule="evenodd" d="M419.566 420.592C419.539 422.278 420.58 423.662 421.891 423.684C423.2 423.705 424.284 422.355 424.31 420.668C424.337 418.983 423.298 417.599 421.987 417.576C420.676 417.555 419.592 418.905 419.566 420.592Z" fill="white"/>
<path fill-rule="evenodd" clip-rule="evenodd" d="M442.962 240.788L459.394 262.43L483.945 233.551L474.954 222.3L442.962 240.788Z" fill="#597EF7"/>
<path d="M442.223 241.958C441.755 241.786 441.236 242.026 441.063 242.495L440.893 243L440.724 243.54C440.665 243.736 440.602 243.947 440.537 244.174L440.436 244.527C440.024 245.99 439.573 247.787 439.092 249.947L438.826 251.161C437.215 258.663 435.605 268.581 434.097 281.229L433.697 284.68C432.077 298.98 430.687 315.777 429.589 335.272L429.499 336.903C427.863 366.618 428.242 392.11 429.666 411.166C429.703 411.664 430.137 412.037 430.634 412C431.132 411.963 431.505 411.529 431.468 411.031L431.327 409.078C430.049 390.652 429.738 366.496 431.221 338.506L431.302 337.003C432.412 316.846 433.831 299.545 435.491 284.885L435.763 282.531C437.301 269.415 438.947 259.199 440.592 251.541L440.854 250.344C441.286 248.409 441.691 246.773 442.064 245.417L442.175 245.018C442.307 244.548 442.428 244.143 442.535 243.8L442.718 243.234C442.736 243.183 442.749 243.144 442.759 243.119C442.931 242.651 442.691 242.131 442.223 241.958Z" fill="#1D39C4"/>
<path d="M370.408 273.472C369.967 273.102 369.347 273.169 368.988 273.605C368.835 273.791 368.753 273.999 368.688 274.271C368.613 274.581 368.559 275.014 368.52 275.583L368.502 275.878C368.435 277.074 368.424 278.811 368.47 281.037L368.494 282.098C368.643 287.741 369.099 295.826 369.833 305.534L370.107 309.073C371.941 332.203 375.001 360.916 379.111 392.111L379.55 395.412L379.382 395.844L379.237 396.235C378.937 397.056 378.637 397.964 378.358 398.936C377.679 401.294 377.226 403.636 377.105 405.841C376.902 409.524 377.64 412.521 379.598 414.545C379.945 414.904 380.517 414.913 380.875 414.566C381.234 414.218 381.243 413.646 380.896 413.287C379.352 411.692 378.731 409.168 378.908 405.94C379.021 403.888 379.45 401.674 380.094 399.436C380.308 398.693 380.534 397.989 380.762 397.336L381.069 396.489C381.174 396.212 381.256 396.007 381.308 395.884C381.37 395.736 381.392 395.573 381.371 395.413L380.67 390.113C376.605 359.044 373.591 330.516 371.806 307.63L371.564 304.467C370.919 295.818 370.501 288.516 370.333 283.167L370.277 281.07C370.234 279.012 370.24 277.382 370.292 276.235L370.305 275.979C370.326 275.609 370.352 275.303 370.381 275.068L370.413 274.85L370.427 274.841L370.52 274.745C370.841 274.362 370.79 273.792 370.408 273.472Z" fill="#1D39C4"/>
<path d="M416.443 269.557L417.684 269.664C418.085 269.7 418.474 269.737 418.849 269.774L420.68 269.97L421.24 270.037C421.735 270.101 422.096 270.539 422.063 271.037L419.877 304.767C419.856 305.087 419.675 305.375 419.395 305.532L401.141 315.755C400.827 315.93 400.442 315.913 400.146 315.711L386.045 306.075C385.788 305.899 385.634 305.607 385.633 305.295L385.646 299.156L385.667 295.241C385.712 288.459 385.795 280.91 385.926 272.727C385.932 272.363 386.147 272.034 386.478 271.882C390.038 270.249 395.181 269.39 401.518 269.148C406.305 268.966 411.425 269.146 416.443 269.557ZM400.916 271.069C395.563 271.315 391.157 272.03 388.023 273.28L387.809 273.367L387.69 281.682C387.636 286.003 387.595 290.109 387.568 293.974L387.529 301.289L387.525 304.792L400.728 313.815L418.023 304.131L420.119 271.811L419.729 271.769C418.704 271.658 417.549 271.547 416.288 271.444C411.34 271.039 406.292 270.861 401.59 271.04L400.916 271.069Z" fill="#1D39C4"/>
<path fill-rule="evenodd" clip-rule="evenodd" d="M441.682 257.055C441.656 258.742 442.772 260.126 444.176 260.149C445.579 260.172 446.739 258.823 446.767 257.136C446.794 255.451 445.678 254.065 444.274 254.042C442.868 254.02 441.709 255.368 441.682 257.055Z" fill="white"/>
<path fill-rule="evenodd" clip-rule="evenodd" d="M437.627 288.038C437.6 289.723 438.716 291.109 440.12 291.132C441.524 291.155 442.683 289.806 442.711 288.119C442.738 286.434 441.622 285.048 440.218 285.025C438.813 285.003 437.653 286.351 437.627 288.038Z" fill="white"/>
<path fill-rule="evenodd" clip-rule="evenodd" d="M435.054 321.589C435.027 323.276 436.143 324.66 437.547 324.683C438.95 324.706 440.11 323.358 440.138 321.671C440.165 319.985 439.049 318.599 437.645 318.577C436.24 318.554 435.08 319.904 435.054 321.589Z" fill="white"/>
<path fill-rule="evenodd" clip-rule="evenodd" d="M434.039 353.13C434.012 354.815 435.128 356.201 436.532 356.224C437.936 356.247 439.095 354.899 439.124 353.211C439.15 351.526 438.034 350.14 436.63 350.118C435.227 350.095 434.067 351.443 434.039 353.13Z" fill="white"/>
<path fill-rule="evenodd" clip-rule="evenodd" d="M433.878 394.864C433.851 396.551 434.967 397.935 436.371 397.958C437.774 397.981 438.934 396.633 438.962 394.945C438.989 393.26 437.873 391.874 436.469 391.852C435.064 391.829 433.904 393.177 433.878 394.864Z" fill="white"/>
<path d="M484.211 233.744C483.865 233.451 483.363 233.463 483.032 233.754L482.938 233.849L459.898 261.045L443.449 241.892C443.154 241.547 442.655 241.481 442.283 241.716L442.175 241.795C441.832 242.091 441.765 242.59 442 242.963L442.079 243.07L459.217 263.027C459.549 263.414 460.125 263.444 460.496 263.12L460.591 263.023L484.316 235.019C484.639 234.638 484.592 234.067 484.211 233.744Z" fill="#1D39C4"/>
<path d="M415.435 234.968C415.284 234.493 414.776 234.23 414.3 234.381C413.865 234.52 413.608 234.959 413.684 235.397L413.714 235.517L420.892 258.09C421.07 258.648 421.714 258.883 422.202 258.601L422.304 258.532L442.643 242.847C443.038 242.542 443.112 241.975 442.807 241.579C442.531 241.22 442.037 241.126 441.652 241.341L441.541 241.415L422.224 256.312L415.435 234.968Z" fill="#1D39C4"/>
<path d="M416.32 428.754C415.95 428.698 415.605 428.954 415.55 429.324L415.375 430.618L415.334 430.949C415.172 432.248 415.011 433.717 414.86 435.329C414.172 442.687 413.938 450.277 414.427 457.375C415.569 473.934 420.382 484.441 430.151 485.772C430.522 485.823 430.863 485.563 430.914 485.192C430.964 484.821 430.705 484.48 430.334 484.429C421.443 483.217 416.88 473.256 415.778 457.281C415.295 450.267 415.527 442.746 416.209 435.455L416.339 434.121C416.427 433.256 416.518 432.44 416.609 431.678L416.758 430.483L416.89 429.524C416.945 429.154 416.69 428.809 416.32 428.754Z" fill="#597EF7"/>
<path d="M486.427 166.198C486.287 165.851 485.892 165.684 485.545 165.824L485.308 165.929C485.167 165.996 484.994 166.083 484.797 166.192C484.253 166.492 483.71 166.855 483.2 167.286C481.325 168.871 480.384 170.925 480.963 173.411C481.182 174.353 481.614 174.856 482.419 175.335L482.765 175.53C483.456 175.908 483.628 176.095 483.692 176.682C483.814 177.808 483.302 178.65 482.319 179.296C481.992 179.51 481.638 179.685 481.283 179.82L480.966 179.931C480.91 179.948 480.866 179.96 480.834 179.968C480.47 180.057 480.248 180.424 480.337 180.788C480.425 181.151 480.792 181.374 481.155 181.285C481.648 181.165 482.351 180.896 483.062 180.429C484.434 179.529 485.222 178.232 485.039 176.536C484.925 175.486 484.515 174.979 483.615 174.454L483.281 174.267C482.645 173.916 482.416 173.679 482.282 173.104C481.834 171.178 482.553 169.607 484.074 168.322C484.51 167.953 484.98 167.639 485.45 167.379C485.729 167.225 485.942 167.126 486.053 167.081C486.4 166.94 486.567 166.545 486.427 166.198Z" fill="#DD936F"/>
<path fill-rule="evenodd" clip-rule="evenodd" d="M248.502 226.642C248.502 226.642 229.045 168.585 207.015 154.494C200.457 154.736 206.606 163.384 211.171 170.46C213.505 174.078 215.045 178.649 215.045 178.649C215.045 178.649 206.05 177.708 207.775 185.35C200.568 185.001 203.177 193.075 203.177 193.075C203.177 193.075 197.636 193.086 199.418 200.586C200.642 205.742 207.583 211.828 209.173 217.252C215.308 238.171 225.384 239.328 229.431 239.97C239.672 241.591 245.96 237.688 248.502 226.642Z" fill="#FFC999"/>
<path d="M235.861 200.425L227.975 183.33L227.778 182.59C226.033 176.318 223.268 173.751 220.9 176.015C218.863 177.962 218.503 182.933 220.328 187.451C223.959 196.444 224.325 200.606 223.02 205.514L222.588 207.083C222.346 208.013 222.205 208.759 222.147 209.55C221.896 212.947 222.062 216.109 223.006 219.16C224.385 223.616 227.238 226.757 231.875 228.024C232.236 228.123 232.608 227.91 232.707 227.549C232.805 227.188 232.593 226.815 232.232 226.717C224.894 224.711 222.868 218.166 223.498 209.65C223.542 209.052 223.641 208.474 223.809 207.782L223.995 207.068C224.054 206.851 224.128 206.586 224.239 206.192L224.412 205.542C225.694 200.477 225.245 196.012 221.583 186.943C219.946 182.889 220.264 178.498 221.835 176.995C223.103 175.783 224.975 177.53 226.498 183.011L226.704 183.781L234.631 200.993C234.788 201.333 235.19 201.481 235.53 201.324C235.832 201.185 235.983 200.851 235.903 200.54L235.861 200.425Z" fill="#DD936F"/>
<path d="M207.476 184.742C207.141 184.906 207.002 185.312 207.166 185.648L207.423 186.16C207.629 186.563 207.863 187.011 208.123 187.494C208.865 188.875 209.661 190.255 210.48 191.546C211.356 192.928 212.209 194.126 213.023 195.089C214.683 197.051 216.133 198.012 217.461 197.605C220.445 196.69 221.361 194.491 220.614 191.633C220.331 190.551 219.823 189.414 219.155 188.26C218.791 187.63 218.401 187.034 218.011 186.489L217.699 186.065C217.61 185.947 217.536 185.853 217.482 185.786C217.246 185.496 216.819 185.452 216.529 185.688C216.239 185.924 216.195 186.351 216.431 186.641L216.709 187.004C216.77 187.085 216.837 187.177 216.91 187.279C217.276 187.79 217.642 188.35 217.983 188.94C218.595 189.997 219.056 191.027 219.304 191.976C219.882 194.188 219.281 195.629 217.064 196.309C216.46 196.494 215.381 195.778 214.057 194.213C213.288 193.304 212.469 192.154 211.623 190.819C210.823 189.559 210.043 188.205 209.315 186.852L208.952 186.168L208.382 185.052C208.218 184.716 207.812 184.577 207.476 184.742Z" fill="#DD936F"/>
<path d="M204.154 193.248C204.034 192.894 203.65 192.704 203.296 192.824C202.941 192.944 202.751 193.329 202.871 193.683L203.024 194.107L203.225 194.629C203.298 194.811 203.375 195.001 203.458 195.199C203.933 196.326 204.481 197.455 205.1 198.511C207.02 201.794 209.189 203.733 211.662 203.537C214.095 203.345 215.232 201.752 215.297 199.405C215.321 198.55 215.203 197.65 214.993 196.757C214.879 196.269 214.763 195.89 214.683 195.665C214.557 195.313 214.17 195.129 213.817 195.255C213.465 195.381 213.282 195.769 213.407 196.121L213.483 196.35C213.539 196.534 213.607 196.778 213.675 197.067C213.86 197.855 213.963 198.645 213.943 199.367C213.895 201.087 213.205 202.055 211.556 202.185C209.77 202.327 207.949 200.698 206.268 197.826C205.683 196.826 205.159 195.749 204.707 194.673L204.484 194.129L204.206 193.396C204.183 193.331 204.165 193.282 204.154 193.248Z" fill="#DD936F"/>
<path d="M199.064 198.813C198.701 198.902 198.478 199.269 198.567 199.633L198.671 200.021L198.861 200.663C198.897 200.777 198.934 200.894 198.973 201.013C199.31 202.039 199.715 203.066 200.192 204.029C201.958 207.599 204.25 209.458 207.096 208.366C209.112 207.592 209.902 206.144 209.598 204.356C209.449 203.481 209.05 202.578 208.481 201.671C208.231 201.275 207.965 200.903 207.698 200.567L207.448 200.261C207.402 200.207 207.363 200.162 207.332 200.129C207.08 199.852 206.652 199.832 206.375 200.084C206.099 200.336 206.079 200.765 206.331 201.042L206.485 201.221C206.529 201.274 206.58 201.337 206.637 201.409C206.875 201.709 207.113 202.041 207.334 202.393C207.817 203.162 208.148 203.913 208.263 204.584C208.46 205.744 208.015 206.561 206.611 207.1C204.639 207.857 202.898 206.445 201.405 203.427C200.96 202.528 200.578 201.559 200.26 200.59C200.186 200.364 200.119 200.149 200.059 199.947L199.883 199.31C199.804 198.987 199.505 198.775 199.185 198.795L199.064 198.813Z" fill="#DD936F"/>
<path d="M306.262 297.753C305.835 298.012 305.699 298.568 305.958 298.995L306.98 300.653L307.944 302.188C308.729 303.432 309.587 304.771 310.509 306.185C314.018 311.573 317.726 316.962 321.467 321.994C324.176 325.639 326.804 328.961 329.318 331.889C334.108 337.469 338.349 341.465 341.931 343.571C342.182 343.718 342.484 343.734 342.746 343.622L342.872 343.555L372.435 324.806C372.856 324.539 372.981 323.98 372.714 323.558C372.471 323.175 371.988 323.037 371.586 323.215L371.468 323.279L342.38 341.727L342.138 341.575C339.025 339.565 335.323 336.049 331.169 331.268L330.688 330.711C328.204 327.818 325.602 324.527 322.916 320.914C319.2 315.915 315.513 310.557 312.022 305.197L311.127 303.816C310.399 302.688 309.717 301.616 309.086 300.611L308.143 299.101L307.502 298.058C307.244 297.631 306.689 297.494 306.262 297.753Z" fill="#1D39C4"/>
<path d="M293.725 300.98C293.551 300.649 293.141 300.521 292.81 300.696C292.516 300.85 292.383 301.191 292.479 301.498L292.526 301.611L308.41 331.87C308.584 332.202 308.993 332.329 309.324 332.155C309.618 332 309.752 331.659 309.656 331.352L309.609 331.24L293.725 300.98Z" fill="#DD936F"/>
<mask id="mask0" mask-type="alpha" maskUnits="userSpaceOnUse" x="471" y="242" width="99" height="163">
<path d="M569.534 242.671H471.669V404.703H569.534V242.671Z" fill="white"/>
</mask>
<g mask="url(#mask0)">
<path fill-rule="evenodd" clip-rule="evenodd" d="M554.63 402.834C566.482 397.89 572.418 384.545 568.156 372.421L529.549 262.594C523.87 246.443 505.796 238.388 490.004 244.974C474.398 251.481 467.329 269.672 474.438 285.024L523.354 390.655C528.82 402.463 542.629 407.838 554.63 402.834Z" fill="#FFC999"/>
</g>
<path fill-rule="evenodd" clip-rule="evenodd" d="M553.031 328.725L528.843 259.042C521.907 243.898 496.402 237.89 481.398 245.102C466.395 252.315 460.217 270.443 467.689 285.329L501.825 353.341C501.825 353.341 540.142 344.406 553.031 328.725Z" fill="#597EF7"/>
<path d="M483.561 302.008C483.366 301.549 482.836 301.335 482.377 301.53C481.959 301.708 481.745 302.163 481.856 302.59L481.899 302.716L503.204 352.828C503.387 353.258 503.867 353.478 504.311 353.335L506.191 352.712L507.931 352.119C509.341 351.633 510.858 351.098 512.461 350.518C518.567 348.306 524.675 345.892 530.379 343.357L532.025 342.616C540.691 338.672 547.485 334.815 551.771 331.148C552.48 330.542 553.118 329.942 553.684 329.349C554.028 328.987 554.015 328.415 553.654 328.071C553.293 327.726 552.721 327.739 552.377 328.101C551.855 328.648 551.261 329.206 550.598 329.774C546.208 333.528 538.951 337.568 529.645 341.704C523.985 344.22 517.915 346.619 511.846 348.817L510.282 349.379C509.003 349.835 507.789 350.258 506.652 350.647L504.543 351.357L483.561 302.008Z" fill="#1D39C4"/>
<path fill-rule="evenodd" clip-rule="evenodd" d="M405.919 389.687C406.615 396.742 412.468 402.164 419.55 402.318L544.038 405.006C558.333 405.315 569.775 393.21 568.676 378.939C567.603 364.992 554.977 354.855 541.142 356.831L417.874 374.435C410.452 375.495 405.182 382.219 405.919 389.687Z" fill="#FFC999"/>
<path fill-rule="evenodd" clip-rule="evenodd" d="M416.109 421.73L388.739 336.03C388.287 334.616 386.986 333.65 385.502 333.631L308.754 332.592C306.37 332.56 304.676 334.902 305.449 337.159L334.02 420.582C334.48 421.925 335.713 422.847 337.128 422.909L412.676 426.227C415.072 426.331 416.839 424.017 416.109 421.73Z" fill="#7B8DAF"/>
<path fill-rule="evenodd" clip-rule="evenodd" d="M412.063 420.684L385.17 336.477C384.623 334.767 383.045 333.597 381.25 333.573L303.554 332.52C301.887 332.499 300.701 334.137 301.242 335.714L330.21 420.292C330.719 421.779 332.083 422.801 333.651 422.869L407.905 426.13C410.807 426.257 412.948 423.453 412.063 420.684Z" fill="#253368"/>
<path fill-rule="evenodd" clip-rule="evenodd" d="M374.648 341.688C373.78 342.655 374.092 344.353 375.346 345.484C376.6 346.612 378.322 346.743 379.192 345.777C380.06 344.81 379.748 343.109 378.494 341.981C377.24 340.851 375.517 340.72 374.648 341.688Z" fill="#ADC6FF"/>
<path fill-rule="evenodd" clip-rule="evenodd" d="M375.681 342.699C375.228 343.201 375.391 344.083 376.042 344.67C376.694 345.255 377.587 345.323 378.039 344.822C378.49 344.32 378.327 343.438 377.676 342.851C377.025 342.265 376.131 342.197 375.681 342.699Z" fill="#E1E7F3"/>
<path fill-rule="evenodd" clip-rule="evenodd" d="M381.944 405.615C377.534 405.187 375.215 403.341 375.633 399.664C370.329 397.994 370.921 393.497 370.921 393.497C370.921 393.497 360.712 393.34 358.995 388.974C358.327 387.277 359.623 385.463 361.439 385.34C383.311 383.856 398.908 372.255 398.908 372.255C398.908 372.255 390.309 359.616 391.218 353.782C391.487 352.057 393.74 351.501 394.794 352.892C403.811 364.804 421.893 374.144 421.893 374.144C421.893 374.144 443.599 394.501 420.054 403.731C420.054 403.731 402.105 410.891 389.609 409.984C383.692 409.556 381.944 405.615 381.944 405.615Z" fill="#FFC999"/>
<path d="M387.008 389.616C386.825 389.289 386.412 389.173 386.086 389.355C384.52 390.232 382.689 390.946 380.648 391.51C378.215 392.183 375.602 392.613 372.973 392.847L372.174 392.912C371.144 392.988 370.261 393.024 369.573 393.032L369.064 393.033C368.69 393.028 368.383 393.328 368.378 393.702C368.373 394.039 368.615 394.322 368.936 394.379L369.046 394.389L369.325 394.39C370.24 394.387 371.537 394.335 373.093 394.197C375.798 393.956 378.489 393.513 381.008 392.817C383.148 392.226 385.078 391.473 386.747 390.539C387.073 390.356 387.19 389.943 387.008 389.616Z" fill="#DD936F"/>
<path d="M389.066 396.345C388.903 396.007 388.498 395.866 388.162 396.029C387.96 396.127 387.757 396.222 387.551 396.315C384.954 397.487 382.165 398.24 379.364 398.652C377.634 398.907 376.248 398.99 375.386 398.984C375.002 398.979 374.694 399.278 374.689 399.652C374.685 399.989 374.926 400.272 375.247 400.329L375.357 400.339H375.6L376.101 400.328C376.994 400.296 378.174 400.198 379.562 399.994C382.479 399.564 385.386 398.779 388.108 397.55C388.324 397.453 388.539 397.353 388.751 397.25C389.088 397.087 389.229 396.682 389.066 396.345Z" fill="#DD936F"/>
<path d="M392.959 403.862C392.796 403.525 392.391 403.384 392.054 403.547C391.334 403.896 389.633 404.221 387.32 404.488C386.137 404.625 384.868 404.739 383.599 404.831L381.909 404.938C381.535 404.957 381.248 405.276 381.267 405.65C381.286 406.024 381.604 406.311 381.978 406.292L383.365 406.206L383.697 406.183C384.984 406.09 386.271 405.974 387.475 405.835L388.319 405.732C390.357 405.468 391.841 405.156 392.644 404.768C392.981 404.605 393.121 404.199 392.959 403.862Z" fill="#DD936F"/>
<path d="M541.05 356.159L420.857 372.595C420.486 372.645 420.227 372.987 420.278 373.358C420.323 373.692 420.604 373.935 420.93 373.944L421.04 373.938L541.234 357.503C541.604 357.452 541.864 357.11 541.813 356.739C541.767 356.405 541.486 356.162 541.16 356.153L541.05 356.159Z" fill="#DD936F"/>
<path d="M551.936 148.875H528.752C528.072 148.875 527.521 149.426 527.521 150.106V173.312C527.521 173.992 528.072 174.544 528.752 174.544H551.936C552.615 174.544 553.166 173.992 553.166 173.312V150.106C553.166 149.426 552.615 148.875 551.936 148.875Z" fill="#597EF7"/>
<path d="M519.577 202.775H505.976C505.577 202.775 505.254 203.099 505.254 203.498V217.112C505.254 217.511 505.577 217.834 505.976 217.834H519.577C519.976 217.834 520.299 217.511 520.299 217.112V203.498C520.299 203.099 519.976 202.775 519.577 202.775Z" fill="#597EF7"/>
<path d="M540.993 431.089H515.027C514.266 431.089 513.649 431.729 513.649 432.518V459.437C513.649 460.226 514.266 460.866 515.027 460.866H540.993C541.754 460.866 542.371 460.226 542.371 459.437V432.518C542.371 431.729 541.754 431.089 540.993 431.089Z" fill="#597EF7"/>
</g>
<defs>
<clipPath id="clip0">
<rect width="621" height="410" fill="white" transform="translate(23 70)"/>
</clipPath>
</defs>
</svg>
