<svg width="54" height="51" viewBox="0 0 54 51" fill="none" xmlns="http://www.w3.org/2000/svg" style="">
<path d="M49 28V22.2143C49 10.498 39.1503 1 27 1C14.8497 1 5 10.498 5 22.2143V28" stroke="#F6F7FB" class="rVxIDEnI_0"></path>
<path d="M29 49H37C40.866 49 44 45.866 44 42V42" stroke="#F6F7FB" class="rVxIDEnI_1"></path>
<path d="M8 40C4.13401 40 1 37.0899 1 33.5C1 29.9101 4.13401 27 8 27" stroke="#F6F7FB" class="rVxIDEnI_2"></path>
<path d="M46 40C49.866 40 53 37.0899 53 33.5C53 29.9101 49.866 27 46 27" stroke="#F6F7FB" class="rVxIDEnI_3"></path>
<path d="M7.5 27C7.5 25.6193 8.61929 24.5 10 24.5C11.3807 24.5 12.5 25.6193 12.5 27V40C12.5 41.3807 11.3807 42.5 10 42.5C8.61929 42.5 7.5 41.3807 7.5 40V27Z" stroke="#F6F7FB" class="rVxIDEnI_4"></path>
<path d="M28 47.5C28.8284 47.5 29.5 48.1716 29.5 49C29.5 49.8284 28.8284 50.5 28 50.5L26 50.5C25.1716 50.5 24.5 49.8284 24.5 49C24.5 48.1716 25.1716 47.5 26 47.5L28 47.5Z" stroke="#F6F7FB" class="rVxIDEnI_5"></path>
<path d="M46.5 27C46.5 25.6193 45.3807 24.5 44 24.5C42.6193 24.5 41.5 25.6193 41.5 27V40C41.5 41.3807 42.6193 42.5 44 42.5C45.3807 42.5 46.5 41.3807 46.5 40V27Z" stroke="#F6F7FB" class="rVxIDEnI_6"></path>
<style data-made-with="vivus-instant">.rVxIDEnI_0{stroke-dasharray:80 82;stroke-dashoffset:81;animation:rVxIDEnI_draw 2000ms linear 0ms forwards;}.rVxIDEnI_1{stroke-dasharray:19 21;stroke-dashoffset:20;animation:rVxIDEnI_draw 2000ms linear 166ms forwards;}.rVxIDEnI_2{stroke-dasharray:22 24;stroke-dashoffset:23;animation:rVxIDEnI_draw 2000ms linear 333ms forwards;}.rVxIDEnI_3{stroke-dasharray:22 24;stroke-dashoffset:23;animation:rVxIDEnI_draw 2000ms linear 500ms forwards;}.rVxIDEnI_4{stroke-dasharray:42 44;stroke-dashoffset:43;animation:rVxIDEnI_draw 2000ms linear 666ms forwards;}.rVxIDEnI_5{stroke-dasharray:14 16;stroke-dashoffset:15;animation:rVxIDEnI_draw 2000ms linear 833ms forwards;}.rVxIDEnI_6{stroke-dasharray:42 44;stroke-dashoffset:43;animation:rVxIDEnI_draw 2000ms linear 1000ms forwards;}@keyframes rVxIDEnI_draw{100%{stroke-dashoffset:0;}}@keyframes rVxIDEnI_fade{0%{stroke-opacity:1;}94.44444444444444%{stroke-opacity:1;}100%{stroke-opacity:0;}}</style></svg>
