<svg width="55" height="35" viewBox="0 0 55 35" fill="none" xmlns="http://www.w3.org/2000/svg" style="">
<path width="54" height="34" stroke="#F6F7FB" d="M 2.5,0.5 L 52.5,0.5 A 2,2,0,0,1,54.5,2.5 L 54.5,32.5 A 2,2,0,0,1,52.5,34.5 L 2.5,34.5 A 2,2,0,0,1,0.5,32.5 L 0.5,2.5 A 2,2,0,0,1,2.5,0.5" class="rGcREqHV_0"></path>
<path width="9" height="6" stroke="#F6F7FB" d="M 6.5,6.5 L 13.5,6.5 A 1,1,0,0,1,14.5,7.5 L 14.5,11.5 A 1,1,0,0,1,13.5,12.5 L 6.5,12.5 A 1,1,0,0,1,5.5,11.5 L 5.5,7.5 A 1,1,0,0,1,6.5,6.5" class="rGcREqHV_1"></path>
<path d="M5 19H50" stroke="#F6F7FB" class="rGcREqHV_2"></path>
<path d="M5 29H24" stroke="#F6F7FB" class="rGcREqHV_3"></path>
<path d="M28 29H41" stroke="#F6F7FB" class="rGcREqHV_4"></path>
<path d="M5 24H8" stroke="#F6F7FB" class="rGcREqHV_5"></path>
<path d="M23 24H26" stroke="#F6F7FB" class="rGcREqHV_6"></path>
<path d="M10 24H19" stroke="#F6F7FB" class="rGcREqHV_7"></path>
<path d="M28 24H37" stroke="#F6F7FB" class="rGcREqHV_8"></path>
<path d="M47.8998 15C47.6902 14.9149 47.5405 14.7245 47.5056 14.4992C47.4806 14.369 47.5056 14.2788 47.7052 13.9182C48.4538 12.566 48.838 11.0384 48.8181 9.49086C48.838 7.98837 48.4737 6.52094 47.7551 5.20375C47.6503 4.98339 47.5555 4.77304 47.4756 4.54767C47.5056 4.35735 47.6004 4.18206 47.7551 4.07689C47.9797 3.95669 48.2542 3.98173 48.4588 4.12196C48.5985 4.30226 48.7183 4.48256 48.8181 4.69291C49.357 5.73463 49.7213 6.83646 49.901 7.98837C50.0158 8.89488 50.0308 9.8164 49.9459 10.7279C49.7912 11.8999 49.4469 13.0317 48.9179 14.0885C48.5985 14.7296 48.4188 15 48.2292 15C48.1893 15 48.1444 15 48.1044 15C48.0346 15 47.9697 15 47.8998 15ZM45.724 13.8932C45.4395 13.813 45.2599 13.5225 45.3198 13.2321C45.3198 13.172 45.4745 12.8965 45.6142 12.616C46.2031 11.4792 46.4576 10.197 46.3428 8.91992C46.2729 8.0034 46.0085 7.11192 45.5743 6.30558C45.2599 5.67453 45.2399 5.57437 45.4246 5.30392C45.6441 5.05851 46.0085 5.02346 46.2779 5.2338C46.6372 5.76468 46.9217 6.34565 47.1313 6.95666C47.7701 8.85481 47.6703 10.9232 46.8518 12.7463C46.4326 13.6928 46.1382 13.9983 45.724 13.8681V13.8932ZM43.4783 12.7763C43.2986 12.6962 43.1639 12.5359 43.114 12.3456C43.114 12.2454 43.114 12.1152 43.3386 11.7146C44.0821 10.3623 44.0821 8.71958 43.3386 7.36734C43.0142 6.7363 43.0142 6.60608 43.2787 6.36568C43.3735 6.2555 43.5132 6.20041 43.6629 6.22044C43.9823 6.22044 44.162 6.3757 44.4315 6.94164C44.8557 7.72293 45.0752 8.59938 45.0702 9.49086C45.0902 10.3974 44.8706 11.2989 44.4365 12.0952C44.167 12.6211 44.0322 12.7463 43.7627 12.7913C43.6679 12.8014 43.5681 12.7913 43.4783 12.7463V12.7763ZM41.3773 11.7095C41.2126 11.6294 41.0829 11.4942 41.018 11.3189C40.9681 11.1436 41.018 10.9934 41.2176 10.6728C41.4671 10.3323 41.5869 9.91156 41.562 9.49086C41.5969 9.06516 41.4821 8.64446 41.2376 8.29388C41.1527 8.16867 41.0829 8.03345 41.018 7.89822C40.9631 7.5827 41.1727 7.2822 41.517 7.2221C41.7865 7.17202 41.9762 7.28721 42.2257 7.66784C42.9493 8.77468 42.9493 10.202 42.2257 11.3089C41.9712 11.6945 41.6817 11.8097 41.3823 11.7095H41.3773Z" fill="#F6F7FB" class="rGcREqHV_9"></path>
<style data-made-with="vivus-instant">.rGcREqHV_0{stroke-dasharray:173 175;stroke-dashoffset:174;animation:rGcREqHV_draw 2000ms linear 0ms forwards;}.rGcREqHV_1{stroke-dasharray:29 31;stroke-dashoffset:30;animation:rGcREqHV_draw 2000ms linear 111ms forwards;}.rGcREqHV_2{stroke-dasharray:45 47;stroke-dashoffset:46;animation:rGcREqHV_draw 2000ms linear 222ms forwards;}.rGcREqHV_3{stroke-dasharray:19 21;stroke-dashoffset:20;animation:rGcREqHV_draw 2000ms linear 333ms forwards;}.rGcREqHV_4{stroke-dasharray:13 15;stroke-dashoffset:14;animation:rGcREqHV_draw 2000ms linear 444ms forwards;}.rGcREqHV_5{stroke-dasharray:3 5;stroke-dashoffset:4;animation:rGcREqHV_draw 2000ms linear 555ms forwards;}.rGcREqHV_6{stroke-dasharray:3 5;stroke-dashoffset:4;animation:rGcREqHV_draw 2000ms linear 666ms forwards;}.rGcREqHV_7{stroke-dasharray:9 11;stroke-dashoffset:10;animation:rGcREqHV_draw 2000ms linear 777ms forwards;}.rGcREqHV_8{stroke-dasharray:9 11;stroke-dashoffset:10;animation:rGcREqHV_draw 2000ms linear 888ms forwards;}.rGcREqHV_9{stroke-dasharray:71 73;stroke-dashoffset:72;animation:rGcREqHV_draw 2000ms linear 1000ms forwards;}@keyframes rGcREqHV_draw{100%{stroke-dashoffset:0;}}@keyframes rGcREqHV_fade{0%{stroke-opacity:1;}94.44444444444444%{stroke-opacity:1;}100%{stroke-opacity:0;}}</style></svg>
