<svg width="58" height="41" viewBox="0 0 58 41" fill="none" xmlns="http://www.w3.org/2000/svg" style="">
<path width="40" height="40" stroke="#F6F7FB" d="M 20.5,0.5 L 54.5,0.5 A 3,3,0,0,1,57.5,3.5 L 57.5,37.5 A 3,3,0,0,1,54.5,40.5 L 20.5,40.5 A 3,3,0,0,1,17.5,37.5 L 17.5,3.5 A 3,3,0,0,1,20.5,0.5" class="FdXcvwhX_0"></path>
<path d="M17.5 4C17.5 2.067 19.067 0.5 21 0.5H54C55.933 0.5 57.5 2.067 57.5 4C57.5 24.1584 41.1584 40.5 21 40.5C19.067 40.5 17.5 38.933 17.5 37V4Z" stroke="#F6F7FB" class="FdXcvwhX_1"></path>
<path d="M17 37C8.16344 37 1 29.8366 1 21C1 12.1634 8.16344 5 17 5" stroke="#F6F7FB" class="FdXcvwhX_2"></path>
<path d="M17 24C15.3431 24 14 22.6569 14 21C14 19.3431 15.3431 18 17 18" stroke="#F6F7FB" class="FdXcvwhX_3"></path>
<style data-made-with="vivus-instant">.FdXcvwhX_0{stroke-dasharray:155 157;stroke-dashoffset:156;animation:FdXcvwhX_draw 2000ms linear 0ms forwards;}.FdXcvwhX_1{stroke-dasharray:140 142;stroke-dashoffset:141;animation:FdXcvwhX_draw 2000ms linear 333ms forwards;}.FdXcvwhX_2{stroke-dasharray:51 53;stroke-dashoffset:52;animation:FdXcvwhX_draw 2000ms linear 666ms forwards;}.FdXcvwhX_3{stroke-dasharray:10 12;stroke-dashoffset:11;animation:FdXcvwhX_draw 2000ms linear 1000ms forwards;}@keyframes FdXcvwhX_draw{100%{stroke-dashoffset:0;}}@keyframes FdXcvwhX_fade{0%{stroke-opacity:1;}94.44444444444444%{stroke-opacity:1;}100%{stroke-opacity:0;}}</style></svg>
