<svg width="64" height="64" viewBox="0 0 64 64" fill="none" xmlns="http://www.w3.org/2000/svg">
<circle cx="32" cy="32" r="31.5" fill="#1D1D1D" stroke="#F6F7FB"/>
<rect x="25.4661" y="19.8208" width="23.7547" height="23.7547" rx="3.5" fill="#1D1D1D" stroke="#F6F7FB"/>
<path d="M25.4661 23.3208C25.4661 21.3878 27.0331 19.8208 28.9661 19.8208H47.3057C48.3634 19.8208 49.2208 20.6782 49.2208 21.7359C49.2208 33.7976 39.4428 43.5755 27.3812 43.5755C26.3235 43.5755 25.4661 42.7181 25.4661 41.6604V23.3208Z" fill="#1D1D1D" stroke="#F6F7FB"/>
<path d="M24.966 41.6604C19.6308 41.6604 15.3057 37.3353 15.3057 32C15.3057 26.6647 19.6308 22.3396 24.966 22.3396" stroke="#F6F7FB"/>
<path d="M24.9661 33.8113C23.9657 33.8113 23.1548 33.0004 23.1548 32C23.1548 30.9996 23.9657 30.1887 24.9661 30.1887" stroke="#F6F7FB"/>
</svg>
