<svg width="56" height="56" viewBox="0 0 56 56" fill="none" xmlns="http://www.w3.org/2000/svg" style="">
<path fill="#2D2D2D" stroke="#F6F7FB" d="M0.5,28A27.5,27.5 0,1,1 55.5,28A27.5,27.5 0,1,1 0.5,28" class="TqwLJOAH_0"></path>
<path d="M28 45C36.8633 45 44.1423 38.2171 44.9295 29.559C44.9735 29.0746 44.2795 28.7945 43.9101 29.1109C41.9839 30.7609 37.2751 33.6667 28 33.6667C18.7249 33.6667 14.0161 30.7609 12.0899 29.1109C11.7205 28.7945 11.0265 29.0746 11.0705 29.559C11.8577 38.2171 19.1367 45 28 45Z" fill="#2D2D2D" stroke="#F6F7FB" class="TqwLJOAH_1"></path>
<path stroke="#F6F7FB" d="M14.5,21A3.5,3.5 0,1,1 21.5,21A3.5,3.5 0,1,1 14.5,21" class="TqwLJOAH_2"></path>
<path stroke="#F6F7FB" d="M34.5,21A3.5,3.5 0,1,1 41.5,21A3.5,3.5 0,1,1 34.5,21" class="TqwLJOAH_3"></path>
<style data-made-with="vivus-instant">.TqwLJOAH_0{stroke-dasharray:173 175;stroke-dashoffset:174;animation:TqwLJOAH_draw 2000ms linear 0ms forwards;}.TqwLJOAH_1{stroke-dasharray:87 89;stroke-dashoffset:88;animation:TqwLJOAH_draw 2000ms linear 333ms forwards;}.TqwLJOAH_2{stroke-dasharray:22 24;stroke-dashoffset:23;animation:TqwLJOAH_draw 2000ms linear 666ms forwards;}.TqwLJOAH_3{stroke-dasharray:22 24;stroke-dashoffset:23;animation:TqwLJOAH_draw 2000ms linear 1000ms forwards;}@keyframes TqwLJOAH_draw{100%{stroke-dashoffset:0;}}@keyframes TqwLJOAH_fade{0%{stroke-opacity:1;}94.44444444444444%{stroke-opacity:1;}100%{stroke-opacity:0;}}</style></svg>
