<svg width="65" height="65" viewBox="0 0 64 64" fill="none" xmlns="http://www.w3.org/2000/svg">
<circle cx="32" cy="32" r="31.5" fill="#1D1D1D" stroke="#EB5757"/>
<path d="M17.7209 24.5283C17.7209 22.3192 19.5118 20.5283 21.7209 20.5283H43.9096C46.1188 20.5283 47.9096 22.3192 47.9096 24.5283V39.8491H17.7209V24.5283Z" fill="#1D1D1D" stroke="#EB5757"/>
<path d="M19.5322 22.3396H46.0983V38.0377H19.5322V22.3396Z" fill="#1D1D1D" stroke="#EB5757"/>
<path d="M49.7209 39.8491C50.7213 39.8491 51.5322 40.66 51.5322 41.6604C51.5322 42.6607 50.7213 43.4717 49.7209 43.4717L15.3058 43.4717C14.3054 43.4717 13.4945 42.6607 13.4945 41.6604C13.4945 40.66 14.3054 39.8491 15.3058 39.8491L49.7209 39.8491Z" fill="#1D1D1D" stroke="#EB5757"/>
<rect x="22.4473" y="25.2547" width="21.3396" height="2.01887" fill="#1D1D1D" stroke="#EB5757"/>
<rect x="22.4473" y="29.4811" width="8.0566" height="6.24528" fill="#1D1D1D" stroke="#EB5757"/>
<rect x="32.7114" y="29.4811" width="11.0755" height="6.24528" fill="#1D1D1D" stroke="#EB5757"/>
</svg>
