 <svg width="632" height="575" viewBox="0 0 632 575" fill="none" xmlns="http://www.w3.org/2000/svg">
<path d="M225.088 0H207.912C207.408 0 207 0.408112 207 0.911544V18.0885C207 18.5919 207.408 19 207.912 19H225.088C225.592 19 226 18.5919 226 18.0885V0.911544C226 0.408112 225.592 0 225.088 0Z" fill="#597EF7"/>
<g clip-path="url(#clip0)">
<path d="M632 58C632 53.5817 628.418 50 624 50H8C3.58173 50 0 53.5817 0 58V79.1692H632V58Z" fill="#F4F4F4"/>
<circle cx="17.5022" cy="65.5569" r="4.86154" fill="#4285F4"/>
<path d="M31.1152 61.9918C31.1152 61.2758 31.6957 60.6954 32.4116 60.6954H39.5419C40.2579 60.6954 40.8383 61.2758 40.8383 61.9918V69.1221C40.8383 69.838 40.2579 70.4185 39.5419 70.4185H32.4116C31.6957 70.4185 31.1152 69.838 31.1152 69.1221V61.9918Z" fill="#4285F4"/>
<path d="M53.7821 61.3638C54.2864 60.4726 55.5848 60.4726 56.0891 61.3638L60.1135 68.4767C60.6057 69.3467 59.969 70.4185 58.96 70.4185H50.9112C49.9022 70.4185 49.2655 69.3467 49.7577 68.4767L53.7821 61.3638Z" fill="#4285F4"/>
<mask id="mask0" mask-type="alpha" maskUnits="userSpaceOnUse" x="0" y="79" width="632" height="390">
<path d="M632 79.1693H0V468.092H632V79.1693Z" fill="#F498BF"/>
</mask>
<g mask="url(#mask0)">
<path d="M632 79.1693H0V468.092H632V79.1693Z" fill="#F9D882"/>
</g>
<path d="M582.945 411H563.055C562.473 411 562 411.473 562 412.055V431.945C562 432.527 562.473 433 563.055 433H582.945C583.527 433 584 432.527 584 431.945V412.055C584 411.473 583.527 411 582.945 411Z" fill="#597EF7"/>
<path d="M561.52 377H552.48C552.215 377 552 377.215 552 377.48V386.52C552 386.785 552.215 387 552.48 387H561.52C561.785 387 562 386.785 562 386.52V377.48C562 377.215 561.785 377 561.52 377Z" fill="#8EA7F8"/>
<g opacity="0.2">
<path d="M553.5 225.758C517.325 225.758 488 196.039 488 159.379C488 122.719 517.325 93 553.5 93C589.675 93 619 122.719 619 159.379C619 196.039 589.675 225.758 553.5 225.758Z" fill="#4E5C93"/>
<path d="M553.501 221.017C519.91 221.017 492.679 193.421 492.679 159.379C492.679 125.338 519.91 97.7415 553.501 97.7415C587.092 97.7415 614.322 125.338 614.322 159.379C614.322 193.421 587.092 221.017 553.501 221.017Z" fill="#A3B5D6"/>
<path d="M553.501 218.794C521.121 218.794 494.872 192.193 494.872 159.379C494.872 126.565 521.121 99.9638 553.501 99.9638C585.88 99.9638 612.129 126.565 612.129 159.379C612.129 192.193 585.88 218.794 553.501 218.794Z" fill="#F4F6FB"/>
<path d="M553.499 121.584C552.207 121.584 551.159 122.646 551.159 123.955V157.641H555.838V123.955C555.838 122.646 554.791 121.584 553.499 121.584Z" fill="#253368"/>
<path d="M529.68 159.379C529.68 160.688 530.727 161.75 532.019 161.75H553.499V157.008H532.019C530.727 157.008 529.68 158.07 529.68 159.379Z" fill="#253368"/>
<path d="M553.499 164.861C550.511 164.861 548.089 162.407 548.089 159.379C548.089 156.351 550.511 153.897 553.499 153.897C556.486 153.897 558.908 156.351 558.908 159.379C558.908 162.407 556.486 164.861 553.499 164.861Z" fill="#A3B5D6"/>
<path d="M551.167 109.595C551.167 108.285 552.214 107.224 553.506 107.224C554.798 107.224 555.846 108.285 555.846 109.595V114.336C555.846 115.645 554.798 116.707 553.506 116.707C552.214 116.707 551.167 115.645 551.167 114.336V109.595Z" fill="#CED7EC"/>
<path d="M589.897 122.503C588.983 121.577 587.502 121.577 586.588 122.503L583.28 125.855C582.367 126.781 582.367 128.282 583.28 129.208C584.194 130.134 585.675 130.134 586.588 129.208L589.897 125.855C590.81 124.93 590.81 123.428 589.897 122.503Z" fill="#CED7EC"/>
<path d="M604.965 159.385C604.965 158.076 603.918 157.014 602.626 157.014H597.947C596.655 157.014 595.608 158.076 595.608 159.385C595.608 160.694 596.655 161.756 597.947 161.756H602.626C603.918 161.756 604.965 160.694 604.965 159.385Z" fill="#CED7EC"/>
<path d="M589.887 196.263C590.8 195.337 590.8 193.836 589.887 192.91L586.578 189.558C585.665 188.632 584.184 188.632 583.27 189.558C582.356 190.484 582.356 191.985 583.27 192.91L586.578 196.263C587.492 197.189 588.973 197.189 589.887 196.263Z" fill="#CED7EC"/>
<path d="M555.835 209.164C555.835 210.473 554.787 211.534 553.496 211.534C552.204 211.534 551.156 210.473 551.156 209.164V204.422C551.156 203.113 552.204 202.052 553.496 202.052C554.787 202.052 555.835 203.113 555.835 204.422V209.164Z" fill="#CED7EC"/>
<path d="M517.105 196.254C518.019 197.18 519.5 197.18 520.414 196.254L523.722 192.901C524.635 191.975 524.635 190.474 523.722 189.549C522.808 188.623 521.327 188.623 520.414 189.549L517.105 192.901C516.192 193.827 516.192 195.328 517.105 196.254Z" fill="#CED7EC"/>
<path d="M502.037 159.373C502.037 160.682 503.084 161.744 504.376 161.744H509.055C510.347 161.744 511.394 160.682 511.394 159.373C511.394 158.064 510.347 157.002 509.055 157.002H504.376C503.084 157.002 502.037 158.064 502.037 159.373Z" fill="#CED7EC"/>
<path d="M517.113 122.496C516.2 123.422 516.2 124.923 517.113 125.849L520.422 129.202C521.335 130.128 522.816 130.128 523.73 129.202C524.643 128.276 524.643 126.775 523.73 125.849L520.422 122.496C519.508 121.571 518.027 121.571 517.113 122.496Z" fill="#CED7EC"/>
</g>
<g opacity="0.5">
<path d="M40.8049 202H159.119C161.773 202 163.924 204.151 163.924 206.804V261.302C163.924 263.956 161.773 266.107 159.119 266.107H40.8049C38.1515 266.107 36.0005 263.956 36.0005 261.302V206.804C36.0005 204.151 38.1515 202 40.8049 202Z" fill="#597EF7"/>
<path d="M56.8265 218.015H111.076C111.961 218.015 112.678 218.732 112.678 219.616V222.819C112.678 223.704 111.961 224.421 111.076 224.421H56.8265C55.942 224.421 55.225 223.704 55.225 222.819V219.616C55.225 218.732 55.942 218.015 56.8265 218.015Z" fill="#2A55BB"/>
<path d="M82.0496 243.638H111.076C111.961 243.638 112.678 244.355 112.678 245.24V248.442C112.678 249.327 111.961 250.044 111.076 250.044H82.0496C81.1651 250.044 80.4481 249.327 80.4481 248.442V245.24C80.4481 244.355 81.1651 243.638 82.0496 243.638Z" fill="#597EF7"/>
<path d="M56.8265 230.827H111.076C111.961 230.827 112.678 231.544 112.678 232.428V235.631C112.678 236.516 111.961 237.233 111.076 237.233H56.8265C55.942 237.233 55.225 236.516 55.225 235.631V232.428C55.225 231.544 55.942 230.827 56.8265 230.827Z" fill="#2A55BB"/>
<path d="M133.495 218.015H152.713C154.482 218.015 155.916 219.449 155.916 221.218V240.435C155.916 242.204 154.482 243.638 152.713 243.638H133.495C131.727 243.638 130.293 242.204 130.293 240.435V221.218C130.293 219.449 131.727 218.015 133.495 218.015Z" fill="#2A55BB"/>
<path d="M122.186 218.015V259.721" stroke="white" stroke-width="6" stroke-linecap="round" stroke-linejoin="round"/>
<path d="M61.6232 241.084H179.938C182.591 241.084 184.742 243.235 184.742 245.888V300.386C184.742 303.04 182.591 305.191 179.938 305.191H61.6232C58.9698 305.191 56.8188 303.04 56.8188 300.386V245.888C56.8188 243.235 58.9698 241.084 61.6232 241.084Z" fill="#E4EBF7"/>
<path d="M77.6448 257.098H131.895C132.779 257.098 133.496 257.815 133.496 258.7V261.903C133.496 262.787 132.779 263.504 131.895 263.504H77.6448C76.7604 263.504 76.0434 262.787 76.0434 261.903V258.7C76.0434 257.815 76.7604 257.098 77.6448 257.098Z" fill="#597EF7"/>
<path d="M102.868 282.722H131.895C132.779 282.722 133.496 283.439 133.496 284.323V287.526C133.496 288.411 132.779 289.128 131.895 289.128H102.868C101.983 289.128 101.266 288.411 101.266 287.526V284.323C101.266 283.439 101.983 282.722 102.868 282.722Z" fill="#597EF7"/>
<path d="M77.6448 269.91H131.895C132.779 269.91 133.496 270.627 133.496 271.511V274.714C133.496 275.599 132.779 276.316 131.895 276.316H77.6448C76.7604 276.316 76.0434 275.599 76.0434 274.714V271.511C76.0434 270.627 76.7604 269.91 77.6448 269.91Z" fill="#597EF7"/>
<path d="M154.314 257.098H173.531C175.3 257.098 176.734 258.532 176.734 260.301V279.519C176.734 281.288 175.3 282.722 173.531 282.722H154.314C152.545 282.722 151.111 281.288 151.111 279.519V260.301C151.111 258.532 152.545 257.098 154.314 257.098Z" fill="#597EF7"/>
<path d="M143.006 257.098V298.805" stroke="white" stroke-width="6" stroke-linecap="round" stroke-linejoin="round"/>
</g>
<path fill-rule="evenodd" clip-rule="evenodd" d="M269.093 235.403L281.367 143.853L363.839 154.216L362.152 242.507C361.644 269.175 338.955 290.01 312.34 288.252C285.349 286.468 265.498 262.213 269.093 235.403Z" fill="#FFC999"/>
<path fill-rule="evenodd" clip-rule="evenodd" d="M384.361 124.251C389.533 119.437 397.231 118.418 402.333 124.532C410.549 134.382 400.727 168.969 377.207 169.253C368.365 167.573 376.29 131.768 384.361 124.251Z" fill="#FFC999"/>
<path d="M394.526 129.369C395.223 129.282 395.858 129.777 395.944 130.475C396.022 131.102 395.628 131.679 395.041 131.851L394.838 131.893C394.645 131.917 394.225 132.024 393.653 132.268C392.657 132.695 391.652 133.37 390.703 134.353C388.989 136.13 387.659 138.705 386.887 142.244C386.687 143.162 386.768 143.393 387.561 143.898L388.112 144.235C389.745 145.236 390.557 146.28 390.624 148.243C390.728 151.303 389.388 153.638 387.147 155.264C385.885 156.179 384.633 156.689 383.749 156.909C383.068 157.079 382.377 156.664 382.208 155.982C382.038 155.301 382.453 154.611 383.135 154.441L383.353 154.377C383.491 154.332 383.673 154.266 383.886 154.179C384.49 153.933 385.095 153.61 385.653 153.205C387.254 152.043 388.155 150.474 388.082 148.33C388.053 147.47 387.816 147.083 387.056 146.577L386.475 146.217C384.635 145.1 383.911 143.955 384.402 141.703C385.272 137.714 386.821 134.713 388.872 132.587C390.931 130.453 393.034 129.553 394.526 129.369Z" fill="#DD936F"/>
<path fill-rule="evenodd" clip-rule="evenodd" d="M263.386 115.23C258.984 109.698 251.521 107.553 245.57 112.842C235.983 121.365 240.565 157.024 263.78 160.796C272.778 160.445 270.256 123.858 263.386 115.23Z" fill="#FFC999"/>
<path d="M252.621 118.117C253.756 118.433 255.341 119.323 256.891 121.073C259.08 123.543 260.496 127.079 260.807 131.821C260.948 133.996 260.177 135.014 258.41 135.83L257.691 136.139C256.693 136.566 256.352 136.9 256.181 137.825C255.769 140.051 256.526 141.807 258.094 143.225C258.557 143.644 259.058 143.998 259.557 144.287L259.934 144.493C260.038 144.546 260.119 144.583 260.171 144.605C260.819 144.874 261.127 145.618 260.858 146.267C260.588 146.916 259.844 147.223 259.196 146.954C258.462 146.649 257.427 146.051 256.388 145.112C254.213 143.145 253.092 140.543 253.679 137.363C254.003 135.611 254.841 134.681 256.309 133.973L257.064 133.643C258.197 133.171 258.335 133.014 258.268 131.987C257.994 127.796 256.793 124.797 254.987 122.76C254.284 121.966 253.538 121.378 252.8 120.964C252.548 120.822 252.337 120.721 252.179 120.655L251.939 120.567C251.262 120.379 250.866 119.677 251.055 119.001C251.222 118.399 251.795 118.02 252.395 118.075L252.621 118.117Z" fill="#DD936F"/>
<path fill-rule="evenodd" clip-rule="evenodd" d="M385.086 133.708C380.372 196.958 354.12 221.669 316.883 218.891C282.471 216.323 257.654 183.715 260.887 122.44C263.352 75.6898 277.277 42.8407 330.475 46.8123C386.333 50.9757 388.567 87.0256 385.086 133.708Z" fill="#FFC999"/>
<path d="M286.563 206.012C287.014 205.474 287.817 205.403 288.355 205.855C296.199 212.434 307.775 216.602 319.497 217.476C331.875 218.399 341.098 216.329 350.655 210.537C351.255 210.173 352.037 210.365 352.401 210.966C352.765 211.566 352.574 212.348 351.973 212.712C341.953 218.785 332.202 220.974 319.308 220.012C307.085 219.101 295.003 214.751 286.72 207.804C286.182 207.352 286.112 206.55 286.563 206.012Z" fill="#DD936F"/>
<path fill-rule="evenodd" clip-rule="evenodd" d="M271.985 101.421C266.429 108.263 263.623 119.851 262.309 127.51C262.127 128.568 260.589 128.508 260.497 127.435C259.431 115.346 258.458 85.7723 263.527 69.1434C271.491 42.9906 304.973 23.5909 324 24.0066C331.74 24.1735 344.998 25.7401 358.067 38.749C371.726 52.3477 380.55 51.6017 389.137 70.4863C394.984 83.3566 388.59 118.092 385.492 134.636C385.254 135.9 383.41 135.804 383.314 134.522C382.732 126.714 381.19 115.932 377.144 110.266C376.643 99.9144 375.35 80.4934 375.35 80.4934C352.817 73.2962 301.836 70.9978 275.197 74.028L271.985 101.421Z" fill="#253368"/>
<path d="M339.634 104.695C347.988 103.223 357.546 103.021 367.708 104.895C369.638 105.251 370.913 107.103 370.558 109.033C370.202 110.962 368.349 112.238 366.42 111.882C357.158 110.174 348.436 110.359 340.866 111.692C339.855 111.87 338.94 112.057 338.127 112.245L337.232 112.463L336.477 112.67C334.603 113.25 332.613 112.201 332.033 110.327C331.453 108.453 332.501 106.463 334.376 105.883L335.004 105.7C336.059 105.409 337.622 105.049 339.634 104.695Z" fill="#253368"/>
<path d="M311.514 107.72C312.078 107.454 312.74 107.64 313.09 108.131L313.206 108.329L318.833 120.283C318.897 120.418 318.936 120.563 318.949 120.711L318.949 120.935L315.597 159.349L326.288 160.178C326.919 160.227 327.406 160.727 327.458 161.337L327.458 161.544C327.409 162.174 326.909 162.662 326.299 162.713L326.092 162.714L314.12 161.787C313.486 161.738 312.997 161.231 312.95 160.617L312.952 160.408L316.383 121.054L310.905 109.412C310.639 108.847 310.825 108.186 311.315 107.836L311.514 107.72Z" fill="#DD936F"/>
<path d="M278.816 98.2007C281.876 97.9059 285.425 98.0673 289.388 98.6043C292.685 99.0511 296.17 99.7448 299.732 100.618C301.536 101.061 303.275 101.529 304.911 102.002L307.107 102.658L308.685 103.163C310.544 103.789 311.544 105.805 310.917 107.664C310.29 109.523 308.275 110.522 306.416 109.895L304.855 109.398L304.079 109.163C302.209 108.603 300.172 108.042 298.039 107.519C294.705 106.701 291.459 106.055 288.434 105.645C284.97 105.175 281.94 105.038 279.497 105.273C277.544 105.461 275.808 104.03 275.62 102.077C275.432 100.125 276.863 98.3889 278.816 98.2007Z" fill="#253368"/>
<path d="M311.695 120.337L333.642 121.971C335.043 122.076 336.094 123.296 335.99 124.697C335.892 126.004 334.823 127.007 333.542 127.05L333.264 127.044L311.318 125.41C309.917 125.306 308.866 124.086 308.97 122.685C309.067 121.377 310.137 120.374 311.418 120.331L311.695 120.337Z" fill="#393C68"/>
<path d="M312.798 130.716C318.424 128.409 323.919 128.843 328.823 130.945C330.37 131.608 331.513 132.286 332.187 132.781C333.32 133.611 333.565 135.203 332.734 136.336C331.903 137.469 330.312 137.714 329.179 136.883C328.797 136.603 327.981 136.119 326.818 135.62C323.073 134.015 318.954 133.69 314.728 135.423C313.428 135.956 311.943 135.335 311.41 134.035C310.877 132.735 311.498 131.249 312.798 130.716Z" fill="#393C68"/>
<path fill-rule="evenodd" clip-rule="evenodd" d="M310.026 118.504L271.667 115.041C268.989 114.799 266.623 116.767 266.403 119.446C265.987 124.444 265.543 132.483 266.222 139.456C267.024 147.684 273.849 153.293 282.04 154.415C292.271 155.819 301.493 156.661 306.634 151.751C314.47 144.27 313.941 130.739 314.428 123.645C314.605 121.037 312.623 118.739 310.026 118.504Z" fill="white"/>
<path d="M310.108 117.66L271.749 114.197L271.352 114.174L271.001 114.178C268.171 114.289 265.802 116.483 265.564 119.376C264.963 126.596 264.807 133.611 265.384 139.538C266.196 147.859 272.989 154.03 281.931 155.255L284.695 155.616C296.831 157.108 302.878 156.515 307.224 152.364C310.797 148.953 312.922 144.208 314.038 138.192L314.211 137.222C314.587 135.012 314.78 133.094 314.956 130.012L315.259 123.991C315.266 123.893 315.272 123.797 315.278 123.703C315.487 120.639 313.168 117.937 310.108 117.66ZM271.249 115.868L271.546 115.882L309.956 119.348C312.1 119.542 313.734 121.445 313.588 123.587L313.474 125.659L313.339 128.506C313.118 132.871 312.91 134.985 312.372 137.882C311.315 143.579 309.331 148.01 306.054 151.138C301.924 155.083 295.625 155.423 282.161 153.576C273.954 152.452 267.801 146.862 267.07 139.374C266.505 133.569 266.66 126.643 267.252 119.516C267.424 117.427 269.181 115.857 271.249 115.868Z" fill="#253368"/>
<path d="M266.671 113.56L314.33 116.604C315.732 116.694 316.795 117.903 316.706 119.305C316.622 120.613 315.564 121.627 314.283 121.684L314.005 121.681L266.346 118.636C264.944 118.547 263.881 117.338 263.97 115.936C264.054 114.627 265.112 113.614 266.393 113.557L266.671 113.56Z" fill="#393C68"/>
<path d="M293.487 124.761C297.524 125.063 300.276 129.298 299.921 134.042C299.848 135.021 298.996 135.755 298.018 135.681C297.04 135.608 296.306 134.756 296.379 133.778C296.6 130.812 295.06 128.441 293.222 128.303C291.382 128.165 289.503 130.283 289.282 133.25C289.209 134.228 288.357 134.962 287.378 134.889C286.4 134.816 285.666 133.964 285.739 132.986C286.082 128.398 289.227 124.711 293.086 124.744L293.487 124.761Z" fill="#755654"/>
<path fill-rule="evenodd" clip-rule="evenodd" d="M375.192 123.365L336.833 119.901C334.154 119.659 331.788 121.624 331.568 124.306C331.153 129.304 330.712 137.343 331.391 144.317C332.193 152.544 339.018 158.153 347.21 159.276C357.44 160.679 366.659 161.521 371.803 156.612C379.639 149.13 379.11 135.599 379.593 128.505C379.774 125.897 377.792 123.599 375.192 123.365Z" fill="white"/>
<path d="M375.265 122.521L336.907 119.057L336.508 119.034L336.159 119.038C333.327 119.149 330.959 121.341 330.721 124.237C330.123 131.435 329.968 138.468 330.545 144.399C331.357 152.719 338.15 158.89 347.092 160.115L348.957 160.363C361.696 161.995 367.93 161.477 372.385 157.224C375.958 153.813 378.083 149.068 379.199 143.052L379.372 142.081C379.774 139.711 379.967 137.674 380.153 134.185L380.399 129.148C380.411 128.944 380.423 128.751 380.436 128.563C380.649 125.5 378.329 122.797 375.265 122.521ZM336.407 120.728L336.785 120.747L375.113 124.208C377.261 124.402 378.894 126.305 378.746 128.446L378.652 130.095L378.462 134.066C378.255 137.962 378.041 140.004 377.533 142.743C376.476 148.439 374.493 152.87 371.215 155.999C367.082 159.944 360.785 160.283 347.322 158.437C339.116 157.312 332.962 151.722 332.231 144.234C331.666 138.425 331.819 131.482 332.41 124.376C332.582 122.285 334.337 120.717 336.407 120.728Z" fill="#253368"/>
<path d="M352.661 129.173C356.697 129.476 359.449 133.71 359.099 138.457C359.027 139.435 358.176 140.17 357.197 140.098C356.219 140.026 355.484 139.174 355.556 138.196C355.775 135.225 354.234 132.854 352.396 132.716C350.557 132.578 348.681 134.695 348.46 137.663C348.387 138.641 347.534 139.375 346.556 139.302C345.578 139.229 344.844 138.377 344.917 137.399C345.26 132.81 348.402 129.124 352.26 129.157L352.661 129.173Z" fill="#755654"/>
<path d="M331.837 118.42L379.496 121.465C380.898 121.554 381.962 122.763 381.872 124.165C381.788 125.474 380.73 126.487 379.449 126.544L379.171 126.541L331.512 123.497C330.11 123.407 329.047 122.198 329.136 120.796C329.22 119.488 330.278 118.474 331.559 118.417L331.837 118.42Z" fill="#393C68"/>
<path fill-rule="evenodd" clip-rule="evenodd" d="M339.74 170.228C320.302 170.544 302.504 167.45 302.504 167.45C302.504 167.45 306.085 179.567 320.55 180.647C335.016 181.723 339.74 170.228 339.74 170.228Z" fill="white"/>
<path d="M300.803 167.953C301.363 169.848 302.72 172.567 305.179 175.279C308.839 179.317 313.877 181.93 320.42 182.418C327.516 182.946 333.084 180.741 337.2 176.747C339.423 174.59 340.761 172.422 341.386 170.903C341.871 169.722 340.99 168.431 339.714 168.452C330.941 168.594 321.855 168.061 313.045 167.085C310.303 166.781 307.792 166.455 305.567 166.13L302.811 165.7C301.513 165.474 300.43 166.69 300.803 167.953ZM305.748 170.145L305.492 169.708L307.411 169.975C309.045 170.194 310.798 170.41 312.654 170.615L315.346 170.899C321.645 171.529 328.055 171.926 334.378 172.01L336.611 172.024L336.442 172.263C335.939 172.924 335.368 173.574 334.726 174.198C331.314 177.509 326.728 179.325 320.685 178.876C315.082 178.457 310.879 176.278 307.811 172.894C307.011 172.011 306.326 171.085 305.748 170.145Z" fill="#FF7A46"/>
<path d="M312.129 186.564C312.475 185.953 313.251 185.739 313.862 186.086L314.29 186.308L314.513 186.416C315.064 186.678 315.688 186.941 316.37 187.187C319.179 188.198 322.04 188.603 324.653 188.073C325.578 187.885 326.454 187.582 327.277 187.154C327.901 186.83 328.668 187.073 328.992 187.696C329.316 188.319 329.073 189.087 328.45 189.411C327.411 189.951 326.311 190.332 325.159 190.565C322.019 191.202 318.717 190.735 315.509 189.58C314.194 189.106 313.191 188.629 312.607 188.298C311.996 187.951 311.782 187.175 312.129 186.564Z" fill="#DD936F"/>
<mask id="mask1" mask-type="alpha" maskUnits="userSpaceOnUse" x="376" y="227" width="293" height="120">
<path d="M376.734 227.781H668.484V346.482H376.734V227.781Z" fill="white"/>
</mask>
<g mask="url(#mask1)">
<path fill-rule="evenodd" clip-rule="evenodd" d="M668.181 267.829C670.937 291.903 654.607 313.719 631.26 317.143L434.684 345.957C406.517 350.085 380.411 329.427 377.086 300.376C373.753 271.321 394.524 245.424 422.912 243.228L621.037 227.91C644.568 226.091 665.42 243.754 668.181 267.829Z" fill="#FFC999"/>
</g>
<path fill-rule="evenodd" clip-rule="evenodd" d="M579.816 334.072L440.237 352.625C409.459 357.154 381.047 335.286 377.548 304.373C374.049 273.46 376.707 245.605 407.719 243.136L566.206 232.397L579.816 334.072Z" fill="#597EF7"/>
<path fill-rule="evenodd" clip-rule="evenodd" d="M412.416 550.67L451.596 263.255C445.649 257.191 424.139 242.502 376.004 246.545C360.004 247.887 322.661 267.767 305.844 268.115C294.469 268.349 259.741 245.44 250.348 247.504C195.669 259.504 179.666 267.507 150.33 276.84L181 542C181 542 184.199 591.025 212.195 591.782C428.164 597.597 399.322 594.819 399.322 594.819C399.322 594.819 425.93 589.53 412.416 550.67Z" fill="#597EF7"/>
<path fill-rule="evenodd" clip-rule="evenodd" d="M268.776 231.293L247.686 247.503L274.357 295.514L308.666 264.998L268.776 231.293Z" fill="#597EF7"/>
<path d="M246.802 247.294C247.582 246.848 248.559 247.06 249.091 247.754L249.225 247.955L274.814 292.737L307.493 263.955C308.162 263.366 309.151 263.371 309.812 263.93L310 264.114C310.589 264.783 310.584 265.772 310.025 266.433L309.841 266.621L275.528 296.845C274.749 297.531 273.57 297.398 272.954 296.605L272.812 296.393L246.141 249.718C245.654 248.866 245.95 247.781 246.802 247.294Z" fill="#1D39C4"/>
<path fill-rule="evenodd" clip-rule="evenodd" d="M362.264 231.293L377.391 249.165L346.371 298.181L307.938 264.981L362.264 231.293Z" fill="#597EF7"/>
<path d="M374.225 254.53C374.764 253.71 375.865 253.481 376.685 254.02C377.43 254.509 377.687 255.464 377.323 256.249L377.195 256.479L349.188 299.154C348.656 299.965 347.585 300.188 346.783 299.699L346.571 299.548L309.62 268.983L303.9 552.042L303.657 553.8L303.437 555.564C303.327 556.481 303.22 557.448 303.117 558.458C302.662 562.909 302.375 567.341 302.336 571.466C302.261 579.536 303.172 585.47 305.117 588.063C305.705 588.848 305.546 589.961 304.762 590.55C303.977 591.139 302.864 590.98 302.275 590.195C299.696 586.758 298.702 580.274 298.784 571.433C298.823 567.186 299.117 562.649 299.583 558.097L299.798 556.096C299.872 555.449 299.946 554.824 300.021 554.223L300.334 551.913C300.341 551.87 300.347 551.833 300.353 551.804L300.368 551.74L306.144 265.234C306.172 263.831 307.719 263.045 308.856 263.76L309.052 263.902L347.304 295.546L374.225 254.53Z" fill="#1D39C4"/>
<path fill-rule="evenodd" clip-rule="evenodd" d="M317.039 307.516C316.609 310.649 318.382 313.48 320.993 313.836C323.607 314.191 326.073 311.939 326.499 308.805C326.925 305.669 325.153 302.841 322.542 302.482C319.927 302.127 317.465 304.379 317.039 307.516Z" fill="white"/>
<path fill-rule="evenodd" clip-rule="evenodd" d="M316.305 361.537C315.879 364.674 317.652 367.502 320.263 367.857C322.877 368.212 325.339 365.963 325.766 362.827C326.195 359.69 324.423 356.862 321.812 356.503C319.197 356.148 316.732 358.404 316.305 361.537Z" fill="white"/>
<path fill-rule="evenodd" clip-rule="evenodd" d="M313.632 421.125C313.205 424.262 314.978 427.09 317.589 427.445C320.204 427.8 322.665 425.551 323.095 422.415C323.522 419.278 321.749 416.45 319.138 416.091C316.523 415.736 314.061 417.992 313.632 421.125Z" fill="white"/>
<path fill-rule="evenodd" clip-rule="evenodd" d="M311.53 540.596C311.104 543.733 312.876 546.56 315.487 546.916C318.102 547.274 320.564 545.022 320.99 541.885C321.416 538.748 319.647 535.921 317.036 535.562C314.422 535.207 311.956 537.463 311.53 540.596Z" fill="white"/>
<path fill-rule="evenodd" clip-rule="evenodd" d="M310.97 473.573C310.543 476.707 312.312 479.538 314.923 479.893C317.538 480.248 320.003 477.996 320.43 474.863C320.856 471.726 319.083 468.899 316.472 468.54C313.858 468.185 311.396 470.44 310.97 473.573Z" fill="white"/>
<path d="M421.659 344.733L355.875 343.092C354.919 343.068 354.116 343.805 354.058 344.759L350.939 395.747C350.902 396.351 351.175 396.933 351.664 397.29L386.339 422.626C386.992 423.103 387.884 423.079 388.51 422.567L415.889 400.201C416.24 399.915 416.468 399.505 416.526 399.056L423.375 346.74C423.512 345.694 422.713 344.76 421.659 344.733ZM357.498 346.684L419.597 348.233L413.096 397.893L387.322 418.947L354.543 394.994L357.498 346.684Z" fill="#1D39C4"/>
<path fill-rule="evenodd" clip-rule="evenodd" d="M140.697 592.019C115.077 589.124 96.3705 566.434 98.4167 540.733L115.61 324.299C118.072 293.286 145.735 270.48 176.648 273.975C207.561 277.471 229.433 305.876 224.911 336.654L193.358 551.465C189.614 576.975 166.314 594.914 140.697 592.019Z" fill="#FFC999"/>
<path fill-rule="evenodd" clip-rule="evenodd" d="M228.137 338.959C232.662 308.177 207.56 276.136 176.647 272.644C145.734 269.148 118.072 291.954 115.61 322.967L102.654 470.552C102.654 470.552 202.388 476.779 205.699 476.779L228.137 338.959Z" fill="#597EF7"/>
<path fill-rule="evenodd" clip-rule="evenodd" d="M469.761 131.638L424.724 101.471C424.724 101.471 403.363 48.164 392.578 39.8691C381.793 31.5778 367.743 33.1977 355.878 27.8762C344.017 22.5547 346.667 35.6347 361.477 43.0379C376.287 50.4375 382.312 49.5992 385.907 64.7076C389.502 79.8124 384.049 133.695 405.804 143.287C413.562 150.42 419.658 155.866 424.429 160.019C434.845 169.081 450.99 167.695 459.196 156.598C459.399 156.331 459.598 156.061 459.793 155.784C468.259 143.98 482.632 138.377 469.761 131.638Z" fill="#FFC999"/>
<path d="M345.869 29.8782C344.369 24.7384 348.454 22.7 354.815 25.5557C355.456 25.8434 355.742 26.5961 355.455 27.2368C355.167 27.8776 354.414 28.1638 353.774 27.8762C349.106 25.7806 347.55 26.5571 348.311 29.1656C349.371 32.7963 353.998 37.5073 360.458 40.7365L361.566 41.2764C365.288 43.0562 372.242 46.1275 372.772 46.3821C379.992 49.8519 383.116 53.5287 385.364 62.4486L385.56 63.2494C386.124 65.6184 386.56 68.8237 387.065 73.9771L388.375 88.2863L388.677 91.3231C389.083 95.2578 389.501 98.7605 389.98 102.136L390.327 104.483C393.531 125.314 399.017 138.254 408.229 142.316C408.871 142.6 409.163 143.35 408.879 143.993C408.596 144.636 407.845 144.927 407.202 144.644C396.529 139.937 390.733 125.554 387.462 102.493C386.978 99.0837 386.556 95.5514 386.148 91.5884L385.513 84.9708L384.703 76.0049C384.134 69.9032 383.675 66.3143 383.086 63.8385C381.064 55.3507 378.573 52.114 372.272 48.9694L371.461 48.5784C370.023 47.9257 362.376 44.5388 359.321 43.0116C352.279 39.4916 347.152 34.2716 345.869 29.8782Z" fill="#DD936F"/>
<path d="M444.095 324.653C445.07 324.764 445.769 325.644 445.658 326.619L444.829 333.729L444.139 339.315C442.188 354.063 428.413 449.975 416.502 534.396L414.245 550.396L414.462 550.862C419.472 562.023 419.035 573.196 415.201 583.426L414.864 584.301C414.157 586.088 413.398 587.691 412.637 589.089L412.264 589.758C411.975 590.264 411.741 590.64 411.582 590.878C411.035 591.693 409.932 591.911 409.117 591.364C408.303 590.818 408.085 589.715 408.631 588.9L408.92 588.44C409.081 588.172 409.283 587.821 409.517 587.391C410.212 586.115 410.909 584.641 411.561 582.994C415.483 573.081 415.965 562.236 410.812 551.435C410.662 551.12 410.608 550.768 410.657 550.423L439.096 349.876C439.983 343.545 440.565 339.314 440.768 337.686L441.565 331.092C441.743 329.575 441.929 327.968 442.129 326.216C442.231 325.323 442.979 324.66 443.854 324.641L444.095 324.653Z" fill="#1D39C4"/>
<path fill-rule="evenodd" clip-rule="evenodd" d="M189.924 801.691L132.993 806.288L99.3802 555.484C96.144 528.568 116.052 504.404 143.089 502.432C170.13 500.461 193.334 521.484 194.034 548.585L189.924 801.691Z" fill="#FFC999"/>
<path d="M218.357 362.07L218.599 362.081C219.492 362.18 220.157 362.927 220.177 363.802L220.167 364.043L207.524 477.294C207.428 478.156 206.728 478.81 205.885 478.87H205.651L102.607 472.642C101.627 472.583 100.882 471.741 100.941 470.762C100.995 469.865 101.707 469.163 102.579 469.098L102.821 469.096L204.179 475.222L216.636 363.649C216.727 362.836 217.352 362.213 218.122 362.091L218.357 362.07Z" fill="#1D39C4"/>
<path d="M573.581 270.638C574.476 270.55 575.281 271.142 575.483 271.994L575.522 272.232L581.583 333.898C581.669 334.771 581.107 335.562 580.283 335.786L580.053 335.832L440.084 354.706C439.112 354.837 438.218 354.156 438.086 353.183C437.966 352.292 438.529 351.467 439.373 351.234L439.609 351.186L577.879 332.541L571.987 272.58C571.899 271.685 572.491 270.88 573.343 270.678L573.581 270.638Z" fill="#1D39C4"/>
<path fill-rule="evenodd" clip-rule="evenodd" d="M421.441 157.525L446.106 116.651L645.769 231.149C667.151 243.408 674.391 271.845 661.666 293.583C648.941 315.32 621.41 321.54 601.222 307.242L421.441 157.525Z" fill="#FFC999"/>
<path d="M515.573 236.374C516.098 235.755 516.985 235.624 517.658 236.03L517.874 236.185L580.365 289.183C581.052 289.766 581.137 290.796 580.554 291.484C580.029 292.103 579.142 292.233 578.469 291.828L578.253 291.673L515.762 238.674C515.075 238.091 514.99 237.061 515.573 236.374Z" fill="#1D39C4"/>
</g>
<defs>
<clipPath id="clip0">
<rect width="632" height="551" fill="white" transform="translate(0 24)"/>
</clipPath>
</defs>
</svg>
