<svg width="626" height="244" viewBox="0 0 626 244" fill="none" xmlns="http://www.w3.org/2000/svg">
<path d="M0 208.586C20.2105 230.543 49.9945 244 91.1246 244C148.211 244 185.795 212.482 185.795 162.549C185.795 114.74 149.983 86.0552 109.917 86.0552C88.2881 86.0552 69.1413 94.9086 56.7313 105.887V46.746H169.839V3.54136H7.44598V138.467L42.5485 148.029C56.7313 134.572 72.687 128.552 92.1884 128.552C119.136 128.552 134.737 143.071 134.737 164.673C134.737 184.151 118.781 200.087 90.7701 200.087C65.9501 200.087 43.9668 191.234 27.6565 174.589L0 208.586Z" fill="url(#paint0_linear)"/>
<path d="M210.402 121.823C210.402 182.734 240.54 244 308.263 244C375.632 244 406.125 182.734 406.125 121.823C406.125 60.9115 375.632 0 308.263 0C240.54 0 210.402 60.9115 210.402 121.823ZM354.712 121.823C354.712 165.382 341.947 199.379 308.263 199.379C274.224 199.379 261.46 165.382 261.46 121.823C261.46 78.2642 274.224 44.6212 308.263 44.6212C341.947 44.6212 354.712 78.2642 354.712 121.823Z" fill="url(#paint1_linear)"/>
<path d="M430.277 121.823C430.277 182.734 460.415 244 528.138 244C595.507 244 626 182.734 626 121.823C626 60.9115 595.507 0 528.138 0C460.415 0 430.277 60.9115 430.277 121.823ZM574.587 121.823C574.587 165.382 561.823 199.379 528.138 199.379C494.1 199.379 481.335 165.382 481.335 121.823C481.335 78.2642 494.1 44.6212 528.138 44.6212C561.823 44.6212 574.587 78.2642 574.587 121.823Z" fill="url(#paint2_linear)"/>
<defs>
<linearGradient id="paint0_linear" x1="-2.54377e-06" y1="161.288" x2="626.17" y2="158.157" gradientUnits="userSpaceOnUse">
<stop stop-color="#3949DB"/>
<stop offset="0.296875" stop-color="#C83BDC"/>
<stop offset="1" stop-color="#3949DB"/>
</linearGradient>
<linearGradient id="paint1_linear" x1="-2.54377e-06" y1="161.288" x2="626.17" y2="158.157" gradientUnits="userSpaceOnUse">
<stop stop-color="#3949DB"/>
<stop offset="0.296875" stop-color="#C83BDC"/>
<stop offset="1" stop-color="#3949DB"/>
</linearGradient>
<linearGradient id="paint2_linear" x1="-2.54377e-06" y1="161.288" x2="626.17" y2="158.157" gradientUnits="userSpaceOnUse">
<stop stop-color="#3949DB"/>
<stop offset="0.296875" stop-color="#C83BDC"/>
<stop offset="1" stop-color="#3949DB"/>
</linearGradient>
</defs>
</svg>
