<svg width="84" height="84" viewBox="0 0 84 84" fill="none" xmlns="http://www.w3.org/2000/svg">
<path d="M49.5469 6.5625C48.6413 6.5625 47.9062 7.29758 47.9062 8.20312C47.9062 9.10867 48.6413 9.84375 49.5469 9.84375C50.4524 9.84375 51.1875 9.10867 51.1875 8.20312C51.1875 7.29758 50.4524 6.5625 49.5469 6.5625Z" fill="url(#paint0_linear)"/>
<path d="M62.6719 6.5625H56.1094C55.2032 6.5625 54.4688 7.29694 54.4688 8.20312C54.4688 9.10931 55.2032 9.84375 56.1094 9.84375H62.6719C63.5781 9.84375 64.3125 9.10931 64.3125 8.20312C64.3125 7.29694 63.5781 6.5625 62.6719 6.5625Z" fill="url(#paint1_linear)"/>
<path d="M75.7969 6.5625H69.2344C68.3282 6.5625 67.5938 7.29694 67.5938 8.20312C67.5938 9.10931 68.3282 9.84375 69.2344 9.84375H75.7969C76.7031 9.84375 77.4375 9.10931 77.4375 8.20312C77.4375 7.29694 76.7031 6.5625 75.7969 6.5625Z" fill="url(#paint2_linear)"/>
<path d="M79.0781 0H4.92188C2.20779 0 0 2.20779 0 4.92188V79.0781C0 81.7922 2.20779 84 4.92188 84H79.0781C81.7922 84 84 81.7922 84 79.0781V4.92188C84 2.20779 81.7922 0 79.0781 0ZM80.7188 79.0781C80.7188 79.983 79.983 80.7188 79.0781 80.7188H4.92188C4.01697 80.7188 3.28125 79.983 3.28125 79.0781V16.4062H80.7188V79.0781ZM80.7188 13.125H3.28125V4.92188C3.28125 4.01697 4.01697 3.28125 4.92188 3.28125H79.0781C79.983 3.28125 80.7188 4.01697 80.7188 4.92188V13.125Z" fill="url(#paint3_linear)"/>
<path d="M12.4688 37.0781H71.5312C72.4374 37.0781 73.1719 36.3437 73.1719 35.4375V25.5938C73.1719 24.6876 72.4374 23.9531 71.5312 23.9531H12.4688C11.5626 23.9531 10.8281 24.6876 10.8281 25.5938V35.4375C10.8281 36.3437 11.5626 37.0781 12.4688 37.0781ZM14.1094 27.2344H69.8906V33.7969H14.1094V27.2344Z" fill="url(#paint4_linear)"/>
<path d="M12.4688 73.6641H32.1562C33.0624 73.6641 33.7969 72.9296 33.7969 72.0234V45.7734C33.7969 44.8672 33.0624 44.1328 32.1562 44.1328H12.4688C11.5626 44.1328 10.8281 44.8672 10.8281 45.7734V72.0234C10.8281 72.9296 11.5626 73.6641 12.4688 73.6641ZM14.1094 47.4141H30.5156V70.3828H14.1094V47.4141Z" fill="url(#paint5_linear)"/>
<path d="M71.5312 44.1328H42C41.984 44.1328 41.9686 44.1347 41.9526 44.1354C41.0522 44.161 40.3594 44.9038 40.3594 45.7734V72.0234C40.3594 72.0331 40.3607 72.0427 40.3607 72.0523C40.3767 72.9578 41.1201 73.6641 42 73.6641H71.5312C72.4156 73.6641 73.1546 72.9553 73.1706 72.0523C73.1706 72.0427 73.1719 72.0331 73.1719 72.0234V45.7734C73.1719 44.8775 72.4413 44.1328 71.5312 44.1328ZM67.2163 47.4141L56.7656 56.7035L46.315 47.4141H67.2163ZM43.6406 49.427L54.2964 58.8984L43.6406 68.3698V49.427ZM46.315 70.3828L56.7656 61.0934L67.2163 70.3828H46.315ZM69.8906 68.3698L59.2349 58.8984L69.8906 49.427V68.3698Z" fill="url(#paint6_linear)"/>
<defs>
<linearGradient id="paint0_linear" x1="49.5469" y1="6.5625" x2="49.5469" y2="9.84375" gradientUnits="userSpaceOnUse">
<stop stop-color="#3949DB"/>
<stop offset="0.078125" stop-color="#D839DB"/>
<stop offset="1" stop-color="#3949DB"/>
</linearGradient>
<linearGradient id="paint1_linear" x1="59.3906" y1="6.5625" x2="59.3906" y2="9.84375" gradientUnits="userSpaceOnUse">
<stop stop-color="#3949DB"/>
<stop offset="0.078125" stop-color="#D839DB"/>
<stop offset="1" stop-color="#3949DB"/>
</linearGradient>
<linearGradient id="paint2_linear" x1="72.5156" y1="6.5625" x2="72.5156" y2="9.84375" gradientUnits="userSpaceOnUse">
<stop stop-color="#3949DB"/>
<stop offset="0.078125" stop-color="#D839DB"/>
<stop offset="1" stop-color="#3949DB"/>
</linearGradient>
<linearGradient id="paint3_linear" x1="42" y1="0" x2="42" y2="84" gradientUnits="userSpaceOnUse">
<stop stop-color="#3949DB"/>
<stop offset="0.078125" stop-color="#D839DB"/>
<stop offset="1" stop-color="#3949DB"/>
</linearGradient>
<linearGradient id="paint4_linear" x1="42" y1="23.9531" x2="42" y2="37.0781" gradientUnits="userSpaceOnUse">
<stop stop-color="#3949DB"/>
<stop offset="0.078125" stop-color="#D839DB"/>
<stop offset="1" stop-color="#3949DB"/>
</linearGradient>
<linearGradient id="paint5_linear" x1="22.3125" y1="44.1328" x2="22.3125" y2="73.6641" gradientUnits="userSpaceOnUse">
<stop stop-color="#3949DB"/>
<stop offset="0.078125" stop-color="#D839DB"/>
<stop offset="1" stop-color="#3949DB"/>
</linearGradient>
<linearGradient id="paint6_linear" x1="56.7656" y1="44.1328" x2="56.7656" y2="73.6641" gradientUnits="userSpaceOnUse">
<stop stop-color="#3949DB"/>
<stop offset="0.078125" stop-color="#D839DB"/>
<stop offset="1" stop-color="#3949DB"/>
</linearGradient>
</defs>
</svg>
