<svg width="18" height="18" viewBox="0 0 18 18" fill="none" xmlns="http://www.w3.org/2000/svg">
<path d="M15.0158 10.7698C14.6269 10.3648 14.1577 10.1483 13.6604 10.1483C13.1672 10.1483 12.694 10.3608 12.289 10.7658L11.0218 12.029C10.9175 11.9728 10.8133 11.9207 10.713 11.8686C10.5687 11.7964 10.4323 11.7282 10.316 11.6561C9.12905 10.9022 8.05033 9.91969 7.01573 8.64849C6.51447 8.0149 6.17763 7.48156 5.93301 6.9402C6.26184 6.63944 6.5666 6.32665 6.86335 6.0259C6.97563 5.91362 7.08791 5.79732 7.2002 5.68504C8.04231 4.84292 8.04231 3.75218 7.2002 2.91007L6.10544 1.81531C5.98113 1.691 5.85281 1.56268 5.73251 1.43436C5.4919 1.18573 5.23927 0.929086 4.97861 0.688481C4.58963 0.303513 4.12446 0.098999 3.63523 0.098999C3.14601 0.098999 2.67282 0.303513 2.27181 0.688481C2.2678 0.692491 2.2678 0.692491 2.26379 0.696501L0.90036 2.07196C0.38707 2.58525 0.094334 3.21082 0.0301728 3.93665C-0.0660692 5.10759 0.278798 6.19833 0.543463 6.91213C1.1931 8.66453 2.16354 10.2886 3.61117 12.029C5.36759 14.1263 7.4809 15.7824 9.89497 16.9494C10.8173 17.3865 12.0484 17.9038 13.4238 17.992C13.5081 17.996 13.5963 18 13.6765 18C14.6028 18 15.3808 17.6672 15.9903 17.0055C15.9943 16.9975 16.0023 16.9935 16.0063 16.9854C16.2149 16.7328 16.4555 16.5042 16.7081 16.2596C16.8805 16.0952 17.057 15.9228 17.2294 15.7423C17.6264 15.3293 17.8349 14.8481 17.8349 14.3548C17.8349 13.8576 17.6224 13.3804 17.2174 12.9794L15.0158 10.7698ZM16.4515 14.9924C16.4474 14.9924 16.4474 14.9964 16.4515 14.9924C16.2951 15.1609 16.1347 15.3132 15.9622 15.4817C15.7016 15.7303 15.4369 15.9909 15.1883 16.2837C14.7833 16.7168 14.3061 16.9213 13.6805 16.9213C13.6203 16.9213 13.5562 16.9213 13.496 16.9173C12.305 16.8411 11.1982 16.3759 10.3682 15.9789C8.09845 14.8802 6.10544 13.3202 4.44928 11.3433C3.08184 9.69512 2.16755 8.17129 1.56202 6.53518C1.18909 5.53667 1.05274 4.75871 1.11289 4.02487C1.153 3.55569 1.33345 3.16671 1.66629 2.83387L3.03372 1.46644C3.23022 1.28197 3.43874 1.18172 3.64326 1.18172C3.89589 1.18172 4.1004 1.3341 4.22873 1.46243C4.23274 1.46644 4.23675 1.47045 4.24076 1.47446C4.48537 1.70303 4.71796 1.93963 4.96257 2.19226C5.08688 2.32058 5.21521 2.44891 5.34353 2.58124L6.43828 3.67599C6.86335 4.10106 6.86335 4.49405 6.43828 4.91912C6.32199 5.03541 6.20971 5.1517 6.09341 5.26398C5.75657 5.60885 5.43576 5.92966 5.08688 6.24244C5.07886 6.25046 5.07084 6.25447 5.06683 6.26249C4.72197 6.60736 4.78613 6.94421 4.85831 7.17278C4.86232 7.18481 4.86633 7.19684 4.87034 7.20887C5.15506 7.89861 5.55606 8.54824 6.1656 9.32218L6.16961 9.32619C7.27639 10.6896 8.44332 11.7523 9.73056 12.5663C9.89497 12.6706 10.0634 12.7548 10.2238 12.835C10.3682 12.9072 10.5045 12.9754 10.6208 13.0475C10.6368 13.0556 10.6529 13.0676 10.6689 13.0756C10.8053 13.1438 10.9336 13.1759 11.0659 13.1759C11.3988 13.1759 11.6073 12.9673 11.6754 12.8992L13.0469 11.5277C13.1832 11.3914 13.3998 11.227 13.6524 11.227C13.901 11.227 14.1056 11.3834 14.2299 11.5197C14.2339 11.5237 14.2339 11.5237 14.2379 11.5277L16.4474 13.7373C16.8605 14.1463 16.8605 14.5674 16.4515 14.9924Z" fill="url(#paint0_linear)"/>
<defs>
<linearGradient id="paint0_linear" x1="8.9243" y1="0.098999" x2="8.9243" y2="18" gradientUnits="userSpaceOnUse">
<stop stop-color="#3949DB"/>
<stop offset="0.510417" stop-color="#C83BDC"/>
<stop offset="1" stop-color="#3949DB"/>
</linearGradient>
</defs>
</svg>
