<svg width="105" height="105" viewBox="0 0 105 105" fill="none" xmlns="http://www.w3.org/2000/svg">
<path d="M102.642 85.031H97.5099C97.9053 84.2608 98.1299 83.3892 98.1299 82.4655L98.1282 40.7331C98.1282 39.8835 97.4396 39.1951 96.5902 39.1951C95.7405 39.1951 95.0521 39.8837 95.0521 40.7331L95.0537 82.4655C95.0537 83.8791 93.9038 85.029 92.4902 85.029L12.5118 85.031C11.0982 85.031 9.94834 83.8812 9.94834 82.4676L9.94629 29.1493C9.94629 27.7357 11.0962 26.5858 12.5098 26.5858L53.3222 26.584C52.7933 27.5175 52.7143 28.652 53.1298 29.6602L47.678 29.6604C47.6749 29.6604 47.6718 29.66 47.6688 29.66H44.8848C44.8805 29.66 44.8764 29.6604 44.8723 29.6604L14.5605 29.662C13.7109 29.662 13.0225 30.3507 13.0225 31.2001L13.0239 63.6828C13.0239 64.5325 13.7125 65.2209 14.562 65.2209C15.4116 65.2209 16.1001 64.5323 16.1001 63.6828L16.0986 32.7382L41.3579 32.7369C41.1481 33.5751 40.9133 34.6005 40.8019 35.3909C40.7837 35.5211 40.7014 35.6396 40.5819 35.7085L38.0098 37.19C37.89 37.2593 37.7454 37.2716 37.6224 37.2218C36.749 36.8697 35.5005 36.5001 34.6065 36.2522C33.0572 35.8223 31.4114 36.4936 30.6065 37.8844L29.2165 40.2863C28.4091 41.6812 28.6504 43.4437 29.8032 44.5722C30.4637 45.2186 31.4065 46.1109 32.1489 46.6892C32.2518 46.7692 32.3131 46.8988 32.3131 47.036V49.9953C32.3131 50.1325 32.2516 50.2625 32.1489 50.3425C31.4065 50.9206 30.4635 51.8129 29.8032 52.4593C28.6504 53.5879 28.4091 55.3505 29.2165 56.7452L30.6065 59.1471C31.4114 60.5379 33.0563 61.21 34.6069 60.7791C35.5005 60.5314 36.749 60.1618 37.623 59.8095C37.7448 59.7603 37.8896 59.7722 38.0096 59.8413L40.5819 61.3228C40.7014 61.3917 40.7837 61.5104 40.8019 61.6404C40.9332 62.5713 41.2357 63.8305 41.4664 64.7224C41.8696 66.282 43.2752 67.3714 44.8846 67.3714H47.6686C49.278 67.3714 50.6836 66.282 51.0866 64.7226C51.3175 63.8303 51.62 62.5713 51.7513 61.6404C51.7697 61.5104 51.852 61.3917 51.9713 61.3228L54.5438 59.8413C54.6636 59.7722 54.8079 59.7601 54.9308 59.8097C55.8042 60.1618 57.0527 60.5314 57.9467 60.7793C59.4958 61.2085 61.1418 60.5379 61.9467 59.1471L63.3367 56.7452C64.1441 55.3503 63.9028 53.5879 62.75 52.4593C62.0895 51.8129 61.1467 50.9206 60.4043 50.3427C60.3014 50.2623 60.2399 50.1325 60.2399 49.9953V47.036C60.2399 46.8988 60.3012 46.769 60.4041 46.689C61.1465 46.1109 62.0895 45.2186 62.7498 44.5722C63.9025 43.4437 64.1439 41.681 63.3365 40.2863L61.9465 37.8844C61.1416 36.4936 59.4969 35.8219 57.9461 36.2524C57.0525 36.5001 55.804 36.8697 54.93 37.222C54.8082 37.2708 54.6634 37.2591 54.5434 37.1902L51.9709 35.7083C51.8515 35.6396 51.7693 35.5211 51.7511 35.3911C51.6395 34.6005 51.4047 33.5747 51.1951 32.7365L54.8844 32.7363C55.7337 33.9567 57.2718 34.5236 58.7264 34.1194C59.6203 33.8714 60.8692 33.5019 61.7425 33.1498C61.8643 33.1007 62.0091 33.1124 62.129 33.1816L64.7013 34.663C64.8209 34.7319 64.9031 34.8507 64.9214 34.9807C65.0528 35.9116 65.3551 37.1707 65.5858 38.0626C65.989 39.6222 67.3946 40.7116 69.0041 40.7116H71.788C73.3975 40.7116 74.8031 39.6222 75.206 38.0628C75.437 37.1705 75.7397 35.9116 75.8707 34.9807C75.8892 34.8507 75.9714 34.7319 76.0908 34.663L78.663 33.1816C78.7832 33.1124 78.9276 33.1003 79.0502 33.15C79.9237 33.5021 81.1722 33.8716 82.0661 34.1196C83.5199 34.5226 85.0584 33.9567 85.9076 32.7363H88.8989L88.901 78.8769L16.1007 78.8787L16.1003 70.3214C16.1003 69.4718 15.4116 68.7833 14.5622 68.7833C13.7125 68.7833 13.0241 69.472 13.0241 70.3214L13.0245 80.4168C13.0245 81.2664 13.7132 81.9549 14.5626 81.9549L90.4395 81.9528C90.8474 81.9528 91.2386 81.7908 91.5272 81.5023C91.8155 81.2139 91.9775 80.8228 91.9775 80.4147L91.9755 31.198C91.9755 30.3484 91.2868 29.66 90.4374 29.66H87.6629C88.0784 28.6518 87.9992 27.5173 87.4703 26.5838H92.4882C93.9018 26.5838 95.0517 27.7337 95.0517 29.1473L95.0519 34.2088C95.0519 35.0584 95.7405 35.7469 96.59 35.7469C97.4396 35.7469 98.128 35.0582 98.128 34.2088L98.1278 29.1473C98.1278 26.0377 95.5978 23.5076 92.4882 23.5076H84.3956C84.3734 23.4537 84.3597 23.3956 84.3597 23.3351V20.3759C84.3597 20.2387 84.421 20.1091 84.5244 20.0289C85.2666 19.4503 86.2095 18.5583 86.8699 17.9121C88.0226 16.7835 88.264 15.0209 87.4566 13.6261L86.0666 11.2242C85.2616 9.83341 83.6165 9.16137 82.0661 9.59224C81.1716 9.84038 79.9222 10.2099 79.05 10.5618C78.9282 10.6107 78.7834 10.599 78.6635 10.5301L76.091 9.04816C75.9716 8.97946 75.8894 8.86093 75.8711 8.73091C75.7397 7.79924 75.4372 6.54047 75.2067 5.64899C74.8035 4.08937 73.3979 3 71.7884 3H69.0045C67.395 3 65.9894 4.08938 65.5864 5.64879C65.3557 6.54067 65.053 7.79924 64.9218 8.7307C64.9035 8.86093 64.8213 8.97946 64.7017 9.04837L62.1296 10.5299C62.0093 10.5994 61.8647 10.6111 61.7429 10.5618C60.8715 10.2103 59.6217 9.84038 58.7264 9.59203C57.177 9.16239 55.5313 9.83341 54.7263 11.2242L53.3363 13.6261C52.5289 15.0211 52.7703 16.7835 53.923 17.9121C54.583 18.558 55.5255 19.4497 56.2687 20.0291C56.3717 20.1091 56.433 20.2387 56.433 20.3759V23.3351C56.433 23.3954 56.4192 23.4537 56.3971 23.5076L12.5098 23.5097C9.40017 23.5097 6.87012 26.0397 6.87012 29.1493L6.87217 82.4676C6.87217 83.3904 7.09652 84.2614 7.49109 85.031H2.3584C1.058 85.031 0 86.089 0 87.3894V91.491C0 95.2792 3.08191 98.3611 6.87012 98.3611H78.7223C79.572 98.3611 80.2604 97.6727 80.2604 96.823C80.2604 95.9734 79.572 95.285 78.7223 95.285H6.87012C4.77812 95.285 3.07617 93.583 3.07617 91.491V88.1072H41.5283V89.0301C41.5283 91.2351 43.3223 93.0291 45.5273 93.0291H59.4727C61.6777 93.0291 63.4717 91.2351 63.4717 89.0301V88.1072H101.924V91.491C101.924 93.583 100.222 95.285 98.1299 95.285H85.3609C84.5113 95.285 83.8228 95.9734 83.8228 96.823C83.8228 97.6727 84.5113 98.3611 85.3609 98.3611H98.1299C101.918 98.3611 105 95.2792 105 91.491V87.3894C105 86.089 103.942 85.031 102.642 85.031ZM48.1087 33.079C48.4066 34.2316 48.6185 35.2051 48.7052 35.8205C48.8572 36.8976 49.4882 37.8282 50.4361 38.3739L53.0086 39.8558C53.9548 40.4005 55.0746 40.4803 56.0807 40.0746C56.6586 39.8417 57.6132 39.5369 58.768 39.2164C58.9684 39.1604 59.1806 39.2463 59.2842 39.4252L60.6742 41.827C60.777 42.0044 60.7456 42.2294 60.5977 42.374C59.7444 43.2095 59.0041 43.8803 58.5135 44.2623C57.6557 44.9307 57.1637 45.9415 57.1637 47.036V49.9953C57.1637 51.0896 57.6555 52.1006 58.5135 52.769C59.0043 53.1512 59.7444 53.8221 60.5977 54.6575C60.7456 54.8021 60.777 55.0271 60.6742 55.2045L59.2842 57.6064C59.1806 57.785 58.9676 57.8701 58.7684 57.8153C57.613 57.4948 56.6586 57.1898 56.0811 56.9571C55.0739 56.551 53.9542 56.6308 53.0082 57.1759L50.4359 58.6574C49.4878 59.2035 48.857 60.1344 48.705 61.211V61.2112C48.6183 61.8265 48.4064 62.8 48.1083 63.9527C48.0562 64.1543 47.8753 64.2954 47.6684 64.2954H44.8844C44.6775 64.2954 44.4966 64.1543 44.4443 63.9525C44.1463 62.8 43.9345 61.8265 43.8478 61.211C43.6958 60.1344 43.065 59.2035 42.1169 58.6574L39.5448 57.1759C38.9972 56.8605 38.3919 56.7009 37.7838 56.7009C37.3406 56.7009 36.8962 56.7858 36.4721 56.9569C35.8942 57.1898 34.9396 57.4946 33.7848 57.8151C33.584 57.8713 33.372 57.785 33.2686 57.6064L31.8786 55.2045C31.7758 55.0271 31.8072 54.8021 31.9551 54.6575C32.8084 53.8221 33.5487 53.1512 34.0395 52.7688C34.8973 52.1004 35.3891 51.0896 35.3891 49.9953V47.036C35.3891 45.9415 34.8971 44.9305 34.0393 44.2625C33.5485 43.8803 32.8084 43.2095 31.9551 42.374C31.8072 42.2294 31.7758 42.0044 31.8786 41.827L33.2686 39.4252C33.3722 39.2465 33.5854 39.1612 33.7844 39.2162C34.9398 39.5367 35.8942 39.8417 36.4717 40.0744C37.478 40.4803 38.5978 40.4007 39.5446 39.8556L42.1167 38.3741C43.0648 37.8282 43.6958 36.8976 43.8478 35.8203C43.9345 35.2051 44.1463 34.2316 44.4445 33.0788C44.496 32.8793 44.6738 32.7396 44.8779 32.7367L47.6731 32.7365C47.8784 32.7388 48.0568 32.8787 48.1087 33.079ZM56.0751 15.7138C55.9273 15.5692 55.8959 15.3443 55.9986 15.1669L57.3887 12.765C57.492 12.5864 57.7051 12.5011 57.9044 12.556C59.0617 12.877 60.0159 13.1819 60.5918 13.4143C61.5981 13.8203 62.718 13.7406 63.6647 13.1955L66.2367 11.714C67.1848 11.1681 67.8158 10.2374 67.9678 9.16014C68.0546 8.54449 68.2664 7.57099 68.5646 6.41865C68.6167 6.21706 68.7976 6.07597 69.0045 6.07597H71.7884C71.9953 6.07597 72.1762 6.21706 72.2285 6.41886C72.5265 7.57099 72.7383 8.54449 72.8251 9.16034C72.9771 10.2374 73.6081 11.1681 74.5559 11.7138L77.1287 13.1957C78.0751 13.7406 79.1948 13.8205 80.2009 13.4143C80.7774 13.1817 81.7318 12.8772 82.8881 12.5562C83.088 12.5002 83.3009 12.5862 83.4043 12.765L84.7943 15.1669C84.897 15.3443 84.8656 15.5692 84.7178 15.7138C83.8646 16.5491 83.1243 17.2201 82.6342 17.602C81.7759 18.2703 81.2837 19.2812 81.2837 20.3759V23.3351C81.2837 24.4296 81.7757 25.4407 82.6336 26.1088C83.1245 26.4911 83.8646 27.1621 84.7178 27.9974C84.8656 28.142 84.897 28.3669 84.7943 28.5443L83.4043 30.9462C83.3009 31.1248 83.0878 31.2101 82.8885 31.1552C81.7331 30.8346 80.7786 30.5297 80.2011 30.2969C79.195 29.8911 78.0747 29.9704 77.1282 30.5157L74.5559 31.9972C73.6079 32.5433 72.9771 33.4742 72.8251 34.5509V34.5511C72.7383 35.1663 72.5265 36.1398 72.2283 37.2925C72.1762 37.4941 71.9953 37.6352 71.7884 37.6352H69.0045C68.7976 37.6352 68.6167 37.4941 68.5644 37.2923C68.2664 36.1398 68.0546 35.1663 67.9678 34.5509C67.8158 33.4742 67.185 32.5433 66.237 31.9972L63.6649 30.5157C63.1173 30.2003 62.5119 30.0408 61.9039 30.0408C61.4607 30.0408 61.0163 30.1257 60.5922 30.2967C60.0151 30.5295 59.0605 30.8342 57.9048 31.155C57.7045 31.211 57.492 31.125 57.3887 30.9462L57.1163 30.4755C57.1077 30.4593 57.0981 30.444 57.089 30.4284L55.9986 28.5443C55.8959 28.3669 55.9273 28.142 56.0751 27.9974C56.9278 27.1625 57.6682 26.4917 58.1595 26.1086C59.0174 25.4403 59.5092 24.4294 59.5092 23.3351V20.3759C59.5092 19.2814 59.0172 18.2703 58.1595 17.6024C57.668 17.2195 56.9278 16.5487 56.0751 15.7138ZM60.3955 89.0301C60.3955 89.5389 59.9815 89.9529 59.4727 89.9529H45.5273C45.0185 89.9529 44.6045 89.5389 44.6045 89.0301V88.1072H60.3955V89.0301Z" fill="url(#paint0_linear)"/>
<path d="M70.3966 30.0509C75.0242 30.0509 78.7892 26.2936 78.7892 21.6751C78.7892 17.0567 75.0244 13.2995 70.3966 13.2995C65.7688 13.2995 62.0039 17.0567 62.0039 21.6751C62.0039 26.2936 65.7688 30.0509 70.3966 30.0509ZM67.9998 26.4033H72.7933C72.0725 26.7678 71.2585 26.9747 70.3966 26.9747C69.5346 26.9747 68.7205 26.7678 67.9998 26.4033ZM70.3966 16.3758C73.3282 16.3758 75.713 18.7531 75.713 21.6753C75.713 22.2522 75.6189 22.8071 75.447 23.3274H65.3461C65.1745 22.8071 65.0801 22.2522 65.0801 21.6753C65.0801 18.7529 67.465 16.3758 70.3966 16.3758Z" fill="url(#paint1_linear)"/>
<path d="M37.8841 48.3352C37.8841 52.9538 41.6489 56.711 46.2767 56.711C50.9045 56.711 54.6693 52.9538 54.6693 48.3352C54.6693 43.7168 50.9045 39.9596 46.2767 39.9596C41.6489 39.9596 37.8841 43.717 37.8841 48.3352ZM51.5931 48.3352C51.5931 51.2573 49.2083 53.6348 46.2767 53.6348C43.3451 53.6348 40.9603 51.2573 40.9603 48.3352C40.9603 45.413 43.3451 43.0358 46.2767 43.0358C49.2083 43.0358 51.5931 45.413 51.5931 48.3352Z" fill="url(#paint2_linear)"/>
<defs>
<linearGradient id="paint0_linear" x1="52.5" y1="3" x2="52.5" y2="98.3611" gradientUnits="userSpaceOnUse">
<stop stop-color="#3949DB"/>
<stop offset="0.515625" stop-color="#C83BDC"/>
<stop offset="1" stop-color="#3949DB"/>
</linearGradient>
<linearGradient id="paint1_linear" x1="70.3966" y1="13.2995" x2="70.3966" y2="30.0509" gradientUnits="userSpaceOnUse">
<stop stop-color="#3949DB"/>
<stop offset="0.515625" stop-color="#C83BDC"/>
<stop offset="1" stop-color="#3949DB"/>
</linearGradient>
<linearGradient id="paint2_linear" x1="46.2767" y1="39.9596" x2="46.2767" y2="56.711" gradientUnits="userSpaceOnUse">
<stop stop-color="#3949DB"/>
<stop offset="0.515625" stop-color="#C83BDC"/>
<stop offset="1" stop-color="#3949DB"/>
</linearGradient>
</defs>
</svg>
