<svg width="19" height="15" viewBox="0 0 19 15" fill="none" xmlns="http://www.w3.org/2000/svg">
<path d="M17.2187 0.374969H1.78126C0.799014 0.374969 0 1.17398 0 2.15623V12.8437C0 13.826 0.799014 14.625 1.78126 14.625H17.2187C18.201 14.625 19 13.826 19 12.8437V2.15623C19 1.17398 18.201 0.374969 17.2187 0.374969ZM17.2187 1.56246C17.2994 1.56246 17.3762 1.5792 17.4463 1.60843L9.5 8.49555L1.55365 1.60843C1.62381 1.57924 1.70055 1.56246 1.78122 1.56246H17.2187ZM17.2187 13.4375H1.78126C1.45366 13.4375 1.1875 13.1713 1.1875 12.8437V2.86303L9.11092 9.73001C9.22285 9.82682 9.36142 9.87497 9.5 9.87497C9.63858 9.87497 9.77715 9.82686 9.88908 9.73001L17.8125 2.86303V12.8437C17.8125 13.1713 17.5463 13.4375 17.2187 13.4375Z" fill="url(#paint0_linear)"/>
<defs>
<linearGradient id="paint0_linear" x1="9.5" y1="0.374969" x2="9.5" y2="14.625" gradientUnits="userSpaceOnUse">
<stop stop-color="#3949DB"/>
<stop offset="0.510417" stop-color="#C83BDC"/>
<stop offset="1" stop-color="#3949DB"/>
</linearGradient>
</defs>
</svg>
