<svg width="105" height="105" viewBox="0 0 105 105" fill="none" xmlns="http://www.w3.org/2000/svg">
<g clip-path="url(#clip0)">
<path d="M57.0836 98.9577C56.2302 98.9577 55.5383 98.2658 55.5383 97.4125V93.3036C55.5383 92.7152 55.0595 92.2363 54.4711 92.2363H50.3227C49.7342 92.2363 49.2554 92.7152 49.2554 93.3036V97.4125C49.2554 98.2658 48.5636 98.9577 47.7102 98.9577C46.8568 98.9577 46.1649 98.2658 46.1649 97.4125V93.3036C46.1649 91.0111 48.0301 89.1459 50.3227 89.1459H54.4711C56.7636 89.1459 58.6288 91.0111 58.6288 93.3036V97.4125C58.6288 98.2658 57.9371 98.9577 57.0836 98.9577Z" fill="url(#paint0_linear)"/>
<path d="M67.2538 42.4725C66.7462 41.7866 65.7785 41.6426 65.0924 42.15C64.4065 42.6579 64.2623 43.6256 64.7699 44.3115L72.4431 54.6751C73.2967 55.8278 73.2349 57.564 72.3026 58.628L64.0356 68.0624H40.7583L32.4913 58.628C31.559 57.564 31.4972 55.8278 32.3508 54.6751L47.5849 34.0996V45.8236C45.6538 47.3078 44.5249 49.5779 44.5249 52.0556C44.5249 56.3963 48.0563 59.9276 52.3969 59.9276C56.7376 59.9276 60.269 56.3963 60.269 52.0556C60.269 49.6893 59.216 47.4797 57.415 45.9911V34.3779L60.8082 38.9607C61.316 39.6468 62.2838 39.7908 62.9696 39.2831C63.6555 38.7753 63.7997 37.8075 63.2921 37.1216L56.6641 28.1696C55.6207 26.7603 54.0654 25.9521 52.3972 25.9521C50.7289 25.9521 49.1736 26.7603 48.1303 28.1696L29.8671 52.8363C28.1543 55.1496 28.2833 58.5151 30.1672 60.665L37.0617 68.5327C35.3401 69.3354 34.1434 71.0815 34.1434 73.1029V80.4749C34.1434 82.7318 35.6345 84.6468 37.6832 85.2872L38.1048 97.4665C38.1336 98.3013 38.8193 98.9584 39.6482 98.9584C39.6663 98.9584 39.6844 98.9581 39.7026 98.9575C40.5555 98.9279 41.2229 98.2127 41.1934 97.3598L40.7834 85.5154H64.2169L63.8069 97.3598C63.7775 98.2127 64.445 98.9279 65.2978 98.9575C65.3159 98.9581 65.334 98.9584 65.3522 98.9584C66.1808 98.9584 66.8667 98.3013 66.8956 97.4665L67.3196 85.2165C69.2602 84.515 70.6509 82.6545 70.6509 80.4749V73.1029C70.6509 71.0815 69.4543 69.3354 67.7327 68.5327L74.6271 60.665C76.511 58.5153 76.64 55.1496 74.9273 52.8363L67.2538 42.4725ZM52.3969 29.0423C53.0855 29.0423 53.7188 29.3854 54.1799 30.0082L54.3246 30.2035V46.7676C54.3246 47.2874 54.586 47.7726 55.0203 48.0584C56.3717 48.9476 57.1785 50.442 57.1785 52.0552C57.1785 54.6918 55.0335 56.8368 52.3969 56.8368C49.7604 56.8368 47.6154 54.6918 47.6154 52.0552C47.6154 50.3655 48.4803 48.8343 49.9291 47.9589C50.3923 47.6791 50.6754 47.1774 50.6754 46.6364V29.9334C51.1307 29.3598 51.7376 29.0423 52.3969 29.0423ZM67.5604 80.4745C67.5604 81.5496 66.6856 82.4244 65.6105 82.4244H39.1836C38.1083 82.4244 37.2337 81.5496 37.2337 80.4745V73.1025C37.2337 72.0274 38.1085 71.1526 39.1836 71.1526H65.6105C66.6858 71.1526 67.5604 72.0274 67.5604 73.1025V80.4745Z" fill="url(#paint1_linear)"/>
<path d="M21.6462 42.9466C21.8492 38.0508 23.2108 33.2575 25.6208 29.01C26.0419 28.2677 25.7817 27.3247 25.0394 26.9035C24.297 26.4822 23.354 26.7426 22.9329 27.485C20.2619 32.1921 18.7602 37.5069 18.5533 42.9315C15.8866 43.6096 13.9083 46.0302 13.9083 48.905C13.9083 52.3032 16.6731 55.068 20.0713 55.068C23.4696 55.068 26.2343 52.3032 26.2343 48.905C26.2343 46.0508 24.284 43.6444 21.6462 42.9466ZM20.0713 51.9775C18.3771 51.9775 16.9988 50.5992 16.9988 48.905C16.9988 47.2108 18.3771 45.8324 20.0713 45.8324C21.7655 45.8324 23.1439 47.2108 23.1439 48.905C23.1439 50.5992 21.7655 51.9775 20.0713 51.9775Z" fill="url(#paint2_linear)"/>
<path d="M101.728 6.04227H96.7625C94.9585 6.04227 93.4907 7.51003 93.4907 9.31404V10.2517H58.2546V9.31404C58.2546 7.51003 56.7869 6.04227 54.9829 6.04227H50.0171C48.2131 6.04227 46.7453 7.51003 46.7453 9.31404V10.2517H11.5093V9.31404C11.5093 7.51003 10.0415 6.04227 8.23752 6.04227H3.27176C1.46775 6.04227 -1.52588e-05 7.51003 -1.52588e-05 9.31404V14.2798C-1.52588e-05 16.0838 1.46775 17.5516 3.27176 17.5516H8.23752C10.0415 17.5516 11.5093 16.0838 11.5093 14.2798V13.3422H38.3339C34.0439 15.3126 30.1714 18.175 26.9913 21.7876C26.4274 22.4281 26.4894 23.4045 27.1301 23.9684C27.4237 24.2268 27.7878 24.3539 28.1506 24.3539C28.5792 24.3539 29.0057 24.1767 29.311 23.8297C33.8803 18.6392 40.0188 15.1499 46.7453 13.8805V14.28C46.7453 16.084 48.2131 17.5518 50.0171 17.5518H54.9829C56.7869 17.5518 58.2546 16.084 58.2546 14.28V13.8803C72.2827 16.5235 82.7635 28.6206 83.3556 42.9463C80.717 43.6435 78.7656 46.0504 78.7656 48.9052C78.7656 52.3034 81.5304 55.0682 84.9287 55.0682C88.3269 55.0682 91.0917 52.3034 91.0917 48.9052C91.0917 46.0308 89.1136 43.6102 86.4471 42.9319C85.9533 29.9336 78.0585 18.5865 66.6669 13.3426H93.4907V14.2802C93.4907 16.0842 94.9585 17.552 96.7625 17.552H101.728C103.532 17.552 105 16.0842 105 14.2802V9.31404C105 7.51003 103.532 6.04227 101.728 6.04227ZM8.41883 14.2798C8.41883 14.3797 8.33744 14.4611 8.23752 14.4611H3.27176C3.17183 14.4611 3.09045 14.3797 3.09045 14.2798V9.31404C3.09045 9.21411 3.17183 9.13273 3.27176 9.13273H8.23752C8.33744 9.13273 8.41883 9.21411 8.41883 9.31404V14.2798ZM88.0012 48.9047C88.0012 50.5989 86.6229 51.9773 84.9287 51.9773C83.2345 51.9773 81.8561 50.5989 81.8561 48.9047C81.8561 47.2106 83.2345 45.8322 84.9287 45.8322C86.6229 45.8322 88.0012 47.2106 88.0012 48.9047ZM55.1642 14.2798C55.1642 14.3797 55.0828 14.4611 54.9829 14.4611H50.0171C49.9172 14.4611 49.8358 14.3797 49.8358 14.2798V9.31404C49.8358 9.21411 49.9172 9.13273 50.0171 9.13273H54.9829C55.0828 9.13273 55.1642 9.21411 55.1642 9.31404V14.2798ZM101.91 14.2798C101.91 14.3797 101.828 14.4611 101.728 14.4611H96.7625C96.6625 14.4611 96.5812 14.3797 96.5812 14.2798V9.31404C96.5812 9.21411 96.6625 9.13273 96.7625 9.13273H101.728C101.828 9.13273 101.91 9.21411 101.91 9.31404V14.2798Z" fill="url(#paint3_linear)"/>
</g>
<defs>
<linearGradient id="paint0_linear" x1="52.3969" y1="89.1459" x2="52.3969" y2="98.9577" gradientUnits="userSpaceOnUse">
<stop stop-color="#3949DB"/>
<stop offset="0.4375" stop-color="#C83BDC"/>
<stop offset="1" stop-color="#3949DB"/>
</linearGradient>
<linearGradient id="paint1_linear" x1="52.3972" y1="25.9521" x2="52.3972" y2="98.9584" gradientUnits="userSpaceOnUse">
<stop stop-color="#3949DB"/>
<stop offset="0.4375" stop-color="#C83BDC"/>
<stop offset="1" stop-color="#3949DB"/>
</linearGradient>
<linearGradient id="paint2_linear" x1="20.0713" y1="26.7019" x2="20.0713" y2="55.068" gradientUnits="userSpaceOnUse">
<stop stop-color="#3949DB"/>
<stop offset="0.4375" stop-color="#C83BDC"/>
<stop offset="1" stop-color="#3949DB"/>
</linearGradient>
<linearGradient id="paint3_linear" x1="52.5" y1="6.04227" x2="52.5" y2="55.0682" gradientUnits="userSpaceOnUse">
<stop stop-color="#3949DB"/>
<stop offset="0.4375" stop-color="#C83BDC"/>
<stop offset="1" stop-color="#3949DB"/>
</linearGradient>
<clipPath id="clip0">
<rect width="105" height="105" fill="white"/>
</clipPath>
</defs>
</svg>
