<svg width="1440" height="1558" viewBox="0 0 1440 1558" fill="none" xmlns="http://www.w3.org/2000/svg">
<path d="M-76 40.7784C-76 30.8196 -67.0871 23.1586 -57.2217 24.5192C12.9808 34.2012 279.778 63.0751 739.086 21.6778C1203.74 -20.2013 1412.27 9.8359 1461.95 19.1665C1469.15 20.5199 1474 26.817 1474 34.1491V854C1474 862.837 1466.84 870 1458 870H-60C-68.8366 870 -76 862.837 -76 854V40.7784Z" fill="#3949DB" fill-opacity="0.19"/>
<path d="M-33 45.7786C-33 35.8197 -24.0871 28.1586 -14.2217 29.5192C55.9808 39.2012 322.778 68.0751 782.086 26.6778C1246.74 -15.2013 1455.27 14.8359 1504.95 24.1665C1512.15 25.5199 1517 31.817 1517 39.1491V1541.5C1517 1550.34 1509.84 1557.5 1501 1557.5H-17C-25.8366 1557.5 -33 1550.34 -33 1541.5V45.7786Z" fill="#F6F7FB"/>
</svg>
