<svg width="100" height="100" viewBox="0 0 100 100" fill="none" xmlns="http://www.w3.org/2000/svg">
<g clip-path="url(#clip0)">
<path d="M57.8125 52.7344C58.8912 52.7344 59.7656 51.8599 59.7656 50.7812C59.7656 49.7026 58.8912 48.8281 57.8125 48.8281C56.7338 48.8281 55.8594 49.7026 55.8594 50.7812C55.8594 51.8599 56.7338 52.7344 57.8125 52.7344Z" fill="url(#paint0_linear)"/>
<path d="M42.1875 52.7344C43.2662 52.7344 44.1406 51.8599 44.1406 50.7812C44.1406 49.7026 43.2662 48.8281 42.1875 48.8281C41.1088 48.8281 40.2344 49.7026 40.2344 50.7812C40.2344 51.8599 41.1088 52.7344 42.1875 52.7344Z" fill="url(#paint1_linear)"/>
<path d="M49.791 21.4844C49.8105 21.4924 51.9531 21.4273 51.9531 23.4375C51.9531 24.5145 51.077 25.3906 50 25.3906C49.3799 25.3906 48.8102 25.1055 48.4367 24.6084C47.7891 23.7459 46.5648 23.5719 45.7021 24.2195C44.8396 24.8674 44.6656 26.0916 45.3133 26.9541C46.0115 27.8838 46.9713 28.5748 48.0469 28.9572V30.2734C48.0469 31.3521 48.9213 32.2266 50 32.2266C51.0787 32.2266 51.9531 31.3521 51.9531 30.2734V28.9609C54.2264 28.1547 55.8594 25.9838 55.8594 23.4375C55.8594 19.8895 52.7293 17.5781 50.4844 17.5781C50.4648 17.5711 48.0469 17.8014 48.0469 15.625C48.0469 14.548 48.923 13.6719 50 13.6719C50.6201 13.6719 51.1898 13.957 51.5633 14.4541C52.2111 15.3166 53.4354 15.4908 54.2979 14.843C55.1604 14.1951 55.3344 12.9709 54.6867 12.1084C53.9885 11.1787 53.0287 10.4877 51.9531 10.1053V8.78906C51.9531 7.71035 51.0787 6.83594 50 6.83594C48.9213 6.83594 48.0469 7.71035 48.0469 8.78906V10.1016C45.7736 10.9078 44.1406 13.0787 44.1406 15.625C44.1406 18.9818 46.9707 21.4844 49.791 21.4844Z" fill="url(#paint2_linear)"/>
<path d="M36.3281 68.3594C36.3281 73.8355 42.3336 78.125 50 78.125C57.6664 78.125 63.6719 73.8355 63.6719 68.3594C63.6719 62.8832 57.6664 58.5938 50 58.5938C42.3336 58.5938 36.3281 62.8832 36.3281 68.3594ZM50 62.5C55.2936 62.5 59.7656 65.1832 59.7656 68.3594C59.7656 71.5355 55.2936 74.2188 50 74.2188C44.7064 74.2188 40.2344 71.5355 40.2344 68.3594C40.2344 65.1832 44.7064 62.5 50 62.5Z" fill="url(#paint3_linear)"/>
<path d="M74.6094 85.1562C75.6881 85.1562 76.5625 84.2818 76.5625 83.2031C76.5625 82.1244 75.6881 81.25 74.6094 81.25C73.5307 81.25 72.6562 82.1244 72.6562 83.2031C72.6562 84.2818 73.5307 85.1562 74.6094 85.1562Z" fill="url(#paint4_linear)"/>
<path d="M23.7395 84.4609C26.5963 87.6264 28.5156 93.0863 28.5156 98.0469C28.5156 99.1256 29.39 100 30.4688 100H42.1875C43.2662 100 44.1406 99.1256 44.1406 98.0469V95.6844C46.1002 95.9564 48.0629 96.0938 50 96.0938C51.9371 96.0938 53.8998 95.9564 55.8594 95.6844V98.0469C55.8594 99.1256 56.7338 100 57.8125 100H69.5312C70.61 100 71.4844 99.1256 71.4844 98.0469C71.4844 95.975 71.8262 93.7408 72.473 91.5857C72.783 90.5525 72.1969 89.4637 71.1637 89.1535C70.1303 88.8438 69.0416 89.4299 68.7314 90.4629C68.1744 92.3188 67.8113 94.234 67.6594 96.0938H59.7656V93.3809C59.7656 92.1543 58.6463 91.2303 57.4412 91.4633C54.9592 91.9437 52.4555 92.1875 50 92.1875C47.5445 92.1875 45.0408 91.9437 42.5588 91.4633C41.3512 91.2305 40.2344 92.1562 40.2344 93.3809V96.0938H32.3426C31.9131 90.7418 29.7699 85.3127 26.6396 81.8441C22.9777 77.7855 20.7031 71.1217 20.7031 64.4531C20.7031 59.2172 22.0973 53.7557 24.7346 48.6594C25.1148 47.9246 24.9908 47.0299 24.4252 46.4262C22.025 43.8648 20.7031 40.5561 20.7031 37.1094V35.1562H22.6562C25.5777 35.1562 28.3977 36.1121 30.8113 37.9205C31.541 38.4672 32.5518 38.4365 33.2467 37.8463C34.6666 36.6406 36.1596 35.5859 37.6969 34.6945C41.1687 37.5182 45.4828 39.0625 50 39.0625C54.5174 39.0625 58.8318 37.518 62.3031 34.6945C63.8404 35.5857 65.3334 36.6404 66.7533 37.8463C67.4482 38.4363 68.459 38.4672 69.1887 37.9205C71.6023 36.1121 74.4223 35.1562 77.3438 35.1562H79.2969V37.1094C79.2969 40.5561 77.975 43.8648 75.5748 46.4262C75.0092 47.0299 74.8852 47.9246 75.2654 48.6594C77.9027 53.7557 79.2969 59.2172 79.2969 64.4531C79.2969 68.0859 78.6365 71.741 77.3869 75.0234C77.0031 76.0316 77.5092 77.1598 78.5174 77.5436C79.5252 77.9273 80.6537 77.4215 81.0375 76.4131C82.4543 72.6916 83.2031 68.5559 83.2031 64.4531C83.2031 59.0051 81.8668 53.3637 79.3285 48.0568C81.8361 44.9348 83.2031 41.0967 83.2031 37.1094V33.2031C83.2031 32.1244 82.3287 31.25 81.25 31.25H77.3438C74.0766 31.25 70.9166 32.1691 68.1184 33.9215C67.1553 33.1703 66.1643 32.4795 65.1529 31.8494C67.9586 28.3895 69.5312 24.023 69.5312 19.5312C69.5312 8.76172 60.7695 0 50 0C39.2305 0 30.4688 8.76172 30.4688 19.5312C30.4688 24.023 32.0414 28.3895 34.8471 31.8494C33.8357 32.4795 32.8447 33.1703 31.8816 33.9215C29.0834 32.1691 25.9234 31.25 22.6562 31.25H18.75C17.6713 31.25 16.7969 32.1244 16.7969 33.2031V37.1094C16.7969 41.0967 18.1639 44.9348 20.6715 48.0568C18.1332 53.3637 16.7969 59.0051 16.7969 64.4531C16.7969 72.1631 19.3922 79.6426 23.7395 84.4609ZM50 3.90625C58.6156 3.90625 65.625 10.9156 65.625 19.5312C65.625 28.2654 58.54 35.1562 50 35.1562C41.6096 35.1562 34.375 28.3998 34.375 19.5312C34.375 10.9156 41.3844 3.90625 50 3.90625Z" fill="url(#paint5_linear)"/>
</g>
<defs>
<linearGradient id="paint0_linear" x1="57.8125" y1="48.8281" x2="57.8125" y2="52.7344" gradientUnits="userSpaceOnUse">
<stop stop-color="#3949DB"/>
<stop offset="0.510417" stop-color="#C83BDC"/>
<stop offset="1" stop-color="#3949DB"/>
</linearGradient>
<linearGradient id="paint1_linear" x1="42.1875" y1="48.8281" x2="42.1875" y2="52.7344" gradientUnits="userSpaceOnUse">
<stop stop-color="#3949DB"/>
<stop offset="0.510417" stop-color="#C83BDC"/>
<stop offset="1" stop-color="#3949DB"/>
</linearGradient>
<linearGradient id="paint2_linear" x1="50" y1="6.83594" x2="50" y2="32.2266" gradientUnits="userSpaceOnUse">
<stop stop-color="#3949DB"/>
<stop offset="0.510417" stop-color="#C83BDC"/>
<stop offset="1" stop-color="#3949DB"/>
</linearGradient>
<linearGradient id="paint3_linear" x1="50" y1="58.5938" x2="50" y2="78.125" gradientUnits="userSpaceOnUse">
<stop stop-color="#3949DB"/>
<stop offset="0.510417" stop-color="#C83BDC"/>
<stop offset="1" stop-color="#3949DB"/>
</linearGradient>
<linearGradient id="paint4_linear" x1="74.6094" y1="81.25" x2="74.6094" y2="85.1562" gradientUnits="userSpaceOnUse">
<stop stop-color="#3949DB"/>
<stop offset="0.510417" stop-color="#C83BDC"/>
<stop offset="1" stop-color="#3949DB"/>
</linearGradient>
<linearGradient id="paint5_linear" x1="50" y1="0" x2="50" y2="100" gradientUnits="userSpaceOnUse">
<stop stop-color="#3949DB"/>
<stop offset="0.510417" stop-color="#C83BDC"/>
<stop offset="1" stop-color="#3949DB"/>
</linearGradient>
<clipPath id="clip0">
<rect width="100" height="100" fill="white"/>
</clipPath>
</defs>
</svg>
