<svg width="17" height="17" viewBox="0 0 17 17" fill="none" xmlns="http://www.w3.org/2000/svg">
<path d="M16.5435 7.39418C16.5429 7.39379 16.5426 7.39327 16.5422 7.39288L9.60681 0.458488C9.31119 0.162773 8.91816 0 8.5001 0C8.08203 0 7.689 0.162773 7.39326 0.458488L0.461536 7.38938C0.459201 7.39172 0.456736 7.39418 0.454531 7.39651C-0.152525 8.00701 -0.151487 8.99753 0.457515 9.60647C0.735749 9.8848 1.1031 10.0459 1.496 10.0629C1.51208 10.0644 1.52816 10.0652 1.54438 10.0652H1.82067V15.1684C1.82067 16.1784 2.64253 17 3.6526 17H6.36593C6.64105 17 6.86403 16.7769 6.86403 16.502V12.501C6.86403 12.0402 7.23903 11.6653 7.6999 11.6653H9.3003C9.76117 11.6653 10.136 12.0402 10.136 12.501V16.502C10.136 16.7769 10.359 17 10.6341 17H13.3475C14.3577 17 15.1794 16.1784 15.1794 15.1684V10.0652H15.4357C15.8536 10.0652 16.2467 9.90244 16.5426 9.6066C17.1522 8.99675 17.1525 8.00442 16.5435 7.39418ZM15.8381 8.90233C15.7305 9.00985 15.5876 9.06912 15.4357 9.06912H14.6813C14.4062 9.06912 14.1832 9.29208 14.1832 9.56717V15.1684C14.1832 15.6291 13.8083 16.0039 13.3475 16.0039H11.1322V12.501C11.1322 11.491 10.3105 10.6692 9.3003 10.6692H7.6999C6.6897 10.6692 5.86784 11.491 5.86784 12.501V16.0039H3.6526C3.19186 16.0039 2.81686 15.6291 2.81686 15.1684V9.56717C2.81686 9.29208 2.59388 9.06912 2.31876 9.06912H1.57733C1.56954 9.0686 1.56189 9.06821 1.55398 9.06808C1.40559 9.06549 1.2664 9.00661 1.16211 8.9022C0.940306 8.68041 0.940306 8.31946 1.16211 8.09754C1.16224 8.09754 1.16224 8.09741 1.16237 8.09728L1.16276 8.09689L8.09786 1.16276C8.20526 1.05524 8.34807 0.996094 8.5001 0.996094C8.65199 0.996094 8.79481 1.05524 8.90234 1.16276L15.8359 8.09547C15.8369 8.0965 15.8381 8.09754 15.8391 8.09858C16.0598 8.32076 16.0594 8.68093 15.8381 8.90233Z" fill="url(#paint0_linear)"/>
<defs>
<linearGradient id="paint0_linear" x1="8.5" y1="0" x2="8.5" y2="17" gradientUnits="userSpaceOnUse">
<stop stop-color="#3949DB"/>
<stop offset="0.510417" stop-color="#C83BDC"/>
<stop offset="1" stop-color="#3949DB"/>
</linearGradient>
</defs>
</svg>
