<svg width="542" height="353" viewBox="0 0 542 353" fill="none" xmlns="http://www.w3.org/2000/svg">
<g clip-path="url(#clip0)">
<path d="M467.215 352.743C508.127 352.743 541.294 349.456 541.294 345.401C541.294 341.346 508.127 338.059 467.215 338.059C426.302 338.059 393.135 341.346 393.135 345.401C393.135 349.456 426.302 352.743 467.215 352.743Z" fill="#E6E6E6"/>
<path d="M45.8819 345.687C60.5345 345.687 72.4127 344.043 72.4127 342.016C72.4127 339.988 60.5345 338.345 45.8819 338.345C31.2293 338.345 19.3511 339.988 19.3511 342.016C19.3511 344.043 31.2293 345.687 45.8819 345.687Z" fill="#E6E6E6"/>
<path d="M347.26 0H0V174.221H347.26V0Z" fill="#E6E6E6"/>
<path d="M331.315 14.1739H15.9458V160.047H331.315V14.1739Z" fill="white"/>
<path d="M16.363 160.464L15.5278 159.629L57.8766 117.281L71.1651 130.569L94.4925 107.241L123.136 135.884L171.858 87.1608L194.005 109.308L242.432 60.8801L269.599 88.0468L319.381 38.2654L320.216 39.1006L269.599 89.7171L242.432 62.5504L194.005 110.978L171.858 88.8312L123.136 137.554L94.4925 108.911L71.1651 132.239L57.8766 118.951L16.363 160.464Z" fill="#C83BDC"/>
<path d="M242.728 69.6883C246.642 69.6883 249.815 66.5154 249.815 62.6013C249.815 58.6873 246.642 55.5144 242.728 55.5144C238.814 55.5144 235.641 58.6873 235.641 62.6013C235.641 66.5154 238.814 69.6883 242.728 69.6883Z" fill="#C83BDC"/>
<path d="M95.083 115.753C98.997 115.753 102.17 112.58 102.17 108.666C102.17 104.752 98.997 101.58 95.083 101.58C91.169 101.58 87.9961 104.752 87.9961 108.666C87.9961 112.58 91.169 115.753 95.083 115.753Z" fill="#C83BDC"/>
<path d="M194.3 116.344C198.214 116.344 201.387 113.171 201.387 109.257C201.387 105.343 198.214 102.17 194.3 102.17C190.386 102.17 187.213 105.343 187.213 109.257C187.213 113.171 190.386 116.344 194.3 116.344Z" fill="#C83BDC"/>
<path d="M125.203 142.92C129.117 142.92 132.29 139.747 132.29 135.833C132.29 131.919 129.117 128.746 125.203 128.746C121.289 128.746 118.116 131.919 118.116 135.833C118.116 139.747 121.289 142.92 125.203 142.92Z" fill="#C83BDC"/>
<path d="M170.677 96.2643C174.591 96.2643 177.764 93.0914 177.764 89.1774C177.764 85.2634 174.591 82.0904 170.677 82.0904C166.763 82.0904 163.59 85.2634 163.59 89.1774C163.59 93.0914 166.763 96.2643 170.677 96.2643Z" fill="#C83BDC"/>
<path d="M269.304 96.2643C273.218 96.2643 276.391 93.0914 276.391 89.1774C276.391 85.2634 273.218 82.0904 269.304 82.0904C265.39 82.0904 262.217 85.2634 262.217 89.1774C262.217 93.0914 265.39 96.2643 269.304 96.2643Z" fill="#C83BDC"/>
<path d="M37.5461 323.971C40.4217 334.601 50.2713 341.185 50.2713 341.185C50.2713 341.185 55.4586 330.533 52.583 319.903C49.7074 309.273 39.8578 302.69 39.8578 302.69C39.8578 302.69 34.6705 313.341 37.5461 323.971Z" fill="#E6E6E6"/>
<path d="M41.772 321.687C49.6627 329.368 50.6265 341.176 50.6265 341.176C50.6265 341.176 38.7969 340.53 30.9062 332.849C23.0155 325.167 22.0518 313.359 22.0518 313.359C22.0518 313.359 33.8813 314.005 41.772 321.687Z" fill="#C83BDC"/>
<path d="M442.348 82.106L446.868 126.802H484.064L482.276 58.8643C482.276 44.2414 472.167 31.451 457.544 31.451C442.922 31.451 433.409 43.6454 433.409 58.2684L431.025 126.802H437.089L442.348 82.106Z" fill="#2F2E41"/>
<path d="M464.58 316.49C464.58 316.49 462.974 326.658 460.298 328.263C457.623 329.869 474.212 333.615 474.212 333.615L476.888 317.56L464.58 316.49Z" fill="#FBBEBE"/>
<path d="M484.38 200.362L490.267 207.319L487.591 231.401L485.45 279.03C485.45 279.03 489.732 320.236 485.45 321.306C481.169 322.377 461.904 321.842 462.439 319.166C462.974 316.49 463.509 314.349 464.58 310.603C465.65 306.857 463.509 293.479 463.509 293.479L466.185 278.494L456.552 213.741L484.38 200.362Z" fill="#2F2E41"/>
<path d="M465.115 326.658C465.115 326.658 459.228 325.588 458.693 326.658C458.158 327.728 447.99 338.966 446.384 338.966C444.779 338.966 433.006 349.669 445.314 350.205C457.623 350.74 477.958 341.107 477.958 341.107C477.958 341.107 474.966 327.489 475.124 328.144C475.283 328.798 465.115 329.334 465.115 326.658Z" fill="#2F2E41"/>
<path d="M458.693 302.041C458.693 302.041 473.677 318.631 474.212 320.236C474.747 321.842 482.775 320.236 482.775 320.236L485.986 309.533L483.31 305.787L468.326 293.479L458.693 302.041Z" fill="#FBBEBE"/>
<path d="M480.099 314.349L472.339 321.653C472.339 321.653 482.24 336.826 482.24 338.431C482.24 340.037 482.775 353.415 488.126 351.275C493.478 349.134 494.013 327.728 494.013 327.728C494.013 327.728 493.478 305.787 490.267 304.182C487.056 302.576 480.019 303.083 480.019 303.083C480.019 303.083 484.38 313.814 480.099 314.349Z" fill="#2F2E41"/>
<path d="M435.682 152.734C435.682 152.734 433.006 161.296 432.471 163.437C431.936 165.578 428.725 171.464 428.725 180.562C428.725 189.659 429.795 200.362 428.725 201.433C427.654 202.503 410.53 262.44 418.022 268.862C425.514 275.283 450.131 296.689 451.736 299.365C453.342 302.041 453.877 308.463 457.088 307.393C460.299 306.322 472.607 295.619 473.142 293.479C473.677 291.338 466.185 287.592 466.185 287.592C466.185 287.592 451.201 265.651 447.455 266.186C443.709 266.721 444.244 263.51 444.779 261.905C445.314 260.299 446.385 259.229 444.779 259.229C443.174 259.229 444.244 254.948 444.779 252.807C445.314 250.667 457.623 221.768 457.623 221.768L490.267 207.319C490.267 207.319 488.662 168.253 476.888 157.55L474.212 151.129C474.212 151.129 444.244 148.988 435.682 152.734Z" fill="#2F2E41"/>
<path d="M449.06 68.1803C449.06 68.1803 451.736 86.9105 445.314 87.9808C438.892 89.0511 433.541 88.516 433.541 89.0511C433.541 89.5863 449.596 106.176 449.596 106.176L464.58 105.106L477.958 90.6566C477.958 90.6566 465.65 88.516 465.65 81.0238C465.65 73.5317 465.115 68.1802 465.115 68.1802L449.06 68.1803Z" fill="#FFB8B8"/>
<path d="M457.355 75.9399C466.518 75.9399 473.945 68.5125 473.945 59.3503C473.945 50.1881 466.518 42.7606 457.355 42.7606C448.193 42.7606 440.766 50.1881 440.766 59.3503C440.766 68.5125 448.193 75.9399 457.355 75.9399Z" fill="#FFB8B8"/>
<path d="M447.673 86.6184C447.673 86.6184 421.768 89.0511 420.162 96.0081C418.557 102.965 430.865 146.312 432.471 150.058C434.076 153.804 433.541 156.48 433.541 156.48C435.962 154.669 438.744 153.398 441.697 152.752C444.651 152.106 447.709 152.1 450.666 152.734C460.834 154.875 475.283 153.804 475.283 153.804C475.283 153.804 480.099 134.004 481.169 131.863C482.24 129.723 486.521 117.949 486.521 114.738C486.521 111.527 492.943 98.1487 492.943 98.1487C492.943 98.1487 489.732 88.516 477.958 89.0512C477.958 89.0512 472.823 86.7527 471.377 88.4371C469.931 90.1215 461.904 97.6136 451.736 94.4027C441.568 91.1918 447.673 86.6184 447.673 86.6184Z" fill="#E6E6E6"/>
<path d="M482.775 95.4729L492.943 98.1487C492.943 98.1487 500.435 125.441 500.97 125.977C501.505 126.512 502.04 129.723 502.04 129.723C502.04 129.723 502.04 130.258 503.111 131.863C504.181 133.469 505.786 132.398 504.716 134.539C503.646 136.68 502.04 135.609 503.111 137.75C504.181 139.89 503.646 145.777 503.646 145.777C503.646 145.777 500.97 135.609 491.337 138.285L484.916 109.387L482.775 95.4729Z" fill="#E6E6E6"/>
<path d="M486.136 100.595L486.099 100.718L468.472 156.248L456.902 153.678L444.39 150.901L462.054 93.6389L486.136 100.595Z" fill="#C83BDC"/>
<path d="M430.515 95.4729L420.348 98.1487C420.348 98.1487 412.855 125.441 412.32 125.977C411.785 126.512 411.25 129.723 411.25 129.723C411.25 129.723 411.25 130.258 410.18 131.863C409.109 133.469 407.504 132.398 408.574 134.539C409.644 136.68 411.25 135.609 410.18 137.75C409.109 139.89 409.644 145.777 409.644 145.777C409.644 145.777 412.32 135.609 421.953 138.285L428.375 109.387L430.515 95.4729Z" fill="#E6E6E6"/>
<path d="M412.855 136.68L409.512 142.267C409.512 142.267 408.039 152.734 415.531 152.734C423.023 152.734 433.726 142.566 433.726 142.566C433.726 142.566 439.077 140.426 442.288 140.961C445.499 141.496 463.159 140.961 455.667 131.863C448.175 122.766 435.331 131.863 435.331 131.863L421.953 138.285L414.996 134.539L412.855 136.68Z" fill="#FFB8B8"/>
<path d="M417.404 129.455L422.755 138.017C422.755 138.017 410.447 139.623 409.377 142.299C408.306 144.974 414.193 128.385 414.193 128.385L417.404 129.455Z" fill="#E6E6E6"/>
<path d="M443.54 53.5009C454.317 47.6906 458.744 47.9366 472.145 53.5009L475.721 44.7893C475.719 43.149 475.066 41.5764 473.906 40.4165C472.746 39.2566 471.174 38.6042 469.534 38.6023H445.555C443.915 38.6042 442.342 39.2566 441.182 40.4165C440.022 41.5764 439.37 43.149 439.368 44.7893L443.54 53.5009Z" fill="#2F2E41"/>
<path opacity="0.2" d="M486.099 100.718L468.472 156.248L456.902 153.678L474.29 97.3099L486.099 100.718Z" fill="black"/>
<path d="M477.958 97.3087L460.298 154.57L484.38 159.921L502.04 104.265L477.958 97.3087Z" fill="#C83BDC"/>
<path d="M500.435 136.68L503.778 142.267C503.778 142.267 505.251 152.734 497.759 152.734C490.267 152.734 479.564 142.566 479.564 142.566C479.564 142.566 474.212 140.426 471.001 140.961C467.791 141.496 450.131 140.961 457.623 131.863C465.115 122.766 477.958 131.863 477.958 131.863L491.337 138.285L498.294 134.539L500.435 136.68Z" fill="#FFB8B8"/>
<path d="M495.886 129.455L490.535 138.017C490.535 138.017 502.843 139.623 503.913 142.299C504.984 144.974 499.097 128.385 499.097 128.385L495.886 129.455Z" fill="#E6E6E6"/>
</g>
<defs>
<clipPath id="clip0">
<rect width="541.294" height="352.743" fill="white"/>
</clipPath>
</defs>
</svg>
