<svg width="14" height="14" viewBox="0 0 14 14" fill="none" xmlns="http://www.w3.org/2000/svg">
<path d="M14 1.60388C14 0.719269 13.2807 0 12.3961 0H1.60388C0.719269 0 0 0.719269 0 1.60388V12.3953C0 13.2807 0.719269 14 1.60388 14H12.3953C13.2807 14 14 13.2807 14 12.3961V1.60388ZM10.5481 4.6918C10.7756 4.91931 10.7756 5.28845 10.5481 5.51682L6.75668 9.3082C6.64304 9.42206 6.49329 9.47888 6.3446 9.47888C6.19507 9.47888 6.04617 9.42206 5.93253 9.3082L4.03641 7.41208C3.8089 7.18457 3.8089 6.81543 4.03641 6.58707C4.26392 6.3587 4.63306 6.35956 4.86142 6.58707L6.3446 8.07004L9.72391 4.69095C9.95056 4.46429 10.3197 4.46429 10.5481 4.6918Z" fill="#08AA3F"/>
</svg>
