<svg width="398" height="371" viewBox="0 0 398 371" fill="none" xmlns="http://www.w3.org/2000/svg">
<g clip-path="url(#clip0)">
<path opacity="0.2" d="M199 371C308.905 371 398 366.968 398 361.995C398 357.022 308.905 352.991 199 352.991C89.0953 352.991 0 357.022 0 361.995C0 366.968 89.0953 371 199 371Z" fill="#E6E6E6"/>
<path d="M341.358 86.5183H339.363V31.7173C339.363 27.5521 338.544 23.4277 336.954 19.5796C335.364 15.7315 333.033 12.235 330.095 9.28976C327.157 6.34453 323.669 4.00825 319.83 2.41431C315.991 0.82037 311.876 -1.44527e-05 307.721 1.90965e-10H191.895C187.74 -9.85406e-06 183.626 0.820376 179.787 2.41432C175.948 4.00826 172.46 6.34454 169.521 9.28977C166.583 12.235 164.253 15.7315 162.662 19.5796C161.072 23.4277 160.254 27.5521 160.254 31.7173V332.36C160.254 336.525 161.072 340.649 162.662 344.497C164.253 348.345 166.583 351.842 169.521 354.787C172.46 357.732 175.948 360.069 179.787 361.663C183.626 363.257 187.74 364.077 191.895 364.077H307.721C311.876 364.077 315.991 363.257 319.83 361.663C323.669 360.069 327.157 357.732 330.095 354.787C333.033 351.842 335.364 348.345 336.954 344.497C338.544 340.649 339.363 336.525 339.363 332.36V125.527H341.358V86.5183Z" fill="#3F3D56"/>
<path d="M308.998 8.25176H293.879C294.574 9.96046 294.84 11.8143 294.652 13.6501C294.464 15.4858 293.829 17.2471 292.802 18.7787C291.775 20.3103 290.388 21.5653 288.763 22.4331C287.139 23.3009 285.326 23.7549 283.485 23.755H217.13C215.289 23.7549 213.477 23.3009 211.852 22.4331C210.227 21.5653 208.84 20.3103 207.813 18.7787C206.786 17.2471 206.151 15.4858 205.963 13.6501C205.775 11.8143 206.041 9.96045 206.736 8.25174H192.615C189.512 8.25173 186.439 8.86439 183.572 10.0547C180.705 11.2451 178.1 12.9898 175.906 15.1892C173.712 17.3887 171.972 19.9998 170.784 22.8735C169.597 25.7473 168.985 28.8273 168.985 31.9378V332.139C168.985 335.25 169.597 338.33 170.784 341.203C171.972 344.077 173.712 346.688 175.906 348.888C178.1 351.087 180.705 352.832 183.572 354.022C186.439 355.213 189.512 355.825 192.615 355.825H308.998C312.101 355.825 315.174 355.213 318.041 354.022C320.908 352.832 323.513 351.087 325.707 348.888C327.901 346.688 329.642 344.077 330.829 341.203C332.017 338.33 332.628 335.25 332.628 332.139V31.9379C332.628 28.8274 332.017 25.7473 330.829 22.8736C329.642 19.9998 327.901 17.3887 325.707 15.1892C323.513 12.9898 320.908 11.2451 318.041 10.0547C315.174 8.86441 312.101 8.25175 308.998 8.25176Z" fill="white"/>
<path d="M256.914 334.562C246.63 334.567 236.656 331.028 228.665 324.539C220.673 318.05 215.15 309.004 213.02 298.919C210.89 288.833 212.283 278.32 216.966 269.142C221.649 259.963 229.337 252.677 238.741 248.504C248.145 244.331 258.695 243.525 268.621 246.222C278.548 248.918 287.248 254.952 293.265 263.313C299.281 271.674 302.247 281.854 301.667 292.147C301.086 302.44 296.994 312.22 290.076 319.848L299.441 330.371L294.767 332.358C287.538 335.432 280.463 332.441 276.492 330.054C270.39 333.019 263.696 334.561 256.914 334.562ZM256.914 252.046C251.195 252.048 245.552 253.36 240.416 255.882C235.28 258.405 230.787 262.071 227.281 266.601C223.775 271.13 221.348 276.403 220.186 282.016C219.025 287.63 219.158 293.435 220.577 298.989C221.996 304.543 224.663 309.698 228.374 314.06C232.085 318.423 236.741 321.877 241.988 324.16C247.234 326.442 252.932 327.492 258.645 327.229C264.358 326.967 269.936 325.398 274.952 322.644L276.953 321.542L278.813 322.869C280.938 324.419 283.352 325.526 285.912 326.125L280.019 319.503L282.602 317.069C286.354 313.566 289.343 309.322 291.379 304.604C293.416 299.887 294.456 294.798 294.436 289.657C294.425 279.686 290.468 270.126 283.434 263.074C276.399 256.023 266.862 252.057 256.914 252.046Z" fill="#E6E6E6"/>
<path d="M298.074 289.657C298.07 280.619 295.105 271.831 289.633 264.647C284.161 257.463 276.486 252.279 267.788 249.894C259.091 247.508 249.852 248.053 241.494 251.444C233.136 254.836 226.12 260.885 221.526 268.663C216.933 276.441 215.015 285.517 216.069 294.493C217.123 303.47 221.09 311.852 227.359 318.348C233.628 324.845 241.853 329.097 250.769 330.45C259.684 331.804 268.797 330.184 276.704 325.84C279.549 327.869 286.49 331.917 293.347 329.001L285.093 319.727C289.196 315.873 292.466 311.216 294.699 306.043C296.931 300.871 298.08 295.293 298.074 289.657Z" fill="white"/>
<path d="M265.127 281.222H235.716V283.959H265.127V281.222Z" fill="#C83BDC"/>
<path d="M286.976 290.692H235.716V293.43H286.976V290.692Z" fill="#E6E6E6"/>
<path d="M286.926 300.163H235.716V302.901H286.926V300.163Z" fill="#E6E6E6"/>
<path d="M256.914 134.959C246.63 134.964 236.656 131.425 228.665 124.936C220.673 118.447 215.15 109.401 213.02 99.3157C210.89 89.2301 212.283 78.7171 216.966 69.5386C221.649 60.3601 229.337 53.074 238.741 48.9011C248.145 44.7283 258.695 43.9225 268.621 46.6186C278.548 49.3148 287.248 55.3491 293.265 63.7103C299.281 72.0715 302.247 82.2514 301.667 92.5441C301.086 102.837 296.994 112.617 290.076 120.245L299.441 130.768L294.767 132.755C287.538 135.829 280.463 132.838 276.492 130.451C270.39 133.416 263.696 134.958 256.914 134.959ZM256.914 52.4427C251.195 52.4445 245.552 53.7568 240.416 56.2794C235.28 58.802 230.787 62.4681 227.281 66.9976C223.775 71.527 221.348 76.7999 220.186 82.4134C219.025 88.0269 219.158 93.8323 220.577 99.386C221.996 104.94 224.663 110.095 228.374 114.457C232.085 118.82 236.741 122.274 241.988 124.557C247.234 126.839 252.932 127.889 258.645 127.626C264.358 127.364 269.936 125.795 274.952 123.041L276.953 121.939L278.813 123.266C280.938 124.816 283.352 125.923 285.912 126.522L280.019 119.9L282.602 117.466C286.354 113.963 289.343 109.719 291.379 105.001C293.416 100.284 294.456 95.1946 294.436 90.0544C294.425 80.0826 290.468 70.5225 283.434 63.4714C276.399 56.4203 266.862 52.454 256.914 52.4427Z" fill="#E6E6E6"/>
<path d="M298.074 90.0543C298.07 81.0155 295.105 72.2282 289.633 65.0438C284.161 57.8595 276.486 52.676 267.788 50.2906C259.091 47.9052 249.852 48.4501 241.494 51.8413C233.136 55.2326 226.12 61.2824 221.526 69.0603C216.933 76.8383 215.015 85.9136 216.069 94.8904C217.123 103.867 221.09 112.249 227.359 118.745C233.628 125.242 241.853 129.494 250.769 130.847C259.684 132.201 268.797 130.581 276.704 126.237C279.549 128.266 286.49 132.314 293.347 129.398L285.093 120.124C289.196 116.27 292.466 111.613 294.699 106.44C296.931 101.268 298.08 95.6903 298.074 90.0543Z" fill="white"/>
<path d="M265.127 81.6185H235.716V84.3562H265.127V81.6185Z" fill="#C83BDC"/>
<path d="M286.976 91.0893H235.716V93.827H286.976V91.0893Z" fill="#E6E6E6"/>
<path d="M286.926 100.56H235.716V103.298H286.926V100.56Z" fill="#E6E6E6"/>
<path d="M313.926 138.795C317.509 138.795 320.414 135.883 320.414 132.291C320.414 128.7 317.509 125.788 313.926 125.788C310.343 125.788 307.438 128.7 307.438 132.291C307.438 135.883 310.343 138.795 313.926 138.795Z" fill="#E6E6E6"/>
<path d="M313.926 338.398C317.509 338.398 320.414 335.486 320.414 331.894C320.414 328.303 317.509 325.391 313.926 325.391C310.343 325.391 307.438 328.303 307.438 331.894C307.438 335.486 310.343 338.398 313.926 338.398Z" fill="#E6E6E6"/>
<path d="M84.2264 118.956L81.1162 134.546L95.6319 145.459L102.371 125.193L84.2264 118.956Z" fill="#9F616A"/>
<path d="M95.8909 133.247C103.621 133.247 109.888 126.965 109.888 119.216C109.888 111.467 103.621 105.185 95.8909 105.185C88.1604 105.185 81.8936 111.467 81.8936 119.216C81.8936 126.965 88.1604 133.247 95.8909 133.247Z" fill="#9F616A"/>
<path d="M65.5635 226.527C65.5635 226.527 76.4503 279.013 78.0056 284.209C79.5608 289.406 78.0056 289.925 78.0056 289.925C78.0056 289.925 75.9319 291.484 77.4872 292.004C79.0424 292.524 74.3766 295.122 74.3766 295.122C74.3766 295.122 72.303 304.996 71.2661 307.074C70.2293 309.153 65.5635 322.145 65.0451 322.145C64.5267 322.145 61.9346 329.939 61.9346 329.939C61.9346 329.939 68.1556 339.813 74.8951 335.656L77.4872 330.979L98.224 300.319C98.224 300.319 107.037 290.445 104.963 278.493L106 290.965L108.074 331.498C108.074 331.498 102.371 335.136 106.519 340.852C106.519 340.852 117.406 344.49 122.071 338.774C122.071 338.774 123.108 335.656 121.553 334.097C119.998 332.538 119.998 332.538 121.034 331.498C122.071 330.459 123.627 328.38 123.627 327.341V323.184L126.219 275.895C126.219 275.895 118.961 228.086 113.258 225.487C107.556 222.889 65.5635 226.527 65.5635 226.527Z" fill="#2F2E41"/>
<path d="M107.038 338.774C107.038 338.774 100.298 351.765 106.001 353.324C109.555 354.275 113.21 354.798 116.888 354.883C116.888 354.883 131.404 366.316 137.106 360.6C142.809 354.883 134.514 350.206 134.514 350.206C134.514 350.206 124.146 342.931 123.627 340.852C123.109 338.774 107.038 338.774 107.038 338.774Z" fill="#2F2E41"/>
<path d="M62.1936 329.16C62.1936 329.16 50.547 342.437 55.5542 345.586C58.6813 347.528 62.0278 349.091 65.5232 350.24C65.5232 350.24 76.1109 365.399 83.2214 361.584C90.332 357.77 83.7452 350.884 83.7452 350.884C83.7452 350.884 75.925 340.909 76.0298 338.769C76.1346 336.629 62.1936 329.16 62.1936 329.16Z" fill="#2F2E41"/>
<path d="M115.851 227.046C115.851 227.046 113.777 231.204 105.482 229.645C97.1875 228.086 64.5271 229.645 64.5271 229.645C64.5271 229.645 66.3415 192.489 62.1942 170.143C58.0468 147.798 74.377 135.066 74.377 135.066L79.5612 129.869C84.7454 129.35 95.6943 145.479 95.6943 145.479C99.5047 146.119 105.674 163.294 108.65 178.499C110.065 185.754 111.33 193.502 112.393 200.627C114.549 215.12 115.851 227.046 115.851 227.046Z" fill="#C83BDC"/>
<path d="M79.5165 110.48C79.5165 110.48 76.8995 104.709 83.7038 102.085C83.7038 102.085 89.4612 92.6414 100.976 98.9373C100.976 98.9373 108.827 102.085 108.827 110.48C108.827 118.874 111.444 120.448 111.444 120.448C111.444 120.448 107.547 116.441 106.5 113.293C105.453 110.145 97.3123 109.431 94.1719 112.578C91.0315 115.726 83.1804 115.202 83.1804 115.202L83.7038 126.744C83.7038 126.744 81.0868 119.924 80.04 119.924C78.9931 119.924 77.9463 110.48 79.5165 110.48Z" fill="#2F2E41"/>
<path d="M180.172 229.27C176.047 231.75 168.698 234.857 161.188 231.664L156.333 229.6L166.062 218.668C158.299 210.088 154.004 198.916 154.016 187.333C154.027 175.749 158.345 164.586 166.126 156.022C173.906 147.458 184.592 142.107 196.096 141.015C207.6 139.923 219.097 143.167 228.344 150.114C237.59 157.062 243.922 167.214 246.103 178.589C248.285 189.964 246.159 201.746 240.141 211.634C234.123 221.523 224.645 228.809 213.557 232.07C202.468 235.331 190.566 234.332 180.172 229.27V229.27ZM161.532 187.307C161.511 192.646 162.592 197.933 164.708 202.833C166.823 207.734 169.928 212.142 173.825 215.782L176.509 218.31L170.387 225.188C173.046 224.566 175.553 223.416 177.761 221.806L179.694 220.428L181.772 221.573C189.264 225.691 197.898 227.227 206.346 225.946C214.794 224.664 222.588 220.636 228.529 214.481C234.47 208.326 238.229 200.384 239.228 191.878C240.226 183.373 238.41 174.773 234.057 167.403C229.704 160.034 223.056 154.302 215.135 151.089C207.215 147.877 198.461 147.361 190.22 149.623C181.979 151.885 174.708 156.798 169.525 163.606C164.341 170.415 161.533 178.742 161.532 187.307V187.307Z" fill="#C83BDC"/>
<path d="M157.754 187.307C157.758 177.917 160.838 168.789 166.523 161.326C172.207 153.863 180.179 148.478 189.214 146.001C198.249 143.523 207.846 144.089 216.528 147.611C225.211 151.134 232.499 157.419 237.271 165.498C242.043 173.578 244.034 183.005 242.94 192.33C241.845 201.655 237.724 210.362 231.212 217.11C224.699 223.859 216.155 228.276 206.894 229.682C197.632 231.088 188.167 229.405 179.953 224.893C176.997 227.001 169.787 231.205 162.664 228.177L171.238 218.542C166.976 214.539 163.58 209.701 161.26 204.328C158.941 198.955 157.747 193.161 157.754 187.307Z" fill="white"/>
<path opacity="0.1" d="M235.709 187.09C235.708 176.379 231.707 166.057 224.493 158.156C217.279 150.255 207.375 145.347 196.731 144.4C197.977 144.291 199.237 144.232 200.51 144.232C211.847 144.235 222.719 148.753 230.734 156.79C238.749 164.827 243.252 175.726 243.252 187.09C243.252 198.454 238.749 209.353 230.734 217.39C222.719 225.428 211.847 229.945 200.51 229.949C199.239 229.949 197.981 229.889 196.737 229.78C207.38 228.831 217.282 223.923 224.495 216.022C231.707 208.121 235.708 197.8 235.709 187.09Z" fill="black"/>
<path d="M206.511 178.544H175.959V181.388H206.511V178.544Z" fill="#C83BDC"/>
<path d="M229.208 188.382H175.959V191.226H229.208V188.382Z" fill="#C83BDC"/>
<path d="M229.156 198.22H175.959V201.064H229.156V198.22Z" fill="#C83BDC"/>
<path opacity="0.2" d="M112.393 200.627C100.34 194.552 78.2704 178.473 71.4273 170.008C62.9096 159.48 72.1997 151.472 72.1997 151.472C82.734 144.81 95.3316 167.67 95.3316 167.67L108.65 178.499C110.065 185.754 111.33 193.502 112.393 200.627Z" fill="black"/>
<path d="M147.205 191.753C147.205 191.753 165.591 199.234 168.617 190.824C171.643 182.414 154.101 182.558 154.101 182.558L147.214 183.536L147.205 191.753Z" fill="#9F616A"/>
<path d="M69.8432 148.051C69.8432 148.051 60.5552 156.06 69.0681 166.587C77.581 177.114 109.655 199.434 116.704 199.606C123.753 199.778 142.188 192.7 142.188 192.7L149.4 194.023L150.76 180.451L140.135 181.49L110.171 178.235L92.973 164.248C92.973 164.248 80.3757 141.391 69.8432 148.051Z" fill="#C83BDC"/>
<path opacity="0.2" d="M103.679 244.531L105.304 282.59L101.184 244.531H103.679Z" fill="black"/>
</g>
<defs>
<clipPath id="clip0">
<rect width="398" height="371" fill="white"/>
</clipPath>
</defs>
</svg>
