<svg width="402" height="368" viewBox="0 0 402 368" fill="none" xmlns="http://www.w3.org/2000/svg">
<g clip-path="url(#clip0)">
<path opacity="0.1" d="M225.2 57.5574C203.165 56.7952 182.18 49.7009 162.152 41.9455C142.124 34.1901 122.253 25.5851 100.747 21.4526C86.9138 18.8077 71.0967 18.4312 59.9506 25.8285C49.2279 32.9503 45.758 45.2424 43.8988 56.6482C42.5182 65.2302 41.6714 74.2621 45.5141 82.2931C48.1787 87.872 52.9141 92.5602 56.1861 97.905C67.5807 116.492 59.5272 139.414 47.18 157.565C41.3907 166.078 34.6717 174.201 30.2032 183.279C25.7346 192.357 23.6637 202.725 27.5754 211.973C31.4503 221.156 40.6866 228.016 50.6914 232.861C71.0139 242.692 94.9582 245.506 118.309 247.095C169.999 250.621 221.96 249.097 273.788 247.554C292.965 246.985 312.229 246.411 331.097 243.454C341.576 241.81 352.395 239.202 360.002 232.893C369.666 224.899 372.05 211.367 365.58 201.343C354.724 184.533 324.718 180.354 317.13 162.313C312.956 152.381 317.245 141.32 323.31 132.113C336.329 112.369 358.147 95.0214 359.298 72.4208C360.09 56.9145 349.597 41.3807 333.379 34.0385C316.38 26.3474 292.803 27.3162 280.263 40.0491C267.35 53.1907 244.653 58.2324 225.2 57.5574Z" fill="white"/>
<path opacity="0.1" d="M181.435 368C258.693 368 321.322 359.547 321.322 349.119C321.322 338.691 258.693 330.238 181.435 330.238C104.177 330.238 41.5474 338.691 41.5474 349.119C41.5474 359.547 104.177 368 181.435 368Z" fill="white"/>
<path d="M215.959 96.2428C215.959 96.2428 211.628 87.7159 212.212 85.1813C212.797 82.6467 209.166 77.233 209.166 77.233L209.401 68.2516C209.401 68.2516 208.899 69.1699 206.285 69.9735C206.064 69.6842 205.825 69.3995 205.576 69.1286C204.63 68.145 203.577 67.2688 202.438 66.5159L197.836 56.6069L193.386 49.8066C193.386 49.8066 186.368 35.5722 179.119 32.4314L177.978 30.2045C178.016 30.1823 178.044 30.1469 178.056 30.1053C178.069 30.0637 178.066 30.0188 178.047 29.9795L176.887 27.7157C176.867 27.6766 176.832 27.6465 176.791 27.6312C176.749 27.616 176.703 27.6166 176.662 27.6331L175.553 25.4658C175.129 22.6571 174.023 19.9946 172.331 17.7103C172.216 17.5496 172.092 17.4027 171.972 17.2512L173.776 17.1869C175.36 17.1272 177.127 16.9894 178.19 15.8094C178.571 15.3695 178.852 14.8526 179.014 14.2941C179.15 13.8564 179.24 13.4054 179.28 12.9487C179.28 12.8798 179.28 12.811 179.28 12.7467C179.28 12.5906 179.28 12.4375 179.28 12.2875C179.28 12.1635 179.28 12.0441 179.28 11.9202C179.28 11.7962 179.28 11.7227 179.28 11.6263C179.28 11.5299 179.23 11.3095 179.202 11.1671C179.202 11.1074 179.202 11.0477 179.165 10.988C179.127 10.8082 179.079 10.6304 179.023 10.4554C179.009 10.4211 178.998 10.3858 178.991 10.3498C178.926 10.1661 178.857 9.98245 178.779 9.80338C178.766 9.77977 178.755 9.7552 178.747 9.72991C178.664 9.55083 178.572 9.37635 178.475 9.20645L178.447 9.15135C178.414 9.08008 178.375 9.01106 178.332 8.94472C177.085 6.98864 174.895 5.8453 172.81 4.81216C170.865 3.79165 168.868 2.87208 166.827 2.05712C159.241 -0.781683 150.86 -0.663638 143.357 2.38772C142.616 2.66771 141.914 3.04115 141.268 3.49893C140.367 4.25954 139.598 5.1623 138.99 6.17131L135.423 11.4288C134.925 12.0684 134.535 12.785 134.268 13.5502C133.601 16.0481 135.695 18.5506 135.46 21.1266C135.34 22.4077 134.65 23.5832 134.517 24.8643C134.346 26.5173 135.115 28.1106 135.865 29.6029L140.969 39.7048C140.697 41.0318 140.398 42.3909 140.071 43.7042C137.72 46.1286 136.928 47.451 136.712 48.1673L136.643 48.2041C136.177 48.5042 135.776 48.8945 135.465 49.352L130.614 54.0539C130.614 54.0539 122.183 56.2396 120.43 59.0084C120.43 59.0084 107.199 58.4298 107.314 76.8657C107.314 76.8657 106.73 83.7808 106.394 84.7038C106.058 85.6267 106.394 94.9571 106.394 94.9571L106.237 113.857C106.237 113.857 105.731 123.88 106.237 127.453C106.743 131.025 107.328 144.621 107.328 144.621C107.328 144.621 110.49 157.873 109.321 162.598C108.198 167.121 109.321 177.011 111.161 177.053C111.511 177.774 111.912 178.127 112.349 177.925C112.539 177.843 112.734 177.772 112.933 177.714V189.005C112.933 189.005 110.655 204.824 113.209 207.831C111.516 210.237 109.528 214.342 109.021 215.421L91.1196 214.462L88.8416 215.1L86.7523 215.683L85.4868 244.735L85.993 244.772L85.9562 245.658L87.1527 245.745L85.4868 275.004L110.269 277.038C109.178 279.476 107.912 282.089 107.42 282.341C106.5 282.8 104.493 281.423 104.024 281.992C103.554 282.562 102.151 283.26 100.512 282.911C98.874 282.562 97.8201 284.407 97.8201 284.407C97.8201 284.407 98.0595 284.619 98.4184 285.009C95.7585 284.688 92.3944 286.111 90.5674 287.029C89.7482 287.443 89.2374 287.75 89.2374 287.75H84.4053L87.0606 304.652L88.9337 305.929L89.3939 319.245C89.3939 319.245 96.886 342.291 100.319 342.139C100.542 342.132 100.761 342.076 100.96 341.976C101.159 341.876 101.335 341.734 101.474 341.561C103.315 339.439 102.04 332.152 102.04 332.152V320.021C102.04 320.021 104.847 318.79 104.535 317.867C104.222 316.944 109.063 306.847 109.495 305.929C109.508 305.921 109.518 305.91 109.524 305.897C109.531 305.884 109.534 305.87 109.532 305.855C109.532 304.818 111.64 303.665 111.52 303.206C111.401 302.747 116.675 299.863 117.043 297.329C117.411 294.794 120.904 296.176 120.904 296.176L125.349 291.079C125.483 297.292 125.736 301.64 126.173 302.742C128.281 308.046 129.1 316.343 129.1 316.343C129.1 316.343 127.811 322.68 129.1 324.755C129.892 326.022 131.732 327.382 133.012 328.507C131.682 332.529 131.87 341.079 131.87 341.079V345.992L141.705 348.747C141.705 348.747 142.013 346.29 142.483 346.29C142.952 346.29 149.197 351.052 149.197 351.052C149.197 351.052 173.238 351.36 179.322 351.052C181.623 350.937 182.249 349.95 181.894 348.756C181.31 346.768 178.029 344.192 175.111 343.994C170.426 343.687 164.494 338.774 164.494 338.774C164.494 338.774 164.954 337.695 162.465 336.161C160.744 335.105 155.98 330.83 153.035 328.327C153.173 328.139 153.316 327.951 153.449 327.749C153.449 327.749 149.469 322.239 150.292 319.796C151.116 317.353 149.938 313.827 149.938 313.827C149.938 313.827 147.715 307.026 147.715 303.569C147.715 301.379 147.384 288.921 147.145 280.087L149.197 280.257L149.238 279.375L150.159 279.458L158.861 280.257L158.594 270.977C162.787 269.14 166.275 267.436 167.72 266.348C172.635 262.675 176.851 262.431 176.851 262.431C176.851 262.431 186.8 257.133 188.323 254.942C189.847 252.752 189.704 236.851 189.704 236.851L188.885 202.771V202.743C188.885 202.743 188.185 186.268 186.777 182.696C186.262 181.374 184.987 176.965 183.593 171.933C184.394 171.851 185.203 171.885 185.995 172.034C186.045 173.265 186.078 174.109 186.078 174.399C186.078 176.355 188.885 178.017 188.885 178.017L186.897 133.936V103.948C193.027 105.895 207.85 106.501 207.85 106.501C218.531 105.941 215.959 96.2428 215.959 96.2428ZM158.139 58.3702H158.107C158.324 57.2145 158.608 56.0723 158.958 54.9493L158.139 58.3702ZM117.908 209.562C121.539 210.159 125.731 209.985 126.049 209.282C126.081 209.213 126.123 209.089 126.178 208.929C126.293 209.131 126.403 209.337 126.518 209.548L126.164 216.197V216.349L114.199 215.706C115.036 212.147 116.619 210.412 117.908 209.562ZM157.794 243.109L157.485 232.342C158.019 230.358 158.498 228.558 158.907 227.015C159.091 228.296 159.248 229.477 159.368 230.565C160.5 240.781 158.829 242.774 157.794 243.109ZM191.849 81.6732C191.163 81.9349 188.554 80.2957 186.078 78.5967C186.078 78.2845 186.101 77.9769 186.114 77.6784C186.464 70.6485 174.991 66.2725 171.48 65.4644C170.628 65.245 169.801 64.9372 169.013 64.546C167.143 63.6215 165.324 62.596 163.565 61.4742L163.611 61.341C163.611 61.341 159.082 58.4804 158.986 54.9126C160.018 51.6675 161.32 48.5142 162.879 45.4857C162.966 45.3067 163.063 45.1184 163.155 44.9393C165.295 44.2752 167.293 43.2195 169.046 41.8261C169.75 51.0096 183.068 58.912 183.068 58.912L184.49 61.2078L184.826 61.7497C184.108 62.1721 183.763 62.5119 184.007 62.7093C185.019 63.5175 187.467 68.0909 188.48 70.024C188.756 70.5474 188.94 70.8735 188.94 70.8735C188.94 70.8735 191.117 76.783 192.364 81.7283C192.198 81.6593 192.016 81.6401 191.839 81.6732H191.849Z" fill="url(#paint0_linear)"/>
<path d="M196.994 57.8559L196.838 58.0625L196.304 58.7742L186.064 65.9924L183.892 62.4292L182.511 60.1334C182.511 60.1334 162.101 47.9193 170.878 36.1461C179.654 24.3729 192.622 51.0693 192.622 51.0693L196.994 57.8559Z" fill="#FFC5D3"/>
<path d="M176.4 29.0943C176.357 29.0082 176.252 28.9736 176.165 29.0169C176.079 29.0603 176.044 29.1652 176.088 29.2512L177.226 31.5068C177.27 31.5929 177.375 31.6275 177.461 31.5842C177.547 31.5408 177.582 31.4359 177.539 31.3499L176.4 29.0943Z" fill="#3A3768"/>
<path d="M164.715 32.2479L164.711 32.25C164.664 32.274 164.644 32.3319 164.668 32.3795L165.008 33.0521C165.032 33.0996 165.09 33.1188 165.138 33.0948L165.142 33.0927C165.189 33.0688 165.209 33.0108 165.185 32.9633L164.845 32.2907C164.821 32.2431 164.763 32.224 164.715 32.2479Z" fill="#3A3768"/>
<path d="M165.644 33.8405C165.617 33.7861 165.551 33.7643 165.496 33.7916C165.442 33.819 165.42 33.8853 165.447 33.9396L166.091 35.2151C166.118 35.2694 166.185 35.2913 166.239 35.2639C166.294 35.2365 166.316 35.1703 166.288 35.1159L165.644 33.8405Z" fill="#3A3768"/>
<path d="M166.637 35.8257C166.611 35.7736 166.547 35.7526 166.495 35.7788C166.443 35.8051 166.422 35.8686 166.448 35.9207L167.102 37.2166C167.128 37.2687 167.192 37.2897 167.244 37.2634C167.296 37.2372 167.317 37.1737 167.291 37.1216L166.637 35.8257Z" fill="#3A3768"/>
<path d="M172.829 24.6655L164.23 28.9861C163.722 29.2416 163.517 29.86 163.773 30.3673L173.531 49.6997C173.787 50.207 174.407 50.4112 174.915 50.1557L183.514 45.835C184.022 45.5795 184.227 44.9611 183.971 44.4538L174.213 25.1215C173.957 24.6141 173.337 24.41 172.829 24.6655Z" fill="#3A3768"/>
<path d="M171.729 25.8928C171.68 25.9171 171.636 25.951 171.6 25.9925C171.564 26.034 171.536 26.0822 171.519 26.1344C171.502 26.1865 171.495 26.2415 171.5 26.2962C171.504 26.3509 171.519 26.4042 171.545 26.453L171.582 26.531C171.607 26.5801 171.622 26.6337 171.627 26.6888C171.631 26.7438 171.625 26.7992 171.608 26.8517C171.59 26.9043 171.563 26.9529 171.527 26.9948C171.491 27.0367 171.447 27.071 171.397 27.0958L166.97 29.3182C166.921 29.3434 166.868 29.3587 166.813 29.3631C166.758 29.3675 166.703 29.3609 166.651 29.3438C166.599 29.3267 166.55 29.2994 166.509 29.2635C166.467 29.2276 166.433 29.1837 166.409 29.1345L166.367 29.0565C166.343 29.0073 166.309 28.9635 166.268 28.9274C166.226 28.8914 166.178 28.8638 166.126 28.8463C166.074 28.8288 166.019 28.8218 165.964 28.8255C165.909 28.8293 165.855 28.8438 165.806 28.8682L164.945 29.3044C164.851 29.3508 164.767 29.4154 164.698 29.4945C164.629 29.5736 164.576 29.6656 164.543 29.7652C164.51 29.8648 164.498 29.97 164.506 30.0746C164.514 30.1791 164.543 30.281 164.591 30.3743L173.998 49.003C174.094 49.1916 174.261 49.3346 174.463 49.4008C174.665 49.4671 174.885 49.4511 175.074 49.3565L182.797 45.4765C182.986 45.3802 183.129 45.2133 183.195 45.012C183.262 44.8108 183.246 44.5916 183.151 44.4021L173.74 25.7642C173.693 25.6704 173.627 25.5868 173.547 25.5182C173.468 25.4496 173.375 25.3974 173.275 25.3646C173.175 25.3317 173.069 25.3189 172.964 25.3268C172.859 25.3347 172.757 25.3632 172.663 25.4107L171.729 25.8928Z" fill="#C83BDC"/>
<path d="M169.156 27.3036L167.993 27.8881C167.911 27.9291 167.878 28.0285 167.919 28.1101C167.96 28.1916 168.06 28.2244 168.142 28.1833L169.305 27.5989C169.387 27.5578 169.42 27.4584 169.378 27.3769C169.337 27.2954 169.238 27.2625 169.156 27.3036Z" fill="#E6E8EC"/>
<path d="M169.759 27.3575C169.863 27.3575 169.948 27.2733 169.948 27.1693C169.948 27.0653 169.863 26.981 169.759 26.981C169.655 26.981 169.57 27.0653 169.57 27.1693C169.57 27.2733 169.655 27.3575 169.759 27.3575Z" fill="#E6E8EC"/>
<path d="M178.356 97.3448L175.479 174.357C175.479 174.357 185.144 171.143 186.639 173.554C188.135 175.964 185.029 134.983 185.029 134.983L178.356 97.3448Z" fill="#5F5570"/>
<path opacity="0.15" d="M178.356 97.3448L175.479 174.357C175.479 174.357 185.144 171.143 186.639 173.554C188.135 175.964 185.029 134.983 185.029 134.983L178.356 97.3448Z" fill="black"/>
<path d="M178.816 351.19C172.833 351.497 149.211 351.19 149.211 351.19C149.211 351.19 143.072 346.446 142.612 346.446C142.152 346.446 141.848 348.894 141.848 348.894L132.184 346.139V341.244C132.184 341.244 131.875 327.308 134.788 326.702C137.702 326.096 150.592 326.702 150.592 326.702C151.052 326.55 159.796 334.816 162.249 336.345C164.702 337.874 164.241 338.948 164.241 338.948C164.241 338.948 170.072 343.843 174.674 344.151C177.541 344.343 180.767 346.906 181.342 348.894C181.692 350.092 181.071 351.075 178.816 351.19Z" fill="#BC8487"/>
<path opacity="0.1" d="M178.816 351.19C172.833 351.497 149.211 351.19 149.211 351.19C149.211 351.19 143.072 346.446 142.612 346.446C142.152 346.446 141.848 348.894 141.848 348.894L132.184 346.139V341.34L141.231 344.61L148.443 348.894H181.342C181.692 350.092 181.071 351.075 178.816 351.19Z" fill="black"/>
<g opacity="0.1">
<path d="M151.954 343.999C151.954 343.999 159.317 336.96 164.242 338.948L151.954 343.999Z" fill="black"/>
<path d="M151.954 343.999C151.954 343.999 159.317 336.96 164.242 338.948" stroke="black" stroke-miterlimit="10"/>
</g>
<path d="M105.336 318.129C105.644 319.047 102.883 320.274 102.883 320.274V332.364C102.883 332.364 104.134 339.623 102.326 341.74C102.19 341.912 102.018 342.052 101.823 342.151C101.628 342.25 101.413 342.306 101.194 342.314C97.8205 342.465 90.4572 319.507 90.4572 319.507L89.997 306.241L88.1562 304.969L85.5469 288.131H90.3054C90.3054 288.131 90.807 287.824 91.6123 287.41C93.9133 286.24 98.7316 284.196 101.35 286.143L110.246 306.14C110.246 306.14 105.032 317.211 105.336 318.129Z" fill="#BC8487"/>
<path opacity="0.1" d="M102.326 341.74C102.19 341.912 102.018 342.052 101.823 342.151C101.628 342.25 101.413 342.306 101.194 342.314C97.8205 342.465 90.4572 319.507 90.4572 319.507L89.997 306.241L88.1562 304.969L85.5469 288.131H90.3054C90.3054 288.131 90.807 287.824 91.6123 287.41L92.7582 304.662L93.3703 319.507C93.3703 319.507 99.1504 335.67 102.326 341.74Z" fill="black"/>
<path d="M187.675 255.415C186.179 257.596 176.4 262.877 176.4 262.877C176.4 262.877 172.258 263.106 167.426 266.78C164.927 268.681 156.243 272.451 148.443 275.651C141.158 278.64 134.636 281.129 134.636 281.129L127.126 289.853L121.406 296.498C121.406 296.498 117.954 295.12 117.609 297.645C117.264 300.171 112.087 303.041 112.202 303.5C112.317 303.959 110.246 305.107 110.246 306.14C110.246 307.173 102.537 298.679 102.652 293.513C102.767 288.347 98.7407 284.789 98.7407 284.789C98.7407 284.789 99.7762 282.952 101.387 283.296C102.998 283.641 104.378 282.952 104.838 282.378C105.299 281.804 107.254 283.181 108.175 282.722C109.095 282.263 112.777 273.194 112.777 273.194L127.121 263.593L155.654 244.51L156.97 243.628C156.97 243.628 160.767 245.364 159.225 231.143C158.926 228.388 158.424 225.041 157.66 220.963C152.943 195.824 169.856 192.954 169.856 192.954L184.697 197.89L188.264 203.4V203.428L189.069 237.379C189.069 237.379 189.17 253.234 187.675 255.415Z" fill="#433A59"/>
<path opacity="0.1" d="M148.328 271.486C148.328 271.486 148.374 273.116 148.443 275.651C141.158 278.64 134.637 281.129 134.637 281.129L127.126 289.853C127.002 282.621 127.029 273.227 127.126 263.598L155.659 244.514C152.129 257.569 148.328 271.486 148.328 271.486Z" fill="black"/>
<path opacity="0.1" d="M188.25 203.414V203.441L165.93 203.873C165.93 203.873 162.018 219.141 161.443 222.355C161.301 223.145 160.435 226.519 159.211 231.157C158.912 228.402 158.41 225.055 157.647 220.977C152.929 195.838 169.842 192.968 169.842 192.968L184.683 197.904L188.25 203.414Z" fill="black"/>
<path d="M129.459 161.744L126.583 216.845C126.583 216.845 124.512 297.774 126.583 303.055C128.654 308.335 129.459 316.6 129.459 316.6C129.459 316.6 128.194 322.914 129.459 324.98C130.725 327.046 134.752 329.342 134.637 330.49C134.521 331.638 146.947 337.837 153.39 327.965C153.39 327.965 149.478 322.455 150.283 320.044C151.089 317.633 149.938 314.075 149.938 314.075C149.938 314.075 147.752 307.302 147.752 303.844C147.752 300.387 146.947 271.473 146.947 271.473C146.947 271.473 159.487 225.555 160.063 222.341C160.638 219.127 164.55 203.859 164.55 203.859L188.25 203.4C188.25 203.4 187.56 186.985 186.179 183.426C184.799 179.867 178.011 153.809 178.011 153.809L129.459 161.744Z" fill="#433A59"/>
<path d="M89.9051 215.761L87.848 216.349L87.7651 218.378L149.441 219.173V218.374L89.9051 215.761Z" fill="#7B728F"/>
<path d="M162.654 46.776C153.68 64.9363 159.253 68.7337 160.141 69.2021C158.24 68.3204 133.537 56.7401 136.786 53.8014C138.898 51.8866 140.707 43.5572 141.77 37.588C142.4 34.0248 142.768 31.3019 142.768 31.3019L168.692 36.0451C166.179 40.0859 164.182 43.6445 162.654 46.776Z" fill="#FFC5D3"/>
<path opacity="0.1" d="M196.856 58.0625L196.322 58.7742L186.064 65.9924L183.892 62.4292C187.054 60.5925 196.534 57.3783 196.534 57.3783L196.856 58.0625Z" fill="black"/>
<path d="M206.313 74.6157C205.392 77.8299 189.86 74.6157 189.86 74.6157L188.25 72.0902C188.25 72.0902 188.089 71.7688 187.817 71.2453C186.823 69.3214 184.416 64.7664 183.422 63.9583C182.157 62.9251 196.998 57.8742 196.998 57.8742L201.545 67.7464C202.666 68.4983 203.7 69.3714 204.628 70.3499C205.779 71.5943 206.731 73.1509 206.313 74.6157Z" fill="#E5E8EF"/>
<path d="M180.542 76.0942C180.542 76.0942 189.746 83.34 191.126 82.8165C192.507 82.2931 214.827 97.331 214.827 97.331C214.827 97.331 217.358 106.974 206.888 107.548C206.888 107.548 184.683 106.629 183.763 103.415C182.843 100.201 180.542 76.0942 180.542 76.0942Z" fill="#5F5570"/>
<path opacity="0.1" d="M155.461 61.5292L145.451 71.8607L159.487 160.94L165.01 157.726C165.01 157.726 179.276 164.04 180.427 158.185C181.577 152.331 181.259 129.257 181.259 129.257L179.391 87.5736C179.391 87.5736 172.833 72.9948 172.833 72.5356C172.833 72.0765 163.376 64.9593 163.376 64.9593L158.912 61.5155L155.461 61.5292Z" fill="black"/>
<path d="M155.461 60.1517L145.451 70.4831L159.487 159.563L165.01 156.349C165.01 156.349 179.276 162.662 180.427 156.808C181.577 150.953 181.259 127.88 181.259 127.88L179.391 86.196C179.391 86.196 172.833 71.6173 172.833 71.1581C172.833 70.6989 163.376 63.5817 163.376 63.5817L158.912 60.1379L155.461 60.1517Z" fill="#E5E8EF"/>
<path opacity="0.1" d="M156.036 61.6441L153.275 67.2689L156.036 70.1755C156.036 70.1755 165.93 90.1128 163.975 101.937L166.046 140.851L172.718 147.395L178.011 141.297L175.48 105.941C175.48 105.941 168.692 76.783 161.559 67.7143L159.488 59.6788L156.036 61.6441Z" fill="black"/>
<path d="M156.036 60.7257L153.275 66.3506L156.036 69.2571C156.036 69.2571 165.93 89.1945 163.975 101.018L166.046 139.933L172.718 146.476L178.011 140.379L175.48 105.022C175.48 105.022 168.692 75.8647 161.559 66.796L159.488 58.7604L156.036 60.7257Z" fill="#BC8487"/>
<path opacity="0.1" d="M168.691 36.0451C166.179 40.0858 164.2 43.6444 162.653 46.776C161.025 47.2552 159.335 47.498 157.637 47.4969C151.949 47.4969 148.673 43.571 145.451 39.4017C144.715 38.4558 142.294 38.6762 141.77 37.565C142.4 34.0018 142.768 31.2789 142.768 31.2789L168.691 36.0451Z" fill="black"/>
<path d="M175.277 29.433C175.277 33.6247 173.777 37.6786 171.048 40.8653C168.319 44.0521 164.54 46.1624 160.39 46.8166C156.241 47.4707 151.994 46.6257 148.413 44.4337C144.832 42.2416 142.153 38.8465 140.858 34.8591C139.562 30.8717 139.736 26.5539 141.347 22.6828C142.958 18.8116 145.9 15.6412 149.646 13.7421C153.391 11.8429 157.692 11.3398 161.776 12.3231C165.86 13.3065 169.458 15.7118 171.922 19.1062C174.103 22.1098 175.277 25.724 175.277 29.433Z" fill="#FFC5D3"/>
<path opacity="0.1" d="M152.009 68.6464L137.513 51.1978C137.513 51.1978 136.174 50.6606 140.697 45.9357C140.697 45.9357 157.311 58.8568 158.342 61.0517C159.372 63.2465 152.009 68.6464 152.009 68.6464Z" fill="black"/>
<path d="M151.549 67.7281L137.052 50.2795C137.052 50.2795 135.713 49.7423 140.237 45.0174C140.237 45.0174 156.85 57.9385 157.881 60.1334C158.912 62.3282 151.549 67.7281 151.549 67.7281Z" fill="#E5E8EF"/>
<path d="M188.25 178.779C188.25 178.779 185.489 177.126 185.489 175.175C185.489 173.223 184.108 145.673 184.108 145.673C184.108 145.673 182.083 129.23 179.966 116.162C178.724 108.461 177.449 101.927 176.547 100.632L176.51 100.577C174.094 97.478 174.555 82.3252 159.483 60.1701C159.685 60.3079 164.881 63.9445 168.687 65.772C169.462 66.1605 170.274 66.4682 171.112 66.6904C174.564 67.4939 185.839 71.8561 185.494 78.8585C185.148 85.8609 186.299 101.932 186.299 101.932V134.868L188.25 178.779Z" fill="#5F5570"/>
<path d="M188.25 72.0902C188.25 72.0902 193.082 85.4063 192.392 88.7353C191.702 92.0643 203.552 105.151 203.552 105.151L214.827 97.3448C214.827 97.3448 210.57 88.8501 211.145 86.3246C211.72 83.7992 208.154 78.4039 208.154 78.4039L208.384 69.4592C208.384 69.4592 206.313 73.3392 188.25 72.0902Z" fill="#5F5570"/>
<path opacity="0.1" d="M171.922 19.1062L163.178 19.4368C162.324 19.4312 161.473 19.5377 160.647 19.7536C157.522 20.7133 156.082 24.0285 155.967 27.0086C155.852 29.9886 154.126 33.3268 150.78 33.5885C150.447 33.645 150.105 33.5691 149.828 33.3773C149.615 33.1521 149.475 32.8693 149.423 32.5646C148.943 30.8281 148.201 29.1746 147.223 27.6606C145.842 27.9085 144.821 29.2172 144.462 30.5855C144.103 31.9539 144.199 33.3957 144.204 34.8145C144.208 36.6165 144.034 38.4144 143.684 40.1823C142.257 38.3344 141.213 36.222 140.612 33.9679C140.011 31.7138 139.864 29.3629 140.182 27.052C140.499 24.741 141.274 22.516 142.461 20.5064C143.648 18.4968 145.223 16.7426 147.095 15.3459C148.968 13.9491 151.1 12.9376 153.367 12.3702C155.635 11.8028 157.993 11.6908 160.304 12.0407C162.615 12.3906 164.834 13.1954 166.831 14.4083C168.828 15.6213 170.563 17.2182 171.936 19.1062H171.922Z" fill="black"/>
<path d="M160.192 19.2945C161.018 19.0786 161.869 18.9721 162.723 18.9777L173.34 18.5828C174.895 18.5231 176.63 18.3853 177.675 17.2328C178.05 16.7927 178.326 16.2776 178.485 15.7221C178.758 14.8346 178.838 13.8991 178.72 12.9781C178.602 12.0572 178.288 11.172 177.799 10.3819C176.57 8.43044 174.417 7.29628 172.364 6.24937C170.454 5.23108 168.492 4.31152 166.487 3.49433C159.04 0.672408 150.794 0.790645 143.431 3.82493C142.704 4.10355 142.014 4.47224 141.379 4.92236C140.491 5.6811 139.736 6.58096 139.142 7.58556L135.649 12.8385C135.167 13.4799 134.796 14.1968 134.549 14.9599C133.891 17.4532 135.93 19.9465 135.718 22.5133C135.599 23.7898 134.922 24.9607 134.798 26.2372C134.632 27.8856 135.387 29.4514 136.128 30.9529L142.267 43.3093C143.258 40.4279 143.761 37.4017 143.753 34.3554C143.753 32.9365 143.634 31.4947 144.011 30.1264C144.388 28.7581 145.392 27.4494 146.772 27.2015C147.753 28.7147 148.496 30.3684 148.977 32.1054C149.028 32.4106 149.169 32.6936 149.382 32.9182C149.659 33.1105 150.001 33.1863 150.334 33.1294C153.698 32.8677 155.397 29.5616 155.521 26.5494C155.645 23.5373 157.067 20.2542 160.192 19.2945Z" fill="#8F7080"/>
<path d="M87.8477 216.349L92.1459 215.123L156.956 218.645L149.823 219.563L87.8477 216.349Z" fill="#7B728F"/>
<path opacity="0.1" d="M87.8477 216.349L92.1459 215.123L156.956 218.645L149.823 219.563L87.8477 216.349Z" fill="black"/>
<path d="M158.719 280.633L150.168 279.839L147.168 279.563V232.112L147.96 221.097L148.134 218.645H156.956L158.719 280.633Z" fill="#7B728F"/>
<path opacity="0.1" d="M156.381 278.948L149.561 278.195L147.168 277.933V232.943L147.798 222.502L147.936 220.174H154.973L156.381 278.948Z" fill="black"/>
<path d="M109.611 216.349C109.611 216.349 113.868 207.032 115.653 206.743C117.439 206.454 120.715 206.743 120.715 206.743L120.426 209.443C120.426 209.443 116.054 209.787 114.673 217.074L109.611 216.349Z" fill="#7B728F"/>
<path opacity="0.1" d="M109.611 216.349C109.611 216.349 113.868 207.032 115.653 206.743C117.439 206.454 120.715 206.743 120.715 206.743L120.426 209.443C120.426 209.443 116.054 209.787 114.673 217.074L109.611 216.349Z" fill="black"/>
<path d="M126.123 205.769C126.123 205.769 137.568 211.449 136.072 218.107L129.86 217.763C129.86 217.763 126.868 207.836 124.512 207.317C122.156 206.798 126.123 205.769 126.123 205.769Z" fill="#7B728F"/>
<path d="M168.691 115.827V116.162L168.461 154.397C168.461 154.397 162.594 186.539 160.983 187.802C159.372 189.065 124.052 185.621 124.052 185.621L108.06 78.0595C107.945 59.6926 120.945 60.2665 120.945 60.2665C122.671 57.5115 130.955 55.3304 130.955 55.3304L135.557 50.8535L135.704 50.6468C136.01 50.1919 136.404 49.8031 136.864 49.5035C137.812 48.9571 138.415 49.678 138.76 50.3897C138.915 50.7239 139.036 51.0732 139.119 51.432C157.762 65.0741 168.691 115.827 168.691 115.827Z" fill="#5F5570"/>
<path opacity="0.1" d="M168.231 116.286V116.621C162.446 106.06 140.159 66.0475 134.061 64.0547L136.408 62.4476C136.408 62.4476 137.973 61.5293 135.097 60.6109C135.097 60.6109 130.61 61.1849 130.495 55.7896L135.244 51.106L136.404 49.9627L138.3 50.8489C138.455 51.183 138.575 51.5323 138.659 51.8912C157.301 65.5333 168.231 116.286 168.231 116.286Z" fill="black"/>
<path d="M168.692 115.826V116.162C162.907 105.601 140.619 65.5883 134.522 63.5955L136.869 61.9884C136.869 61.9884 138.433 61.0701 135.557 60.1517C135.557 60.1517 131.07 60.7257 130.955 55.3304L135.704 50.6468L136.864 49.5035L138.76 50.3897C138.915 50.7238 139.036 51.0731 139.119 51.432C157.762 65.074 168.692 115.826 168.692 115.826Z" fill="#433A59"/>
<path opacity="0.1" d="M177.012 101.073L176.975 101.018C174.559 97.9187 175.019 82.766 159.948 60.6109C160.15 60.7487 165.346 64.3853 169.152 66.2128L168.089 69.7117L170.39 70.9377L177.012 101.073Z" fill="black"/>
<path d="M176.552 100.614L176.515 100.559C174.099 97.4596 174.559 82.3069 159.487 60.1517C159.69 60.2895 164.885 63.9261 168.691 65.7536L167.628 69.2526L169.929 70.4785L176.552 100.614Z" fill="#433A59"/>
<path opacity="0.1" d="M158.825 56.6161L157.881 60.5925C157.881 60.5925 158.572 64.5736 162.709 64.9179L163.376 63.0216C163.376 63.0216 158.912 60.1655 158.825 56.6161Z" fill="black"/>
<path d="M158.825 56.1569L157.881 60.1334C157.881 60.1334 158.572 64.1144 162.709 64.4588L163.376 62.5624C163.376 62.5624 158.912 59.7063 158.825 56.1569Z" fill="#E5E8EF"/>
<path opacity="0.1" d="M152.874 219.287L150.168 279.839L147.168 279.563V232.112L147.96 221.097L152.874 219.287Z" fill="black"/>
<path d="M88.4643 242.673L86.6235 275.426L149.211 280.633L151.954 219.287L88.4643 242.673Z" fill="#7B728F"/>
<path opacity="0.1" d="M87.084 246.195L88.3081 217.267L152.414 220.206L149.363 250.787L87.084 246.195Z" fill="black"/>
<path d="M86.6235 245.277L87.8477 216.349L151.954 219.287L148.903 249.868L86.6235 245.277Z" fill="#7B728F"/>
<path d="M121.291 245.313H113.583V254.267H121.291V245.313Z" fill="#C3BBC8"/>
<path d="M114.733 186.654L113.582 189.753C113.582 189.753 111.166 206.743 114.158 208.809C117.149 210.875 126.008 210.99 126.468 209.957C126.928 208.924 130.15 197.215 130.15 197.215C130.15 197.215 133.026 205.825 134.522 205.136C136.017 204.447 131.07 188.082 131.07 188.082L114.733 186.654Z" fill="#FFC5D3"/>
<path opacity="0.1" d="M113.583 173.797V190.213C113.583 190.213 125.778 192.509 131.07 188.541C131.07 188.541 126.123 172.649 127.964 168.631C129.805 164.614 113.583 173.797 113.583 173.797Z" fill="black"/>
<path d="M113.583 173.338V189.753C113.583 189.753 125.778 192.049 131.07 188.082C131.07 188.082 126.123 172.19 127.964 168.172C129.805 164.155 113.583 173.338 113.583 173.338Z" fill="#E5E8EF"/>
<path opacity="0.1" d="M112.202 77.2559L108.98 78.9778C108.98 78.9778 108.405 85.8654 108.06 86.7838C107.715 87.7021 108.06 97.0004 108.06 97.0004L107.904 115.827C107.904 115.827 107.406 125.814 107.904 129.372C108.401 132.931 108.957 146.476 108.957 146.476C108.957 146.476 112.068 159.678 110.918 164.384C109.767 169.091 111.033 179.652 112.989 178.733C114.945 177.815 133.008 174.256 133.928 173.568C134.848 172.879 134.388 166.45 133.928 165.647C133.468 164.843 130.707 153.938 130.937 151.412C131.167 148.887 130.131 126.732 130.131 126.732C130.131 126.732 131.857 103.084 132.547 97.5744C133.238 92.0643 131.167 75.8784 129.326 75.6488C127.485 75.4192 122.096 62.9068 112.202 77.2559Z" fill="black"/>
<path d="M111.281 76.3376L108.06 78.0595C108.06 78.0595 107.485 84.9471 107.14 85.8654C106.794 86.7838 107.14 96.0821 107.14 96.0821L106.983 114.908C106.983 114.908 106.486 124.895 106.983 128.454C107.48 132.012 108.037 145.558 108.037 145.558C108.037 145.558 111.148 158.759 109.997 163.466C108.847 168.172 110.112 178.733 112.068 177.815C114.024 176.897 132.087 173.338 133.007 172.649C133.928 171.96 133.468 165.532 133.007 164.728C132.547 163.925 129.786 153.02 130.016 150.494C130.246 147.969 129.211 125.814 129.211 125.814C129.211 125.814 130.937 102.166 131.627 96.656C132.317 91.1459 130.246 74.9601 128.405 74.7305C126.565 74.5009 121.176 61.9884 111.281 76.3376Z" fill="#5F5570"/>
<g opacity="0.1">
<path opacity="0.1" d="M146.077 25.4796C144.697 25.7275 143.675 27.0362 143.316 28.4045C142.957 29.7728 143.054 31.2146 143.058 32.6335C143.067 35.6796 142.566 38.7058 141.577 41.5874L135.433 29.231C135.313 28.9876 135.189 28.7351 135.069 28.4825C135.354 29.3329 135.706 30.159 136.123 30.9529L142.267 43.3093C143.257 40.4277 143.758 37.4015 143.749 34.3554C143.749 32.9365 143.634 31.4947 144.006 30.1264C144.379 28.7581 145.387 27.4494 146.768 27.2015C147.213 27.8979 147.612 28.6235 147.96 29.3733C147.492 28.0043 146.86 26.6969 146.077 25.4796Z" fill="black"/>
<path opacity="0.1" d="M177.91 10.5794C178.18 11.709 178.141 12.8902 177.799 14.0002C177.639 14.556 177.361 15.0711 176.985 15.5109C175.94 16.6634 174.223 16.8012 172.649 16.8609L162.037 17.2558C161.182 17.2501 160.329 17.3567 159.501 17.5726C156.381 18.5323 154.936 21.8475 154.821 24.8275C154.706 27.8076 152.98 31.1458 149.635 31.4075C149.302 31.4639 148.96 31.3881 148.682 31.1963C148.788 31.4947 148.889 31.7978 148.977 32.1146C149.024 32.4199 149.164 32.7035 149.377 32.9273C149.655 33.1192 149.997 33.195 150.33 33.1386C153.698 32.8768 155.392 29.5708 155.516 26.5586C155.64 23.5464 157.076 20.2633 160.196 19.3037C161.024 19.0877 161.877 18.9812 162.732 18.9868L173.344 18.592C174.9 18.5323 176.635 18.3945 177.679 17.242C178.056 16.8022 178.334 16.2871 178.494 15.7313C178.755 14.8783 178.838 13.981 178.737 13.0949C178.637 12.2087 178.355 11.3526 177.91 10.5794Z" fill="black"/>
</g>
<path opacity="0.1" d="M160.629 198.909C160.629 198.909 164.614 196.843 166.151 196.958C167.688 197.073 181.49 214.586 181.49 214.586L160.629 198.909Z" fill="black"/>
<path opacity="0.1" d="M119.749 80.3875C119.749 80.3875 112.464 83.4915 112.657 85.6359C112.85 87.7802 119.749 80.3875 119.749 80.3875Z" fill="black"/>
<path opacity="0.1" d="M116.201 90.5352C116.201 90.5352 108.557 100.288 110.246 100.614C111.935 100.94 116.201 90.5352 116.201 90.5352Z" fill="black"/>
<path opacity="0.1" d="M141.77 105.151C141.77 105.151 142.47 126.961 136.864 129.717L141.77 105.151Z" fill="black"/>
<path opacity="0.1" d="M112.639 163.388C112.639 163.388 118.033 160.33 119.271 160.94C120.509 161.551 112.639 163.388 112.639 163.388Z" fill="black"/>
<path opacity="0.1" d="M113.583 167.617C113.583 167.617 116.988 167.86 118.603 167.158C120.219 166.455 113.583 167.617 113.583 167.617Z" fill="black"/>
<path opacity="0.1" d="M194.877 87.3027C194.877 87.3027 199.102 99.4111 201.536 99.4111L194.877 87.3027Z" fill="black"/>
<path opacity="0.1" d="M134.802 319.204C134.802 319.204 142.727 317.059 143.896 319.204C145.065 321.348 134.802 319.204 134.802 319.204Z" fill="black"/>
<path opacity="0.1" d="M109.611 287.41C109.611 287.41 107.636 290.427 110.246 291.346C112.855 292.264 109.611 287.41 109.611 287.41Z" fill="black"/>
<path opacity="0.1" d="M162.249 245.313C162.249 245.313 168.231 250.631 171.057 250.787C173.882 250.943 162.249 245.313 162.249 245.313Z" fill="black"/>
<path d="M397.89 27.4723C397.89 27.4723 359.146 25.1259 363.711 52.2172C363.711 52.2172 362.79 57.0064 367.153 59.1828C367.153 59.1828 367.222 57.1717 371.129 57.8558C372.519 58.0859 373.93 58.1537 375.336 58.0579C377.233 57.9292 379.036 57.1896 380.476 55.9503C380.476 55.9503 391.369 51.4641 395.603 33.6987C395.603 33.6987 398.737 29.8233 398.613 28.8269L392.073 31.6141C392.073 31.6141 394.31 36.3206 392.533 40.2327C392.533 40.2327 392.322 31.784 391.065 31.9676C390.808 32.009 387.664 33.5977 387.664 33.5977C387.664 33.5977 391.512 41.7985 388.608 47.754C388.608 47.754 389.712 37.6522 386.468 34.19L381.866 36.8716C381.866 36.8716 386.362 45.3388 383.315 52.2493C383.315 52.2493 384.098 41.6516 380.899 37.5236L376.73 40.77C376.73 40.77 380.95 49.1178 378.377 54.8482C378.377 54.8482 378.042 42.5103 375.823 41.5781C375.823 41.5781 372.179 44.7923 371.622 46.1056C371.622 46.1056 374.512 52.1667 372.717 55.3625C372.717 55.3625 371.617 47.1433 370.715 47.0974C370.715 47.0974 367.08 52.5432 366.702 56.2809C366.702 56.2809 366.859 50.7249 369.836 46.5785C369.836 46.5785 366.32 47.18 364.268 49.4575C364.268 49.4575 364.834 45.6051 370.711 45.2699C370.711 45.2699 373.711 41.1373 374.516 40.8848C374.516 40.8848 368.649 40.398 365.091 41.9684C365.091 41.9684 368.225 38.3364 375.593 39.9894L379.735 36.6374C379.735 36.6374 372.008 35.5813 368.736 36.7476C368.736 36.7476 372.505 33.5334 380.844 35.8752L385.326 33.1982C385.326 33.1982 378.741 31.784 374.82 32.2799C374.82 32.2799 378.962 30.0529 386.638 32.4681L389.86 31.0309C389.86 31.0309 385.037 30.085 383.624 29.9381C382.211 29.7911 382.133 29.3963 382.133 29.3963C385.19 28.888 388.328 29.2361 391.199 30.4018C391.199 30.4018 398.01 27.881 397.89 27.4723Z" fill="white"/>
<path d="M320.986 22.2791C320.986 22.2791 303.498 21.2276 305.542 33.4692C305.542 33.4692 305.132 35.6319 307.097 36.6145C307.097 36.6145 307.129 35.6962 308.892 36.013C309.521 36.1208 310.161 36.1516 310.797 36.1048C311.647 36.0414 312.454 35.7065 313.098 35.1497C313.098 35.1497 318.018 33.1202 319.932 25.0938C319.932 25.0938 321.349 23.3444 321.313 22.8944L318.349 24.1525C318.349 24.1525 319.357 26.2785 318.565 28.0463C318.565 28.0463 318.469 24.2306 317.898 24.3178C317.783 24.3178 316.366 25.0571 316.366 25.0571C316.366 25.0571 318.1 28.7626 316.789 31.4534C316.789 31.4534 317.291 26.8892 315.822 25.3234L313.747 26.5356C313.747 26.5356 315.776 30.3606 314.4 33.4829C314.4 33.4829 314.755 28.6938 313.31 26.8295L311.428 28.2989C311.428 28.2989 313.333 32.0687 312.168 34.6584C312.168 34.6584 312.017 29.0841 311.018 28.6616C311.018 28.6616 309.37 30.1126 309.117 30.7095C309.117 30.7095 310.424 33.4646 309.614 34.8926C309.614 34.8926 309.117 31.1779 308.694 31.1595C308.694 31.1595 307.051 33.6207 306.881 35.2921C306.96 33.7332 307.449 32.2226 308.298 30.9116C307.35 31.0897 306.475 31.5415 305.781 32.211C305.781 32.211 306.039 30.4708 308.703 30.3192C308.703 30.3192 310.061 28.4504 310.424 28.3402C310.424 28.3402 307.774 28.1152 306.163 28.8269C306.163 28.8269 307.58 27.1877 310.908 27.9086L312.748 26.3933C312.748 26.3933 309.255 25.9341 307.778 26.4438C307.778 26.4438 309.481 24.9928 313.245 26.0489L315.275 24.8413C315.275 24.8413 312.297 24.203 310.526 24.4326C310.526 24.4326 312.394 23.427 315.868 24.5153L317.314 23.8678C317.314 23.8678 315.137 23.4408 314.497 23.3719C313.857 23.3031 313.825 23.1286 313.825 23.1286C315.207 22.9022 316.624 23.0611 317.921 23.5877C317.921 23.5877 321.041 22.472 320.986 22.2791Z" fill="white"/>
<path opacity="0.1" d="M389.607 334.017C396.452 334.017 402 333.081 402 331.927C402 330.773 396.452 329.838 389.607 329.838C382.762 329.838 377.214 330.773 377.214 331.927C377.214 333.081 382.762 334.017 389.607 334.017Z" fill="#C83BDC"/>
<path opacity="0.1" d="M12.3932 302.917C19.2378 302.917 24.7865 301.981 24.7865 300.828C24.7865 299.674 19.2378 298.738 12.3932 298.738C5.54864 298.738 0 299.674 0 300.828C0 301.981 5.54864 302.917 12.3932 302.917Z" fill="#C83BDC"/>
<path opacity="0.1" d="M380.983 293.55C387.828 293.55 393.376 292.614 393.376 291.46C393.376 290.307 387.828 289.371 380.983 289.371C374.138 289.371 368.59 290.307 368.59 291.46C368.59 292.614 374.138 293.55 380.983 293.55Z" fill="#C83BDC"/>
<path opacity="0.1" d="M60.3278 314.125C67.1724 314.125 72.721 313.19 72.721 312.036C72.721 310.882 67.1724 309.947 60.3278 309.947C53.4832 309.947 47.9346 310.882 47.9346 312.036C47.9346 313.19 53.4832 314.125 60.3278 314.125Z" fill="#C83BDC"/>
<path opacity="0.1" d="M325.74 315.921C332.585 315.921 338.133 314.985 338.133 313.831C338.133 312.677 332.585 311.742 325.74 311.742C318.895 311.742 313.347 312.677 313.347 313.831C313.347 314.985 318.895 315.921 325.74 315.921Z" fill="#C83BDC"/>
<path d="M362.482 357.439C372.702 357.439 380.987 356.041 380.987 354.317C380.987 352.592 372.702 351.194 362.482 351.194C352.262 351.194 343.978 352.592 343.978 354.317C343.978 356.041 352.262 357.439 362.482 357.439Z" fill="white"/>
<path d="M370.131 349.211C370.975 348.524 371.589 347.599 371.894 346.557C372.124 345.5 371.673 344.261 370.66 343.852C369.528 343.42 368.318 344.201 367.402 344.991C366.486 345.781 365.433 346.685 364.231 346.52C364.85 345.961 365.312 345.252 365.574 344.462C365.836 343.672 365.889 342.827 365.727 342.011C365.673 341.673 365.528 341.355 365.308 341.092C364.682 340.422 363.541 340.711 362.791 341.239C360.398 342.92 359.731 346.162 359.717 349.082C359.478 348.026 359.68 346.928 359.671 345.868C359.662 344.807 359.372 343.572 358.456 343.012C357.891 342.709 357.256 342.558 356.615 342.576C355.538 342.539 354.342 342.644 353.61 343.43C352.69 344.403 352.933 346.042 353.725 347.103C354.517 348.164 355.727 348.848 356.841 349.592C357.733 350.12 358.493 350.844 359.063 351.708C359.133 351.827 359.189 351.953 359.229 352.085H365.976C367.484 351.318 368.882 350.351 370.131 349.211Z" fill="white"/>
<path d="M60.9677 260.682C60.9677 260.682 63.4988 263.979 59.8034 268.947C56.1079 273.915 53.0614 278.131 54.2809 281.235C54.2809 281.235 59.8586 271.987 64.4054 271.858C68.9522 271.73 65.9609 266.256 60.9677 260.682Z" fill="#C83BDC"/>
<path opacity="0.1" d="M60.9672 260.682C61.1886 260.999 61.3623 261.347 61.4827 261.715C65.9098 266.904 68.2706 271.748 64.0138 271.872C60.0514 271.982 55.2975 279.053 54.1562 280.84C54.1938 280.978 54.2383 281.114 54.2897 281.248C54.2897 281.248 59.8673 272.001 64.4141 271.872C68.9609 271.743 65.9604 266.256 60.9672 260.682Z" fill="black"/>
<path d="M65.6663 264.897C65.6663 266.059 65.5374 267 65.3763 267C65.2153 267 65.0864 266.082 65.0864 264.897C65.0864 263.713 65.2475 264.282 65.4086 264.282C65.5696 264.282 65.6663 263.735 65.6663 264.897Z" fill="#FFD037"/>
<path d="M67.2816 266.284C66.2599 266.839 65.3671 267.175 65.2935 267.037C65.2199 266.899 65.9792 266.33 67.0008 265.774C68.0225 265.219 67.6221 265.623 67.6958 265.774C67.7694 265.926 68.3032 265.733 67.2816 266.284Z" fill="#FFD037"/>
<path d="M47.6169 260.682C47.6169 260.682 45.0858 263.979 48.7812 268.947C52.4766 273.915 55.5232 278.131 54.3036 281.235C54.3036 281.235 48.7306 271.987 44.1792 271.858C39.6278 271.73 42.6237 266.256 47.6169 260.682Z" fill="#C83BDC"/>
<path opacity="0.1" d="M47.6171 260.682C47.3952 261 47.22 261.348 47.0971 261.715C42.67 266.904 40.3137 271.748 44.566 271.872C48.5329 271.982 53.2868 279.053 54.4281 280.84C54.3911 280.979 54.345 281.115 54.2901 281.248C54.2901 281.248 48.717 272.001 44.1656 271.872C39.6142 271.743 42.624 266.256 47.6171 260.682Z" fill="black"/>
<path d="M42.9136 264.897C42.9136 266.059 43.047 267 43.2081 267C43.3692 267 43.498 266.082 43.498 264.897C43.498 263.713 43.337 264.282 43.1759 264.282C43.0148 264.282 42.9136 263.735 42.9136 264.897Z" fill="#FFD037"/>
<path d="M41.3077 266.284C42.3293 266.839 43.2175 267.175 43.2958 267.037C43.374 266.899 42.6055 266.33 41.5838 265.774C40.5622 265.219 40.9671 265.623 40.8889 265.774C40.8107 265.926 40.2814 265.733 41.3077 266.284Z" fill="#FFD037"/>
<path d="M43.7192 280.831C43.7192 280.831 50.7879 280.615 52.9233 279.099C55.0586 277.584 63.7978 275.78 64.3225 278.209C64.8471 280.638 74.9485 290.28 66.9686 290.345C58.9887 290.409 48.4225 289.105 46.2964 287.81C44.1702 286.515 43.7192 280.831 43.7192 280.831Z" fill="#A8A8A8"/>
<path opacity="0.2" d="M67.1067 289.5C59.1268 289.564 48.5606 288.26 46.4344 286.965C44.8191 285.982 44.1702 282.451 43.9539 280.821H43.7192C43.7192 280.821 44.1794 286.51 46.2918 287.801C48.4041 289.091 58.9841 290.4 66.964 290.335C69.265 290.335 70.0612 289.5 70.0198 288.287C69.6976 289.027 68.8187 289.486 67.1067 289.5Z" fill="black"/>
</g>
<defs>
<linearGradient id="paint0_linear" x1="150.32" y1="351.19" x2="150.32" y2="2.39568e-05" gradientUnits="userSpaceOnUse">
<stop stop-color="#808080" stop-opacity="0.25"/>
<stop offset="0.54" stop-color="#808080" stop-opacity="0.12"/>
<stop offset="1" stop-color="#808080" stop-opacity="0.1"/>
</linearGradient>
<clipPath id="clip0">
<rect width="402" height="368" fill="white"/>
</clipPath>
</defs>
</svg>
