<svg width="14" height="14" viewBox="0 0 14 14" fill="none" xmlns="http://www.w3.org/2000/svg">
<path d="M12.3961 0H1.60388C0.719269 0 0 0.719269 0 1.60388V12.3953C0 13.2807 0.719269 14 1.60388 14H12.3953C13.2807 14 14 13.2807 14 12.3961V1.60388C14 0.719269 13.2807 0 12.3961 0ZM9.57779 8.75342C9.8053 8.98093 9.8053 9.35114 9.57779 9.57864C9.46393 9.69229 9.31439 9.74933 9.16571 9.74933C9.01596 9.74933 8.86728 9.69229 8.75342 9.57864L7 7.82523L5.24744 9.57864C5.13358 9.69229 4.98404 9.74933 4.83514 9.74933C4.68646 9.74933 4.53693 9.69229 4.42307 9.57864C4.19556 9.35114 4.19556 8.98178 4.42307 8.75342L6.17477 7L4.42221 5.24658C4.1947 5.01907 4.1947 4.64886 4.42221 4.42136C4.64972 4.19385 5.01907 4.19385 5.24744 4.42136L7 6.17477L8.75256 4.42136C8.98007 4.19385 9.34943 4.19385 9.57779 4.42136C9.8053 4.64886 9.8053 5.01822 9.57779 5.24658L7.82523 7L9.57779 8.75342Z" fill="#E10000"/>
</svg>
