<?xml version="1.0" standalone="no"?>
<!DOCTYPE svg PUBLIC "-//W3C//DTD SVG 1.1//EN" "http://www.w3.org/Graphics/SVG/1.1/DTD/svg11.dtd" >
<svg>
<metadata>
Created by FontForge 20090914 at Sat Oct 31 14:25:28 2020
 By www-data
Copyright 2019 The Darkergrotesque Project Authors (https://github.com/bettergui/DarkerGrotesque)
</metadata>
<defs>
<font id="DarkerGrotesque-Medium" horiz-adv-x="457" >
  <font-face 
    font-family="Darker Grotesque Medium"
    font-weight="500"
    font-stretch="normal"
    units-per-em="1000"
    panose-1="0 0 0 0 0 0 0 0 0 0"
    ascent="800"
    descent="-200"
    x-height="407"
    cap-height="563"
    bbox="-51 -296 1694 1060"
    underline-thickness="50"
    underline-position="-75"
    unicode-range="U+000D-U+240D"
  />
<missing-glyph horiz-adv-x="500" 
d="M50 -296h400v1356h-400v-1356zM100 -246v1256h300v-1256h-300z" />
    <glyph glyph-name="w_w_w.liga" unicode="www" horiz-adv-x="1714" 
d="M112 0l-109 393v15h62l92 -353h2l105 353h57l108 -353h2l90 353h62v-15l-108 -393h-92l-89 296h-2l-88 -296h-92zM667 0l-109 393v15h62l92 -353h2l105 353h57l108 -353h2l90 353h62v-15l-108 -393h-92l-89 296h-2l-88 -296h-92zM1223 0l-109 393v15h62l92 -353h2
l105 353h57l108 -353h2l90 353h62v-15l-108 -393h-92l-89 296h-2l-88 -296h-92z" />
    <glyph glyph-name=".notdef" horiz-adv-x="500" 
d="M50 -296h400v1356h-400v-1356zM100 -246v1256h300v-1256h-300z" />
    <glyph glyph-name="CR" unicode="&#xd;" horiz-adv-x="600" 
 />
    <glyph glyph-name="space" unicode=" " horiz-adv-x="237" 
 />
    <glyph glyph-name="exclam" unicode="!" horiz-adv-x="188" 
d="M79 138c-3.33301 81.333 -7.16992 149.167 -11.5029 203.5s-7.16602 97.833 -8.49902 130.5s1 56 7 70s17.667 21 35 21c16.667 0 27.834 -7.16699 33.501 -21.5s8.16699 -37.666 7.5 -69.999s-3.16699 -75.833 -7.5 -130.5s-8.16602 -122.334 -11.499 -203.001l-6.5 1.5
c-4.33301 1 -9.5 1.5 -15.5 1.5c-5.33301 0 -10.333 -0.5 -15 -1.5zM101.996 -8.99902c-16 0 -26.667 4.16699 -32 12.5s-8 18.5 -8 30.5c0 11.333 2.66699 21.166 8 29.499s16 12.5 32 12.5c15.333 0 25.666 -4.16699 30.999 -12.5s8 -18.166 8 -29.499
c0 -12 -2.66699 -22.167 -8 -30.5s-15.666 -12.5 -30.999 -12.5z" />
    <glyph glyph-name="quotedbl" unicode="&#x22;" horiz-adv-x="281" 
d="M35 390v48.001h18c16.667 0 27.167 3.66699 31.5 11s6.5 16.666 6.5 27.999c-18 -1.33301 -31.167 1.83398 -39.5 9.50098s-12.5 19.167 -12.5 34.5c0 11.333 3 21.166 9 29.499s17 12.5 33 12.5c14 0 24.333 -4.16699 31 -12.5s10 -23.5 10 -45.5
c0 -34.667 -4.83301 -62.5 -14.5 -83.5s-27.167 -31.5 -52.5 -31.5h-20zM164 390.001v48.001h18c16 0 26.333 3.66699 31 11s7 16.666 7 27.999c-18 -1.33301 -31.167 1.83398 -39.5 9.50098s-12.5 19.167 -12.5 34.5c0 11.333 3 21.166 9 29.499s17 12.5 33 12.5
c14 0 24.333 -4.16699 31 -12.5s10 -23.5 10 -45.5c0 -34.667 -4.83301 -62.5 -14.5 -83.5s-27.167 -31.5 -52.5 -31.5h-20z" />
    <glyph glyph-name="numbersign" unicode="#" horiz-adv-x="691" 
d="M99 0l65 163h-132v57h154l54 134h-153v57h171l52 152h61l-61 -152h150l51 152h61l-61 -152h129v-57h-151l-54 -134h153v-57h-172l-55 -163h-61l65 163h-150l-56 -163h-60zM234 220h153l54 134h-154z" />
    <glyph glyph-name="dollar" unicode="$" horiz-adv-x="536" 
d="M253 -109l2.99902 96.998c-34.667 2.66699 -67.5 11 -98.5 25s-56.667 34.167 -77 60.5s-31.833 60.166 -34.5 101.499l63 8c0 -1.33301 0.666992 -6.83301 2 -16.5s4.66602 -21.334 9.99902 -35.001s14 -27 26 -40s29 -24 51 -33s50.333 -13.5 85 -13.5
c28.667 0 52.334 3.5 71.001 10.5s33 15.833 43 26.5s17 21.167 21 31.5s6.33301 18.833 7 25.5c0.666992 23.333 -5.5 42 -18.5 56s-30.5 25.333 -52.5 34s-46 16.334 -72 23.001s-51.833 13.834 -77.5 21.501s-49.167 17.667 -70.5 30s-38.333 28.5 -51 48.5
s-18.334 45.667 -17.001 77c2 41.333 20.333 74.666 55 99.999s79.667 39.666 135 42.999l-3 100h63l-3 -101c32.667 -3.33301 62.334 -12.333 89.001 -27s47.5 -35 62.5 -61s22.167 -57.333 21.5 -94l-62 -7c0.666992 28.667 -4.5 51.667 -15.5 69s-25 30.5 -42 39.5
s-34.167 15.167 -51.5 18.5s-32 5 -44 5c-38 0 -70.333 -8.33301 -97 -25s-40.334 -38.667 -41.001 -66c-0.666992 -23.333 5.5 -42 18.5 -56s30.333 -25.167 52 -33.5s45.667 -15.666 72 -21.999s52.333 -13.166 78 -20.499s49.334 -17.166 71.001 -29.499
s38.667 -28.666 51 -48.999s17.833 -46.5 16.5 -78.5c-1.33301 -28 -10.166 -52.333 -26.499 -73s-37.833 -37 -64.5 -49s-56 -19.667 -88 -23l3 -98h-63z" />
    <glyph glyph-name="percent" unicode="%" horiz-adv-x="575" 
d="M128 329c-34.667 0 -59.834 11 -75.501 33s-23.5 51.667 -23.5 89c0 36.667 7.83301 66.167 23.5 88.5s40.834 33.5 75.501 33.5s60 -11.167 76 -33.5s24 -51.833 24 -88.5c0 -36 -8 -65.333 -24 -88s-41.333 -34 -76 -34zM103 0l-45 32l222 264l190 266l44 -31
l-211 -252zM127 371c21.333 0 36.333 7.66797 45 23.001s13 34.333 13 57c0 24 -4.33301 43.5 -13 58.5s-23.667 22.5 -45 22.5c-20 0 -34.5 -7.33301 -43.5 -22s-13.5 -34.334 -13.5 -59.001c0 -22.667 4.5 -41.667 13.5 -57s23.5 -23 43.5 -23zM446 -9.99902
c-34 0 -59.001 11 -75.001 33s-24 51.667 -24 89c0 36.667 7.83301 66.167 23.5 88.5s40.834 33.5 75.501 33.5c35.333 0 60.833 -11.167 76.5 -33.5s23.5 -51.833 23.5 -88.5c0 -36 -7.83301 -65.333 -23.5 -88s-41.167 -34 -76.5 -34zM445.999 32.001
c20.667 0 35.334 7.50195 44.001 22.502s13 34.167 13 57.5s-4.33301 42.666 -13 57.999s-23.334 23 -44.001 23s-35.334 -7.33301 -44.001 -22s-13 -34.334 -13 -59.001c0 -23.333 4.33301 -42.5 13 -57.5s23.334 -22.5 44.001 -22.5z" />
    <glyph glyph-name="ampersand" unicode="&#x26;" horiz-adv-x="635" 
d="M593 -2c-24.667 10 -47.835 21.1699 -69.502 33.5029s-45.167 26.833 -70.5 43.5c-26.667 -27.333 -57.334 -48 -92.001 -62s-70 -21.333 -106 -22s-69.333 5 -100 17s-55.5 30.333 -74.5 55s-28.5 55.667 -28.5 93c0 24.667 4.66699 45.834 14 63.501s21 32.667 35 45
s28.667 22.666 44 30.999l41 22.5l-25 35c-9.33301 13.333 -17.5 28.333 -24.5 45s-10.5 34.334 -10.5 53.001c0 26.667 6.83301 48.834 20.5 66.501s31.334 31 53.001 40s44.5 13.667 68.5 14s46.833 -3.66699 68.5 -12s39.334 -21 53.001 -38s20.5 -38.167 20.5 -63.5
c0 -22 -6.16699 -41.833 -18.5 -59.5s-27 -32.834 -44 -45.501s-33 -23 -48 -31l-30.5 -16c10 -12.667 23.833 -28 41.5 -46s37.334 -36.333 59.001 -55s42.834 -35.334 63.501 -50.001c9.33301 15.333 17.666 34.166 24.999 56.499s10.833 44.666 10.5 66.999
s-7.5 41.166 -21.5 56.499l54 37c8 -10.667 14.667 -25.5 20 -44.5s8.16602 -40.5 8.49902 -64.5s-2.66699 -48.5 -9 -73.5s-17.166 -48.5 -32.499 -70.5c22.667 -14.667 43.667 -27.667 63 -39s41.333 -22 66 -32zM233.999 336.003c3.33301 2 11.165 6 23.498 12
s25.833 14 40.5 24s27.334 21.5 38.001 34.5s16.334 27.167 17.001 42.5c0.666992 18.667 -4.5 33.667 -15.5 45s-25 18.833 -42 22.5s-34 3.5 -51 -0.5s-31.167 -12 -42.5 -24s-17 -27.667 -17 -47c0.666992 -30.667 17 -67 49 -109zM401.998 112.003
c-32.667 24 -65.667 52.166 -99 84.499s-61 62.166 -83 89.499c-27.333 -13.333 -51.5 -29.333 -72.5 -48s-31.5 -43.334 -31.5 -74.001c0 -26 7 -47.833 21 -65.5s32 -30.667 54 -39s46 -12.166 72 -11.499s51.167 6.33398 75.5 17.001s45.5 26.334 63.5 47.001z" />
    <glyph glyph-name="quotesingle" unicode="'" horiz-adv-x="169" 
d="M45 390v48.001h18c16.667 0 27.167 3.66699 31.5 11s6.5 16.666 6.5 27.999c-18 -1.33301 -31.167 1.83398 -39.5 9.50098s-12.5 19.167 -12.5 34.5c0 11.333 3 21.166 9 29.499s17 12.5 33 12.5c14 0 24.333 -4.16699 31 -12.5s10 -23.5 10 -45.5
c0 -34.667 -4.83301 -62.5 -14.5 -83.5s-27.167 -31.5 -52.5 -31.5h-20z" />
    <glyph glyph-name="parenleft" unicode="(" horiz-adv-x="291" 
d="M232 -199l-19.001 15.499c-12.667 10.333 -28.334 26 -47.001 47s-37.334 47.5 -56.001 79.5s-34.5 69.333 -47.5 112s-19.5 91 -19.5 145s6.5 102.5 19.5 145.5s28.833 80.667 47.5 113s37.334 59.166 56.001 80.499s34.334 37.333 47.001 48l19 16l49 -51
c-2 -1.33301 -9.83301 -6.83301 -23.5 -16.5s-30 -23.5 -49 -41.5s-37.667 -40.667 -56 -68s-33.666 -59.666 -45.999 -96.999s-18.5 -80.333 -18.5 -129c0 -49.333 6.5 -93 19.5 -131s29.167 -70.667 48.5 -98s38.5 -49.666 57.5 -66.999s35 -30 48 -38l19.5 -12z" />
    <glyph glyph-name="parenright" unicode=")" horiz-adv-x="281" 
d="M49 -199l-49.001 53.001l19.5 12c13 8 29 20.667 48 38s38.167 39.666 57.5 66.999s35.5 60 48.5 98s19.5 81.667 19.5 131c0 48.667 -6.16699 91.667 -18.5 129s-27.666 69.666 -45.999 96.999s-37 50 -56 68s-35.167 31.833 -48.5 41.5s-21.333 15.167 -24 16.5l49 51
l19 -16c12.667 -10.667 28.334 -26.667 47.001 -48s37.334 -48.166 56.001 -80.499s34.5 -70 47.5 -113s19.5 -91.5 19.5 -145.5s-6.5 -102.333 -19.5 -145s-28.833 -80 -47.5 -112s-37.334 -58.5 -56.001 -79.5s-34.334 -36.667 -47.001 -47z" />
    <glyph glyph-name="asterisk" unicode="*" horiz-adv-x="378" 
d="M351 424l-138 -30l95 -102l-50 -36l-69 120l-70 -120l-49 36l95 102l-138 30l20 57l126 -58l-15 140h62l-15 -140l127 58z" />
    <glyph glyph-name="plus" unicode="+" horiz-adv-x="347" 
d="M149 86v113h-112v49h112v111h48v-111h113v-49h-113v-113h-48z" />
    <glyph glyph-name="comma" unicode="," horiz-adv-x="187" 
d="M50 -88v48.001h18c16 0 26.167 3.66699 30.5 11s6.5 16.666 6.5 27.999c-18 -1.33301 -31 2 -39 10s-12 19.333 -12 34c0 12 3 22 9 30s17 12 33 12c14 0 24.333 -4.16699 31 -12.5s10 -23.5 10 -45.5c0 -34 -5 -61.667 -15 -83s-27.333 -32 -52 -32h-20z" />
    <glyph glyph-name="hyphen" unicode="-" horiz-adv-x="317" 
d="M40 200v49h222v-49h-222z" />
    <glyph glyph-name="period" unicode="." horiz-adv-x="174" 
d="M77 0c-16.667 0 -27.834 4.50098 -33.501 13.501s-8.5 19.5 -8.5 31.5c0 12.667 2.83301 23.334 8.5 32.001s16.834 13 33.501 13s27.834 -4.33301 33.501 -13s8.5 -19.334 8.5 -32.001s-2.83301 -23.334 -8.5 -32.001s-16.834 -13 -33.501 -13z" />
    <glyph glyph-name="slash" unicode="/" horiz-adv-x="352" 
d="M25 0l254 563h63l-254 -563h-63z" />
    <glyph glyph-name="zero" unicode="0" horiz-adv-x="513" 
d="M257 -14c-78.667 0 -136.667 26.5 -174 79.5s-56 124.5 -56 214.5c0 59.333 7.83301 110.833 23.5 154.5s40.5 77.667 74.5 102s78 36.5 132 36.5c52.667 0 96 -12 130 -36s59.167 -58 75.5 -102s24.5 -95.667 24.5 -155c0 -58 -8.16699 -109.167 -24.5 -153.5
s-41.5 -78.833 -75.5 -103.5s-77.333 -37 -130 -37zM256 40c58.667 0 101.667 21.1689 129 63.502s41 101.166 41 176.499c0 74.667 -13.333 133.167 -40 175.5s-70 63.5 -130 63.5c-57.333 0 -99.666 -20.5 -126.999 -61.5s-41 -100.167 -41 -177.5
c0 -74.667 13.167 -133.334 39.5 -176.001s69.166 -64 128.499 -64z" />
    <glyph glyph-name="one" unicode="1" horiz-adv-x="330" 
d="M292 56l0.00195312 -55.9971h-232v56h89v411c-6.66699 -20.667 -15.834 -36.834 -27.501 -48.501s-24 -20.334 -37 -26.001s-24.667 -9.33398 -35 -11.001s-17.5 -2.5 -21.5 -2.5v68c4 -0.666992 12.5 0.333008 25.5 3s27.167 8 42.5 16s28.666 19.667 39.999 35
s17.333 36 18 62h58v-507h80z" />
    <glyph glyph-name="two" unicode="2" horiz-adv-x="492" 
d="M38 0l-0.000976562 53.0029c0.666992 0.666992 9.83398 6.83398 27.501 18.501l67 46.5c27 19.333 55.333 41.333 85 66s57 50.167 82 76.5s43.833 51.833 56.5 76.5c16 33.333 20.833 63.166 14.5 89.499s-20.833 47.333 -43.5 63s-51 23.5 -85 23.5
c-40 -0.666992 -72 -12.834 -96 -36.501s-35.333 -58.834 -34 -105.501l-59 6c-1.33301 39.333 6 73.166 22 101.499s39 50 69 65s64.667 22.5 104 22.5c36 0 67.833 -6.33301 95.5 -19s49.5 -30.167 65.5 -52.5s24.833 -48 26.5 -77s-5.5 -59.167 -21.5 -90.5
c-12 -23.333 -29.333 -47.333 -52 -72s-47.667 -48.5 -75 -71.5s-53.833 -43.667 -79.5 -62s-47.667 -33.333 -66 -45s-29.833 -18.5 -34.5 -20.5h340v-56h-409z" />
    <glyph glyph-name="three" unicode="3" horiz-adv-x="492" 
d="M250 -10c-37.333 0 -72.668 7.16211 -106.001 21.4951s-60.166 35.833 -80.499 64.5s-30.833 65 -31.5 109l61 6c1.33301 -32.667 9.66602 -59.667 24.999 -81s34.833 -37.166 58.5 -47.499s48.5 -15.5 74.5 -15.5c27.333 0 52 4.66699 74 14s39.667 22.833 53 40.5
s20 38.167 20 61.5c0 28.667 -7.16699 50.834 -21.5 66.501s-31 26.5 -50 32.5s-35.5 9 -49.5 9h-80v37h81c33.333 0 59.666 8 78.999 24s29 38.333 29 67c0 37.333 -12.667 66.666 -38 87.999s-59.333 32 -102 32c-34 0 -61.5 -7.33301 -82.5 -22s-36.333 -31.667 -46 -51
s-15.167 -36.666 -16.5 -51.999l-58 7c0.666992 10.667 4.33398 25.5 11.001 44.5s17.667 38.167 33 57.5s35.833 35.833 61.5 49.5s57.834 20.5 96.501 20.5c61.333 0 110 -14.5 146 -43.5s54 -68.5 54 -118.5c0 -33.333 -8.83301 -60.166 -26.5 -80.499
s-41.834 -34.5 -72.501 -42.5c31.333 -6.66699 58 -22 80 -46s33 -53.667 33 -89c0 -33.333 -9.16699 -62.166 -27.5 -86.499s-43.166 -43.166 -74.499 -56.499s-67 -20 -107 -20z" />
    <glyph glyph-name="four" unicode="4" horiz-adv-x="498" 
d="M25 119v56c32 15.333 62 37.166 90 65.499s52.5 60.666 73.5 96.999s37.5 74 49.5 113s18.333 76.5 19 112.5h68c0 -48 -10.167 -96.167 -30.5 -144.5s-47.833 -93.666 -82.5 -135.999s-73.667 -78.166 -117 -107.499h227v106h64v-106h78v-56h-78v-119h-64v119h-297z" />
    <glyph glyph-name="five" unicode="5" horiz-adv-x="509" 
d="M253 -10c-56 0 -101.999 13.502 -137.999 40.502s-59.667 63.167 -71 108.5l65 7c0 -2.66699 2.16699 -9.33398 6.5 -20.001s11.666 -22.167 21.999 -34.5s25 -23.166 44 -32.499s43.167 -14 72.5 -14c32.667 0 60 6.5 82 19.5s39 29.833 51 50.5s18.667 42 20 64
c1.33301 24 -3 47.333 -13 70s-26.167 41.167 -48.5 55.5s-50.5 21.5 -84.5 21.5c-24.667 0 -45.667 -3.16699 -63 -9.5s-31.333 -13.833 -42 -22.5s-18.334 -16.334 -23.001 -23.001l-7 -10l-63 13l28 289h351v-57h-302l-22 -202l8.5 10.5c5.66699 7 14.834 15 27.501 24
s29 17 49 24s44 10.5 72 10.5c46 0 83.667 -9.5 113 -28.5s50.666 -43.333 63.999 -73s19 -60.834 17 -93.501c-2 -31.333 -11.667 -61.333 -29 -90s-41.666 -52.167 -72.999 -70.5s-69.333 -27.5 -114 -27.5z" />
    <glyph glyph-name="six" unicode="6" horiz-adv-x="527" 
d="M273 -10c-54 0 -97.6689 12.665 -131.002 37.998s-57.666 58.666 -72.999 99.999s-23 86.333 -23 135c0 38.667 5 76.334 15 113.001s25.167 69.834 45.5 99.501s46.166 53.334 77.499 71.001s68 26.5 110 26.5c34 0 62.167 -5 84.5 -15s40 -21.5 53 -34.5
s22 -24.333 27 -34l7.5 -14.5l-62 -16l-10.5 14.5c-7 9.66699 -18.833 19.167 -35.5 28.5s-38.667 14 -66 14c-42 0 -77.833 -13.333 -107.5 -40s-51.167 -63 -64.5 -109s-16.333 -98 -9 -156c1.33301 13.333 6 29 14 47s19.833 35.5 35.5 52.5s35.334 30.833 59.001 41.5
s52.167 15.334 85.5 14.001c42 -0.666992 76.667 -10.167 104 -28.5s47.333 -41.833 60 -70.5s17.834 -58.834 15.501 -90.501s-11.666 -61.667 -27.999 -90s-39.833 -51.5 -70.5 -69.5s-68.334 -27 -113.001 -27zM275.998 43.998c31.333 0 57.833 6.5 79.5 19.5
s38.334 29.833 50.001 50.5s18.167 42.5 19.5 65.5s-2.5 45 -11.5 66s-23.667 38.5 -44 52.5s-46.5 21.667 -78.5 23c-36 1.33301 -66.667 -6 -92 -22s-44.5 -36.833 -57.5 -62.5s-19.5 -51.5 -19.5 -77.5c8.66699 -36 26.667 -64.167 54 -84.5s60.666 -30.5 99.999 -30.5z
" />
    <glyph glyph-name="seven" unicode="7" horiz-adv-x="476" 
d="M185 0h-63.998c0 76.667 10.667 146.167 32 208.5s50.833 118.166 88.5 167.499s81.5 93 131.5 131h-333v56h397v-54c-15.333 -12 -33.833 -27.333 -55.5 -46s-43.834 -41.667 -66.501 -69s-43.834 -59.666 -63.501 -96.999s-35.667 -80.5 -48 -129.5
s-18.5 -104.833 -18.5 -167.5z" />
    <glyph glyph-name="eight" unicode="8" horiz-adv-x="540" 
d="M267 -10c-43.333 0 -81.9971 6.16699 -115.997 18.5s-61 30.5 -81 54.5s-30 53.667 -30 89c0 36 12.333 67.333 37 94s57.667 44 99 52c-28.667 6.66699 -50.5 17.334 -65.5 32.001s-25 30.334 -30 47.001s-7.5 31.667 -7.5 45c0 30 8.33301 56.333 25 79
s39.5 40.334 68.5 53.001s62.5 19 100.5 19c39.333 0 73.666 -6.5 102.999 -19.5s52.166 -30.833 68.499 -53.5s24.5 -48.667 24.5 -78c0 -13.333 -2.66699 -28.333 -8 -45s-15.333 -32.334 -30 -47.001s-36.334 -25.334 -65.001 -32.001
c41.333 -8.66699 74.333 -25.834 99 -51.501s37 -57.167 37 -94.5c0 -36 -10 -66.167 -30 -90.5s-47.333 -42.333 -82 -54s-73.667 -17.5 -117 -17.5zM267.003 315c41.333 0 74.5 7.49902 99.5 22.499s37.5 39.167 37.5 72.5c0 34.667 -13 61.834 -39 81.501
s-58.667 29.5 -98 29.5c-40.667 0 -73.667 -10 -99 -30s-38 -47 -38 -81s13.333 -58.333 40 -73s59 -22 97 -22zM267.003 42.999c51.333 0 91.833 11.167 121.5 33.5s44.5 51.166 44.5 86.499c0 38.667 -14.833 68 -44.5 88s-70.167 30 -121.5 30
c-50.667 0 -90.667 -10 -120 -30s-44 -49.333 -44 -88c0 -35.333 14.667 -64.166 44 -86.499s69.333 -33.5 120 -33.5z" />
    <glyph glyph-name="nine" unicode="9" horiz-adv-x="529" 
d="M257 -10c-39.333 0 -71.8311 5.50195 -97.498 16.502s-46 23.667 -61 38s-25.5 27 -31.5 38s-9.33301 16.833 -10 17.5l61 16c0 -0.666992 2.5 -4.33398 7.5 -11.001s12.833 -14.667 23.5 -24s24.834 -17.333 42.501 -24s39.5 -10 65.5 -10
c42.667 0 76.334 12.333 101.001 37s41.834 59 51.501 103s13.5 95.333 11.5 154c-2 -13.333 -7.16699 -28.333 -15.5 -45s-20 -32.834 -35 -48.501s-33.5 -28.5 -55.5 -38.5s-47.333 -15 -76 -15c-44.667 0 -81.5 9 -110.5 27s-50.5 41.167 -64.5 69.5
s-20.333 58.333 -19 90s10.166 61.667 26.499 90s40.166 51.333 71.499 69s70 26.5 116 26.5c54.667 0 99.167 -13.333 133.5 -40s58.833 -62.5 73.5 -107.5s20 -94.5 16 -148.5c-2.66699 -52.667 -11.334 -100.167 -26.001 -142.5s-37.834 -75.833 -69.501 -100.5
s-74.834 -37 -129.501 -37zM251.002 237.002c46.667 0 83.501 14.332 110.501 42.999s43.5 64.334 49.5 107.001c-10 40.667 -28.167 71.834 -54.5 93.501s-59.166 32.5 -98.499 32.5c-32.667 0 -60 -6.66699 -82 -20s-38.667 -30.333 -50 -51s-17.333 -42.834 -18 -66.501
s4.16602 -46 14.499 -67s26.166 -38.167 47.499 -51.5s48.333 -20 81 -20z" />
    <glyph glyph-name="colon" unicode=":" horiz-adv-x="194" 
d="M97 276c-16.667 0 -27.834 4.33301 -33.501 13s-8.5 19.334 -8.5 32.001c0 11.333 2.83301 21.5 8.5 30.5s16.834 13.5 33.501 13.5c16 0 26.833 -4.5 32.5 -13.5s8.5 -19.167 8.5 -30.5c0 -12.667 -2.83301 -23.334 -8.5 -32.001s-16.5 -13 -32.5 -13zM97 44
c-16.667 0 -27.834 4.33301 -33.501 13s-8.5 19.334 -8.5 32.001c0 12 2.83301 22.333 8.5 31s16.834 13 33.501 13c16 0 26.833 -4.33301 32.5 -13s8.5 -19 8.5 -31c0 -12.667 -2.83301 -23.334 -8.5 -32.001s-16.5 -13 -32.5 -13z" />
    <glyph glyph-name="semicolon" unicode=";" horiz-adv-x="188" 
d="M97 318c-16.667 0 -27.834 4.33301 -33.501 13s-8.5 19.334 -8.5 32.001c0 11.333 2.83301 21.5 8.5 30.5s16.834 13.5 33.501 13.5c16 0 26.833 -4.5 32.5 -13.5s8.5 -19.167 8.5 -30.5c0 -12.667 -2.83301 -23.334 -8.5 -32.001s-16.5 -13 -32.5 -13zM52 -88v48.001h18
c16 0 26.167 3.66699 30.5 11s6.5 16.666 6.5 27.999c-18 -1.33301 -31 2 -39 10s-12 19.333 -12 34c0 12 3 22 9 30s17 12 33 12c14 0 24.333 -4.16699 31 -12.5s10 -23.5 10 -45.5c0 -34 -5 -61.667 -15 -83s-27.333 -32 -52 -32h-20z" />
    <glyph glyph-name="less" unicode="&#x3c;" horiz-adv-x="399" 
d="M354 384v-55l-255 -101l255 -101v-57l-312 158z" />
    <glyph glyph-name="equal" unicode="=" horiz-adv-x="386" 
d="M40 262v46h291v-46h-291zM40 138v46h291v-46h-291z" />
    <glyph glyph-name="greater" unicode="&#x3e;" horiz-adv-x="399" 
d="M42 384l312 -156l-312 -158v57l255 101l-255 101v55z" />
    <glyph glyph-name="question" unicode="?" horiz-adv-x="436" 
d="M239 141l-57.002 0.00195312c0.666992 25.333 6.33398 47.166 17.001 65.499s23.834 35 39.501 50l46.5 44c15.333 14.333 28.5 29.666 39.5 45.999s16.5 35.5 16.5 57.5c0.666992 32 -9.5 57.667 -30.5 77s-48.833 29 -83.5 29c-30 0 -53.833 -6.66699 -71.5 -20
s-30.167 -30.333 -37.5 -51s-11 -41.667 -11 -63h-62c-2.66699 33.333 2.16602 64.5 14.499 93.5s32.166 52.5 59.499 70.5s62.333 27 105 27c32.667 0 62.834 -6.33301 90.501 -19s49.5 -30.667 65.5 -54s24 -51 24 -83c0 -28 -5.33301 -51.5 -16 -70.5
s-24.167 -35.667 -40.5 -50l-49 -42c-16.333 -13.667 -30.166 -29 -41.499 -46s-17.333 -37.5 -18 -61.5zM211.998 -8.99805c-16 0 -26.667 4.16699 -32 12.5s-8 18.5 -8 30.5c0 11.333 2.66699 21.166 8 29.499s16 12.5 32 12.5c15.333 0 25.5 -4.16699 30.5 -12.5
s7.5 -18.166 7.5 -29.499c0 -12.667 -2.5 -23 -7.5 -31s-15.167 -12 -30.5 -12z" />
    <glyph glyph-name="at" unicode="@" horiz-adv-x="747" 
d="M340 36c-40.667 0 -70.5 14.502 -89.5 43.502s-25.5 65.167 -19.5 108.5c4.66699 28.667 14.167 54.167 28.5 76.5s32 40 53 53s43.5 19.5 67.5 19.5c26 0 47.5 -5.83301 64.5 -17.5s29.5 -27.167 37.5 -46.5l7 51h50l-33 -193
c-2.66699 -18 -2.33398 -34.167 0.999023 -48.5s14 -21.5 32 -21.5c25.333 0 47 9 65 27s31.333 41.167 40 69.5s12.167 58 10.5 89s-9.5 59.5 -23.5 85.5c-17.333 31.333 -40.833 57 -70.5 77s-62.5 33.833 -98.5 41.5s-72.167 9.33398 -108.5 5.00098
s-69.5 -15.166 -99.5 -32.499c-42 -22.667 -75.333 -55.334 -100 -98.001s-38.667 -90.667 -42 -144c-2.66699 -48 4.5 -89.5 21.5 -124.5s41.333 -63.333 73 -85s68 -36.334 109 -44.001s84 -7.66699 129 0s89.5 23.167 133.5 46.5l33 -54
c-48 -26.667 -98.333 -44.667 -151 -54s-103.834 -10 -153.501 -2s-94.5 24.833 -134.5 50.5s-71.5 60.167 -94.5 103.5s-33.5 95.666 -31.5 156.999c2 66 19 125 51 177s74.333 91.333 127 118c38.667 19.333 80.5 31.166 125.5 35.499s89 1.33301 132 -9
s81.667 -28 116 -53s60.5 -57.167 78.5 -96.5c14 -32 20.667 -66.333 20 -103s-8.16699 -71.167 -22.5 -103.5s-34.333 -58.833 -60 -79.5s-56.167 -31 -91.5 -31c-24.667 0 -42.167 6.66699 -52.5 20s-14.833 30 -13.5 50c-13.333 -20 -30.166 -35.667 -50.499 -47
s-42.166 -17 -65.499 -17zM353 74.002c22.667 0 40.832 4.16602 54.499 12.499s24.334 18.833 32.001 31.5s13.167 25.334 16.5 38.001s5.66602 23 6.99902 31c5.33301 32.667 2.83301 59.334 -7.5 80.001s-32.166 31 -65.499 31c-27.333 0 -51.833 -10 -73.5 -30
s-35.167 -47.667 -40.5 -83c-4 -32.667 0.333008 -59.334 13 -80.001s34 -31 64 -31z" />
    <glyph glyph-name="A" unicode="A" horiz-adv-x="541" 
d="M19 0l198 563h106l201 -563h-68l-61 176h-247l-61 -176h-68zM272 535l-106 -305h211z" />
    <glyph glyph-name="B" unicode="B" horiz-adv-x="537" 
d="M60 0l0.00390625 562.999h203c24.667 0 49.5 -1.66699 74.5 -5s48 -10 69 -20s38 -25 51 -45s19.5 -46.333 19.5 -79c0 -22 -4.16699 -42.167 -12.5 -60.5s-23.333 -33.166 -45 -44.499s-52.834 -17.333 -93.501 -18v-4c47.333 0 83.666 -6.5 108.999 -19.5
s42.833 -29.833 52.5 -50.5s14.5 -43.667 14.5 -69c0 -33.333 -7.16699 -60 -21.5 -80s-32.833 -34.833 -55.5 -44.5s-47.334 -16 -74.001 -19s-52.334 -4.5 -77.001 -4.5h-214zM124.004 315.999h132.001c31.333 0 58.666 2 81.999 6s41.5 12.5 54.5 25.5
s19.5 33.167 19.5 60.5c0 31.333 -7.16699 54 -21.5 68s-33.333 22.833 -57 26.5s-49.167 5.5 -76.5 5.5h-133v-192zM124.005 53.999l145.001 0.000976562c30.667 0 58.5 2.16699 83.5 6.5s45 13.666 60 27.999s22.5 36.5 22.5 66.5c0 31.333 -8 54.833 -24 70.5
s-37.333 26 -64 31s-56.334 7.5 -89.001 7.5h-134v-210z" />
    <glyph glyph-name="C" unicode="C" horiz-adv-x="596" 
d="M299 -10c-52 0 -98.6699 10.835 -140.003 32.502s-74.166 54.167 -98.499 97.5s-36.166 96.666 -35.499 159.999c0 64 11.833 117.833 35.5 161.5s56.5 76.5 98.5 98.5s90 33 144 33c69.333 0 126 -18.5 170 -55.5s72 -87.833 84 -152.5h-67
c-8.66699 50.667 -30.667 88 -66 112s-75.666 36 -120.999 36c-66.667 0 -119 -19.833 -157 -59.5s-57 -96.167 -57 -169.5c0 -76.667 18.5 -134.834 55.5 -174.501s88.833 -59.5 155.5 -59.5c50 0 92.667 12.167 128 36.5s57 61.5 65 111.5h68
c-12 -64 -40.167 -114.667 -84.5 -152s-103.5 -56 -177.5 -56z" />
    <glyph glyph-name="D" unicode="D" horiz-adv-x="588" 
d="M554 282c0 -74 -14 -131.5 -42 -172.5s-67.333 -69.5 -118 -85.5s-110 -24 -178 -24h-149v563h149c68 0 127.333 -10.5 178 -31.5s90 -52.167 118 -93.5s42 -93.333 42 -156zM131 55l99 -0.00195312c52 0 97.167 5.83301 135.5 17.5s68 33.834 89 66.501
s31.5 80.334 31.5 143.001c0 76.667 -23.333 133.167 -70 169.5s-108.667 54.5 -186 54.5h-99v-451z" />
    <glyph glyph-name="E" unicode="E" horiz-adv-x="479" 
d="M120 54h324v-54h-387v563h377v-57h-314v-194h249v-54h-249v-204z" />
    <glyph glyph-name="F" unicode="F" horiz-adv-x="479" 
d="M134 0h-64v563h389v-57h-325v-180h256v-54h-256v-272z" />
    <glyph glyph-name="G" unicode="G" horiz-adv-x="609" 
d="M291 -13c-54 0 -100.997 11.5 -140.997 34.5s-70.833 56.167 -92.5 99.5s-32.5 96 -32.5 158c0.666992 62 12.5 115 35.5 159s55.167 77.5 96.5 100.5s89.666 34.5 144.999 34.5c71.333 0 128.5 -16.5 171.5 -49.5s70.5 -81.167 82.5 -144.5l-62 -8
c-10.667 49.333 -33 85.333 -67 108s-75.667 34 -125 34c-71.333 0 -124.333 -20.333 -159 -61s-53.334 -97.334 -56.001 -170.001c0 -74 19.167 -131.333 57.5 -172s91.833 -61 160.5 -61c52.667 0 96.834 14 132.501 42s56.5 69.333 62.5 124h-155v50h223v-265h-46
l-15 124h-2c-5.33301 -18 -16.333 -37.667 -33 -59s-39.834 -39.666 -69.501 -54.999s-66.834 -23 -111.501 -23z" />
    <glyph glyph-name="H" unicode="H" horiz-adv-x="581" 
d="M131 0h-64v563h64v-247h320v247h63v-563h-63v264h-320v-264z" />
    <glyph glyph-name="I" unicode="I" horiz-adv-x="342" 
d="M276 56v-56h-218v56h77v451h-77v56h218v-56h-77v-451h77z" />
    <glyph glyph-name="J" unicode="J" horiz-adv-x="432" 
d="M206 -10c-24.667 0 -49.668 4.83301 -75.001 14.5s-46.5 26 -63.5 49s-25.5 54.5 -25.5 94.5h60c0 -15.333 2.83301 -30.833 8.5 -46.5s15.834 -28.834 30.501 -39.501s35.667 -16 63 -16c34.667 0 60.167 9.33301 76.5 28s24.5 50.334 24.5 95.001v342h-111v51h175v-385
c0 -59.333 -12.167 -105.333 -36.5 -138s-66.5 -49 -126.5 -49z" />
    <glyph glyph-name="K" unicode="K" horiz-adv-x="553" 
d="M70 -1v564h65v-293l296 293h84v-10l-240 -227l252 -316v-10h-75l-224 282l-93 -88v-195h-65z" />
    <glyph glyph-name="L" unicode="L" horiz-adv-x="468" 
d="M67 0v563h64v-507h312v-56h-376z" />
    <glyph glyph-name="M" unicode="M" horiz-adv-x="703" 
d="M57 0v563h111l183 -534h2l180 534h111v-563h-65l3 530h-2l-182 -530h-95l-182 530h-2l3 -530h-65z" />
    <glyph glyph-name="N" unicode="N" horiz-adv-x="581" 
d="M458 563h65v-563h-121l-280 534h-2v-534h-65v563h113l288 -534h2v534z" />
    <glyph glyph-name="O" unicode="O" horiz-adv-x="604" 
d="M295 -14c-89.333 0 -157.331 26.5 -203.998 79.5s-70 124.5 -70 214.5c0 59.333 10.167 110.833 30.5 154.5s50.666 77.667 90.999 102s91.166 36.5 152.499 36.5c89.333 0 157 -26.5 203 -79.5s69 -124.167 69 -213.5c0 -58 -10.167 -109.167 -30.5 -153.5
s-50.833 -78.833 -91.5 -103.5s-90.667 -37 -150 -37zM294.002 48c70 0 122.501 21.333 157.501 64s52.5 98.667 52.5 168s-17.333 125.5 -52 168.5s-87.334 64.5 -158.001 64.5c-68.667 0 -120.834 -20.833 -156.501 -62.5s-53.5 -98.5 -53.5 -170.5
c0 -68.667 17.333 -124.5 52 -167.5s87.334 -64.5 158.001 -64.5z" />
    <glyph glyph-name="P" unicode="P" horiz-adv-x="489" 
d="M127 0h-64v563h214c62 0 109.333 -15 142 -45s49 -74.667 49 -134c0 -55.333 -16.833 -98 -50.5 -128s-80.5 -45 -140.5 -45h-150v-211zM270 508l-143 0.000976562v-247h143c44 0 78.167 10.167 102.5 30.5s36.5 51.166 36.5 92.499c0 42.667 -11.833 74 -35.5 94
s-58.167 30 -103.5 30z" />
    <glyph glyph-name="Q" unicode="Q" horiz-adv-x="613" 
d="M372 -115c-14 0 -27.668 2.16895 -41.001 6.50195s-24.333 13.833 -33 28.5s-13.667 37 -15 67c-80.667 5.33301 -142.167 34.166 -184.5 86.499s-63.5 121.166 -63.5 206.499c0 58.667 10.167 110 30.5 154s50.833 78.167 91.5 102.5s91.334 36.5 152.001 36.5
c60 0 110.167 -12 150.5 -36s70.833 -57.833 91.5 -101.5s31 -95.167 31 -154.5c0 -82 -20.167 -149.667 -60.5 -203s-99.833 -83.333 -178.5 -90c0 -14 2.5 -26 7.5 -36s17.167 -15 36.5 -15c8.66699 0 17.5 2.66699 26.5 8s15.833 8 20.5 8l5 -50
c-1.33301 0 -6 -1.5 -14 -4.5s-17 -6 -27 -9s-18.667 -4.5 -26 -4.5zM307.999 49.002c69.333 0 121.5 21 156.5 63s52.5 98.667 52.5 170c0 70 -17.167 126.167 -51.5 168.5s-86.833 63.5 -157.5 63.5c-68 0 -119.667 -20.333 -155 -61s-53 -97.667 -53 -171
c0 -70.667 17.167 -127.167 51.5 -169.5s86.5 -63.5 156.5 -63.5z" />
    <glyph glyph-name="R" unicode="R" horiz-adv-x="531" 
d="M62 0l-0.000976562 562.999h186c71.333 0 126.5 -11.333 165.5 -34s58.5 -65 58.5 -127c0 -40 -10.833 -74.5 -32.5 -103.5s-54.834 -43.5 -99.501 -43.5c28 0 48.833 -6 62.5 -18s23 -27.167 28 -45.5s7.83301 -37.333 8.5 -57s2 -37.5 4 -53.5
s6.83301 -27.667 14.5 -35s20.834 -7.66602 39.501 -0.999023v-42c-6 -5.33301 -15.167 -9.16602 -27.5 -11.499s-25.166 -1.5 -38.499 2.5s-24.5 13 -33.5 27s-13.5 34.667 -13.5 62c0 41.333 -2.33301 73.333 -7 96s-15.167 38.667 -31.5 48s-41.833 14.666 -76.5 15.999
s-82 1.33301 -142 0v-243h-65zM126.999 291.999h130.999c52.667 0 91.834 7 117.501 21s38.5 42.333 38.5 85c0 33.333 -7 57.833 -21 73.5s-34.167 25.667 -60.5 30s-58.833 6.5 -97.5 6.5h-108v-216z" />
    <glyph glyph-name="S" unicode="S" horiz-adv-x="525" 
d="M269 -13c-39.333 0 -77.1689 6.49805 -113.502 19.498s-66.166 33.333 -89.499 61s-35.333 63.5 -36 107.5h64c0 -2 0.666992 -7.66699 2 -17s4.83301 -20.166 10.5 -32.499s14.834 -24.666 27.501 -36.999s30.334 -22.5 53.001 -30.5s51.667 -12 87 -12
c39.333 0 69.333 5.83301 90 17.5s34.834 25 42.501 40s11.5 26.833 11.5 35.5c0.666992 23.333 -5.66602 42 -18.999 56s-31.166 25.333 -53.499 34s-46.833 16.334 -73.5 23.001s-53.167 13.834 -79.5 21.501s-50.5 17.667 -72.5 30s-39.333 28.5 -52 48.5
s-18.334 45.667 -17.001 77c1.33301 30 11.666 55.667 30.999 77s45.166 37.833 77.499 49.5s69.166 17.5 110.499 17.5c38 0 73.167 -6.83301 105.5 -20.5s58.166 -34.167 77.499 -61.5s28.333 -61.333 27 -102h-63c0.666992 25.333 -4.16602 46.166 -14.499 62.499
s-23.833 28.833 -40.5 37.5s-33.834 14.834 -51.501 18.501s-33.167 5.5 -46.5 5.5c-42 0 -76.667 -8.33301 -104 -25s-41.333 -38.334 -42 -65.001c0 -23.333 6.66699 -42 20 -56s31.166 -25.167 53.499 -33.5s46.833 -15.5 73.5 -21.5s53.167 -12.833 79.5 -20.5
s50.5 -17.5 72.5 -29.5s39.333 -28.333 52 -49s18.334 -47 17.001 -79c-1.33301 -31.333 -11.666 -57.833 -30.999 -79.5s-45 -38.334 -77 -50.001s-68.333 -17.5 -109 -17.5z" />
    <glyph glyph-name="T" unicode="T" horiz-adv-x="449" 
d="M10 507v56h425v-56h-180v-507h-64v507h-181z" />
    <glyph glyph-name="U" unicode="U" horiz-adv-x="577" 
d="M286 -14c-75.333 0 -133.167 22.167 -173.5 66.5s-60.5 106.833 -60.5 187.5v323h66v-323c0 -67.333 16 -116.333 48 -147s72 -46 120 -46c52 0 93.167 15.167 123.5 45.5s45.5 79.5 45.5 147.5v323h66v-323c0 -82 -19.833 -144.833 -59.5 -188.5
s-98.167 -65.5 -175.5 -65.5z" />
    <glyph glyph-name="V" unicode="V" horiz-adv-x="516" 
d="M433 563h70l-199 -563h-108l-198 563h70l182 -533z" />
    <glyph glyph-name="W" unicode="W" horiz-adv-x="839" 
d="M749 563h70l-166 -563h-105l-136 478l-140 -478h-105l-160 563h68l145 -533l158 533h69l153 -533z" />
    <glyph glyph-name="X" unicode="X" horiz-adv-x="549" 
d="M25 0l207 298l-187 265h78l151 -223l150 223h78l-186 -265l208 -298h-77l-173 255l-174 -255h-75z" />
    <glyph glyph-name="Y" unicode="Y" horiz-adv-x="430" 
d="M178 0v206l-191 357h72l153 -298l153 298h71l-193 -357v-206h-65z" />
    <glyph glyph-name="Z" unicode="Z" horiz-adv-x="544" 
d="M37 0v54l380 452h-349v57h431v-55l-378 -451h376v-57h-460z" />
    <glyph glyph-name="bracketleft" unicode="[" horiz-adv-x="251" 
d="M238 -199h-203v802h203v-60h-142v-682l142 -1v-59z" />
    <glyph glyph-name="backslash" unicode="\" horiz-adv-x="332" 
d="M274 0l-254 563h63l254 -563h-63z" />
    <glyph glyph-name="bracketright" unicode="]" horiz-adv-x="264" 
d="M35 -199v59l148 1v682h-142v60h203v-802h-209z" />
    <glyph glyph-name="asciicircum" unicode="^" horiz-adv-x="403" 
d="M27 320v20l174 222l176 -222v-20h-65l-110 179h-2l-109 -179h-64z" />
    <glyph glyph-name="underscore" unicode="_" horiz-adv-x="524" 
d="M27 0v49h442v-49h-442z" />
    <glyph glyph-name="grave" unicode="`" horiz-adv-x="600" 
d="M114 632l-78 98v15h59l51 -103v-10h-32z" />
    <glyph glyph-name="a" unicode="a" horiz-adv-x="427" 
d="M181 -9c-37.333 0 -68 9.16797 -92 27.501s-41.833 43.166 -53.5 74.499s-17.5 67 -17.5 107c0 61.333 13.5 111.833 40.5 151.5s67.833 59.5 122.5 59.5c28 0 51.5 -4.83301 70.5 -14.5s34.333 -21.5 46 -35.5s20.167 -27.333 25.5 -40h1v86h66v-407h-55l-10 79h-2
c-6 -13.333 -14.667 -26.833 -26 -40.5s-26.5 -25 -45.5 -34s-42.5 -13.5 -70.5 -13.5zM206 48.001c41.333 0 71.168 13.667 89.501 41s27.5 64 27.5 110c0 49.333 -9.5 87 -28.5 113s-48.5 39 -88.5 39c-44 0 -75.5 -14.5 -94.5 -43.5s-28.5 -64.833 -28.5 -107.5
c0 -44.667 9.66699 -81.167 29 -109.5s50.666 -42.5 93.999 -42.5z" />
    <glyph glyph-name="b" unicode="b" horiz-adv-x="476" 
d="M264 -10c-26.667 0 -49.1621 4.49902 -67.4951 13.499s-33.333 19.5 -45 31.5s-20.5 23.333 -26.5 34s-9.66699 17.667 -11 21h-2l-10 -90h-56v563h66l1 -258h2c1.33301 3.33301 4.66602 10.333 9.99902 21s13.666 22.334 24.999 35.001s26.166 23.5 44.499 32.5
s41.166 13.5 68.499 13.5c39.333 0 72.166 -9 98.499 -27s46.166 -42.833 59.499 -74.5s20 -67.5 20 -107.5s-6.66699 -75.667 -20 -107s-33.166 -56 -59.499 -74s-58.833 -27 -97.5 -27zM248.005 46.999c32 0 57.3311 7.33301 75.998 22s32.334 33.5 41.001 56.5
s13 47.167 13 72.5c0 26 -4.66699 50.333 -14 73s-24 41.167 -44 55.5s-45.667 21.5 -77 21.5c-39.333 0 -70.666 -13.5 -93.999 -40.5s-35 -63.5 -35 -109.5c0 -46.667 12.5 -83.5 37.5 -110.5s57.167 -40.5 96.5 -40.5z" />
    <glyph glyph-name="c" unicode="c" horiz-adv-x="452" 
d="M225 -10c-38 0 -72.001 8 -102.001 24s-53.667 39.333 -71 70s-26 67.667 -26 111c1.33301 42.667 10.5 80 27.5 112s40.5 56.833 70.5 74.5s64.333 26.5 103 26.5c36 0 67.333 -6.66699 94 -20s48 -31.333 64 -54s26 -47.667 30 -75h-59
c-6.66699 29.333 -21.167 52 -43.5 68s-50.166 24 -83.499 24c-42.667 0 -76.5 -14.167 -101.5 -42.5s-37.833 -65.166 -38.5 -110.499c0 -46 12.167 -82.5 36.5 -109.5s58.5 -40.5 102.5 -40.5c32 0 59.667 8 83 24s38.333 39 45 69h59c-4 -28 -14.167 -53.333 -30.5 -76
s-38 -40.834 -65 -54.501s-58.5 -20.5 -94.5 -20.5z" />
    <glyph glyph-name="d" unicode="d" horiz-adv-x="487" 
d="M223 -10c-39.333 0 -72.1631 9.00098 -98.4961 27.001s-46 42.833 -59 74.5s-19.5 67.167 -19.5 106.5c0 60.667 15 110.667 45 150s74.333 59 133 59c27.333 0 50.166 -4.5 68.499 -13.5s33.166 -19.833 44.499 -32.5s19.666 -24.334 24.999 -35.001
s8.66602 -17.667 9.99902 -21h2l1 258h66v-563h-56l-10 90h-2c-1.33301 -3.33301 -5 -10.333 -11 -21s-14.833 -22 -26.5 -34s-26.667 -22.5 -45 -31.5s-40.833 -13.5 -67.5 -13.5zM239.003 47.001c39.333 0 71.498 13.5 96.498 40.5s37.5 63.833 37.5 110.5
c0 46 -11.667 82.5 -35 109.5s-54.666 40.5 -93.999 40.5c-31.333 0 -57 -7.16699 -77 -21.5s-34.667 -32.833 -44 -55.5s-14 -47 -14 -73c0 -25.333 4.33301 -49.5 13 -72.5s22.334 -41.833 41.001 -56.5s44 -22 76 -22z" />
    <glyph glyph-name="e" unicode="e" horiz-adv-x="451" 
d="M223 -10c-44.667 0 -81.4971 10.167 -110.497 30.5s-50.333 46.666 -64 78.999s-20.5 65.833 -20.5 100.5c0 38 7.5 72.833 22.5 104.5s37 56.834 66 75.501s63.833 28 104.5 28c52 0 95.333 -16.833 130 -50.5s53.334 -78.834 56.001 -135.501
c0.666992 -2.66699 1 -6.5 1 -11.5v-13.5h-318c0 -47.333 11.5 -84.5 34.5 -111.5s55.5 -40.5 97.5 -40.5c31.333 0 58.166 8 80.499 24s36.166 37.667 41.499 65h63c-6.66699 -41.333 -26.334 -75.666 -59.001 -102.999s-74.334 -41 -125.001 -41zM92.0029 232
l250.002 0.000976562c0 14 -3.83301 30.667 -11.5 50s-20.334 36.166 -38.001 50.499s-41.834 21.5 -72.501 21.5c-28 0 -51 -6 -69 -18s-31.667 -27.333 -41 -46s-15.333 -38 -18 -58z" />
    <glyph glyph-name="f" unicode="f" horiz-adv-x="268" 
d="M76 -3l-0.000976562 362.001h-63v48h63v90c0 23.333 4.83301 41.666 14.5 54.999s26.834 20 51.501 20h121v-53h-122v-112h115v-48h-115v-362h-65z" />
    <glyph glyph-name="g" unicode="g" horiz-adv-x="454" 
d="M138 -168l0.000976562 61.0029h203v197h-2c-1.33301 -3.33301 -4.83301 -10.333 -10.5 -21s-14.334 -22 -26.001 -34s-26.667 -22.5 -45 -31.5s-40.5 -13.5 -66.5 -13.5c-39.333 0 -72.166 9.16699 -98.499 27.5s-46.166 43.166 -59.499 74.499s-20 66.666 -20 105.999
c0 61.333 15.167 111.5 45.5 150.5s74.833 58.5 133.5 58.5c27.333 0 50.166 -4.5 68.499 -13.5s33 -19.833 44 -32.5s19.167 -24.334 24.5 -35.001s8.66602 -17.667 9.99902 -21h2v102h66v-477c0 -32 -6 -56.333 -18 -73s-33.667 -25 -65 -25h-186zM205.001 47.0029
c40 0 72.333 13.5 97 40.5s37 63.833 37 110.5c0 46 -11.667 82.5 -35 109.5s-54.333 40.5 -93 40.5c-32 0 -57.833 -7.16699 -77.5 -21.5s-34.167 -32.833 -43.5 -55.5s-14 -47 -14 -73c0 -25.333 4.16699 -49.5 12.5 -72.5s22 -41.833 41 -56.5s44.167 -22 75.5 -22z" />
    <glyph glyph-name="h" unicode="h" horiz-adv-x="453" 
d="M42 0l0.00195312 563h65v-257h2c1.33301 3.33301 4.5 10.333 9.5 21s12.833 22.167 23.5 34.5s25 23 43 32s40.667 13.5 68 13.5c34.667 0 62.334 -6.5 83.001 -19.5s36.167 -30 46.5 -51s17.166 -43.5 20.499 -67.5s5 -46.667 5 -68v-201h-63v201
c0 44 -7.5 79.667 -22.5 107s-44.167 41 -87.5 41c-30.667 0 -55.334 -7.16699 -74.001 -21.5s-32.334 -33.333 -41.001 -57s-13 -49.5 -13 -77.5v-193h-65z" />
    <glyph glyph-name="i" unicode="i" horiz-adv-x="177" 
d="M89 451c-14.667 0 -24.5 3.83301 -29.5 11.5s-7.5 17.5 -7.5 29.5c0 10 2.5 18.833 7.5 26.5s14.833 11.5 29.5 11.5s24.5 -3.83301 29.5 -11.5s7.5 -16.5 7.5 -26.5c0 -12 -2.5 -21.833 -7.5 -29.5s-14.833 -11.5 -29.5 -11.5zM57 0v407h64v-407h-64z" />
    <glyph glyph-name="j" unicode="j" horiz-adv-x="194" 
d="M109 454c-15.333 0 -25.5 4 -30.5 12s-7.5 18 -7.5 30c0 10.667 2.5 20 7.5 28s15.167 12 30.5 12s25.5 -4 30.5 -12s7.5 -17.333 7.5 -28c0 -12 -2.5 -22 -7.5 -30s-15.167 -12 -30.5 -12zM76 407l65.001 -0.000976562v-500c0 -23.333 -4.83301 -41.666 -14.5 -54.999
s-26.834 -20 -51.501 -20h-69v53h70v522z" />
    <glyph glyph-name="k" unicode="k" horiz-adv-x="429" 
d="M113 -1h-65v564h65v-379l222 224h82l-178 -176l182 -233h-79l-149 188l-80 -79v-109z" />
    <glyph glyph-name="l" unicode="l" horiz-adv-x="167" 
d="M52 0v563h63v-563h-63z" />
    <glyph glyph-name="m" unicode="m" horiz-adv-x="660" 
d="M38 0l-0.00195312 407h55l4 -101h2c1.33301 4.66699 4.33301 12.5 9 23.5s12 22.5 22 34.5s23 22.167 39 30.5s36.333 12.5 61 12.5c37.333 0 64.833 -10.333 82.5 -31s29.5 -44 35.5 -70h2c2 4.66699 5.66699 12.5 11 23.5s13.333 22.5 24 34.5s24.5 22.167 41.5 30.5
s37.833 12.5 62.5 12.5c26 0 47.333 -5.16699 64 -15.5s29.5 -24 38.5 -41s15.5 -34.833 19.5 -53.5s6.33301 -36.667 7 -54s1 -31.333 1 -42v-201h-56v201c0 10.667 -0.666992 24.334 -2 41.001s-4.66602 33.167 -9.99902 49.5s-14.5 30 -27.5 41s-31.5 16.5 -55.5 16.5
c-26.667 0 -48 -7.33301 -64 -22s-27.667 -33.834 -35 -57.501s-11 -49.167 -11 -76.5v-193h-56v201c0 10.667 -0.666992 24.334 -2 41.001s-4.66602 33.167 -9.99902 49.5s-14.5 30 -27.5 41s-31.5 16.5 -55.5 16.5c-26.667 0 -48 -7.33301 -64 -22
s-27.667 -33.834 -35 -57.501s-11 -49.167 -11 -76.5v-193h-59z" />
    <glyph glyph-name="n" unicode="n" horiz-adv-x="446" 
d="M38 0l0.000976562 407h55l11 -101h2c0.666992 3.33301 3.66699 10.333 9 21s13.5 22.167 24.5 34.5s25.5 23 43.5 32s41 13.5 69 13.5c35.333 0 63.166 -6.33301 83.499 -19s35.5 -29.5 45.5 -50.5s16.333 -43.5 19 -67.5s4 -47 4 -69v-201h-62v201
c0 44 -7.5 79.667 -22.5 107s-44.5 41 -88.5 41c-30 0 -54.5 -7.16699 -73.5 -21.5s-32.667 -33.333 -41 -57s-12.5 -49.5 -12.5 -77.5v-193h-66z" />
    <glyph glyph-name="o" unicode="o" 
d="M222 -10c-65.333 0 -114.166 19.4971 -146.499 58.4971s-48.5 88.833 -48.5 149.5c-0.666992 61.333 15.5 111.5 48.5 150.5s81.833 58.833 146.5 59.5c64 0 112.5 -19.167 145.5 -57.5s49.5 -89.166 49.5 -152.499c0 -39.333 -7 -74.666 -21 -105.999
s-35.333 -56.166 -64 -74.499s-65.334 -27.5 -110.001 -27.5zM222 45.9971c34.667 0 61.5 7.66699 80.5 23s32.333 34.833 40 58.5s11.5 47.834 11.5 72.501s-3.83301 49 -11.5 73s-21 43.667 -40 59s-45.833 23 -80.5 23s-61.5 -7.66699 -80.5 -23s-32.333 -35 -40 -59
s-11.5 -48.333 -11.5 -73s3.83301 -48.834 11.5 -72.501s21 -43.167 40 -58.5s45.833 -23 80.5 -23z" />
    <glyph glyph-name="p" unicode="p" horiz-adv-x="475" 
d="M265 -10c-26 0 -48.165 4.50098 -66.498 13.501s-33.166 19.5 -44.499 31.5s-19.833 23.333 -25.5 34s-9.16699 17.667 -10.5 21h-2v-258h-66v575h55l11 -102h2c1.33301 3.33301 4.66602 10.333 9.99902 21s13.5 22.334 24.5 35.001s25.667 23.5 44 32.5
s41.166 13.5 68.499 13.5c39.333 0 72.166 -9 98.499 -27s46.333 -42.833 60 -74.5s20.5 -67.834 20.5 -108.501c0 -60.667 -15.333 -110.334 -46 -149.001s-75 -58 -133 -58zM252.002 47.001c31.333 0 56.5 7.33301 75.5 22s32.667 33.5 41 56.5s12.5 47.167 12.5 72.5
c0 26 -4.66699 50.333 -14 73s-23.833 41.167 -43.5 55.5s-45.5 21.5 -77.5 21.5c-38.667 0 -69.667 -13.5 -93 -40.5s-35 -63.5 -35 -109.5c0 -46.667 12.333 -83.5 37 -110.5s57 -40.5 97 -40.5z" />
    <glyph glyph-name="q" unicode="q" horiz-adv-x="475" 
d="M209 -10c-38.667 0 -71.333 9.00098 -98 27.001s-46.667 42.667 -60 74s-20 66.666 -20 105.999c0 40.667 6.83301 76.834 20.5 108.501s33.834 56.5 60.501 74.5s59.334 27 98.001 27c27.333 0 50.166 -4.5 68.499 -13.5s33 -19.833 44 -32.5
s19.167 -24.334 24.5 -35.001s8.33301 -17.667 9 -21h2l12 102h55v-575h-66v258h-2c-1.33301 -3.33301 -4.83301 -10.333 -10.5 -21s-14.334 -22 -26.001 -34s-26.5 -22.5 -44.5 -31.5s-40.333 -13.5 -67 -13.5zM223.001 47.001c40 0 72.332 13.5 96.999 40.5
s37 63.833 37 110.5c0 46 -11.667 82.5 -35 109.5s-54.666 40.5 -93.999 40.5c-31.333 0 -56.833 -7.16699 -76.5 -21.5s-34.167 -32.833 -43.5 -55.5s-14 -47 -14 -73c0 -25.333 4.16699 -49.5 12.5 -72.5s22 -41.833 41 -56.5s44.167 -22 75.5 -22z" />
    <glyph glyph-name="r" unicode="r" horiz-adv-x="302" 
d="M48 0l0.00195312 407.001h58l7 -107c4 18 12 35.333 24 52s28.5 30.167 49.5 40.5s47.167 15.166 78.5 14.499h19v-71h-20c-42.667 0 -74.834 -6.16699 -96.501 -18.5s-36.334 -29.5 -44.001 -51.5s-11.5 -47.333 -11.5 -76v-190h-64z" />
    <glyph glyph-name="s" unicode="s" horiz-adv-x="402" 
d="M200 -10c-38.667 0 -70.4961 8.17188 -95.4961 24.5049s-43.667 35.5 -56 57.5s-18.5 41.667 -18.5 59h62c0 -0.666992 0.5 -5.66699 1.5 -15s4.5 -20 10.5 -32s16.333 -22.5 31 -31.5s36 -13.5 64 -13.5c30 0 55.833 5.33301 77.5 16s32.167 27.334 31.5 50.001
c0 19.333 -6.5 34.166 -19.5 44.499s-29.833 18.333 -50.5 24s-42.334 11.167 -65.001 16.5s-44.167 12.166 -64.5 20.499s-36.833 20.166 -49.5 35.499s-19 36.666 -19 63.999c0 33.333 15 59.833 45 79.5s68.333 29.5 115 29.5c26 0 52.333 -4.16699 79 -12.5
s48.667 -22.666 66 -42.999s25.333 -48.833 24 -85.5h-60c1.33301 25.333 -4.33398 44.333 -17.001 57s-27.834 21.167 -45.501 25.5s-33.834 6.5 -48.501 6.5c-28.667 0 -52.167 -5.33301 -70.5 -16s-27.5 -25.667 -27.5 -45c0 -18.667 6.5 -32.834 19.5 -42.501
s29.667 -17.334 50 -23.001s42 -11 65 -16s44.833 -11.833 65.5 -20.5s37.5 -21 50.5 -37s19.5 -38 19.5 -66c0 -38.667 -16.333 -66.834 -49 -84.501s-73 -26.5 -121 -26.5z" />
    <glyph glyph-name="t" unicode="t" horiz-adv-x="276" 
d="M140 0c-24.667 0 -41.832 6.66699 -51.499 20s-14.5 31.666 -14.5 54.999v284h-64v48c21.333 0 37.166 1.83301 47.499 5.5s16.833 12.834 19.5 27.501s4 38.667 4 72h55v-105h94v-48h-94v-307h95v-52h-91z" />
    <glyph glyph-name="u" unicode="u" horiz-adv-x="445" 
d="M189 -10c-33.333 0 -60.1621 6.00195 -80.4951 18.002s-35.833 28.167 -46.5 48.5s-17.834 42.666 -21.501 66.999s-5.5 48.833 -5.5 73.5v210h64v-211c0 -26.667 2.66699 -51.334 8 -74.001s16.166 -40.667 32.499 -54s40.166 -20 71.499 -20
c30 0 53.5 6.83301 70.5 20.5s29.5 31.5 37.5 53.5s12.667 45 14 69v216h66v-407h-55l-11 91h-2c-3.33301 -11.333 -10.333 -25 -21 -41s-25.834 -30 -45.501 -42s-44.834 -18 -75.501 -18z" />
    <glyph glyph-name="v" unicode="v" horiz-adv-x="413" 
d="M329 407h64v-14l-154 -393h-91l-155 393v14h64l136 -354h2z" />
    <glyph glyph-name="w" unicode="w" horiz-adv-x="604" 
d="M112 0l-109 393v15h62l92 -353h2l105 353h57l108 -353h2l90 353h62v-15l-108 -393h-92l-89 296h-2l-88 -296h-92z" />
    <glyph glyph-name="x" unicode="x" horiz-adv-x="418" 
d="M10 0l149 210l-142 197h73l110 -156l110 156h73l-142 -197l151 -210h-74l-118 168l-118 -168h-72z" />
    <glyph glyph-name="y" unicode="y" horiz-adv-x="407" 
d="M-3 -182l-0.00195312 52h56c13.333 0 24.333 3.5 33 10.5s19.334 23.833 32.001 50.5l43 93l-160 383h67l125 -315l133 315h68l-218 -485c-13.333 -30 -25.166 -52.5 -35.499 -67.5s-21.833 -24.833 -34.5 -29.5s-28.667 -7 -48 -7h-61z" />
    <glyph glyph-name="z" unicode="z" horiz-adv-x="430" 
d="M35 0v47l277 310h-264v51h344v-48l-276 -308h276v-52h-357z" />
    <glyph glyph-name="braceleft" unicode="{" horiz-adv-x="296" 
d="M273 -196c-58.667 -9.33301 -101.668 -7.83594 -129.001 4.49707s-43.5 37.333 -48.5 75s-3.5 89.167 4.5 154.5c4.66699 33.333 5.16699 59.333 1.5 78s-9.33398 31.834 -17.001 39.501s-16.167 12.334 -25.5 14.001s-18 2.5 -26 2.5v64c8 0 16.667 0.833008 26 2.5
s17.833 6.33398 25.5 14.001s13.334 20.834 17.001 39.501s3.16699 44.667 -1.5 78c-7.33301 65.333 -8.66602 116.333 -3.99902 153s20.667 61.167 48 73.5s70.333 14.5 129 6.5v-59c-36.667 8 -64 9.83301 -82 5.5s-29.5 -14.333 -34.5 -30s-6.33301 -36 -4 -61
s5.83301 -53.833 10.5 -86.5c4.66699 -32 6.5 -59 5.5 -81s-8 -40.167 -21 -54.5s-34.167 -25.5 -63.5 -33.5c29.333 -8 50.5 -19 63.5 -33s20.167 -31.833 21.5 -53.5s-0.666992 -48.5 -6 -80.5c-4.66699 -32.667 -8.16699 -61.5 -10.5 -86.5s-1 -45.333 4 -61
s16.5 -25.834 34.5 -30.501s45.333 -3 82 5v-59z" />
    <glyph glyph-name="bar" unicode="|" horiz-adv-x="185" 
d="M60 -151v752h65v-752h-65z" />
    <glyph glyph-name="braceright" unicode="}" horiz-adv-x="309" 
d="M37 -196v59.002c36 -8 63 -9.66699 81 -5s29.667 14.834 35 30.501s6.66602 36 3.99902 61s-6 53.833 -10 86.5c-5.33301 32 -7.5 58.833 -6.5 80.5s8 39.5 21 53.5s34.5 25 64.5 33c-30 8 -51.333 19.167 -64 33.5s-19.667 32.5 -21 54.5s0.666992 49 6 81
c4 32.667 7.33301 61.5 10 86.5s1.33398 45.333 -3.99902 61s-17 25.667 -35 30s-45 2.5 -81 -5.5v59c46.667 4 83 3.33301 109 -2s44.5 -16.833 55.5 -34.5s16.5 -42.5 16.5 -74.5s-3 -72.667 -9 -122c-4 -33.333 -4.33301 -59.333 -1 -78s9 -31.834 17 -39.501
s16.667 -12.334 26 -14.001s17.666 -2.5 24.999 -2.5v-64c-7.33301 0 -15.666 -0.833008 -24.999 -2.5s-18 -6.33398 -26 -14.001s-13.667 -20.834 -17 -39.501s-3 -44.667 1 -78c6 -49.333 9.16699 -90.166 9.5 -122.499s-5 -57.333 -16 -75s-29.667 -29.167 -56 -34.5
s-62.833 -6 -109.5 -2z" />
    <glyph glyph-name="asciitilde" unicode="~" horiz-adv-x="321" 
d="M215 193c-16.667 0 -29.6689 3.49902 -39.002 10.499s-17.166 15 -23.499 24s-12.5 16.833 -18.5 23.5s-14.333 10 -25 10c-12.667 0 -20.667 -5.66699 -24 -17s-4.66602 -25.333 -3.99902 -42h-43c0 12.667 1.16699 26.834 3.5 42.501s8.33301 29 18 40
s25.167 16.5 46.5 16.5c16.667 0 29.667 -3.5 39 -10.5s17 -14.833 23 -23.5s12.167 -16.5 18.5 -23.5s14.833 -10.5 25.5 -10.5c14 0 22.167 6.16699 24.5 18.5s3.5 26.5 3.5 42.5h43c0.666992 -14 -0.333008 -28.833 -3 -44.5s-9 -29 -19 -40s-25.333 -16.5 -46 -16.5z
" />
    <glyph glyph-name="uni00A0" unicode="&#xa0;" horiz-adv-x="237" 
 />
    <glyph glyph-name="exclamdown" unicode="&#xa1;" horiz-adv-x="179" 
d="M93 373c15.333 0 25.5 -4 30.5 -12s7.5 -18 7.5 -30c0 -10.667 -2.5 -20 -7.5 -28s-15.167 -12 -30.5 -12c-14.667 0 -24.667 4 -30 12s-8 17.333 -8 28c0 12 2.5 22 7.5 30s15.167 12 30.5 12zM69 225l6.99902 -1.50098c4.66699 -1 10.334 -1.5 17.001 -1.5
c7.33301 0 13 0.5 17 1.5l6 1.5c3.33301 -86.667 6.83301 -157.667 10.5 -213s5.66699 -98.333 6 -129s-2.5 -52 -8.5 -64s-16.333 -18 -31 -18c-15.333 0 -26 6 -32 18s-8.83301 33.167 -8.5 63.5s2.33301 73.333 6 129s7.16699 126.834 10.5 213.501z" />
    <glyph glyph-name="cent" unicode="&#xa2;" horiz-adv-x="450" 
d="M192 -89l3 81c-50.667 5.33301 -91.834 25.666 -123.501 60.999s-47.5 82.666 -47.5 141.999c1.33301 58 17.666 106 48.999 144s72 60.333 122 67l-3 81h63l-3 -80c46 -5.33301 82.5 -21.5 109.5 -48.5s44.167 -58.833 51.5 -95.5l-60 -8
c-6.66699 30.667 -20.834 54.334 -42.501 71.001s-50.167 25 -85.5 25c-42.667 0 -76.167 -14.167 -100.5 -42.5s-36.833 -65.166 -37.5 -110.499c0 -46 11.833 -82.5 35.5 -109.5s57.5 -40.5 101.5 -40.5c34 0 62.333 8.5 85 25.5s37.334 40.833 44.001 71.5l60 -7
c-7.33301 -38 -24.666 -70.5 -51.999 -97.5s-63.666 -43.167 -108.999 -48.5l3 -81h-63z" />
    <glyph glyph-name="sterling" unicode="&#xa3;" horiz-adv-x="614" 
d="M92 -13l-30.9971 49.001c31.333 24 54.666 50.667 69.999 80s17.333 64 6 104h-99v49h80l-1 2c-19.333 37.333 -29.5 73.833 -30.5 109.5s6.16699 68 21.5 97s38 52 68 69s67 25.5 111 25.5c66.667 0 117.5 -18 152.5 -54s53.167 -82 54.5 -138l-62 -7
c-2 8.66699 -5.16699 21 -9.5 37s-11.833 32.5 -22.5 49.5s-25.834 31.333 -45.501 43s-45.834 17.167 -78.501 16.5c-38 -0.666992 -68.5 -12 -91.5 -34s-36 -50.667 -39 -86s5.83301 -74.333 26.5 -117c2.66699 -4 4.66699 -8.33301 6 -13h226v-50l-208 1
c8.66699 -36 8 -65.833 -2 -89.5s-23.333 -46.5 -40 -68.5c23.333 11.333 46.5 16.5 69.5 15.5s45.5 -4.5 67.5 -10.5l64 -17c20.667 -5.33301 40.5 -7.33301 59.5 -6s36.833 9.33301 53.5 24c14.667 12.667 23.5 29 26.5 49s0.5 41.333 -7.5 64l61 12
c14 -50.667 13.667 -90.334 -1 -119.001s-35 -47 -61 -55c-22 -14 -43.5 -22.167 -64.5 -24.5s-41.5 -1.33301 -61.5 3s-40.333 9.5 -61 15.5s-41.667 10.5 -63 13.5s-43.5 2.33301 -66.5 -2s-46.833 -15.166 -71.5 -32.499
c-0.666992 -0.666992 -1.5 -1.33398 -2.5 -2.00098s-2.16699 -1.66699 -3.5 -3z" />
    <glyph glyph-name="currency" unicode="&#xa4;" horiz-adv-x="533" 
d="M435 2h-34l-41 59c-25.333 -18 -56.333 -27 -93 -27c-38 0 -70 9.33301 -96 28l-42 -60h-31l54 77c-27.333 30.667 -41 72.667 -41 126c0 60 16.667 105 50 135l-47 65h34l35 -50c22.667 13.333 50.667 20 84 20c32.667 0 60 -6.33301 82 -19l34 49h35l-47 -65
c34 -30.667 51 -75.667 51 -135c0 -52.667 -13.667 -94.667 -41 -126zM267 55c16.667 0 31.832 2.16504 45.499 6.49805s25.5 9.83301 35.5 16.5c2.66699 2 5 4 7 6l6 6l-9.5 -9.5c-0.333008 -0.333008 1 0.833984 4 3.50098s5.83301 5.5 8.5 8.5l4 4.5
c21.333 26.667 32 62.667 32 108c0 52.667 -13.667 92 -41 118c-5.33301 5.33301 -12.666 10.333 -21.999 15c-20 10.667 -43.333 16 -70 16c-27.333 0 -51.333 -5.33301 -72 -16l-10.5 -7.5c-7 -5 -10.5 -7.83301 -10.5 -8.5c-27.333 -25.333 -41 -64.333 -41 -117
c0 -22 4.16699 -44.5 12.5 -67.5s21.166 -42.5 38.499 -58.5c10.667 -7.33301 22.834 -13.166 36.501 -17.499s29.167 -6.5 46.5 -6.5z" />
    <glyph glyph-name="yen" unicode="&#xa5;" horiz-adv-x="467" 
d="M81 106v41h117v48l-117 -1v41h101l-175 328h71l153 -298l153 298h71l-177 -328h104v-40h-120v-48h120v-41h-120v-106h-64v106h-117z" />
    <glyph glyph-name="brokenbar" unicode="&#xa6;" horiz-adv-x="185" 
d="M60 290v311h65v-311h-65zM60 -151v311h65v-311h-65z" />
    <glyph glyph-name="section" unicode="&#xa7;" horiz-adv-x="600" 
d="M418 223l-0.00292969 -1.99805c15.333 -10 28.333 -23.333 39 -40s15.667 -36.667 15 -60c-2 -37.333 -19.167 -66.666 -51.5 -87.999s-71.166 -32 -116.499 -32c-31.333 0 -61.5 5.33301 -90.5 16s-52.833 27.334 -71.5 50.001s-28.667 51.334 -30 86.001h31
c0 -1.33301 0.5 -6.33301 1.5 -15s4 -19 9 -31s13.167 -23.833 24.5 -35.5s27.333 -21.334 48 -29.001s47.334 -11.5 80.001 -11.5c30 0 54 3.66699 72 11s31.5 16.333 40.5 27s15 21 18 31s4.5 17.333 4.5 22c0.666992 25.333 -6.33301 45.166 -21 59.499
s-34 25.5 -58 33.5s-49.5 15.167 -76.5 21.5s-52.5 14.333 -76.5 24s-43.333 23 -58 40s-21.334 40.5 -20.001 70.5c0.666992 18.667 7.5 34.834 20.5 48.501s28.833 24.167 47.5 31.5v1c-20.667 11.333 -37.334 25.5 -50.001 42.5s-18.667 37.5 -18 61.5
c1.33301 24 9.66602 44.5 24.999 61.5s35.833 30.167 61.5 39.5s53.834 14 84.501 14c31.333 0 59.5 -5.5 84.5 -16.5s44.833 -27.167 59.5 -48.5s21.334 -48.333 20.001 -81h-30c0.666992 24 -3.66602 43.667 -12.999 59s-21.333 27.166 -36 35.499
s-29.834 14.166 -45.501 17.499s-29.5 5 -41.5 5c-39.333 0 -71.833 -8.33301 -97.5 -25s-39.167 -37.667 -40.5 -63c0 -24.667 7.5 -44 22.5 -58s34.333 -24.833 58 -32.5s49 -14.5 76 -20.5s52.333 -13.833 76 -23.5s42.834 -23.334 57.501 -41.001
s21.334 -41.834 20.001 -72.501c-0.666992 -18.667 -6 -34.667 -16 -48s-22.667 -25 -38 -35zM161.997 369.002c0 -23.333 5.83301 -41.8311 17.5 -55.498s27.5 -24.334 47.5 -32.001s41.833 -14.167 65.5 -19.5s46.834 -11.333 69.501 -18
c7.33301 -1.33301 12.333 -2.33301 15 -3s4.66699 -1.33398 6 -2.00098c5.33301 -1.33301 9.33301 -1.5 12 -0.5s4.66699 1.83301 6 2.5c17.333 11.333 28.333 23.666 33 36.999s7 23 7 29c0.666992 22 -4.83301 40 -16.5 54s-27.334 25.333 -47.001 34
s-41.167 15.834 -64.5 21.501l-69 17.5l-21.5 4.5c-5 1 -11.833 -1.16699 -20.5 -6.5c-26 -17.333 -39.333 -38.333 -40 -63z" />
    <glyph glyph-name="dieresis" unicode="&#xa8;" horiz-adv-x="600" 
d="M93 682c-18.667 0 -31.334 4.83301 -38.001 14.5s-10 20.834 -10 33.501c0 12 3.33301 22.833 10 32.5s19.334 14.5 38.001 14.5c19.333 0 32 -4.83301 38 -14.5s9 -20.5 9 -32.5c0 -12.667 -3 -23.834 -9 -33.501s-18.667 -14.5 -38 -14.5zM250 682
c-19.333 0 -32.166 4.83301 -38.499 14.5s-9.5 20.834 -9.5 33.501c0 12 3.16699 22.833 9.5 32.5s19.166 14.5 38.499 14.5c18.667 0 31 -4.83301 37 -14.5s9 -20.5 9 -32.5c0 -12.667 -3 -23.834 -9 -33.501s-18.333 -14.5 -37 -14.5z" />
    <glyph glyph-name="copyright" unicode="&#xa9;" horiz-adv-x="635" 
d="M328 -10c-40.667 0 -78.667 7.5 -114 22.5s-66.5 36 -93.5 63s-48 58.167 -63 93.5s-22.5 73.333 -22.5 114c0 39.333 7.5 76.5 22.5 111.5s36 65.833 63 92.5s58.167 47.667 93.5 63s73.333 23 114 23c39.333 0 76.5 -7.66699 111.5 -23s65.833 -36.333 92.5 -63
s47.667 -57.5 63 -92.5s23 -72.167 23 -111.5c0 -40.667 -7.66699 -78.667 -23 -114s-36.333 -66.5 -63 -93.5s-57.5 -48 -92.5 -63s-72.167 -22.5 -111.5 -22.5zM328 30c47.333 0 89.833 11 127.5 33s67.5 52 89.5 90s33 81 33 129c0 47.333 -11 89.833 -33 127.5
s-51.833 67.667 -89.5 90s-80.167 33.5 -127.5 33.5c-48 0 -91 -11.167 -129 -33.5s-68 -52.333 -90 -90s-33 -80.167 -33 -127.5c0 -48 11 -91 33 -129s52 -68 90 -90s81 -33 129 -33zM328 115c-45.333 0 -83.166 14.001 -113.499 42.001s-45.5 69.667 -45.5 125
c0 53.333 15.333 94.5 46 123.5s69.334 43.5 116.001 43.5c40.667 0 74 -11.333 100 -34s42 -52.334 48 -89.001l-45 -6c-5.33301 28 -16.333 49.5 -33 64.5s-40 22.5 -70 22.5c-36.667 0 -65.167 -10.833 -85.5 -32.5s-30.5 -51.834 -30.5 -90.501c0 -40.667 10 -72 30 -94
s48 -33 84 -33c30.667 0 54.667 7.83301 72 23.5s29 37.834 35 66.501l46 -10c-6.66699 -36 -22.834 -65.333 -48.501 -88s-60.834 -34 -105.501 -34z" />
    <glyph glyph-name="ordfeminine" unicode="&#xaa;" horiz-adv-x="279" 
d="M125 403c-35.333 0 -61.1689 12.5 -77.502 37.5s-24.5 56.167 -24.5 93.5c0 39.333 8.33301 71.5 25 96.5s42.334 37.5 77.001 37.5c27.333 0 47.833 -6.5 61.5 -19.5s22.834 -25.5 27.501 -37.5l1 55h44v-258h-36l-7 49h-2c-4.66699 -12 -14 -24 -28 -36
s-34.333 -18 -61 -18zM141.997 440c26 0 44.667 8.5 56 25.5s17 39.833 17 68.5c0 30.667 -5.83301 54.167 -17.5 70.5s-30.167 24.5 -55.5 24.5c-27.333 0 -47 -9.16699 -59 -27.5s-18 -40.833 -18 -67.5c0 -27.333 6.16699 -49.833 18.5 -67.5s31.833 -26.5 58.5 -26.5z
" />
    <glyph glyph-name="guillemotleft" unicode="&#xab;" horiz-adv-x="507" 
d="M309 511v-59l-227 -157l227 -160v-59l-290 219zM473 511v-62l-228 -154l228 -157v-62l-290 219z" />
    <glyph glyph-name="logicalnot" unicode="&#xac;" horiz-adv-x="317" 
d="M40 201v46h222v-131h-47v85h-175z" />
    <glyph glyph-name="uni00AD" unicode="&#xad;" horiz-adv-x="280" 
d="M29 200v49h222v-49h-222z" />
    <glyph glyph-name="registered" unicode="&#xae;" horiz-adv-x="408" 
d="M203 229c-32 0 -61 7.66699 -87 23s-46.833 36 -62.5 62s-23.5 54.667 -23.5 86c0 32 7.83301 61 23.5 87s36.5 46.667 62.5 62s55 23 87 23c31.333 0 59.833 -7.66699 85.5 -23s46.167 -36 61.5 -62s23 -55 23 -87c0 -31.333 -7.66699 -60 -23 -86
s-35.833 -46.667 -61.5 -62s-54.167 -23 -85.5 -23zM203 257c27.333 0 51.666 6.5 72.999 19.5s38.166 30.333 50.499 52s18.5 45.5 18.5 71.5c0 26.667 -6.16699 50.834 -18.5 72.501s-29.166 39 -50.499 52s-45.666 19.5 -72.999 19.5c-28 0 -52.833 -6.5 -74.5 -19.5
s-38.667 -30.333 -51 -52s-18.5 -45.834 -18.5 -72.501c0 -26 6.16699 -49.833 18.5 -71.5s29.333 -39 51 -52s46.5 -19.5 74.5 -19.5zM137 315l0.00195312 178.998h63c24 0 42.333 -3.83301 55 -11.5s19 -21.167 19 -40.5c0 -14 -3.66699 -25.833 -11 -35.5
s-19.333 -14.5 -36 -14.5c13.333 0 22.166 -3.5 26.499 -10.5s6.83301 -14.667 7.5 -23s2.16699 -15.166 4.5 -20.499s8.16602 -6.33301 17.499 -3v-17c-4.66699 -4 -10.667 -6.16699 -18 -6.5s-14 2 -20 7s-9 14.167 -9 27.5c0 14 -1.16699 24.167 -3.5 30.5
s-8.5 10.333 -18.5 12s-26 1.83398 -48 0.500977v-74h-29zM166.002 410.998h34.999c16 0 27.833 1.5 35.5 4.5s11.5 10.833 11.5 23.5c0 14.667 -4.66699 23.5 -14 26.5s-22.666 4.5 -39.999 4.5h-28v-59z" />
    <glyph glyph-name="macron" unicode="&#xaf;" horiz-adv-x="329" 
d="M40 731v49h249v-49h-249z" />
    <glyph glyph-name="degree" unicode="&#xb0;" horiz-adv-x="296" 
d="M131 371c-35.333 0 -61 9.16699 -77 27.5s-24 42.5 -24 72.5c0 30.667 7.83301 55.334 23.5 74.001s41.5 28 77.5 28c34.667 0 60.5 -9.33301 77.5 -28s25.5 -43.334 25.5 -74.001c0 -28.667 -8.5 -52.5 -25.5 -71.5s-42.833 -28.5 -77.5 -28.5zM130 414
c22.667 0 38.334 5.66699 47.001 17s13 25 13 41c0 17.333 -4.33301 31.833 -13 43.5s-24.334 17.5 -47.001 17.5c-22 0 -37.333 -6 -46 -18s-13 -26.333 -13 -43s4.83301 -30.5 14.5 -41.5s24.5 -16.5 44.5 -16.5z" />
    <glyph glyph-name="plusminus" unicode="&#xb1;" horiz-adv-x="317" 
d="M133 139v78h-93v42h93v81h42v-81h87v-42h-87v-78h-42zM40 49v43h222v-43h-222z" />
    <glyph glyph-name="uni00B2" unicode="&#xb2;" horiz-adv-x="236" 
d="M15 407v33.998c0 0.666992 6.33301 4.66699 19 12s27.834 17.333 45.501 30s34.667 26.5 51 41.5s28.5 30.167 36.5 45.5c11.333 22 11.5 40.833 0.5 56.5s-27.833 23.5 -50.5 23.5c-18 0 -32.667 -5.83301 -44 -17.5s-16 -29.167 -14 -52.5l-37 4
c-2.66699 31.333 5.66602 55.833 24.999 73.5s44 26.5 74 26.5c24 0 44.167 -5.5 60.5 -16.5s26.833 -25.667 31.5 -44s2 -38.166 -8 -59.499c-8 -14.667 -19.333 -29 -34 -43s-30.167 -26.667 -46.5 -38s-30.833 -20.666 -43.5 -27.999s-20.667 -11.333 -24 -12h164v-36
h-206z" />
    <glyph glyph-name="uni00B3" unicode="&#xb3;" horiz-adv-x="239" 
d="M123 397c-29.333 0 -54.665 7.99902 -75.998 23.999s-32 40 -32 72l39 5c0.666992 -21.333 7.66699 -37.666 21 -48.999s29.666 -17 48.999 -17c17.333 0 32 4.66699 44 14s18 21.666 18 36.999c0 17.333 -6.5 29.166 -19.5 35.499s-24.833 9.5 -35.5 9.5h-34v22h35
c14 0 25.667 3.33301 35 10s14 16.334 14 29.001c0 16 -5.5 28.667 -16.5 38s-25.833 14 -44.5 14c-21.333 0 -37 -6.5 -47 -19.5s-15.333 -25.167 -16 -36.5l-36 5c0 6.66699 3 16.834 9 30.501s16.167 26 30.5 37s34.166 16.5 59.499 16.5
c30 0 53.833 -6.83301 71.5 -20.5s26.5 -32.167 26.5 -55.5c0 -33.333 -16.333 -53.333 -49 -60c15.333 -2.66699 28.333 -9.66699 39 -21s16 -25.333 16 -42c0 -24 -9.5 -43 -28.5 -57s-43.167 -21 -72.5 -21z" />
    <glyph glyph-name="acute" unicode="&#xb4;" horiz-adv-x="600" 
d="M68 632h-32v10l51 103h59v-15z" />
    <glyph glyph-name="uni00B5" unicode="&#xb5;" horiz-adv-x="487" 
d="M58 -154l0.00390625 560.997h64v-211c0 -26.667 2.66699 -51.167 8 -73.5s16.166 -40.166 32.499 -53.499s40.166 -20 71.499 -20c29.333 0 52.666 6.83301 69.999 20.5s29.833 31.334 37.5 53.001s12.167 44.5 13.5 68.5l1 216h65v-406h-55l-7 79h-3
c-5.33301 -14 -13 -27.833 -23 -41.5s-23 -25.167 -39 -34.5s-35.667 -14 -59 -14c-28.667 0 -51.834 4.83301 -69.501 14.5s-31.5 22.834 -41.5 39.501h-2v-198h-64z" />
    <glyph glyph-name="paragraph" unicode="&#xb6;" horiz-adv-x="506" 
d="M231 -92l-0.00195312 403h-15c-36.667 1.33301 -70.167 8 -100.5 20s-54.5 31.833 -72.5 59.5s-27 65.5 -27 113.5c0 46 8.83301 83 26.5 111s41.334 48.5 71.001 61.5s62.834 19.833 99.501 20.5h84v0h193v-63h-67v-726h-66v726h-60v-726h-66z" />
    <glyph glyph-name="periodcentered" unicode="&#xb7;" horiz-adv-x="211" 
d="M101 195c-22 0 -36.833 5.66699 -44.5 17s-11.5 24.666 -11.5 39.999c0 14 3.83301 26.667 11.5 38s22.5 17 44.5 17c22.667 0 37.5 -5.66699 44.5 -17s10.5 -24 10.5 -38c0 -15.333 -3.5 -28.666 -10.5 -39.999s-21.833 -17 -44.5 -17z" />
    <glyph glyph-name="cedilla" unicode="&#xb8;" horiz-adv-x="267" 
d="M33 -117l22.999 32.9971c8.66699 -9.33301 20.334 -16.666 35.001 -21.999s29.667 -8.16602 45 -8.49902s28 2.5 38 8.5s14.667 15.333 14 28c-0.666992 12 -6.33398 20 -17.001 24s-23.167 4.5 -37.5 1.5s-26.833 -8.83301 -37.5 -17.5l-29 19l40 83l34 -14l-40 -62
c9.33301 8.66699 21.333 15 36 19s29.334 5 44.001 3s27.167 -7.66699 37.5 -17s15.5 -22.666 15.5 -39.999c0 -20 -6.83301 -36.167 -20.5 -48.5s-31 -20.5 -52 -24.5s-43 -3.16699 -66 2.5s-43.833 16.5 -62.5 32.5z" />
    <glyph glyph-name="uni00B9" unicode="&#xb9;" horiz-adv-x="169" 
d="M30 405l-0.000976562 37h45v193c-4 -14.667 -10.333 -25.667 -19 -33s-17 -12.333 -25 -15s-13.333 -4 -16 -4v45c2.66699 0 9 0.833008 19 2.5s19.833 6.5 29.5 14.5s14.834 20.333 15.501 37h36v-240h39v-37h-124z" />
    <glyph glyph-name="ordmasculine" unicode="&#xba;" horiz-adv-x="297" 
d="M149 408c-44.667 0 -78.167 13.333 -100.5 40s-33.5 60.667 -33.5 102c0 42 11.167 76.333 33.5 103s55.833 40 100.5 40c43.333 0 76.333 -13 99 -39s34 -60.667 34 -104c0 -40.667 -10.833 -74.5 -32.5 -101.5s-55.167 -40.5 -100.5 -40.5zM149 446
c24 0 42.333 5.16699 55 15.5s21.667 23.666 27 39.999s8 32.833 8 49.5c0 17.333 -2.66699 34.166 -8 50.499s-14.333 29.833 -27 40.5s-31 16 -55 16s-42.5 -5.33301 -55.5 -16s-22.167 -24.167 -27.5 -40.5s-8 -33.166 -8 -50.499c0 -16.667 2.66699 -33.167 8 -49.5
s14.5 -29.666 27.5 -39.999s31.5 -15.5 55.5 -15.5z" />
    <glyph glyph-name="guillemotright" unicode="&#xbb;" horiz-adv-x="483" 
d="M178 511l290 -216l-290 -219v59l228 160l-228 157v59zM15 511l290 -216l-290 -219v62l228 157l-228 154v62z" />
    <glyph glyph-name="onequarter" unicode="&#xbc;" horiz-adv-x="675" 
d="M37 289l-0.000976562 36h45v194c-4 -14.667 -10.333 -25.667 -19 -33s-17 -12.333 -25 -15s-13.333 -4 -16 -4v45c2.66699 -0.666992 9 0 19 2s19.833 6.83301 29.5 14.5s14.834 20.167 15.501 37.5h36v-241h39v-36h-124zM154.999 0l-45 32l222 264l190 266l45 -31
l-212 -252zM416.999 56l0.000976562 36c22 10 41.167 25.333 57.5 46s29.166 43.5 38.499 68.5s14.333 48.5 15 70.5h45c0 -34 -10.5 -67.833 -31.5 -101.5s-48.167 -61.5 -81.5 -83.5h100v46h41v-46h37v-36h-37v-56h-41v56h-143z" />
    <glyph glyph-name="onehalf" unicode="&#xbd;" horiz-adv-x="703" 
d="M37 289l-0.000976562 36h45v194c-4 -14.667 -10.333 -25.667 -19 -33s-17 -12.333 -25 -15s-13.333 -4 -16 -4v45c2.66699 -0.666992 9 0 19 2s19.833 6.83301 29.5 14.5s14.834 20.167 15.501 37.5h36v-241h39v-36h-124zM154.999 0l-45 32l222 264l190 266l45 -31
l-212 -252zM460.999 0l0.000976562 33.998l19 11.5c12.667 7.66699 27.834 17.667 45.501 30s34.667 26 51 41s28.5 30.167 36.5 45.5c11.333 22.667 11.5 41.834 0.5 57.501s-27.833 23.5 -50.5 23.5c-18 0 -32.667 -5.83301 -44 -17.5s-16 -29.5 -14 -53.5l-37 5
c-2.66699 31.333 5.66602 55.833 24.999 73.5s44 26.5 74 26.5c23.333 0 43.166 -5.5 59.499 -16.5s27 -25.667 32 -44s2.5 -38.166 -7.5 -59.499c-8 -14.667 -19.333 -29 -34 -43s-30.167 -26.833 -46.5 -38.5s-30.833 -21 -43.5 -28s-20.667 -11.167 -24 -12.5h164v-35
h-206z" />
    <glyph glyph-name="threequarters" unicode="&#xbe;" horiz-adv-x="675" 
d="M130 296c-29.333 0 -54.665 8.00391 -75.998 24.0039s-32 40 -32 72l39 5c0.666992 -22 7.66699 -38.5 21 -49.5s29.666 -16.5 48.999 -16.5c17.333 0 32 4.66699 44 14s18 21.333 18 36c0 18 -6.5 30.167 -19.5 36.5s-24.833 9.5 -35.5 9.5h-34v22h35
c14 0 25.667 3.16699 35 9.5s14 15.833 14 28.5c0 16.667 -5.5 29.5 -16.5 38.5s-25.833 13.5 -44.5 13.5c-21.333 0 -37 -6.5 -47 -19.5s-15.333 -24.833 -16 -35.5l-36 5c0 6.66699 3 16.667 9 30s16.167 25.666 30.5 36.999s34.166 17 59.499 17
c30 0 53.833 -6.83301 71.5 -20.5s26.5 -32.5 26.5 -56.5c0 -32.667 -16.333 -52.334 -49 -59.001c15.333 -2.66699 28.333 -9.83398 39 -21.501s16 -25.834 16 -42.501c0 -24 -9.5 -42.833 -28.5 -56.5s-43.167 -20.5 -72.5 -20.5zM155.001 0.00390625l-45 32l222 264
l190 266l45 -31l-212 -252zM417.001 56.0039l0.000976562 36c22 10 41.167 25.333 57.5 46s29.166 43.5 38.499 68.5s14.333 48.5 15 70.5h45c0 -34 -10.5 -67.833 -31.5 -101.5s-48.167 -61.5 -81.5 -83.5h100v46h41v-46h37v-36h-37v-56h-41v56h-143z" />
    <glyph glyph-name="questiondown" unicode="&#xbf;" horiz-adv-x="434" 
d="M233 377c16 0 26.667 -4.16699 32 -12.5s8 -18.5 8 -30.5c0 -11.333 -2.66699 -21.166 -8 -29.499s-16 -12.5 -32 -12.5c-15.333 0 -25.5 4.16699 -30.5 12.5s-7.5 18.166 -7.5 29.499c0 12.667 2.5 23 7.5 31s15.167 12 30.5 12zM206 227l57.0029 -0.00195312
c-0.666992 -25.333 -6.33398 -47.166 -17.001 -65.499s-23.834 -35 -39.501 -50l-46.5 -44c-15.333 -14.333 -28.5 -29.666 -39.5 -45.999s-16.5 -35.5 -16.5 -57.5c-0.666992 -32 9.5 -57.667 30.5 -77s48.833 -29 83.5 -29c30 0 53.833 6.66699 71.5 20
s30.167 30.333 37.5 51s11 41.667 11 63h62c2.66699 -33.333 -2.16602 -64.5 -14.499 -93.5s-32 -52.5 -59 -70.5s-62.167 -27 -105.5 -27c-32.667 0 -62.834 6.33301 -90.501 19s-49.5 30.667 -65.5 54s-24 51 -24 83c0 28 5.33301 51.5 16 70.5s24.167 35.667 40.5 50
l49 42c16.333 13.667 30.166 29 41.499 46s17.333 37.5 18 61.5z" />
    <glyph glyph-name="Agrave" unicode="&#xc0;" horiz-adv-x="541" 
d="M19 0l198 563h106l201 -563h-68l-61 176h-247l-61 -176h-68zM272 535l-106 -305h211zM249 610l-78 98v15h59l51 -103v-10h-32z" />
    <glyph glyph-name="Aacute" unicode="&#xc1;" horiz-adv-x="541" 
d="M19 0l198 563h106l201 -563h-68l-61 176h-247l-61 -176h-68zM272 535l-106 -305h211zM286 610h-32v10l51 103h59v-15z" />
    <glyph glyph-name="Acircumflex" unicode="&#xc2;" horiz-adv-x="541" 
d="M19 0l198 563h106l201 -563h-68l-61 176h-247l-61 -176h-68zM272 535l-106 -305h211zM148 621v8l109 103h29l109 -103v-8h-60l-62 67h-3l-60 -67h-62z" />
    <glyph glyph-name="Atilde" unicode="&#xc3;" horiz-adv-x="541" 
d="M19 0l198 563h106l201 -563h-68l-61 176h-247l-61 -176h-68zM272 535l-106 -305h211zM323 619c-15.333 0 -27.498 2.82812 -36.498 8.49512s-16.667 12 -23 19s-12.5 13.333 -18.5 19s-13.667 8.5 -23 8.5c-11.333 0 -18.166 -4.66699 -20.499 -14s-3.5 -22.333 -3.5 -39
h-42c-0.666992 12.667 0.166016 26.334 2.49902 41.001s8 26.834 17 36.501s23.5 14.5 43.5 14.5c15.333 0 27.666 -2.66699 36.999 -8s17 -11.666 23 -18.999s12.167 -13.666 18.5 -18.999s14.166 -8 23.499 -8c11.333 0 18 4.66699 20 14s3 22.666 3 39.999h43
c0.666992 -15.333 -0.5 -30.166 -3.5 -44.499s-9 -26.166 -18 -35.499s-23.167 -14 -42.5 -14z" />
    <glyph glyph-name="Adieresis" unicode="&#xc4;" horiz-adv-x="541" 
d="M19 0l198 563h106l201 -563h-68l-61 176h-247l-61 -176h-68zM272 535l-106 -305h211zM194 622c-18.667 0 -31.334 4.83301 -38.001 14.5s-10 20.834 -10 33.501c0 12 3.33301 22.833 10 32.5s19.334 14.5 38.001 14.5c19.333 0 32 -4.83301 38 -14.5s9 -20.5 9 -32.5
c0 -12.667 -3 -23.834 -9 -33.501s-18.667 -14.5 -38 -14.5zM351 622c-19.333 0 -32.166 4.83301 -38.499 14.5s-9.5 20.834 -9.5 33.501c0 12 3.16699 22.833 9.5 32.5s19.166 14.5 38.499 14.5c18.667 0 31 -4.83301 37 -14.5s9 -20.5 9 -32.5
c0 -12.667 -3 -23.834 -9 -33.501s-18.333 -14.5 -37 -14.5z" />
    <glyph glyph-name="Aring" unicode="&#xc5;" horiz-adv-x="541" 
d="M19 0l198 563h106l201 -563h-68l-61 176h-247l-61 -176h-68zM272 535l-106 -305h211zM268 603c-29.333 0 -51.833 8.16797 -67.5 24.501s-23.5 38.166 -23.5 65.499s7.66699 49.333 23 66s38 25 68 25c28.667 0 51.167 -8.33301 67.5 -25s24.5 -38.667 24.5 -66
c0 -26 -8.16699 -47.5 -24.5 -64.5s-38.833 -25.5 -67.5 -25.5zM267 643.001c16.667 0 29.5 5.00098 38.5 15.001s13.5 22 13.5 36c0 14.667 -4.5 27.167 -13.5 37.5s-21.833 15.5 -38.5 15.5s-29.5 -5.16699 -38.5 -15.5s-13.5 -22.833 -13.5 -37.5
s4.83301 -26.834 14.5 -36.501s22.167 -14.5 37.5 -14.5z" />
    <glyph glyph-name="AE" unicode="&#xc6;" horiz-adv-x="836" 
d="M19 0l352 563h420v-57h-313v-194h248v-54h-248v-204h323v-54h-387v176h-217l-109 -176h-69zM229 230h185v299z" />
    <glyph glyph-name="Ccedilla" unicode="&#xc7;" horiz-adv-x="596" 
d="M299 -10c-52 0 -98.6699 10.835 -140.003 32.502s-74.166 54.167 -98.499 97.5s-36.166 96.666 -35.499 159.999c0 64 11.833 117.833 35.5 161.5s56.5 76.5 98.5 98.5s90 33 144 33c69.333 0 126 -18.5 170 -55.5s72 -87.833 84 -152.5h-67
c-8.66699 50.667 -30.667 88 -66 112s-75.666 36 -120.999 36c-66.667 0 -119 -19.833 -157 -59.5s-57 -96.167 -57 -169.5c0 -76.667 18.5 -134.834 55.5 -174.501s88.833 -59.5 155.5 -59.5c50 0 92.667 12.167 128 36.5s57 61.5 65 111.5h68
c-12 -64 -40.167 -114.667 -84.5 -152s-103.5 -56 -177.5 -56zM203.997 -127.998l22.999 32.9971c8.66699 -9.33301 20.334 -16.666 35.001 -21.999s29.667 -8.16602 45 -8.49902s28 2.5 38 8.5s14.667 15.333 14 28c-0.666992 12 -6.33398 20 -17.001 24
s-23.167 4.5 -37.5 1.5s-26.833 -8.83301 -37.5 -17.5l-29 19l40 83l34 -14l-40 -62c9.33301 8.66699 21.333 15 36 19s29.334 5 44.001 3s27.167 -7.66699 37.5 -17s15.5 -22.666 15.5 -39.999c0 -20 -6.83301 -36.167 -20.5 -48.5s-31 -20.5 -52 -24.5
s-43 -3.16699 -66 2.5s-43.833 16.5 -62.5 32.5z" />
    <glyph glyph-name="Egrave" unicode="&#xc8;" horiz-adv-x="479" 
d="M120 54h324v-54h-387v563h377v-57h-314v-194h249v-54h-249v-204zM212 610l-78 98v15h59l51 -103v-10h-32z" />
    <glyph glyph-name="Eacute" unicode="&#xc9;" horiz-adv-x="479" 
d="M120 54h324v-54h-387v563h377v-57h-314v-194h249v-54h-249v-204zM243 610h-32v10l51 103h59v-15z" />
    <glyph glyph-name="Ecircumflex" unicode="&#xca;" horiz-adv-x="479" 
d="M120 54h324v-54h-387v563h377v-57h-314v-194h249v-54h-249v-204zM119 631v8l109 103h29l109 -103v-8h-60l-62 67h-3l-60 -67h-62z" />
    <glyph glyph-name="Edieresis" unicode="&#xcb;" horiz-adv-x="479" 
d="M120 54h324v-54h-387v563h377v-57h-314v-194h249v-54h-249v-204zM169 622c-18.667 0 -31.334 4.83301 -38.001 14.5s-10 20.834 -10 33.501c0 12 3.33301 22.833 10 32.5s19.334 14.5 38.001 14.5c19.333 0 32 -4.83301 38 -14.5s9 -20.5 9 -32.5
c0 -12.667 -3 -23.834 -9 -33.501s-18.667 -14.5 -38 -14.5zM326 622c-19.333 0 -32.166 4.83301 -38.499 14.5s-9.5 20.834 -9.5 33.501c0 12 3.16699 22.833 9.5 32.5s19.166 14.5 38.499 14.5c18.667 0 31 -4.83301 37 -14.5s9 -20.5 9 -32.5
c0 -12.667 -3 -23.834 -9 -33.501s-18.333 -14.5 -37 -14.5z" />
    <glyph glyph-name="Igrave" unicode="&#xcc;" horiz-adv-x="342" 
d="M276 56v-56h-218v56h77v451h-77v56h218v-56h-77v-451h77zM138 610l-78 98v15h59l51 -103v-10h-32z" />
    <glyph glyph-name="Iacute" unicode="&#xcd;" horiz-adv-x="342" 
d="M276 56v-56h-218v56h77v451h-77v56h218v-56h-77v-451h77zM173 610h-32v10l51 103h59v-15z" />
    <glyph glyph-name="Icircumflex" unicode="&#xce;" horiz-adv-x="342" 
d="M276 56v-56h-218v56h77v451h-77v56h218v-56h-77v-451h77zM43 631v8l109 103h29l109 -103v-8h-60l-62 67h-3l-60 -67h-62z" />
    <glyph glyph-name="Idieresis" unicode="&#xcf;" horiz-adv-x="342" 
d="M276 56v-56h-218v56h77v451h-77v56h218v-56h-77v-451h77zM90 621c-18.667 0 -31.334 4.83301 -38.001 14.5s-10 20.834 -10 33.501c0 12 3.33301 22.833 10 32.5s19.334 14.5 38.001 14.5c19.333 0 32 -4.83301 38 -14.5s9 -20.5 9 -32.5
c0 -12.667 -3 -23.834 -9 -33.501s-18.667 -14.5 -38 -14.5zM247 621c-19.333 0 -32.166 4.83301 -38.499 14.5s-9.5 20.834 -9.5 33.501c0 12 3.16699 22.833 9.5 32.5s19.166 14.5 38.499 14.5c18.667 0 31 -4.83301 37 -14.5s9 -20.5 9 -32.5
c0 -12.667 -3 -23.834 -9 -33.501s-18.333 -14.5 -37 -14.5z" />
    <glyph glyph-name="Eth" unicode="&#xd0;" horiz-adv-x="600" 
d="M67 0v263h-67v47h67v253h149c68 0 127.333 -10.5 178 -31.5s90 -52.167 118 -93.5s42 -93.333 42 -156c0 -74 -14 -131.5 -42 -172.5s-67.333 -69.5 -118 -85.5s-110 -24 -178 -24h-149zM131 55l99 -0.00195312c52 0 97.167 5.83301 135.5 17.5s68 33.834 89 66.501
s31.5 80.334 31.5 143.001c0 76.667 -23.333 133.167 -70 169.5s-108.667 54.5 -186 54.5h-99v-196h169v-47h-169v-208z" />
    <glyph glyph-name="Ntilde" unicode="&#xd1;" horiz-adv-x="581" 
d="M458 563h65v-563h-121l-280 534h-2v-534h-65v563h113l288 -534h2v534zM340 619c-15.333 0 -27.498 2.82812 -36.498 8.49512s-16.667 12 -23 19s-12.5 13.333 -18.5 19s-13.667 8.5 -23 8.5c-11.333 0 -18.166 -4.66699 -20.499 -14s-3.5 -22.333 -3.5 -39h-42
c-0.666992 12.667 0.166016 26.334 2.49902 41.001s8 26.834 17 36.501s23.5 14.5 43.5 14.5c15.333 0 27.666 -2.66699 36.999 -8s17 -11.666 23 -18.999s12.167 -13.666 18.5 -18.999s14.166 -8 23.499 -8c11.333 0 18 4.66699 20 14s3 22.666 3 39.999h43
c0.666992 -15.333 -0.5 -30.166 -3.5 -44.499s-9 -26.166 -18 -35.499s-23.167 -14 -42.5 -14z" />
    <glyph glyph-name="Ograve" unicode="&#xd2;" horiz-adv-x="604" 
d="M295 -14c-89.333 0 -157.331 26.5 -203.998 79.5s-70 124.5 -70 214.5c0 59.333 10.167 110.833 30.5 154.5s50.666 77.667 90.999 102s91.166 36.5 152.499 36.5c89.333 0 157 -26.5 203 -79.5s69 -124.167 69 -213.5c0 -58 -10.167 -109.167 -30.5 -153.5
s-50.833 -78.833 -91.5 -103.5s-90.667 -37 -150 -37zM294.002 48c70 0 122.501 21.333 157.501 64s52.5 98.667 52.5 168s-17.333 125.5 -52 168.5s-87.334 64.5 -158.001 64.5c-68.667 0 -120.834 -20.833 -156.501 -62.5s-53.5 -98.5 -53.5 -170.5
c0 -68.667 17.333 -124.5 52 -167.5s87.334 -64.5 158.001 -64.5zM276.003 610l-78 98v15h59l51 -103v-10h-32z" />
    <glyph glyph-name="Oacute" unicode="&#xd3;" horiz-adv-x="604" 
d="M295 -14c-89.333 0 -157.331 26.5 -203.998 79.5s-70 124.5 -70 214.5c0 59.333 10.167 110.833 30.5 154.5s50.666 77.667 90.999 102s91.166 36.5 152.499 36.5c89.333 0 157 -26.5 203 -79.5s69 -124.167 69 -213.5c0 -58 -10.167 -109.167 -30.5 -153.5
s-50.833 -78.833 -91.5 -103.5s-90.667 -37 -150 -37zM294.002 48c70 0 122.501 21.333 157.501 64s52.5 98.667 52.5 168s-17.333 125.5 -52 168.5s-87.334 64.5 -158.001 64.5c-68.667 0 -120.834 -20.833 -156.501 -62.5s-53.5 -98.5 -53.5 -170.5
c0 -68.667 17.333 -124.5 52 -167.5s87.334 -64.5 158.001 -64.5zM311.003 610h-32v10l51 103h59v-15z" />
    <glyph glyph-name="Ocircumflex" unicode="&#xd4;" horiz-adv-x="604" 
d="M295 -14c-89.333 0 -157.331 26.5 -203.998 79.5s-70 124.5 -70 214.5c0 59.333 10.167 110.833 30.5 154.5s50.666 77.667 90.999 102s91.166 36.5 152.499 36.5c89.333 0 157 -26.5 203 -79.5s69 -124.167 69 -213.5c0 -58 -10.167 -109.167 -30.5 -153.5
s-50.833 -78.833 -91.5 -103.5s-90.667 -37 -150 -37zM294.002 48c70 0 122.501 21.333 157.501 64s52.5 98.667 52.5 168s-17.333 125.5 -52 168.5s-87.334 64.5 -158.001 64.5c-68.667 0 -120.834 -20.833 -156.501 -62.5s-53.5 -98.5 -53.5 -170.5
c0 -68.667 17.333 -124.5 52 -167.5s87.334 -64.5 158.001 -64.5zM173.003 631v8l109 103h29l109 -103v-8h-60l-62 67h-3l-60 -67h-62z" />
    <glyph glyph-name="Otilde" unicode="&#xd5;" horiz-adv-x="604" 
d="M295 -14c-89.333 0 -157.331 26.5 -203.998 79.5s-70 124.5 -70 214.5c0 59.333 10.167 110.833 30.5 154.5s50.666 77.667 90.999 102s91.166 36.5 152.499 36.5c89.333 0 157 -26.5 203 -79.5s69 -124.167 69 -213.5c0 -58 -10.167 -109.167 -30.5 -153.5
s-50.833 -78.833 -91.5 -103.5s-90.667 -37 -150 -37zM294.002 48c70 0 122.501 21.333 157.501 64s52.5 98.667 52.5 168s-17.333 125.5 -52 168.5s-87.334 64.5 -158.001 64.5c-68.667 0 -120.834 -20.833 -156.501 -62.5s-53.5 -98.5 -53.5 -170.5
c0 -68.667 17.333 -124.5 52 -167.5s87.334 -64.5 158.001 -64.5zM347.003 621c-15.333 0 -27.498 2.82812 -36.498 8.49512s-16.667 12 -23 19s-12.5 13.333 -18.5 19s-13.667 8.5 -23 8.5c-11.333 0 -18.166 -4.66699 -20.499 -14s-3.5 -22.333 -3.5 -39h-42
c-0.666992 12.667 0.166016 26.334 2.49902 41.001s8 26.834 17 36.501s23.5 14.5 43.5 14.5c15.333 0 27.666 -2.66699 36.999 -8s17 -11.666 23 -18.999s12.167 -13.666 18.5 -18.999s14.166 -8 23.499 -8c11.333 0 18 4.66699 20 14s3 22.666 3 39.999h43
c0.666992 -15.333 -0.5 -30.166 -3.5 -44.499s-9 -26.166 -18 -35.499s-23.167 -14 -42.5 -14z" />
    <glyph glyph-name="Odieresis" unicode="&#xd6;" horiz-adv-x="604" 
d="M295 -14c-89.333 0 -157.331 26.5 -203.998 79.5s-70 124.5 -70 214.5c0 59.333 10.167 110.833 30.5 154.5s50.666 77.667 90.999 102s91.166 36.5 152.499 36.5c89.333 0 157 -26.5 203 -79.5s69 -124.167 69 -213.5c0 -58 -10.167 -109.167 -30.5 -153.5
s-50.833 -78.833 -91.5 -103.5s-90.667 -37 -150 -37zM294.002 48c70 0 122.501 21.333 157.501 64s52.5 98.667 52.5 168s-17.333 125.5 -52 168.5s-87.334 64.5 -158.001 64.5c-68.667 0 -120.834 -20.833 -156.501 -62.5s-53.5 -98.5 -53.5 -170.5
c0 -68.667 17.333 -124.5 52 -167.5s87.334 -64.5 158.001 -64.5zM223.003 622c-18.667 0 -31.334 4.83301 -38.001 14.5s-10 20.834 -10 33.501c0 12 3.33301 22.833 10 32.5s19.334 14.5 38.001 14.5c19.333 0 32 -4.83301 38 -14.5s9 -20.5 9 -32.5
c0 -12.667 -3 -23.834 -9 -33.501s-18.667 -14.5 -38 -14.5zM380.003 622c-19.333 0 -32.166 4.83301 -38.499 14.5s-9.5 20.834 -9.5 33.501c0 12 3.16699 22.833 9.5 32.5s19.166 14.5 38.499 14.5c18.667 0 31 -4.83301 37 -14.5s9 -20.5 9 -32.5
c0 -12.667 -3 -23.834 -9 -33.501s-18.333 -14.5 -37 -14.5z" />
    <glyph glyph-name="multiply" unicode="&#xd7;" horiz-adv-x="313" 
d="M278 306l-87 -87l87 -88l-34 -35l-88 88l-86 -86l-35 35l86 86l-85 86l35 35l85 -86l87 87z" />
    <glyph glyph-name="Oslash" unicode="&#xd8;" horiz-adv-x="600" 
d="M87 -24l40.002 57.999c-34.667 24.667 -61 58 -79 100s-27 90.667 -27 146c0 59.333 10.167 110.833 30.5 154.5s50.666 77.667 90.999 102s91.166 36.5 152.499 36.5c34.667 0 66.167 -4.33301 94.5 -13s53.5 -21 75.5 -37l47 68l23 -14l-49 -71
c54 -51.333 81 -126.666 81 -225.999c0 -58 -10.167 -109.167 -30.5 -153.5s-50.833 -78.833 -91.5 -103.5s-90.667 -37 -150 -37c-56.667 0 -105 11.333 -145 34l-40 -57zM84.002 279.999c0 -42 6.50195 -79.666 19.502 -112.999s32.833 -60 59.5 -80l266 384
c-16.667 13.333 -36.334 23.666 -59.001 30.999s-48 11 -76 11c-68.667 0 -120.834 -20.833 -156.501 -62.5s-53.5 -98.5 -53.5 -170.5zM294.004 48c70 0 122.5 21.333 157.5 64s52.5 98.667 52.5 168c0 36 -4.5 68.5 -13.5 97.5s-22.833 53.833 -41.5 74.5l-263 -380
c30.667 -16 66.667 -24 108 -24z" />
    <glyph glyph-name="Ugrave" unicode="&#xd9;" horiz-adv-x="577" 
d="M286 -14c-75.333 0 -133.167 22.167 -173.5 66.5s-60.5 106.833 -60.5 187.5v323h66v-323c0 -67.333 16 -116.333 48 -147s72 -46 120 -46c52 0 93.167 15.167 123.5 45.5s45.5 79.5 45.5 147.5v323h66v-323c0 -82 -19.833 -144.833 -59.5 -188.5
s-98.167 -65.5 -175.5 -65.5zM260.999 610l-78 98v15h59l51 -103v-10h-32z" />
    <glyph glyph-name="Uacute" unicode="&#xda;" horiz-adv-x="577" 
d="M286 -14c-75.333 0 -133.167 22.167 -173.5 66.5s-60.5 106.833 -60.5 187.5v323h66v-323c0 -67.333 16 -116.333 48 -147s72 -46 120 -46c52 0 93.167 15.167 123.5 45.5s45.5 79.5 45.5 147.5v323h66v-323c0 -82 -19.833 -144.833 -59.5 -188.5
s-98.167 -65.5 -175.5 -65.5zM296.999 610h-32v10l51 103h59v-15z" />
    <glyph glyph-name="Ucircumflex" unicode="&#xdb;" horiz-adv-x="577" 
d="M286 -14c-75.333 0 -133.167 22.167 -173.5 66.5s-60.5 106.833 -60.5 187.5v323h66v-323c0 -67.333 16 -116.333 48 -147s72 -46 120 -46c52 0 93.167 15.167 123.5 45.5s45.5 79.5 45.5 147.5v323h66v-323c0 -82 -19.833 -144.833 -59.5 -188.5
s-98.167 -65.5 -175.5 -65.5zM163.999 621v8l109 103h29l109 -103v-8h-60l-62 67h-3l-60 -67h-62z" />
    <glyph glyph-name="Udieresis" unicode="&#xdc;" horiz-adv-x="577" 
d="M286 -14c-75.333 0 -133.167 22.167 -173.5 66.5s-60.5 106.833 -60.5 187.5v323h66v-323c0 -67.333 16 -116.333 48 -147s72 -46 120 -46c52 0 93.167 15.167 123.5 45.5s45.5 79.5 45.5 147.5v323h66v-323c0 -82 -19.833 -144.833 -59.5 -188.5
s-98.167 -65.5 -175.5 -65.5zM210.999 622c-18.667 0 -31.334 4.83301 -38.001 14.5s-10 20.834 -10 33.501c0 12 3.33301 22.833 10 32.5s19.334 14.5 38.001 14.5c19.333 0 32 -4.83301 38 -14.5s9 -20.5 9 -32.5c0 -12.667 -3 -23.834 -9 -33.501
s-18.667 -14.5 -38 -14.5zM367.999 622c-19.333 0 -32.166 4.83301 -38.499 14.5s-9.5 20.834 -9.5 33.501c0 12 3.16699 22.833 9.5 32.5s19.166 14.5 38.499 14.5c18.667 0 31 -4.83301 37 -14.5s9 -20.5 9 -32.5c0 -12.667 -3 -23.834 -9 -33.501
s-18.333 -14.5 -37 -14.5z" />
    <glyph glyph-name="Yacute" unicode="&#xdd;" horiz-adv-x="430" 
d="M178 0v206l-191 357h72l153 -298l153 298h71l-193 -357v-206h-65zM220 610h-32v10l51 103h59v-15z" />
    <glyph glyph-name="Thorn" unicode="&#xde;" horiz-adv-x="483" 
d="M127 0h-64v563h64v-105h144c62 0 109.333 -15 142 -45s49 -75 49 -135c0 -55.333 -16.833 -98 -50.5 -128s-80.5 -45 -140.5 -45h-144v-105zM264 403l-137 0.000976562v-247h137c44 0 78.167 10.167 102.5 30.5s36.5 51.166 36.5 92.499c0 42.667 -11.833 74 -35.5 94
s-58.167 30 -103.5 30z" />
    <glyph glyph-name="germandbls" unicode="&#xdf;" horiz-adv-x="528" 
d="M326 -10c-51.333 0 -90.8369 12.502 -118.504 37.502s-44.5 54.5 -50.5 88.5h56c0.666992 0 2.33398 -3.66699 5.00098 -11s7.83398 -15.5 15.501 -24.5s18.334 -16.833 32.001 -23.5s31.5 -10 53.5 -10c37.333 0 67.5 10.167 90.5 30.5s34.5 45.166 34.5 74.499
c0 23.333 -6.66699 42.333 -20 57s-30 26.667 -50 36s-39.833 17.833 -59.5 25.5s-36.167 16.334 -49.5 26.001s-20 22.167 -20 37.5c0 12.667 4 22.834 12 30.501s18.167 14.167 30.5 19.5s24.5 11.166 36.5 17.499s22.167 14.333 30.5 24s12.5 22.5 12.5 38.5
c0 13.333 -5.83301 23.166 -17.5 29.499s-26.667 10.5 -45 12.5s-37.833 3 -58.5 3h-128v-509h-63v563h191c16 0 34.333 -0.333008 55 -1s40.667 -3.16699 60 -7.5s35.333 -12.5 48 -24.5s19 -29.333 19 -52c0 -20.667 -4.5 -37.334 -13.5 -50.001s-20 -23 -33 -31
s-26 -14.833 -39 -20.5s-24 -11.5 -33 -17.5s-13.5 -14 -13.5 -24c0 -11.333 7.16699 -20.5 21.5 -27.5s31.833 -14.167 52.5 -21.5s41.5 -16.5 62.5 -27.5s38.5 -25.667 52.5 -44s21 -42.5 21 -72.5s-8.16699 -56.333 -24.5 -79s-38.166 -40.5 -65.499 -53.5
s-57.333 -19.5 -90 -19.5z" />
    <glyph glyph-name="agrave" unicode="&#xe0;" horiz-adv-x="427" 
d="M181 -9c-37.333 0 -68 9.16797 -92 27.501s-41.833 43.166 -53.5 74.499s-17.5 67 -17.5 107c0 61.333 13.5 111.833 40.5 151.5s67.833 59.5 122.5 59.5c28 0 51.5 -4.83301 70.5 -14.5s34.333 -21.5 46 -35.5s20.167 -27.333 25.5 -40h1v86h66v-407h-55l-10 79h-2
c-6 -13.333 -14.667 -26.833 -26 -40.5s-26.5 -25 -45.5 -34s-42.5 -13.5 -70.5 -13.5zM206 48.001c41.333 0 71.168 13.667 89.501 41s27.5 64 27.5 110c0 49.333 -9.5 87 -28.5 113s-48.5 39 -88.5 39c-44 0 -75.5 -14.5 -94.5 -43.5s-28.5 -64.833 -28.5 -107.5
c0 -44.667 9.66699 -81.167 29 -109.5s50.666 -42.5 93.999 -42.5zM204.002 450.001l-78 98v15h59l51 -103v-10h-32z" />
    <glyph glyph-name="aacute" unicode="&#xe1;" horiz-adv-x="427" 
d="M181 -9c-37.333 0 -68 9.16797 -92 27.501s-41.833 43.166 -53.5 74.499s-17.5 67 -17.5 107c0 61.333 13.5 111.833 40.5 151.5s67.833 59.5 122.5 59.5c28 0 51.5 -4.83301 70.5 -14.5s34.333 -21.5 46 -35.5s20.167 -27.333 25.5 -40h1v86h66v-407h-55l-10 79h-2
c-6 -13.333 -14.667 -26.833 -26 -40.5s-26.5 -25 -45.5 -34s-42.5 -13.5 -70.5 -13.5zM206 48.001c41.333 0 71.168 13.667 89.501 41s27.5 64 27.5 110c0 49.333 -9.5 87 -28.5 113s-48.5 39 -88.5 39c-44 0 -75.5 -14.5 -94.5 -43.5s-28.5 -64.833 -28.5 -107.5
c0 -44.667 9.66699 -81.167 29 -109.5s50.666 -42.5 93.999 -42.5zM229.002 450.001h-32v10l51 103h59v-15z" />
    <glyph glyph-name="acircumflex" unicode="&#xe2;" horiz-adv-x="427" 
d="M181 -9c-37.333 0 -68 9.16797 -92 27.501s-41.833 43.166 -53.5 74.499s-17.5 67 -17.5 107c0 61.333 13.5 111.833 40.5 151.5s67.833 59.5 122.5 59.5c28 0 51.5 -4.83301 70.5 -14.5s34.333 -21.5 46 -35.5s20.167 -27.333 25.5 -40h1v86h66v-407h-55l-10 79h-2
c-6 -13.333 -14.667 -26.833 -26 -40.5s-26.5 -25 -45.5 -34s-42.5 -13.5 -70.5 -13.5zM206 48.001c41.333 0 71.168 13.667 89.501 41s27.5 64 27.5 110c0 49.333 -9.5 87 -28.5 113s-48.5 39 -88.5 39c-44 0 -75.5 -14.5 -94.5 -43.5s-28.5 -64.833 -28.5 -107.5
c0 -44.667 9.66699 -81.167 29 -109.5s50.666 -42.5 93.999 -42.5zM84.002 462.001v8l109 103h29l109 -103v-8h-60l-62 67h-3l-60 -67h-62z" />
    <glyph glyph-name="atilde" unicode="&#xe3;" horiz-adv-x="427" 
d="M181 -9c-37.333 0 -68 9.16797 -92 27.501s-41.833 43.166 -53.5 74.499s-17.5 67 -17.5 107c0 61.333 13.5 111.833 40.5 151.5s67.833 59.5 122.5 59.5c28 0 51.5 -4.83301 70.5 -14.5s34.333 -21.5 46 -35.5s20.167 -27.333 25.5 -40h1v86h66v-407h-55l-10 79h-2
c-6 -13.333 -14.667 -26.833 -26 -40.5s-26.5 -25 -45.5 -34s-42.5 -13.5 -70.5 -13.5zM206 48.001c41.333 0 71.168 13.667 89.501 41s27.5 64 27.5 110c0 49.333 -9.5 87 -28.5 113s-48.5 39 -88.5 39c-44 0 -75.5 -14.5 -94.5 -43.5s-28.5 -64.833 -28.5 -107.5
c0 -44.667 9.66699 -81.167 29 -109.5s50.666 -42.5 93.999 -42.5zM262.002 470.001c-15.333 0 -27.498 2.82812 -36.498 8.49512s-16.667 12 -23 19s-12.5 13.333 -18.5 19s-13.667 8.5 -23 8.5c-11.333 0 -18.166 -4.66699 -20.499 -14s-3.5 -22.333 -3.5 -39h-42
c-0.666992 12.667 0.166016 26.334 2.49902 41.001s8 26.834 17 36.501s23.5 14.5 43.5 14.5c15.333 0 27.666 -2.66699 36.999 -8s17 -11.666 23 -18.999s12.167 -13.666 18.5 -18.999s14.166 -8 23.499 -8c11.333 0 18 4.66699 20 14s3 22.666 3 39.999h43
c0.666992 -15.333 -0.5 -30.166 -3.5 -44.499s-9 -26.166 -18 -35.499s-23.167 -14 -42.5 -14z" />
    <glyph glyph-name="adieresis" unicode="&#xe4;" horiz-adv-x="480" 
d="M146 456c-18.667 0 -31.334 4.83301 -38.001 14.5s-10 20.834 -10 33.501c0 12 3.33301 22.833 10 32.5s19.334 14.5 38.001 14.5c19.333 0 32 -4.83301 38 -14.5s9 -20.5 9 -32.5c0 -12.667 -3 -23.834 -9 -33.501s-18.667 -14.5 -38 -14.5zM303 456
c-19.333 0 -32.166 4.83301 -38.499 14.5s-9.5 20.834 -9.5 33.501c0 12 3.16699 22.833 9.5 32.5s19.166 14.5 38.499 14.5c18.667 0 31 -4.83301 37 -14.5s9 -20.5 9 -32.5c0 -12.667 -3 -23.834 -9 -33.501s-18.333 -14.5 -37 -14.5zM201 -9
c-39.333 0 -72.333 9.49902 -99 28.499s-46.5 44.667 -59.5 77s-19.5 67.5 -19.5 105.5c0 40 6.66699 75.833 20 107.5s33.333 57 60 76s59.334 28.5 98.001 28.5c34.667 0 64.167 -7.33301 88.5 -22s43.5 -33.667 57.5 -57v72h65v-313c0 -20.667 3.33301 -34.667 10 -42
s14.667 -10.666 24 -9.99902s17.666 3 24.999 7l5 -39c-1.33301 -0.666992 -7 -4 -17 -10s-24.333 -9 -43 -9c-26 0 -44 8.33301 -54 25s-15 36.334 -15 59.001c-14 -24.667 -33 -44.834 -57 -60.501s-53.667 -23.5 -89 -23.5zM219 44.999c42 0 73.333 14.5 94 43.5
s31 67.167 31 114.5s-10.5 85.5 -31.5 114.5s-52.167 43.5 -93.5 43.5c-46.667 0 -80.167 -15.333 -100.5 -46s-30.5 -68 -30.5 -112c0 -45.333 10.5 -83 31.5 -113s54.167 -45 99.5 -45z" />
    <glyph glyph-name="aring" unicode="&#xe5;" horiz-adv-x="427" 
d="M181 -9c-37.333 0 -68 9.16797 -92 27.501s-41.833 43.166 -53.5 74.499s-17.5 67 -17.5 107c0 61.333 13.5 111.833 40.5 151.5s67.833 59.5 122.5 59.5c28 0 51.5 -4.83301 70.5 -14.5s34.333 -21.5 46 -35.5s20.167 -27.333 25.5 -40h1v86h66v-407h-55l-10 79h-2
c-6 -13.333 -14.667 -26.833 -26 -40.5s-26.5 -25 -45.5 -34s-42.5 -13.5 -70.5 -13.5zM206 48.001c41.333 0 71.168 13.667 89.501 41s27.5 64 27.5 110c0 49.333 -9.5 87 -28.5 113s-48.5 39 -88.5 39c-44 0 -75.5 -14.5 -94.5 -43.5s-28.5 -64.833 -28.5 -107.5
c0 -44.667 9.66699 -81.167 29 -109.5s50.666 -42.5 93.999 -42.5zM208.002 467.001c-29.333 0 -51.833 8.16797 -67.5 24.501s-23.5 38.166 -23.5 65.499s7.66699 49.333 23 66s38 25 68 25c28.667 0 51.167 -8.33301 67.5 -25s24.5 -38.667 24.5 -66
c0 -26 -8.16699 -47.5 -24.5 -64.5s-38.833 -25.5 -67.5 -25.5zM207.002 507.002c16.667 0 29.5 5.00098 38.5 15.001s13.5 22 13.5 36c0 14.667 -4.5 27.167 -13.5 37.5s-21.833 15.5 -38.5 15.5s-29.5 -5.16699 -38.5 -15.5s-13.5 -22.833 -13.5 -37.5
s4.83301 -26.834 14.5 -36.501s22.167 -14.5 37.5 -14.5z" />
    <glyph glyph-name="ae" unicode="&#xe6;" horiz-adv-x="731" 
d="M148 0c-36.667 0 -66.0029 9.49609 -88.0029 28.4961s-33 44.5 -33 76.5c0 30 9 53.333 27 70s41 29.334 69 38.001s56 16 84 22c30 6.66699 52.5 12.334 67.5 17.001s25.167 9.83398 30.5 15.501s8 13.167 8 22.5c0 24.667 -9.83301 43.834 -29.5 57.501
s-42.5 20.5 -68.5 20.5c-16 0 -32 -3 -48 -9s-29.5 -15.5 -40.5 -28.5s-16.833 -29.833 -17.5 -50.5h-61c2.66699 32 12.5 58.167 29.5 78.5s37.833 35.166 62.5 44.499s50.334 14 77.001 14c30 0 58.333 -6.33301 85 -19s45 -32 55 -58
c14.667 22.667 34.834 41.334 60.501 56.001s56.834 22 93.501 22c33.333 0 63.333 -7.83301 90 -23.5s48.167 -37.5 64.5 -65.5s25.5 -60.333 27.5 -97v-25h-317c0 -46 11.667 -82.5 35 -109.5s56.333 -40.5 99 -40.5c32 0 58.833 8 80.5 24s35.5 38 41.5 66l62 -9
c-10 -40 -30.833 -73 -62.5 -99s-72.167 -39 -121.5 -39c-36.667 0 -68 7 -94 21s-47 32.5 -63 55.5s-27 48.167 -33 75.5c-2.66699 -24 -11.167 -47.833 -25.5 -71.5s-33.833 -43 -58.5 -58s-54 -22.5 -88 -22.5zM377.997 245.996h250.002c0 10.667 -2 23 -6 37
s-10.5 27.5 -19.5 40.5s-21.167 24 -36.5 33s-34.333 13.5 -57 13.5c-28 0 -51.333 -6.16699 -70 -18.5s-32.834 -28 -42.501 -47s-15.834 -38.5 -18.501 -58.5zM167.999 49.9961c30.667 0.666992 56.666 9.66699 77.999 27s37.5 40.166 48.5 68.499s16.5 58.833 16.5 91.5
c-7.33301 -6 -19 -11.167 -35 -15.5s-32.667 -8.5 -50 -12.5c-24 -6 -46.333 -12.667 -67 -20s-37.167 -17.166 -49.5 -29.499s-18.166 -28.5 -17.499 -48.5c0 -20 7.33301 -35.333 22 -46s32.667 -15.667 54 -15z" />
    <glyph glyph-name="ccedilla" unicode="&#xe7;" horiz-adv-x="452" 
d="M225 -10c-38 0 -72.001 8 -102.001 24s-53.667 39.333 -71 70s-26 67.667 -26 111c1.33301 42.667 10.5 80 27.5 112s40.5 56.833 70.5 74.5s64.333 26.5 103 26.5c36 0 67.333 -6.66699 94 -20s48 -31.333 64 -54s26 -47.667 30 -75h-59
c-6.66699 29.333 -21.167 52 -43.5 68s-50.166 24 -83.499 24c-42.667 0 -76.5 -14.167 -101.5 -42.5s-37.833 -65.166 -38.5 -110.499c0 -46 12.167 -82.5 36.5 -109.5s58.5 -40.5 102.5 -40.5c32 0 59.667 8 83 24s38.333 39 45 69h59c-4 -28 -14.167 -53.333 -30.5 -76
s-38 -40.834 -65 -54.501s-58.5 -20.5 -94.5 -20.5zM124.999 -127l22.999 32.9971c8.66699 -9.33301 20.334 -16.666 35.001 -21.999s29.667 -8.16602 45 -8.49902s28 2.5 38 8.5s14.667 15.333 14 28c-0.666992 12 -6.33398 20 -17.001 24s-23.167 4.5 -37.5 1.5
s-26.833 -8.83301 -37.5 -17.5l-29 19l40 83l34 -14l-40 -62c9.33301 8.66699 21.333 15 36 19s29.334 5 44.001 3s27.167 -7.66699 37.5 -17s15.5 -22.666 15.5 -39.999c0 -20 -6.83301 -36.167 -20.5 -48.5s-31 -20.5 -52 -24.5s-43 -3.16699 -66 2.5
s-43.833 16.5 -62.5 32.5z" />
    <glyph glyph-name="egrave" unicode="&#xe8;" horiz-adv-x="451" 
d="M223 -10c-44.667 0 -81.4971 10.167 -110.497 30.5s-50.333 46.666 -64 78.999s-20.5 65.833 -20.5 100.5c0 38 7.5 72.833 22.5 104.5s37 56.834 66 75.501s63.833 28 104.5 28c52 0 95.333 -16.833 130 -50.5s53.334 -78.834 56.001 -135.501
c0.666992 -2.66699 1 -6.5 1 -11.5v-13.5h-318c0 -47.333 11.5 -84.5 34.5 -111.5s55.5 -40.5 97.5 -40.5c31.333 0 58.166 8 80.499 24s36.166 37.667 41.499 65h63c-6.66699 -41.333 -26.334 -75.666 -59.001 -102.999s-74.334 -41 -125.001 -41zM92.0029 232
l250.002 0.000976562c0 14 -3.83301 30.667 -11.5 50s-20.334 36.166 -38.001 50.499s-41.834 21.5 -72.501 21.5c-28 0 -51 -6 -69 -18s-31.667 -27.333 -41 -46s-15.333 -38 -18 -58zM204.005 450.001l-78 98v15h59l51 -103v-10h-32z" />
    <glyph glyph-name="eacute" unicode="&#xe9;" horiz-adv-x="451" 
d="M223 -10c-44.667 0 -81.4971 10.167 -110.497 30.5s-50.333 46.666 -64 78.999s-20.5 65.833 -20.5 100.5c0 38 7.5 72.833 22.5 104.5s37 56.834 66 75.501s63.833 28 104.5 28c52 0 95.333 -16.833 130 -50.5s53.334 -78.834 56.001 -135.501
c0.666992 -2.66699 1 -6.5 1 -11.5v-13.5h-318c0 -47.333 11.5 -84.5 34.5 -111.5s55.5 -40.5 97.5 -40.5c31.333 0 58.166 8 80.499 24s36.166 37.667 41.499 65h63c-6.66699 -41.333 -26.334 -75.666 -59.001 -102.999s-74.334 -41 -125.001 -41zM92.0029 232
l250.002 0.000976562c0 14 -3.83301 30.667 -11.5 50s-20.334 36.166 -38.001 50.499s-41.834 21.5 -72.501 21.5c-28 0 -51 -6 -69 -18s-31.667 -27.333 -41 -46s-15.333 -38 -18 -58zM228.005 450.001h-32v10l51 103h59v-15z" />
    <glyph glyph-name="ecircumflex" unicode="&#xea;" horiz-adv-x="451" 
d="M223 -10c-44.667 0 -81.4971 10.167 -110.497 30.5s-50.333 46.666 -64 78.999s-20.5 65.833 -20.5 100.5c0 38 7.5 72.833 22.5 104.5s37 56.834 66 75.501s63.833 28 104.5 28c52 0 95.333 -16.833 130 -50.5s53.334 -78.834 56.001 -135.501
c0.666992 -2.66699 1 -6.5 1 -11.5v-13.5h-318c0 -47.333 11.5 -84.5 34.5 -111.5s55.5 -40.5 97.5 -40.5c31.333 0 58.166 8 80.499 24s36.166 37.667 41.499 65h63c-6.66699 -41.333 -26.334 -75.666 -59.001 -102.999s-74.334 -41 -125.001 -41zM92.0029 232
l250.002 0.000976562c0 14 -3.83301 30.667 -11.5 50s-20.334 36.166 -38.001 50.499s-41.834 21.5 -72.501 21.5c-28 0 -51 -6 -69 -18s-31.667 -27.333 -41 -46s-15.333 -38 -18 -58zM95.0049 459.001v8l109 103h29l109 -103v-8h-60l-62 67h-3l-60 -67h-62z" />
    <glyph glyph-name="edieresis" unicode="&#xeb;" horiz-adv-x="451" 
d="M223 -10c-44.667 0 -81.4971 10.167 -110.497 30.5s-50.333 46.666 -64 78.999s-20.5 65.833 -20.5 100.5c0 38 7.5 72.833 22.5 104.5s37 56.834 66 75.501s63.833 28 104.5 28c52 0 95.333 -16.833 130 -50.5s53.334 -78.834 56.001 -135.501
c0.666992 -2.66699 1 -6.5 1 -11.5v-13.5h-318c0 -47.333 11.5 -84.5 34.5 -111.5s55.5 -40.5 97.5 -40.5c31.333 0 58.166 8 80.499 24s36.166 37.667 41.499 65h63c-6.66699 -41.333 -26.334 -75.666 -59.001 -102.999s-74.334 -41 -125.001 -41zM92.0029 232
l250.002 0.000976562c0 14 -3.83301 30.667 -11.5 50s-20.334 36.166 -38.001 50.499s-41.834 21.5 -72.501 21.5c-28 0 -51 -6 -69 -18s-31.667 -27.333 -41 -46s-15.333 -38 -18 -58zM141.005 456.001c-18.667 0 -31.334 4.83301 -38.001 14.5s-10 20.834 -10 33.501
c0 12 3.33301 22.833 10 32.5s19.334 14.5 38.001 14.5c19.333 0 32 -4.83301 38 -14.5s9 -20.5 9 -32.5c0 -12.667 -3 -23.834 -9 -33.501s-18.667 -14.5 -38 -14.5zM298.005 456.001c-19.333 0 -32.166 4.83301 -38.499 14.5s-9.5 20.834 -9.5 33.501
c0 12 3.16699 22.833 9.5 32.5s19.166 14.5 38.499 14.5c18.667 0 31 -4.83301 37 -14.5s9 -20.5 9 -32.5c0 -12.667 -3 -23.834 -9 -33.501s-18.333 -14.5 -37 -14.5z" />
    <glyph glyph-name="igrave" unicode="&#xec;" horiz-adv-x="174" 
d="M72 455l-78 98v15h58l51 -103v-10h-31zM55 0v407h64v-407h-64z" />
    <glyph glyph-name="iacute" unicode="&#xed;" horiz-adv-x="167" 
d="M90 458h-31v9l51 103h58v-14zM43 0v408h64v-408h-64z" />
    <glyph glyph-name="icircumflex" unicode="&#xee;" horiz-adv-x="203" 
d="M-25 459v8l109 103h28l110 -103v-8h-61l-61 67h-4l-59 -67h-62zM67 0v408h64v-408h-64z" />
    <glyph glyph-name="idieresis" unicode="&#xef;" horiz-adv-x="225" 
d="M30 456c-19.333 0 -32.166 4.83301 -38.499 14.5s-9.5 20.834 -9.5 33.501c0 12 3.16699 22.833 9.5 32.5s19.166 14.5 38.499 14.5c18.667 0 31 -4.83301 37 -14.5s9 -20.5 9 -32.5c0 -12.667 -3 -23.834 -9 -33.501s-18.333 -14.5 -37 -14.5zM186 456
c-18.667 0 -31.334 4.83301 -38.001 14.5s-10 20.834 -10 33.501c0 12 3.33301 22.833 10 32.5s19.334 14.5 38.001 14.5c19.333 0 32 -4.83301 38 -14.5s9 -20.5 9 -32.5c0 -12.667 -3 -23.834 -9 -33.501s-18.667 -14.5 -38 -14.5zM76 0v408h64v-408h-64z" />
    <glyph glyph-name="eth" unicode="&#xf0;" horiz-adv-x="494" 
d="M249 -10c-44.667 0 -82.3281 9.66699 -112.995 29s-54 44 -70 74s-24.833 62 -26.5 96s3.66602 66.167 15.999 96.5s31.833 55.166 58.5 74.499s60 29 100 29c27.333 0 51.166 -4.66699 71.499 -14s37.666 -21 51.999 -35s26 -27.833 35 -41.5s15.5 -25.167 19.5 -34.5
l6 -14h1c-5.33301 36.667 -18.5 73.5 -39.5 110.5s-44.5 69.833 -70.5 98.5l-59 -36l-25 27l58 35c-31.333 30 -60.333 49.667 -87 59l41 55c21.333 -9.33301 41.166 -20.333 59.499 -33s35.5 -26.667 51.5 -42l72 44l25 -27l-72 -44c30.667 -36.667 54.5 -77.5 71.5 -122.5
s26.5 -90.167 28.5 -135.5s-4 -86.666 -18 -123.999s-36.333 -67.5 -67 -90.5s-70.334 -34.5 -119.001 -34.5zM397.006 164c-0.666992 35.333 -8.33398 65.501 -23.001 90.501s-33.5 44.333 -56.5 58s-47.333 21.5 -73 23.5s-49.667 -1.83301 -72 -11.5
s-40.166 -25.334 -53.499 -47.001s-19.333 -49.5 -18 -83.5c2 -36 12.167 -65.833 30.5 -89.5s40.833 -40.5 67.5 -50.5s54 -13 82 -9s52.667 15.833 74 35.5s35.333 47.5 42 83.5z" />
    <glyph glyph-name="ntilde" unicode="&#xf1;" horiz-adv-x="446" 
d="M38 0l0.000976562 407h55l11 -101h2c0.666992 3.33301 3.66699 10.333 9 21s13.5 22.167 24.5 34.5s25.5 23 43.5 32s41 13.5 69 13.5c35.333 0 63.166 -6.33301 83.499 -19s35.5 -29.5 45.5 -50.5s16.333 -43.5 19 -67.5s4 -47 4 -69v-201h-62v201
c0 44 -7.5 79.667 -22.5 107s-44.5 41 -88.5 41c-30 0 -54.5 -7.16699 -73.5 -21.5s-32.667 -33.333 -41 -57s-12.5 -49.5 -12.5 -77.5v-193h-66zM286.001 470c-15.333 0 -27.498 2.82812 -36.498 8.49512s-16.667 12 -23 19s-12.5 13.333 -18.5 19s-13.667 8.5 -23 8.5
c-11.333 0 -18.166 -4.66699 -20.499 -14s-3.5 -22.333 -3.5 -39h-42c-0.666992 12.667 0.166016 26.334 2.49902 41.001s8 26.834 17 36.501s23.5 14.5 43.5 14.5c15.333 0 27.666 -2.66699 36.999 -8s17 -11.666 23 -18.999s12.167 -13.666 18.5 -18.999
s14.166 -8 23.499 -8c11.333 0 18 4.66699 20 14s3 22.666 3 39.999h43c0.666992 -15.333 -0.5 -30.166 -3.5 -44.499s-9 -26.166 -18 -35.499s-23.167 -14 -42.5 -14z" />
    <glyph glyph-name="ograve" unicode="&#xf2;" 
d="M222 -10c-65.333 0 -114.166 19.4971 -146.499 58.4971s-48.5 88.833 -48.5 149.5c-0.666992 61.333 15.5 111.5 48.5 150.5s81.833 58.833 146.5 59.5c64 0 112.5 -19.167 145.5 -57.5s49.5 -89.166 49.5 -152.499c0 -39.333 -7 -74.666 -21 -105.999
s-35.333 -56.166 -64 -74.499s-65.334 -27.5 -110.001 -27.5zM222 45.9971c34.667 0 61.5 7.66699 80.5 23s32.333 34.833 40 58.5s11.5 47.834 11.5 72.501s-3.83301 49 -11.5 73s-21 43.667 -40 59s-45.833 23 -80.5 23s-61.5 -7.66699 -80.5 -23s-32.333 -35 -40 -59
s-11.5 -48.333 -11.5 -73s3.83301 -48.834 11.5 -72.501s21 -43.167 40 -58.5s45.833 -23 80.5 -23zM204 449.997l-78 98v15h59l51 -103v-10h-32z" />
    <glyph glyph-name="oacute" unicode="&#xf3;" 
d="M222 -10c-65.333 0 -114.166 19.4971 -146.499 58.4971s-48.5 88.833 -48.5 149.5c-0.666992 61.333 15.5 111.5 48.5 150.5s81.833 58.833 146.5 59.5c64 0 112.5 -19.167 145.5 -57.5s49.5 -89.166 49.5 -152.499c0 -39.333 -7 -74.666 -21 -105.999
s-35.333 -56.166 -64 -74.499s-65.334 -27.5 -110.001 -27.5zM222 45.9971c34.667 0 61.5 7.66699 80.5 23s32.333 34.833 40 58.5s11.5 47.834 11.5 72.501s-3.83301 49 -11.5 73s-21 43.667 -40 59s-45.833 23 -80.5 23s-61.5 -7.66699 -80.5 -23s-32.333 -35 -40 -59
s-11.5 -48.333 -11.5 -73s3.83301 -48.834 11.5 -72.501s21 -43.167 40 -58.5s45.833 -23 80.5 -23zM228 449.997h-32v10l51 103h59v-15z" />
    <glyph glyph-name="ocircumflex" unicode="&#xf4;" 
d="M222 -10c-65.333 0 -114.166 19.4971 -146.499 58.4971s-48.5 88.833 -48.5 149.5c-0.666992 61.333 15.5 111.5 48.5 150.5s81.833 58.833 146.5 59.5c64 0 112.5 -19.167 145.5 -57.5s49.5 -89.166 49.5 -152.499c0 -39.333 -7 -74.666 -21 -105.999
s-35.333 -56.166 -64 -74.499s-65.334 -27.5 -110.001 -27.5zM222 45.9971c34.667 0 61.5 7.66699 80.5 23s32.333 34.833 40 58.5s11.5 47.834 11.5 72.501s-3.83301 49 -11.5 73s-21 43.667 -40 59s-45.833 23 -80.5 23s-61.5 -7.66699 -80.5 -23s-32.333 -35 -40 -59
s-11.5 -48.333 -11.5 -73s3.83301 -48.834 11.5 -72.501s21 -43.167 40 -58.5s45.833 -23 80.5 -23zM95 458.997v8l109 103h29l109 -103v-8h-60l-62 67h-3l-60 -67h-62z" />
    <glyph glyph-name="otilde" unicode="&#xf5;" 
d="M222 -10c-65.333 0 -114.166 19.4971 -146.499 58.4971s-48.5 88.833 -48.5 149.5c-0.666992 61.333 15.5 111.5 48.5 150.5s81.833 58.833 146.5 59.5c64 0 112.5 -19.167 145.5 -57.5s49.5 -89.166 49.5 -152.499c0 -39.333 -7 -74.666 -21 -105.999
s-35.333 -56.166 -64 -74.499s-65.334 -27.5 -110.001 -27.5zM222 45.9971c34.667 0 61.5 7.66699 80.5 23s32.333 34.833 40 58.5s11.5 47.834 11.5 72.501s-3.83301 49 -11.5 73s-21 43.667 -40 59s-45.833 23 -80.5 23s-61.5 -7.66699 -80.5 -23s-32.333 -35 -40 -59
s-11.5 -48.333 -11.5 -73s3.83301 -48.834 11.5 -72.501s21 -43.167 40 -58.5s45.833 -23 80.5 -23zM273 469.997c-15.333 0 -27.498 2.82812 -36.498 8.49512s-16.667 12 -23 19s-12.5 13.333 -18.5 19s-13.667 8.5 -23 8.5c-11.333 0 -18.166 -4.66699 -20.499 -14
s-3.5 -22.333 -3.5 -39h-42c-0.666992 12.667 0.166016 26.334 2.49902 41.001s8 26.834 17 36.501s23.5 14.5 43.5 14.5c15.333 0 27.666 -2.66699 36.999 -8s17 -11.666 23 -18.999s12.167 -13.666 18.5 -18.999s14.166 -8 23.499 -8c11.333 0 18 4.66699 20 14
s3 22.666 3 39.999h43c0.666992 -15.333 -0.5 -30.166 -3.5 -44.499s-9 -26.166 -18 -35.499s-23.167 -14 -42.5 -14z" />
    <glyph glyph-name="odieresis" unicode="&#xf6;" 
d="M222 -10c-65.333 0 -114.166 19.4971 -146.499 58.4971s-48.5 88.833 -48.5 149.5c-0.666992 61.333 15.5 111.5 48.5 150.5s81.833 58.833 146.5 59.5c64 0 112.5 -19.167 145.5 -57.5s49.5 -89.166 49.5 -152.499c0 -39.333 -7 -74.666 -21 -105.999
s-35.333 -56.166 -64 -74.499s-65.334 -27.5 -110.001 -27.5zM222 45.9971c34.667 0 61.5 7.66699 80.5 23s32.333 34.833 40 58.5s11.5 47.834 11.5 72.501s-3.83301 49 -11.5 73s-21 43.667 -40 59s-45.833 23 -80.5 23s-61.5 -7.66699 -80.5 -23s-32.333 -35 -40 -59
s-11.5 -48.333 -11.5 -73s3.83301 -48.834 11.5 -72.501s21 -43.167 40 -58.5s45.833 -23 80.5 -23zM141 455.997c-18.667 0 -31.334 4.83301 -38.001 14.5s-10 20.834 -10 33.501c0 12 3.33301 22.833 10 32.5s19.334 14.5 38.001 14.5c19.333 0 32 -4.83301 38 -14.5
s9 -20.5 9 -32.5c0 -12.667 -3 -23.834 -9 -33.501s-18.667 -14.5 -38 -14.5zM298 455.997c-19.333 0 -32.166 4.83301 -38.499 14.5s-9.5 20.834 -9.5 33.501c0 12 3.16699 22.833 9.5 32.5s19.166 14.5 38.499 14.5c18.667 0 31 -4.83301 37 -14.5s9 -20.5 9 -32.5
c0 -12.667 -3 -23.834 -9 -33.501s-18.333 -14.5 -37 -14.5z" />
    <glyph glyph-name="divide" unicode="&#xf7;" horiz-adv-x="317" 
d="M151 285c-10.667 0 -18.833 3.33203 -24.5 9.99902s-8.5 15.334 -8.5 26.001c-0.666992 10.667 2 19.334 8 26.001s14.333 10 25 10c11.333 0 20 -3.33301 26 -10s9 -15.334 9 -26.001c0 -10 -2.83301 -18.5 -8.5 -25.5s-14.5 -10.5 -26.5 -10.5zM40.001 199.999v49h222
v-49h-222zM151.001 90.999c-10.667 0 -18.833 3.33203 -24.5 9.99902s-8.5 15.334 -8.5 26.001c-0.666992 10.667 2 19.334 8 26.001s14.333 10 25 10c11.333 0 20 -3.33301 26 -10s9 -15.334 9 -26.001c0 -10 -2.83301 -18.5 -8.5 -25.5s-14.5 -10.5 -26.5 -10.5z" />
    <glyph glyph-name="oslash" unicode="&#xf8;" horiz-adv-x="451" 
d="M59 -24l33.999 54.9971c-22 18.667 -38.5 42.334 -49.5 71.001s-16.5 60.667 -16.5 96c-0.666992 61.333 15.5 111.5 48.5 150.5s81.833 58.833 146.5 59.5c36.667 0 68.334 -6.66699 95.001 -20l35 55l24 -14l-35 -55c25.333 -18 44.333 -42 57 -72s19 -64.667 19 -104
s-7 -74.666 -21 -105.999s-35.333 -56.166 -64 -74.499s-65.334 -27.5 -110.001 -27.5c-41.333 0 -76.666 8.66699 -105.999 26l-33 -53zM89.999 199.997c0 -21.333 2.66797 -42.332 8.00098 -62.999s14.666 -38.334 27.999 -53.001l162 257
c-18.667 9.33301 -40.667 14 -66 14c-34.667 0 -61.5 -7.66699 -80.5 -23s-32.333 -35 -40 -59s-11.5 -48.333 -11.5 -73zM222 45.998c34.667 0 61.501 7.66797 80.501 23.001s32.333 34.833 40 58.5s11.5 47.834 11.5 72.501c0 23.333 -3.16699 46.166 -9.5 68.499
s-17.833 41.166 -34.5 56.499l-163 -259c10 -6.66699 21.167 -11.667 33.5 -15s26.166 -5 41.499 -5z" />
    <glyph glyph-name="ugrave" unicode="&#xf9;" horiz-adv-x="445" 
d="M189 -10c-33.333 0 -60.1621 6.00195 -80.4951 18.002s-35.833 28.167 -46.5 48.5s-17.834 42.666 -21.501 66.999s-5.5 48.833 -5.5 73.5v210h64v-211c0 -26.667 2.66699 -51.334 8 -74.001s16.166 -40.667 32.499 -54s40.166 -20 71.499 -20
c30 0 53.5 6.83301 70.5 20.5s29.5 31.5 37.5 53.5s12.667 45 14 69v216h66v-407h-55l-11 91h-2c-3.33301 -11.333 -10.333 -25 -21 -41s-25.834 -30 -45.501 -42s-44.834 -18 -75.501 -18zM199.004 455.002l-78 98v15h59l51 -103v-10h-32z" />
    <glyph glyph-name="uacute" unicode="&#xfa;" horiz-adv-x="445" 
d="M189 -10c-33.333 0 -60.1621 6.00195 -80.4951 18.002s-35.833 28.167 -46.5 48.5s-17.834 42.666 -21.501 66.999s-5.5 48.833 -5.5 73.5v210h64v-211c0 -26.667 2.66699 -51.334 8 -74.001s16.166 -40.667 32.499 -54s40.166 -20 71.499 -20
c30 0 53.5 6.83301 70.5 20.5s29.5 31.5 37.5 53.5s12.667 45 14 69v216h66v-407h-55l-11 91h-2c-3.33301 -11.333 -10.333 -25 -21 -41s-25.834 -30 -45.501 -42s-44.834 -18 -75.501 -18zM228.004 458.002h-32v10l51 103h59v-15z" />
    <glyph glyph-name="ucircumflex" unicode="&#xfb;" horiz-adv-x="445" 
d="M189 -10c-33.333 0 -60.1621 6.00195 -80.4951 18.002s-35.833 28.167 -46.5 48.5s-17.834 42.666 -21.501 66.999s-5.5 48.833 -5.5 73.5v210h64v-211c0 -26.667 2.66699 -51.334 8 -74.001s16.166 -40.667 32.499 -54s40.166 -20 71.499 -20
c30 0 53.5 6.83301 70.5 20.5s29.5 31.5 37.5 53.5s12.667 45 14 69v216h66v-407h-55l-11 91h-2c-3.33301 -11.333 -10.333 -25 -21 -41s-25.834 -30 -45.501 -42s-44.834 -18 -75.501 -18zM92.0039 459.002v8l109 103h29l109 -103v-8h-60l-62 67h-3l-60 -67h-62z" />
    <glyph glyph-name="udieresis" unicode="&#xfc;" horiz-adv-x="445" 
d="M189 -10c-33.333 0 -60.1621 6.00195 -80.4951 18.002s-35.833 28.167 -46.5 48.5s-17.834 42.666 -21.501 66.999s-5.5 48.833 -5.5 73.5v210h64v-211c0 -26.667 2.66699 -51.334 8 -74.001s16.166 -40.667 32.499 -54s40.166 -20 71.499 -20
c30 0 53.5 6.83301 70.5 20.5s29.5 31.5 37.5 53.5s12.667 45 14 69v216h66v-407h-55l-11 91h-2c-3.33301 -11.333 -10.333 -25 -21 -41s-25.834 -30 -45.501 -42s-44.834 -18 -75.501 -18zM138.004 456.002c-18.667 0 -31.334 4.83301 -38.001 14.5s-10 20.834 -10 33.501
c0 12 3.33301 22.833 10 32.5s19.334 14.5 38.001 14.5c19.333 0 32 -4.83301 38 -14.5s9 -20.5 9 -32.5c0 -12.667 -3 -23.834 -9 -33.501s-18.667 -14.5 -38 -14.5zM295.004 456.002c-19.333 0 -32.166 4.83301 -38.499 14.5s-9.5 20.834 -9.5 33.501
c0 12 3.16699 22.833 9.5 32.5s19.166 14.5 38.499 14.5c18.667 0 31 -4.83301 37 -14.5s9 -20.5 9 -32.5c0 -12.667 -3 -23.834 -9 -33.501s-18.333 -14.5 -37 -14.5z" />
    <glyph glyph-name="yacute" unicode="&#xfd;" horiz-adv-x="407" 
d="M-3 -182l-0.00195312 52h56c13.333 0 24.333 3.5 33 10.5s19.334 23.833 32.001 50.5l43 93l-160 383h67l125 -315l133 315h68l-218 -485c-13.333 -30 -25.166 -52.5 -35.499 -67.5s-21.833 -24.833 -34.5 -29.5s-28.667 -7 -48 -7h-61zM205.998 458h-32v10l51 103h59
v-15z" />
    <glyph glyph-name="thorn" unicode="&#xfe;" horiz-adv-x="475" 
d="M50 -199l-0.00195312 762.001h66v-270c1.33301 3.33301 4.83301 11 10.5 23s14.167 25 25.5 39s26.666 26.167 45.999 36.5s43 15.5 71 15.5c39.333 0 71.666 -10 96.999 -30s44.333 -45.667 57 -77s19 -64.333 19 -99s-6.16699 -68.167 -18.5 -100.5
s-31.166 -58.833 -56.499 -79.5s-57.666 -31 -96.999 -31c-26 0 -48.333 4.66699 -67 14s-34.167 20.666 -46.5 33.999s-21.666 25.5 -27.999 36.5s-10.166 18.167 -11.499 21.5v-295h-67zM245.998 45.001c30.667 0 55.167 7.50195 73.5 22.502s31.666 34.167 39.999 57.5
s12.5 47.666 12.5 72.999s-4.5 49.666 -13.5 72.999s-23.167 42.333 -42.5 57s-44 22 -74 22c-34.667 0 -63 -11.5 -85 -34.5s-35.667 -52.833 -41 -89.5l1 -57c4.66699 -36 18.334 -65.667 41.001 -89s52 -35 88 -35zM115.998 292.003v0zM114.998 198.003
c0 -8.66699 0.333008 -16.667 1 -24v48c-0.666992 -8 -1 -16 -1 -24zM115.998 97.0029v0.999023c0 0.666992 0 0.333984 0 -0.999023z" />
    <glyph glyph-name="ydieresis" unicode="&#xff;" horiz-adv-x="407" 
d="M-3 -182l-0.00195312 52h56c13.333 0 24.333 3.5 33 10.5s19.334 23.833 32.001 50.5l43 93l-160 383h67l125 -315l133 315h68l-218 -485c-13.333 -30 -25.166 -52.5 -35.499 -67.5s-21.833 -24.833 -34.5 -29.5s-28.667 -7 -48 -7h-61zM122.998 456
c-18.667 0 -31.334 4.83301 -38.001 14.5s-10 20.834 -10 33.501c0 12 3.33301 22.833 10 32.5s19.334 14.5 38.001 14.5c19.333 0 32 -4.83301 38 -14.5s9 -20.5 9 -32.5c0 -12.667 -3 -23.834 -9 -33.501s-18.667 -14.5 -38 -14.5zM279.998 456
c-19.333 0 -32.166 4.83301 -38.499 14.5s-9.5 20.834 -9.5 33.501c0 12 3.16699 22.833 9.5 32.5s19.166 14.5 38.499 14.5c18.667 0 31 -4.83301 37 -14.5s9 -20.5 9 -32.5c0 -12.667 -3 -23.834 -9 -33.501s-18.333 -14.5 -37 -14.5z" />
    <glyph glyph-name="Amacron" unicode="&#x100;" horiz-adv-x="600" 
d="M19 0l198 563h106l201 -563h-68l-61 176h-247l-61 -176h-68zM272 535l-106 -305h211zM148 620v49h249v-49h-249z" />
    <glyph glyph-name="amacron" unicode="&#x101;" horiz-adv-x="427" 
d="M181 -9c-37.333 0 -68 9.16797 -92 27.501s-41.833 43.166 -53.5 74.499s-17.5 67 -17.5 107c0 61.333 13.5 111.833 40.5 151.5s67.833 59.5 122.5 59.5c28 0 51.5 -4.83301 70.5 -14.5s34.333 -21.5 46 -35.5s20.167 -27.333 25.5 -40h1v86h66v-407h-55l-10 79h-2
c-6 -13.333 -14.667 -26.833 -26 -40.5s-26.5 -25 -45.5 -34s-42.5 -13.5 -70.5 -13.5zM206 48.001c41.333 0 71.168 13.667 89.501 41s27.5 64 27.5 110c0 49.333 -9.5 87 -28.5 113s-48.5 39 -88.5 39c-44 0 -75.5 -14.5 -94.5 -43.5s-28.5 -64.833 -28.5 -107.5
c0 -44.667 9.66699 -81.167 29 -109.5s50.666 -42.5 93.999 -42.5zM86.002 455.001v49h249v-49h-249z" />
    <glyph glyph-name="Abreve" unicode="&#x102;" horiz-adv-x="541" 
d="M19 0l198 563h106l201 -563h-68l-61 176h-247l-61 -176h-68zM272 535l-106 -305h211zM271 621c-36.667 0 -65.499 8.16699 -86.499 24.5s-31.5 38.166 -31.5 65.499h47c0 -20.667 7 -34 21 -40s30.333 -9 49 -9c19.333 0 35.666 3 48.999 9s20 19.333 20 40h48
c0 -27.333 -10.167 -49.166 -30.5 -65.499s-48.833 -24.5 -85.5 -24.5z" />
    <glyph glyph-name="abreve" unicode="&#x103;" horiz-adv-x="427" 
d="M181 -9c-37.333 0 -68 9.16797 -92 27.501s-41.833 43.166 -53.5 74.499s-17.5 67 -17.5 107c0 61.333 13.5 111.833 40.5 151.5s67.833 59.5 122.5 59.5c28 0 51.5 -4.83301 70.5 -14.5s34.333 -21.5 46 -35.5s20.167 -27.333 25.5 -40h1v86h66v-407h-55l-10 79h-2
c-6 -13.333 -14.667 -26.833 -26 -40.5s-26.5 -25 -45.5 -34s-42.5 -13.5 -70.5 -13.5zM206 48.001c41.333 0 71.168 13.667 89.501 41s27.5 64 27.5 110c0 49.333 -9.5 87 -28.5 113s-48.5 39 -88.5 39c-44 0 -75.5 -14.5 -94.5 -43.5s-28.5 -64.833 -28.5 -107.5
c0 -44.667 9.66699 -81.167 29 -109.5s50.666 -42.5 93.999 -42.5zM208.002 460.001c-36.667 0 -65.499 8.16699 -86.499 24.5s-31.5 38.166 -31.5 65.499h47c0 -20.667 7 -34 21 -40s30.333 -9 49 -9c19.333 0 35.666 3 48.999 9s20 19.333 20 40h48
c0 -27.333 -10.167 -49.166 -30.5 -65.499s-48.833 -24.5 -85.5 -24.5z" />
    <glyph glyph-name="Aogonek" unicode="&#x104;" horiz-adv-x="547" 
d="M19 0l198.002 563h106l191 -534h1l9 -29l-15 -7c-10 -4.66699 -21.5 -11.5 -34.5 -20.5s-24.5 -19.833 -34.5 -32.5s-15 -26.667 -15 -42c0 -12 3.66699 -21.833 11 -29.5s18 -11.5 32 -11.5c12 0 21.333 2.5 28 7.5s11.5 10.167 14.5 15.5l4.5 8l38 -31l-9.5 -12.5
c-6.33301 -8.33301 -16 -16.5 -29 -24.5s-29.833 -12 -50.5 -12c-24.667 0 -45.5 7.16699 -62.5 21.5s-25.5 34.5 -25.5 60.5c-0.666992 25.333 7.66602 47.333 24.999 66s35.666 33.667 54.999 45l-61 175h-247l-61 -176h-68zM272.002 535l-106 -305h211z" />
    <glyph glyph-name="aogonek" unicode="&#x105;" horiz-adv-x="427" 
d="M181 -9c-37.333 0 -68 9.16797 -92 27.501s-41.833 43.166 -53.5 74.499s-17.5 67 -17.5 107c0 61.333 13.5 111.833 40.5 151.5s67.833 59.5 122.5 59.5c28 0 51.5 -4.83301 70.5 -14.5s34.333 -21.5 46 -35.5s20.167 -27.333 25.5 -40h1v86h66v-407h-55l-10 79h-2
c-6 -13.333 -14.667 -26.833 -26 -40.5s-26.5 -25 -45.5 -34s-42.5 -13.5 -70.5 -13.5zM206 48.001c41.333 0 71.168 13.667 89.501 41s27.5 64 27.5 110c0 49.333 -9.5 87 -28.5 113s-48.5 39 -88.5 39c-44 0 -75.5 -14.5 -94.5 -43.5s-28.5 -64.833 -28.5 -107.5
c0 -44.667 9.66699 -81.167 29 -109.5s50.666 -42.5 93.999 -42.5zM342.002 -198.999c-24 0 -44.668 7.16406 -62.001 21.4971s-26 34.5 -26 60.5c0 22.667 6.83301 42.834 20.5 60.501s29.5 32.334 47.5 44.001s33.833 20.334 47.5 26.001l20.5 8.5v-29l-13 -7
c-8.66699 -4.66699 -18.667 -11.5 -30 -20.5s-21.333 -19.833 -30 -32.5s-13 -26.667 -13 -42c0 -12 3.66699 -21.833 11 -29.5s18 -11.5 32 -11.5c11.333 0 20.5 2.5 27.5 7.5s11.833 10.167 14.5 15.5l4 8l39 -31l-9.5 -12.5
c-6.33301 -8.33301 -16.166 -16.5 -29.499 -24.5s-30.333 -12 -51 -12z" />
    <glyph glyph-name="Cacute" unicode="&#x106;" horiz-adv-x="596" 
d="M299 -10c-52 0 -98.6699 10.835 -140.003 32.502s-74.166 54.167 -98.499 97.5s-36.166 96.666 -35.499 159.999c0 64 11.833 117.833 35.5 161.5s56.5 76.5 98.5 98.5s90 33 144 33c69.333 0 126 -18.5 170 -55.5s72 -87.833 84 -152.5h-67
c-8.66699 50.667 -30.667 88 -66 112s-75.666 36 -120.999 36c-66.667 0 -119 -19.833 -157 -59.5s-57 -96.167 -57 -169.5c0 -76.667 18.5 -134.834 55.5 -174.501s88.833 -59.5 155.5 -59.5c50 0 92.667 12.167 128 36.5s57 61.5 65 111.5h68
c-12 -64 -40.167 -114.667 -84.5 -152s-103.5 -56 -177.5 -56zM310.997 610.002h-32v10l51 103h59v-15z" />
    <glyph glyph-name="cacute" unicode="&#x107;" horiz-adv-x="452" 
d="M225 -10c-38 0 -72.001 8 -102.001 24s-53.667 39.333 -71 70s-26 67.667 -26 111c1.33301 42.667 10.5 80 27.5 112s40.5 56.833 70.5 74.5s64.333 26.5 103 26.5c36 0 67.333 -6.66699 94 -20s48 -31.333 64 -54s26 -47.667 30 -75h-59
c-6.66699 29.333 -21.167 52 -43.5 68s-50.166 24 -83.499 24c-42.667 0 -76.5 -14.167 -101.5 -42.5s-37.833 -65.166 -38.5 -110.499c0 -46 12.167 -82.5 36.5 -109.5s58.5 -40.5 102.5 -40.5c32 0 59.667 8 83 24s38.333 39 45 69h59c-4 -28 -14.167 -53.333 -30.5 -76
s-38 -40.834 -65 -54.501s-58.5 -20.5 -94.5 -20.5zM221.999 458h-32v10l51 103h59v-15z" />
    <glyph glyph-name="Cdotaccent" unicode="&#x10a;" horiz-adv-x="596" 
d="M299 -10c-52 0 -98.6699 10.835 -140.003 32.502s-74.166 54.167 -98.499 97.5s-36.166 96.666 -35.499 159.999c0 64 11.833 117.833 35.5 161.5s56.5 76.5 98.5 98.5s90 33 144 33c69.333 0 126 -18.5 170 -55.5s72 -87.833 84 -152.5h-67
c-8.66699 50.667 -30.667 88 -66 112s-75.666 36 -120.999 36c-66.667 0 -119 -19.833 -157 -59.5s-57 -96.167 -57 -169.5c0 -76.667 18.5 -134.834 55.5 -174.501s88.833 -59.5 155.5 -59.5c50 0 92.667 12.167 128 36.5s57 61.5 65 111.5h68
c-12 -64 -40.167 -114.667 -84.5 -152s-103.5 -56 -177.5 -56zM299.997 621.002c-18.667 0 -31.334 4.83301 -38.001 14.5s-10 20.834 -10 33.501s3.33301 23.667 10 33s19.334 14 38.001 14c19.333 0 32 -4.66699 38 -14s9 -20.333 9 -33s-3 -23.834 -9 -33.501
s-18.667 -14.5 -38 -14.5z" />
    <glyph glyph-name="cdotaccent" unicode="&#x10b;" horiz-adv-x="452" 
d="M225 -10c-38 0 -72.001 8 -102.001 24s-53.667 39.333 -71 70s-26 67.667 -26 111c1.33301 42.667 10.5 80 27.5 112s40.5 56.833 70.5 74.5s64.333 26.5 103 26.5c36 0 67.333 -6.66699 94 -20s48 -31.333 64 -54s26 -47.667 30 -75h-59
c-6.66699 29.333 -21.167 52 -43.5 68s-50.166 24 -83.499 24c-42.667 0 -76.5 -14.167 -101.5 -42.5s-37.833 -65.166 -38.5 -110.499c0 -46 12.167 -82.5 36.5 -109.5s58.5 -40.5 102.5 -40.5c32 0 59.667 8 83 24s38.333 39 45 69h59c-4 -28 -14.167 -53.333 -30.5 -76
s-38 -40.834 -65 -54.501s-58.5 -20.5 -94.5 -20.5zM221.999 456c-18.667 0 -31.334 4.83301 -38.001 14.5s-10 20.834 -10 33.501s3.33301 23.667 10 33s19.334 14 38.001 14c19.333 0 32 -4.66699 38 -14s9 -20.333 9 -33s-3 -23.834 -9 -33.501s-18.667 -14.5 -38 -14.5z
" />
    <glyph glyph-name="Ccaron" unicode="&#x10c;" horiz-adv-x="600" 
d="M299 -10c-52 0 -98.6699 10.835 -140.003 32.502s-74.166 54.167 -98.499 97.5s-36.166 96.666 -35.499 159.999c0 64 11.833 117.833 35.5 161.5s56.5 76.5 98.5 98.5s90 33 144 33c69.333 0 126 -18.5 170 -55.5s72 -87.833 84 -152.5h-67
c-8.66699 50.667 -30.667 88 -66 112s-75.666 36 -120.999 36c-66.667 0 -119 -19.833 -157 -59.5s-57 -96.167 -57 -169.5c0 -76.667 18.5 -134.834 55.5 -174.501s88.833 -59.5 155.5 -59.5c50 0 92.667 12.167 128 36.5s57 61.5 65 111.5h68
c-12 -64 -40.167 -114.667 -84.5 -152s-103.5 -56 -177.5 -56zM148.997 749.002h69l81 -103l82 103h68l-136 -136h-28z" />
    <glyph glyph-name="ccaron" unicode="&#x10d;" horiz-adv-x="452" 
d="M225 -10c-38 0 -72.001 8 -102.001 24s-53.667 39.333 -71 70s-26 67.667 -26 111c1.33301 42.667 10.5 80 27.5 112s40.5 56.833 70.5 74.5s64.333 26.5 103 26.5c36 0 67.333 -6.66699 94 -20s48 -31.333 64 -54s26 -47.667 30 -75h-59
c-6.66699 29.333 -21.167 52 -43.5 68s-50.166 24 -83.499 24c-42.667 0 -76.5 -14.167 -101.5 -42.5s-37.833 -65.166 -38.5 -110.499c0 -46 12.167 -82.5 36.5 -109.5s58.5 -40.5 102.5 -40.5c32 0 59.667 8 83 24s38.333 39 45 69h59c-4 -28 -14.167 -53.333 -30.5 -76
s-38 -40.834 -65 -54.501s-58.5 -20.5 -94.5 -20.5zM70.999 597h69l81 -103l82 103h68l-136 -136h-28z" />
    <glyph glyph-name="Dcaron" unicode="&#x10e;" horiz-adv-x="588" 
d="M554 282c0 -74 -14 -131.5 -42 -172.5s-67.333 -69.5 -118 -85.5s-110 -24 -178 -24h-149v563h149c68 0 127.333 -10.5 178 -31.5s90 -52.167 118 -93.5s42 -93.333 42 -156zM131 55l99 -0.00195312c52 0 97.167 5.83301 135.5 17.5s68 33.834 89 66.501
s31.5 80.334 31.5 143.001c0 76.667 -23.333 133.167 -70 169.5s-108.667 54.5 -186 54.5h-99v-451zM114 748.998h69l81 -103l82 103h68l-136 -136h-28z" />
    <glyph glyph-name="dcaron" unicode="&#x10f;" horiz-adv-x="541" 
d="M467 424l33 147h64l-60 -147h-37zM223 -10c-39.333 0 -72.1631 9.00098 -98.4961 27.001s-46 42.833 -59 74.5s-19.5 67.167 -19.5 106.5c0 60.667 15 110.667 45 150s74.333 59 133 59c27.333 0 50.166 -4.5 68.499 -13.5s33.166 -19.833 44.499 -32.5
s19.666 -24.334 24.999 -35.001s8.66602 -17.667 9.99902 -21h2l1 258h66v-563h-56l-10 90h-2c-1.33301 -3.33301 -5 -10.333 -11 -21s-14.833 -22 -26.5 -34s-26.667 -22.5 -45 -31.5s-40.833 -13.5 -67.5 -13.5zM239.003 47.001c39.333 0 71.498 13.5 96.498 40.5
s37.5 63.833 37.5 110.5c0 46 -11.667 82.5 -35 109.5s-54.666 40.5 -93.999 40.5c-31.333 0 -57 -7.16699 -77 -21.5s-34.667 -32.833 -44 -55.5s-14 -47 -14 -73c0 -25.333 4.33301 -49.5 13 -72.5s22.334 -41.833 41.001 -56.5s44 -22 76 -22z" />
    <glyph glyph-name="Dcroat" unicode="&#x110;" horiz-adv-x="600" 
d="M67 0v263h-67v47h67v253h149c68 0 127.333 -10.5 178 -31.5s90 -52.167 118 -93.5s42 -93.333 42 -156c0 -74 -14 -131.5 -42 -172.5s-67.333 -69.5 -118 -85.5s-110 -24 -178 -24h-149zM131 55l99 -0.00195312c52 0 97.167 5.83301 135.5 17.5s68 33.834 89 66.501
s31.5 80.334 31.5 143.001c0 76.667 -23.333 133.167 -70 169.5s-108.667 54.5 -186 54.5h-99v-196h169v-47h-169v-208z" />
    <glyph glyph-name="dcroat" unicode="&#x111;" horiz-adv-x="489" 
d="M222 -10c-40 0 -73.001 9.00098 -99.001 27.001s-45.667 42.833 -59 74.5s-20 67.167 -20 106.5c0 60.667 15.167 110.667 45.5 150s74.5 59 132.5 59c27.333 0 50.333 -4.5 69 -13.5s33.5 -19.833 44.5 -32.5s19.333 -24.334 25 -35.001s8.83398 -17.667 9.50098 -21h2
l1 160h-150v44h150v54h66v-54h33v-44h-33v-465h-55l-11 90h-2c-1.33301 -3.33301 -5 -10.333 -11 -21s-14.833 -22 -26.5 -34s-26.667 -22.5 -45 -31.5s-40.5 -13.5 -66.5 -13.5zM236.999 47.001c40 0 72.332 13.5 96.999 40.5s37 63.833 37 110.5
c0 46 -11.667 82.5 -35 109.5s-54.666 40.5 -93.999 40.5c-31.333 0 -56.833 -7.16699 -76.5 -21.5s-34.167 -32.833 -43.5 -55.5s-14 -47 -14 -73c0 -25.333 4.16699 -49.5 12.5 -72.5s22 -41.833 41 -56.5s44.167 -22 75.5 -22z" />
    <glyph glyph-name="Emacron" unicode="&#x112;" horiz-adv-x="479" 
d="M120 54h324v-54h-387v563h377v-57h-314v-194h249v-54h-249v-204zM119 620v49h249v-49h-249z" />
    <glyph glyph-name="emacron" unicode="&#x113;" horiz-adv-x="443" 
d="M223 -10c-44.667 0 -81.4971 10.167 -110.497 30.5s-50.333 46.666 -64 78.999s-20.5 65.833 -20.5 100.5c0 38 7.5 72.833 22.5 104.5s37 56.834 66 75.501s63.833 28 104.5 28c52 0 95.333 -16.833 130 -50.5s53.334 -78.834 56.001 -135.501
c0.666992 -2.66699 1 -6.5 1 -11.5v-13.5h-318c0 -47.333 11.5 -84.5 34.5 -111.5s55.5 -40.5 97.5 -40.5c31.333 0 58.166 8 80.499 24s36.166 37.667 41.499 65h63c-6.66699 -41.333 -26.334 -75.666 -59.001 -102.999s-74.334 -41 -125.001 -41zM92.0029 232
l250.002 0.000976562c0 14 -3.83301 30.667 -11.5 50s-20.334 36.166 -38.001 50.499s-41.834 21.5 -72.501 21.5c-28 0 -51 -6 -69 -18s-31.667 -27.333 -41 -46s-15.333 -38 -18 -58zM95.0049 466.001v49h249v-49h-249z" />
    <glyph glyph-name="Edotaccent" unicode="&#x116;" horiz-adv-x="479" 
d="M120 54h324v-54h-387v563h377v-57h-314v-194h249v-54h-249v-204zM247 621c-18.667 0 -31.334 4.83301 -38.001 14.5s-10 20.834 -10 33.501s3.33301 23.667 10 33s19.334 14 38.001 14c19.333 0 32 -4.66699 38 -14s9 -20.333 9 -33s-3 -23.834 -9 -33.501
s-18.667 -14.5 -38 -14.5z" />
    <glyph glyph-name="edotaccent" unicode="&#x117;" horiz-adv-x="451" 
d="M223 -10c-44.667 0 -81.4971 10.167 -110.497 30.5s-50.333 46.666 -64 78.999s-20.5 65.833 -20.5 100.5c0 38 7.5 72.833 22.5 104.5s37 56.834 66 75.501s63.833 28 104.5 28c52 0 95.333 -16.833 130 -50.5s53.334 -78.834 56.001 -135.501
c0.666992 -2.66699 1 -6.5 1 -11.5v-13.5h-318c0 -47.333 11.5 -84.5 34.5 -111.5s55.5 -40.5 97.5 -40.5c31.333 0 58.166 8 80.499 24s36.166 37.667 41.499 65h63c-6.66699 -41.333 -26.334 -75.666 -59.001 -102.999s-74.334 -41 -125.001 -41zM92.0029 232
l250.002 0.000976562c0 14 -3.83301 30.667 -11.5 50s-20.334 36.166 -38.001 50.499s-41.834 21.5 -72.501 21.5c-28 0 -51 -6 -69 -18s-31.667 -27.333 -41 -46s-15.333 -38 -18 -58zM218.005 456.001c-18.667 0 -31.334 4.83301 -38.001 14.5s-10 20.834 -10 33.501
s3.33301 23.667 10 33s19.334 14 38.001 14c19.333 0 32 -4.66699 38 -14s9 -20.333 9 -33s-3 -23.834 -9 -33.501s-18.667 -14.5 -38 -14.5z" />
    <glyph glyph-name="Eogonek" unicode="&#x118;" horiz-adv-x="479" 
d="M120 54l323.999 -0.000976562v-54l-14 -7c-9.33301 -4.66699 -20 -11.5 -32 -20.5s-22.667 -19.833 -32 -32.5s-14 -26.667 -14 -42c0 -12 3.83301 -21.833 11.5 -29.5s18.167 -11.5 31.5 -11.5c12 0 21.333 2.5 28 7.5s11.5 10.167 14.5 15.5l4.5 8l38 -31l-9.5 -12.5
c-6.33301 -8.33301 -16 -16.5 -29 -24.5s-29.833 -12 -50.5 -12c-24.667 0 -45.5 7.16699 -62.5 21.5s-25.5 34.5 -25.5 60.5c0 24.667 8.33301 46.334 25 65.001s34.334 33.667 53.001 45h-324v563h377v-57h-314v-194h249v-54h-249v-204z" />
    <glyph glyph-name="eogonek" unicode="&#x119;" horiz-adv-x="451" 
d="M223 -10c-44.667 0 -81.4971 10.167 -110.497 30.5s-50.333 46.666 -64 78.999s-20.5 65.833 -20.5 100.5c0 38 7.5 72.833 22.5 104.5s37 56.834 66 75.501s63.833 28 104.5 28c52 0 95.333 -16.833 130 -50.5s53.334 -78.834 56.001 -135.501
c0.666992 -2.66699 1 -6.5 1 -11.5v-13.5h-318c0 -47.333 11.5 -84.5 34.5 -111.5s55.5 -40.5 97.5 -40.5c31.333 0 58.166 8 80.499 24s36.166 37.667 41.499 65h63c-6.66699 -41.333 -26.334 -75.666 -59.001 -102.999s-74.334 -41 -125.001 -41zM92.0029 232
l250.002 0.000976562c0 14 -3.83301 30.667 -11.5 50s-20.334 36.166 -38.001 50.499s-41.834 21.5 -72.501 21.5c-28 0 -51 -6 -69 -18s-31.667 -27.333 -41 -46s-15.333 -38 -18 -58zM236.005 -192.999c-24 0 -44.668 7.16406 -62.001 21.4971s-26 34.5 -26 60.5
c0 22.667 6.83301 42.834 20.5 60.501s29.5 32.334 47.5 44.001s33.833 20.334 47.5 26.001l20.5 8.5v-29l-13 -7c-8.66699 -4.66699 -18.667 -11.5 -30 -20.5s-21.333 -19.833 -30 -32.5s-13 -26.667 -13 -42c0 -12 3.66699 -21.833 11 -29.5s18 -11.5 32 -11.5
c11.333 0 20.5 2.5 27.5 7.5s11.833 10.167 14.5 15.5l4 8l39 -31l-9.5 -12.5c-6.33301 -8.33301 -16.166 -16.5 -29.499 -24.5s-30.333 -12 -51 -12z" />
    <glyph glyph-name="Ecaron" unicode="&#x11a;" horiz-adv-x="479" 
d="M120 54h324v-54h-387v563h377v-57h-314v-194h249v-54h-249v-204zM93 749h69l81 -103l82 103h68l-136 -136h-28z" />
    <glyph glyph-name="ecaron" unicode="&#x11b;" horiz-adv-x="451" 
d="M223 -10c-44.667 0 -81.4971 10.167 -110.497 30.5s-50.333 46.666 -64 78.999s-20.5 65.833 -20.5 100.5c0 38 7.5 72.833 22.5 104.5s37 56.834 66 75.501s63.833 28 104.5 28c52 0 95.333 -16.833 130 -50.5s53.334 -78.834 56.001 -135.501
c0.666992 -2.66699 1 -6.5 1 -11.5v-13.5h-318c0 -47.333 11.5 -84.5 34.5 -111.5s55.5 -40.5 97.5 -40.5c31.333 0 58.166 8 80.499 24s36.166 37.667 41.499 65h63c-6.66699 -41.333 -26.334 -75.666 -59.001 -102.999s-74.334 -41 -125.001 -41zM92.0029 232
l250.002 0.000976562c0 14 -3.83301 30.667 -11.5 50s-20.334 36.166 -38.001 50.499s-41.834 21.5 -72.501 21.5c-28 0 -51 -6 -69 -18s-31.667 -27.333 -41 -46s-15.333 -38 -18 -58zM66.0049 591.001h69l81 -92l82 92h68v-14l-136 -122h-28l-136 122v14z" />
    <glyph glyph-name="Gbreve" unicode="&#x11e;" horiz-adv-x="609" 
d="M291 -13c-54 0 -100.997 11.5 -140.997 34.5s-70.833 56.167 -92.5 99.5s-32.5 96 -32.5 158c0.666992 62 12.5 115 35.5 159s55.167 77.5 96.5 100.5s89.666 34.5 144.999 34.5c71.333 0 128.5 -16.5 171.5 -49.5s70.5 -81.167 82.5 -144.5l-62 -8
c-10.667 49.333 -33 85.333 -67 108s-75.667 34 -125 34c-71.333 0 -124.333 -20.333 -159 -61s-53.334 -97.334 -56.001 -170.001c0 -74 19.167 -131.333 57.5 -172s91.833 -61 160.5 -61c52.667 0 96.834 14 132.501 42s56.5 69.333 62.5 124h-155v50h223v-265h-46
l-15 124h-2c-5.33301 -18 -16.333 -37.667 -33 -59s-39.834 -39.666 -69.501 -54.999s-66.834 -23 -111.501 -23zM296.003 622c-36.667 0 -65.499 8.16699 -86.499 24.5s-31.5 38.166 -31.5 65.499h47c0 -20.667 7 -34 21 -40s30.333 -9 49 -9c19.333 0 35.666 3 48.999 9
s20 19.333 20 40h48c0 -27.333 -10.167 -49.166 -30.5 -65.499s-48.833 -24.5 -85.5 -24.5z" />
    <glyph glyph-name="gbreve" unicode="&#x11f;" horiz-adv-x="447" 
d="M218 465c-36.667 0 -65.499 8.16895 -86.499 24.502s-31.5 38.166 -31.5 65.499h47c0 -20 7 -33.167 21 -39.5s30.333 -9.5 49 -9.5c19.333 0 35.666 3 48.999 9s20 19.333 20 40h48c0 -26.667 -10.167 -48.334 -30.5 -65.001s-48.833 -25 -85.5 -25zM138.001 -167.998
l0.000976562 61.0029h203v197h-2c-1.33301 -3.33301 -4.83301 -10.333 -10.5 -21s-14.334 -22 -26.001 -34s-26.667 -22.5 -45 -31.5s-40.5 -13.5 -66.5 -13.5c-39.333 0 -72.166 9.16699 -98.499 27.5s-46.166 43.166 -59.499 74.499s-20 66.666 -20 105.999
c0 61.333 15.167 111.5 45.5 150.5s74.833 58.5 133.5 58.5c27.333 0 50.166 -4.5 68.499 -13.5s33 -19.833 44 -32.5s19.167 -24.334 24.5 -35.001s8.66602 -17.667 9.99902 -21h2v102h66v-477c0 -32 -6 -56.333 -18 -73s-33.667 -25 -65 -25h-186zM205.002 45.0049
c40 0 72.333 13.8311 97 41.498s37 64.834 37 111.501c0 46 -11.667 82.833 -35 110.5s-54.333 41.5 -93 41.5c-32 0 -57.833 -7.33301 -77.5 -22s-34.167 -33.5 -43.5 -56.5s-14 -47.5 -14 -73.5c0 -25.333 4.16699 -49.666 12.5 -72.999s22 -42.5 41 -57.5
s44.167 -22.5 75.5 -22.5z" />
    <glyph glyph-name="Gdotaccent" unicode="&#x120;" horiz-adv-x="609" 
d="M291 -13c-54 0 -100.997 11.5 -140.997 34.5s-70.833 56.167 -92.5 99.5s-32.5 96 -32.5 158c0.666992 62 12.5 115 35.5 159s55.167 77.5 96.5 100.5s89.666 34.5 144.999 34.5c71.333 0 128.5 -16.5 171.5 -49.5s70.5 -81.167 82.5 -144.5l-62 -8
c-10.667 49.333 -33 85.333 -67 108s-75.667 34 -125 34c-71.333 0 -124.333 -20.333 -159 -61s-53.334 -97.334 -56.001 -170.001c0 -74 19.167 -131.333 57.5 -172s91.833 -61 160.5 -61c52.667 0 96.834 14 132.501 42s56.5 69.333 62.5 124h-155v50h223v-265h-46
l-15 124h-2c-5.33301 -18 -16.333 -37.667 -33 -59s-39.834 -39.666 -69.501 -54.999s-66.834 -23 -111.501 -23zM297.003 621c-18.667 0 -31.334 4.83301 -38.001 14.5s-10 20.834 -10 33.501s3.33301 23.667 10 33s19.334 14 38.001 14c19.333 0 32 -4.66699 38 -14
s9 -20.333 9 -33s-3 -23.834 -9 -33.501s-18.667 -14.5 -38 -14.5z" />
    <glyph glyph-name="gdotaccent" unicode="&#x121;" horiz-adv-x="447" 
d="M210 463c-18.667 0 -31.334 4.83301 -38.001 14.5s-10 20.834 -10 33.501s3.33301 23.667 10 33s19.334 14 38.001 14c19.333 0 32 -4.66699 38 -14s9 -20.333 9 -33s-3 -23.834 -9 -33.501s-18.667 -14.5 -38 -14.5zM138 -168l0.000976562 61.0029h203v197h-2
c-1.33301 -3.33301 -4.83301 -10.333 -10.5 -21s-14.334 -22 -26.001 -34s-26.667 -22.5 -45 -31.5s-40.5 -13.5 -66.5 -13.5c-39.333 0 -72.166 9.16699 -98.499 27.5s-46.166 43.166 -59.499 74.499s-20 66.666 -20 105.999c0 61.333 15.167 111.5 45.5 150.5
s74.833 58.5 133.5 58.5c27.333 0 50.166 -4.5 68.499 -13.5s33 -19.833 44 -32.5s19.167 -24.334 24.5 -35.001s8.66602 -17.667 9.99902 -21h2v102h66v-477c0 -32 -6 -56.333 -18 -73s-33.667 -25 -65 -25h-186zM205.001 45.0029c40 0 72.333 13.8311 97 41.498
s37 64.834 37 111.501c0 46 -11.667 82.833 -35 110.5s-54.333 41.5 -93 41.5c-32 0 -57.833 -7.33301 -77.5 -22s-34.167 -33.5 -43.5 -56.5s-14 -47.5 -14 -73.5c0 -25.333 4.16699 -49.666 12.5 -72.999s22 -42.5 41 -57.5s44.167 -22.5 75.5 -22.5z" />
    <glyph glyph-name="uni0122" unicode="&#x122;" horiz-adv-x="609" 
d="M291 -13c-54 0 -100.997 11.5 -140.997 34.5s-70.833 56.167 -92.5 99.5s-32.5 96 -32.5 158c0.666992 62 12.5 115 35.5 159s55.167 77.5 96.5 100.5s89.666 34.5 144.999 34.5c71.333 0 128.5 -16.5 171.5 -49.5s70.5 -81.167 82.5 -144.5l-62 -8
c-10.667 49.333 -33 85.333 -67 108s-75.667 34 -125 34c-71.333 0 -124.333 -20.333 -159 -61s-53.334 -97.334 -56.001 -170.001c0 -74 19.167 -131.333 57.5 -172s91.833 -61 160.5 -61c52.667 0 96.834 14 132.501 42s56.5 69.333 62.5 124h-155v50h223v-265h-46
l-15 124h-2c-5.33301 -18 -16.333 -37.667 -33 -59s-39.834 -39.666 -69.501 -54.999s-66.834 -23 -111.501 -23zM246.003 -231v48.002h17c16.667 0 27.167 3.66699 31.5 11s6.5 16.666 6.5 27.999c-18 -2 -31 1 -39 9s-12 19.667 -12 35c0 11.333 3 21.166 9 29.499
s17 12.5 33 12.5c14 0 24.167 -4.16699 30.5 -12.5s9.5 -23.5 9.5 -45.5c0 -34.667 -4.83301 -62.5 -14.5 -83.5s-27.167 -31.5 -52.5 -31.5h-19z" />
    <glyph glyph-name="uni0123" unicode="&#x123;" horiz-adv-x="447" 
d="M229 458h-32v10l51 103h59v-15zM138 -168l0.000976562 61.0029h203v197h-2c-1.33301 -3.33301 -4.83301 -10.333 -10.5 -21s-14.334 -22 -26.001 -34s-26.667 -22.5 -45 -31.5s-40.5 -13.5 -66.5 -13.5c-39.333 0 -72.166 9.16699 -98.499 27.5
s-46.166 43.166 -59.499 74.499s-20 66.666 -20 105.999c0 61.333 15.167 111.5 45.5 150.5s74.833 58.5 133.5 58.5c27.333 0 50.166 -4.5 68.499 -13.5s33 -19.833 44 -32.5s19.167 -24.334 24.5 -35.001s8.66602 -17.667 9.99902 -21h2v102h66v-477
c0 -32 -6 -56.333 -18 -73s-33.667 -25 -65 -25h-186zM205.001 45.0029c40 0 72.333 13.8311 97 41.498s37 64.834 37 111.501c0 46 -11.667 82.833 -35 110.5s-54.333 41.5 -93 41.5c-32 0 -57.833 -7.33301 -77.5 -22s-34.167 -33.5 -43.5 -56.5s-14 -47.5 -14 -73.5
c0 -25.333 4.16699 -49.666 12.5 -72.999s22 -42.5 41 -57.5s44.167 -22.5 75.5 -22.5z" />
    <glyph glyph-name="Hbar" unicode="&#x126;" horiz-adv-x="586" 
d="M67 0v424h-49v49h49v90h64v-90h320v90h63v-90h49v-49h-49v-424h-63v264h-320v-264h-64zM131 316h320v108h-320v-108z" />
    <glyph glyph-name="hbar" unicode="&#x127;" horiz-adv-x="468" 
d="M55 0v464.998h-53v44h53v54h64v-54h132v-44h-132v-173c1.33301 4 4.5 12.167 9.5 24.5s13 25.5 24 39.5s25.5 26.167 43.5 36.5s40.333 15.5 67 15.5c36.667 0 65.334 -7 86.001 -21s35.667 -32.5 45 -55.5s15.333 -47.5 18 -73.5s4 -51 4 -75v-183h-64v178
c0 34.667 -2.83301 64.834 -8.5 90.501s-16.334 45.667 -32.001 60s-38.5 21.5 -68.5 21.5c-42 0 -73.167 -16.167 -93.5 -48.5s-30.5 -74.166 -30.5 -125.499v-176h-64z" />
    <glyph glyph-name="Itilde" unicode="&#x128;" horiz-adv-x="342" 
d="M276 56v-56h-218v56h77v451h-77v56h218v-56h-77v-451h77zM219 621c-15.333 0 -27.498 2.82812 -36.498 8.49512s-16.667 12 -23 19s-12.5 13.333 -18.5 19s-13.667 8.5 -23 8.5c-11.333 0 -18.166 -4.66699 -20.499 -14s-3.5 -22.333 -3.5 -39h-42
c-0.666992 12.667 0.166016 26.334 2.49902 41.001s8 26.834 17 36.501s23.5 14.5 43.5 14.5c15.333 0 27.666 -2.66699 36.999 -8s17 -11.666 23 -18.999s12.167 -13.666 18.5 -18.999s14.166 -8 23.499 -8c11.333 0 18 4.66699 20 14s3 22.666 3 39.999h43
c0.666992 -15.333 -0.5 -30.166 -3.5 -44.499s-9 -26.166 -18 -35.499s-23.167 -14 -42.5 -14z" />
    <glyph glyph-name="itilde" unicode="&#x129;" horiz-adv-x="198" 
d="M147 470c-15.333 0 -27.6641 2.83301 -36.9971 8.5s-17.166 12 -23.499 19s-12.5 13.333 -18.5 19s-13.667 8.5 -23 8.5c-10.667 0 -17.334 -4.66699 -20.001 -14s-3.66699 -22.333 -3 -39h-43c-0.666992 13.333 0.166016 27.166 2.49902 41.499s8 26.5 17 36.5
s23.5 15 43.5 15c15.333 0 27.666 -2.83301 36.999 -8.5s17.166 -12 23.499 -19s12.5 -13.333 18.5 -19s13.667 -8.5 23 -8.5c11.333 0 18 4.66699 20 14s3 22.666 3 39.999h43c0.666992 -15.333 -0.333008 -30.166 -3 -44.499s-8.66699 -26.166 -18 -35.499
s-23.333 -14 -42 -14zM62.002 0v408h64v-408h-64z" />
    <glyph glyph-name="Imacron" unicode="&#x12a;" horiz-adv-x="337" 
d="M276 56v-56h-218v56h77v451h-77v56h218v-56h-77v-451h77zM43 620v49h249v-49h-249z" />
    <glyph glyph-name="imacron" unicode="&#x12b;" horiz-adv-x="177" 
d="M-28 467v48h199v-48h-199zM42 0v408h64v-408h-64z" />
    <glyph glyph-name="Iogonek" unicode="&#x12e;" horiz-adv-x="342" 
d="M169 -192c-24.667 0 -45.501 7.16602 -62.501 21.499s-25.5 34.5 -25.5 60.5c0 24.667 8.33301 46.334 25 65.001s34 33.667 52 45h-100v56h77v451h-77v56h218v-56h-77v-451h77v-56h-55l-13.5 -7c-9 -4.66699 -19.5 -11.5 -31.5 -20.5s-22.667 -19.833 -32 -32.5
s-14 -26.667 -14 -42c0 -12 3.66699 -21.833 11 -29.5s18 -11.5 32 -11.5c12 0 21.333 2.5 28 7.5s11.5 10.167 14.5 15.5l4.5 8l38 -31l-9.5 -12.5c-6.33301 -8.33301 -16.166 -16.5 -29.499 -24.5s-30 -12 -50 -12z" />
    <glyph glyph-name="iogonek" unicode="&#x12f;" horiz-adv-x="195" 
d="M86 453c-15.333 0 -25.5 4 -30.5 12s-7.5 18 -7.5 30c0 10.667 2.5 19.834 7.5 27.501s15.167 11.5 30.5 11.5c14.667 0 24.667 -3.83301 30 -11.5s8 -16.834 8 -27.501c0 -12 -2.66699 -22 -8 -30s-15.333 -12 -30 -12zM53 0v407.999l8 -2.5
c5.33301 -1.66699 13.333 -2.5 24 -2.5c11.333 0 19.5 0.833008 24.5 2.5l7.5 2.5v-408l-13.5 -7c-9 -4.66699 -19.5 -11.5 -31.5 -20.5s-22.667 -19.833 -32 -32.5s-14 -26.667 -14 -42c0 -12 3.66699 -21.833 11 -29.5s18 -11.5 32 -11.5c12 0 21.333 2.5 28 7.5
s11.5 10.167 14.5 15.5l4.5 8l38 -31l-9.5 -12.5c-6.33301 -8.33301 -16 -16.5 -29 -24.5s-29.833 -12 -50.5 -12c-24.667 0 -45.5 7.16699 -62.5 21.5s-25.5 34.5 -25.5 60.5c0 24.667 8.33301 46.334 25 65.001s34 33.667 52 45h-1z" />
    <glyph glyph-name="Idotaccent" unicode="&#x130;" horiz-adv-x="342" 
d="M276 56v-56h-218v56h77v451h-77v56h218v-56h-77v-451h77zM139 636c-18.667 0 -31.334 4.83301 -38.001 14.5s-10 20.834 -10 33.501s3.33301 23.667 10 33s19.334 14 38.001 14c19.333 0 32 -4.66699 38 -14s9 -20.333 9 -33s-3 -23.834 -9 -33.501
s-18.667 -14.5 -38 -14.5z" />
    <glyph glyph-name="dotlessi" unicode="&#x131;" horiz-adv-x="169" 
d="M52 0v408h64v-408h-64z" />
    <glyph glyph-name="uni0136" unicode="&#x136;" horiz-adv-x="561" 
d="M70 -1v564h65v-293l297 293h91l-248 -236l257 -327h-79l-224 283l-94 -89v-195h-65zM217 -231v48.002h18c16.667 0 27.167 3.66699 31.5 11s6.5 16.666 6.5 27.999c-18 -2 -31.167 1 -39.5 9s-12.5 19.667 -12.5 35c0 11.333 3 21.166 9 29.499s17 12.5 33 12.5
c14 0 24.333 -4.16699 31 -12.5s10 -23.5 10 -45.5c0 -34.667 -4.83301 -62.5 -14.5 -83.5s-27.167 -31.5 -52.5 -31.5h-20z" />
    <glyph glyph-name="uni0137" unicode="&#x137;" horiz-adv-x="440" 
d="M118 -1h-65v564h65v-379l222 224h82l-178 -176l182 -233h-79l-149 188l-80 -79v-109zM161 -212v48.001h17c16.667 0 27.167 3.66699 31.5 11s6.5 16.666 6.5 27.999c-18 -1.33301 -31 2 -39 10s-12 19.333 -12 34c0 12 3 22 9 30s17 12 33 12
c14 0 24.167 -4.16699 30.5 -12.5s9.5 -23.5 9.5 -45.5c0 -34 -4.83301 -61.667 -14.5 -83s-27.167 -32 -52.5 -32h-19z" />
    <glyph glyph-name="Lacute" unicode="&#x139;" horiz-adv-x="468" 
d="M67 0v563h64v-507h312v-56h-376zM116 610h-32v10l51 103h59v-15z" />
    <glyph glyph-name="lacute" unicode="&#x13a;" horiz-adv-x="167" 
d="M52 0v563h63v-563h-63zM104 632h-32v10l51 103h59v-15z" />
    <glyph glyph-name="uni013B" unicode="&#x13b;" horiz-adv-x="468" 
d="M67 0v563h64v-507h312v-56h-376zM197 -231v48.002h17c16.667 0 27.167 3.66699 31.5 11s6.5 16.666 6.5 27.999c-18 -2 -31 1 -39 9s-12 19.667 -12 35c0 11.333 3 21.166 9 29.499s17 12.5 33 12.5c14 0 24.167 -4.16699 30.5 -12.5s9.5 -23.5 9.5 -45.5
c0 -34.667 -4.83301 -62.5 -14.5 -83.5s-27.167 -31.5 -52.5 -31.5h-19z" />
    <glyph glyph-name="uni013C" unicode="&#x13c;" horiz-adv-x="228" 
d="M62 -212v48.002h17c16.667 0 27.167 3.66699 31.5 11s6.5 16.666 6.5 27.999c-18 -2 -31 1 -39 9s-12 19.667 -12 35c0 11.333 3 21.166 9 29.499s17 12.5 33 12.5c14 0 24.167 -4.16699 30.5 -12.5s9.5 -23.5 9.5 -45.5c0 -34.667 -4.83301 -62.5 -14.5 -83.5
s-27.167 -31.5 -52.5 -31.5h-19zM57 0.00195312v563h63v-563h-63z" />
    <glyph glyph-name="Lcaron" unicode="&#x13d;" horiz-adv-x="460" 
d="M67 0v563h64v-507h312v-56h-376zM-51 749h69l81 -103l82 103h68l-136 -136h-28z" />
    <glyph glyph-name="lcaron" unicode="&#x13e;" horiz-adv-x="239" 
d="M160 424l34 147h63l-59 -147h-38zM52 0v563h63v-563h-63z" />
    <glyph glyph-name="Lslash" unicode="&#x141;" horiz-adv-x="468" 
d="M67 0v248l-71 -35v60l71 35v255h64v-223l134 67v-60l-134 -67v-224h312v-56h-376z" />
    <glyph glyph-name="lslash" unicode="&#x142;" horiz-adv-x="223" 
d="M52 0v254l-59 -41v60l59 41v249h63v-206l73 50v-60l-73 -50v-297h-63z" />
    <glyph glyph-name="Nacute" unicode="&#x143;" horiz-adv-x="581" 
d="M458 563h65v-563h-121l-280 534h-2v-534h-65v563h113l288 -534h2v534zM290 610h-32v10l51 103h59v-15z" />
    <glyph glyph-name="nacute" unicode="&#x144;" horiz-adv-x="446" 
d="M38 0l0.000976562 407h55l11 -101h2c0.666992 3.33301 3.66699 10.333 9 21s13.5 22.167 24.5 34.5s25.5 23 43.5 32s41 13.5 69 13.5c35.333 0 63.166 -6.33301 83.499 -19s35.5 -29.5 45.5 -50.5s16.333 -43.5 19 -67.5s4 -47 4 -69v-201h-62v201
c0 44 -7.5 79.667 -22.5 107s-44.5 41 -88.5 41c-30 0 -54.5 -7.16699 -73.5 -21.5s-32.667 -33.333 -41 -57s-12.5 -49.5 -12.5 -77.5v-193h-66zM251.001 458h-32v10l51 103h59v-15z" />
    <glyph glyph-name="uni0145" unicode="&#x145;" horiz-adv-x="581" 
d="M458 563h65v-563h-121l-280 534h-2v-534h-65v563h113l288 -534h2v534zM239 -231v48.002h17c16.667 0 27.167 3.66699 31.5 11s6.5 16.666 6.5 27.999c-18 -2 -31 1 -39 9s-12 19.667 -12 35c0 11.333 3 21.166 9 29.499s17 12.5 33 12.5c14 0 24.167 -4.16699 30.5 -12.5
s9.5 -23.5 9.5 -45.5c0 -34.667 -4.83301 -62.5 -14.5 -83.5s-27.167 -31.5 -52.5 -31.5h-19z" />
    <glyph glyph-name="uni0146" unicode="&#x146;" horiz-adv-x="446" 
d="M38 0l0.000976562 407h55l11 -101h2c0.666992 3.33301 3.66699 10.333 9 21s13.5 22.167 24.5 34.5s25.5 23 43.5 32s41 13.5 69 13.5c35.333 0 63.166 -6.33301 83.499 -19s35.5 -29.5 45.5 -50.5s16.333 -43.5 19 -67.5s4 -47 4 -69v-201h-62v201
c0 44 -7.5 79.667 -22.5 107s-44.5 41 -88.5 41c-30 0 -54.5 -7.16699 -73.5 -21.5s-32.667 -33.333 -41 -57s-12.5 -49.5 -12.5 -77.5v-193h-66zM162.001 -212v48.002h17c16.667 0 27.167 3.66699 31.5 11s6.5 16.666 6.5 27.999c-18 -2 -31 1 -39 9s-12 19.667 -12 35
c0 11.333 3 21.166 9 29.499s17 12.5 33 12.5c14 0 24.167 -4.16699 30.5 -12.5s9.5 -23.5 9.5 -45.5c0 -34.667 -4.83301 -62.5 -14.5 -83.5s-27.167 -31.5 -52.5 -31.5h-19z" />
    <glyph glyph-name="Ncaron" unicode="&#x147;" horiz-adv-x="600" 
d="M458 563h65v-563h-121l-280 534h-2v-534h-65v563h113l288 -534h2v534zM143 749h69l81 -103l82 103h68l-136 -136h-28z" />
    <glyph glyph-name="ncaron" unicode="&#x148;" horiz-adv-x="469" 
d="M38 0l0.000976562 407h55l11 -101h2c0.666992 3.33301 3.66699 10.333 9 21s13.5 22.167 24.5 34.5s25.5 23 43.5 32s41 13.5 69 13.5c35.333 0 63.166 -6.33301 83.499 -19s35.5 -29.5 45.5 -50.5s16.333 -43.5 19 -67.5s4 -47 4 -69v-201h-62v201
c0 44 -7.5 79.667 -22.5 107s-44.5 41 -88.5 41c-30 0 -54.5 -7.16699 -73.5 -21.5s-32.667 -33.333 -41 -57s-12.5 -49.5 -12.5 -77.5v-193h-66zM85.001 597h69l81 -103l82 103h68l-136 -136h-28z" />
    <glyph glyph-name="Eng" unicode="&#x14a;" horiz-adv-x="600" 
d="M409 -202c-23.333 0 -42.167 4.16797 -56.5 12.501s-24.166 15.166 -29.499 20.499l38 44c3.33301 -4 8.83301 -8.16699 16.5 -12.5s16.5 -6.5 26.5 -6.5c18 0 31.833 5.16699 41.5 15.5s14.5 27.833 14.5 52.5v76h-58l-280 534h-2v-534h-65v563h113l288 -534h2v534h65
v-643c0 -34.667 -8.83301 -63.667 -26.5 -87s-46.834 -35 -87.501 -35z" />
    <glyph glyph-name="eng" unicode="&#x14b;" horiz-adv-x="469" 
d="M38 0l0.000976562 407.001h55l11 -101h2c0.666992 3.33301 3.66699 10.333 9 21s13.5 22.167 24.5 34.5s25.5 23 43.5 32s41 13.5 69 13.5c35.333 0 63.166 -6.33301 83.499 -19s35.5 -29.5 45.5 -50.5s16.333 -43.5 19 -67.5s4 -47 4 -69v-176h14v-102
c0 -34.667 -8.83301 -63.667 -26.5 -87s-47.167 -35 -88.5 -35c-23.333 0 -42 4.16699 -56 12.5s-24 15.166 -30 20.499l38 44c3.33301 -4 8.83301 -8.16699 16.5 -12.5s16.5 -6.5 26.5 -6.5c18 0 31.833 5.16699 41.5 15.5s14.5 27.833 14.5 52.5v73h-12v201
c0 44 -7.5 79.667 -22.5 107s-44.5 41 -88.5 41c-30 0 -54.5 -7.16699 -73.5 -21.5s-32.667 -33.333 -41 -57s-12.5 -49.5 -12.5 -77.5v-193h-66z" />
    <glyph glyph-name="Omacron" unicode="&#x14c;" horiz-adv-x="600" 
d="M295 -14c-89.333 0 -157.331 26.5 -203.998 79.5s-70 124.5 -70 214.5c0 59.333 10.167 110.833 30.5 154.5s50.666 77.667 90.999 102s91.166 36.5 152.499 36.5c89.333 0 157 -26.5 203 -79.5s69 -124.167 69 -213.5c0 -58 -10.167 -109.167 -30.5 -153.5
s-50.833 -78.833 -91.5 -103.5s-90.667 -37 -150 -37zM294.002 48c70 0 122.501 21.333 157.501 64s52.5 98.667 52.5 168s-17.333 125.5 -52 168.5s-87.334 64.5 -158.001 64.5c-68.667 0 -120.834 -20.833 -156.501 -62.5s-53.5 -98.5 -53.5 -170.5
c0 -68.667 17.333 -124.5 52 -167.5s87.334 -64.5 158.001 -64.5zM174.003 620v49h249v-49h-249z" />
    <glyph glyph-name="omacron" unicode="&#x14d;" horiz-adv-x="451" 
d="M222 -10c-65.333 0 -114.166 19.4971 -146.499 58.4971s-48.5 88.833 -48.5 149.5c-0.666992 61.333 15.5 111.5 48.5 150.5s81.833 58.833 146.5 59.5c64 0 112.5 -19.167 145.5 -57.5s49.5 -89.166 49.5 -152.499c0 -39.333 -7 -74.666 -21 -105.999
s-35.333 -56.166 -64 -74.499s-65.334 -27.5 -110.001 -27.5zM222 45.9971c34.667 0 61.5 7.66699 80.5 23s32.333 34.833 40 58.5s11.5 47.834 11.5 72.501s-3.83301 49 -11.5 73s-21 43.667 -40 59s-45.833 23 -80.5 23s-61.5 -7.66699 -80.5 -23s-32.333 -35 -40 -59
s-11.5 -48.333 -11.5 -73s3.83301 -48.834 11.5 -72.501s21 -43.167 40 -58.5s45.833 -23 80.5 -23zM95 465.997v49h249v-49h-249z" />
    <glyph glyph-name="Ohungarumlaut" unicode="&#x150;" horiz-adv-x="598" 
d="M200 639l77 138l56 -27l-102 -125zM340 639l77 138l56 -27l-101 -125zM295 -14c-89.333 0 -157.331 26.5 -203.998 79.5s-70 124.5 -70 214.5c0 59.333 10.167 110.833 30.5 154.5s50.666 77.667 90.999 102s91.166 36.5 152.499 36.5c89.333 0 157 -26.5 203 -79.5
s69 -124.167 69 -213.5c0 -58 -10.167 -109.167 -30.5 -153.5s-50.833 -78.833 -91.5 -103.5s-90.667 -37 -150 -37zM294.002 48c70 0 122.501 21.333 157.501 64s52.5 98.667 52.5 168s-17.333 125.5 -52 168.5s-87.334 64.5 -158.001 64.5
c-68.667 0 -120.834 -20.833 -156.501 -62.5s-53.5 -98.5 -53.5 -170.5c0 -68.667 17.333 -124.5 52 -167.5s87.334 -64.5 158.001 -64.5z" />
    <glyph glyph-name="ohungarumlaut" unicode="&#x151;" horiz-adv-x="458" 
d="M127 464l77 138l56 -27l-101 -125zM268 464l77 138l55 -27l-101 -125zM222 -10c-65.333 0 -114.166 19.4971 -146.499 58.4971s-48.5 88.833 -48.5 149.5c-0.666992 61.333 15.5 111.5 48.5 150.5s81.833 58.833 146.5 59.5c64 0 112.5 -19.167 145.5 -57.5
s49.5 -89.166 49.5 -152.499c0 -39.333 -7 -74.666 -21 -105.999s-35.333 -56.166 -64 -74.499s-65.334 -27.5 -110.001 -27.5zM222 45.9971c34.667 0 61.5 7.66699 80.5 23s32.333 34.833 40 58.5s11.5 47.834 11.5 72.501s-3.83301 49 -11.5 73s-21 43.667 -40 59
s-45.833 23 -80.5 23s-61.5 -7.66699 -80.5 -23s-32.333 -35 -40 -59s-11.5 -48.333 -11.5 -73s3.83301 -48.834 11.5 -72.501s21 -43.167 40 -58.5s45.833 -23 80.5 -23z" />
    <glyph glyph-name="OE" unicode="&#x152;" horiz-adv-x="836" 
d="M369 0c-68 0 -127.167 8 -177.5 24s-89.333 44.5 -117 85.5s-41.5 98.5 -41.5 172.5c0 62.667 13.833 114.667 41.5 156s66.667 72.5 117 93.5s109.5 31.5 177.5 31.5h422v-57h-313v-194h248v-54h-248v-204h323v-54h-432zM358 55l56 0.00195312v451h-56
c-78 0 -140.167 -18.167 -186.5 -54.5s-69.5 -92.833 -69.5 -169.5c0 -62.667 10.5 -110.334 31.5 -143.001s50.667 -54.834 89 -66.501s83.5 -17.5 135.5 -17.5z" />
    <glyph glyph-name="oe" unicode="&#x153;" horiz-adv-x="767" 
d="M220 -10c-66 0 -115.17 19.5 -147.503 58.5s-48.5 88.833 -48.5 149.5c0 61.333 16.333 111.5 49 150.5s81.667 58.833 147 59.5c38.667 0 71.834 -7.5 99.501 -22.5s49.167 -36.167 64.5 -63.5c15.333 25.333 36.666 46 63.999 62s61 24 101 24
c34 0 64.167 -7.83301 90.5 -23.5s47.666 -37.5 63.999 -65.5s25.5 -60.333 27.5 -97c0.666992 -2.66699 1 -6.5 1 -11.5v-13.5h-318c0 -46 11.833 -82.5 35.5 -109.5s56.834 -40.5 99.501 -40.5c32 0 58.667 8 80 24s35 38 41 66l63 -9c-10 -40 -30.833 -73 -62.5 -99
s-72.167 -39 -121.5 -39c-39.333 0 -72.666 8 -99.999 24s-48.666 36.667 -63.999 62c-15.333 -26.667 -36.666 -47.667 -63.999 -63s-61 -23 -101 -23zM415.997 236h251c-0.666992 10.667 -3 23 -7 37s-10.333 27.5 -19 40.5s-20.667 24 -36 33s-34.666 13.5 -57.999 13.5
c-28.667 0 -52.167 -6.16699 -70.5 -18.5s-32.333 -28 -42 -47s-15.834 -38.5 -18.501 -58.5zM219.997 46c34.667 0 61.5 7.66699 80.5 23s32.333 34.833 40 58.5s11.5 47.834 11.5 72.501s-3.83301 49 -11.5 73s-21 43.667 -40 59s-45.833 23 -80.5 23
s-61.667 -7.66699 -81 -23s-32.833 -35 -40.5 -59s-11.5 -48.333 -11.5 -73s3.83301 -48.834 11.5 -72.501s21.167 -43.167 40.5 -58.5s46.333 -23 81 -23z" />
    <glyph glyph-name="Racute" unicode="&#x154;" horiz-adv-x="531" 
d="M62 0l-0.000976562 562.999h186c71.333 0 126.5 -11.333 165.5 -34s58.5 -65 58.5 -127c0 -40 -10.833 -74.5 -32.5 -103.5s-54.834 -43.5 -99.501 -43.5c28 0 48.833 -6 62.5 -18s23 -27.167 28 -45.5s7.83301 -37.333 8.5 -57s2 -37.5 4 -53.5
s6.83301 -27.667 14.5 -35s20.834 -7.66602 39.501 -0.999023v-42c-6 -5.33301 -15.167 -9.16602 -27.5 -11.499s-25.166 -1.5 -38.499 2.5s-24.5 13 -33.5 27s-13.5 34.667 -13.5 62c0 41.333 -2.33301 73.333 -7 96s-15.167 38.667 -31.5 48s-41.833 14.666 -76.5 15.999
s-82 1.33301 -142 0v-243h-65zM126.999 291.999h130.999c52.667 0 91.834 7 117.501 21s38.5 42.333 38.5 85c0 33.333 -7 57.833 -21 73.5s-34.167 25.667 -60.5 30s-58.833 6.5 -97.5 6.5h-108v-216zM263.998 609.999h-32v10l51 103h59v-15z" />
    <glyph glyph-name="racute" unicode="&#x155;" horiz-adv-x="302" 
d="M48 0l0.00195312 407.001h58l7 -107c4 18 12 35.333 24 52s28.5 30.167 49.5 40.5s47.167 15.166 78.5 14.499h19v-71h-20c-42.667 0 -74.834 -6.16699 -96.501 -18.5s-36.334 -29.5 -44.001 -51.5s-11.5 -47.333 -11.5 -76v-190h-64zM188.002 458.001h-32v10l51 103h59
v-15z" />
    <glyph glyph-name="uni0156" unicode="&#x156;" horiz-adv-x="531" 
d="M62 0l-0.000976562 562.999h186c71.333 0 126.5 -11.333 165.5 -34s58.5 -65 58.5 -127c0 -40 -10.833 -74.5 -32.5 -103.5s-54.834 -43.5 -99.501 -43.5c28 0 48.833 -6 62.5 -18s23 -27.167 28 -45.5s7.83301 -37.333 8.5 -57s2 -37.5 4 -53.5
s6.83301 -27.667 14.5 -35s20.834 -7.66602 39.501 -0.999023v-42c-6 -5.33301 -15.167 -9.16602 -27.5 -11.499s-25.166 -1.5 -38.499 2.5s-24.5 13 -33.5 27s-13.5 34.667 -13.5 62c0 41.333 -2.33301 73.333 -7 96s-15.167 38.667 -31.5 48s-41.833 14.666 -76.5 15.999
s-82 1.33301 -142 0v-243h-65zM126.999 291.999h130.999c52.667 0 91.834 7 117.501 21s38.5 42.333 38.5 85c0 33.333 -7 57.833 -21 73.5s-34.167 25.667 -60.5 30s-58.833 6.5 -97.5 6.5h-108v-216zM210.998 -231.001v48.002h17c16.667 0 27.167 3.66699 31.5 11
s6.5 16.666 6.5 27.999c-18 -2 -31 1 -39 9s-12 19.667 -12 35c0 11.333 3 21.166 9 29.499s17 12.5 33 12.5c14 0 24.167 -4.16699 30.5 -12.5s9.5 -23.5 9.5 -45.5c0 -34.667 -4.83301 -62.5 -14.5 -83.5s-27.167 -31.5 -52.5 -31.5h-19z" />
    <glyph glyph-name="uni0157" unicode="&#x157;" horiz-adv-x="317" 
d="M27 -212v48.002h17c16.667 0 27.167 3.66699 31.5 11s6.5 16.666 6.5 27.999c-18 -2 -31 1 -39 9s-12 19.667 -12 35c0 11.333 3 21.166 9 29.499s17 12.5 33 12.5c14 0 24.167 -4.16699 30.5 -12.5s9.5 -23.5 9.5 -45.5c0 -34.667 -4.83301 -62.5 -14.5 -83.5
s-27.167 -31.5 -52.5 -31.5h-19zM50 0.00195312l0.00195312 407.001h58l7 -107c4 18 12 35.333 24 52s28.5 30.167 49.5 40.5s47.167 15.166 78.5 14.499h19v-71h-20c-42.667 0 -74.834 -6.16699 -96.501 -18.5s-36.334 -29.5 -44.001 -51.5s-11.5 -47.333 -11.5 -76v-190
h-64z" />
    <glyph glyph-name="Rcaron" unicode="&#x158;" horiz-adv-x="539" 
d="M62 0l-0.000976562 562.999h186c71.333 0 126.5 -11.333 165.5 -34s58.5 -65 58.5 -127c0 -40 -10.833 -74.5 -32.5 -103.5s-54.834 -43.5 -99.501 -43.5c28 0 48.833 -6 62.5 -18s23 -27.167 28 -45.5s7.83301 -37.333 8.5 -57s2 -37.5 4 -53.5
s6.83301 -27.667 14.5 -35s20.834 -7.66602 39.501 -0.999023v-42c-6 -5.33301 -15.167 -9.16602 -27.5 -11.499s-25.166 -1.5 -38.499 2.5s-24.5 13 -33.5 27s-13.5 34.667 -13.5 62c0 41.333 -2.33301 73.333 -7 96s-15.167 38.667 -31.5 48s-41.833 14.666 -76.5 15.999
s-82 1.33301 -142 0v-243h-65zM126.999 291.999h130.999c52.667 0 91.834 7 117.501 21s38.5 42.333 38.5 85c0 33.333 -7 57.833 -21 73.5s-34.167 25.667 -60.5 30s-58.833 6.5 -97.5 6.5h-108v-216zM96.998 748.999h69l81 -103l82 103h68l-136 -136h-28z" />
    <glyph glyph-name="rcaron" unicode="&#x159;" horiz-adv-x="334" 
d="M48 0l0.00195312 407.001h58l7 -107c4 18 12 35.333 24 52s28.5 30.167 49.5 40.5s47.167 15.166 78.5 14.499h19v-71h-20c-42.667 0 -74.834 -6.16699 -96.501 -18.5s-36.334 -29.5 -44.001 -51.5s-11.5 -47.333 -11.5 -76v-190h-64zM30.002 597.001h69l81 -103l82 103
h68l-136 -136h-28z" />
    <glyph glyph-name="Sacute" unicode="&#x15a;" horiz-adv-x="525" 
d="M269 -13c-39.333 0 -77.1689 6.49805 -113.502 19.498s-66.166 33.333 -89.499 61s-35.333 63.5 -36 107.5h64c0 -2 0.666992 -7.66699 2 -17s4.83301 -20.166 10.5 -32.499s14.834 -24.666 27.501 -36.999s30.334 -22.5 53.001 -30.5s51.667 -12 87 -12
c39.333 0 69.333 5.83301 90 17.5s34.834 25 42.501 40s11.5 26.833 11.5 35.5c0.666992 23.333 -5.66602 42 -18.999 56s-31.166 25.333 -53.499 34s-46.833 16.334 -73.5 23.001s-53.167 13.834 -79.5 21.501s-50.5 17.667 -72.5 30s-39.333 28.5 -52 48.5
s-18.334 45.667 -17.001 77c1.33301 30 11.666 55.667 30.999 77s45.166 37.833 77.499 49.5s69.166 17.5 110.499 17.5c38 0 73.167 -6.83301 105.5 -20.5s58.166 -34.167 77.499 -61.5s28.333 -61.333 27 -102h-63c0.666992 25.333 -4.16602 46.166 -14.499 62.499
s-23.833 28.833 -40.5 37.5s-33.834 14.834 -51.501 18.501s-33.167 5.5 -46.5 5.5c-42 0 -76.667 -8.33301 -104 -25s-41.333 -38.334 -42 -65.001c0 -23.333 6.66699 -42 20 -56s31.166 -25.167 53.499 -33.5s46.833 -15.5 73.5 -21.5s53.167 -12.833 79.5 -20.5
s50.5 -17.5 72.5 -29.5s39.333 -28.333 52 -49s18.334 -47 17.001 -79c-1.33301 -31.333 -11.666 -57.833 -30.999 -79.5s-45 -38.334 -77 -50.001s-68.333 -17.5 -109 -17.5zM275.997 609.998h-32v10l51 103h59v-15z" />
    <glyph glyph-name="sacute" unicode="&#x15b;" horiz-adv-x="402" 
d="M200 -10c-38.667 0 -70.4961 8.17188 -95.4961 24.5049s-43.667 35.5 -56 57.5s-18.5 41.667 -18.5 59h62c0 -0.666992 0.5 -5.66699 1.5 -15s4.5 -20 10.5 -32s16.333 -22.5 31 -31.5s36 -13.5 64 -13.5c30 0 55.833 5.33301 77.5 16s32.167 27.334 31.5 50.001
c0 19.333 -6.5 34.166 -19.5 44.499s-29.833 18.333 -50.5 24s-42.334 11.167 -65.001 16.5s-44.167 12.166 -64.5 20.499s-36.833 20.166 -49.5 35.499s-19 36.666 -19 63.999c0 33.333 15 59.833 45 79.5s68.333 29.5 115 29.5c26 0 52.333 -4.16699 79 -12.5
s48.667 -22.666 66 -42.999s25.333 -48.833 24 -85.5h-60c1.33301 25.333 -4.33398 44.333 -17.001 57s-27.834 21.167 -45.501 25.5s-33.834 6.5 -48.501 6.5c-28.667 0 -52.167 -5.33301 -70.5 -16s-27.5 -25.667 -27.5 -45c0 -18.667 6.5 -32.834 19.5 -42.501
s29.667 -17.334 50 -23.001s42 -11 65 -16s44.833 -11.833 65.5 -20.5s37.5 -21 50.5 -37s19.5 -38 19.5 -66c0 -38.667 -16.333 -66.834 -49 -84.501s-73 -26.5 -121 -26.5zM216.004 458.005h-32v10l51 103h59v-15z" />
    <glyph glyph-name="Scedilla" unicode="&#x15e;" horiz-adv-x="525" 
d="M269 -13c-39.333 0 -77.1689 6.49805 -113.502 19.498s-66.166 33.333 -89.499 61s-35.333 63.5 -36 107.5h64c0 -2 0.666992 -7.66699 2 -17s4.83301 -20.166 10.5 -32.499s14.834 -24.666 27.501 -36.999s30.334 -22.5 53.001 -30.5s51.667 -12 87 -12
c39.333 0 69.333 5.83301 90 17.5s34.834 25 42.501 40s11.5 26.833 11.5 35.5c0.666992 23.333 -5.66602 42 -18.999 56s-31.166 25.333 -53.499 34s-46.833 16.334 -73.5 23.001s-53.167 13.834 -79.5 21.501s-50.5 17.667 -72.5 30s-39.333 28.5 -52 48.5
s-18.334 45.667 -17.001 77c1.33301 30 11.666 55.667 30.999 77s45.166 37.833 77.499 49.5s69.166 17.5 110.499 17.5c38 0 73.167 -6.83301 105.5 -20.5s58.166 -34.167 77.499 -61.5s28.333 -61.333 27 -102h-63c0.666992 25.333 -4.16602 46.166 -14.499 62.499
s-23.833 28.833 -40.5 37.5s-33.834 14.834 -51.501 18.501s-33.167 5.5 -46.5 5.5c-42 0 -76.667 -8.33301 -104 -25s-41.333 -38.334 -42 -65.001c0 -23.333 6.66699 -42 20 -56s31.166 -25.167 53.499 -33.5s46.833 -15.5 73.5 -21.5s53.167 -12.833 79.5 -20.5
s50.5 -17.5 72.5 -29.5s39.333 -28.333 52 -49s18.334 -47 17.001 -79c-1.33301 -31.333 -11.666 -57.833 -30.999 -79.5s-45 -38.334 -77 -50.001s-68.333 -17.5 -109 -17.5zM155.997 -132.002l22.999 32.9971c8.66699 -9.33301 20.334 -16.666 35.001 -21.999
s29.667 -8.16602 45 -8.49902s28 2.5 38 8.5s14.667 15.333 14 28c-0.666992 12 -6.33398 20 -17.001 24s-23.167 4.5 -37.5 1.5s-26.833 -8.83301 -37.5 -17.5l-29 19l40 83l34 -14l-40 -62c9.33301 8.66699 21.333 15 36 19s29.334 5 44.001 3s27.167 -7.66699 37.5 -17
s15.5 -22.666 15.5 -39.999c0 -20 -6.83301 -36.167 -20.5 -48.5s-31 -20.5 -52 -24.5s-43 -3.16699 -66 2.5s-43.833 16.5 -62.5 32.5z" />
    <glyph glyph-name="scedilla" unicode="&#x15f;" horiz-adv-x="402" 
d="M200 -10c-38.667 0 -70.4961 8.17188 -95.4961 24.5049s-43.667 35.5 -56 57.5s-18.5 41.667 -18.5 59h62c0 -0.666992 0.5 -5.66699 1.5 -15s4.5 -20 10.5 -32s16.333 -22.5 31 -31.5s36 -13.5 64 -13.5c30 0 55.833 5.33301 77.5 16s32.167 27.334 31.5 50.001
c0 19.333 -6.5 34.166 -19.5 44.499s-29.833 18.333 -50.5 24s-42.334 11.167 -65.001 16.5s-44.167 12.166 -64.5 20.499s-36.833 20.166 -49.5 35.499s-19 36.666 -19 63.999c0 33.333 15 59.833 45 79.5s68.333 29.5 115 29.5c26 0 52.333 -4.16699 79 -12.5
s48.667 -22.666 66 -42.999s25.333 -48.833 24 -85.5h-60c1.33301 25.333 -4.33398 44.333 -17.001 57s-27.834 21.167 -45.501 25.5s-33.834 6.5 -48.501 6.5c-28.667 0 -52.167 -5.33301 -70.5 -16s-27.5 -25.667 -27.5 -45c0 -18.667 6.5 -32.834 19.5 -42.501
s29.667 -17.334 50 -23.001s42 -11 65 -16s44.833 -11.833 65.5 -20.5s37.5 -21 50.5 -37s19.5 -38 19.5 -66c0 -38.667 -16.333 -66.834 -49 -84.501s-73 -26.5 -121 -26.5zM108.004 -126.995l22.999 32.9971c8.66699 -9.33301 20.334 -16.666 35.001 -21.999
s29.667 -8.16602 45 -8.49902s28 2.5 38 8.5s14.667 15.333 14 28c-0.666992 12 -6.33398 20 -17.001 24s-23.167 4.5 -37.5 1.5s-26.833 -8.83301 -37.5 -17.5l-29 19l40 83l34 -14l-40 -62c9.33301 8.66699 21.333 15 36 19s29.334 5 44.001 3s27.167 -7.66699 37.5 -17
s15.5 -22.666 15.5 -39.999c0 -20 -6.83301 -36.167 -20.5 -48.5s-31 -20.5 -52 -24.5s-43 -3.16699 -66 2.5s-43.833 16.5 -62.5 32.5z" />
    <glyph glyph-name="Scaron" unicode="&#x160;" horiz-adv-x="520" 
d="M269 -13c-39.333 0 -77.1689 6.49805 -113.502 19.498s-66.166 33.333 -89.499 61s-35.333 63.5 -36 107.5h64c0 -2 0.666992 -7.66699 2 -17s4.83301 -20.166 10.5 -32.499s14.834 -24.666 27.501 -36.999s30.334 -22.5 53.001 -30.5s51.667 -12 87 -12
c39.333 0 69.333 5.83301 90 17.5s34.834 25 42.501 40s11.5 26.833 11.5 35.5c0.666992 23.333 -5.66602 42 -18.999 56s-31.166 25.333 -53.499 34s-46.833 16.334 -73.5 23.001s-53.167 13.834 -79.5 21.501s-50.5 17.667 -72.5 30s-39.333 28.5 -52 48.5
s-18.334 45.667 -17.001 77c1.33301 30 11.666 55.667 30.999 77s45.166 37.833 77.499 49.5s69.166 17.5 110.499 17.5c38 0 73.167 -6.83301 105.5 -20.5s58.166 -34.167 77.499 -61.5s28.333 -61.333 27 -102h-63c0.666992 25.333 -4.16602 46.166 -14.499 62.499
s-23.833 28.833 -40.5 37.5s-33.834 14.834 -51.501 18.501s-33.167 5.5 -46.5 5.5c-42 0 -76.667 -8.33301 -104 -25s-41.333 -38.334 -42 -65.001c0 -23.333 6.66699 -42 20 -56s31.166 -25.167 53.499 -33.5s46.833 -15.5 73.5 -21.5s53.167 -12.833 79.5 -20.5
s50.5 -17.5 72.5 -29.5s39.333 -28.333 52 -49s18.334 -47 17.001 -79c-1.33301 -31.333 -11.666 -57.833 -30.999 -79.5s-45 -38.334 -77 -50.001s-68.333 -17.5 -109 -17.5zM115.997 748.998h69l81 -103l82 103h68l-136 -136h-28z" />
    <glyph glyph-name="scaron" unicode="&#x161;" horiz-adv-x="431" 
d="M200 -10c-38.667 0 -70.4961 8.17188 -95.4961 24.5049s-43.667 35.5 -56 57.5s-18.5 41.667 -18.5 59h62c0 -0.666992 0.5 -5.66699 1.5 -15s4.5 -20 10.5 -32s16.333 -22.5 31 -31.5s36 -13.5 64 -13.5c30 0 55.833 5.33301 77.5 16s32.167 27.334 31.5 50.001
c0 19.333 -6.5 34.166 -19.5 44.499s-29.833 18.333 -50.5 24s-42.334 11.167 -65.001 16.5s-44.167 12.166 -64.5 20.499s-36.833 20.166 -49.5 35.499s-19 36.666 -19 63.999c0 33.333 15 59.833 45 79.5s68.333 29.5 115 29.5c26 0 52.333 -4.16699 79 -12.5
s48.667 -22.666 66 -42.999s25.333 -48.833 24 -85.5h-60c1.33301 25.333 -4.33398 44.333 -17.001 57s-27.834 21.167 -45.501 25.5s-33.834 6.5 -48.501 6.5c-28.667 0 -52.167 -5.33301 -70.5 -16s-27.5 -25.667 -27.5 -45c0 -18.667 6.5 -32.834 19.5 -42.501
s29.667 -17.334 50 -23.001s42 -11 65 -16s44.833 -11.833 65.5 -20.5s37.5 -21 50.5 -37s19.5 -38 19.5 -66c0 -38.667 -16.333 -66.834 -49 -84.501s-73 -26.5 -121 -26.5zM52.0039 597.005h69l81 -103l82 103h68l-136 -136h-28z" />
    <glyph glyph-name="uni0162" unicode="&#x162;" horiz-adv-x="449" 
d="M10 507v56h425v-56h-180v-507h-64v507h-181zM125 -132l22.999 32.9971c8.66699 -9.33301 20.334 -16.666 35.001 -21.999s29.667 -8.16602 45 -8.49902s28 2.5 38 8.5s14.667 15.333 14 28c-0.666992 12 -6.33398 20 -17.001 24s-23.167 4.5 -37.5 1.5
s-26.833 -8.83301 -37.5 -17.5l-29 19l40 83l34 -14l-40 -62c9.33301 8.66699 21.333 15 36 19s29.334 5 44.001 3s27.167 -7.66699 37.5 -17s15.5 -22.666 15.5 -39.999c0 -20 -6.83301 -36.167 -20.5 -48.5s-31 -20.5 -52 -24.5s-43 -3.16699 -66 2.5
s-43.833 16.5 -62.5 32.5z" />
    <glyph glyph-name="uni0163" unicode="&#x163;" horiz-adv-x="276" 
d="M140 0c-24.667 0 -41.832 6.66699 -51.499 20s-14.5 31.666 -14.5 54.999v284h-64v48c21.333 0 37.166 1.83301 47.499 5.5s16.833 12.834 19.5 27.501s4 38.667 4 72h55v-105h94v-48h-94v-307h95v-52h-91zM44.002 -127l22.999 32.9971
c8.66699 -9.33301 20.334 -16.666 35.001 -21.999s29.667 -8.16602 45 -8.49902s28 2.5 38 8.5s14.667 15.333 14 28c-0.666992 12 -6.33398 20 -17.001 24s-23.167 4.5 -37.5 1.5s-26.833 -8.83301 -37.5 -17.5l-29 19l40 83l34 -14l-40 -62
c9.33301 8.66699 21.333 15 36 19s29.334 5 44.001 3s27.167 -7.66699 37.5 -17s15.5 -22.666 15.5 -39.999c0 -20 -6.83301 -36.167 -20.5 -48.5s-31 -20.5 -52 -24.5s-43 -3.16699 -66 2.5s-43.833 16.5 -62.5 32.5z" />
    <glyph glyph-name="Tcaron" unicode="&#x164;" horiz-adv-x="449" 
d="M10 507v56h425v-56h-180v-507h-64v507h-181zM74 749h69l81 -103l82 103h68l-136 -136h-28z" />
    <glyph glyph-name="tcaron" unicode="&#x165;" horiz-adv-x="278" 
d="M177 450l33 147h64l-60 -147h-37zM140 0c-24.667 0 -41.832 6.66699 -51.499 20s-14.5 31.666 -14.5 54.999v284h-64v48c21.333 0 37.166 1.83301 47.499 5.5s16.833 12.834 19.5 27.501s4 38.667 4 72h55v-105h94v-48h-94v-307h95v-52h-91z" />
    <glyph glyph-name="Tbar" unicode="&#x166;" horiz-adv-x="449" 
d="M56 280v49h135v178h-181v56h425v-56h-180v-178h134v-49h-134v-280h-64v280h-135z" />
    <glyph glyph-name="tbar" unicode="&#x167;" horiz-adv-x="276" 
d="M17 193v48.998h57v114h-64v52c21.333 0 37.166 1.83301 47.499 5.5s16.833 12.834 19.5 27.501s4 38.667 4 72h55v-105h94v-52h-94v-114h81v-49h-81v-86c0 -25.333 4.83301 -43.166 14.5 -53.499s21.334 -14.833 35.001 -13.5s26.5 6.33301 38.5 15l6 -38
c-23.333 -18 -47 -27 -71 -27s-44.167 8.83301 -60.5 26.5s-24.5 43.167 -24.5 76.5v100h-57z" />
    <glyph glyph-name="Utilde" unicode="&#x168;" horiz-adv-x="577" 
d="M286 -14c-75.333 0 -133.167 22.167 -173.5 66.5s-60.5 106.833 -60.5 187.5v323h66v-323c0 -67.333 16 -116.333 48 -147s72 -46 120 -46c52 0 93.167 15.167 123.5 45.5s45.5 79.5 45.5 147.5v323h66v-323c0 -82 -19.833 -144.833 -59.5 -188.5
s-98.167 -65.5 -175.5 -65.5zM339.999 624c-15.333 0 -27.498 2.82812 -36.498 8.49512s-16.667 12 -23 19s-12.5 13.333 -18.5 19s-13.667 8.5 -23 8.5c-11.333 0 -18.166 -4.66699 -20.499 -14s-3.5 -22.333 -3.5 -39h-42
c-0.666992 12.667 0.166016 26.334 2.49902 41.001s8 26.834 17 36.501s23.5 14.5 43.5 14.5c15.333 0 27.666 -2.66699 36.999 -8s17 -11.666 23 -18.999s12.167 -13.666 18.5 -18.999s14.166 -8 23.499 -8c11.333 0 18 4.66699 20 14s3 22.666 3 39.999h43
c0.666992 -15.333 -0.5 -30.166 -3.5 -44.499s-9 -26.166 -18 -35.499s-23.167 -14 -42.5 -14z" />
    <glyph glyph-name="utilde" unicode="&#x169;" horiz-adv-x="445" 
d="M189 -10c-33.333 0 -60.1621 6.00195 -80.4951 18.002s-35.833 28.167 -46.5 48.5s-17.834 42.666 -21.501 66.999s-5.5 48.833 -5.5 73.5v210h64v-211c0 -26.667 2.66699 -51.334 8 -74.001s16.166 -40.667 32.499 -54s40.166 -20 71.499 -20
c30 0 53.5 6.83301 70.5 20.5s29.5 31.5 37.5 53.5s12.667 45 14 69v216h66v-407h-55l-11 91h-2c-3.33301 -11.333 -10.333 -25 -21 -41s-25.834 -30 -45.501 -42s-44.834 -18 -75.501 -18zM272.004 484.002c-15.333 0 -27.498 2.82812 -36.498 8.49512s-16.667 12 -23 19
s-12.5 13.333 -18.5 19s-13.667 8.5 -23 8.5c-11.333 0 -18.166 -4.66699 -20.499 -14s-3.5 -22.333 -3.5 -39h-42c-0.666992 12.667 0.166016 26.334 2.49902 41.001s8 26.834 17 36.501s23.5 14.5 43.5 14.5c15.333 0 27.666 -2.66699 36.999 -8s17 -11.666 23 -18.999
s12.167 -13.666 18.5 -18.999s14.166 -8 23.499 -8c11.333 0 18 4.66699 20 14s3 22.666 3 39.999h43c0.666992 -15.333 -0.5 -30.166 -3.5 -44.499s-9 -26.166 -18 -35.499s-23.167 -14 -42.5 -14z" />
    <glyph glyph-name="Umacron" unicode="&#x16a;" horiz-adv-x="572" 
d="M286 -14c-75.333 0 -133.167 22.167 -173.5 66.5s-60.5 106.833 -60.5 187.5v323h66v-323c0 -67.333 16 -116.333 48 -147s72 -46 120 -46c52 0 93.167 15.167 123.5 45.5s45.5 79.5 45.5 147.5v323h66v-323c0 -82 -19.833 -144.833 -59.5 -188.5
s-98.167 -65.5 -175.5 -65.5zM161.999 620v49h249v-49h-249z" />
    <glyph glyph-name="umacron" unicode="&#x16b;" horiz-adv-x="450" 
d="M189 -10c-33.333 0 -60.1621 6.00195 -80.4951 18.002s-35.833 28.167 -46.5 48.5s-17.834 42.666 -21.501 66.999s-5.5 48.833 -5.5 73.5v210h64v-211c0 -26.667 2.66699 -51.334 8 -74.001s16.166 -40.667 32.499 -54s40.166 -20 71.499 -20
c30 0 53.5 6.83301 70.5 20.5s29.5 31.5 37.5 53.5s12.667 45 14 69v216h66v-407h-55l-11 91h-2c-3.33301 -11.333 -10.333 -25 -21 -41s-25.834 -30 -45.501 -42s-44.834 -18 -75.501 -18zM91.0039 466.002v49h249v-49h-249z" />
    <glyph glyph-name="Uring" unicode="&#x16e;" horiz-adv-x="577" 
d="M286 -14c-75.333 0 -133.167 22.167 -173.5 66.5s-60.5 106.833 -60.5 187.5v323h66v-323c0 -67.333 16 -116.333 48 -147s72 -46 120 -46c52 0 93.167 15.167 123.5 45.5s45.5 79.5 45.5 147.5v323h66v-323c0 -82 -19.833 -144.833 -59.5 -188.5
s-98.167 -65.5 -175.5 -65.5zM282.999 592c-29.333 0 -51.833 8.16797 -67.5 24.501s-23.5 38.166 -23.5 65.499s7.66699 49.333 23 66s38 25 68 25c28.667 0 51.167 -8.33301 67.5 -25s24.5 -38.667 24.5 -66c0 -26 -8.16699 -47.5 -24.5 -64.5s-38.833 -25.5 -67.5 -25.5z
M281.999 632.001c16.667 0 29.5 5.00098 38.5 15.001s13.5 22 13.5 36c0 14.667 -4.5 27.167 -13.5 37.5s-21.833 15.5 -38.5 15.5s-29.5 -5.16699 -38.5 -15.5s-13.5 -22.833 -13.5 -37.5s4.83301 -26.834 14.5 -36.501s22.167 -14.5 37.5 -14.5z" />
    <glyph glyph-name="uring" unicode="&#x16f;" horiz-adv-x="445" 
d="M189 -10c-33.333 0 -60.1621 6.00195 -80.4951 18.002s-35.833 28.167 -46.5 48.5s-17.834 42.666 -21.501 66.999s-5.5 48.833 -5.5 73.5v210h64v-211c0 -26.667 2.66699 -51.334 8 -74.001s16.166 -40.667 32.499 -54s40.166 -20 71.499 -20
c30 0 53.5 6.83301 70.5 20.5s29.5 31.5 37.5 53.5s12.667 45 14 69v216h66v-407h-55l-11 91h-2c-3.33301 -11.333 -10.333 -25 -21 -41s-25.834 -30 -45.501 -42s-44.834 -18 -75.501 -18zM215.004 454.002c-29.333 0 -51.833 8.16797 -67.5 24.501
s-23.5 38.166 -23.5 65.499s7.66699 49.333 23 66s38 25 68 25c28.667 0 51.167 -8.33301 67.5 -25s24.5 -38.667 24.5 -66c0 -26 -8.16699 -47.5 -24.5 -64.5s-38.833 -25.5 -67.5 -25.5zM214.004 494.003c16.667 0 29.5 5.00098 38.5 15.001s13.5 22 13.5 36
c0 14.667 -4.5 27.167 -13.5 37.5s-21.833 15.5 -38.5 15.5s-29.5 -5.16699 -38.5 -15.5s-13.5 -22.833 -13.5 -37.5s4.83301 -26.834 14.5 -36.501s22.167 -14.5 37.5 -14.5z" />
    <glyph glyph-name="Uhungarumlaut" unicode="&#x170;" horiz-adv-x="572" 
d="M178 639l77 138l56 -27l-101 -125zM319 639l77 138l55 -27l-101 -125zM286 -14c-75.333 0 -133.167 22.167 -173.5 66.5s-60.5 106.833 -60.5 187.5v323h66v-323c0 -67.333 16 -116.333 48 -147s72 -46 120 -46c52 0 93.167 15.167 123.5 45.5s45.5 79.5 45.5 147.5v323
h66v-323c0 -82 -19.833 -144.833 -59.5 -188.5s-98.167 -65.5 -175.5 -65.5z" />
    <glyph glyph-name="uhungarumlaut" unicode="&#x171;" horiz-adv-x="456" 
d="M117 464l77 138l56 -27l-101 -125zM258 464l77 138l55 -27l-101 -125zM189 -10c-33.333 0 -60.1621 6.00195 -80.4951 18.002s-35.833 28.167 -46.5 48.5s-17.834 42.666 -21.501 66.999s-5.5 48.833 -5.5 73.5v210h64v-211c0 -26.667 2.66699 -51.334 8 -74.001
s16.166 -40.667 32.499 -54s40.166 -20 71.499 -20c30 0 53.5 6.83301 70.5 20.5s29.5 31.5 37.5 53.5s12.667 45 14 69v216h66v-407h-55l-11 91h-2c-3.33301 -11.333 -10.333 -25 -21 -41s-25.834 -30 -45.501 -42s-44.834 -18 -75.501 -18z" />
    <glyph glyph-name="Uogonek" unicode="&#x172;" horiz-adv-x="577" 
d="M295 -194c-24.667 0 -45.501 7.16895 -62.501 21.502s-25.5 34.5 -25.5 60.5c0 21.333 6.33301 40.333 19 57s27.334 30.334 44.001 41.001c-70.667 3.33301 -124.667 27.166 -162 71.499s-56 105.166 -56 182.499v323h66v-323c0 -67.333 16 -116.333 48 -147
s72 -46 120 -46c52 0 93.167 15.167 123.5 45.5s45.5 79.5 45.5 147.5v323h66v-323c0 -72 -15.5 -129.333 -46.5 -172s-76.5 -68.667 -136.5 -78c-8 -4 -18.5 -10.167 -31.5 -18.5s-24.667 -18.833 -35 -31.5s-15.5 -27.334 -15.5 -44.001c0 -12 3.66699 -21.833 11 -29.5
s18 -11.5 32 -11.5c12 0 21.333 2.5 28 7.5s11.5 10.167 14.5 15.5l4.5 8l38 -31l-9.5 -12.5c-6.33301 -8.33301 -16 -16.5 -29 -24.5s-29.833 -12 -50.5 -12z" />
    <glyph glyph-name="uogonek" unicode="&#x173;" horiz-adv-x="450" 
d="M189 -10c-33.333 0 -60.1621 6.00293 -80.4951 18.0029s-35.833 28.167 -46.5 48.5s-17.834 42.666 -21.501 66.999s-5.5 48.833 -5.5 73.5v210h64v-211c0 -26.667 2.66699 -51.334 8 -74.001s16.166 -40.667 32.499 -54s40.166 -20 71.499 -20
c30 0 53.5 6.83301 70.5 20.5s29.5 31.5 37.5 53.5s12.667 45 14 69v216h66v-407h-3l-13.5 -7c-9 -4.66699 -19.5 -11.5 -31.5 -20.5s-22.667 -19.833 -32 -32.5s-14 -26.667 -14 -42c0 -12 3.66699 -21.833 11 -29.5s18 -11.5 32 -11.5c12 0 21.333 2.5 28 7.5
s11.5 10.167 14.5 15.5l4.5 8l38 -31l-9.5 -12.5c-6.33301 -8.33301 -16 -16.5 -29 -24.5s-29.833 -12 -50.5 -12c-24.667 0 -45.5 7.16699 -62.5 21.5s-25.5 34.5 -25.5 60.5c0 18 4.5 34.333 13.5 49s20.333 27.667 34 39s27.167 20.666 40.5 27.999l-11 85h-2
c-3.33301 -11.333 -10.333 -25 -21 -41s-25.834 -30 -45.501 -42s-44.834 -18 -75.501 -18z" />
    <glyph glyph-name="Wcircumflex" unicode="&#x174;" horiz-adv-x="839" 
d="M749 563h70l-166 -563h-105l-136 478l-140 -478h-105l-160 563h68l145 -533l158 533h69l153 -533zM288 631v8l109 103h29l109 -103v-8h-60l-62 67h-3l-60 -67h-62z" />
    <glyph glyph-name="wcircumflex" unicode="&#x175;" horiz-adv-x="604" 
d="M112 0l-109 393v15h62l92 -353h2l105 353h57l108 -353h2l90 353h62v-15l-108 -393h-92l-89 296h-2l-88 -296h-92zM165 459v8l109 103h29l109 -103v-8h-60l-62 67h-3l-60 -67h-62z" />
    <glyph glyph-name="Ycircumflex" unicode="&#x176;" horiz-adv-x="430" 
d="M178 0v206l-191 357h72l153 -298l153 298h71l-193 -357v-206h-65zM89 631v8l109 103h29l109 -103v-8h-60l-62 67h-3l-60 -67h-62z" />
    <glyph glyph-name="ycircumflex" unicode="&#x177;" horiz-adv-x="407" 
d="M-3 -182l-0.00195312 52h56c13.333 0 24.333 3.5 33 10.5s19.334 23.833 32.001 50.5l43 93l-160 383h67l125 -315l133 315h68l-218 -485c-13.333 -30 -25.166 -52.5 -35.499 -67.5s-21.833 -24.833 -34.5 -29.5s-28.667 -7 -48 -7h-61zM77.998 459v8l109 103h29
l109 -103v-8h-60l-62 67h-3l-60 -67h-62z" />
    <glyph glyph-name="Ydieresis" unicode="&#x178;" horiz-adv-x="430" 
d="M178 0v206l-191 357h72l153 -298l153 298h71l-193 -357v-206h-65zM135 622c-18.667 0 -31.334 4.83301 -38.001 14.5s-10 20.834 -10 33.501c0 12 3.33301 22.833 10 32.5s19.334 14.5 38.001 14.5c19.333 0 32 -4.83301 38 -14.5s9 -20.5 9 -32.5
c0 -12.667 -3 -23.834 -9 -33.501s-18.667 -14.5 -38 -14.5zM292 622c-19.333 0 -32.166 4.83301 -38.499 14.5s-9.5 20.834 -9.5 33.501c0 12 3.16699 22.833 9.5 32.5s19.166 14.5 38.499 14.5c18.667 0 31 -4.83301 37 -14.5s9 -20.5 9 -32.5
c0 -12.667 -3 -23.834 -9 -33.501s-18.333 -14.5 -37 -14.5z" />
    <glyph glyph-name="Zacute" unicode="&#x179;" horiz-adv-x="544" 
d="M37 0v54l380 452h-349v57h431v-55l-378 -451h376v-57h-460zM291 610h-32v10l51 103h59v-15z" />
    <glyph glyph-name="zacute" unicode="&#x17a;" horiz-adv-x="430" 
d="M35 0v47l277 310h-264v51h344v-48l-276 -308h276v-52h-357zM220 458h-32v10l51 103h59v-15z" />
    <glyph glyph-name="Zdotaccent" unicode="&#x17b;" horiz-adv-x="544" 
d="M37 0v54l380 452h-349v57h431v-55l-378 -451h376v-57h-460zM278 636c-18.667 0 -31.334 4.83301 -38.001 14.5s-10 20.834 -10 33.501s3.33301 23.667 10 33s19.334 14 38.001 14c19.333 0 32 -4.66699 38 -14s9 -20.333 9 -33s-3 -23.834 -9 -33.501
s-18.667 -14.5 -38 -14.5z" />
    <glyph glyph-name="zdotaccent" unicode="&#x17c;" horiz-adv-x="430" 
d="M35 0v47l277 310h-264v51h344v-48l-276 -308h276v-52h-357zM217 456c-18.667 0 -31.334 4.83301 -38.001 14.5s-10 20.834 -10 33.501s3.33301 23.667 10 33s19.334 14 38.001 14c19.333 0 32 -4.66699 38 -14s9 -20.333 9 -33s-3 -23.834 -9 -33.501
s-18.667 -14.5 -38 -14.5z" />
    <glyph glyph-name="Zcaron" unicode="&#x17d;" horiz-adv-x="544" 
d="M37 0v54l380 452h-349v57h431v-55l-378 -451h376v-57h-460zM134 749h69l81 -103l82 103h68l-136 -136h-28z" />
    <glyph glyph-name="zcaron" unicode="&#x17e;" horiz-adv-x="430" 
d="M35 0v47l277 310h-264v51h344v-48l-276 -308h276v-52h-357zM72 597h69l81 -103l82 103h68l-136 -136h-28z" />
    <glyph glyph-name="Ohorn" unicode="&#x1a0;" horiz-adv-x="604" 
d="M295 -14c-89.333 0 -157.331 26.5 -203.998 79.5s-70 124.5 -70 214.5c0 59.333 10.167 110.833 30.5 154.5s50.666 77.667 90.999 102s91.166 36.5 152.499 36.5c89.333 0 157 -26.5 203 -79.5s69 -124.167 69 -213.5c0 -58 -10.167 -109.167 -30.5 -153.5
s-50.833 -78.833 -91.5 -103.5s-90.667 -37 -150 -37zM294.002 48c70 0 122.501 21.333 157.501 64s52.5 98.667 52.5 168s-17.333 125.5 -52 168.5s-87.334 64.5 -158.001 64.5c-68.667 0 -120.834 -20.833 -156.501 -62.5s-53.5 -98.5 -53.5 -170.5
c0 -68.667 17.333 -124.5 52 -167.5s87.334 -64.5 158.001 -64.5zM372.003 521l2 42h28c12.667 0 20.5 2.5 23.5 7.5s4.5 15.833 4.5 32.5h56c0 -30 -7 -51.167 -21 -63.5s-36 -18.5 -66 -18.5h-27z" />
    <glyph glyph-name="ohorn" unicode="&#x1a1;" 
d="M222 -10c-65.333 0 -114.166 19.4971 -146.499 58.4971s-48.5 88.833 -48.5 149.5c-0.666992 61.333 15.5 111.5 48.5 150.5s81.833 58.833 146.5 59.5c64 0 112.5 -19.167 145.5 -57.5s49.5 -89.166 49.5 -152.499c0 -39.333 -7 -74.666 -21 -105.999
s-35.333 -56.166 -64 -74.499s-65.334 -27.5 -110.001 -27.5zM222 45.9971c34.667 0 61.5 7.66699 80.5 23s32.333 34.833 40 58.5s11.5 47.834 11.5 72.501s-3.83301 49 -11.5 73s-21 43.667 -40 59s-45.833 23 -80.5 23s-61.5 -7.66699 -80.5 -23s-32.333 -35 -40 -59
s-11.5 -48.333 -11.5 -73s3.83301 -48.834 11.5 -72.501s21 -43.167 40 -58.5s45.833 -23 80.5 -23zM284 352.997l2 42h28c12.667 0 20.5 2.5 23.5 7.5s4.5 15.833 4.5 32.5h56c0 -30 -7 -51.167 -21 -63.5s-36 -18.5 -66 -18.5h-27z" />
    <glyph glyph-name="Uhorn" unicode="&#x1af;" horiz-adv-x="577" 
d="M493 521l2 42h28c12.667 0 20.5 2.5 23.5 7.5s4.5 15.833 4.5 32.5h56c0 -30 -7 -51.167 -21 -63.5s-36 -18.5 -66 -18.5h-27zM286 -14c-75.333 0 -133.167 22.167 -173.5 66.5s-60.5 106.833 -60.5 187.5v323h66v-323c0 -67.333 16 -116.333 48 -147s72 -46 120 -46
c52 0 93.167 15.167 123.5 45.5s45.5 79.5 45.5 147.5v323h66v-323c0 -82 -19.833 -144.833 -59.5 -188.5s-98.167 -65.5 -175.5 -65.5z" />
    <glyph glyph-name="uhorn" unicode="&#x1b0;" 
d="M189 -10c-33.333 0 -60.1621 6.00195 -80.4951 18.002s-35.833 28.167 -46.5 48.5s-17.834 42.666 -21.501 66.999s-5.5 48.833 -5.5 73.5v210h64v-211c0 -26.667 2.66699 -51.334 8 -74.001s16.166 -40.667 32.499 -54s40.166 -20 71.499 -20
c30 0 53.5 6.83301 70.5 20.5s29.5 31.5 37.5 53.5s12.667 45 14 69v216h66v-407h-55l-11 91h-2c-3.33301 -11.333 -10.333 -25 -21 -41s-25.834 -30 -45.501 -42s-44.834 -18 -75.501 -18zM363.004 365.002l2 42h28c12.667 0 20.5 2.5 23.5 7.5s4.5 15.833 4.5 32.5h56
c0 -30 -7 -51.167 -21 -63.5s-36 -18.5 -66 -18.5h-27z" />
    <glyph glyph-name="uni0218" unicode="&#x218;" horiz-adv-x="525" 
d="M269 -13c-39.333 0 -77.1689 6.49805 -113.502 19.498s-66.166 33.333 -89.499 61s-35.333 63.5 -36 107.5h64c0 -2 0.666992 -7.66699 2 -17s4.83301 -20.166 10.5 -32.499s14.834 -24.666 27.501 -36.999s30.334 -22.5 53.001 -30.5s51.667 -12 87 -12
c39.333 0 69.333 5.83301 90 17.5s34.834 25 42.501 40s11.5 26.833 11.5 35.5c0.666992 23.333 -5.66602 42 -18.999 56s-31.166 25.333 -53.499 34s-46.833 16.334 -73.5 23.001s-53.167 13.834 -79.5 21.501s-50.5 17.667 -72.5 30s-39.333 28.5 -52 48.5
s-18.334 45.667 -17.001 77c1.33301 30 11.666 55.667 30.999 77s45.166 37.833 77.499 49.5s69.166 17.5 110.499 17.5c38 0 73.167 -6.83301 105.5 -20.5s58.166 -34.167 77.499 -61.5s28.333 -61.333 27 -102h-63c0.666992 25.333 -4.16602 46.166 -14.499 62.499
s-23.833 28.833 -40.5 37.5s-33.834 14.834 -51.501 18.501s-33.167 5.5 -46.5 5.5c-42 0 -76.667 -8.33301 -104 -25s-41.333 -38.334 -42 -65.001c0 -23.333 6.66699 -42 20 -56s31.166 -25.167 53.499 -33.5s46.833 -15.5 73.5 -21.5s53.167 -12.833 79.5 -20.5
s50.5 -17.5 72.5 -29.5s39.333 -28.333 52 -49s18.334 -47 17.001 -79c-1.33301 -31.333 -11.666 -57.833 -30.999 -79.5s-45 -38.334 -77 -50.001s-68.333 -17.5 -109 -17.5zM210.997 -231.002v48.002h17c16.667 0 27.167 3.66699 31.5 11s6.5 16.666 6.5 27.999
c-18 -2 -31 1 -39 9s-12 19.667 -12 35c0 11.333 3 21.166 9 29.499s17 12.5 33 12.5c14 0 24.167 -4.16699 30.5 -12.5s9.5 -23.5 9.5 -45.5c0 -34.667 -4.83301 -62.5 -14.5 -83.5s-27.167 -31.5 -52.5 -31.5h-19z" />
    <glyph glyph-name="uni0219" unicode="&#x219;" horiz-adv-x="402" 
d="M200 -10c-38.667 0 -70.4961 8.17188 -95.4961 24.5049s-43.667 35.5 -56 57.5s-18.5 41.667 -18.5 59h62c0 -0.666992 0.5 -5.66699 1.5 -15s4.5 -20 10.5 -32s16.333 -22.5 31 -31.5s36 -13.5 64 -13.5c30 0 55.833 5.33301 77.5 16s32.167 27.334 31.5 50.001
c0 19.333 -6.5 34.166 -19.5 44.499s-29.833 18.333 -50.5 24s-42.334 11.167 -65.001 16.5s-44.167 12.166 -64.5 20.499s-36.833 20.166 -49.5 35.499s-19 36.666 -19 63.999c0 33.333 15 59.833 45 79.5s68.333 29.5 115 29.5c26 0 52.333 -4.16699 79 -12.5
s48.667 -22.666 66 -42.999s25.333 -48.833 24 -85.5h-60c1.33301 25.333 -4.33398 44.333 -17.001 57s-27.834 21.167 -45.501 25.5s-33.834 6.5 -48.501 6.5c-28.667 0 -52.167 -5.33301 -70.5 -16s-27.5 -25.667 -27.5 -45c0 -18.667 6.5 -32.834 19.5 -42.501
s29.667 -17.334 50 -23.001s42 -11 65 -16s44.833 -11.833 65.5 -20.5s37.5 -21 50.5 -37s19.5 -38 19.5 -66c0 -38.667 -16.333 -66.834 -49 -84.501s-73 -26.5 -121 -26.5zM151.004 -211.995v48.002h17c16.667 0 27.167 3.66699 31.5 11s6.5 16.666 6.5 27.999
c-18 -2 -31 1 -39 9s-12 19.667 -12 35c0 11.333 3 21.166 9 29.499s17 12.5 33 12.5c14 0 24.167 -4.16699 30.5 -12.5s9.5 -23.5 9.5 -45.5c0 -34.667 -4.83301 -62.5 -14.5 -83.5s-27.167 -31.5 -52.5 -31.5h-19z" />
    <glyph glyph-name="uni021A" unicode="&#x21a;" horiz-adv-x="449" 
d="M10 507v56h425v-56h-180v-507h-64v507h-181zM161 -231v48.002h17c16.667 0 27.167 3.66699 31.5 11s6.5 16.666 6.5 27.999c-18 -2 -31 1 -39 9s-12 19.667 -12 35c0 11.333 3 21.166 9 29.499s17 12.5 33 12.5c14 0 24.167 -4.16699 30.5 -12.5s9.5 -23.5 9.5 -45.5
c0 -34.667 -4.83301 -62.5 -14.5 -83.5s-27.167 -31.5 -52.5 -31.5h-19z" />
    <glyph glyph-name="uni021B" unicode="&#x21b;" horiz-adv-x="276" 
d="M140 0c-24.667 0 -41.832 6.66699 -51.499 20s-14.5 31.666 -14.5 54.999v284h-64v48c21.333 0 37.166 1.83301 47.499 5.5s16.833 12.834 19.5 27.501s4 38.667 4 72h55v-105h94v-48h-94v-307h95v-52h-91zM78.002 -212v48.002h17c16.667 0 27.167 3.66699 31.5 11
s6.5 16.666 6.5 27.999c-18 -2 -31 1 -39 9s-12 19.667 -12 35c0 11.333 3 21.166 9 29.499s17 12.5 33 12.5c14 0 24.167 -4.16699 30.5 -12.5s9.5 -23.5 9.5 -45.5c0 -34.667 -4.83301 -62.5 -14.5 -83.5s-27.167 -31.5 -52.5 -31.5h-19z" />
    <glyph glyph-name="circumflex" unicode="&#x2c6;" 
d="M86 651v8l109 103h29l109 -103v-8h-60l-62 67h-3l-60 -67h-62z" />
    <glyph glyph-name="caron" unicode="&#x2c7;" horiz-adv-x="406" 
d="M53 761h69l81 -103l82 103h68l-136 -136h-28z" />
    <glyph glyph-name="breve" unicode="&#x2d8;" horiz-adv-x="600" 
d="M171 684c-36.667 0 -65.499 8.16699 -86.499 24.5s-31.5 38.166 -31.5 65.499h47c0 -20.667 7 -34 21 -40s30.333 -9 49 -9c19.333 0 35.666 3 48.999 9s20 19.333 20 40h48c0 -27.333 -10.167 -49.166 -30.5 -65.499s-48.833 -24.5 -85.5 -24.5z" />
    <glyph glyph-name="dotaccent" unicode="&#x2d9;" horiz-adv-x="600" 
d="M93 685c-18.667 0 -31.334 4.83301 -38.001 14.5s-10 20.834 -10 33.501s3.33301 23.667 10 33s19.334 14 38.001 14c19.333 0 32 -4.66699 38 -14s9 -20.333 9 -33s-3 -23.834 -9 -33.501s-18.667 -14.5 -38 -14.5z" />
    <glyph glyph-name="ring" unicode="&#x2da;" horiz-adv-x="600" 
d="M128 592c-29.333 0 -51.833 8.16797 -67.5 24.501s-23.5 38.166 -23.5 65.499s7.66699 49.333 23 66s38 25 68 25c28.667 0 51.167 -8.33301 67.5 -25s24.5 -38.667 24.5 -66c0 -26 -8.16699 -47.5 -24.5 -64.5s-38.833 -25.5 -67.5 -25.5zM127 632.001
c16.667 0 29.5 5.00098 38.5 15.001s13.5 22 13.5 36c0 14.667 -4.5 27.167 -13.5 37.5s-21.833 15.5 -38.5 15.5s-29.5 -5.16699 -38.5 -15.5s-13.5 -22.833 -13.5 -37.5s4.83301 -26.834 14.5 -36.501s22.167 -14.5 37.5 -14.5z" />
    <glyph glyph-name="tilde" unicode="&#x2dc;" horiz-adv-x="600" 
d="M234 605c-15.333 0 -27.498 2.82812 -36.498 8.49512s-16.667 12 -23 19s-12.5 13.333 -18.5 19s-13.667 8.5 -23 8.5c-11.333 0 -18.166 -4.66699 -20.499 -14s-3.5 -22.333 -3.5 -39h-42c-0.666992 12.667 0.166016 26.334 2.49902 41.001s8 26.834 17 36.501
s23.5 14.5 43.5 14.5c15.333 0 27.666 -2.66699 36.999 -8s17 -11.666 23 -18.999s12.167 -13.666 18.5 -18.999s14.166 -8 23.499 -8c11.333 0 18 4.66699 20 14s3 22.666 3 39.999h43c0.666992 -15.333 -0.5 -30.166 -3.5 -44.499s-9 -26.166 -18 -35.499
s-23.167 -14 -42.5 -14z" />
    <glyph glyph-name="gravecomb" unicode="&#x300;" horiz-adv-x="0" 
d="M114 632l-78 98v15h59l51 -103v-10h-32z" />
    <glyph glyph-name="acutecomb" unicode="&#x301;" horiz-adv-x="0" 
d="M68 632h-32v10l51 103h59v-15z" />
    <glyph glyph-name="uni0302" unicode="&#x302;" horiz-adv-x="0" 
d="M86 651v8l109 103h29l109 -103v-8h-60l-62 67h-3l-60 -67h-62z" />
    <glyph glyph-name="tildecomb" unicode="&#x303;" horiz-adv-x="0" 
d="M234 605c-15.333 0 -27.498 2.82812 -36.498 8.49512s-16.667 12 -23 19s-12.5 13.333 -18.5 19s-13.667 8.5 -23 8.5c-11.333 0 -18.166 -4.66699 -20.499 -14s-3.5 -22.333 -3.5 -39h-42c-0.666992 12.667 0.166016 26.334 2.49902 41.001s8 26.834 17 36.501
s23.5 14.5 43.5 14.5c15.333 0 27.666 -2.66699 36.999 -8s17 -11.666 23 -18.999s12.167 -13.666 18.5 -18.999s14.166 -8 23.499 -8c11.333 0 18 4.66699 20 14s3 22.666 3 39.999h43c0.666992 -15.333 -0.5 -30.166 -3.5 -44.499s-9 -26.166 -18 -35.499
s-23.167 -14 -42.5 -14z" />
    <glyph glyph-name="uni0304" unicode="&#x304;" horiz-adv-x="0" 
d="M40 731v49h249v-49h-249z" />
    <glyph glyph-name="uni0306" unicode="&#x306;" horiz-adv-x="0" 
d="M171 684c-36.667 0 -65.499 8.16699 -86.499 24.5s-31.5 38.166 -31.5 65.499h47c0 -20.667 7 -34 21 -40s30.333 -9 49 -9c19.333 0 35.666 3 48.999 9s20 19.333 20 40h48c0 -27.333 -10.167 -49.166 -30.5 -65.499s-48.833 -24.5 -85.5 -24.5z" />
    <glyph glyph-name="uni0307" unicode="&#x307;" horiz-adv-x="0" 
d="M93 685c-18.667 0 -31.334 4.83301 -38.001 14.5s-10 20.834 -10 33.501s3.33301 23.667 10 33s19.334 14 38.001 14c19.333 0 32 -4.66699 38 -14s9 -20.333 9 -33s-3 -23.834 -9 -33.501s-18.667 -14.5 -38 -14.5z" />
    <glyph glyph-name="uni0308" unicode="&#x308;" horiz-adv-x="0" 
d="M93 682c-18.667 0 -31.334 4.83301 -38.001 14.5s-10 20.834 -10 33.501c0 12 3.33301 22.833 10 32.5s19.334 14.5 38.001 14.5c19.333 0 32 -4.83301 38 -14.5s9 -20.5 9 -32.5c0 -12.667 -3 -23.834 -9 -33.501s-18.667 -14.5 -38 -14.5zM250 682
c-19.333 0 -32.166 4.83301 -38.499 14.5s-9.5 20.834 -9.5 33.501c0 12 3.16699 22.833 9.5 32.5s19.166 14.5 38.499 14.5c18.667 0 31 -4.83301 37 -14.5s9 -20.5 9 -32.5c0 -12.667 -3 -23.834 -9 -33.501s-18.333 -14.5 -37 -14.5z" />
    <glyph glyph-name="hookabovecomb" unicode="&#x309;" horiz-adv-x="0" 
d="M82 612l-0.00390625 11c2.66699 9.33301 8.83398 17 18.501 23s18.834 12.5 27.501 19.5s13 16.167 13 27.5s-5 19.166 -15 23.499s-20.667 4.5 -32 0.5s-19.666 -12.667 -24.999 -26l-32 16c5.33301 19.333 15.833 33.5 31.5 42.5s32.334 13.167 50.001 12.5
s33 -6.16699 46 -16.5s19.5 -25.5 19.5 -45.5c0 -17.333 -4.33301 -30.666 -13 -39.999s-17.5 -17.333 -26.5 -24s-14.5 -14.667 -16.5 -24h-46z" />
    <glyph glyph-name="uni030A" unicode="&#x30a;" horiz-adv-x="0" 
d="M128 592c-29.333 0 -51.833 8.16797 -67.5 24.501s-23.5 38.166 -23.5 65.499s7.66699 49.333 23 66s38 25 68 25c28.667 0 51.167 -8.33301 67.5 -25s24.5 -38.667 24.5 -66c0 -26 -8.16699 -47.5 -24.5 -64.5s-38.833 -25.5 -67.5 -25.5zM127 632.001
c16.667 0 29.5 5.00098 38.5 15.001s13.5 22 13.5 36c0 14.667 -4.5 27.167 -13.5 37.5s-21.833 15.5 -38.5 15.5s-29.5 -5.16699 -38.5 -15.5s-13.5 -22.833 -13.5 -37.5s4.83301 -26.834 14.5 -36.501s22.167 -14.5 37.5 -14.5z" />
    <glyph glyph-name="uni030B" unicode="&#x30b;" horiz-adv-x="0" 
d="M31 647l77 137l56 -26l-102 -126zM171 647l77 137l56 -26l-101 -126z" />
    <glyph glyph-name="uni030C" unicode="&#x30c;" horiz-adv-x="0" 
d="M53 761h69l81 -92l82 92h68v-14l-136 -122h-28l-136 122v14z" />
    <glyph glyph-name="uni0312" unicode="&#x312;" horiz-adv-x="0" 
d="M85 685c14.667 0 25.002 -3.99902 31.002 -11.999s9 -17.667 9 -29s-2.83301 -21.166 -8.5 -29.499s-15.834 -12.5 -30.501 -12.5s-24.834 4 -30.501 12s-8.5 18 -8.5 30v0v0v0v1c0 4 0.833008 13.167 2.5 27.5s5.5 29.666 11.5 45.999s15.833 30.666 29.5 42.999
s32.5 18.5 56.5 18.5v-57c-21.333 0 -37 -4 -47 -12s-17 -16.667 -21 -26h6z" />
    <glyph glyph-name="uni031B" unicode="&#x31b;" horiz-adv-x="0" 
d="M45 616l2 42h28c12.667 0 20.5 2.5 23.5 7.5s4.5 15.833 4.5 32.5h56c0 -30 -7 -51.167 -21 -63.5s-36 -18.5 -66 -18.5h-27z" />
    <glyph glyph-name="dotbelowcomb" unicode="&#x323;" horiz-adv-x="0" 
d="M86 -101c-16 0 -26.833 4 -32.5 12s-8.5 17.333 -8.5 28s2.83301 20 8.5 28s16.5 12 32.5 12s26.5 -4 31.5 -12s7.5 -17.333 7.5 -28s-2.5 -20 -7.5 -28s-15.5 -12 -31.5 -12z" />
    <glyph glyph-name="uni0326" unicode="&#x326;" horiz-adv-x="0" 
d="M50 -231v48.002h17c16.667 0 27.167 3.66699 31.5 11s6.5 16.666 6.5 27.999c-18 -2 -31 1 -39 9s-12 19.667 -12 35c0 11.333 3 21.166 9 29.499s17 12.5 33 12.5c14 0 24.167 -4.16699 30.5 -12.5s9.5 -23.5 9.5 -45.5c0 -34.667 -4.83301 -62.5 -14.5 -83.5
s-27.167 -31.5 -52.5 -31.5h-19z" />
    <glyph glyph-name="uni0327" unicode="&#x327;" horiz-adv-x="0" 
d="M33 -117l22.999 32.9971c8.66699 -9.33301 20.334 -16.666 35.001 -21.999s29.667 -8.16602 45 -8.49902s28 2.5 38 8.5s14.667 15.333 14 28c-0.666992 12 -6.33398 20 -17.001 24s-23.167 4.5 -37.5 1.5s-26.833 -8.83301 -37.5 -17.5l-29 19l40 83l34 -14l-40 -62
c9.33301 8.66699 21.333 15 36 19s29.334 5 44.001 3s27.167 -7.66699 37.5 -17s15.5 -22.666 15.5 -39.999c0 -20 -6.83301 -36.167 -20.5 -48.5s-31 -20.5 -52 -24.5s-43 -3.16699 -66 2.5s-43.833 16.5 -62.5 32.5z" />
    <glyph glyph-name="uni0328" unicode="&#x328;" horiz-adv-x="0" 
d="M128 -199c-24 0 -44.668 7.16406 -62.001 21.4971s-26 34.5 -26 60.5c0 22.667 6.83301 42.834 20.5 60.501s29.5 32.334 47.5 44.001s33.833 20.334 47.5 26.001l20.5 8.5v-29l-13 -7c-8.66699 -4.66699 -18.667 -11.5 -30 -20.5s-21.333 -19.833 -30 -32.5
s-13 -26.667 -13 -42c0 -12 3.66699 -21.833 11 -29.5s18 -11.5 32 -11.5c11.333 0 20.5 2.5 27.5 7.5s11.833 10.167 14.5 15.5l4 8l39 -31l-9.5 -12.5c-6.33301 -8.33301 -16.166 -16.5 -29.499 -24.5s-30.333 -12 -51 -12z" />
    <glyph glyph-name="Wgrave" unicode="&#x1e80;" horiz-adv-x="839" 
d="M749 563h70l-166 -563h-105l-136 478l-140 -478h-105l-160 563h68l145 -533l158 533h69l153 -533zM374 610l-78 98v15h59l51 -103v-10h-32z" />
    <glyph glyph-name="wgrave" unicode="&#x1e81;" horiz-adv-x="604" 
d="M112 0l-109 393v15h62l92 -353h2l105 353h57l108 -353h2l90 353h62v-15l-108 -393h-92l-89 296h-2l-88 -296h-92zM250 458l-78 98v15h59l51 -103v-10h-32z" />
    <glyph glyph-name="Wacute" unicode="&#x1e82;" horiz-adv-x="839" 
d="M749 563h70l-166 -563h-105l-136 478l-140 -478h-105l-160 563h68l145 -533l158 533h69l153 -533zM430 610h-32v10l51 103h59v-15z" />
    <glyph glyph-name="wacute" unicode="&#x1e83;" horiz-adv-x="604" 
d="M112 0l-109 393v15h62l92 -353h2l105 353h57l108 -353h2l90 353h62v-15l-108 -393h-92l-89 296h-2l-88 -296h-92zM309 458h-32v10l51 103h59v-15z" />
    <glyph glyph-name="Wdieresis" unicode="&#x1e84;" horiz-adv-x="839" 
d="M749 563h70l-166 -563h-105l-136 478l-140 -478h-105l-160 563h68l145 -533l158 533h69l153 -533zM334 622c-18.667 0 -31.334 4.83301 -38.001 14.5s-10 20.834 -10 33.501c0 12 3.33301 22.833 10 32.5s19.334 14.5 38.001 14.5c19.333 0 32 -4.83301 38 -14.5
s9 -20.5 9 -32.5c0 -12.667 -3 -23.834 -9 -33.501s-18.667 -14.5 -38 -14.5zM491 622c-19.333 0 -32.166 4.83301 -38.499 14.5s-9.5 20.834 -9.5 33.501c0 12 3.16699 22.833 9.5 32.5s19.166 14.5 38.499 14.5c18.667 0 31 -4.83301 37 -14.5s9 -20.5 9 -32.5
c0 -12.667 -3 -23.834 -9 -33.501s-18.333 -14.5 -37 -14.5z" />
    <glyph glyph-name="wdieresis" unicode="&#x1e85;" horiz-adv-x="604" 
d="M112 0l-109 393v15h62l92 -353h2l105 353h57l108 -353h2l90 353h62v-15l-108 -393h-92l-89 296h-2l-88 -296h-92zM212 456c-18.667 0 -31.334 4.83301 -38.001 14.5s-10 20.834 -10 33.501c0 12 3.33301 22.833 10 32.5s19.334 14.5 38.001 14.5
c19.333 0 32 -4.83301 38 -14.5s9 -20.5 9 -32.5c0 -12.667 -3 -23.834 -9 -33.501s-18.667 -14.5 -38 -14.5zM369 456c-19.333 0 -32.166 4.83301 -38.499 14.5s-9.5 20.834 -9.5 33.501c0 12 3.16699 22.833 9.5 32.5s19.166 14.5 38.499 14.5
c18.667 0 31 -4.83301 37 -14.5s9 -20.5 9 -32.5c0 -12.667 -3 -23.834 -9 -33.501s-18.333 -14.5 -37 -14.5z" />
    <glyph glyph-name="uni1EA0" unicode="&#x1ea0;" horiz-adv-x="541" 
d="M19 0l198 563h106l201 -563h-68l-61 176h-247l-61 -176h-68zM272 535l-106 -305h211zM262 -148c-16 0 -26.833 4 -32.5 12s-8.5 17.333 -8.5 28s2.83301 20 8.5 28s16.5 12 32.5 12s26.5 -4 31.5 -12s7.5 -17.333 7.5 -28s-2.5 -20 -7.5 -28s-15.5 -12 -31.5 -12z" />
    <glyph glyph-name="uni1EA1" unicode="&#x1ea1;" horiz-adv-x="427" 
d="M181 -9c-37.333 0 -68 9.16797 -92 27.501s-41.833 43.166 -53.5 74.499s-17.5 67 -17.5 107c0 61.333 13.5 111.833 40.5 151.5s67.833 59.5 122.5 59.5c28 0 51.5 -4.83301 70.5 -14.5s34.333 -21.5 46 -35.5s20.167 -27.333 25.5 -40h1v86h66v-407h-55l-10 79h-2
c-6 -13.333 -14.667 -26.833 -26 -40.5s-26.5 -25 -45.5 -34s-42.5 -13.5 -70.5 -13.5zM206 48.001c41.333 0 71.168 13.667 89.501 41s27.5 64 27.5 110c0 49.333 -9.5 87 -28.5 113s-48.5 39 -88.5 39c-44 0 -75.5 -14.5 -94.5 -43.5s-28.5 -64.833 -28.5 -107.5
c0 -44.667 9.66699 -81.167 29 -109.5s50.666 -42.5 93.999 -42.5zM204.002 -147.999c-16 0 -26.833 4 -32.5 12s-8.5 17.333 -8.5 28s2.83301 20 8.5 28s16.5 12 32.5 12s26.5 -4 31.5 -12s7.5 -17.333 7.5 -28s-2.5 -20 -7.5 -28s-15.5 -12 -31.5 -12z" />
    <glyph glyph-name="uni1EA2" unicode="&#x1ea2;" horiz-adv-x="541" 
d="M19 0l198 563h106l201 -563h-68l-61 176h-247l-61 -176h-68zM272 535l-106 -305h211zM249 618l-0.00390625 11c2.66699 9.33301 8.83398 17 18.501 23s18.834 12.5 27.501 19.5s13 16.167 13 27.5s-5 19.166 -15 23.499s-20.667 4.5 -32 0.5s-19.666 -12.667 -24.999 -26
l-32 16c5.33301 19.333 15.833 33.5 31.5 42.5s32.334 13.167 50.001 12.5s33 -6.16699 46 -16.5s19.5 -25.5 19.5 -45.5c0 -17.333 -4.33301 -30.666 -13 -39.999s-17.5 -17.333 -26.5 -24s-14.5 -14.667 -16.5 -24h-46z" />
    <glyph glyph-name="uni1EA3" unicode="&#x1ea3;" horiz-adv-x="427" 
d="M181 -9c-37.333 0 -68 9.16797 -92 27.501s-41.833 43.166 -53.5 74.499s-17.5 67 -17.5 107c0 61.333 13.5 111.833 40.5 151.5s67.833 59.5 122.5 59.5c28 0 51.5 -4.83301 70.5 -14.5s34.333 -21.5 46 -35.5s20.167 -27.333 25.5 -40h1v86h66v-407h-55l-10 79h-2
c-6 -13.333 -14.667 -26.833 -26 -40.5s-26.5 -25 -45.5 -34s-42.5 -13.5 -70.5 -13.5zM206 48.001c41.333 0 71.168 13.667 89.501 41s27.5 64 27.5 110c0 49.333 -9.5 87 -28.5 113s-48.5 39 -88.5 39c-44 0 -75.5 -14.5 -94.5 -43.5s-28.5 -64.833 -28.5 -107.5
c0 -44.667 9.66699 -81.167 29 -109.5s50.666 -42.5 93.999 -42.5zM188.002 465.001l-0.00390625 11c2.66699 9.33301 8.83398 17 18.501 23s18.834 12.5 27.501 19.5s13 16.167 13 27.5s-5 19.166 -15 23.499s-20.667 4.5 -32 0.5s-19.666 -12.667 -24.999 -26l-32 16
c5.33301 19.333 15.833 33.5 31.5 42.5s32.334 13.167 50.001 12.5s33 -6.16699 46 -16.5s19.5 -25.5 19.5 -45.5c0 -17.333 -4.33301 -30.666 -13 -39.999s-17.5 -17.333 -26.5 -24s-14.5 -14.667 -16.5 -24h-46z" />
    <glyph glyph-name="uni1EA4" unicode="&#x1ea4;" horiz-adv-x="541" 
d="M19 0l198 563h106l201 -563h-68l-61 176h-247l-61 -176h-68zM272 535l-106 -305h211zM148 606v8l109 103h29l109 -103v-8h-60l-62 67h-3l-60 -67h-62zM404 695h-32v10l51 103h59v-15z" />
    <glyph glyph-name="uni1EA5" unicode="&#x1ea5;" horiz-adv-x="427" 
d="M181 -9c-37.333 0 -68 9.16797 -92 27.501s-41.833 43.166 -53.5 74.499s-17.5 67 -17.5 107c0 61.333 13.5 111.833 40.5 151.5s67.833 59.5 122.5 59.5c28 0 51.5 -4.83301 70.5 -14.5s34.333 -21.5 46 -35.5s20.167 -27.333 25.5 -40h1v86h66v-407h-55l-10 79h-2
c-6 -13.333 -14.667 -26.833 -26 -40.5s-26.5 -25 -45.5 -34s-42.5 -13.5 -70.5 -13.5zM206 48.001c41.333 0 71.168 13.667 89.501 41s27.5 64 27.5 110c0 49.333 -9.5 87 -28.5 113s-48.5 39 -88.5 39c-44 0 -75.5 -14.5 -94.5 -43.5s-28.5 -64.833 -28.5 -107.5
c0 -44.667 9.66699 -81.167 29 -109.5s50.666 -42.5 93.999 -42.5zM85.002 461.001v8l109 103h29l109 -103v-8h-60l-62 67h-3l-60 -67h-62zM341.002 550.001h-32v10l51 103h59v-15z" />
    <glyph glyph-name="uni1EA6" unicode="&#x1ea6;" horiz-adv-x="541" 
d="M19 0l198 563h106l201 -563h-68l-61 176h-247l-61 -176h-68zM272 535l-106 -305h211zM131 696l-78 98v15h59l51 -103v-10h-32zM148 606v8l109 103h29l109 -103v-8h-60l-62 67h-3l-60 -67h-62z" />
    <glyph glyph-name="uni1EA7" unicode="&#x1ea7;" horiz-adv-x="427" 
d="M181 -9c-37.333 0 -68 9.16797 -92 27.501s-41.833 43.166 -53.5 74.499s-17.5 67 -17.5 107c0 61.333 13.5 111.833 40.5 151.5s67.833 59.5 122.5 59.5c28 0 51.5 -4.83301 70.5 -14.5s34.333 -21.5 46 -35.5s20.167 -27.333 25.5 -40h1v86h66v-407h-55l-10 79h-2
c-6 -13.333 -14.667 -26.833 -26 -40.5s-26.5 -25 -45.5 -34s-42.5 -13.5 -70.5 -13.5zM206 48.001c41.333 0 71.168 13.667 89.501 41s27.5 64 27.5 110c0 49.333 -9.5 87 -28.5 113s-48.5 39 -88.5 39c-44 0 -75.5 -14.5 -94.5 -43.5s-28.5 -64.833 -28.5 -107.5
c0 -44.667 9.66699 -81.167 29 -109.5s50.666 -42.5 93.999 -42.5zM67.002 551.001l-78 98v15h59l51 -103v-10h-32zM84.002 461.001v8l109 103h29l109 -103v-8h-60l-62 67h-3l-60 -67h-62z" />
    <glyph glyph-name="uni1EA8" unicode="&#x1ea8;" horiz-adv-x="541" 
d="M19 0l198 563h106l201 -563h-68l-61 176h-247l-61 -176h-68zM272 535l-106 -305h211zM148 615v8l109 103h29l109 -103v-8h-60l-62 67h-3l-60 -67h-62zM362 702l-0.00390625 11c2.66699 9.33301 8.83398 17 18.501 23s18.834 12.5 27.501 19.5s13 16.167 13 27.5
s-5 19.166 -15 23.499s-20.667 4.5 -32 0.5s-19.666 -12.667 -24.999 -26l-32 16c5.33301 19.333 15.833 33.5 31.5 42.5s32.334 13.167 50.001 12.5s33 -6.16699 46 -16.5s19.5 -25.5 19.5 -45.5c0 -17.333 -4.33301 -30.666 -13 -39.999s-17.5 -17.333 -26.5 -24
s-14.5 -14.667 -16.5 -24h-46z" />
    <glyph glyph-name="uni1EA9" unicode="&#x1ea9;" horiz-adv-x="427" 
d="M181 -9c-37.333 0 -68 9.16797 -92 27.501s-41.833 43.166 -53.5 74.499s-17.5 67 -17.5 107c0 61.333 13.5 111.833 40.5 151.5s67.833 59.5 122.5 59.5c28 0 51.5 -4.83301 70.5 -14.5s34.333 -21.5 46 -35.5s20.167 -27.333 25.5 -40h1v86h66v-407h-55l-10 79h-2
c-6 -13.333 -14.667 -26.833 -26 -40.5s-26.5 -25 -45.5 -34s-42.5 -13.5 -70.5 -13.5zM206 48.001c41.333 0 71.168 13.667 89.501 41s27.5 64 27.5 110c0 49.333 -9.5 87 -28.5 113s-48.5 39 -88.5 39c-44 0 -75.5 -14.5 -94.5 -43.5s-28.5 -64.833 -28.5 -107.5
c0 -44.667 9.66699 -81.167 29 -109.5s50.666 -42.5 93.999 -42.5zM85.002 462.001v8l109 103h29l109 -103v-8h-60l-62 67h-3l-60 -67h-62zM299.002 549.001l-0.00390625 11c2.66699 9.33301 8.83398 17 18.501 23s18.834 12.5 27.501 19.5s13 16.167 13 27.5
s-5 19.166 -15 23.499s-20.667 4.5 -32 0.5s-19.666 -12.667 -24.999 -26l-32 16c5.33301 19.333 15.833 33.5 31.5 42.5s32.334 13.167 50.001 12.5s33 -6.16699 46 -16.5s19.5 -25.5 19.5 -45.5c0 -17.333 -4.33301 -30.666 -13 -39.999s-17.5 -17.333 -26.5 -24
s-14.5 -14.667 -16.5 -24h-46z" />
    <glyph glyph-name="uni1EAA" unicode="&#x1eaa;" horiz-adv-x="541" 
d="M19 0l198 563h106l201 -563h-68l-61 176h-247l-61 -176h-68zM272 535l-106 -305h211zM148 615v8l109 103h29l109 -103v-8h-60l-62 67h-3l-60 -67h-62zM321 768c-15.333 0 -27.498 2.82812 -36.498 8.49512s-16.667 12 -23 19s-12.5 13.333 -18.5 19s-13.667 8.5 -23 8.5
c-11.333 0 -18.166 -4.66699 -20.499 -14s-3.5 -22.333 -3.5 -39h-42c-0.666992 12.667 0.166016 26.334 2.49902 41.001s8 26.834 17 36.501s23.5 14.5 43.5 14.5c15.333 0 27.666 -2.66699 36.999 -8s17 -11.666 23 -18.999s12.167 -13.666 18.5 -18.999
s14.166 -8 23.499 -8c11.333 0 18 4.66699 20 14s3 22.666 3 39.999h43c0.666992 -15.333 -0.5 -30.166 -3.5 -44.499s-9 -26.166 -18 -35.499s-23.167 -14 -42.5 -14z" />
    <glyph glyph-name="uni1EAB" unicode="&#x1eab;" horiz-adv-x="427" 
d="M181 -9c-37.333 0 -68 9.16797 -92 27.501s-41.833 43.166 -53.5 74.499s-17.5 67 -17.5 107c0 61.333 13.5 111.833 40.5 151.5s67.833 59.5 122.5 59.5c28 0 51.5 -4.83301 70.5 -14.5s34.333 -21.5 46 -35.5s20.167 -27.333 25.5 -40h1v86h66v-407h-55l-10 79h-2
c-6 -13.333 -14.667 -26.833 -26 -40.5s-26.5 -25 -45.5 -34s-42.5 -13.5 -70.5 -13.5zM206 48.001c41.333 0 71.168 13.667 89.501 41s27.5 64 27.5 110c0 49.333 -9.5 87 -28.5 113s-48.5 39 -88.5 39c-44 0 -75.5 -14.5 -94.5 -43.5s-28.5 -64.833 -28.5 -107.5
c0 -44.667 9.66699 -81.167 29 -109.5s50.666 -42.5 93.999 -42.5zM84.002 462.001v8l109 103h29l109 -103v-8h-60l-62 67h-3l-60 -67h-62zM257.002 615.001c-15.333 0 -27.498 2.82812 -36.498 8.49512s-16.667 12 -23 19s-12.5 13.333 -18.5 19s-13.667 8.5 -23 8.5
c-11.333 0 -18.166 -4.66699 -20.499 -14s-3.5 -22.333 -3.5 -39h-42c-0.666992 12.667 0.166016 26.334 2.49902 41.001s8 26.834 17 36.501s23.5 14.5 43.5 14.5c15.333 0 27.666 -2.66699 36.999 -8s17 -11.666 23 -18.999s12.167 -13.666 18.5 -18.999
s14.166 -8 23.499 -8c11.333 0 18 4.66699 20 14s3 22.666 3 39.999h43c0.666992 -15.333 -0.5 -30.166 -3.5 -44.499s-9 -26.166 -18 -35.499s-23.167 -14 -42.5 -14z" />
    <glyph glyph-name="uni1EAC" unicode="&#x1eac;" horiz-adv-x="541" 
d="M19 0l198 563h106l201 -563h-68l-61 176h-247l-61 -176h-68zM272 535l-106 -305h211zM262 -148c-16 0 -26.833 4 -32.5 12s-8.5 17.333 -8.5 28s2.83301 20 8.5 28s16.5 12 32.5 12s26.5 -4 31.5 -12s7.5 -17.333 7.5 -28s-2.5 -20 -7.5 -28s-15.5 -12 -31.5 -12z
M148 615v8l109 103h29l109 -103v-8h-60l-62 67h-3l-60 -67h-62z" />
    <glyph glyph-name="uni1EAD" unicode="&#x1ead;" horiz-adv-x="427" 
d="M181 -9c-37.333 0 -68 9.16797 -92 27.501s-41.833 43.166 -53.5 74.499s-17.5 67 -17.5 107c0 61.333 13.5 111.833 40.5 151.5s67.833 59.5 122.5 59.5c28 0 51.5 -4.83301 70.5 -14.5s34.333 -21.5 46 -35.5s20.167 -27.333 25.5 -40h1v86h66v-407h-55l-10 79h-2
c-6 -13.333 -14.667 -26.833 -26 -40.5s-26.5 -25 -45.5 -34s-42.5 -13.5 -70.5 -13.5zM206 48.001c41.333 0 71.168 13.667 89.501 41s27.5 64 27.5 110c0 49.333 -9.5 87 -28.5 113s-48.5 39 -88.5 39c-44 0 -75.5 -14.5 -94.5 -43.5s-28.5 -64.833 -28.5 -107.5
c0 -44.667 9.66699 -81.167 29 -109.5s50.666 -42.5 93.999 -42.5zM84.002 462.001v8l109 103h29l109 -103v-8h-60l-62 67h-3l-60 -67h-62zM204.002 -147.999c-16 0 -26.833 4 -32.5 12s-8.5 17.333 -8.5 28s2.83301 20 8.5 28s16.5 12 32.5 12s26.5 -4 31.5 -12
s7.5 -17.333 7.5 -28s-2.5 -20 -7.5 -28s-15.5 -12 -31.5 -12z" />
    <glyph glyph-name="uni1EAE" unicode="&#x1eae;" horiz-adv-x="541" 
d="M19 0l198 563h106l201 -563h-68l-61 176h-247l-61 -176h-68zM272 535l-106 -305h211zM271 621c-36.667 0 -65.499 8.16699 -86.499 24.5s-31.5 38.166 -31.5 65.499h47c0 -20.667 7 -34 21 -40s30.333 -9 49 -9c19.333 0 35.666 3 48.999 9s20 19.333 20 40h48
c0 -27.333 -10.167 -49.166 -30.5 -65.499s-48.833 -24.5 -85.5 -24.5zM286.001 726h-32v10l51 103h59v-15z" />
    <glyph glyph-name="uni1EAF" unicode="&#x1eaf;" horiz-adv-x="427" 
d="M181 -9c-37.333 0 -68 9.16797 -92 27.501s-41.833 43.166 -53.5 74.499s-17.5 67 -17.5 107c0 61.333 13.5 111.833 40.5 151.5s67.833 59.5 122.5 59.5c28 0 51.5 -4.83301 70.5 -14.5s34.333 -21.5 46 -35.5s20.167 -27.333 25.5 -40h1v86h66v-407h-55l-10 79h-2
c-6 -13.333 -14.667 -26.833 -26 -40.5s-26.5 -25 -45.5 -34s-42.5 -13.5 -70.5 -13.5zM206 48.001c41.333 0 71.168 13.667 89.501 41s27.5 64 27.5 110c0 49.333 -9.5 87 -28.5 113s-48.5 39 -88.5 39c-44 0 -75.5 -14.5 -94.5 -43.5s-28.5 -64.833 -28.5 -107.5
c0 -44.667 9.66699 -81.167 29 -109.5s50.666 -42.5 93.999 -42.5zM208.002 460.001c-36.667 0 -65.499 8.16699 -86.499 24.5s-31.5 38.166 -31.5 65.499h47c0 -20.667 7 -34 21 -40s30.333 -9 49 -9c19.333 0 35.666 3 48.999 9s20 19.333 20 40h48
c0 -27.333 -10.167 -49.166 -30.5 -65.499s-48.833 -24.5 -85.5 -24.5zM223.003 565.001h-32v10l51 103h59v-15z" />
    <glyph glyph-name="uni1EB0" unicode="&#x1eb0;" horiz-adv-x="541" 
d="M19 0l198 563h106l201 -563h-68l-61 176h-247l-61 -176h-68zM272 535l-106 -305h211zM272 622c-36.667 0 -65.499 8.16699 -86.499 24.5s-31.5 38.166 -31.5 65.499h47c0 -20.667 7 -34 21 -40s30.333 -9 49 -9c19.333 0 35.666 3 48.999 9s20 19.333 20 40h48
c0 -27.333 -10.167 -49.166 -30.5 -65.499s-48.833 -24.5 -85.5 -24.5zM248.001 727l-78 98v15h59l51 -103v-10h-32z" />
    <glyph glyph-name="uni1EB1" unicode="&#x1eb1;" horiz-adv-x="427" 
d="M181 -9c-37.333 0 -68 9.16797 -92 27.501s-41.833 43.166 -53.5 74.499s-17.5 67 -17.5 107c0 61.333 13.5 111.833 40.5 151.5s67.833 59.5 122.5 59.5c28 0 51.5 -4.83301 70.5 -14.5s34.333 -21.5 46 -35.5s20.167 -27.333 25.5 -40h1v86h66v-407h-55l-10 79h-2
c-6 -13.333 -14.667 -26.833 -26 -40.5s-26.5 -25 -45.5 -34s-42.5 -13.5 -70.5 -13.5zM206 48.001c41.333 0 71.168 13.667 89.501 41s27.5 64 27.5 110c0 49.333 -9.5 87 -28.5 113s-48.5 39 -88.5 39c-44 0 -75.5 -14.5 -94.5 -43.5s-28.5 -64.833 -28.5 -107.5
c0 -44.667 9.66699 -81.167 29 -109.5s50.666 -42.5 93.999 -42.5zM208.002 460.001c-36.667 0 -65.499 8.16699 -86.499 24.5s-31.5 38.166 -31.5 65.499h47c0 -20.667 7 -34 21 -40s30.333 -9 49 -9c19.333 0 35.666 3 48.999 9s20 19.333 20 40h48
c0 -27.333 -10.167 -49.166 -30.5 -65.499s-48.833 -24.5 -85.5 -24.5zM184.003 565.001l-78 98v15h59l51 -103v-10h-32z" />
    <glyph glyph-name="uni1EB2" unicode="&#x1eb2;" horiz-adv-x="541" 
d="M19 0l198 563h106l201 -563h-68l-61 176h-247l-61 -176h-68zM272 535l-106 -305h211zM271 622c-36.667 0 -65.499 8.16699 -86.499 24.5s-31.5 38.166 -31.5 65.499h47c0 -20.667 7 -34 21 -40s30.333 -9 49 -9c19.333 0 35.666 3 48.999 9s20 19.333 20 40h48
c0 -27.333 -10.167 -49.166 -30.5 -65.499s-48.833 -24.5 -85.5 -24.5zM248.001 723l-0.00390625 11c2.66699 9.33301 8.83398 17 18.501 23s18.834 12.5 27.501 19.5s13 16.167 13 27.5s-5 19.166 -15 23.499s-20.667 4.5 -32 0.5s-19.666 -12.667 -24.999 -26l-32 16
c5.33301 19.333 15.833 33.5 31.5 42.5s32.334 13.167 50.001 12.5s33 -6.16699 46 -16.5s19.5 -25.5 19.5 -45.5c0 -17.333 -4.33301 -30.666 -13 -39.999s-17.5 -17.333 -26.5 -24s-14.5 -14.667 -16.5 -24h-46z" />
    <glyph glyph-name="uni1EB3" unicode="&#x1eb3;" horiz-adv-x="427" 
d="M181 -9c-37.333 0 -68 9.16797 -92 27.501s-41.833 43.166 -53.5 74.499s-17.5 67 -17.5 107c0 61.333 13.5 111.833 40.5 151.5s67.833 59.5 122.5 59.5c28 0 51.5 -4.83301 70.5 -14.5s34.333 -21.5 46 -35.5s20.167 -27.333 25.5 -40h1v86h66v-407h-55l-10 79h-2
c-6 -13.333 -14.667 -26.833 -26 -40.5s-26.5 -25 -45.5 -34s-42.5 -13.5 -70.5 -13.5zM206 48.001c41.333 0 71.168 13.667 89.501 41s27.5 64 27.5 110c0 49.333 -9.5 87 -28.5 113s-48.5 39 -88.5 39c-44 0 -75.5 -14.5 -94.5 -43.5s-28.5 -64.833 -28.5 -107.5
c0 -44.667 9.66699 -81.167 29 -109.5s50.666 -42.5 93.999 -42.5zM208.002 460.001c-36.667 0 -65.499 8.16699 -86.499 24.5s-31.5 38.166 -31.5 65.499h47c0 -20.667 7 -34 21 -40s30.333 -9 49 -9c19.333 0 35.666 3 48.999 9s20 19.333 20 40h48
c0 -27.333 -10.167 -49.166 -30.5 -65.499s-48.833 -24.5 -85.5 -24.5zM185.003 561.001l-0.00390625 11c2.66699 9.33301 8.83398 17 18.501 23s18.834 12.5 27.501 19.5s13 16.167 13 27.5s-5 19.166 -15 23.499s-20.667 4.5 -32 0.5s-19.666 -12.667 -24.999 -26l-32 16
c5.33301 19.333 15.833 33.5 31.5 42.5s32.334 13.167 50.001 12.5s33 -6.16699 46 -16.5s19.5 -25.5 19.5 -45.5c0 -17.333 -4.33301 -30.666 -13 -39.999s-17.5 -17.333 -26.5 -24s-14.5 -14.667 -16.5 -24h-46z" />
    <glyph glyph-name="uni1EB4" unicode="&#x1eb4;" horiz-adv-x="541" 
d="M19 0l198 563h106l201 -563h-68l-61 176h-247l-61 -176h-68zM272 535l-106 -305h211zM271 622c-36.667 0 -65.499 8.16699 -86.499 24.5s-31.5 38.166 -31.5 65.499h47c0 -20.667 7 -34 21 -40s30.333 -9 49 -9c19.333 0 35.666 3 48.999 9s20 19.333 20 40h48
c0 -27.333 -10.167 -49.166 -30.5 -65.499s-48.833 -24.5 -85.5 -24.5zM323.001 764c-15.333 0 -27.498 2.82812 -36.498 8.49512s-16.667 12 -23 19s-12.5 13.333 -18.5 19s-13.667 8.5 -23 8.5c-11.333 0 -18.166 -4.66699 -20.499 -14s-3.5 -22.333 -3.5 -39h-42
c-0.666992 12.667 0.166016 26.334 2.49902 41.001s8 26.834 17 36.501s23.5 14.5 43.5 14.5c15.333 0 27.666 -2.66699 36.999 -8s17 -11.666 23 -18.999s12.167 -13.666 18.5 -18.999s14.166 -8 23.499 -8c11.333 0 18 4.66699 20 14s3 22.666 3 39.999h43
c0.666992 -15.333 -0.5 -30.166 -3.5 -44.499s-9 -26.166 -18 -35.499s-23.167 -14 -42.5 -14z" />
    <glyph glyph-name="uni1EB5" unicode="&#x1eb5;" horiz-adv-x="427" 
d="M181 -9c-37.333 0 -68 9.16797 -92 27.501s-41.833 43.166 -53.5 74.499s-17.5 67 -17.5 107c0 61.333 13.5 111.833 40.5 151.5s67.833 59.5 122.5 59.5c28 0 51.5 -4.83301 70.5 -14.5s34.333 -21.5 46 -35.5s20.167 -27.333 25.5 -40h1v86h66v-407h-55l-10 79h-2
c-6 -13.333 -14.667 -26.833 -26 -40.5s-26.5 -25 -45.5 -34s-42.5 -13.5 -70.5 -13.5zM206 48.001c41.333 0 71.168 13.667 89.501 41s27.5 64 27.5 110c0 49.333 -9.5 87 -28.5 113s-48.5 39 -88.5 39c-44 0 -75.5 -14.5 -94.5 -43.5s-28.5 -64.833 -28.5 -107.5
c0 -44.667 9.66699 -81.167 29 -109.5s50.666 -42.5 93.999 -42.5zM206.002 460.001c-36.667 0 -65.499 8.16699 -86.499 24.5s-31.5 38.166 -31.5 65.499h47c0 -20.667 7 -34 21 -40s30.333 -9 49 -9c19.333 0 35.666 3 48.999 9s20 19.333 20 40h48
c0 -27.333 -10.167 -49.166 -30.5 -65.499s-48.833 -24.5 -85.5 -24.5zM258.003 602.001c-15.333 0 -27.498 2.82812 -36.498 8.49512s-16.667 12 -23 19s-12.5 13.333 -18.5 19s-13.667 8.5 -23 8.5c-11.333 0 -18.166 -4.66699 -20.499 -14s-3.5 -22.333 -3.5 -39h-42
c-0.666992 12.667 0.166016 26.334 2.49902 41.001s8 26.834 17 36.501s23.5 14.5 43.5 14.5c15.333 0 27.666 -2.66699 36.999 -8s17 -11.666 23 -18.999s12.167 -13.666 18.5 -18.999s14.166 -8 23.499 -8c11.333 0 18 4.66699 20 14s3 22.666 3 39.999h43
c0.666992 -15.333 -0.5 -30.166 -3.5 -44.499s-9 -26.166 -18 -35.499s-23.167 -14 -42.5 -14z" />
    <glyph glyph-name="uni1EB6" unicode="&#x1eb6;" horiz-adv-x="541" 
d="M19 0l198 563h106l201 -563h-68l-61 176h-247l-61 -176h-68zM272 535l-106 -305h211zM270 -148c-16 0 -26.833 4 -32.5 12s-8.5 17.333 -8.5 28s2.83301 20 8.5 28s16.5 12 32.5 12s26.5 -4 31.5 -12s7.5 -17.333 7.5 -28s-2.5 -20 -7.5 -28s-15.5 -12 -31.5 -12z
M271 622c-36.667 0 -65.499 8.16699 -86.499 24.5s-31.5 38.166 -31.5 65.499h47c0 -20.667 7 -34 21 -40s30.333 -9 49 -9c19.333 0 35.666 3 48.999 9s20 19.333 20 40h48c0 -27.333 -10.167 -49.166 -30.5 -65.499s-48.833 -24.5 -85.5 -24.5z" />
    <glyph glyph-name="uni1EB7" unicode="&#x1eb7;" horiz-adv-x="427" 
d="M181 -9c-37.333 0 -68 9.16797 -92 27.501s-41.833 43.166 -53.5 74.499s-17.5 67 -17.5 107c0 61.333 13.5 111.833 40.5 151.5s67.833 59.5 122.5 59.5c28 0 51.5 -4.83301 70.5 -14.5s34.333 -21.5 46 -35.5s20.167 -27.333 25.5 -40h1v86h66v-407h-55l-10 79h-2
c-6 -13.333 -14.667 -26.833 -26 -40.5s-26.5 -25 -45.5 -34s-42.5 -13.5 -70.5 -13.5zM206 48.001c41.333 0 71.168 13.667 89.501 41s27.5 64 27.5 110c0 49.333 -9.5 87 -28.5 113s-48.5 39 -88.5 39c-44 0 -75.5 -14.5 -94.5 -43.5s-28.5 -64.833 -28.5 -107.5
c0 -44.667 9.66699 -81.167 29 -109.5s50.666 -42.5 93.999 -42.5zM208.002 460.001c-36.667 0 -65.499 8.16699 -86.499 24.5s-31.5 38.166 -31.5 65.499h47c0 -20.667 7 -34 21 -40s30.333 -9 49 -9c19.333 0 35.666 3 48.999 9s20 19.333 20 40h48
c0 -27.333 -10.167 -49.166 -30.5 -65.499s-48.833 -24.5 -85.5 -24.5zM204.003 -147.999c-16 0 -26.833 4 -32.5 12s-8.5 17.333 -8.5 28s2.83301 20 8.5 28s16.5 12 32.5 12s26.5 -4 31.5 -12s7.5 -17.333 7.5 -28s-2.5 -20 -7.5 -28s-15.5 -12 -31.5 -12z" />
    <glyph glyph-name="uni1EB8" unicode="&#x1eb8;" horiz-adv-x="479" 
d="M120 54h324v-54h-387v563h377v-57h-314v-194h249v-54h-249v-204zM246 -149c-16 0 -26.833 4 -32.5 12s-8.5 17.333 -8.5 28s2.83301 20 8.5 28s16.5 12 32.5 12s26.5 -4 31.5 -12s7.5 -17.333 7.5 -28s-2.5 -20 -7.5 -28s-15.5 -12 -31.5 -12z" />
    <glyph glyph-name="uni1EB9" unicode="&#x1eb9;" horiz-adv-x="451" 
d="M223 -10c-44.667 0 -81.4971 10.167 -110.497 30.5s-50.333 46.666 -64 78.999s-20.5 65.833 -20.5 100.5c0 38 7.5 72.833 22.5 104.5s37 56.834 66 75.501s63.833 28 104.5 28c52 0 95.333 -16.833 130 -50.5s53.334 -78.834 56.001 -135.501
c0.666992 -2.66699 1 -6.5 1 -11.5v-13.5h-318c0 -47.333 11.5 -84.5 34.5 -111.5s55.5 -40.5 97.5 -40.5c31.333 0 58.166 8 80.499 24s36.166 37.667 41.499 65h63c-6.66699 -41.333 -26.334 -75.666 -59.001 -102.999s-74.334 -41 -125.001 -41zM92.0029 232
l250.002 0.000976562c0 14 -3.83301 30.667 -11.5 50s-20.334 36.166 -38.001 50.499s-41.834 21.5 -72.501 21.5c-28 0 -51 -6 -69 -18s-31.667 -27.333 -41 -46s-15.333 -38 -18 -58zM219.005 -147.999c-16 0 -26.833 4 -32.5 12s-8.5 17.333 -8.5 28s2.83301 20 8.5 28
s16.5 12 32.5 12s26.5 -4 31.5 -12s7.5 -17.333 7.5 -28s-2.5 -20 -7.5 -28s-15.5 -12 -31.5 -12z" />
    <glyph glyph-name="uni1EBA" unicode="&#x1eba;" horiz-adv-x="479" 
d="M120 54h324v-54h-387v563h377v-57h-314v-194h249v-54h-249v-204zM216 618l-0.00390625 11c2.66699 9.33301 8.83398 17 18.501 23s18.834 12.5 27.501 19.5s13 16.167 13 27.5s-5 19.166 -15 23.499s-20.667 4.5 -32 0.5s-19.666 -12.667 -24.999 -26l-32 16
c5.33301 19.333 15.833 33.5 31.5 42.5s32.334 13.167 50.001 12.5s33 -6.16699 46 -16.5s19.5 -25.5 19.5 -45.5c0 -17.333 -4.33301 -30.666 -13 -39.999s-17.5 -17.333 -26.5 -24s-14.5 -14.667 -16.5 -24h-46z" />
    <glyph glyph-name="uni1EBB" unicode="&#x1ebb;" horiz-adv-x="451" 
d="M223 -10c-44.667 0 -81.4971 10.167 -110.497 30.5s-50.333 46.666 -64 78.999s-20.5 65.833 -20.5 100.5c0 38 7.5 72.833 22.5 104.5s37 56.834 66 75.501s63.833 28 104.5 28c52 0 95.333 -16.833 130 -50.5s53.334 -78.834 56.001 -135.501
c0.666992 -2.66699 1 -6.5 1 -11.5v-13.5h-318c0 -47.333 11.5 -84.5 34.5 -111.5s55.5 -40.5 97.5 -40.5c31.333 0 58.166 8 80.499 24s36.166 37.667 41.499 65h63c-6.66699 -41.333 -26.334 -75.666 -59.001 -102.999s-74.334 -41 -125.001 -41zM92.0029 232
l250.002 0.000976562c0 14 -3.83301 30.667 -11.5 50s-20.334 36.166 -38.001 50.499s-41.834 21.5 -72.501 21.5c-28 0 -51 -6 -69 -18s-31.667 -27.333 -41 -46s-15.333 -38 -18 -58zM167.005 506.001l-0.00390625 11c2.66699 9.33301 8.83398 17 18.501 23
s18.834 12.5 27.501 19.5s13 16.167 13 27.5s-5 19.166 -15 23.499s-20.667 4.5 -32 0.5s-19.666 -12.667 -24.999 -26l-32 16c5.33301 19.333 15.833 33.5 31.5 42.5s32.334 13.167 50.001 12.5s33 -6.16699 46 -16.5s19.5 -25.5 19.5 -45.5
c0 -17.333 -4.33301 -30.666 -13 -39.999s-17.5 -17.333 -26.5 -24s-14.5 -14.667 -16.5 -24h-46z" />
    <glyph glyph-name="uni1EBC" unicode="&#x1ebc;" horiz-adv-x="479" 
d="M120 54h324v-54h-387v563h377v-57h-314v-194h249v-54h-249v-204zM292 624c-15.333 0 -27.498 2.82812 -36.498 8.49512s-16.667 12 -23 19s-12.5 13.333 -18.5 19s-13.667 8.5 -23 8.5c-11.333 0 -18.166 -4.66699 -20.499 -14s-3.5 -22.333 -3.5 -39h-42
c-0.666992 12.667 0.166016 26.334 2.49902 41.001s8 26.834 17 36.501s23.5 14.5 43.5 14.5c15.333 0 27.666 -2.66699 36.999 -8s17 -11.666 23 -18.999s12.167 -13.666 18.5 -18.999s14.166 -8 23.499 -8c11.333 0 18 4.66699 20 14s3 22.666 3 39.999h43
c0.666992 -15.333 -0.5 -30.166 -3.5 -44.499s-9 -26.166 -18 -35.499s-23.167 -14 -42.5 -14z" />
    <glyph glyph-name="uni1EBD" unicode="&#x1ebd;" horiz-adv-x="451" 
d="M223 -10c-44.667 0 -81.4971 10.167 -110.497 30.5s-50.333 46.666 -64 78.999s-20.5 65.833 -20.5 100.5c0 38 7.5 72.833 22.5 104.5s37 56.834 66 75.501s63.833 28 104.5 28c52 0 95.333 -16.833 130 -50.5s53.334 -78.834 56.001 -135.501
c0.666992 -2.66699 1 -6.5 1 -11.5v-13.5h-318c0 -47.333 11.5 -84.5 34.5 -111.5s55.5 -40.5 97.5 -40.5c31.333 0 58.166 8 80.499 24s36.166 37.667 41.499 65h63c-6.66699 -41.333 -26.334 -75.666 -59.001 -102.999s-74.334 -41 -125.001 -41zM92.0029 232
l250.002 0.000976562c0 14 -3.83301 30.667 -11.5 50s-20.334 36.166 -38.001 50.499s-41.834 21.5 -72.501 21.5c-28 0 -51 -6 -69 -18s-31.667 -27.333 -41 -46s-15.333 -38 -18 -58zM273.005 470.001c-15.333 0 -27.498 2.82812 -36.498 8.49512s-16.667 12 -23 19
s-12.5 13.333 -18.5 19s-13.667 8.5 -23 8.5c-11.333 0 -18.166 -4.66699 -20.499 -14s-3.5 -22.333 -3.5 -39h-42c-0.666992 12.667 0.166016 26.334 2.49902 41.001s8 26.834 17 36.501s23.5 14.5 43.5 14.5c15.333 0 27.666 -2.66699 36.999 -8s17 -11.666 23 -18.999
s12.167 -13.666 18.5 -18.999s14.166 -8 23.499 -8c11.333 0 18 4.66699 20 14s3 22.666 3 39.999h43c0.666992 -15.333 -0.5 -30.166 -3.5 -44.499s-9 -26.166 -18 -35.499s-23.167 -14 -42.5 -14z" />
    </font>
</defs>
</svg>
