<svg width="803" height="298" viewBox="0 0 803 298" fill="none" xmlns="http://www.w3.org/2000/svg">
<path d="M2.63281 238.5H0.632812V240.5H2.63281V238.5ZM2.63281 179L1.84909 177.16L0.632812 177.678V179H2.63281ZM49.1328 147.5L47.7186 146.086L47.7097 146.095L47.7008 146.104L49.1328 147.5ZM81.6328 103L83.4143 103.909L83.418 103.902L83.4217 103.894L81.6328 103ZM100.133 53.5L102.075 53.9757L102.078 53.9667L100.133 53.5ZM106.133 7.49998V5.49998H104.133V7.49998H106.133ZM182.133 7.49998H184.133V5.49998H182.133V7.49998ZM169.133 67L167.284 66.237L167.279 66.2496L167.274 66.2623L169.133 67ZM131.633 128L130.107 126.707L130.105 126.709L131.633 128ZM70.6328 179L69.6004 177.287L63.4403 181H70.6328V179ZM139.633 179V181H141.633V179H139.633ZM139.633 148.5V146.5H137.633V148.5H139.633ZM209.133 148.5H211.133V146.5H209.133V148.5ZM209.133 179H207.133V181H209.133V179ZM240.633 179H242.633V177H240.633V179ZM240.633 238.5V240.5H242.633V238.5H240.633ZM209.133 238.5V236.5H207.133V238.5H209.133ZM209.133 289V291H211.133V289H209.133ZM139.633 289H137.633V291H139.633V289ZM139.633 238.5H141.633V236.5H139.633V238.5ZM4.63281 238.5V179H0.632812V238.5H4.63281ZM3.41654 180.84C21.6473 173.075 37.3709 162.428 50.5648 148.896L47.7008 146.104C34.8947 159.238 19.6183 169.592 1.84909 177.16L3.41654 180.84ZM50.547 148.914C64.0243 135.437 74.9831 120.434 83.4143 103.909L79.8513 102.091C71.6159 118.232 60.908 132.896 47.7186 146.086L50.547 148.914ZM83.4217 103.894C91.8146 87.1085 98.0364 70.4685 102.075 53.9757L98.1902 53.0243C94.2293 69.1981 88.1177 85.5581 79.844 102.106L83.4217 103.894ZM102.078 53.9667C106.106 37.1799 108.133 21.6876 108.133 7.49998H104.133C104.133 21.3123 102.159 36.4867 98.188 53.0332L102.078 53.9667ZM106.133 9.49998H182.133V5.49998H106.133V9.49998ZM180.133 7.49998C180.133 25.8547 175.872 45.4278 167.284 66.237L170.982 67.763C179.727 46.5721 184.133 26.4786 184.133 7.49998H180.133ZM167.274 66.2623C159.031 87.0341 146.653 107.183 130.107 126.707L133.159 129.293C149.946 109.484 162.568 88.9659 170.992 67.7377L167.274 66.2623ZM130.105 126.709C113.929 145.857 93.7693 162.719 69.6004 177.287L71.6653 180.713C96.163 165.947 116.67 148.81 133.161 129.291L130.105 126.709ZM70.6328 181H139.633V177H70.6328V181ZM141.633 179V148.5H137.633V179H141.633ZM139.633 150.5H209.133V146.5H139.633V150.5ZM207.133 148.5V179H211.133V148.5H207.133ZM209.133 181H240.633V177H209.133V181ZM238.633 179V238.5H242.633V179H238.633ZM240.633 236.5H209.133V240.5H240.633V236.5ZM207.133 238.5V289H211.133V238.5H207.133ZM209.133 287H139.633V291H209.133V287ZM141.633 289V238.5H137.633V289H141.633ZM139.633 236.5H2.63281V240.5H139.633V236.5ZM305.523 256.5L303.962 257.749L303.969 257.759L305.523 256.5ZM287.023 72L288.87 72.7672L288.875 72.7573L287.023 72ZM329.023 21L330.091 22.691L330.099 22.6861L329.023 21ZM500.023 42.5L498.452 43.7374L498.46 43.7469L500.023 42.5ZM517.523 226L519.365 226.781L519.369 226.771L517.523 226ZM475.023 277.5L476.112 279.178L475.023 277.5ZM451.023 217L449.406 215.824L449.401 215.83L451.023 217ZM451.523 81.5L449.901 82.6696L451.523 81.5ZM353.523 81L351.933 79.7879L351.928 79.7938L353.523 81ZM353.023 216.5L351.371 217.627L351.38 217.639L351.388 217.652L353.023 216.5ZM402.523 294C359.611 294 327.929 280.98 307.077 255.241L303.969 257.759C325.784 284.687 358.769 298 402.523 298V294ZM307.085 255.251C286.115 229.037 275.523 193.691 275.523 149H271.523C271.523 194.309 282.266 230.629 303.962 257.749L307.085 255.251ZM275.523 149C275.523 119.53 279.994 94.1357 288.87 72.7672L285.176 71.2328C276.053 93.1977 271.523 119.137 271.523 149H275.523ZM288.875 72.7573C297.727 51.1188 311.464 34.4555 330.091 22.691L327.955 19.309C308.583 31.5444 294.32 48.8812 285.172 71.2427L288.875 72.7573ZM330.099 22.6861C349.029 10.61 373.128 4.5 402.523 4.5V0.5C372.586 0.5 347.684 6.72336 327.948 19.3139L330.099 22.6861ZM402.523 4.5C446.108 4.5 477.939 17.6884 498.452 43.7374L501.595 41.2626C480.108 13.9782 446.939 0.5 402.523 0.5V4.5ZM498.46 43.7469C519.097 69.6254 529.523 104.638 529.523 149H533.523C533.523 104.028 522.95 68.0412 501.587 41.253L498.46 43.7469ZM529.523 149C529.523 177.787 524.891 203.183 515.678 225.229L519.369 226.771C528.822 204.15 533.523 178.213 533.523 149H529.523ZM515.682 225.219C506.496 246.873 492.581 263.719 473.935 275.822L476.112 279.178C495.466 266.615 509.885 249.127 519.365 226.781L515.682 225.219ZM473.935 275.822C455.342 287.891 431.583 294 402.523 294V298C432.131 298 456.705 291.775 476.112 279.178L473.935 275.822ZM402.023 240.5C424.811 240.5 441.838 233.161 452.646 218.17L449.401 215.83C439.542 229.506 423.903 236.5 402.023 236.5V240.5ZM452.641 218.176C463.676 203.003 469.023 179.826 469.023 149H465.023C465.023 179.507 459.704 201.663 449.406 215.824L452.641 218.176ZM469.023 149C469.023 118.188 463.847 95.1745 453.146 80.3304L449.901 82.6696C459.866 96.4921 465.023 118.478 465.023 149H469.023ZM453.146 80.3304C442.333 65.3314 425.132 58 402.023 58V62C424.249 62 440.048 69.002 449.901 82.6696L453.146 80.3304ZM402.023 58C379.893 58 363.065 65.1765 351.933 79.7879L355.114 82.2121C365.315 68.8235 380.821 62 402.023 62V58ZM351.928 79.7938C341.189 93.9977 336.023 117.219 336.023 149H340.023C340.023 117.448 345.192 95.3356 355.119 82.2062L351.928 79.7938ZM336.023 149C336.023 179.481 341.035 202.467 351.371 217.627L354.676 215.373C345.012 201.2 340.023 179.185 340.023 149H336.023ZM351.388 217.652C362.189 232.981 379.219 240.5 402.023 240.5V236.5C380.162 236.5 364.525 229.352 354.658 215.348L351.388 217.652ZM562.109 238.5H560.109V240.5H562.109V238.5ZM562.109 179L561.326 177.16L560.109 177.678V179H562.109ZM608.609 147.5L607.195 146.086L607.186 146.095L607.177 146.104L608.609 147.5ZM641.109 103L642.891 103.909L642.895 103.902L642.898 103.894L641.109 103ZM659.609 53.5L661.552 53.9757L661.554 53.9667L659.609 53.5ZM665.609 7.49998V5.49998H663.609V7.49998H665.609ZM741.609 7.49998H743.609V5.49998H741.609V7.49998ZM728.609 67L726.761 66.237L726.755 66.2496L726.75 66.2623L728.609 67ZM691.109 128L689.584 126.707L689.582 126.709L691.109 128ZM630.109 179L629.077 177.287L622.917 181H630.109V179ZM699.109 179V181H701.109V179H699.109ZM699.109 148.5V146.5H697.109V148.5H699.109ZM768.609 148.5H770.609V146.5H768.609V148.5ZM768.609 179H766.609V181H768.609V179ZM800.109 179H802.109V177H800.109V179ZM800.109 238.5V240.5H802.109V238.5H800.109ZM768.609 238.5V236.5H766.609V238.5H768.609ZM768.609 289V291H770.609V289H768.609ZM699.109 289H697.109V291H699.109V289ZM699.109 238.5H701.109V236.5H699.109V238.5ZM564.109 238.5V179H560.109V238.5H564.109ZM562.893 180.84C581.124 173.075 596.847 162.428 610.041 148.896L607.177 146.104C594.371 159.238 579.095 169.592 561.326 177.16L562.893 180.84ZM610.024 148.914C623.501 135.437 634.46 120.434 642.891 103.909L639.328 102.091C631.092 118.232 620.385 132.896 607.195 146.086L610.024 148.914ZM642.898 103.894C651.291 87.1085 657.513 70.4685 661.552 53.9757L657.667 53.0243C653.706 69.1981 647.594 85.5581 639.32 102.106L642.898 103.894ZM661.554 53.9667C665.583 37.1799 667.609 21.6876 667.609 7.49998H663.609C663.609 21.3123 661.636 36.4867 657.665 53.0332L661.554 53.9667ZM665.609 9.49998H741.609V5.49998H665.609V9.49998ZM739.609 7.49998C739.609 25.8547 735.349 45.4278 726.761 66.237L730.458 67.763C739.204 46.5721 743.609 26.4786 743.609 7.49998H739.609ZM726.75 66.2623C718.508 87.0341 706.129 107.183 689.584 126.707L692.635 129.293C709.423 109.484 722.044 88.9659 730.468 67.7377L726.75 66.2623ZM689.582 126.709C673.405 145.857 653.246 162.719 629.077 177.287L631.142 180.713C655.64 165.947 676.147 148.81 692.637 129.291L689.582 126.709ZM630.109 181H699.109V177H630.109V181ZM701.109 179V148.5H697.109V179H701.109ZM699.109 150.5H768.609V146.5H699.109V150.5ZM766.609 148.5V179H770.609V148.5H766.609ZM768.609 181H800.109V177H768.609V181ZM798.109 179V238.5H802.109V179H798.109ZM800.109 236.5H768.609V240.5H800.109V236.5ZM766.609 238.5V289H770.609V238.5H766.609ZM768.609 287H699.109V291H768.609V287ZM701.109 289V238.5H697.109V289H701.109ZM699.109 236.5H562.109V240.5H699.109V236.5Z" fill="#F6F7FB"/>
</svg>
