<svg width="812" height="298" viewBox="0 0 812 298" fill="none" xmlns="http://www.w3.org/2000/svg">
<path d="M54.3086 280.5L53.3163 282.237L53.3298 282.244L53.3434 282.252L54.3086 280.5ZM17.3086 246.5L15.5936 247.529L15.603 247.545L15.6126 247.56L17.3086 246.5ZM2.8086 208L2.50771 206.023L0.56321 206.319L0.826611 208.268L2.8086 208ZM71.8086 197.5L73.7814 197.171L73.4572 195.226L71.5077 195.523L71.8086 197.5ZM77.8086 213L76.0388 213.931L76.0686 213.988L76.102 214.043L77.8086 213ZM93.3086 229L94.4555 227.362L93.3086 229ZM149.809 224L148.307 222.679L148.303 222.683L149.809 224ZM162.809 196L164.792 196.256L164.794 196.242L164.796 196.227L162.809 196ZM153.809 163.5L152.178 164.657L152.187 164.67L152.196 164.683L153.809 163.5ZM97.8086 153.5L96.6755 151.852L96.6504 151.869L96.6259 151.887L97.8086 153.5ZM86.8086 165L85.081 163.992L85.0666 164.017L85.0528 164.042L86.8086 165ZM83.3086 171L83.0126 172.978L84.0098 173.127L84.7228 172.414L83.3086 171ZM9.80859 160L7.81951 159.791L7.61981 161.695L9.51257 161.978L9.80859 160ZM25.8086 7.49998V5.49998H24.0075L23.8195 7.29129L25.8086 7.49998ZM218.809 7.49998H220.809V5.49998H218.809V7.49998ZM218.809 67V69H220.809V67H218.809ZM73.3086 67V65H71.5185L71.3208 66.7791L73.3086 67ZM64.8086 143.5L62.8208 143.279L66.4727 144.609L64.8086 143.5ZM68.8086 137.5L70.4727 138.609L70.4929 138.579L70.5119 138.548L68.8086 137.5ZM81.8086 123L83.1373 124.495L81.8086 123ZM105.309 109L106.073 110.848L106.1 110.837L106.127 110.825L105.309 109ZM194.809 116.5L193.699 118.164L193.713 118.173L193.727 118.182L194.809 116.5ZM224.809 151.5L222.964 152.272L222.971 152.29L222.979 152.308L224.809 151.5ZM232.309 197L230.316 196.834L232.309 197ZM215.809 243.5L217.479 244.601L217.484 244.592L217.49 244.583L215.809 243.5ZM176.309 280L177.286 281.745L177.299 281.738L177.312 281.73L176.309 280ZM117.309 292C91.8585 292 71.2211 287.536 55.2738 278.748L53.3434 282.252C70.0628 291.464 91.4254 296 117.309 296V292ZM55.3009 278.763C39.1983 269.562 27.1315 258.443 19.0046 245.44L15.6126 247.56C24.1524 261.224 36.7523 272.771 53.3163 282.237L55.3009 278.763ZM19.0236 245.471C11.1296 232.314 6.41301 219.738 4.79058 207.732L0.826611 208.268C2.53752 220.929 7.48758 234.019 15.5936 247.529L19.0236 245.471ZM3.10948 209.977L72.1095 199.477L71.5077 195.523L2.50771 206.023L3.10948 209.977ZM69.8358 197.829C70.5546 202.141 72.6698 207.53 76.0388 213.931L79.5784 212.069C76.2807 205.803 74.396 200.859 73.7814 197.171L69.8358 197.829ZM76.102 214.043C79.9331 220.312 85.3046 225.839 92.1617 230.638L94.4555 227.362C87.9792 222.828 83.0174 217.688 79.5152 211.957L76.102 214.043ZM92.1617 230.638C99.255 235.604 108.358 238 119.309 238V234C108.926 234 100.696 231.73 94.4555 227.362L92.1617 230.638ZM119.309 238C133.061 238 143.841 233.857 151.314 225.317L148.303 222.683C141.776 230.143 132.223 234 119.309 234V238ZM151.31 225.321C158.888 216.709 163.404 207.011 164.792 196.256L160.825 195.744C159.546 205.656 155.395 214.624 148.307 222.679L151.31 225.321ZM164.796 196.227C166.19 184.03 163.034 172.698 155.421 162.317L152.196 164.683C159.25 174.302 162.094 184.637 160.822 195.773L164.796 196.227ZM155.44 162.342C147.642 151.354 135.451 146 119.309 146V150C134.499 150 145.309 154.979 152.178 164.657L155.44 162.342ZM119.309 146C110.057 146 102.449 147.882 96.6755 151.852L98.9417 155.148C103.834 151.784 110.56 150 119.309 150V146ZM96.6259 151.887C91.4756 155.664 87.5909 159.69 85.081 163.992L88.5362 166.008C90.693 162.31 94.1416 158.669 98.9913 155.113L96.6259 151.887ZM85.0528 164.042C84.056 165.87 83.275 167.267 82.706 168.242C82.4207 168.731 82.1975 169.099 82.0325 169.356C81.8267 169.676 81.8011 169.679 81.8944 169.586L84.7228 172.414C84.9827 172.154 85.228 171.782 85.3972 171.519C85.6071 171.192 85.8632 170.769 86.1612 170.258C86.7589 169.233 87.5612 167.797 88.5644 165.958L85.0528 164.042ZM83.6046 169.022L10.1046 158.022L9.51257 161.978L83.0126 172.978L83.6046 169.022ZM11.7977 160.209L27.7977 7.70868L23.8195 7.29129L7.81951 159.791L11.7977 160.209ZM25.8086 9.49998H218.809V5.49998H25.8086V9.49998ZM216.809 7.49998V67H220.809V7.49998H216.809ZM218.809 65H73.3086V69H218.809V65ZM71.3208 66.7791L62.8208 143.279L66.7964 143.721L75.2964 67.2209L71.3208 66.7791ZM64.8086 143.5C66.4727 144.609 66.4727 144.609 66.4727 144.609C66.4727 144.609 66.4727 144.609 66.4728 144.609C66.4728 144.609 66.4728 144.609 66.4728 144.609C66.4729 144.609 66.4729 144.609 66.4729 144.609C66.4731 144.609 66.473 144.609 66.4732 144.609C66.4739 144.608 66.473 144.609 66.4737 144.608C66.4737 144.608 66.4742 144.607 66.4742 144.607C66.4746 144.607 66.4744 144.607 66.4749 144.606C66.4763 144.604 66.4743 144.607 66.4757 144.605C66.4758 144.605 66.476 144.604 66.4761 144.604C66.4763 144.604 66.4764 144.604 66.4766 144.604C66.4805 144.598 66.4769 144.603 66.4815 144.596C66.4859 144.59 66.4801 144.598 66.4847 144.591C66.4864 144.589 66.4847 144.591 66.4864 144.589C66.4877 144.587 66.487 144.588 66.4883 144.586C66.5196 144.539 66.474 144.607 66.5079 144.557C66.5261 144.529 66.5144 144.547 66.5352 144.516C66.6394 144.359 66.4987 144.57 66.6133 144.398C66.6654 144.32 66.6094 144.404 66.6641 144.322C66.6914 144.281 66.6644 144.322 66.6924 144.28C66.7276 144.227 66.672 144.31 66.7073 144.257C66.7086 144.256 66.7098 144.254 66.7111 144.252C66.7124 144.25 66.7137 144.248 66.7149 144.246C66.7162 144.244 66.7175 144.242 66.7188 144.24C66.7201 144.238 66.7214 144.236 66.7227 144.234C66.7852 144.141 66.724 144.232 66.7891 144.135C66.8125 144.1 66.8373 144.063 66.8633 144.023C66.8698 144.014 66.8666 144.019 66.8731 144.009C66.8798 143.999 66.8764 144.004 66.8831 143.994C66.9098 143.954 66.8765 144.004 66.9034 143.963C66.9241 143.932 66.8929 143.979 66.9137 143.948C66.9154 143.945 66.9171 143.943 66.9189 143.94C66.9206 143.938 66.9224 143.935 66.9241 143.932C66.9259 143.93 66.9276 143.927 66.9294 143.924C66.9311 143.922 66.9329 143.919 66.9347 143.916C66.9364 143.914 66.9382 143.911 66.94 143.908C66.9418 143.906 66.9436 143.903 66.9454 143.9C67.0599 143.729 66.918 143.941 67.0352 143.766C67.0977 143.672 67.1654 143.57 67.2383 143.461C67.3112 143.352 67.2761 143.404 67.3516 143.291C67.3812 143.247 67.3514 143.291 67.3811 143.247C67.4109 143.202 67.3663 143.269 67.3961 143.224C67.4314 143.171 67.3759 143.255 67.4112 143.202C67.4314 143.171 67.4213 143.186 67.4417 143.156C67.4443 143.152 67.4468 143.148 67.4494 143.144C67.452 143.14 67.4546 143.137 67.4571 143.133C67.4597 143.129 67.4623 143.125 67.4649 143.121C67.4675 143.117 67.4701 143.113 67.4727 143.109C67.5036 143.063 67.5681 142.966 67.6016 142.916C67.6044 142.912 67.6071 142.908 67.6099 142.904C67.6127 142.899 67.6155 142.895 67.6183 142.891C67.635 142.866 67.6183 142.891 67.635 142.866C67.6577 142.832 67.6462 142.849 67.669 142.815C67.6918 142.781 67.6633 142.823 67.6861 142.789C67.689 142.785 67.6919 142.781 67.6948 142.776C67.6976 142.772 67.7005 142.768 67.7034 142.763C67.7727 142.659 67.6688 142.815 67.7383 142.711C67.7859 142.64 67.7614 142.676 67.8096 142.604C67.8939 142.478 67.7615 142.676 67.846 142.549C67.9324 142.42 67.7963 142.624 67.8829 142.494C67.9571 142.383 67.8832 142.494 67.958 142.381C67.9834 142.343 68.0092 142.305 68.0352 142.266C68.1003 142.168 68.0092 142.305 68.0745 142.207C68.0877 142.187 68.101 142.167 68.1143 142.147C68.141 142.107 68.1076 142.157 68.1344 142.117C68.1749 142.056 68.1141 142.147 68.1546 142.087C68.158 142.082 68.1613 142.076 68.1647 142.071C68.1681 142.066 68.1715 142.061 68.1749 142.056C68.2089 142.005 68.1613 142.076 68.1954 142.025C68.3073 141.857 68.2487 141.945 68.3633 141.773C68.4779 141.602 68.335 141.816 68.4502 141.643C68.4539 141.638 68.4576 141.632 68.4612 141.627C68.4649 141.621 68.4686 141.616 68.4723 141.61C68.476 141.605 68.4796 141.599 68.4833 141.593C68.487 141.588 68.4907 141.582 68.4944 141.577C68.5018 141.566 68.5093 141.555 68.5167 141.543C68.5541 141.487 68.5017 141.566 68.5391 141.51C68.5428 141.504 68.5466 141.499 68.5503 141.493C68.5541 141.487 68.5579 141.482 68.5616 141.476C68.6068 141.408 68.5391 141.51 68.5843 141.442C68.6147 141.396 68.5766 141.454 68.607 141.408C68.6108 141.402 68.6146 141.396 68.6185 141.391C68.6223 141.385 68.6261 141.379 68.6299 141.374C68.6605 141.328 68.6914 141.281 68.7227 141.234C68.8177 141.092 68.7217 141.236 68.8174 141.092C68.9131 140.949 68.7697 141.164 68.8655 141.02C68.9305 140.923 68.849 141.045 68.9141 140.947C68.9304 140.923 68.9223 140.935 68.9386 140.911C68.9427 140.904 68.9468 140.898 68.9509 140.892C68.955 140.886 68.9591 140.88 68.9632 140.874C69.0618 140.726 68.9139 140.948 69.0127 140.799C69.0796 140.699 68.9957 140.825 69.0628 140.724C69.067 140.718 69.0712 140.712 69.0754 140.705C69.0796 140.699 69.0838 140.693 69.088 140.686C69.0922 140.68 69.0964 140.674 69.1006 140.667C69.1049 140.661 69.1091 140.655 69.1133 140.648C69.1176 140.642 69.1218 140.636 69.126 140.629C69.1303 140.623 69.1345 140.617 69.1388 140.61C69.1643 140.572 69.1388 140.61 69.1643 140.572C69.1901 140.533 69.1643 140.572 69.19 140.533C69.1943 140.527 69.1986 140.521 69.2029 140.514C69.2072 140.508 69.2115 140.501 69.2159 140.495C69.2849 140.391 69.2507 140.442 69.3204 140.338C69.3907 140.232 69.4623 140.125 69.5352 140.016C69.6081 139.906 69.572 139.96 69.6455 139.85C69.6548 139.836 69.6641 139.822 69.6734 139.808C69.6781 139.801 69.6828 139.794 69.6874 139.787C69.6921 139.78 69.6968 139.773 69.7015 139.766C69.7389 139.71 69.6921 139.78 69.7296 139.724C69.7673 139.667 69.7201 139.738 69.7579 139.682C69.7956 139.625 69.7768 139.653 69.8147 139.596C69.8529 139.539 69.8051 139.611 69.8434 139.553C69.8481 139.546 69.8529 139.539 69.8577 139.532C69.8625 139.525 69.8673 139.517 69.8721 139.51C69.9489 139.395 69.9109 139.452 69.9883 139.336C70.0664 139.219 70.1459 139.1 70.2266 138.979C70.3477 138.797 70.2269 138.978 70.3487 138.795C70.3538 138.788 70.3589 138.78 70.3641 138.772C70.3692 138.765 70.3744 138.757 70.3795 138.749C70.3846 138.741 70.3898 138.734 70.395 138.726C70.4001 138.718 70.4053 138.711 70.4104 138.703C70.4311 138.672 70.4208 138.687 70.4415 138.656C70.4467 138.648 70.4519 138.641 70.4571 138.633C70.4623 138.625 70.4675 138.617 70.4727 138.609L67.1445 136.391C65.8112 138.391 64.8112 139.891 64.1445 140.891C64.0612 141.016 63.983 141.133 63.9101 141.242C63.8737 141.297 63.8385 141.35 63.8046 141.4C63.8002 141.407 63.7587 141.469 63.7548 141.475C63.7528 141.478 63.7326 141.508 63.7307 141.511C63.7257 141.519 63.7237 141.522 63.7188 141.529C63.7168 141.532 63.7148 141.535 63.7129 141.538C63.7109 141.541 63.7089 141.544 63.707 141.547C63.5924 141.719 63.6393 141.648 63.5351 141.805C63.5062 141.848 63.413 141.988 63.3945 142.016C63.3785 142.04 63.3493 142.083 63.3359 142.103C63.3268 142.117 63.318 142.13 63.3095 142.143C63.2841 142.181 63.3099 142.143 63.2851 142.18C63.2695 142.203 63.2552 142.225 63.2421 142.244C63.2378 142.251 63.2087 142.294 63.207 142.297C63.1931 142.318 63.1636 142.362 63.1601 142.367C63.1558 142.374 63.1501 142.382 63.1484 142.385C63.1469 142.387 63.1463 142.388 63.1455 142.389C63.1453 142.389 63.1448 142.39 63.1447 142.39C63.1447 142.39 63.1446 142.39 63.1446 142.391C63.1445 142.391 63.1445 142.391 63.1445 142.391C63.1445 142.391 63.1445 142.391 64.8086 143.5ZM70.5119 138.548C73.0348 134.448 77.2094 129.764 83.1373 124.495L80.4799 121.505C74.4078 126.903 69.9157 131.885 67.1053 136.452L70.5119 138.548ZM83.1373 124.495C88.9284 119.347 96.5539 114.787 106.073 110.848L104.544 107.152C94.7299 111.213 86.6888 115.986 80.4799 121.505L83.1373 124.495ZM106.127 110.825C115.467 106.638 127.004 104.5 140.809 104.5V100.5C126.613 100.5 114.483 102.696 104.49 107.175L106.127 110.825ZM140.809 104.5C162.534 104.5 180.115 109.108 193.699 118.164L195.918 114.836C181.502 105.225 163.084 100.5 140.809 100.5V104.5ZM193.727 118.182C207.412 126.98 217.131 138.34 222.964 152.272L226.653 150.728C220.486 135.994 210.205 124.02 195.89 114.818L193.727 118.182ZM222.979 152.308C229.174 166.328 231.622 181.159 230.316 196.834L234.302 197.166C235.662 180.841 233.11 165.339 226.638 150.692L222.979 152.308ZM230.316 196.834C229.012 212.472 223.637 227.661 214.127 242.417L217.49 244.583C227.314 229.339 232.938 213.528 234.302 197.166L230.316 196.834ZM214.139 242.399C204.658 256.783 191.73 268.743 175.305 278.27L177.312 281.73C194.22 271.923 207.625 259.55 217.479 244.601L214.139 242.399ZM175.331 278.255C159.015 287.392 139.697 292 117.309 292V296C140.253 296 160.269 291.274 177.286 281.745L175.331 278.255ZM297.828 256.5L296.266 257.749L296.274 257.759L297.828 256.5ZM279.328 72L281.175 72.7672L281.179 72.7573L279.328 72ZM321.328 21L322.396 22.691L322.404 22.6861L321.328 21ZM492.328 42.5L490.757 43.7374L490.764 43.7469L492.328 42.5ZM509.828 226L511.669 226.781L511.673 226.771L509.828 226ZM467.328 277.5L468.417 279.178L467.328 277.5ZM443.328 217L441.711 215.824L441.706 215.83L443.328 217ZM443.828 81.5L442.206 82.6696L443.828 81.5ZM345.828 81L344.237 79.7879L344.233 79.7938L345.828 81ZM345.328 216.5L343.676 217.627L343.684 217.639L343.693 217.652L345.328 216.5ZM394.828 294C351.916 294 320.234 280.98 299.382 255.241L296.274 257.759C318.089 284.687 351.074 298 394.828 298V294ZM299.39 255.251C278.419 229.037 267.828 193.691 267.828 149H263.828C263.828 194.309 274.57 230.629 296.266 257.749L299.39 255.251ZM267.828 149C267.828 119.53 272.299 94.1357 281.175 72.7672L277.481 71.2328C268.357 93.1977 263.828 119.137 263.828 149H267.828ZM281.179 72.7573C290.031 51.1188 303.769 34.4555 322.396 22.691L320.26 19.309C300.887 31.5444 286.625 48.8812 277.477 71.2427L281.179 72.7573ZM322.404 22.6861C341.334 10.61 365.432 4.5 394.828 4.5V0.5C364.891 0.5 339.989 6.72336 320.253 19.3139L322.404 22.6861ZM394.828 4.5C438.412 4.5 470.243 17.6884 490.757 43.7374L493.899 41.2626C472.413 13.9782 439.244 0.5 394.828 0.5V4.5ZM490.764 43.7469C511.402 69.6254 521.828 104.638 521.828 149H525.828C525.828 104.028 515.255 68.0412 493.892 41.253L490.764 43.7469ZM521.828 149C521.828 177.787 517.196 203.183 507.983 225.229L511.673 226.771C521.127 204.15 525.828 178.213 525.828 149H521.828ZM507.987 225.219C498.8 246.873 484.886 263.719 466.239 275.822L468.417 279.178C487.77 266.615 502.189 249.127 511.669 226.781L507.987 225.219ZM466.239 275.822C447.646 287.891 423.888 294 394.828 294V298C424.435 298 449.01 291.775 468.417 279.178L466.239 275.822ZM394.328 240.5C417.115 240.5 434.143 233.161 444.951 218.17L441.706 215.83C431.847 229.506 416.207 236.5 394.328 236.5V240.5ZM444.946 218.176C455.981 203.003 461.328 179.826 461.328 149H457.328C457.328 179.507 452.009 201.663 441.711 215.824L444.946 218.176ZM461.328 149C461.328 118.188 456.152 95.1745 445.45 80.3304L442.206 82.6696C452.171 96.4921 457.328 118.478 457.328 149H461.328ZM445.45 80.3304C434.637 65.3314 417.436 58 394.328 58V62C416.553 62 432.352 69.002 442.206 82.6696L445.45 80.3304ZM394.328 58C372.198 58 355.37 65.1765 344.237 79.7879L347.419 82.2121C357.62 68.8235 373.125 62 394.328 62V58ZM344.233 79.7938C333.493 93.9977 328.328 117.219 328.328 149H332.328C332.328 117.448 337.496 95.3356 347.423 82.2062L344.233 79.7938ZM328.328 149C328.328 179.481 333.339 202.467 343.676 217.627L346.981 215.373C337.317 201.2 332.328 179.185 332.328 149H328.328ZM343.693 217.652C354.494 232.981 371.523 240.5 394.328 240.5V236.5C372.466 236.5 356.829 229.352 346.963 215.348L343.693 217.652ZM583.914 256.5L582.352 257.749L582.36 257.759L583.914 256.5ZM565.414 72L567.261 72.7672L567.265 72.7573L565.414 72ZM607.414 21L608.482 22.691L608.49 22.6861L607.414 21ZM778.414 42.5L776.843 43.7374L776.85 43.7469L778.414 42.5ZM795.914 226L797.755 226.781L797.759 226.771L795.914 226ZM753.414 277.5L754.503 279.178L753.414 277.5ZM729.414 217L727.797 215.824L727.792 215.83L729.414 217ZM729.914 81.5L728.292 82.6696L729.914 81.5ZM631.914 81L630.323 79.7879L630.319 79.7938L631.914 81ZM631.414 216.5L629.762 217.627L629.77 217.639L629.779 217.652L631.414 216.5ZM680.914 294C638.002 294 606.32 280.98 585.468 255.241L582.36 257.759C604.175 284.687 637.16 298 680.914 298V294ZM585.476 255.251C564.505 229.037 553.914 193.691 553.914 149H549.914C549.914 194.309 560.656 230.629 582.352 257.749L585.476 255.251ZM553.914 149C553.914 119.53 558.385 94.1357 567.261 72.7672L563.567 71.2328C554.443 93.1977 549.914 119.137 549.914 149H553.914ZM567.265 72.7573C576.117 51.1188 589.855 34.4555 608.482 22.691L606.346 19.309C586.973 31.5444 572.711 48.8812 563.563 71.2427L567.265 72.7573ZM608.49 22.6861C627.42 10.61 651.518 4.5 680.914 4.5V0.5C650.977 0.5 626.075 6.72336 606.338 19.3139L608.49 22.6861ZM680.914 4.5C724.498 4.5 756.329 17.6884 776.843 43.7374L779.985 41.2626C758.499 13.9782 725.33 0.5 680.914 0.5V4.5ZM776.85 43.7469C797.488 69.6254 807.914 104.638 807.914 149H811.914C811.914 104.028 801.341 68.0412 779.978 41.253L776.85 43.7469ZM807.914 149C807.914 177.787 803.282 203.183 794.069 225.229L797.759 226.771C807.213 204.15 811.914 178.213 811.914 149H807.914ZM794.073 225.219C784.886 246.873 770.972 263.719 752.325 275.822L754.503 279.178C773.856 266.615 788.275 249.127 797.755 226.781L794.073 225.219ZM752.325 275.822C733.732 287.891 709.973 294 680.914 294V298C710.521 298 735.096 291.775 754.503 279.178L752.325 275.822ZM680.414 240.5C703.201 240.5 720.229 233.161 731.036 218.17L727.792 215.83C717.933 229.506 702.293 236.5 680.414 236.5V240.5ZM731.032 218.176C742.066 203.003 747.414 179.826 747.414 149H743.414C743.414 179.507 738.095 201.663 727.797 215.824L731.032 218.176ZM747.414 149C747.414 118.188 742.238 95.1745 731.536 80.3304L728.292 82.6696C738.257 96.4921 743.414 118.478 743.414 149H747.414ZM731.536 80.3304C720.723 65.3314 703.522 58 680.414 58V62C702.639 62 718.438 69.002 728.292 82.6696L731.536 80.3304ZM680.414 58C658.284 58 641.456 65.1765 630.323 79.7879L633.505 82.2121C643.706 68.8235 659.211 62 680.414 62V58ZM630.319 79.7938C619.579 93.9977 614.414 117.219 614.414 149H618.414C618.414 117.448 623.582 95.3356 633.509 82.2062L630.319 79.7938ZM614.414 149C614.414 179.481 619.425 202.467 629.762 217.627L633.067 215.373C623.403 201.2 618.414 179.185 618.414 149H614.414ZM629.779 217.652C640.579 232.981 657.609 240.5 680.414 240.5V236.5C658.552 236.5 642.915 229.352 633.049 215.348L629.779 217.652Z" fill="#F6F7FB"/>
</svg>
