<svg width="32" height="32" viewBox="0 0 32 32" fill="none" xmlns="http://www.w3.org/2000/svg">
<path d="M5.33398 15.6343C5.33398 15.1281 5.71019 14.7097 6.19829 14.6434L6.33398 14.6343L23.9127 14.6351L17.562 8.31041C17.1706 7.92072 17.1693 7.28756 17.559 6.8962C17.9132 6.54041 18.4687 6.50694 18.8608 6.79657L18.9732 6.89315L27.0398 14.9252C27.0914 14.9765 27.1362 15.0321 27.1743 15.0908C27.185 15.1085 27.1959 15.1266 27.2063 15.145C27.2158 15.1608 27.2244 15.1772 27.2326 15.1938C27.2439 15.218 27.2549 15.2429 27.2649 15.2684C27.273 15.288 27.2798 15.3071 27.286 15.3263C27.2934 15.3502 27.3006 15.3756 27.3067 15.4014C27.3113 15.4194 27.3149 15.4368 27.3181 15.4542C27.3225 15.4801 27.3263 15.5069 27.329 15.534C27.3314 15.5547 27.3328 15.5752 27.3335 15.5958C27.3337 15.6082 27.334 15.6212 27.334 15.6343L27.3335 15.6731C27.3327 15.6927 27.3314 15.7123 27.3295 15.7318L27.334 15.6343C27.334 15.6974 27.3281 15.7592 27.317 15.819C27.3144 15.8333 27.3113 15.848 27.3079 15.8626C27.3008 15.8927 27.2925 15.9217 27.2831 15.9501C27.2785 15.9642 27.2731 15.9793 27.2673 15.9943C27.2556 16.0244 27.2429 16.0531 27.2289 16.081C27.2224 16.0942 27.2152 16.1079 27.2075 16.1215C27.195 16.1437 27.1822 16.1648 27.1686 16.1854C27.1589 16.2 27.1483 16.2151 27.1372 16.2301L27.1286 16.2416C27.1016 16.2768 27.0724 16.3101 27.0411 16.3414L27.0399 16.3424L18.9732 24.3757C18.5819 24.7654 17.9487 24.7641 17.559 24.3728C17.2047 24.017 17.1736 23.4614 17.4649 23.0705L17.5619 22.9585L23.91 16.6351L6.33398 16.6343C5.7817 16.6343 5.33398 16.1866 5.33398 15.6343Z" fill="white"/>
</svg>
