<svg width="22" height="19" viewBox="0 0 22 19" fill="none" xmlns="http://www.w3.org/2000/svg">
<path d="M12.8703 18.1886C12.6628 18.1886 12.4554 18.1265 12.284 18.0023L6.17808 13.8255H1.78578C0.8027 13.8255 0 13.0362 0 12.0696V6.11907C0 5.15244 0.8027 4.36318 1.78578 4.36318H6.17808L12.284 0.186292C12.4554 0.0621379 12.6538 6.10352e-05 12.8703 6.10352e-05C13.4385 6.10352e-05 13.9075 0.452335 13.9075 1.0199V17.1687C13.8984 17.7274 13.4385 18.1886 12.8703 18.1886ZM12.8612 16.6455L12.8703 1.53425C12.8703 1.31254 12.6177 1.17952 12.4283 1.31254L7.21528 4.87753C6.98078 5.03715 6.8455 5.29433 6.8455 5.57811V12.6105C6.8455 12.8854 6.98078 13.1515 7.21528 13.3111L12.4283 16.8761C12.6087 17.0003 12.8612 16.8672 12.8612 16.6455ZM1.78578 5.37414C1.3709 5.37414 1.02818 5.70226 1.02818 6.11907V12.0784C1.02818 12.4864 1.36188 12.8234 1.78578 12.8234H5.48361C5.664 12.8234 5.81732 12.6726 5.81732 12.4952V5.70226C5.81732 5.5249 5.664 5.37414 5.48361 5.37414H1.78578Z" fill="#F48825"/>
<path d="M16.5964 9.09862C16.5964 8.47785 16.3619 7.90143 15.92 7.41368C15.8388 7.325 15.7125 7.27179 15.5772 7.27179C15.4329 7.27179 15.2976 7.33387 15.2165 7.43142C15.1082 7.56444 15.1173 7.73293 15.2345 7.86595C15.5502 8.21181 15.7215 8.65522 15.7215 9.09862V9.10749C15.7215 9.5509 15.5502 9.98544 15.2435 10.3402C15.1263 10.4732 15.1263 10.6417 15.2345 10.7747C15.3157 10.8722 15.451 10.9343 15.5953 10.9343C15.7306 10.9343 15.8568 10.8811 15.938 10.7924C16.3709 10.3136 16.5964 9.72826 16.5964 9.11636V9.09862Z" fill="#F48825"/>
<path d="M19.1048 9.08975C19.0958 7.68858 18.4645 6.3761 17.31 5.40061C17.2289 5.32966 17.1206 5.29419 17.0034 5.29419C16.8681 5.29419 16.7418 5.3474 16.6516 5.43608L16.6426 5.45382C16.5254 5.59571 16.5434 5.7908 16.6967 5.92383C17.6798 6.75743 18.221 7.88368 18.23 9.09861V9.11635C18.23 10.3224 17.6979 11.4487 16.7238 12.2823C16.5705 12.4153 16.5524 12.6104 16.6697 12.7523V12.7611C16.7508 12.8587 16.8861 12.9119 17.0214 12.9119C17.1387 12.9119 17.2469 12.8764 17.3371 12.7966C18.4735 11.8211 19.0958 10.5086 19.0958 9.11635V9.08975H19.1048Z" fill="#F48825"/>
<path d="M18.9159 3.43196C18.8347 3.36988 18.7355 3.33441 18.6272 3.33441C18.4829 3.33441 18.3476 3.39649 18.2665 3.49404L18.2575 3.50291V3.51177C18.2033 3.58272 18.1763 3.66253 18.1853 3.74235C18.1943 3.83103 18.2394 3.91084 18.3206 3.97292C19.9891 5.26766 20.9451 7.12997 20.9542 9.09869V9.1253C20.9542 11.0763 20.0072 12.9475 18.3657 14.2422C18.2845 14.3043 18.2394 14.3841 18.2304 14.4728C18.2214 14.5615 18.2484 14.6413 18.3116 14.7122V14.7211C18.3927 14.8186 18.528 14.8718 18.6633 14.8718C18.7715 14.8718 18.8798 14.8364 18.9609 14.7743C20.7828 13.3377 21.82 11.2714 21.82 9.1253V9.08982C21.82 6.926 20.7557 4.85973 18.9159 3.43196Z" fill="#F48825"/>
</svg>
