<svg width="10" height="9" viewBox="0 0 10 9" fill="none" xmlns="http://www.w3.org/2000/svg">
<path d="M9.19998 0.306647C8.93998 0.0466473 8.51998 0.0466473 8.25998 0.306647L4.99998 3.55998L1.73998 0.29998C1.47998 0.0399805 1.05998 0.0399805 0.79998 0.29998C0.53998 0.559981 0.53998 0.979981 0.79998 1.23998L4.05998 4.49998L0.79998 7.75998C0.53998 8.01998 0.53998 8.43998 0.79998 8.69998C1.05998 8.95998 1.47998 8.95998 1.73998 8.69998L4.99998 5.43998L8.25998 8.69998C8.51998 8.95998 8.93998 8.95998 9.19998 8.69998C9.45998 8.43998 9.45998 8.01998 9.19998 7.75998L5.93998 4.49998L9.19998 1.23998C9.45331 0.986647 9.45331 0.559981 9.19998 0.306647Z" fill="white"/>
</svg>
