<svg width="15" height="20" viewBox="0 0 15 20" fill="none" xmlns="http://www.w3.org/2000/svg">
<path d="M14.6372 4.21312L10.6049 0.162043C10.5001 0.056715 10.363 0 10.2178 0H1.75002C0.782266 0 0 0.785908 0 1.75817V17.9625C0 18.9347 0.782266 19.7206 1.75002 19.7206H13.0405C14.0082 19.7206 14.7905 18.9347 14.7905 17.9625V4.59392C14.7905 4.44808 14.734 4.31034 14.6372 4.21312ZM1.08066 1.75817C1.08066 1.38547 1.37905 1.08569 1.75002 1.08569H9.67751V3.37859C9.67751 4.35085 10.4598 5.13676 11.4275 5.13676H13.7098V17.9625C13.7098 18.3352 13.4114 18.6349 13.0405 18.6349H1.75002C1.37905 18.6349 1.08066 18.3352 1.08066 17.9625V1.75817ZM11.4275 4.05107C11.0566 4.05107 10.7582 3.75129 10.7582 3.37859V1.85539L12.9437 4.05107H11.4275Z" fill="#F48825"/>
<path d="M3.76702 16.3015C4.42832 16.3015 5.54123 15.467 6.4606 13.6035C7.42835 13.2227 8.61384 12.9715 9.26708 12.8581C10.3477 13.6926 10.8235 13.8709 11.0252 13.8709C11.7994 13.8709 12.1945 13.5225 12.1945 12.8419C12.1945 11.9264 11.13 11.9264 10.6219 11.9264C10.4687 11.9264 10.0493 11.9669 9.42837 12.0641C9.02514 11.7481 8.68643 11.4483 8.46062 11.2215C8.15416 10.9136 7.87997 10.6138 7.63803 10.3221L7.6219 10.3059L7.62996 10.2816C7.96061 9.26075 8.16223 8.56396 8.16223 8.23177C8.16223 6.77339 7.55738 6.65186 6.99286 6.65186C6.4606 6.65186 5.82349 6.93543 5.82349 8.27228C5.82349 8.86374 6.15414 9.59294 6.79931 10.4356L6.81544 10.4518L6.25092 12.1694C6.15414 12.4611 6.0493 12.7366 5.9122 13.0363C5.83962 13.0688 5.6864 13.1417 5.62188 13.1741C5.32349 13.328 5.03316 13.4577 4.71058 13.6116C3.43637 14.2193 2.59766 14.6163 2.59766 15.3941C2.59766 15.9612 3.2025 16.3015 3.76702 16.3015ZM5.32349 14.1382L5.23478 14.2598C4.6138 15.1591 4.0009 15.5723 3.76702 15.5723C3.52508 15.5723 3.35573 15.4589 3.32347 15.4022C3.32347 15.0862 4.14606 14.6973 5.0251 14.276L5.32349 14.1382ZM6.99286 7.38915C7.32351 7.38915 7.43641 7.42966 7.43641 8.23988C7.43641 8.41002 7.33964 8.79892 7.11383 9.52002L7.08964 9.60104L7.04125 9.52812C6.71866 9.02578 6.54931 8.60447 6.54931 8.28039C6.54931 7.49448 6.75899 7.38915 6.99286 7.38915ZM8.43642 12.2666C7.88803 12.3882 7.3719 12.5259 6.90415 12.6718L6.8235 12.6961L7.3477 11.1161L7.39609 11.1648C7.56545 11.3511 7.74287 11.5374 7.93642 11.7319C8.009 11.8048 8.20255 11.975 8.44449 12.1937L8.509 12.2504L8.43642 12.2666ZM10.3719 12.6718C10.4848 12.6555 10.5735 12.6555 10.6219 12.6555C11.2752 12.6555 11.4123 12.7285 11.4687 12.8419C11.4687 13.0526 11.4687 13.1174 11.0574 13.1174C11.0574 13.1174 10.8477 13.085 10.3477 12.7528L10.259 12.688L10.3719 12.6718Z" fill="#F48825"/>
</svg>
