<svg width="22" height="16" viewBox="0 0 22 16" fill="none" xmlns="http://www.w3.org/2000/svg">
<path d="M11.001 0.5C6.00098 0.5 1.73098 3.61 0.000976562 8C1.73098 12.39 6.00098 15.5 11.001 15.5C16.001 15.5 20.271 12.39 22.001 8C20.271 3.61 16.001 0.5 11.001 0.5ZM11.001 13C8.24098 13 6.00098 10.76 6.00098 8C6.00098 5.24 8.24098 3 11.001 3C13.761 3 16.001 5.24 16.001 8C16.001 10.76 13.761 13 11.001 13ZM11.001 5C9.34098 5 8.00098 6.34 8.00098 8C8.00098 9.66 9.34098 11 11.001 11C12.661 11 14.001 9.66 14.001 8C14.001 6.34 12.661 5 11.001 5Z" fill="#797A7A"/>
</svg>
