<svg width="215" height="59" viewBox="0 0 215 59" fill="none" xmlns="http://www.w3.org/2000/svg">
<path d="M64.0322 18.8929C63.1354 17.4108 62.687 15.6965 62.687 13.7679C62.687 11.8393 63.1354 10.1429 64.0322 8.66075C64.929 7.17861 66.0769 6.07146 67.476 5.33932C68.875 4.60718 70.3995 4.23218 72.0497 4.23218C73.6998 4.23218 75.2244 4.60718 76.6234 5.33932C78.0224 6.08932 79.1703 7.19646 80.085 8.66075C80.9818 10.1429 81.4302 11.8393 81.4302 13.7679C81.4302 15.6965 80.9818 17.4108 80.085 18.8929C79.1882 20.375 78.0403 21.4822 76.6234 22.2322C75.2244 22.9643 73.6998 23.3393 72.0497 23.3393C70.3995 23.3393 68.875 22.9643 67.476 22.2322C66.0769 21.4822 64.929 20.375 64.0322 18.8929ZM67.7091 8.89289C66.4895 10.0536 65.8976 11.6786 65.8976 13.7679C65.8976 15.8572 66.5074 17.4822 67.7091 18.6429C68.9288 19.8036 70.3637 20.3929 72.0497 20.3929C73.7357 20.3929 75.1705 19.8036 76.4081 18.6429C77.6278 17.4822 78.2376 15.8572 78.2376 13.7679C78.2376 11.6786 77.6278 10.0536 76.4081 8.89289C75.1885 7.73218 73.7357 7.14289 72.0497 7.14289C70.3637 7.16075 68.9108 7.73218 67.7091 8.89289Z" fill="#48B774"/>
<path d="M90.9002 15.6964V22.9643H87.887V10.3571H90.8285V12.0357C91.2231 11.3393 91.7612 10.8393 92.4248 10.5C93.0884 10.1607 93.8059 10 94.5592 10C96.0479 10 97.1779 10.4643 97.967 11.3929C98.7383 12.3214 99.1329 13.5179 99.1329 14.9821V22.9464H96.1196V15.5C96.1196 14.6607 95.9044 13.9821 95.4919 13.4643C95.0793 12.9643 94.4157 12.6964 93.5189 12.6964C92.6938 12.6964 92.0481 12.9821 91.5818 13.5357C91.1334 14.1071 90.9002 14.8214 90.9002 15.6964Z" fill="#48B774"/>
<path d="M109.232 22.9465H106.219V4.23218H109.232V22.9465Z" fill="#48B774"/>
<path d="M116.675 7.30352C116.298 6.92852 116.101 6.46423 116.101 5.92852C116.101 5.39281 116.298 4.92852 116.675 4.55352C117.051 4.16066 117.518 3.96423 118.056 3.96423C118.612 3.96423 119.078 4.16066 119.455 4.53566C119.831 4.91066 120.029 5.37495 120.029 5.92852C120.029 6.46423 119.831 6.92852 119.455 7.30352C119.078 7.67852 118.612 7.87495 118.056 7.87495C117.5 7.87495 117.051 7.69638 116.675 7.30352ZM119.544 22.9464H116.549V10.3571H119.544V22.9464Z" fill="#48B774"/>
<path d="M129.893 15.6964V22.9643H126.88V10.3571H129.821V12.0357C130.216 11.3393 130.754 10.8393 131.418 10.5C132.081 10.1607 132.799 10 133.552 10C135.041 10 136.171 10.4643 136.96 11.3929C137.731 12.3214 138.126 13.5179 138.126 14.9821V22.9464H135.112V15.5C135.112 14.6607 134.897 13.9821 134.485 13.4643C134.072 12.9643 133.408 12.6964 132.512 12.6964C131.687 12.6964 131.041 12.9821 130.575 13.5357C130.108 14.1071 129.893 14.8214 129.893 15.6964Z" fill="#48B774"/>
<path d="M153.857 18.5534L156.404 19.3569C156.045 20.5176 155.364 21.4641 154.359 22.2141C153.355 22.9641 152.135 23.3391 150.682 23.3391C148.889 23.3391 147.346 22.7319 146.091 21.4998C144.835 20.2676 144.207 18.6426 144.207 16.5891C144.207 14.6605 144.817 13.0712 146.037 11.8391C147.256 10.5891 148.691 9.98193 150.359 9.98193C152.296 9.98193 153.821 10.5712 154.897 11.7498C155.991 12.9284 156.529 14.5176 156.529 16.5176C156.529 17.0534 156.511 17.3748 156.458 17.4819H147.203C147.238 18.4284 147.579 19.2141 148.261 19.8391C148.924 20.4641 149.732 20.7676 150.664 20.7676C152.314 20.7498 153.373 20.0176 153.857 18.5534ZM147.31 15.2676H153.516C153.48 14.4819 153.193 13.8034 152.673 13.2676C152.153 12.7319 151.382 12.4641 150.395 12.4641C149.498 12.4641 148.763 12.7498 148.207 13.3034C147.669 13.8748 147.364 14.5355 147.31 15.2676Z" fill="#48B774"/>
<path d="M70.3096 48.1071H63.8168V29.7856H70.3276C72.9283 29.7856 75.0627 30.6071 76.7487 32.2499C78.4347 33.8928 79.2777 36.1428 79.2777 38.9999C79.2777 41.8392 78.4347 44.0714 76.7308 45.6964C75.0448 47.3035 72.9104 48.1071 70.3096 48.1071ZM66.9197 45.2678H70.1841C71.888 45.2678 73.287 44.7321 74.3811 43.6428C75.4753 42.5714 76.0313 41.0178 76.0313 38.9821C76.0313 36.9285 75.4932 35.3571 74.3991 34.2678C73.305 33.1785 71.906 32.6249 70.22 32.6249H66.9197V45.2678Z" fill="#12394A"/>
<path d="M90.2554 43.7143L92.8023 44.5178C92.4436 45.6785 91.762 46.625 90.7576 47.375C89.7531 48.125 88.5335 48.5 87.0807 48.5C85.287 48.5 83.7445 47.8928 82.489 46.6607C81.2335 45.4285 80.6057 43.8035 80.6057 41.75C80.6057 39.8214 81.2155 38.2321 82.4352 37C83.6549 35.75 85.0897 35.1428 86.7578 35.1428C88.6949 35.1428 90.2195 35.7321 91.2956 36.9107C92.3897 38.0892 92.9278 39.6785 92.9278 41.6785C92.9278 42.2142 92.9099 42.5357 92.8561 42.6428H83.601C83.6369 43.5893 83.9777 44.375 84.6593 45C85.3229 45.625 86.13 45.9285 87.0627 45.9285C88.7128 45.9107 89.7711 45.1785 90.2554 43.7143ZM83.7087 40.4285H89.9146C89.8787 39.6428 89.5917 38.9642 89.0716 38.4285C88.5514 37.8928 87.7802 37.625 86.7937 37.625C85.8969 37.625 85.1615 37.9107 84.6055 38.4642C84.0674 39.0357 83.7625 39.6964 83.7087 40.4285Z" fill="#12394A"/>
<path d="M93.9673 44.6964L96.586 43.9642C96.6398 44.5714 96.8909 45.0714 97.3393 45.4821C97.7877 45.8928 98.3975 46.1071 99.1508 46.1071C99.7427 46.1071 100.209 45.9642 100.532 45.6964C100.873 45.4285 101.034 45.0714 101.034 44.6607C101.034 43.9285 100.532 43.4642 99.5454 43.2678L97.6801 42.8571C96.5859 42.6071 95.743 42.1607 95.169 41.5178C94.5771 40.8571 94.2901 40.0892 94.2901 39.1964C94.2901 38.0892 94.7385 37.1428 95.6353 36.3392C96.5321 35.5357 97.6442 35.1428 98.9356 35.1428C99.7606 35.1428 100.496 35.2678 101.142 35.5C101.787 35.75 102.272 36.0535 102.63 36.4464C102.989 36.8393 103.258 37.2142 103.455 37.5714C103.653 37.9285 103.76 38.3035 103.814 38.6607L101.267 39.3928C101.196 38.9107 100.98 38.4821 100.604 38.0892C100.227 37.6964 99.671 37.5 98.9356 37.5C98.4154 37.5 97.985 37.6428 97.6442 37.9285C97.3034 38.2142 97.124 38.5535 97.124 38.9464C97.124 39.6607 97.5545 40.0892 98.3975 40.2678L100.317 40.6607C101.5 40.9107 102.397 41.3928 103.025 42.0535C103.653 42.7321 103.958 43.5357 103.958 44.4821C103.958 45.5357 103.545 46.4642 102.702 47.2857C101.859 48.1071 100.693 48.5178 99.1867 48.5178C98.3258 48.5178 97.5545 48.3928 96.855 48.125C96.1734 47.875 95.6353 47.5357 95.2407 47.125C94.8462 46.7142 94.5412 46.3214 94.326 45.9107C94.1287 45.5 94.0032 45.0892 93.9673 44.6964Z" fill="#12394A"/>
<path d="M106.307 32.4643C105.93 32.0893 105.733 31.625 105.733 31.0893C105.733 30.5536 105.93 30.0893 106.307 29.7143C106.684 29.3214 107.15 29.125 107.688 29.125C108.244 29.125 108.71 29.3214 109.087 29.6964C109.464 30.0714 109.661 30.5357 109.661 31.0893C109.661 31.625 109.464 32.0893 109.087 32.4643C108.71 32.8393 108.244 33.0357 107.688 33.0357C107.15 33.0357 106.684 32.8571 106.307 32.4643ZM109.177 48.1071H106.181V35.5179H109.177V48.1071Z" fill="#12394A"/>
<path d="M111.419 48.8036L114.199 48.0714C114.307 48.8572 114.648 49.5179 115.222 50.0179C115.795 50.5179 116.513 50.7857 117.356 50.7857C119.741 50.7857 120.943 49.5357 120.943 47.0179V45.7143C120.656 46.25 120.19 46.6964 119.544 47.0357C118.898 47.375 118.145 47.5536 117.284 47.5536C115.58 47.5536 114.181 46.9822 113.087 45.8214C111.993 44.6607 111.437 43.1964 111.437 41.4286C111.437 39.7143 111.975 38.2679 113.069 37.0893C114.163 35.9107 115.562 35.3036 117.284 35.3036C119.132 35.3036 120.387 35.9107 121.033 37.1429V35.5357H123.938V46.9464C123.938 48.8036 123.418 50.3572 122.36 51.5893C121.302 52.8214 119.67 53.4464 117.446 53.4464C115.813 53.4464 114.45 53 113.338 52.125C112.226 51.2143 111.598 50.125 111.419 48.8036ZM117.786 44.9822C118.755 44.9822 119.544 44.6607 120.136 44.0179C120.728 43.375 121.033 42.5 121.033 41.4107C121.033 40.3393 120.728 39.4822 120.118 38.8393C119.508 38.1964 118.737 37.875 117.786 37.875C116.818 37.875 116.029 38.1964 115.401 38.8393C114.791 39.4822 114.486 40.3393 114.486 41.4107C114.486 42.5 114.791 43.3572 115.401 44.0179C115.993 44.6607 116.8 44.9822 117.786 44.9822Z" fill="#12394A"/>
<path d="M129.893 40.8392V48.1071H126.88V35.5178H129.821V37.1964C130.216 36.4999 130.754 35.9999 131.418 35.6606C132.081 35.3214 132.799 35.1606 133.552 35.1606C135.041 35.1606 136.171 35.6249 136.96 36.5535C137.731 37.4821 138.126 38.6785 138.126 40.1428V48.1071H135.112V40.6606C135.112 39.8214 134.897 39.1428 134.485 38.6249C134.072 38.1249 133.408 37.8571 132.512 37.8571C131.687 37.8571 131.041 38.1428 130.575 38.6964C130.108 39.2678 129.893 39.9821 129.893 40.8392Z" fill="#12394A"/>
<path d="M159.828 34.0713L157.03 34.9463C156.905 34.2321 156.546 33.5892 155.972 32.9999C155.38 32.4106 154.537 32.1249 153.425 32.1249C152.511 32.1249 151.757 32.3749 151.147 32.8928C150.555 33.4106 150.251 34.0356 150.251 34.7499C150.251 35.9999 150.968 36.7856 152.403 37.1071L155.057 37.6428C156.654 37.9463 157.873 38.5892 158.752 39.5356C159.613 40.4821 160.044 41.6071 160.044 42.9285C160.044 44.4463 159.452 45.7499 158.286 46.8392C157.12 47.9285 155.524 48.4821 153.515 48.4821C151.345 48.4821 149.659 47.9106 148.457 46.7856C147.237 45.6606 146.556 44.3392 146.412 42.8392L149.318 42.0178C149.426 43.0535 149.838 43.9285 150.573 44.6249C151.309 45.3392 152.295 45.6785 153.533 45.6785C154.609 45.6785 155.434 45.4463 156.008 44.9642C156.582 44.4821 156.887 43.8749 156.887 43.1428C156.887 42.5356 156.672 42.0178 156.241 41.5713C155.811 41.1249 155.201 40.8213 154.43 40.6606L151.829 40.1249C150.394 39.8392 149.246 39.2321 148.421 38.3392C147.578 37.4463 147.166 36.3213 147.166 34.9821C147.166 33.4463 147.775 32.1249 149.013 31.0178C150.251 29.9106 151.721 29.3571 153.425 29.3571C155.38 29.3571 156.887 29.8213 157.927 30.7678C158.932 31.7499 159.577 32.8392 159.828 34.0713Z" fill="#12394A"/>
<path d="M166.788 31.6607V35.5178H169.407V38.1785H166.788V44.0178C166.788 44.5714 166.914 44.9643 167.183 45.2143C167.434 45.4643 167.846 45.5893 168.402 45.5893C168.743 45.5893 169.102 45.5535 169.443 45.4821V47.9643C168.994 48.1607 168.384 48.25 167.595 48.25C166.411 48.25 165.497 47.9107 164.815 47.25C164.133 46.5893 163.811 45.6607 163.811 44.5V38.1607H161.479V35.5H162.125C162.77 35.5 163.255 35.3214 163.577 34.9643C163.9 34.6071 164.08 34.125 164.08 33.5357V31.6428H166.788V31.6607Z" fill="#12394A"/>
<path d="M180.76 46.7142C180.473 47.2677 179.989 47.6963 179.326 47.9999C178.662 48.3035 177.944 48.4642 177.191 48.4642C175.72 48.4642 174.555 47.982 173.694 47.0356C172.833 46.0892 172.402 44.8927 172.402 43.4463V35.4999H175.415V42.8927C175.415 43.732 175.631 44.4285 176.043 44.9642C176.456 45.4999 177.101 45.7677 177.962 45.7677C178.805 45.7677 179.469 45.5177 179.917 44.9999C180.384 44.482 180.599 43.8035 180.599 42.9642V35.5177H183.612V45.8035C183.612 46.5535 183.648 47.3213 183.738 48.107H180.85C180.796 47.732 180.76 47.2677 180.76 46.7142Z" fill="#12394A"/>
<path d="M199.127 29.3928V45.8214C199.127 46.6607 199.163 47.4285 199.252 48.125H196.365C196.275 47.6428 196.239 47.1071 196.239 46.5C195.934 47.0714 195.45 47.5357 194.786 47.8928C194.123 48.25 193.369 48.4285 192.526 48.4285C190.733 48.4285 189.262 47.8035 188.132 46.5357C187.002 45.2857 186.446 43.6964 186.446 41.7857C186.446 39.9464 187.02 38.375 188.15 37.1071C189.28 35.8393 190.733 35.1964 192.473 35.1964C193.477 35.1964 194.284 35.375 194.894 35.7321C195.504 36.0893 195.934 36.5178 196.185 37V29.3928H199.127ZM189.459 41.7857C189.459 43 189.764 43.9643 190.392 44.6964C191.02 45.4285 191.845 45.8035 192.867 45.8035C193.854 45.8035 194.661 45.4285 195.289 44.6964C195.916 43.9643 196.221 42.9821 196.221 41.7678C196.221 40.5714 195.916 39.625 195.306 38.9285C194.697 38.2143 193.89 37.875 192.885 37.875C191.881 37.875 191.056 38.2321 190.41 38.9464C189.782 39.6428 189.459 40.5893 189.459 41.7857Z" fill="#12394A"/>
<path d="M206.929 53.2143H203.7L206.732 46.6251L201.333 35.5358H204.741L208.382 43.5001L211.79 35.5358H214.982L206.929 53.2143Z" fill="#12394A"/>
<path fill-rule="evenodd" clip-rule="evenodd" d="M49.1449 27.6608V49.4465L42.8135 49.0001C40.5715 48.8393 38.0425 49.4108 35.657 50.3929C33.0024 51.5001 30.5272 53.1072 28.7516 54.875L24.5904 58.9822L20.4292 54.875C18.6535 53.125 16.1784 51.5001 13.5238 50.3929C11.1383 49.3929 8.60933 48.8393 6.36731 49.0001L0 49.4643V27.6786H2.49312V46.8036L6.17002 46.5536C8.82456 46.3751 11.7302 47.0001 14.4386 48.1429C17.3801 49.3572 20.1422 51.1786 22.1511 53.1429L24.5725 55.5179L26.9938 53.1429C29.0027 51.1608 31.7648 49.3572 34.7064 48.1429C37.4326 47.0179 40.3383 46.3751 42.9749 46.5536L46.6518 46.8036V27.6608H49.1449Z" fill="#48B774"/>
<path fill-rule="evenodd" clip-rule="evenodd" d="M38.3831 15.6786V11.9643L46.9925 8.32143L24.5723 0L2.15222 8.30357L10.7615 11.9643V15.6964C14.5281 16.2679 18.1333 17.6786 21.4335 19.6071C22.4559 20.1964 23.5321 20.8929 24.5723 21.6429C25.6126 20.8929 26.6888 20.1964 27.7112 19.6071C31.0114 17.6607 34.6166 16.25 38.3831 15.6786Z" fill="#48B774"/>
<path fill-rule="evenodd" clip-rule="evenodd" d="M25.8099 48.0179V51.2322C27.4959 49.7144 34.6344 43.7858 43.1182 44.3751L44.4455 44.4644V17.9108L43.2796 17.8215C35.6388 17.2858 29.0384 21.4465 25.7919 23.9465V27.1608V48.0179H25.8099ZM41.199 38.8215C38.2755 38.9465 35.5312 39.7144 33.1457 40.7322C31.4956 41.4286 30.0069 42.2679 28.7334 43.0536V41.6072C29.8993 40.9108 31.2086 40.2144 32.6435 39.5894C35.1546 38.5179 38.0602 37.6965 41.1811 37.5894V38.8215H41.199ZM41.199 31.9465C38.2755 32.0715 35.5312 32.8394 33.1457 33.8572C31.4956 34.5536 30.0069 35.3929 28.7334 36.1786V34.7144C29.8993 34.0179 31.2086 33.3215 32.6435 32.6965C35.1546 31.6251 38.0602 30.8036 41.1811 30.6965V31.9465H41.199ZM41.199 25.0536C38.2755 25.1786 35.5312 25.9465 33.1457 26.9644C31.4956 27.6608 30.0069 28.5001 28.7334 29.2858V27.8215C29.8993 27.1251 31.2086 26.4286 32.6435 25.8036C35.1546 24.7322 38.0602 23.9108 41.1811 23.8036V25.0536H41.199ZM20.2317 42.9465C19.0121 42.1786 17.5772 41.3929 15.9988 40.7322C13.5774 39.6965 10.7794 38.9108 7.78409 38.8215V37.5894C10.9588 37.6786 13.9182 38.5001 16.4831 39.6072C17.8462 40.1965 19.1197 40.8572 20.2317 41.5179V42.9465ZM20.2317 36.0715C19.0121 35.3036 17.5772 34.5179 15.9988 33.8572C13.5774 32.8215 10.7794 32.0358 7.78409 31.9465V30.7144C10.9588 30.8036 13.9182 31.6251 16.4831 32.7322C17.8462 33.3215 19.1197 33.9822 20.2317 34.6429V36.0715ZM20.2317 29.1965C19.0121 28.4286 17.5772 27.6429 15.9988 26.9822C13.5774 25.9465 10.7794 25.1608 7.78409 25.0715V23.8394C10.9588 23.9286 13.9182 24.7501 16.4831 25.8572C17.8462 26.4465 19.1197 27.1072 20.2317 27.7679V29.1965ZM23.3167 27.1786V23.9644C20.0883 21.4644 13.4698 17.3215 5.82905 17.8394L4.66321 17.9286V44.4644L5.99048 44.3751C14.4743 43.7858 21.6128 49.7144 23.2988 51.2322V48.0179V27.1786H23.3167Z" fill="#48B774"/>
<path d="M215 12.125H164.062V13.2679H215V12.125Z" fill="#48B774"/>
<path d="M215 16.9642H164.062V18.1071H215V16.9642Z" fill="#48B774"/>
<path d="M215 21.8214H164.062V22.9643H215V21.8214Z" fill="#48B774"/>
</svg>
