<svg width="79" height="22" viewBox="0 0 79 22" fill="none" xmlns="http://www.w3.org/2000/svg">
<path d="M23.5285 7.04483C23.1989 6.49217 23.0342 5.85294 23.0342 5.13382C23.0342 4.41469 23.1989 3.78212 23.5285 3.22946C23.858 2.67679 24.2798 2.26396 24.7938 1.99096C25.3079 1.71796 25.8681 1.57812 26.4744 1.57812C27.0807 1.57812 27.6409 1.71796 28.155 1.99096C28.669 2.27062 29.0908 2.68345 29.4269 3.22946C29.7565 3.78212 29.9212 4.41469 29.9212 5.13382C29.9212 5.85294 29.7565 6.49217 29.4269 7.04483C29.0974 7.5975 28.6756 8.01033 28.155 8.28999C27.6409 8.56299 27.0807 8.70282 26.4744 8.70282C25.8681 8.70282 25.3079 8.56299 24.7938 8.28999C24.2798 8.01033 23.858 7.5975 23.5285 7.04483ZM24.8795 3.31602C24.4314 3.74883 24.2139 4.35476 24.2139 5.13382C24.2139 5.91287 24.438 6.5188 24.8795 6.95161C25.3277 7.38442 25.8549 7.60416 26.4744 7.60416C27.0939 7.60416 27.6212 7.38442 28.0759 6.95161C28.524 6.5188 28.7481 5.91287 28.7481 5.13382C28.7481 4.35476 28.524 3.74883 28.0759 3.31602C27.6277 2.88321 27.0939 2.66348 26.4744 2.66348C25.8549 2.67013 25.3211 2.88321 24.8795 3.31602Z" fill="#48B774"/>
<path d="M33.4011 5.85065V8.5607H32.2939V3.85973H33.3748V4.48564C33.5198 4.22596 33.7175 4.03952 33.9613 3.913C34.2052 3.78649 34.4688 3.72656 34.7456 3.72656C35.2926 3.72656 35.7078 3.89969 35.9978 4.24593C36.2812 4.59218 36.4262 5.03831 36.4262 5.58431V8.55404H35.319V5.77741C35.319 5.46446 35.2399 5.21143 35.0883 5.01833C34.9367 4.83189 34.6929 4.73201 34.3634 4.73201C34.0602 4.73201 33.8229 4.83855 33.6516 5.04496C33.4868 5.25804 33.4011 5.52438 33.4011 5.85065Z" fill="#48B774"/>
<path d="M40.1365 8.55633H39.0293V1.57812H40.1365V8.55633Z" fill="#48B774"/>
<path d="M42.8711 2.72172C42.7327 2.58189 42.6602 2.40877 42.6602 2.20901C42.6602 2.00925 42.7327 1.83613 42.8711 1.6963C43.0095 1.54981 43.1808 1.47656 43.3785 1.47656C43.5828 1.47656 43.7542 1.54981 43.8926 1.68964C44.031 1.82947 44.1035 2.00259 44.1035 2.20901C44.1035 2.40877 44.031 2.58189 43.8926 2.72172C43.7542 2.86155 43.5828 2.9348 43.3785 2.9348C43.1742 2.9348 43.0095 2.86821 42.8711 2.72172ZM43.9255 8.55465H42.8249V3.86034H43.9255V8.55465Z" fill="#48B774"/>
<path d="M47.7293 5.85065V8.5607H46.6221V3.85973H47.7029V4.48564C47.8479 4.22596 48.0456 4.03952 48.2895 3.913C48.5333 3.78649 48.7969 3.72656 49.0737 3.72656C49.6207 3.72656 50.0359 3.89969 50.3259 4.24593C50.6093 4.59218 50.7543 5.03831 50.7543 5.58431V8.55404H49.6471V5.77741C49.6471 5.46446 49.568 5.21143 49.4164 5.01833C49.2648 4.83189 49.021 4.73201 48.6915 4.73201C48.3883 4.73201 48.1511 4.83855 47.9797 5.04496C47.8084 5.25804 47.7293 5.52438 47.7293 5.85065Z" fill="#48B774"/>
<path d="M56.534 6.91488L57.4698 7.21451C57.338 7.64732 57.0876 8.00023 56.7185 8.27989C56.3494 8.55955 55.9013 8.69938 55.3674 8.69938C54.7084 8.69938 54.1416 8.47299 53.6803 8.01354C53.2189 7.5541 52.9883 6.94817 52.9883 6.18243C52.9883 5.4633 53.2124 4.87069 53.6605 4.41124C54.1087 3.94514 54.6359 3.71875 55.2488 3.71875C55.9606 3.71875 56.5208 3.93848 56.9162 4.37795C57.3182 4.81742 57.5159 5.41003 57.5159 6.1558C57.5159 6.35555 57.5093 6.47541 57.4896 6.51536H54.0889C54.1021 6.86827 54.2273 7.16124 54.4777 7.39429C54.7216 7.62735 55.0181 7.74054 55.3608 7.74054C55.9672 7.73388 56.356 7.46088 56.534 6.91488ZM54.1284 5.68969H56.4087C56.3956 5.39672 56.2901 5.14369 56.099 4.94393C55.9079 4.74417 55.6245 4.64429 55.262 4.64429C54.9325 4.64429 54.6623 4.75083 54.458 4.95725C54.2602 5.17032 54.1482 5.41669 54.1284 5.68969Z" fill="#48B774"/>
<path d="M25.835 17.9372H23.4492V11.1055H25.8416C26.7972 11.1055 27.5814 11.4118 28.201 12.0244C28.8205 12.6369 29.1302 13.4759 29.1302 14.5413C29.1302 15.6 28.8205 16.4323 28.1944 17.0383C27.5749 17.6375 26.7906 17.9372 25.835 17.9372ZM24.5894 16.8785H25.7888C26.4149 16.8785 26.929 16.6787 27.331 16.2725C27.733 15.873 27.9373 15.2937 27.9373 14.5346C27.9373 13.7689 27.7396 13.1829 27.3376 12.7768C26.9356 12.3706 26.4215 12.1642 25.802 12.1642H24.5894V16.8785Z" fill="white"/>
<path d="M33.1648 16.2977L34.1007 16.5973C33.9689 17.0301 33.7184 17.383 33.3494 17.6627C32.9803 17.9424 32.5321 18.0822 31.9983 18.0822C31.3393 18.0822 30.7725 17.8558 30.3111 17.3964C29.8498 16.9369 29.6191 16.331 29.6191 15.5652C29.6191 14.8461 29.8432 14.2535 30.2914 13.7941C30.7395 13.328 31.2668 13.1016 31.8797 13.1016C32.5914 13.1016 33.1516 13.3213 33.5471 13.7608C33.9491 14.2002 34.1468 14.7928 34.1468 15.5386C34.1468 15.7384 34.1402 15.8582 34.1204 15.8982H30.7198C30.7329 16.2511 30.8582 16.5441 31.1086 16.7771C31.3524 17.0102 31.649 17.1234 31.9917 17.1234C32.598 17.1167 32.9869 16.8437 33.1648 16.2977ZM30.7593 15.0725H33.0396C33.0264 14.7795 32.921 14.5265 32.7298 14.3267C32.5387 14.127 32.2553 14.0271 31.8929 14.0271C31.5633 14.0271 31.2931 14.1336 31.0888 14.3401C30.8911 14.5531 30.7791 14.7995 30.7593 15.0725Z" fill="white"/>
<path d="M34.5273 16.6639L35.4896 16.3909C35.5093 16.6173 35.6016 16.8037 35.7664 16.9569C35.9311 17.11 36.1552 17.1899 36.432 17.1899C36.6495 17.1899 36.8208 17.1367 36.9395 17.0368C37.0647 16.9369 37.124 16.8037 37.124 16.6506C37.124 16.3776 36.9395 16.2045 36.577 16.1312L35.8916 15.9781C35.4896 15.8849 35.1798 15.7184 34.9689 15.4787C34.7514 15.2323 34.646 14.946 34.646 14.6131C34.646 14.2002 34.8107 13.8473 35.1403 13.5477C35.4698 13.2481 35.8784 13.1016 36.3529 13.1016C36.6561 13.1016 36.9263 13.1482 37.1635 13.2347C37.4008 13.328 37.5787 13.4412 37.7105 13.5876C37.8424 13.7341 37.9412 13.874 38.0137 14.0071C38.0862 14.1403 38.1257 14.2801 38.1455 14.4133L37.2097 14.6863C37.1833 14.5065 37.1042 14.3467 36.9658 14.2002C36.8274 14.0537 36.6231 13.9805 36.3529 13.9805C36.1618 13.9805 36.0036 14.0338 35.8784 14.1403C35.7532 14.2468 35.6873 14.3734 35.6873 14.5198C35.6873 14.7862 35.8454 14.946 36.1552 15.0126L36.8604 15.1591C37.2953 15.2523 37.6249 15.4321 37.8555 15.6784C38.0862 15.9315 38.1982 16.2311 38.1982 16.584C38.1982 16.9769 38.0467 17.3231 37.7369 17.6294C37.4272 17.9357 36.9988 18.0888 36.4452 18.0888C36.1288 18.0888 35.8454 18.0422 35.5884 17.9424C35.338 17.8491 35.1403 17.7226 34.9953 17.5695C34.8503 17.4163 34.7382 17.2698 34.6592 17.1167C34.5867 16.9635 34.5405 16.8104 34.5273 16.6639Z" fill="white"/>
<path d="M39.0615 12.1045C38.9231 11.9647 38.8506 11.7916 38.8506 11.5918C38.8506 11.3921 38.9231 11.2189 39.0615 11.0791C39.1999 10.9326 39.3712 10.8594 39.5689 10.8594C39.7733 10.8594 39.9446 10.9326 40.083 11.0724C40.2214 11.2123 40.2939 11.3854 40.2939 11.5918C40.2939 11.7916 40.2214 11.9647 40.083 12.1045C39.9446 12.2444 39.7733 12.3176 39.5689 12.3176C39.3712 12.3176 39.1999 12.251 39.0615 12.1045ZM40.116 17.9375H39.0153V13.2432H40.116V17.9375Z" fill="white"/>
<path d="M40.9404 18.198L41.962 17.925C42.0015 18.2179 42.1267 18.4643 42.3376 18.6507C42.5485 18.8372 42.8121 18.9371 43.1219 18.9371C43.9984 18.9371 44.44 18.471 44.44 17.5321V17.046C44.3345 17.2458 44.1632 17.4122 43.9259 17.5388C43.6887 17.6653 43.4119 17.7319 43.0955 17.7319C42.4694 17.7319 41.9554 17.5188 41.5533 17.086C41.1513 16.6532 40.947 16.1072 40.947 15.448C40.947 14.8087 41.1447 14.2694 41.5468 13.8299C41.9488 13.3905 42.4628 13.1641 43.0955 13.1641C43.7743 13.1641 44.2357 13.3905 44.4729 13.8499V13.2506H45.5406V17.5055C45.5406 18.198 45.3495 18.7773 44.9606 19.2367C44.5718 19.6961 43.9721 19.9292 43.1548 19.9292C42.5551 19.9292 42.0542 19.7627 41.6456 19.4365C41.237 19.0969 41.0063 18.6907 40.9404 18.198ZM43.2801 16.773C43.6359 16.773 43.9259 16.6532 44.1434 16.4135C44.3609 16.1737 44.4729 15.8475 44.4729 15.4413C44.4729 15.0418 44.3609 14.7222 44.1368 14.4825C43.9127 14.2428 43.6293 14.1229 43.2801 14.1229C42.9242 14.1229 42.6342 14.2428 42.4035 14.4825C42.1794 14.7222 42.0674 15.0418 42.0674 15.4413C42.0674 15.8475 42.1794 16.1671 42.4035 16.4135C42.621 16.6532 42.9176 16.773 43.2801 16.773Z" fill="white"/>
<path d="M47.7293 15.2268V17.9369H46.6221V13.2425H47.7029V13.8685C47.8479 13.6088 48.0456 13.4223 48.2895 13.2958C48.5333 13.1693 48.7969 13.1094 49.0737 13.1094C49.6207 13.1094 50.0359 13.2825 50.3259 13.6287C50.6093 13.975 50.7543 14.4211 50.7543 14.9671V17.9369H49.6471V15.1602C49.6471 14.8473 49.568 14.5942 49.4164 14.4011C49.2648 14.2147 49.021 14.1148 48.6915 14.1148C48.3883 14.1148 48.1511 14.2214 47.9797 14.4278C47.8084 14.6409 47.7293 14.9072 47.7293 15.2268Z" fill="white"/>
<path d="M58.7275 12.7032L57.6994 13.0295C57.6533 12.7631 57.5215 12.5234 57.3106 12.3037C57.0931 12.0839 56.7833 11.9774 56.3747 11.9774C56.0386 11.9774 55.7618 12.0706 55.5377 12.2637C55.3203 12.4568 55.2082 12.6899 55.2082 12.9562C55.2082 13.4223 55.4718 13.7153 55.9991 13.8351L56.9745 14.0349C57.561 14.1481 58.0092 14.3878 58.3321 14.7407C58.6485 15.0936 58.8066 15.5131 58.8066 16.0058C58.8066 16.5718 58.5891 17.0579 58.1608 17.4641C57.7324 17.8703 57.1458 18.0767 56.4077 18.0767C55.6102 18.0767 54.9907 17.8636 54.5492 17.4441C54.101 17.0246 53.8506 16.5319 53.7979 15.9726L54.8655 15.6663C54.9051 16.0525 55.0566 16.3787 55.3268 16.6384C55.5971 16.9048 55.9595 17.0313 56.4143 17.0313C56.8097 17.0313 57.1129 16.9447 57.3238 16.7649C57.5347 16.5851 57.6467 16.3588 57.6467 16.0857C57.6467 15.8594 57.5676 15.6663 57.4094 15.4998C57.2513 15.3333 57.0272 15.2201 56.7438 15.1602L55.7882 14.9604C55.2609 14.8539 54.8392 14.6275 54.536 14.2946C54.2262 13.9617 54.0747 13.5422 54.0747 13.0428C54.0747 12.4701 54.2987 11.9774 54.7535 11.5646C55.2082 11.1517 55.7486 10.9453 56.3747 10.9453C57.0931 10.9453 57.6467 11.1184 58.0289 11.4713C58.398 11.8376 58.6353 12.2437 58.7275 12.7032Z" fill="white"/>
<path d="M61.2848 11.8035V13.2418H62.247V14.2339H61.2848V16.4113C61.2848 16.6177 61.3309 16.7642 61.4298 16.8574C61.522 16.9506 61.6736 16.9972 61.8779 16.9972C62.0031 16.9972 62.1349 16.9839 62.2602 16.9573V17.8828C62.0954 17.9561 61.8713 17.9894 61.5813 17.9894C61.1464 17.9894 60.8103 17.8629 60.5598 17.6165C60.3094 17.3701 60.1907 17.0239 60.1907 16.5911V14.2273H59.334V13.2351H59.5712C59.8085 13.2351 59.9864 13.1685 60.1051 13.0354C60.2237 12.9022 60.2896 12.7224 60.2896 12.5027V11.7969H61.2848V11.8035Z" fill="white"/>
<path d="M66.4188 17.416C66.3134 17.6224 66.1354 17.7822 65.8916 17.8954C65.6477 18.0086 65.3841 18.0685 65.1073 18.0685C64.5669 18.0685 64.1385 17.8887 63.8222 17.5358C63.5058 17.1829 63.3477 16.7368 63.3477 16.1975V13.2344H64.4549V15.991C64.4549 16.304 64.5339 16.5637 64.6855 16.7634C64.8371 16.9632 65.0744 17.0631 65.3907 17.0631C65.7004 17.0631 65.9443 16.9698 66.1091 16.7767C66.2804 16.5837 66.3595 16.3306 66.3595 16.0177V13.241H67.4667V17.0764C67.4667 17.356 67.4799 17.6424 67.5128 17.9353H66.4518C66.432 17.7955 66.4188 17.6224 66.4188 17.416Z" fill="white"/>
<path d="M73.1673 10.957V17.0829C73.1673 17.3959 73.1805 17.6822 73.2134 17.9419H72.1524C72.1194 17.7621 72.1062 17.5624 72.1062 17.336C71.9942 17.549 71.8162 17.7222 71.5724 17.8553C71.3285 17.9885 71.0517 18.0551 70.742 18.0551C70.0829 18.0551 69.5425 17.822 69.1273 17.3493C68.7121 16.8832 68.5078 16.2906 68.5078 15.5781C68.5078 14.8923 68.7187 14.3063 69.1339 13.8335C69.5491 13.3608 70.0829 13.1211 70.7222 13.1211C71.0913 13.1211 71.3879 13.1877 71.6119 13.3208C71.836 13.454 71.9942 13.6138 72.0864 13.7936V10.957H73.1673ZM69.615 15.5781C69.615 16.0309 69.7271 16.3904 69.9577 16.6634C70.1884 16.9365 70.4916 17.0763 70.8672 17.0763C71.2297 17.0763 71.5263 16.9365 71.7569 16.6634C71.9876 16.3904 72.0996 16.0242 72.0996 15.5714C72.0996 15.1253 71.9876 14.7724 71.7635 14.5127C71.5394 14.2464 71.2429 14.1199 70.8738 14.1199C70.5047 14.1199 70.2016 14.253 69.9643 14.5194C69.7336 14.7791 69.615 15.132 69.615 15.5781Z" fill="white"/>
<path d="M76.0347 19.842H74.8485L75.9622 17.385L73.9785 13.25H75.2307L76.5686 16.2197L77.8208 13.25H78.9939L76.0347 19.842Z" fill="white"/>
<path fill-rule="evenodd" clip-rule="evenodd" d="M18.0579 10.3125V18.436L15.7315 18.2695C14.9076 18.2096 13.9784 18.4227 13.1019 18.7889C12.1265 19.2017 11.217 19.801 10.5645 20.4602L9.03554 21.9917L7.50655 20.4602C6.85409 19.8077 5.94461 19.2017 4.96922 18.7889C4.09268 18.416 3.16343 18.2096 2.33962 18.2695L0 18.4426V10.3192H0.916076V17.4505L2.26712 17.3573C3.24251 17.2907 4.31017 17.5238 5.30533 17.9499C6.38617 18.4027 7.4011 19.0819 8.13923 19.8143L9.02895 20.6999L9.91866 19.8143C10.6568 19.0752 11.6717 18.4027 12.7526 17.9499C13.7543 17.5304 14.822 17.2907 15.7908 17.3573L17.1418 17.4505V10.3125H18.0579Z" fill="#48B774"/>
<path fill-rule="evenodd" clip-rule="evenodd" d="M14.1038 5.84625V4.46126L17.2672 3.10291L9.02911 0L0.791016 3.09625L3.95444 4.46126V5.85291C5.33844 6.06598 6.66313 6.59201 7.87577 7.31114C8.25143 7.53087 8.64686 7.79056 9.02911 8.07022C9.41135 7.79056 9.80678 7.53087 10.1824 7.31114C11.3951 6.58535 12.7198 6.05932 14.1038 5.84625Z" fill="#48B774"/>
<path fill-rule="evenodd" clip-rule="evenodd" d="M9.48403 17.9062V19.1047C10.1035 18.5387 12.7265 16.3281 15.8438 16.5478L16.3315 16.5811V6.67976L15.9032 6.64646C13.0956 6.44671 10.6703 7.99816 9.47744 8.93036V10.1289V17.9062H9.48403ZM15.1387 14.477C14.0644 14.5236 13.0561 14.8099 12.1795 15.1894C11.5732 15.4491 11.0262 15.7621 10.5583 16.0551V15.5157C10.9867 15.256 11.4678 14.9963 11.995 14.7633C12.9177 14.3638 13.9853 14.0575 15.1321 14.0175V14.477H15.1387ZM15.1387 11.9134C14.0644 11.96 13.0561 12.2463 12.1795 12.6259C11.5732 12.8856 11.0262 13.1985 10.5583 13.4915V12.9455C10.9867 12.6858 11.4678 12.4261 11.995 12.1931C12.9177 11.7936 13.9853 11.4873 15.1321 11.4473V11.9134H15.1387ZM15.1387 9.34319C14.0644 9.38981 13.0561 9.67612 12.1795 10.0557C11.5732 10.3154 11.0262 10.6283 10.5583 10.9213V10.3753C10.9867 10.1156 11.4678 9.85591 11.995 9.62286C12.9177 9.22334 13.9853 8.91704 15.1321 8.87709V9.34319H15.1387ZM7.4344 16.0151C6.98625 15.7288 6.45901 15.4358 5.87905 15.1894C4.98933 14.8032 3.96122 14.5103 2.86061 14.477V14.0175C4.02712 14.0508 5.11455 14.3571 6.05699 14.77C6.55786 14.9897 7.02579 15.2361 7.4344 15.4824V16.0151ZM7.4344 13.4515C6.98625 13.1652 6.45901 12.8723 5.87905 12.6259C4.98933 12.2397 3.96122 11.9467 2.86061 11.9134V11.454C4.02712 11.4873 5.11455 11.7936 6.05699 12.2064C6.55786 12.4261 7.02579 12.6725 7.4344 12.9189V13.4515ZM7.4344 10.888C6.98625 10.6017 6.45901 10.3087 5.87905 10.0623C4.98933 9.67613 3.96122 9.38315 2.86061 9.34985V8.89041C4.02712 8.9237 5.11455 9.23 6.05699 9.64283C6.55786 9.86257 7.02579 10.1089 7.4344 10.3553V10.888ZM8.56796 10.1356V8.93702C7.38167 8.00482 4.94979 6.46002 2.14225 6.65312L1.71387 6.68641V16.5811L2.20156 16.5478C5.31886 16.3281 7.94186 18.5387 8.56137 19.1047V17.9062V10.1356H8.56796Z" fill="#48B774"/>
<path d="M79.0001 4.51953H60.2832V4.94568H79.0001V4.51953Z" fill="#48B774"/>
<path d="M79.0001 6.32422H60.2832V6.75037H79.0001V6.32422Z" fill="#48B774"/>
<path d="M79.0001 8.13672H60.2832V8.56287H79.0001V8.13672Z" fill="#48B774"/>
</svg>
