<svg width="239" height="66" viewBox="0 0 239 66" fill="none" xmlns="http://www.w3.org/2000/svg">
<path d="M71.1809 21.1345C70.184 19.4765 69.6855 17.5588 69.6855 15.4014C69.6855 13.2441 70.184 11.3464 71.1809 9.68837C72.1778 8.03038 73.4539 6.79188 75.0091 5.97287C76.5643 5.15387 78.259 4.73438 80.0933 4.73438C81.9276 4.73438 83.6224 5.15387 85.1776 5.97287C86.7328 6.81186 88.0088 8.05036 89.0257 9.68837C90.0226 11.3464 90.521 13.2441 90.521 15.4014C90.521 17.5588 90.0226 19.4765 89.0257 21.1345C88.0288 22.7925 86.7527 24.031 85.1776 24.87C83.6224 25.689 81.9276 26.1085 80.0933 26.1085C78.259 26.1085 76.5643 25.689 75.0091 24.87C73.4539 24.031 72.1778 22.7925 71.1809 21.1345ZM75.2683 9.94806C73.9125 11.2465 73.2545 13.0643 73.2545 15.4014C73.2545 17.7386 73.9324 19.5564 75.2683 20.8548C76.6241 22.1533 78.2191 22.8125 80.0933 22.8125C81.9675 22.8125 83.5626 22.1533 84.9383 20.8548C86.2941 19.5564 86.972 17.7386 86.972 15.4014C86.972 13.0643 86.2941 11.2465 84.9383 9.94806C83.5825 8.64963 81.9675 7.99043 80.0933 7.99043C78.2191 8.0104 76.6041 8.64963 75.2683 9.94806Z" fill="#48B774"/>
<path d="M101.049 17.5588V25.6889H97.6992V11.586H100.969V13.4638C101.408 12.6847 102.006 12.1254 102.744 11.7458C103.481 11.3663 104.279 11.1865 105.116 11.1865C106.771 11.1865 108.027 11.7059 108.905 12.7446C109.762 13.7834 110.201 15.1218 110.201 16.7598V25.669H106.851V17.3391C106.851 16.4002 106.612 15.6411 106.153 15.0618C105.694 14.5025 104.957 14.2029 103.96 14.2029C103.043 14.2029 102.325 14.5225 101.807 15.1417C101.308 15.781 101.049 16.58 101.049 17.5588Z" fill="#48B774"/>
<path d="M121.426 25.669H118.076V4.73438H121.426V25.669Z" fill="#48B774"/>
<path d="M129.701 8.17004C129.282 7.75055 129.062 7.23118 129.062 6.63191C129.062 6.03263 129.282 5.51326 129.701 5.09377C130.119 4.6543 130.638 4.43457 131.236 4.43457C131.854 4.43457 132.372 4.6543 132.791 5.0738C133.21 5.49329 133.429 6.01266 133.429 6.63191C133.429 7.23118 133.21 7.75055 132.791 8.17004C132.372 8.58953 131.854 8.80927 131.236 8.80927C130.618 8.80927 130.119 8.60951 129.701 8.17004ZM132.891 25.6688H129.561V11.5859H132.891V25.6688Z" fill="#48B774"/>
<path d="M144.393 17.5588V25.6889H141.043V11.586H144.313V13.4638C144.751 12.6847 145.35 12.1254 146.087 11.7458C146.825 11.3663 147.623 11.1865 148.46 11.1865C150.115 11.1865 151.371 11.7059 152.248 12.7446C153.106 13.7834 153.544 15.1218 153.544 16.7598V25.669H150.195V17.3391C150.195 16.4002 149.955 15.6411 149.497 15.0618C149.038 14.5025 148.3 14.2029 147.304 14.2029C146.386 14.2029 145.669 14.5225 145.15 15.1417C144.632 15.781 144.393 16.58 144.393 17.5588Z" fill="#48B774"/>
<path d="M171.031 20.7546L173.863 21.6535C173.464 22.952 172.706 24.0107 171.59 24.8497C170.473 25.6887 169.117 26.1081 167.502 26.1081C165.509 26.1081 163.794 25.429 162.398 24.0506C161.003 22.6723 160.305 20.8545 160.305 18.5573C160.305 16.3999 160.983 14.6221 162.338 13.2437C163.694 11.8454 165.289 11.1663 167.144 11.1663C169.297 11.1663 170.992 11.8255 172.188 13.1439C173.404 14.4623 174.002 16.2401 174.002 18.4774C174.002 19.0767 173.982 19.4362 173.923 19.5561H163.634C163.674 20.6148 164.053 21.4937 164.811 22.1929C165.548 22.892 166.446 23.2316 167.482 23.2316C169.317 23.2117 170.493 22.3927 171.031 20.7546ZM163.754 17.0791H170.653C170.613 16.2002 170.294 15.4411 169.716 14.8418C169.137 14.2425 168.28 13.9429 167.183 13.9429C166.186 13.9429 165.369 14.2625 164.751 14.8818C164.153 15.521 163.814 16.2601 163.754 17.0791Z" fill="#48B774"/>
<path d="M78.1591 53.8147H70.9414V33.3196H78.179C81.0701 33.3196 83.4427 34.2385 85.3169 36.0762C87.1911 37.914 88.1282 40.431 88.1282 43.6271C88.1282 46.8032 87.1911 49.3002 85.297 51.118C83.4228 52.9158 81.0501 53.8147 78.1591 53.8147ZM74.3907 50.6386H78.0195C79.9136 50.6386 81.4688 50.0393 82.6851 48.8208C83.9013 47.6222 84.5194 45.8843 84.5194 43.6071C84.5194 41.3099 83.9212 39.552 82.705 38.3335C81.4888 37.115 79.9336 36.4957 78.0594 36.4957H74.3907V50.6386Z" fill="white"/>
<path d="M100.33 48.9006L103.162 49.7995C102.763 51.098 102.005 52.1567 100.889 52.9957C99.772 53.8346 98.4162 54.2541 96.8012 54.2541C94.8074 54.2541 93.0927 53.575 91.697 52.1966C90.3014 50.8183 89.6035 49.0005 89.6035 46.7033C89.6035 44.5459 90.2814 42.7681 91.6372 41.3897C92.993 39.9914 94.5881 39.3123 96.4424 39.3123C98.5957 39.3123 100.29 39.9715 101.487 41.2899C102.703 42.6083 103.301 44.3861 103.301 46.6234C103.301 47.2227 103.281 47.5822 103.221 47.7021H92.9332C92.9731 48.7608 93.3519 49.6397 94.1096 50.3389C94.8473 51.038 95.7445 51.3776 96.7813 51.3776C98.6156 51.3577 99.792 50.5386 100.33 48.9006ZM93.0528 45.2251H99.9515C99.9116 44.3462 99.5926 43.5871 99.0144 42.9878C98.4362 42.3885 97.5788 42.0889 96.4822 42.0889C95.4853 42.0889 94.6678 42.4085 94.0498 43.0278C93.4516 43.667 93.1127 44.4061 93.0528 45.2251Z" fill="white"/>
<path d="M104.457 49.9993L107.368 49.1803C107.428 49.8595 107.707 50.4188 108.205 50.8782C108.704 51.3377 109.382 51.5774 110.219 51.5774C110.877 51.5774 111.396 51.4176 111.754 51.1179C112.133 50.8183 112.313 50.4188 112.313 49.9593C112.313 49.1403 111.754 48.621 110.658 48.4012L108.584 47.9418C107.368 47.6621 106.431 47.1627 105.793 46.4436C105.135 45.7045 104.816 44.8455 104.816 43.8468C104.816 42.6083 105.314 41.5495 106.311 40.6506C107.308 39.7517 108.544 39.3123 109.98 39.3123C110.897 39.3123 111.715 39.4521 112.432 39.7118C113.15 39.9914 113.688 40.331 114.087 40.7705C114.486 41.21 114.785 41.6294 115.004 42.029C115.224 42.4285 115.343 42.848 115.403 43.2475L112.572 44.0665C112.492 43.5271 112.253 43.0477 111.834 42.6083C111.415 42.1688 110.797 41.9491 109.98 41.9491C109.402 41.9491 108.923 42.1089 108.544 42.4285C108.166 42.7481 107.966 43.1276 107.966 43.5671C107.966 44.3661 108.445 44.8455 109.382 45.0453L111.515 45.4848C112.831 45.7644 113.828 46.3038 114.526 47.0429C115.224 47.802 115.563 48.7009 115.563 49.7596C115.563 50.9382 115.104 51.9769 114.167 52.8958C113.23 53.8147 111.934 54.2741 110.259 54.2741C109.302 54.2741 108.445 54.1343 107.667 53.8346C106.909 53.555 106.311 53.1754 105.873 52.716C105.434 52.2566 105.095 51.8171 104.856 51.3576C104.636 50.8982 104.497 50.4388 104.457 49.9993Z" fill="white"/>
<path d="M118.175 36.316C117.756 35.8965 117.537 35.3772 117.537 34.7779C117.537 34.1786 117.756 33.6593 118.175 33.2398C118.594 32.8003 119.112 32.5806 119.71 32.5806C120.328 32.5806 120.847 32.8003 121.266 33.2198C121.684 33.6393 121.904 34.1587 121.904 34.7779C121.904 35.3772 121.684 35.8965 121.266 36.316C120.847 36.7355 120.328 36.9553 119.71 36.9553C119.112 36.9553 118.594 36.7555 118.175 36.316ZM121.365 53.8148H118.036V39.7319H121.365V53.8148Z" fill="white"/>
<path d="M123.857 54.5939L126.948 53.7749C127.067 54.6538 127.446 55.3929 128.084 55.9522C128.722 56.5116 129.52 56.8112 130.457 56.8112C133.109 56.8112 134.445 55.4129 134.445 52.5963V51.1381C134.126 51.7373 133.607 52.2367 132.889 52.6163C132.172 52.9958 131.334 53.1956 130.377 53.1956C128.483 53.1956 126.928 52.5564 125.712 51.2579C124.495 49.9595 123.877 48.3215 123.877 46.3439C123.877 44.4262 124.476 42.8082 125.692 41.4898C126.908 40.1714 128.463 39.4922 130.377 39.4922C132.431 39.4922 133.827 40.1714 134.544 41.5497V39.7519H137.774V52.5164C137.774 54.5939 137.196 56.3318 136.02 57.7101C134.843 59.0884 133.029 59.7876 130.557 59.7876C128.742 59.7876 127.227 59.2882 125.991 58.3094C124.755 57.2906 124.057 56.0721 123.857 54.5939ZM130.936 50.3191C132.012 50.3191 132.889 49.9595 133.547 49.2404C134.205 48.5212 134.544 47.5424 134.544 46.3239C134.544 45.1254 134.205 44.1665 133.527 43.4474C132.85 42.7283 131.992 42.3687 130.936 42.3687C129.859 42.3687 128.982 42.7283 128.284 43.4474C127.606 44.1665 127.267 45.1254 127.267 46.3239C127.267 47.5424 127.606 48.5013 128.284 49.2404C128.942 49.9595 129.839 50.3191 130.936 50.3191Z" fill="white"/>
<path d="M144.393 45.6846V53.8147H141.043V39.7318H144.313V41.6095C144.751 40.8305 145.35 40.2711 146.087 39.8916C146.825 39.5121 147.623 39.3323 148.46 39.3323C150.115 39.3323 151.371 39.8516 152.248 40.8904C153.106 41.9291 153.544 43.2675 153.544 44.9055V53.8147H150.195V45.4848C150.195 44.546 149.955 43.7869 149.497 43.2076C149.038 42.6483 148.3 42.3486 147.304 42.3486C146.386 42.3486 145.669 42.6682 145.15 43.2875C144.632 43.9267 144.393 44.7257 144.393 45.6846Z" fill="white"/>
<path d="M177.672 38.1137L174.561 39.0925C174.422 38.2935 174.023 37.5744 173.385 36.9152C172.727 36.2559 171.79 35.9363 170.554 35.9363C169.537 35.9363 168.699 36.216 168.022 36.7953C167.364 37.3746 167.025 38.0737 167.025 38.8728C167.025 40.2711 167.822 41.15 169.417 41.5096L172.368 42.1089C174.143 42.4484 175.498 43.1676 176.475 44.2263C177.432 45.285 177.911 46.5435 177.911 48.0217C177.911 49.7196 177.253 51.1779 175.957 52.3964C174.661 53.6149 172.886 54.2342 170.653 54.2342C168.241 54.2342 166.367 53.5949 165.031 52.3365C163.675 51.078 162.917 49.5998 162.758 47.9218L165.988 47.0029C166.107 48.1615 166.566 49.1403 167.384 49.9194C168.201 50.7184 169.298 51.098 170.673 51.098C171.87 51.098 172.787 50.8383 173.425 50.2989C174.063 49.7596 174.402 49.0804 174.402 48.2614C174.402 47.5822 174.163 47.0029 173.684 46.5035C173.205 46.0041 172.528 45.6645 171.67 45.4848L168.779 44.8855C167.184 44.5659 165.908 43.8867 164.991 42.8879C164.054 41.8891 163.595 40.6306 163.595 39.1325C163.595 37.4145 164.273 35.9363 165.649 34.6978C167.025 33.4593 168.66 32.8401 170.554 32.8401C172.727 32.8401 174.402 33.3595 175.558 34.4182C176.675 35.5168 177.393 36.7354 177.672 38.1137Z" fill="white"/>
<path d="M185.408 35.4169V39.7317H188.319V42.7081H185.408V49.2402C185.408 49.8595 185.547 50.2989 185.846 50.5786C186.125 50.8582 186.584 50.9981 187.202 50.9981C187.581 50.9981 187.98 50.9581 188.358 50.8782V53.6549C187.86 53.8746 187.182 53.9745 186.305 53.9745C184.989 53.9745 183.972 53.5949 183.214 52.8558C182.457 52.1167 182.098 51.078 182.098 49.7795V42.6881H179.506V39.7117H180.224C180.941 39.7117 181.48 39.512 181.839 39.1125C182.198 38.713 182.397 38.1736 182.397 37.5144V35.397H185.408V35.4169Z" fill="white"/>
<path d="M200.94 52.2567C200.621 52.876 200.082 53.3554 199.345 53.695C198.607 54.0346 197.809 54.2143 196.972 54.2143C195.337 54.2143 194.041 53.675 193.084 52.6163C192.127 51.5576 191.648 50.2192 191.648 48.6011V39.7119H194.998V47.9819C194.998 48.9208 195.237 49.6998 195.696 50.2991C196.154 50.8984 196.872 51.198 197.829 51.198C198.766 51.198 199.504 50.9183 200.003 50.339C200.521 49.7597 200.76 49.0007 200.76 48.0618V39.7319H204.11V51.238C204.11 52.0769 204.15 52.9359 204.249 53.8148H201.039C200.98 53.3953 200.94 52.876 200.94 52.2567Z" fill="white"/>
<path d="M221.356 32.8801V51.2579C221.356 52.1967 221.396 53.0557 221.496 53.8347H218.286C218.186 53.2954 218.146 52.6961 218.146 52.0169C217.807 52.6562 217.269 53.1755 216.531 53.575C215.793 53.9746 214.956 54.1743 214.019 54.1743C212.025 54.1743 210.39 53.4752 209.134 52.0569C207.878 50.6586 207.26 48.8807 207.26 46.7433C207.26 44.6858 207.898 42.9279 209.154 41.5097C210.41 40.0914 212.025 39.3723 213.959 39.3723C215.076 39.3723 215.973 39.572 216.651 39.9715C217.329 40.371 217.807 40.8505 218.086 41.3898V32.8801H221.356ZM210.609 46.7433C210.609 48.1017 210.948 49.1804 211.646 49.9994C212.344 50.8184 213.261 51.2379 214.398 51.2379C215.494 51.2379 216.392 50.8184 217.089 49.9994C217.787 49.1804 218.126 48.0817 218.126 46.7233C218.126 45.385 217.787 44.3263 217.109 43.5472C216.431 42.7482 215.534 42.3686 214.418 42.3686C213.301 42.3686 212.384 42.7681 211.666 43.5672C210.968 44.3462 210.609 45.4049 210.609 46.7433Z" fill="white"/>
<path d="M230.029 59.528H226.44L229.81 52.1569L223.809 39.752H227.597L231.644 48.6612L235.433 39.752H238.982L230.029 59.528Z" fill="white"/>
<path fill-rule="evenodd" clip-rule="evenodd" d="M54.6309 30.9426V55.3131L47.5926 54.8137C45.1004 54.6339 42.2891 55.2731 39.6373 56.3718C36.6864 57.6103 33.9349 59.4081 31.961 61.3857L27.3354 65.9801L22.7097 61.3857C20.7358 59.4281 17.9843 57.6103 15.0335 56.3718C12.3817 55.2532 9.57037 54.6339 7.07808 54.8137L0 55.3331V30.9626H2.77142V52.3567L6.85876 52.077C9.80963 51.8773 13.0396 52.5764 16.0503 53.8549C19.3202 55.2132 22.3907 57.2507 24.6238 59.4481L27.3154 62.1048L30.0071 59.4481C32.2402 57.2308 35.3107 55.2132 38.5805 53.8549C41.6112 52.5964 44.8412 51.8773 47.7721 52.077L51.8594 52.3567V30.9426H54.6309Z" fill="#48B774"/>
<path fill-rule="evenodd" clip-rule="evenodd" d="M42.6679 17.5387V13.3838L52.2382 9.30872L27.3154 0L2.39258 9.28874L11.9629 13.3838V17.5587C16.15 18.1979 20.1576 19.776 23.8262 21.9334C24.9627 22.5926 26.159 23.3717 27.3154 24.2107C28.4718 23.3717 29.6681 22.5926 30.8046 21.9334C34.4733 19.7561 38.4808 18.178 42.6679 17.5387Z" fill="#48B774"/>
<path fill-rule="evenodd" clip-rule="evenodd" d="M28.6908 53.715V57.3107C30.565 55.6127 38.5004 48.9808 47.9312 49.64L49.4067 49.7399V20.0359L48.1107 19.936C39.617 19.3367 32.2797 23.9911 28.6709 26.7877V30.3833V53.715H28.6908ZM45.7978 43.4275C42.5479 43.5673 39.4973 44.4263 36.8456 45.5649C35.0112 46.344 33.3564 47.2828 31.9407 48.1618V46.5437C33.2367 45.7647 34.6922 44.9856 36.2873 44.2865C39.0786 43.0879 42.3086 42.169 45.7779 42.0492V43.4275H45.7978ZM45.7978 35.7368C42.5479 35.8767 39.4973 36.7356 36.8456 37.8742C35.0112 38.6533 33.3564 39.5922 31.9407 40.4711V38.8331C33.2367 38.054 34.6922 37.275 36.2873 36.5758C39.0786 35.3773 42.3086 34.4584 45.7779 34.3385V35.7368H45.7978ZM45.7978 28.0262C42.5479 28.166 39.4973 29.025 36.8456 30.1636C35.0112 30.9426 33.3564 31.8815 31.9407 32.7604V31.1224C33.2367 30.3434 34.6922 29.5643 36.2873 28.8651C39.0786 27.6666 42.3086 26.7477 45.7779 26.6279V28.0262H45.7978ZM22.49 48.0419C21.1342 47.183 19.5391 46.304 17.7846 45.5649C15.0929 44.4063 11.9825 43.5274 8.65285 43.4275V42.0492C12.1819 42.1491 15.4717 43.0679 18.3229 44.3064C19.8382 44.9656 21.2538 45.7047 22.49 46.4438V48.0419ZM22.49 40.3512C21.1342 39.4923 19.5391 38.6133 17.7846 37.8742C15.0929 36.7156 11.9825 35.8367 8.65285 35.7368V34.3585C12.1819 34.4584 15.4717 35.3773 18.3229 36.6158C19.8382 37.275 21.2538 38.0141 22.49 38.7532V40.3512ZM22.49 32.6606C21.1342 31.8016 19.5391 30.9227 17.7846 30.1836C15.0929 29.025 11.9825 28.146 8.65285 28.0461V26.6678C12.1819 26.7677 15.4717 27.6866 18.3229 28.9251C19.8382 29.5843 21.2538 30.3234 22.49 31.0625V32.6606ZM25.9194 30.4033V26.8076C22.3305 24.011 14.9733 19.3766 6.47958 19.9559L5.18359 20.0558V49.7399L6.65903 49.64C16.0898 48.9808 24.0253 55.6127 25.8995 57.3107V53.715V30.4033H25.9194Z" fill="#48B774"/>
<path d="M239 13.5635H182.375V14.8419H239V13.5635Z" fill="#48B774"/>
<path d="M239 18.9771H182.375V20.2555H239V18.9771Z" fill="#48B774"/>
<path d="M239 24.4104H182.375V25.6889H239V24.4104Z" fill="#48B774"/>
</svg>
