<svg width="235" height="199" viewBox="0 0 235 199" fill="none" xmlns="http://www.w3.org/2000/svg">
<path opacity="0.5" d="M72.3186 -0.188019C49.1111 -0.188019 30.9461 9.31893 18.6196 26.6565C6.32433 43.9502 -0.105375 68.9493 -0.105375 99.884H1.89462C1.89462 69.1866 8.28092 44.6498 20.2496 27.8154C32.1871 11.025 49.7342 1.81198 72.3186 1.81198V-0.188019ZM-0.105375 99.884C-0.105375 130.819 6.32433 155.818 18.6196 173.111C30.9461 190.449 49.1111 199.956 72.3186 199.956V197.956C49.7342 197.956 32.1871 188.743 20.2496 171.953C8.28092 155.118 1.89462 130.581 1.89462 99.884H-0.105375ZM72.3186 199.956C95.5262 199.956 113.691 190.449 126.018 173.111C138.313 155.818 144.743 130.819 144.743 99.884H142.743C142.743 130.581 136.356 155.118 124.388 171.953C112.45 188.743 94.9031 197.956 72.3186 197.956V199.956ZM144.743 99.884C144.743 68.9493 138.313 43.9502 126.018 26.6565C113.691 9.31893 95.5262 -0.188019 72.3186 -0.188019V1.81198C94.9031 1.81198 112.45 11.025 124.388 27.8154C136.356 44.6498 142.743 69.1866 142.743 99.884H144.743ZM72.3186 36.66C81.3491 36.66 88.5332 41.6074 93.521 52.0045C98.5372 62.4607 101.271 78.3397 101.271 99.884H103.271C103.271 78.2283 100.532 61.9952 95.3242 51.1395C90.0881 40.2246 82.2961 34.66 72.3186 34.66V36.66ZM101.271 99.884C101.271 121.428 98.5372 137.307 93.521 147.763C88.5332 158.161 81.3491 163.108 72.3186 163.108V165.108C82.2961 165.108 90.0881 159.543 95.3242 148.629C100.532 137.773 103.271 121.54 103.271 99.884H101.271ZM72.3186 163.108C63.2881 163.108 56.1041 158.161 51.1162 147.763C46.1001 137.307 43.3666 121.428 43.3666 99.884H41.3666C41.3666 121.54 44.1052 137.773 49.313 148.629C54.5492 159.543 62.3411 165.108 72.3186 165.108V163.108ZM43.3666 99.884C43.3666 78.3397 46.1001 62.4607 51.1162 52.0045C56.1041 41.6074 63.2881 36.66 72.3186 36.66V34.66C62.3411 34.66 54.5492 40.2246 49.313 51.1395C44.1052 61.9952 41.3666 78.2283 41.3666 99.884H43.3666ZM234.037 195.5V196.5H235.037V195.5H234.037ZM234.037 4.26799H235.037V3.26799H234.037V4.26799ZM207.253 4.26799V3.26799H206.991L206.763 3.39642L207.253 4.26799ZM166.069 26.156L165.614 25.2658L165.069 25.5443V26.156H166.069ZM166.069 63.02H165.069V64.5072L166.447 63.9461L166.069 63.02ZM193.141 51.212H194.141V49.6418L192.718 50.3058L193.141 51.212ZM193.141 195.5H192.141V196.5H193.141V195.5ZM235.037 195.5V4.26799H233.037V195.5H235.037ZM234.037 3.26799H207.253V5.26799H234.037V3.26799ZM206.763 3.39642C192.957 11.1623 177.995 18.931 165.614 25.2658L166.525 27.0462C178.911 20.709 193.902 12.9257 207.744 5.13956L206.763 3.39642ZM165.069 26.156V63.02H167.069V26.156H165.069ZM166.447 63.9461C174.236 60.7725 184.908 56.1579 193.564 52.1182L192.718 50.3058C184.095 54.3301 173.454 58.9315 165.692 62.0939L166.447 63.9461ZM192.141 51.212V195.5H194.141V51.212H192.141ZM193.141 196.5H234.037V194.5H193.141V196.5Z" fill="#A34722"/>
</svg>
