<svg width="18" height="18" viewBox="0 0 18 18" fill="none" xmlns="http://www.w3.org/2000/svg">
<path d="M1.00039 17.6C0.670391 17.6 0.400391 17.33 0.400391 17C0.400391 16.67 0.670391 16.4 1.00039 16.4H17.0004C17.3304 16.4 17.6004 16.67 17.6004 17C17.6004 17.33 17.3304 17.6 17.0004 17.6H1.00039Z" fill="#F48825"/>
<path d="M2.00117 14.3C2.71914 14.3 3.30117 13.718 3.30117 13C3.30117 12.282 2.71914 11.7 2.00117 11.7C1.2832 11.7 0.701172 12.282 0.701172 13C0.701172 13.718 1.2832 14.3 2.00117 14.3Z" fill="#F48825"/>
<path d="M10.0012 13.8C10.443 13.8 10.8012 13.4418 10.8012 13C10.8012 12.5582 10.443 12.2 10.0012 12.2C9.55934 12.2 9.20117 12.5582 9.20117 13C9.20117 13.4418 9.55934 13.8 10.0012 13.8Z" fill="#F48825"/>
<path d="M6.00117 13.8C6.443 13.8 6.80117 13.4418 6.80117 13C6.80117 12.5582 6.443 12.2 6.00117 12.2C5.55934 12.2 5.20117 12.5582 5.20117 13C5.20117 13.4418 5.55934 13.8 6.00117 13.8Z" fill="#F48825"/>
<path d="M14.0012 13.3C14.1669 13.3 14.3012 13.1657 14.3012 13C14.3012 12.8343 14.1669 12.7 14.0012 12.7C13.8355 12.7 13.7012 12.8343 13.7012 13C13.7012 13.1657 13.8355 13.3 14.0012 13.3Z" fill="#F48825"/>
<path d="M2.00117 10.3C2.71914 10.3 3.30117 9.71798 3.30117 9.00001C3.30117 8.28204 2.71914 7.70001 2.00117 7.70001C1.2832 7.70001 0.701172 8.28204 0.701172 9.00001C0.701172 9.71798 1.2832 10.3 2.00117 10.3Z" fill="#F48825"/>
<path d="M10.0012 9.80001C10.443 9.80001 10.8012 9.44184 10.8012 9.00001C10.8012 8.55818 10.443 8.20001 10.0012 8.20001C9.55934 8.20001 9.20117 8.55818 9.20117 9.00001C9.20117 9.44184 9.55934 9.80001 10.0012 9.80001Z" fill="#F48825"/>
<path d="M6.00117 9.80001C6.443 9.80001 6.80117 9.44184 6.80117 9.00001C6.80117 8.55818 6.443 8.20001 6.00117 8.20001C5.55934 8.20001 5.20117 8.55818 5.20117 9.00001C5.20117 9.44184 5.55934 9.80001 6.00117 9.80001Z" fill="#F48825"/>
<path d="M14.0012 9.30001C14.1669 9.30001 14.3012 9.1657 14.3012 9.00001C14.3012 8.83433 14.1669 8.70001 14.0012 8.70001C13.8355 8.70001 13.7012 8.83433 13.7012 9.00001C13.7012 9.1657 13.8355 9.30001 14.0012 9.30001Z" fill="#F48825"/>
<path d="M2.00117 6.30001C2.71914 6.30001 3.30117 5.71798 3.30117 5.00001C3.30117 4.28204 2.71914 3.70001 2.00117 3.70001C1.2832 3.70001 0.701172 4.28204 0.701172 5.00001C0.701172 5.71798 1.2832 6.30001 2.00117 6.30001Z" fill="#F48825"/>
<path d="M10.0012 5.80001C10.443 5.80001 10.8012 5.44184 10.8012 5.00001C10.8012 4.55818 10.443 4.20001 10.0012 4.20001C9.55934 4.20001 9.20117 4.55818 9.20117 5.00001C9.20117 5.44184 9.55934 5.80001 10.0012 5.80001Z" fill="#F48825"/>
<path d="M6.00117 5.80001C6.443 5.80001 6.80117 5.44184 6.80117 5.00001C6.80117 4.55818 6.443 4.20001 6.00117 4.20001C5.55934 4.20001 5.20117 4.55818 5.20117 5.00001C5.20117 5.44184 5.55934 5.80001 6.00117 5.80001Z" fill="#F48825"/>
<path d="M14.0012 5.30001C14.1669 5.30001 14.3012 5.1657 14.3012 5.00001C14.3012 4.83433 14.1669 4.70001 14.0012 4.70001C13.8355 4.70001 13.7012 4.83433 13.7012 5.00001C13.7012 5.1657 13.8355 5.30001 14.0012 5.30001Z" fill="#F48825"/>
<path d="M1.00039 1.60002C0.670391 1.60002 0.400391 1.33002 0.400391 1.00002C0.400391 0.670024 0.670391 0.400024 1.00039 0.400024H17.0004C17.3304 0.400024 17.6004 0.670024 17.6004 1.00002C17.6004 1.33002 17.3304 1.60002 17.0004 1.60002H1.00039Z" fill="#F48825"/>
</svg>
