<svg width="22" height="20" viewBox="0 0 22 20" fill="none" xmlns="http://www.w3.org/2000/svg">
<path d="M20.7109 0H1.28906C0.578273 0 0 0.578273 0 1.28906V14.0938C0 14.8045 0.578273 15.3828 1.28906 15.3828H7.60547V18.5625H4.125C3.76905 18.5625 3.48047 18.8511 3.48047 19.207C3.48047 19.563 3.76905 19.8516 4.125 19.8516H17.875C18.231 19.8516 18.5195 19.563 18.5195 19.207C18.5195 18.8511 18.231 18.5625 17.875 18.5625H14.3945V15.3828H20.7109C21.4217 15.3828 22 14.8045 22 14.0938V1.28906C22 0.578273 21.4217 0 20.7109 0ZM13.1055 18.5625H8.89453V15.3828H13.1055V18.5625ZM20.7109 14.0938C20.1456 14.0938 1.74213 14.0938 1.28906 14.0938V1.28906H20.7109C20.7118 14.3718 20.7152 14.0938 20.7109 14.0938Z" fill="#F48825"/>
</svg>
