<svg width="296" height="199" viewBox="0 0 296 199" fill="none" xmlns="http://www.w3.org/2000/svg">
<path opacity="0.5" d="M71.8655 -0.688019C48.658 -0.688019 30.493 8.81893 18.1665 26.1565C5.87121 43.4502 -0.5585 68.4493 -0.5585 99.384H1.4415C1.4415 68.6866 7.8278 44.1498 19.7965 27.3154C31.734 10.525 49.2811 1.31198 71.8655 1.31198V-0.688019ZM-0.5585 99.384C-0.5585 130.319 5.87121 155.318 18.1665 172.611C30.493 189.949 48.658 199.456 71.8655 199.456V197.456C49.2811 197.456 31.734 188.243 19.7965 171.453C7.8278 154.618 1.4415 130.081 1.4415 99.384H-0.5585ZM71.8655 199.456C95.0731 199.456 113.238 189.949 125.565 172.611C137.86 155.318 144.29 130.319 144.29 99.384H142.29C142.29 130.081 135.903 154.618 123.934 171.453C111.997 188.243 94.45 197.456 71.8655 197.456V199.456ZM144.29 99.384C144.29 68.4493 137.86 43.4502 125.565 26.1565C113.238 8.81893 95.0731 -0.688019 71.8655 -0.688019V1.31198C94.45 1.31198 111.997 10.525 123.934 27.3154C135.903 44.1498 142.29 68.6866 142.29 99.384H144.29ZM71.8655 36.16C80.896 36.16 88.0801 41.1074 93.0679 51.5045C98.084 61.9607 100.818 77.8397 100.818 99.384H102.818C102.818 77.7283 100.079 61.4952 94.8711 50.6395C89.6349 39.7246 81.843 34.16 71.8655 34.16V36.16ZM100.818 99.384C100.818 120.928 98.084 136.807 93.0679 147.263C88.0801 157.661 80.896 162.608 71.8655 162.608V164.608C81.843 164.608 89.6349 159.043 94.8711 148.129C100.079 137.273 102.818 121.04 102.818 99.384H100.818ZM71.8655 162.608C62.835 162.608 55.6509 157.661 50.6631 147.263C45.647 136.807 42.9135 120.928 42.9135 99.384H40.9135C40.9135 121.04 43.652 137.273 48.8599 148.129C54.0961 159.043 61.888 164.608 71.8655 164.608V162.608ZM42.9135 99.384C42.9135 77.8397 45.647 61.9607 50.6631 51.5045C55.6509 41.1074 62.835 36.16 71.8655 36.16V34.16C61.888 34.16 54.0961 39.7246 48.8599 50.6395C43.652 61.4952 40.9135 77.7283 40.9135 99.384H42.9135ZM203.344 114.648H202.344V115.88L203.55 115.627L203.344 114.648ZM194.992 142.008L195.915 141.623L195.516 140.664L194.573 141.1L194.992 142.008ZM160.72 157.848L160.301 156.94L159.417 157.349L159.802 158.243L160.72 157.848ZM262.96 92.472L262.464 91.6038L260.599 92.6694L262.615 93.4106L262.96 92.472ZM163.888 39.192L162.935 38.8888L162.661 39.7502L163.491 40.1096L163.888 39.192ZM198.448 54.168L198.051 55.0855L199.202 55.5844L199.431 54.3509L198.448 54.168ZM225.808 78.936L225.577 77.9632L225.559 77.9675L225.541 77.9725L225.808 78.936ZM203.344 81.24V80.24H202.344V81.24H203.344ZM203.55 115.627C208.927 114.495 215.186 114.208 218.608 114.208V112.208C215.119 112.208 208.706 112.497 203.138 113.669L203.55 115.627ZM218.608 114.208C228.699 114.208 237.255 116.484 243.259 120.823C249.224 125.133 252.744 131.526 252.744 139.992H254.744C254.744 130.89 250.92 123.891 244.43 119.201C237.978 114.54 228.965 112.208 218.608 112.208V114.208ZM252.744 139.992C252.744 147.459 249.646 153.15 244.84 156.995C240.009 160.859 233.402 162.896 226.384 162.896V164.896C233.766 164.896 240.839 162.757 246.089 158.557C251.362 154.338 254.744 148.077 254.744 139.992H252.744ZM226.384 162.896C212.143 162.896 201.538 155.117 195.915 141.623L194.069 142.393C199.967 156.547 211.249 164.896 226.384 164.896V162.896ZM194.573 141.1L160.301 156.94L161.14 158.756L195.412 142.916L194.573 141.1ZM159.802 158.243C171.509 185.463 198.705 199.456 226.096 199.456V197.456C199.343 197.456 172.971 183.801 161.639 157.453L159.802 158.243ZM226.096 199.456C245.141 199.456 262.654 194.005 275.429 183.793C288.224 173.564 296.216 158.592 296.216 139.704H294.216C294.216 157.968 286.513 172.372 274.18 182.231C261.826 192.107 244.779 197.456 226.096 197.456V199.456ZM296.216 139.704C296.216 118.283 283.303 98.8854 263.305 91.5334L262.615 93.4106C281.786 100.459 294.216 119.077 294.216 139.704H296.216ZM263.456 93.3402C277.882 85.0968 287.576 68.348 287.576 51.576H285.576C285.576 67.636 276.262 83.7192 262.464 91.6038L263.456 93.3402ZM287.576 51.576C287.576 35.3704 279.608 22.2736 267.406 13.2597C255.222 4.25842 238.805 -0.688019 221.776 -0.688019V1.31198C238.443 1.31198 254.427 6.15755 266.218 14.8683C277.992 23.5664 285.576 36.1016 285.576 51.576H287.576ZM221.776 -0.688019C195.526 -0.688019 171.161 13.0372 162.935 38.8888L164.841 39.4952C172.744 14.6588 196.186 1.31198 221.776 1.31198V-0.688019ZM163.491 40.1096L198.051 55.0855L198.846 53.2504L164.286 38.2744L163.491 40.1096ZM199.431 54.3509C200.544 48.369 203.313 43.7642 207.143 40.6521C210.976 37.5373 215.931 35.872 221.488 35.872V33.872C215.526 33.872 210.112 35.6627 205.882 39.0999C201.648 42.5398 198.656 47.583 197.465 53.9851L199.431 54.3509ZM221.488 35.872C228.91 35.872 234.701 38.1793 238.627 41.8321C242.551 45.4834 244.68 50.5403 244.68 56.184H246.68C246.68 50.0197 244.345 44.4206 239.989 40.3679C235.635 36.3167 229.33 33.872 221.488 33.872V35.872ZM244.68 56.184C244.68 67.1459 237.322 75.1667 225.577 77.9632L226.04 79.9088C238.487 76.9452 246.68 68.2621 246.68 56.184H244.68ZM225.541 77.9725C220.481 79.3778 212.232 80.24 203.344 80.24V82.24C212.313 82.24 220.767 81.3742 226.076 79.8995L225.541 77.9725ZM202.344 81.24V114.648H204.344V81.24H202.344Z" fill="#A34722"/>
</svg>
