<svg width="297" height="199" viewBox="0 0 297 199" fill="none" xmlns="http://www.w3.org/2000/svg">
<path opacity="0.5" d="M71.553 -0.688019C48.3455 -0.688019 30.1805 8.81893 17.854 26.1565C5.55871 43.4502 -0.871 68.4493 -0.871 99.384H1.129C1.129 68.6866 7.5153 44.1498 19.484 27.3154C31.4215 10.525 48.9686 1.31198 71.553 1.31198V-0.688019ZM-0.871 99.384C-0.871 130.319 5.55871 155.318 17.854 172.611C30.1805 189.949 48.3455 199.456 71.553 199.456V197.456C48.9686 197.456 31.4215 188.243 19.484 171.453C7.5153 154.618 1.129 130.081 1.129 99.384H-0.871ZM71.553 199.456C94.7606 199.456 112.925 189.949 125.252 172.611C137.547 155.318 143.977 130.319 143.977 99.384H141.977C141.977 130.081 135.591 154.618 123.622 171.453C111.685 188.243 94.1375 197.456 71.553 197.456V199.456ZM143.977 99.384C143.977 68.4493 137.547 43.4502 125.252 26.1565C112.925 8.81893 94.7606 -0.688019 71.553 -0.688019V1.31198C94.1375 1.31198 111.685 10.525 123.622 27.3154C135.591 44.1498 141.977 68.6866 141.977 99.384H143.977ZM71.553 36.16C80.5835 36.16 87.7676 41.1074 92.7554 51.5045C97.7715 61.9607 100.505 77.8397 100.505 99.384H102.505C102.505 77.7283 99.7665 61.4952 94.5586 50.6395C89.3224 39.7246 81.5305 34.16 71.553 34.16V36.16ZM100.505 99.384C100.505 120.928 97.7715 136.807 92.7554 147.263C87.7676 157.661 80.5835 162.608 71.553 162.608V164.608C81.5305 164.608 89.3224 159.043 94.5586 148.129C99.7665 137.273 102.505 121.04 102.505 99.384H100.505ZM71.553 162.608C62.5225 162.608 55.3384 157.661 50.3506 147.263C45.3345 136.807 42.601 120.928 42.601 99.384H40.601C40.601 121.04 43.3395 137.273 48.5474 148.129C53.7836 159.043 61.5755 164.608 71.553 164.608V162.608ZM42.601 99.384C42.601 77.8397 45.3345 61.9607 50.3506 51.5045C55.3384 41.1074 62.5225 36.16 71.553 36.16V34.16C61.5755 34.16 53.7836 39.7246 48.5474 50.6395C43.3395 61.4952 40.601 77.7283 40.601 99.384H42.601ZM296.344 160.728H297.344V159.728H296.344V160.728ZM222.616 160.728L221.884 160.047L220.318 161.728H222.616V160.728ZM268.696 106.584L269.509 107.166L269.511 107.162L268.696 106.584ZM163.288 54.744L162.291 54.666L162.219 55.5829L163.127 55.7309L163.288 54.744ZM203.896 61.368L203.735 62.3549L204.896 62.5443V61.368H203.896ZM232.984 87.576L233.805 88.1462L233.808 88.1415L232.984 87.576ZM167.896 164.76L167.175 164.067L166.896 164.357V164.76H167.896ZM167.896 195H166.896V196H167.896V195ZM296.344 195V196H297.344V195H296.344ZM296.344 159.728H222.616V161.728H296.344V159.728ZM223.348 161.409C238.896 144.71 255.642 126.522 269.509 107.166L267.883 106.002C254.101 125.238 237.44 143.338 221.884 160.047L223.348 161.409ZM269.511 107.162C280.807 91.2324 289.28 72.5987 289.28 53.304H287.28C287.28 72.0253 279.048 90.2556 267.88 106.006L269.511 107.162ZM289.28 53.304C289.28 35.981 281.559 22.4508 269.815 13.276C258.093 4.1182 242.387 -0.688019 226.36 -0.688019V1.31198C242.012 1.31198 257.266 6.00977 268.584 14.852C279.88 23.6772 287.28 36.643 287.28 53.304H289.28ZM226.36 -0.688019C193.973 -0.688019 164.931 20.9284 162.291 54.666L164.285 54.822C166.828 22.3196 194.81 1.31198 226.36 1.31198V-0.688019ZM163.127 55.7309L203.735 62.3549L204.057 60.381L163.449 53.757L163.127 55.7309ZM204.896 61.368C204.896 53.3185 206.944 46.7928 210.544 42.3014C214.125 37.8341 219.304 35.296 225.784 35.296V33.296C218.728 33.296 212.963 36.0859 208.983 41.0506C205.023 45.9911 202.896 53.0014 202.896 61.368H204.896ZM225.784 35.296C231.618 35.296 236.623 37.1696 240.157 40.3983C243.684 43.6194 245.808 48.2426 245.808 53.88H247.808C247.808 47.7094 245.468 42.5406 241.506 38.9217C237.553 35.3103 232.045 33.296 225.784 33.296V35.296ZM245.808 53.88C245.808 64.7734 239.072 76.9287 232.159 87.0105L233.808 88.1415C240.719 78.0632 247.808 65.4505 247.808 53.88H245.808ZM232.162 87.0058C215.213 111.424 189.334 141.044 167.175 164.067L168.616 165.453C190.809 142.396 216.77 112.688 233.805 88.1462L232.162 87.0058ZM166.896 164.76V195H168.896V164.76H166.896ZM167.896 196H296.344V194H167.896V196ZM297.344 195V160.728H295.344V195H297.344Z" fill="#F9E2D0"/>
</svg>
