<svg width="36" height="36" viewBox="0 0 36 36" fill="none" xmlns="http://www.w3.org/2000/svg">
<path d="M30.2174 2.42578H5.74743C3.18899 2.42578 1.10742 4.50693 1.10742 7.06579V22.0409C1.10742 24.594 3.17992 26.6719 5.73095 26.6809V33.4764L15.4969 26.6809H30.2174C32.7759 26.6809 34.8574 24.5993 34.8574 22.0409V7.06579C34.8574 4.50693 32.7759 2.42578 30.2174 2.42578ZM32.8799 22.0409C32.8799 23.5088 31.6855 24.7034 30.2174 24.7034H14.8765L7.70849 29.6913V24.7034H5.74743C4.27931 24.7034 3.08496 23.5088 3.08496 22.0409V7.06579C3.08496 5.59747 4.27931 4.40332 5.74743 4.40332H30.2174C31.6855 4.40332 32.8799 5.59747 32.8799 7.06579V22.0409Z" fill="#3949DB"/>
<path d="M10.1405 9.41333H25.8244V11.3909H10.1405V9.41333Z" fill="#3949DB"/>
<path d="M10.1405 13.6321H25.8244V15.6096H10.1405V13.6321Z" fill="#3949DB"/>
<path d="M10.1405 17.8508H25.8244V19.8284H10.1405V17.8508Z" fill="#3949DB"/>
</svg>
