<svg width="1567" height="1428" viewBox="0 0 1567 1428" fill="none" xmlns="http://www.w3.org/2000/svg">
<path opacity="0.2" fill-rule="evenodd" clip-rule="evenodd" d="M921.49 180.624C912.195 152.127 909.174 127.478 914.626 107.13L913.66 106.871C908.135 127.493 911.22 152.362 920.539 180.934C929.861 209.513 945.439 241.856 964.97 277.453C984.468 312.991 1007.92 351.795 1033.04 393.358L1033.17 393.574C1058.33 435.222 1085.18 479.642 1111.4 526.344C1216.33 713.172 1311.39 936.373 1250.34 1164.18L1251.31 1164.44C1312.46 936.219 1217.22 712.704 1112.28 525.854C1086.04 479.137 1059.19 434.703 1034.02 393.057L1033.9 392.853C1008.78 351.28 985.335 312.492 965.847 276.972C946.325 241.393 930.782 209.114 921.49 180.624Z" fill="white"/>
<path opacity="0.2" fill-rule="evenodd" clip-rule="evenodd" d="M1020.1 681.393C873.295 489.255 728.428 290.882 796.379 37.2847L795.413 37.0259C727.317 291.164 872.549 489.927 1019.31 682C1023.24 687.152 1027.18 692.299 1031.11 697.443C1100.55 788.204 1169.06 877.762 1214.3 971.33C1262.11 1070.18 1283.93 1173.47 1253.42 1287.33L1254.38 1287.59C1284.97 1173.43 1263.08 1069.89 1215.21 970.895C1169.91 877.231 1101.34 787.598 1031.93 696.862C1027.99 691.709 1024.04 686.553 1020.1 681.393Z" fill="white"/>
<path opacity="0.2" fill-rule="evenodd" clip-rule="evenodd" d="M1292.12 633.47C1266.2 473.702 1242.02 307.526 1310.05 53.6424L1309.08 53.3835C1241 307.471 1265.21 473.813 1291.14 633.631C1291.83 637.917 1292.53 642.198 1293.22 646.477C1318.48 801.692 1343.06 952.769 1283.61 1174.67L1284.57 1174.92C1344.08 952.82 1319.47 801.565 1294.21 646.334C1293.52 642.049 1292.82 637.762 1292.12 633.47Z" fill="white"/>
<path opacity="0.2" fill-rule="evenodd" clip-rule="evenodd" d="M190.543 489.862C164.092 475.762 144.83 460.089 134.657 441.642L133.781 442.125C144.091 460.82 163.552 476.608 190.073 490.745C216.6 504.885 250.246 517.402 288.997 529.525C327.684 541.629 371.482 553.347 418.395 565.898L418.639 565.964C465.648 578.541 515.784 591.958 567.059 607.443C772.186 669.392 995.404 764.405 1109.3 970.93L1110.17 970.447C996.073 763.548 772.499 668.442 567.349 606.486C516.055 590.995 465.904 577.574 418.897 564.998L418.667 564.936C371.744 552.382 327.962 540.668 289.296 528.571C250.564 516.454 216.988 503.959 190.543 489.862Z" fill="white"/>
<path opacity="0.2" fill-rule="evenodd" clip-rule="evenodd" d="M608.707 782.493C369.713 745.742 127.795 703.152 1.00946 473.251L0.133789 473.734C127.189 704.125 369.641 746.742 608.555 783.481C614.963 784.467 621.369 785.448 627.77 786.428C740.727 803.73 852.185 820.802 949.653 856.889C1052.63 895.014 1139.94 954.349 1196.87 1057.57L1197.74 1057.09C1140.67 953.598 1053.13 894.134 950 855.952C852.433 819.828 740.88 802.741 627.955 785.445C621.543 784.463 615.126 783.48 608.707 782.493Z" fill="white"/>
<path opacity="0.2" fill-rule="evenodd" clip-rule="evenodd" d="M771.578 559.41C642.157 462.208 509.55 359.181 382.622 129.02L381.746 129.503C508.776 359.848 641.516 462.978 770.977 560.21C774.449 562.817 777.919 565.421 781.386 568.022C907.171 662.404 1029.6 754.269 1140.54 955.431L1141.41 954.948C1030.37 753.597 907.798 661.624 782 567.233C778.528 564.628 775.054 562.021 771.578 559.41Z" fill="white"/>
</svg>
