<svg width="522" height="395" viewBox="0 0 522 395" fill="none" xmlns="http://www.w3.org/2000/svg">
<path d="M522 0H0V331.751H522V0Z" fill="#3F3D56"/>
<path d="M47.2592 62.7057C51.4116 62.7057 54.7778 59.3464 54.7778 55.2025C54.7778 51.0585 51.4116 47.6992 47.2592 47.6992C43.1069 47.6992 39.7407 51.0585 39.7407 55.2025C39.7407 59.3464 43.1069 62.7057 47.2592 62.7057Z" fill="#F2F2F2"/>
<path d="M229.315 36.4443C233.467 36.4443 236.833 33.085 236.833 28.9411C236.833 24.7972 233.467 21.4379 229.315 21.4379C225.163 21.4379 221.796 24.7972 221.796 28.9411C221.796 33.085 225.163 36.4443 229.315 36.4443Z" fill="#F2F2F2"/>
<path d="M224.482 161.32C231.897 161.32 237.908 155.321 237.908 147.921C237.908 140.521 231.897 134.523 224.482 134.523C217.067 134.523 211.056 140.521 211.056 147.921C211.056 155.321 217.067 161.32 224.482 161.32Z" fill="#F2F2F2"/>
<path d="M178.833 36.4443C180.613 36.4443 182.056 35.0046 182.056 33.2287C182.056 31.4527 180.613 30.013 178.833 30.013C177.054 30.013 175.611 31.4527 175.611 33.2287C175.611 35.0046 177.054 36.4443 178.833 36.4443Z" fill="#FF6584"/>
<path d="M33.8333 165.607C35.6129 165.607 37.0555 164.168 37.0555 162.392C37.0555 160.616 35.6129 159.176 33.8333 159.176C32.0537 159.176 30.6111 160.616 30.6111 162.392C30.6111 164.168 32.0537 165.607 33.8333 165.607Z" fill="#FF6584"/>
<path d="M480.111 172.575C481.891 172.575 483.333 171.135 483.333 169.359C483.333 167.583 481.891 166.143 480.111 166.143C478.332 166.143 476.889 167.583 476.889 169.359C476.889 171.135 478.332 172.575 480.111 172.575Z" fill="#FF6584"/>
<path d="M128.889 108.261C130.669 108.261 132.111 106.821 132.111 105.045C132.111 103.27 130.669 101.83 128.889 101.83C127.109 101.83 125.667 103.27 125.667 105.045C125.667 106.821 127.109 108.261 128.889 108.261Z" fill="#F2F2F2"/>
<path d="M483.333 36.4443C485.113 36.4443 486.555 35.0046 486.555 33.2287C486.555 31.4527 485.113 30.013 483.333 30.013C481.554 30.013 480.111 31.4527 480.111 33.2287C480.111 35.0046 481.554 36.4443 483.333 36.4443Z" fill="#F2F2F2"/>
<path d="M47.2593 264.221C49.0389 264.221 50.4816 262.782 50.4816 261.006C50.4816 259.23 49.0389 257.79 47.2593 257.79C45.4797 257.79 44.0371 259.23 44.0371 261.006C44.0371 262.782 45.4797 264.221 47.2593 264.221Z" fill="#F2F2F2"/>
<path d="M435 233.137C436.78 233.137 438.222 231.697 438.222 229.921C438.222 228.145 436.78 226.705 435 226.705C433.22 226.705 431.778 228.145 431.778 229.921C431.778 231.697 433.22 233.137 435 233.137Z" fill="#F2F2F2"/>
<path d="M341.555 33.2287C343.335 33.2287 344.778 31.789 344.778 30.013C344.778 28.237 343.335 26.7973 341.555 26.7973C339.776 26.7973 338.333 28.237 338.333 30.013C338.333 31.789 339.776 33.2287 341.555 33.2287Z" fill="#F2F2F2"/>
<path d="M391.5 90.5749C389.907 90.5749 388.349 90.1034 387.024 89.2201C385.7 88.3367 384.667 87.0812 384.058 85.6122C383.448 84.1432 383.288 82.5268 383.599 80.9674C383.91 79.4079 384.677 77.9755 385.804 76.8512C386.93 75.7268 388.366 74.9612 389.928 74.651C391.491 74.3408 393.111 74.5 394.583 75.1085C396.055 75.7169 397.313 76.7473 398.198 78.0694C399.083 79.3914 399.556 80.9457 399.556 82.5357C399.553 84.6671 398.704 86.7105 397.193 88.2177C395.683 89.7248 393.636 90.5725 391.5 90.5749ZM391.5 75.5684C390.119 75.5684 388.769 75.977 387.621 76.7426C386.473 77.5082 385.578 78.5963 385.05 79.8694C384.521 81.1426 384.383 82.5434 384.653 83.895C384.922 85.2465 385.587 86.488 386.563 87.4623C387.54 88.4367 388.784 89.1003 390.138 89.3691C391.492 89.638 392.896 89.5 394.172 88.9727C395.447 88.4453 396.538 87.5523 397.305 86.4065C398.072 85.2608 398.481 83.9137 398.481 82.5357C398.479 80.6885 397.743 78.9176 396.434 77.6114C395.125 76.3052 393.351 75.5705 391.5 75.5684Z" fill="#F2F2F2"/>
<path d="M376.463 110.941C375.295 110.941 374.153 110.595 373.181 109.947C372.21 109.3 371.452 108.379 371.005 107.302C370.558 106.224 370.441 105.039 370.669 103.895C370.897 102.752 371.46 101.701 372.286 100.877C373.112 100.052 374.165 99.4908 375.311 99.2634C376.457 99.0359 377.644 99.1526 378.724 99.5988C379.803 100.045 380.726 100.801 381.375 101.77C382.024 102.74 382.37 103.879 382.37 105.045C382.369 106.609 381.746 108.107 380.638 109.212C379.531 110.317 378.029 110.939 376.463 110.941ZM376.463 100.222C375.507 100.222 374.573 100.505 373.778 101.035C372.983 101.565 372.363 102.318 371.998 103.2C371.632 104.081 371.536 105.051 371.723 105.987C371.909 106.922 372.369 107.782 373.045 108.456C373.721 109.131 374.583 109.59 375.52 109.776C376.458 109.962 377.43 109.867 378.313 109.502C379.196 109.137 379.951 108.519 380.482 107.725C381.013 106.932 381.296 105.999 381.296 105.045C381.295 103.767 380.785 102.541 379.879 101.636C378.973 100.732 377.745 100.223 376.463 100.222Z" fill="#F2F2F2"/>
<path d="M409.759 139.346C408.591 139.346 407.449 139 406.477 138.352C405.506 137.705 404.749 136.784 404.301 135.707C403.854 134.629 403.737 133.444 403.965 132.3C404.193 131.157 404.756 130.106 405.582 129.282C406.408 128.457 407.461 127.896 408.607 127.668C409.753 127.441 410.94 127.558 412.02 128.004C413.099 128.45 414.022 129.206 414.671 130.175C415.32 131.145 415.667 132.285 415.667 133.451C415.665 135.014 415.042 136.512 413.934 137.617C412.827 138.723 411.325 139.344 409.759 139.346ZM409.759 128.627C408.803 128.627 407.869 128.91 407.074 129.44C406.279 129.97 405.66 130.723 405.294 131.605C404.928 132.486 404.832 133.456 405.019 134.392C405.205 135.327 405.666 136.187 406.342 136.861C407.017 137.536 407.879 137.995 408.816 138.181C409.754 138.368 410.726 138.272 411.609 137.907C412.492 137.542 413.247 136.924 413.778 136.13C414.309 135.337 414.593 134.405 414.593 133.451C414.591 132.172 414.081 130.946 413.175 130.041C412.269 129.137 411.041 128.629 409.759 128.627Z" fill="#F2F2F2"/>
<path d="M399.018 147.385C390.309 147.385 381.795 144.808 374.553 139.979C367.311 135.15 361.667 128.286 358.334 120.256C355.001 112.225 354.128 103.389 355.828 94.8639C357.527 86.3389 361.721 78.5082 367.88 72.362C374.038 66.2158 381.885 62.0302 390.427 60.3345C398.97 58.6388 407.824 59.5091 415.871 62.8354C423.917 66.1616 430.795 71.7945 435.634 79.0217C440.473 86.2488 443.056 94.7456 443.056 103.438C443.042 115.089 438.398 126.26 430.143 134.499C421.887 142.738 410.694 147.372 399.018 147.385ZM399.018 60.5619C390.521 60.5619 382.215 63.0766 375.15 67.7878C368.084 72.499 362.578 79.1953 359.326 87.0298C356.074 94.8643 355.223 103.485 356.881 111.802C358.539 120.119 362.631 127.759 368.639 133.755C374.648 139.752 382.303 143.835 390.637 145.49C398.971 147.144 407.609 146.295 415.46 143.05C423.31 139.804 430.02 134.309 434.741 127.258C439.462 120.207 441.981 111.918 441.981 103.438C441.969 92.0702 437.438 81.1721 429.384 73.1341C421.329 65.0961 410.409 60.5748 399.018 60.5619Z" fill="#F2F2F2"/>
<path d="M399.019 121.124C362.279 121.124 333.5 113.355 333.5 103.438C333.5 97.6587 342.042 92.6928 357.552 89.4546L357.772 90.504C343.029 93.5818 334.574 98.2959 334.574 103.438C334.574 112.444 364.086 120.052 399.019 120.052C433.951 120.052 463.463 112.444 463.463 103.438C463.463 98.2862 454.979 93.5661 440.186 90.4875L440.405 89.4381C455.967 92.6768 464.537 97.6485 464.537 103.438C464.537 113.355 435.758 121.124 399.019 121.124Z" fill="#F2F2F2"/>
<path d="M365.959 291.135C364.469 291.135 362.964 291.111 361.486 291.065L361.52 289.994C363.641 290.06 365.806 290.079 367.938 290.049L367.952 291.121C367.289 291.13 366.625 291.135 365.959 291.135ZM374.415 290.886L374.352 289.816C376.476 289.691 378.628 289.515 380.747 289.294L380.86 290.36C378.724 290.583 376.556 290.761 374.415 290.886ZM355.03 290.719C352.888 290.555 350.723 290.341 348.595 290.08L348.726 289.017C350.838 289.275 352.986 289.488 355.112 289.65L355.03 290.719ZM387.273 289.541L387.112 288.481C389.223 288.161 391.35 287.79 393.433 287.377L393.642 288.428C391.543 288.844 389.4 289.219 387.273 289.541ZM342.197 289.149C340.081 288.791 337.944 288.379 335.847 287.925L336.075 286.877C338.156 287.328 340.276 287.736 342.376 288.091L342.197 289.149ZM399.954 287.025L399.696 285.985C401.768 285.473 403.852 284.908 405.89 284.305L406.195 285.333C404.142 285.941 402.042 286.51 399.954 287.025ZM329.562 286.411C327.486 285.86 325.396 285.254 323.352 284.608L323.676 283.587C325.705 284.227 327.778 284.828 329.837 285.374L329.562 286.411ZM412.35 283.355L411.998 282.343C414.009 281.645 416.031 280.891 418.01 280.101L418.408 281.096C416.415 281.892 414.377 282.652 412.35 283.355ZM317.217 282.516C315.2 281.776 313.172 280.978 311.187 280.144L311.604 279.156C313.573 279.984 315.586 280.775 317.587 281.51L317.217 282.516ZM424.342 278.567L423.897 277.591C425.828 276.715 427.769 275.781 429.666 274.813L430.155 275.768C428.243 276.743 426.288 277.684 424.342 278.567ZM305.275 277.498C303.337 276.576 301.392 275.596 299.494 274.584L300 273.639C301.884 274.643 303.814 275.616 305.737 276.531L305.275 277.498ZM435.834 272.704L435.302 271.774C437.154 270.719 439.002 269.611 440.795 268.478L441.369 269.384C439.562 270.525 437.7 271.642 435.834 272.704V272.704ZM293.854 271.408C292.01 270.314 290.164 269.16 288.367 267.979L288.958 267.084C290.742 268.256 292.573 269.401 294.403 270.487L293.854 271.408ZM446.748 265.813L446.133 264.935C447.877 263.719 449.617 262.446 451.305 261.151L451.96 262.001C450.259 263.306 448.505 264.589 446.748 265.813V265.813ZM283.045 264.304C281.312 263.047 279.58 261.731 277.898 260.391L278.568 259.553C280.237 260.883 281.956 262.189 283.676 263.436L283.045 264.304ZM456.993 257.955L456.301 257.136C457.926 255.767 459.543 254.341 461.109 252.896L461.838 253.683C460.261 255.139 458.631 256.576 456.993 257.955ZM272.935 256.248C271.321 254.837 269.717 253.369 268.168 251.886L268.912 251.112C270.449 252.585 272.041 254.041 273.643 255.442L272.935 256.248ZM466.484 249.194L465.719 248.442C467.218 246.927 468.7 245.358 470.124 243.782L470.922 244.499C469.487 246.088 467.994 247.668 466.484 249.194H466.484ZM263.606 247.312C262.125 245.758 260.662 244.151 259.258 242.537L260.069 241.835C261.462 243.437 262.914 245.031 264.384 246.573L263.606 247.312ZM475.141 239.605L474.311 238.925C475.665 237.281 476.998 235.585 478.274 233.882L479.134 234.524C477.848 236.24 476.505 237.949 475.141 239.605H475.141ZM255.133 237.571C253.802 235.893 252.493 234.161 251.239 232.423L252.111 231.797C253.355 233.522 254.655 235.24 255.975 236.906L255.133 237.571ZM482.89 229.265L482.001 228.663C483.199 226.903 484.373 225.091 485.488 223.278L486.404 223.839C485.279 225.666 484.097 227.492 482.89 229.265L482.89 229.265ZM247.587 227.105C246.416 225.315 245.271 223.473 244.182 221.628L245.107 221.084C246.188 222.914 247.325 224.743 248.486 226.519L247.587 227.105ZM489.665 218.257L488.725 217.738C489.756 215.876 490.758 213.964 491.703 212.054L492.666 212.529C491.714 214.453 490.704 216.38 489.665 218.257V218.257ZM241.032 216.003C240.031 214.113 239.059 212.175 238.146 210.241L239.117 209.784C240.024 211.703 240.988 213.627 241.982 215.501L241.032 216.003ZM495.401 206.669L494.417 206.239C495.273 204.288 496.095 202.29 496.86 200.301L497.862 200.685C497.091 202.69 496.263 204.703 495.401 206.669V206.669ZM235.527 204.356C234.704 202.384 233.915 200.366 233.184 198.358L234.193 197.992C234.919 199.985 235.702 201.987 236.518 203.944L235.527 204.356ZM500.045 194.593L499.026 194.256C499.696 192.241 500.328 190.181 500.905 188.133L501.94 188.423C501.358 190.486 500.72 192.563 500.045 194.593V194.593ZM231.115 192.244C230.476 190.202 229.875 188.115 229.33 186.041L230.369 185.769C230.91 187.827 231.506 189.898 232.14 191.925L231.115 192.244ZM503.546 182.171L502.5 181.928C502.981 179.863 503.42 177.753 503.807 175.659L504.863 175.852C504.474 177.963 504.031 180.089 503.546 182.171ZM227.834 179.763C227.386 177.669 226.981 175.536 226.63 173.422L227.689 173.246C228.038 175.345 228.44 177.461 228.885 179.539L227.834 179.763ZM505.887 169.481L504.822 169.336C505.111 167.236 505.355 165.096 505.547 162.973L506.617 163.069C506.423 165.209 506.177 167.366 505.887 169.481ZM225.718 167.034C225.464 164.912 225.256 162.751 225.099 160.611L226.171 160.532C226.326 162.657 226.533 164.801 226.784 166.907L225.718 167.034ZM507.055 156.632L505.981 156.583C506.077 154.46 506.126 152.305 506.126 150.181H507.2C507.2 152.322 507.151 154.492 507.055 156.632ZM224.774 154.165C224.737 152.851 224.719 151.51 224.718 150.181C224.718 149.356 224.725 148.533 224.74 147.711L225.814 147.73C225.799 148.545 225.792 149.362 225.792 150.181C225.793 151.5 225.811 152.831 225.847 154.136L224.774 154.165ZM506.118 148.686C506.096 146.56 506.024 144.406 505.906 142.283L506.978 142.223C507.098 144.363 507.169 146.533 507.192 148.674L506.118 148.686ZM226.068 141.331L224.996 141.264C225.13 139.122 225.316 136.959 225.546 134.834L226.614 134.95C226.385 137.058 226.202 139.205 226.068 141.331ZM505.404 135.899C505.19 133.786 504.923 131.648 504.611 129.544L505.674 129.387C505.987 131.507 506.256 133.662 506.473 135.791L505.404 135.899ZM227.45 128.6L226.389 128.437C226.718 126.316 227.1 124.179 227.525 122.084L228.578 122.296C228.156 124.375 227.777 126.496 227.45 128.6ZM503.527 123.233C503.117 121.142 502.655 119.037 502.153 116.977L503.197 116.724C503.703 118.799 504.168 120.92 504.581 123.027L503.527 123.233ZM229.994 116.05L228.952 115.79C229.474 113.714 230.052 111.62 230.669 109.568L231.698 109.876C231.085 111.913 230.512 113.99 229.994 116.05ZM500.492 110.791C499.893 108.75 499.238 106.697 498.546 104.688L499.562 104.339C500.259 106.364 500.919 108.433 501.523 110.489L500.492 110.791ZM233.692 103.77L232.678 103.414C233.392 101.388 234.163 99.3521 234.969 97.363L235.965 97.7649C235.165 99.7386 234.4 101.759 233.692 103.77ZM496.321 98.6811C495.537 96.7085 494.698 94.7288 493.826 92.7967L494.806 92.3565C495.684 94.3035 496.53 96.2984 497.319 98.286L496.321 98.6811ZM238.512 91.8732L237.536 91.4257C238.433 89.4761 239.388 87.521 240.374 85.6148L241.329 86.1063C240.35 87.9981 239.403 89.9382 238.512 91.8732ZM491.064 87.0306C490.103 85.1383 489.084 83.2421 488.037 81.3953L488.971 80.8672C490.027 82.7283 491.053 84.639 492.022 86.5459L491.064 87.0306ZM244.407 80.4762L243.477 79.9413C244.548 78.0846 245.678 76.2261 246.835 74.4178L247.74 74.9945C246.592 76.7892 245.47 78.6337 244.407 80.4762ZM484.754 75.9018C483.619 74.0988 482.43 72.3025 481.222 70.5628L482.104 69.952C483.322 71.7051 484.52 73.515 485.663 75.3319L484.754 75.9018ZM251.321 69.6723L250.443 69.0546C251.681 67.3021 252.976 65.5553 254.291 63.8627L255.14 64.5195C253.834 66.1996 252.549 67.933 251.321 69.6723ZM477.448 65.3889C476.153 63.697 474.806 62.0151 473.44 60.39L474.264 59.7015C475.639 61.3392 476.997 63.0336 478.302 64.7383L477.448 65.3889ZM259.19 59.5476L258.373 58.8526C259.762 57.2238 261.21 55.6026 262.677 54.034L263.462 54.7652C262.007 56.322 260.569 57.9311 259.19 59.5476ZM469.209 55.5772C467.766 54.01 466.27 52.4565 464.761 50.9607L465.519 50.2002C467.038 51.7079 468.546 53.2728 470 54.8518L469.209 55.5772ZM267.946 50.1835L267.195 49.4172C268.731 47.9177 270.321 46.4352 271.919 45.0111L272.634 45.8108C271.048 47.224 269.471 48.6952 267.946 50.1835L267.946 50.1835ZM460.108 46.5499C458.527 45.1187 456.894 43.7071 455.256 42.3544L455.941 41.5285C457.591 42.8914 459.236 44.3137 460.829 45.7559L460.108 46.5499ZM277.515 41.6557L276.837 40.8246C278.499 39.4745 280.215 38.143 281.94 36.867L282.58 37.728C280.868 38.9946 279.164 40.3158 277.515 41.6557ZM450.217 38.3827C448.511 37.1007 446.755 35.8427 444.999 34.6439L445.606 33.7594C447.375 34.9671 449.144 36.2345 450.863 37.5265L450.217 38.3827ZM287.817 34.036L287.218 33.1468C288.995 31.9529 290.826 30.784 292.658 29.6715L293.216 30.5874C291.398 31.6912 289.581 32.8516 287.817 34.036ZM439.615 31.1467C437.8 30.0256 435.936 28.9327 434.076 27.898L434.598 26.9617C436.473 28.0043 438.351 29.1057 440.181 30.2349L439.615 31.1467ZM298.766 27.3895L298.25 26.449C300.131 25.4219 302.06 24.4253 303.983 23.4867L304.455 24.4497C302.547 25.381 300.633 26.37 298.766 27.3895ZM428.391 24.9061C426.48 23.9559 424.522 23.0379 422.572 22.1777L423.006 21.1974C424.971 22.0641 426.944 22.9892 428.87 23.9467L428.391 24.9061ZM310.27 21.7739L309.843 20.7904C311.809 19.9402 313.82 19.1247 315.819 18.3666L316.201 19.3689C314.216 20.121 312.221 20.9302 310.27 21.7739ZM416.631 19.7188C414.643 18.9492 412.607 18.2149 410.581 17.5366L410.923 16.5201C412.964 17.2039 415.016 17.9437 417.019 18.7197L416.631 19.7188ZM322.251 17.2338L321.916 16.2153C323.957 15.5474 326.04 14.9186 328.106 14.3468L328.393 15.3794C326.343 15.947 324.276 16.5709 322.251 17.2338ZM404.452 15.64C402.403 15.0573 400.314 14.5145 398.242 14.027L398.488 12.9839C400.576 13.4751 402.682 14.022 404.746 14.609L404.452 15.64ZM334.614 13.8095L334.375 12.7646C336.468 12.2875 338.599 11.8528 340.711 11.4729L340.902 12.5275C338.806 12.9049 336.691 13.3361 334.614 13.8095V13.8095ZM391.963 12.7018C389.872 12.31 387.742 11.9614 385.631 11.6657L385.78 10.6043C387.907 10.9024 390.054 11.2536 392.162 11.6482L391.963 12.7018ZM347.241 11.5354L347.099 10.4729C349.225 10.1898 351.388 9.95163 353.526 9.76583L353.619 10.8335C351.497 11.0183 349.352 11.2544 347.241 11.5354V11.5354ZM379.257 10.9204C377.142 10.7215 374.988 10.5682 372.857 10.4653L372.909 9.39452C375.057 9.49841 377.226 9.65281 379.358 9.85329L379.257 10.9204ZM360.024 10.4224L359.979 9.3516C361.953 9.26943 363.965 9.22756 365.959 9.22704L366.445 9.22782L366.442 10.2997L365.959 10.2989C363.98 10.2994 361.983 10.3411 360.024 10.4224V10.4224Z" fill="#F2F2F2"/>
<path d="M244.843 206.878C249.873 200.806 255.552 195.097 262.483 191.326C269.415 187.555 277.764 185.881 285.332 188.124C290.982 189.798 295.797 193.481 300.254 197.33C309.384 205.214 317.804 214.241 328.573 219.69C339.343 225.138 353.534 226.155 362.681 218.29C369.921 212.065 373.007 201.283 381.653 197.22C390.175 193.215 400.057 197.515 408.705 201.242C420.45 206.303 432.603 210.36 445.035 213.371C453.445 215.407 462.108 216.968 470.722 216.149C479.337 215.33 487.984 211.888 493.602 205.32" fill="#F2F2F2"/>
<path d="M203.776 176.714H225.46C226.94 168.177 226.94 159.45 225.46 150.913H203.776C206.219 159.341 206.219 168.287 203.776 176.714Z" fill="#C83BDC"/>
<path d="M28.1653 188.505H49.849C51.3287 179.968 51.3287 171.241 49.849 162.704H28.1653C30.6081 171.131 30.6081 180.077 28.1653 188.505Z" fill="#C83BDC"/>
<path d="M405.702 110.257H427.386C428.866 101.72 428.866 92.9927 427.386 84.4557H405.702C408.145 92.8833 408.145 101.829 405.702 110.257Z" fill="#C83BDC"/>
<path d="M110.999 352.348L106.454 366.781L120.503 368.018L119.263 352.348H110.999Z" fill="#FFB9B9"/>
<path d="M179.179 363.481V383.276H195.294L190.749 363.481H179.179Z" fill="#FFB9B9"/>
<path d="M121.743 219.564L115.132 282.245C115.132 282.245 106.867 337.502 108.52 346.162C110.173 354.822 108.107 356.059 108.107 356.059H120.503C120.503 356.059 120.09 350.698 122.569 348.224C125.049 345.75 123.809 338.327 123.809 338.327L155.213 242.657L172.981 296.265C172.981 296.265 175.874 355.234 176.287 356.059C176.7 356.884 177.94 368.018 177.94 368.018H193.228C193.228 368.018 191.162 361.42 194.055 359.358C196.947 357.296 199.426 358.946 196.947 355.234C194.468 351.523 193.642 346.987 194.468 344.925C195.294 342.863 195.294 334.616 195.294 334.616C195.294 334.616 194.055 223.275 187.03 219.564C180.006 215.853 121.743 219.564 121.743 219.564Z" fill="#2F2E41"/>
<path d="M183.546 372.785C183.546 372.785 176.48 371.727 176.48 372.08C176.48 372.432 168.002 395.349 176.48 394.996C184.959 394.643 217.107 390.06 214.988 381.599C212.868 373.137 202.27 375.605 202.27 375.605L192.731 370.317L183.546 372.785Z" fill="#2F2E41"/>
<path d="M113.981 365.483C113.981 365.483 121.047 364.425 121.047 364.778C121.047 365.13 129.525 388.047 121.047 387.694C112.568 387.342 80.4199 382.758 82.5396 374.297C84.6592 365.835 95.2575 368.303 95.2575 368.303L104.796 363.015L113.981 365.483Z" fill="#2F2E41"/>
<path d="M147.769 269.868H168.636C170.06 261.653 170.06 253.254 168.636 245.039H147.769C150.119 253.149 150.119 261.758 147.769 269.868Z" fill="#D0CDE1"/>
<path d="M141.692 270.735H162.559C163.983 262.519 163.983 254.121 162.559 245.905H141.692C144.043 254.015 144.043 262.624 141.692 270.735Z" fill="#C83BDC"/>
<path d="M155.738 101.763C164.719 101.763 171.999 94.4977 171.999 85.5351C171.999 76.5726 164.719 69.307 155.738 69.307C146.757 69.307 139.477 76.5726 139.477 85.5351C139.477 94.4977 146.757 101.763 155.738 101.763Z" fill="#FFB9B9"/>
<path d="M142.816 83.4816C142.816 83.4816 139.924 112.348 136.205 114.409C132.486 116.471 164.717 118.533 164.717 118.533C164.717 118.533 156.866 92.1414 159.345 89.6671C161.824 87.1929 142.816 83.4816 142.816 83.4816Z" fill="#FFB9B9"/>
<path d="M177.526 113.585C177.526 113.585 165.956 102.451 152.734 104.512C139.511 106.574 130.007 109.049 130.007 109.049C130.007 109.049 109.76 119.77 109.347 128.43C108.933 137.09 116.784 169.667 116.784 169.667C116.784 169.667 120.503 222.863 120.916 222.863C121.33 222.863 190.749 222.038 190.749 222.038L177.939 152.76L177.526 113.585Z" fill="#575A89"/>
<path d="M174.824 212.814C172.146 213.535 167.531 212.537 162.713 210.962C154.118 208.146 144.883 203.482 144.883 203.482C144.883 203.482 115.131 191.523 106.454 185.337C97.7766 179.152 103.562 154.409 103.562 154.409L116.784 158.533L115.958 173.791L148.602 194.822C153.731 195.302 158.796 196.318 163.713 197.853C169.208 199.655 174.547 202.463 176.477 206.776C176.778 207.435 176.992 208.129 177.113 208.842C177.506 211.119 176.58 212.335 174.824 212.814Z" fill="#FFB9B9"/>
<path opacity="0.15" d="M176.477 206.776C175.902 208.913 175.344 210.945 174.824 212.814C172.146 213.535 167.531 212.537 162.713 210.962L163.713 197.853C169.208 199.655 174.547 202.463 176.477 206.776Z" fill="black"/>
<path d="M170.501 146.574L168.022 168.43L163.911 222.357C163.911 222.357 141.164 249.667 153.973 250.492C166.783 251.317 173.807 223.688 173.807 223.688C173.807 223.688 186.617 179.976 186.203 170.904C185.79 161.832 186.203 146.574 186.203 146.574H170.501Z" fill="#FFB9B9"/>
<path d="M174.102 83.7239C174.527 83.5541 174.922 83.3167 175.271 83.0209C176.159 82.1611 176.009 80.7042 175.624 79.5311C175.238 78.3581 174.675 77.1453 174.951 75.9419C175.079 75.3811 175.386 74.8682 175.473 74.2996C175.681 72.9475 174.6 71.7152 173.404 71.0476C172.208 70.38 170.831 70.0511 169.701 69.2778C167.967 68.0918 167.009 66.0002 165.249 64.8537C163.527 63.7325 161.34 63.6977 159.284 63.7L153.147 63.7068C149.94 63.7104 146.416 63.829 144.029 65.9668C143.303 66.6171 142.727 67.4223 141.992 68.0621C140.511 69.3507 138.513 69.8651 136.868 70.938C135.641 71.7575 134.637 72.8695 133.948 74.1735C133.259 75.4775 132.907 76.9322 132.923 78.4063C132.981 81.124 134.308 83.764 133.963 86.4605C133.732 88.2693 132.753 90.0073 133.01 91.8127C133.315 93.9538 135.283 95.4875 137.301 96.275C139.32 97.0625 141.52 97.3452 143.484 98.2598C145.086 99.0063 146.761 100.196 148.451 99.6739C149.88 99.2319 150.664 97.7254 151.176 96.3223C151.775 94.6811 152.215 92.9865 152.49 91.2616C152.696 89.9714 152.832 88.6039 153.591 87.5396C154.037 86.9604 154.624 86.5046 155.296 86.2153C155.968 85.9261 156.703 85.813 157.431 85.8869C160.745 86.1776 162.61 91.81 165.658 90.478C167.169 89.8175 168.33 87.8407 169.54 86.7628C170.91 85.5404 172.445 84.5173 174.102 83.7239Z" fill="#2F2E41"/>
<path d="M114.305 124.719C114.305 124.719 106.041 127.605 102.735 139.152C99.4292 150.698 100.669 158.533 100.669 158.533L118.024 161.42L114.305 124.719Z" fill="#575A89"/>
<path d="M169.262 112.76C169.262 112.76 184.138 109.461 186.204 123.482C187.496 132.913 188.186 142.417 188.27 151.935C188.27 151.935 174.221 145.337 168.022 151.935L169.262 112.76Z" fill="#575A89"/>
<path d="M222.333 159.176H207.833V160.784H222.333V159.176Z" fill="#F2F2F2"/>
<path d="M46.7222 172.575H32.2222V174.183H46.7222V172.575Z" fill="#F2F2F2"/>
<path d="M222.333 162.928H207.833V164.536H222.333V162.928Z" fill="#F2F2F2"/>
<path d="M424.796 90.5749H410.296V92.1828H424.796V90.5749Z" fill="#F2F2F2"/>
<path d="M424.796 98.0782H410.296V99.686H424.796V98.0782Z" fill="#F2F2F2"/>
<path d="M424.796 94.3265H410.296V95.9344H424.796V94.3265Z" fill="#F2F2F2"/>
</svg>
