<svg width="518" height="282" viewBox="0 0 518 282" fill="none" xmlns="http://www.w3.org/2000/svg">
<g clip-path="url(#clip0)">
<path opacity="0.1" d="M512.509 261.638C510.499 266.588 508.024 271.337 505.118 275.822C503.754 277.96 502.259 280.012 500.64 281.965C500.626 281.985 500.609 282.003 500.591 282.019H0L0.067565 281.965C0.518 281.614 3.16205 279.48 7.27452 275.822C10.2249 273.202 13.9274 269.795 18.085 265.696C52.0883 232.328 117.406 153.344 63.0068 80.989C12.4365 13.7259 66.8851 1.51995 102.803 0.0953213C116.603 -0.444061 130.37 1.80139 143.279 6.69715C159.873 12.9889 190.201 22.6332 229.713 27.0554C231.01 27.1992 232.316 27.343 233.641 27.4734C254.56 29.5985 275.62 29.9803 296.602 28.6148C297.219 28.5789 297.841 28.534 298.467 28.489C319.224 27.0348 339.823 23.8554 360.051 18.984C361.361 18.6649 362.654 18.3638 363.942 18.0627C431.341 2.50415 493.474 55.53 477.938 115.454C472.195 137.619 473.655 161.245 492.803 180.358C524.153 211.556 520.356 242.282 512.509 261.638Z" fill="#C83BDC"/>
<path d="M512.509 261.637C510.499 266.587 508.024 271.336 505.118 275.821C503.754 277.959 502.259 280.011 500.64 281.964H0.067627C0.518062 281.614 3.16211 279.479 7.27458 275.821C10.2249 273.201 13.9275 269.794 18.085 265.696L70.8444 254.82C71.5261 254.68 72.2204 254.609 72.9165 254.609L129.162 254.528H129.221L157.08 254.492H157.143L180.656 254.465H196.047H211.813L276.414 254.375H276.517H281.522H290.314H301.291H304.21L315.304 254.249H318.971L351.24 254.204H361.546H366.501L403.774 254.155H414.873L450.178 254.105L479.979 254.069C480.809 254.07 481.636 254.168 482.443 254.361L512.509 261.637Z" fill="#454B69"/>
<path opacity="0.4" d="M7.27458 275.821H505.118C503.754 277.959 502.259 280.011 500.64 281.964H0.067627C0.509053 281.591 3.15311 279.456 7.27458 275.821Z" fill="black"/>
<path d="M330.268 136.054L329.268 136.247L284.062 144.912C270.932 147.429 257.613 149.959 244.275 148.993C234.613 148.292 225.587 145.433 216.303 142.926C211.056 141.506 205.493 140.939 203.714 135.079C201.259 126.99 205.254 115.013 206.196 106.816C207.096 98.7712 207.628 90.5246 206.024 82.5745C205.668 80.7879 205.199 79.0257 204.619 77.2984C203.011 72.5392 200.484 67.5912 201.849 62.76C202.925 58.9266 206.209 56.1897 209.281 53.655C215.299 48.7115 221.443 43.1703 223.83 35.7595C225.001 32.1642 225.222 28.2948 226.483 24.7265C228.875 17.9404 234.884 12.8666 241.568 10.1791C248.253 7.49165 255.604 6.9209 262.815 6.9209C269.183 6.92125 275.543 7.34312 281.855 8.18374C288.738 9.08256 295.683 10.5611 301.733 13.9676C307.782 17.3742 312.881 22.9558 314.291 29.7599C316.286 39.3817 310.746 49.6283 313.719 58.9715C315.214 63.6948 318.674 67.5103 321.074 71.8336C323.032 75.4501 324.24 79.4226 324.627 83.5146C325.014 87.6066 324.572 91.7344 323.327 95.6523C320.453 104.537 313.417 113.525 317.021 122.141C319.313 127.619 325.169 130.544 329.25 134.886C329.613 135.275 329.953 135.665 330.268 136.054Z" fill="#454B69"/>
<path opacity="0.1" d="M329.268 134.922V136.248L284.062 144.912C270.932 147.429 257.613 149.959 244.275 148.993C234.613 148.292 225.587 145.434 216.303 142.926C211.056 141.506 205.493 140.939 203.714 135.079C201.259 126.99 205.254 115.013 206.195 106.816C207.096 98.7714 220.965 69.4024 219.362 61.4524L302.242 65.0477C302.8 69.4384 324.705 91.4774 323.34 95.6884C320.466 104.573 313.431 113.561 317.034 122.177C319.331 127.655 325.187 130.581 329.268 134.922Z" fill="black"/>
<path d="M244.586 112.685C245.077 115.467 245.338 118.527 243.915 120.954C242.019 124.208 237.883 125.246 234.185 125.983L221.348 128.545C220.474 128.72 219.546 128.918 218.893 129.515C218.123 130.203 217.862 131.291 217.749 132.315C217.231 136.953 218.875 141.524 220.375 145.941C223.407 154.889 225.952 164.026 229.785 172.659C233.618 181.292 238.879 189.534 246.388 195.304C253.896 201.075 263.833 204.149 273.026 201.893C281.035 199.929 287.602 194.289 293.264 188.307C297.935 183.364 302.305 177.971 304.57 171.558C306.133 167.153 306.642 162.462 307.133 157.815C307.893 150.69 308.653 143.565 309.413 136.441C309.768 133.097 310.003 129.336 307.827 126.769C306.872 125.641 305.575 124.891 304.251 124.194C299.323 121.583 294.134 119.426 289.548 116.28C284.963 113.134 280.896 108.802 279.504 103.427C278.67 100.2 278.819 96.686 277.4 93.6795C275.815 90.3089 272.445 88.0259 268.842 87.0237C265.238 86.0215 261.437 86.1563 257.725 86.5743C254.014 86.9922 239.708 88.0618 238.172 92.2369C237.347 94.4839 240.766 99.3061 241.577 101.517C242.912 105.143 243.919 108.88 244.586 112.685Z" fill="#EFB7B9"/>
<path opacity="0.1" d="M244.586 112.685C245.077 115.467 245.338 118.527 243.915 120.954C242.019 124.208 237.883 125.246 234.185 125.983L221.348 128.545C220.474 128.72 219.546 128.918 218.893 129.515C218.123 130.203 217.862 131.291 217.749 132.315C217.231 136.953 218.875 141.524 220.375 145.941C223.407 154.889 225.952 164.026 229.785 172.659C233.618 181.292 238.879 189.534 246.388 195.304C253.896 201.075 263.833 204.149 273.026 201.893C281.035 199.929 287.602 194.289 293.264 188.307C297.935 183.364 302.305 177.971 304.57 171.558C306.133 167.153 306.642 162.462 307.133 157.815C307.893 150.69 308.653 143.565 309.413 136.441C309.768 133.097 310.003 129.336 307.827 126.769C306.872 125.641 305.575 124.891 304.251 124.194C299.323 121.583 294.134 119.426 289.548 116.28C284.963 113.134 280.896 108.802 279.504 103.427C278.67 100.2 278.819 96.686 277.4 93.6795C275.815 90.3089 272.445 88.0259 268.842 87.0237C265.238 86.0215 261.437 86.1563 257.725 86.5743C254.014 86.9922 239.708 88.0618 238.172 92.2369C237.347 94.4839 240.766 99.3061 241.577 101.517C242.912 105.143 243.919 108.88 244.586 112.685Z" fill="black"/>
<path d="M275.481 161.554L283.008 145.654C286.535 138.203 290.139 130.374 289.765 122.145C289.693 120.509 289.675 118.465 291.116 117.723C291.742 117.468 292.424 117.381 293.093 117.471C301.017 117.876 308.837 119.454 316.295 122.154C317.741 122.675 319.223 123.278 320.237 124.428C321.25 125.579 321.66 127.125 322.007 128.608C323.188 133.622 324.05 138.706 324.588 143.829C325.939 156.512 325.268 169.306 324.588 182.029L322.588 220.871C322.599 221.422 322.486 221.969 322.259 222.471C321.764 223.37 320.646 223.671 319.642 223.842C315.773 224.503 311.818 224.368 307.899 224.22C280.333 223.177 252.622 221.577 225.235 224.912C225.358 220.87 225.294 216.825 225.042 212.778C223.956 195.3 219.416 178.249 214.956 161.316C212.357 151.429 209.84 140.643 214.024 131.327C214.639 129.855 215.524 128.511 216.632 127.363C218.411 125.624 220.839 124.707 223.244 124.051C227.393 122.925 231.691 122.44 235.987 122.613L264.387 184.303C265.684 187.125 266.752 190.096 268.045 192.882C269.207 188.069 267.81 182.429 269.207 177.211C270.711 171.796 273.081 166.614 275.481 161.554Z" fill="white"/>
<path d="M272.513 204C277.594 204.32 282.531 201.722 286.026 198.05C289.521 194.379 291.828 189.723 293.778 185.017C296.582 178.31 298.81 171.378 300.44 164.295C301.791 158.273 302.751 152.04 301.818 145.937C300.53 137.51 295.751 129.852 294.936 121.368C294.796 119.884 294.886 118.15 296.08 117.255C296.818 116.703 297.791 116.626 298.71 116.572C307.206 116.069 316.539 116.163 323.119 121.543C325.124 123.179 326.75 125.223 328.709 126.909C333.376 130.953 339.97 133.012 342.966 138.382C344.011 140.252 344.511 142.368 345.24 144.382C346.961 149.146 349.938 153.334 352.898 157.455C350.028 169.535 346.731 181.624 343.862 193.704C342.182 200.792 340.488 207.906 337.849 214.692C336.119 219.141 333.943 223.68 334.475 228.444C334.687 230.318 335.313 232.111 335.858 233.918C337.768 240.259 338.664 246.861 338.511 253.48L209.984 253.795C216.141 244.987 217.947 234.183 217.321 223.464C217.019 218.328 215.857 213.159 213.267 208.715C209.186 201.749 202.006 197.21 194.93 193.322C189.975 190.626 184.656 205.798 179.3 204.059C180.165 197.956 180.561 174.398 180.201 168.254C180.084 166.241 179.904 164.174 180.525 162.25C180.949 160.934 181.728 159.756 182.255 158.475C184.367 153.347 182.354 146.791 185.768 142.427C188.129 139.393 192.268 138.53 195.633 136.661C199.088 134.737 201.759 131.717 204.768 129.138C210.672 124.136 217.886 120.922 225.56 119.875C227.798 123.398 229.159 127.405 229.528 131.56C229.758 134.171 229.591 136.818 229.956 139.416C230.456 142.935 231.915 146.238 233.361 149.492C239.384 163.059 245.428 176.667 253.059 189.408C255.216 193.003 257.563 196.599 260.689 199.398C263.815 202.198 268.315 204.198 272.513 204Z" fill="#C83BDC"/>
<path opacity="0.1" d="M272.513 204C277.594 204.32 282.531 201.722 286.026 198.05C289.521 194.379 291.828 189.723 293.778 185.017C296.582 178.31 298.81 171.378 300.44 164.295C301.791 158.273 302.751 152.04 301.818 145.937C300.53 137.51 295.751 129.852 294.936 121.368C294.796 119.884 294.886 118.15 296.08 117.255C296.818 116.703 297.791 116.626 298.71 116.572C307.206 116.069 316.539 116.163 323.119 121.543C325.124 123.179 326.75 125.223 328.709 126.909C333.376 130.953 339.97 133.012 342.966 138.382C344.011 140.252 344.511 142.368 345.24 144.382C346.961 149.146 349.938 153.334 352.898 157.455C350.028 169.535 346.731 181.624 343.862 193.704C342.182 200.792 340.488 207.906 337.849 214.692C336.119 219.141 333.943 223.68 334.475 228.444C334.687 230.318 335.313 232.111 335.858 233.918C337.768 240.259 338.664 246.861 338.511 253.48L209.984 253.795C216.141 244.987 217.947 234.183 217.321 223.464C217.019 218.328 215.857 213.159 213.267 208.715C209.186 201.749 202.006 197.21 194.93 193.322C189.975 190.626 184.656 205.798 179.3 204.059C180.165 197.956 180.561 174.398 180.201 168.254C180.084 166.241 179.904 164.174 180.525 162.25C180.949 160.934 181.728 159.756 182.255 158.475C184.367 153.347 182.354 146.791 185.768 142.427C188.129 139.393 192.268 138.53 195.633 136.661C199.088 134.737 201.759 131.717 204.768 129.138C210.672 124.136 217.886 120.922 225.56 119.875C227.798 123.398 229.159 127.405 229.528 131.56C229.758 134.171 229.591 136.818 229.956 139.416C230.456 142.935 231.915 146.238 233.361 149.492C239.384 163.059 245.428 176.667 253.059 189.408C255.216 193.003 257.563 196.599 260.689 199.398C263.815 202.198 268.315 204.198 272.513 204Z" fill="black"/>
<path d="M265.716 111.665C287.04 111.665 304.327 94.4172 304.327 73.1413C304.327 51.8654 287.04 34.6179 265.716 34.6179C244.392 34.6179 227.105 51.8654 227.105 73.1413C227.105 94.4172 244.392 111.665 265.716 111.665Z" fill="#EFB7B9"/>
<path d="M245.455 124.478C246.514 114.51 242.361 104.757 237.658 95.8996C235.406 91.6662 232.992 87.4462 231.861 82.7948C230.731 78.1434 231.055 72.8764 233.947 69.0519C236.406 65.7982 240.307 64.041 243.915 62.131C254.099 56.7381 263.41 48.8105 267.887 38.2089C265.356 39.5841 266.013 43.6872 268.247 45.4983C270.481 47.3094 273.526 47.66 276.274 48.5229C286.292 51.6687 292.301 61.6366 297.12 70.9484C297.908 72.4674 298.71 74.0718 298.701 75.784C298.692 77.4963 297.908 79.0153 297.089 80.4714C294.71 84.6958 291.801 88.754 290.719 93.4773C289.481 98.8702 290.787 104.542 292.485 109.831C294.287 115.458 296.679 121.129 301.003 125.165C305.327 129.201 312.034 131.205 317.354 128.599C312.043 119.489 306.543 109.31 308.615 98.9826C309.615 94.0391 312.304 89.545 313.448 84.6284C315.629 75.2492 311.998 65.6004 308.435 56.6482L297.787 29.9308C296.161 25.8456 294.309 21.4864 290.58 19.1719C288.057 17.6125 285.003 17.208 282.049 16.9249C272.535 16.08 262.68 16.3586 253.824 19.891C237.69 26.322 227.573 42.1772 219.546 57.556C217.141 62.1624 214.767 67.0565 214.866 72.2517C214.92 75.1009 215.718 77.8738 216.366 80.6511C219.006 91.9583 219.15 103.674 219.285 115.283C219.389 124.19 218.925 132.585 215.019 140.697C220.371 141.757 228.132 144.62 233.429 142.526C240.334 139.802 244.586 131.412 245.455 124.478Z" fill="#454B69"/>
<g opacity="0.1">
<path opacity="0.1" d="M219.263 115.094C219.281 113.827 219.281 112.547 219.263 111.256C219.127 99.6477 218.983 87.9316 216.344 76.6245C215.754 74.4241 215.294 72.1912 214.965 69.9373C214.873 70.7112 214.832 71.4904 214.844 72.2697C214.898 75.1189 215.695 77.8918 216.344 80.6692C218.97 91.9089 219.132 103.553 219.263 115.094Z" fill="black"/>
<path opacity="0.1" d="M313.449 84.6284C314.04 82.0025 314.237 79.3036 314.034 76.6199C313.946 77.9547 313.75 79.2802 313.449 80.5837C312.304 85.5272 309.615 89.9808 308.615 94.9378C308.184 97.1242 308.063 99.3601 308.255 101.58C308.327 100.708 308.447 99.841 308.615 98.9825C309.615 94.0255 312.304 89.5539 313.449 84.6284Z" fill="black"/>
<path opacity="0.1" d="M298.35 73.7212C298.57 73.0829 298.688 72.4142 298.701 71.7393C298.701 70.0271 297.909 68.4227 297.12 66.9037C292.301 57.5919 286.31 47.633 276.274 44.4781C273.526 43.6152 270.486 43.2647 268.247 41.4536C267.671 40.9586 267.2 40.3538 266.861 39.6747C266.522 38.9956 266.323 38.2558 266.275 37.4988C261.392 46.442 253.005 53.282 243.915 58.0862C240.311 59.9962 236.406 61.7534 233.947 65.0071C231.636 68.0631 230.965 72.0404 231.366 75.8873C231.593 73.4184 232.485 71.0566 233.947 69.0518C236.406 65.7981 240.307 64.0409 243.915 62.1309C253.005 57.3267 261.392 50.4867 266.275 41.5435C266.323 42.3005 266.522 43.0403 266.861 43.7194C267.2 44.3985 267.671 45.0033 268.247 45.4983C270.5 47.2959 273.526 47.6599 276.274 48.5228C286.292 51.6687 292.301 61.6366 297.12 70.9483C297.609 71.8358 298.02 72.7635 298.35 73.7212Z" fill="black"/>
<path opacity="0.1" d="M301.003 121.12C296.679 117.076 294.296 111.413 292.485 105.786C291.399 102.626 290.673 99.3528 290.323 96.0298C289.904 100.645 291.053 105.369 292.485 109.831C294.287 115.458 296.679 121.129 301.003 125.165C305.327 129.201 312.034 131.205 317.354 128.598C316.714 127.506 316.079 126.396 315.448 125.277C310.507 126.666 304.832 124.689 301.003 121.12Z" fill="black"/>
<path opacity="0.1" d="M245.455 120.433C244.586 127.367 240.334 135.758 233.411 138.499C228.605 140.4 221.762 138.216 216.542 137.007C216.093 138.269 215.579 139.506 215.001 140.715C220.353 141.775 228.114 144.638 233.411 142.544C240.334 139.802 244.586 131.412 245.455 124.478C245.635 122.743 245.668 120.996 245.554 119.255C245.527 119.646 245.487 120.042 245.455 120.433Z" fill="black"/>
</g>
<path d="M300.035 231.859C293.075 230.758 286.013 228.633 279.112 230.062C275.112 230.889 271.455 232.875 268.13 235.275C269.959 236.736 272.094 238.039 273.256 240.07C273.978 241.476 274.519 242.966 274.869 244.506C275.599 247.202 276.333 249.953 276.445 252.757C276.558 255.561 275.995 258.482 274.319 260.743C283.094 261.606 291.598 259.449 300.156 257.341C301.135 257.17 302.067 256.794 302.89 256.24C304.242 255.179 304.638 253.292 304.647 251.571C304.647 248.497 303.782 245.499 302.904 242.551C301.859 239.014 301.084 235.374 300.035 231.859Z" fill="white"/>
<path d="M347.024 156.058C350.479 156.507 353.159 159.289 355.132 162.147C360.668 170.102 363.055 179.746 365.712 189.062C369.016 200.648 372.9 212.051 377.365 223.271C378.327 225.862 379.495 228.372 380.861 230.776C381.973 232.632 383.324 234.417 383.815 236.524C385.005 241.621 380.793 246.411 376.401 249.252C374.06 250.826 371.504 252.055 368.811 252.901C366.19 253.683 363.456 253.979 360.74 254.276L335.736 256.972C324.227 258.222 312.615 259.471 301.102 258.267C300.377 255.75 301.8 253.97 301.697 251.35C301.625 249.476 300.796 247.733 300.057 246.007C298.695 242.933 297.795 239.676 297.386 236.34C297.255 235.113 297.21 233.855 296.742 232.713C296.273 231.572 295.269 230.547 294.039 230.466C300.796 229.797 305.926 228.525 312.683 227.851C315.192 227.599 317.8 227.316 319.939 225.986C322.592 224.336 324.079 221.361 325.259 218.476C328.182 211.33 330.065 203.457 328.529 195.889C327.268 189.682 323.75 183.903 323.768 177.571C323.768 173.8 325.056 170.146 326.579 166.695C328.191 163.046 330.295 159.316 333.835 157.464C337.376 155.613 343.029 155.518 347.024 156.058Z" fill="#C83BDC"/>
<path opacity="0.08" d="M347.024 156.058C350.479 156.507 353.159 159.289 355.132 162.147C360.668 170.102 363.055 179.746 365.712 189.062C369.016 200.648 372.9 212.051 377.365 223.271C378.327 225.862 379.495 228.372 380.861 230.776C381.973 232.632 383.324 234.417 383.815 236.524C385.005 241.621 380.793 246.411 376.401 249.252C374.06 250.826 371.504 252.055 368.811 252.901C366.19 253.683 363.456 253.979 360.74 254.276L335.736 256.972C324.227 258.222 312.615 259.471 301.102 258.267C300.377 255.75 301.8 253.97 301.697 251.35C301.625 249.476 300.796 247.733 300.057 246.007C298.695 242.933 297.795 239.676 297.386 236.34C297.255 235.113 297.21 233.855 296.742 232.713C296.273 231.572 295.269 230.547 294.039 230.466C300.796 229.797 305.926 228.525 312.683 227.851C315.192 227.599 317.8 227.316 319.939 225.986C322.592 224.336 324.079 221.361 325.259 218.476C328.182 211.33 330.065 203.457 328.529 195.889C327.268 189.682 323.75 183.903 323.768 177.571C323.768 173.8 325.056 170.146 326.579 166.695C328.191 163.046 330.295 159.316 333.835 157.464C337.376 155.613 343.029 155.518 347.024 156.058Z" fill="black"/>
<path d="M190.448 150.22C192.084 146.346 193.746 142.346 193.791 138.144C193.84 133.6 191.989 129.286 190.575 124.972C188.825 119.693 187.661 114.239 187.102 108.708C186.986 108.178 187.066 107.624 187.327 107.148C187.701 106.622 188.421 106.514 189.057 106.375C192.174 105.665 194.529 103.153 196.475 100.623C199.494 96.7151 202.043 92.4676 204.07 87.9673C205.561 84.6551 207.578 80.615 211.218 80.5835C209.753 87.4502 207.937 94.2376 205.777 100.919C209.583 99.9486 213.2 98.5374 217.006 97.5667C217.751 97.3319 218.532 97.2285 219.312 97.2611C221.591 97.4993 222.988 100.578 221.664 102.443C223.524 104.618 226.618 105.202 229.051 106.694C231.483 108.186 233.231 111.88 231.069 113.754C230.645 114.118 230.109 114.375 229.803 114.842C228.758 116.451 231.316 118.298 231.105 120.203C230.934 121.763 228.929 122.491 227.411 122.077C225.893 121.664 224.708 120.532 223.357 119.7C222.006 118.869 220.24 118.352 218.929 119.215C218.578 123.444 218.2 127.754 216.366 131.605C215.695 133.012 214.835 134.328 214.294 135.789C213.777 137.382 213.457 139.031 213.34 140.701L211.704 155.617C203.903 157.176 196.908 154.844 190.448 150.22Z" fill="#EFB7B9"/>
<path d="M188.543 163.589L187.106 153.887C186.969 153.097 186.892 152.297 186.876 151.496C186.876 149.249 187.867 147.105 188.827 145.06C196.777 148.763 205.371 150.08 214.141 150.085C215.299 150.085 216.619 149.977 217.339 149.074C218.83 150.786 218.875 153.541 218.24 155.716C217.605 157.891 216.384 159.85 215.574 161.972C215.164 163.046 214.83 164.219 214.047 165.046C212.831 166.353 210.858 166.578 209.065 166.569C207.179 166.557 205.298 166.378 203.443 166.034C198.642 165.144 193.345 162.731 188.543 163.589Z" fill="white"/>
<path d="M218.195 163.194C212.024 162.493 205.894 161.504 199.804 160.228C196.818 159.603 193.804 158.907 190.759 159.028C188.777 159.109 186.647 159.504 184.904 158.525C186.602 164.291 186.705 170.367 184.674 176.025C183.471 179.395 181.638 182.537 180.755 186.006C178.917 193.264 181.44 201.178 179.143 208.306C178.9 209.237 178.422 210.091 177.755 210.786C177.053 211.429 176.093 211.762 175.444 212.458C174.49 213.483 174.431 215.024 174.426 216.422L174.386 228.803C174.359 236.686 174.462 245.045 178.634 251.723C183.39 259.363 193.403 263.322 202.119 260.999C204.437 260.408 206.608 259.348 208.497 257.885C211.524 255.485 213.452 252.015 215.339 248.636C217.592 244.591 219.844 240.457 220.569 235.904C221.083 232.682 220.794 229.392 220.425 226.152C218.389 208.175 213.97 190.352 214.921 172.308C215.063 169.009 216.205 165.832 218.195 163.194Z" fill="#C83BDC"/>
<path d="M243.987 237.796C240.856 237.976 237.703 238.156 234.586 237.796C232.334 237.526 230.136 236.974 227.902 236.596C221.8 235.613 215.558 235.959 209.603 237.61C203.648 239.26 198.122 242.177 193.403 246.16C191.673 247.634 189.926 249.894 190.881 251.957C191.908 254.177 195.047 254.114 197.466 253.701C194.855 254.945 192.549 256.744 190.71 258.972C190.034 259.795 189.394 260.77 189.525 261.835C189.8 264.06 192.827 264.464 195.065 264.271C194.336 265.053 194.827 266.437 195.754 266.967C196.682 267.498 197.835 267.39 198.885 267.196C201.205 266.773 203.447 265.998 205.533 264.9C205.11 266.001 205.844 267.291 206.885 267.839C207.925 268.387 209.191 268.347 210.358 268.158C215.862 267.259 220.456 263.439 225.825 261.938C234.411 259.543 243.392 263.363 252.315 263.633C255.108 263.718 257.973 263.435 260.518 262.284C263.639 260.869 266.157 258.213 269.455 257.269C273.117 256.226 277.319 257.426 280.67 255.624C283.107 254.316 280.909 244.236 280.287 242.295C279.148 238.744 278.004 236.389 274.207 236.03C264.599 235.091 253.667 237.239 243.987 237.796Z" fill="#EFB7B9"/>
<path d="M267.955 235.046C267.955 235.046 282.499 247.328 274.108 260.729L290.323 255.143V243.418C290.323 242.861 284.166 234.488 284.166 234.488L276.891 233.369L267.955 235.046Z" fill="white"/>
<path d="M115.667 234.286H121.122C124.108 234.286 126.973 235.47 129.085 237.577C131.196 239.684 132.383 242.542 132.383 245.521V262.199H104.406V245.521C104.406 244.046 104.698 242.585 105.263 241.222C105.829 239.859 106.659 238.62 107.704 237.577C108.75 236.534 109.992 235.706 111.358 235.141C112.724 234.577 114.188 234.286 115.667 234.286Z" fill="#3F3D56"/>
<path opacity="0.1" d="M115.667 234.286H121.122C124.108 234.286 126.973 235.47 129.085 237.577C131.196 239.684 132.383 242.542 132.383 245.521V262.199H104.406V245.521C104.406 244.046 104.698 242.585 105.263 241.222C105.829 239.859 106.659 238.62 107.704 237.577C108.75 236.534 109.992 235.706 111.358 235.141C112.724 234.577 114.188 234.286 115.667 234.286Z" fill="black"/>
<path d="M117.275 240.425C118.512 240.425 119.514 239.425 119.514 238.192C119.514 236.958 118.512 235.958 117.275 235.958C116.039 235.958 115.037 236.958 115.037 238.192C115.037 239.425 116.039 240.425 117.275 240.425Z" fill="#3F3D56"/>
<path d="M117.275 237.634C118.512 237.634 119.514 236.634 119.514 235.401C119.514 234.167 118.512 233.167 117.275 233.167C116.039 233.167 115.037 234.167 115.037 235.401C115.037 236.634 116.039 237.634 117.275 237.634Z" fill="#3F3D56"/>
<path d="M117.275 234.843C118.512 234.843 119.514 233.843 119.514 232.61C119.514 231.376 118.512 230.376 117.275 230.376C116.039 230.376 115.037 231.376 115.037 232.61C115.037 233.843 116.039 234.843 117.275 234.843Z" fill="#3F3D56"/>
<path d="M117.275 232.053C118.512 232.053 119.514 231.053 119.514 229.819C119.514 228.585 118.512 227.585 117.275 227.585C116.039 227.585 115.037 228.585 115.037 229.819C115.037 231.053 116.039 232.053 117.275 232.053Z" fill="#3F3D56"/>
<path d="M117.275 229.262C118.512 229.262 119.514 228.262 119.514 227.028C119.514 225.795 118.512 224.795 117.275 224.795C116.039 224.795 115.037 225.795 115.037 227.028C115.037 228.262 116.039 229.262 117.275 229.262Z" fill="#3F3D56"/>
<path d="M117.275 226.471C118.512 226.471 119.514 225.471 119.514 224.237C119.514 223.004 118.512 222.004 117.275 222.004C116.039 222.004 115.037 223.004 115.037 224.237C115.037 225.471 116.039 226.471 117.275 226.471Z" fill="#3F3D56"/>
<path d="M117.275 223.676C118.512 223.676 119.514 222.676 119.514 221.442C119.514 220.209 118.512 219.208 117.275 219.208C116.039 219.208 115.037 220.209 115.037 221.442C115.037 222.676 116.039 223.676 117.275 223.676Z" fill="#3F3D56"/>
<path d="M120.635 224.795C121.872 224.795 122.874 223.795 122.874 222.561C122.874 221.328 121.872 220.328 120.635 220.328C119.399 220.328 118.397 221.328 118.397 222.561C118.397 223.795 119.399 224.795 120.635 224.795Z" fill="#3F3D56"/>
<path d="M122.874 223.676C124.111 223.676 125.113 222.676 125.113 221.442C125.113 220.209 124.111 219.208 122.874 219.208C121.638 219.208 120.635 220.209 120.635 221.442C120.635 222.676 121.638 223.676 122.874 223.676Z" fill="#3F3D56"/>
<path d="M125.113 222.561C126.349 222.561 127.351 221.561 127.351 220.328C127.351 219.094 126.349 218.094 125.113 218.094C123.876 218.094 122.874 219.094 122.874 220.328C122.874 221.561 123.876 222.561 125.113 222.561Z" fill="#3F3D56"/>
<path d="M117.275 220.885C118.512 220.885 119.514 219.885 119.514 218.651C119.514 217.418 118.512 216.418 117.275 216.418C116.039 216.418 115.037 217.418 115.037 218.651C115.037 219.885 116.039 220.885 117.275 220.885Z" fill="#3F3D56"/>
<path d="M117.275 218.094C118.512 218.094 119.514 217.094 119.514 215.86C119.514 214.627 118.512 213.627 117.275 213.627C116.039 213.627 115.037 214.627 115.037 215.86C115.037 217.094 116.039 218.094 117.275 218.094Z" fill="#3F3D56"/>
<path d="M117.275 215.303C118.512 215.303 119.514 214.303 119.514 213.069C119.514 211.836 118.512 210.836 117.275 210.836C116.039 210.836 115.037 211.836 115.037 213.069C115.037 214.303 116.039 215.303 117.275 215.303Z" fill="#3F3D56"/>
<path d="M117.275 212.512C118.512 212.512 119.514 211.512 119.514 210.279C119.514 209.045 118.512 208.045 117.275 208.045C116.039 208.045 115.037 209.045 115.037 210.279C115.037 211.512 116.039 212.512 117.275 212.512Z" fill="#3F3D56"/>
<path d="M126.572 203.075C126.014 203.156 125.455 203.214 124.897 203.25C125.416 202.798 125.898 202.305 126.338 201.776C126.028 200.837 125.572 199.953 124.987 199.156C124.432 199.467 123.818 199.66 123.185 199.722C122.631 199.803 122.072 199.861 121.514 199.902C122.248 199.304 122.933 198.405 123.653 197.655C122.039 196.195 119.97 195.332 117.794 195.213C115.618 195.093 113.467 195.723 111.701 196.997C109.935 198.271 108.662 200.112 108.094 202.212C107.527 204.311 107.7 206.541 108.584 208.528C109.468 210.516 111.01 212.139 112.952 213.128C114.893 214.116 117.115 214.408 119.247 213.956C121.379 213.504 123.29 212.335 124.66 210.644C126.031 208.953 126.777 206.844 126.775 204.67C126.775 204.123 126.727 203.577 126.631 203.039L126.572 203.075Z" fill="#C83BDC"/>
<path d="M134.036 214.171C133.465 214.521 132.821 214.735 132.153 214.795C131.599 214.876 131.041 214.939 130.482 214.975C131.076 214.444 131.63 213.87 132.14 213.258C130.79 212.907 129.357 213.071 128.122 213.718C126.887 214.364 125.938 215.447 125.461 216.755C124.984 218.063 125.012 219.501 125.541 220.789C126.07 222.076 127.062 223.121 128.322 223.718C129.581 224.315 131.019 224.422 132.354 224.018C133.689 223.613 134.824 222.727 135.539 221.532C136.253 220.336 136.495 218.918 136.217 217.555C135.939 216.191 135.161 214.979 134.036 214.157V214.171Z" fill="#C83BDC"/>
<path d="M113.92 224.795C115.156 224.795 116.158 223.795 116.158 222.561C116.158 221.328 115.156 220.328 113.92 220.328C112.683 220.328 111.681 221.328 111.681 222.561C111.681 223.795 112.683 224.795 113.92 224.795Z" fill="#3F3D56"/>
<path d="M111.681 223.676C112.917 223.676 113.919 222.676 113.919 221.442C113.919 220.209 112.917 219.208 111.681 219.208C110.444 219.208 109.442 220.209 109.442 221.442C109.442 222.676 110.444 223.676 111.681 223.676Z" fill="#3F3D56"/>
<path d="M109.442 222.561C110.678 222.561 111.681 221.561 111.681 220.328C111.681 219.094 110.678 218.094 109.442 218.094C108.206 218.094 107.203 219.094 107.203 220.328C107.203 221.561 108.206 222.561 109.442 222.561Z" fill="#3F3D56"/>
<path d="M100.519 214.171C101.09 214.521 101.734 214.735 102.402 214.795C102.956 214.876 103.514 214.939 104.073 214.975C103.478 214.445 102.924 213.871 102.415 213.258C103.765 212.907 105.197 213.071 106.433 213.718C107.668 214.364 108.617 215.447 109.094 216.755C109.571 218.063 109.543 219.501 109.014 220.789C108.485 222.076 107.493 223.121 106.233 223.718C104.974 224.315 103.536 224.422 102.201 224.018C100.866 223.613 99.7308 222.727 99.0164 221.532C98.302 220.336 98.06 218.918 98.3379 217.555C98.6158 216.191 99.3935 214.979 100.519 214.157V214.171Z" fill="#C83BDC"/>
<path d="M115.667 235.94H121.122C124.109 235.94 126.973 237.124 129.085 239.231C131.196 241.338 132.383 244.195 132.383 247.175V261.947C132.383 262.453 132.182 262.937 131.823 263.295C131.465 263.652 130.98 263.853 130.473 263.853H106.303C105.796 263.853 105.31 263.652 104.952 263.295C104.594 262.937 104.393 262.453 104.393 261.947V247.175C104.393 245.699 104.685 244.237 105.251 242.873C105.818 241.509 106.649 240.269 107.696 239.226C108.743 238.182 109.986 237.355 111.354 236.791C112.721 236.227 114.187 235.938 115.667 235.94Z" fill="#3F3D56"/>
<g opacity="0.1">
<path opacity="0.1" d="M126.725 203.686C126.499 203.927 126.258 204.155 126.005 204.369C126.261 204.369 126.514 204.328 126.77 204.302C126.761 204.095 126.748 203.888 126.725 203.686Z" fill="black"/>
<path opacity="0.1" d="M122.644 201.016C123.207 200.98 123.761 200.922 124.32 200.841C124.821 200.778 125.311 200.645 125.775 200.446C125.547 199.996 125.285 199.565 124.991 199.156C124.711 199.326 124.407 199.455 124.09 199.538C123.648 200.068 123.165 200.563 122.644 201.016Z" fill="black"/>
<path opacity="0.1" d="M108.884 205.812C108.88 204.108 109.337 202.435 110.207 200.968C111.077 199.502 112.327 198.297 113.825 197.48C115.324 196.663 117.016 196.264 118.722 196.326C120.429 196.387 122.087 196.907 123.523 197.83L123.667 197.677C122.73 196.846 121.638 196.207 120.452 195.799C119.267 195.39 118.013 195.22 116.761 195.297C115.51 195.375 114.286 195.698 113.16 196.25C112.035 196.801 111.029 197.569 110.203 198.51C109.376 199.451 108.744 200.545 108.343 201.731C107.943 202.916 107.781 204.169 107.868 205.417C107.954 206.665 108.288 207.884 108.849 209.003C109.41 210.122 110.187 211.119 111.136 211.937C109.679 210.227 108.88 208.056 108.884 205.812Z" fill="black"/>
</g>
<g opacity="0.1">
<path opacity="0.1" d="M130.482 216.09C131.04 216.054 131.599 215.995 132.153 215.914C132.821 215.852 133.465 215.637 134.036 215.285C134.668 215.75 135.196 216.342 135.584 217.024C135.972 217.705 136.212 218.46 136.288 219.24C136.31 219.045 136.32 218.848 136.32 218.651C136.324 217.778 136.122 216.917 135.731 216.136C135.34 215.355 134.77 214.678 134.067 214.157C133.497 214.508 132.852 214.721 132.185 214.782L131.734 214.84C131.35 215.288 130.931 215.706 130.482 216.09Z" fill="black"/>
<path opacity="0.1" d="M130.707 214.184C130.894 214.186 131.081 214.2 131.266 214.225C131.559 213.914 131.847 213.582 132.14 213.258C131.311 213.038 130.444 213.01 129.603 213.178C128.763 213.345 127.972 213.704 127.293 214.225C126.613 214.747 126.063 215.417 125.685 216.185C125.307 216.952 125.111 217.796 125.113 218.651C125.113 218.84 125.113 219.024 125.14 219.209C125.278 217.831 125.925 216.555 126.953 215.626C127.982 214.698 129.32 214.184 130.707 214.184Z" fill="black"/>
</g>
<g opacity="0.1">
<path opacity="0.1" d="M104.073 216.09C103.514 216.054 102.956 215.995 102.402 215.914C101.734 215.852 101.09 215.637 100.519 215.285C99.8867 215.75 99.3593 216.342 98.9713 217.024C98.5833 217.705 98.3433 218.46 98.267 219.24C98.2451 219.045 98.2346 218.848 98.2354 218.651C98.2312 217.778 98.4328 216.917 98.8241 216.136C99.2153 215.355 99.7852 214.678 100.488 214.157C101.058 214.508 101.703 214.721 102.37 214.782L102.821 214.84C103.203 215.291 103.622 215.709 104.073 216.09Z" fill="black"/>
<path opacity="0.1" d="M103.848 214.184C103.659 214.186 103.471 214.2 103.285 214.225C102.996 213.914 102.708 213.582 102.415 213.258C103.243 213.038 104.111 213.01 104.952 213.178C105.792 213.345 106.583 213.704 107.262 214.225C107.942 214.747 108.492 215.417 108.87 216.185C109.248 216.952 109.443 217.796 109.442 218.651C109.442 218.84 109.442 219.024 109.415 219.209C109.277 217.831 108.63 216.555 107.601 215.626C106.573 214.698 105.235 214.184 103.848 214.184Z" fill="black"/>
</g>
<path d="M88.668 269.255H44.6606C44.1648 269.255 43.6893 269.058 43.3388 268.708C42.9882 268.359 42.7913 267.884 42.7913 267.39V246.609C42.7912 246.294 42.8709 245.985 43.0231 245.709C43.1752 245.433 43.3948 245.2 43.6615 245.032C43.9281 244.864 44.233 244.766 44.5479 244.747C44.8628 244.728 45.1774 244.789 45.4623 244.924C58.106 250.91 71.7272 252.964 87.8032 245.018C88.0882 244.878 88.4042 244.812 88.7216 244.827C89.0389 244.843 89.3472 244.938 89.6175 245.105C89.8877 245.271 90.1111 245.504 90.2665 245.78C90.4219 246.057 90.5042 246.368 90.5058 246.685V267.358C90.51 267.603 90.4658 267.846 90.3757 268.074C90.2856 268.302 90.1513 268.51 89.9807 268.686C89.81 268.862 89.6063 269.003 89.381 269.101C89.1558 269.198 88.9135 269.251 88.668 269.255Z" fill="#C83BDC"/>
<path opacity="0.1" d="M88.668 269.255H44.6606C44.1648 269.255 43.6893 269.058 43.3388 268.708C42.9882 268.359 42.7913 267.884 42.7913 267.39V246.609C42.7912 246.294 42.8709 245.985 43.0231 245.709C43.1752 245.433 43.3948 245.2 43.6615 245.032C43.9281 244.864 44.233 244.766 44.5479 244.747C44.8628 244.728 45.1774 244.789 45.4623 244.924C58.106 250.91 71.7272 252.964 87.8032 245.018C88.0882 244.878 88.4042 244.812 88.7216 244.827C89.0389 244.843 89.3472 244.938 89.6175 245.105C89.8877 245.271 90.1111 245.504 90.2665 245.78C90.4219 246.057 90.5042 246.368 90.5058 246.685V267.358C90.51 267.603 90.4658 267.846 90.3757 268.074C90.2856 268.302 90.1513 268.51 89.9807 268.686C89.81 268.862 89.6063 269.003 89.381 269.101C89.1558 269.198 88.9135 269.251 88.668 269.255Z" fill="black"/>
<path d="M66.3579 253.458C67.7958 253.458 68.9614 251.935 68.9614 250.056C68.9614 248.177 67.7958 246.654 66.3579 246.654C64.92 246.654 63.7544 248.177 63.7544 250.056C63.7544 251.935 64.92 253.458 66.3579 253.458Z" fill="#3F3D56"/>
<path d="M66.3579 249.301C67.7958 249.301 68.9614 247.778 68.9614 245.899C68.9614 244.02 67.7958 242.497 66.3579 242.497C64.92 242.497 63.7544 244.02 63.7544 245.899C63.7544 247.778 64.92 249.301 66.3579 249.301Z" fill="#3F3D56"/>
<path d="M66.3579 245.139C67.7958 245.139 68.9614 243.616 68.9614 241.737C68.9614 239.859 67.7958 238.335 66.3579 238.335C64.92 238.335 63.7544 239.859 63.7544 241.737C63.7544 243.616 64.92 245.139 66.3579 245.139Z" fill="#3F3D56"/>
<path d="M66.3579 240.982C67.7958 240.982 68.9614 239.459 68.9614 237.58C68.9614 235.701 67.7958 234.178 66.3579 234.178C64.92 234.178 63.7544 235.701 63.7544 237.58C63.7544 239.459 64.92 240.982 66.3579 240.982Z" fill="#3F3D56"/>
<path d="M66.3579 236.821C67.7958 236.821 68.9614 235.298 68.9614 233.419C68.9614 231.54 67.7958 230.017 66.3579 230.017C64.92 230.017 63.7544 231.54 63.7544 233.419C63.7544 235.298 64.92 236.821 66.3579 236.821Z" fill="#3F3D56"/>
<path d="M66.3579 232.659C67.7958 232.659 68.9614 231.136 68.9614 229.257C68.9614 227.378 67.7958 225.855 66.3579 225.855C64.92 225.855 63.7544 227.378 63.7544 229.257C63.7544 231.136 64.92 232.659 66.3579 232.659Z" fill="#3F3D56"/>
<path d="M66.3579 228.502C67.7958 228.502 68.9614 226.979 68.9614 225.1C68.9614 223.221 67.7958 221.698 66.3579 221.698C64.92 221.698 63.7544 223.221 63.7544 225.1C63.7544 226.979 64.92 228.502 66.3579 228.502Z" fill="#3F3D56"/>
<path d="M76.1235 196.635C76.477 196.181 76.8005 195.705 77.092 195.21L70.2454 194.086L77.6505 194.14C78.3649 192.596 78.7547 190.922 78.7958 189.222C78.8368 187.521 78.5283 185.83 77.8892 184.253L67.9571 189.395L77.119 182.653C76.2611 181.173 75.1069 179.885 73.7283 178.869C72.3497 177.854 70.7762 177.132 69.1058 176.75C67.4355 176.367 65.7041 176.332 64.0196 176.646C62.335 176.961 60.7334 177.618 59.3144 178.576C57.8955 179.535 56.6897 180.775 55.7721 182.22C54.8545 183.664 54.2448 185.281 53.981 186.97C53.7172 188.66 53.805 190.385 54.2388 192.04C54.6726 193.694 55.4432 195.241 56.5026 196.585C55.946 197.287 55.4686 198.048 55.0792 198.855L63.9618 203.511L54.5027 200.32C53.8397 202.281 53.6766 204.376 54.0281 206.416C54.3796 208.456 55.2347 210.377 56.5161 212.004C55.068 213.841 54.1672 216.048 53.9166 218.371C53.6661 220.695 54.0759 223.042 55.0993 225.144C56.1227 227.246 57.7183 229.019 59.7037 230.259C61.6891 231.499 63.9842 232.156 66.3266 232.156C68.6689 232.156 70.964 231.499 72.9494 230.259C74.9348 229.019 76.5304 227.246 77.5538 225.144C78.5772 223.042 78.9871 220.695 78.7365 218.371C78.486 216.048 77.5852 213.841 76.137 212.004C77.8671 209.81 78.8077 207.098 78.8077 204.306C78.8077 201.514 77.8671 198.802 76.137 196.608L76.1235 196.635Z" fill="#C83BDC"/>
<path opacity="0.1" d="M53.8225 204.333C53.8184 207.126 54.7596 209.839 56.4936 212.032C55.0455 213.868 54.1447 216.075 53.8941 218.398C53.6436 220.722 54.0534 223.069 55.0768 225.171C56.1002 227.273 57.6958 229.046 59.6812 230.286C61.6666 231.526 63.9617 232.184 66.3041 232.184C68.6464 232.184 70.9415 231.526 72.9269 230.286C74.9123 229.046 76.5079 227.273 77.5313 225.171C78.5547 223.069 78.9646 220.722 78.714 218.398C78.4635 216.075 77.5626 213.868 76.1145 212.032C77.7856 209.915 53.8225 202.935 53.8225 204.333Z" fill="black"/>
<path d="M88.6681 270.356H44.6606C44.1648 270.356 43.6893 270.159 43.3388 269.809C42.9882 269.46 42.7913 268.985 42.7913 268.491V246.609C42.7912 246.294 42.8709 245.985 43.0231 245.709C43.1752 245.433 43.3948 245.2 43.6615 245.032C43.9281 244.864 44.233 244.766 44.5479 244.747C44.8628 244.728 45.1774 244.789 45.4623 244.924C58.106 250.91 68.1327 257.889 87.8032 245.018C88.9698 244.254 90.5058 245.297 90.5058 246.685V268.482C90.5083 268.972 90.3167 269.444 89.9727 269.795C89.6287 270.146 89.1599 270.347 88.6681 270.356Z" fill="#C83BDC"/>
<path d="M415.224 264.168L350.299 272.738L347.051 273.165L315.309 256.249V252.29L414.504 241.495L415.224 264.168Z" fill="#9C9CA1"/>
<path d="M333.705 258.047L404.04 249.773L403.319 262.729L348.533 266.738L333.705 258.047Z" fill="#939498"/>
<path opacity="0.4" d="M350.299 268.482V272.733L347.051 273.183L315.304 256.249V252.29L345.605 268.468C345.605 268.468 349.578 268.841 350.299 268.482Z" fill="black"/>
<path d="M362.762 201.003L348.186 268.437C348.039 269.112 348.057 269.812 348.239 270.479C348.42 271.146 348.76 271.759 349.229 272.267C349.698 272.775 350.283 273.163 350.934 273.399C351.585 273.634 352.283 273.709 352.97 273.618L445.187 261.439C445.991 261.334 446.748 261.005 447.372 260.49C447.997 259.975 448.464 259.295 448.719 258.527L468.614 198.666C468.834 198.002 468.889 197.294 468.774 196.604C468.659 195.914 468.377 195.263 467.953 194.705C467.529 194.148 466.976 193.702 466.341 193.406C465.706 193.109 465.009 192.971 464.308 193.003L366.78 197.623C365.831 197.668 364.924 198.023 364.198 198.634C363.471 199.245 362.967 200.078 362.762 201.003Z" fill="#3F3D56"/>
<path d="M413.434 225.881C413.66 223.733 412.722 221.875 411.339 221.73C409.957 221.585 408.652 223.208 408.426 225.355C408.2 227.503 409.137 229.361 410.52 229.506C411.903 229.652 413.208 228.028 413.434 225.881Z" fill="white"/>
</g>
<defs>
<clipPath id="clip0">
<rect width="518" height="282" fill="white"/>
</clipPath>
</defs>
</svg>
