<svg width="479" height="264" viewBox="0 0 479 264" fill="none" xmlns="http://www.w3.org/2000/svg">
<path d="M244.981 260.125H65.6595C65.6595 260.125 62.0246 206.719 83.531 206.112C105.038 205.505 102.614 229.781 129.573 196.402C156.532 163.023 189.246 164.843 193.487 184.567C197.727 204.291 185.308 220.07 208.026 215.215C230.744 210.36 263.458 223.105 244.981 260.125Z" fill="#C83BDC"/>
<path d="M152.293 260.137L151.688 260.113C153.099 224.951 160.451 202.359 166.369 189.598C172.795 175.743 178.987 170.134 179.049 170.079L179.451 170.532C179.39 170.587 173.27 176.14 166.896 189.902C161.01 202.608 153.699 225.107 152.293 260.137Z" fill="#F2F2F2"/>
<path d="M217.194 260.21L216.613 260.04C223.616 235.961 240.107 220.758 240.273 220.607L240.68 221.056C240.515 221.206 224.148 236.301 217.194 260.21Z" fill="#F2F2F2"/>
<path d="M93.9035 260.167L93.3033 260.083C95.6793 242.917 91.3875 229.599 87.3687 221.449C83.0172 212.625 78.0522 207.805 78.0024 207.758L78.4216 207.32C78.472 207.368 83.5138 212.262 87.9118 221.18C91.9682 229.407 96.3006 242.848 93.9035 260.167Z" fill="#F2F2F2"/>
<path d="M190.509 264C295.725 264 381.019 262.015 381.019 259.567C381.019 257.119 295.725 255.134 190.509 255.134C85.2939 255.134 0 257.119 0 259.567C0 262.015 85.2939 264 190.509 264Z" fill="#3F3D56"/>
<path d="M107.055 144.046L104.526 166.21C104.526 166.21 95.6765 187.74 94.4122 203.571L93.1479 221.302H101.366C101.366 221.302 112.112 195.972 112.744 189.007L127.915 142.78L107.055 144.046Z" fill="#A0616A"/>
<path d="M139.293 144.046L136.765 166.21C136.765 166.21 127.915 187.74 126.651 203.571L125.386 221.302H133.604C133.604 221.302 144.35 195.972 144.982 189.007L160.153 142.78L139.293 144.046Z" fill="#A0616A"/>
<path d="M146.247 92.7535L153.2 110.484C153.2 110.484 152.568 125.682 160.785 124.416C169.003 123.149 159.521 107.951 159.521 107.951L154.464 89.5873C154.464 89.5873 148.143 88.3208 146.247 92.7535Z" fill="#A0616A"/>
<path d="M134.552 36.0781C140.836 36.0781 145.931 30.9749 145.931 24.6797C145.931 18.3845 140.836 13.2813 134.552 13.2813C128.268 13.2813 123.174 18.3845 123.174 24.6797C123.174 30.9749 128.268 36.0781 134.552 36.0781Z" fill="#A0616A"/>
<path d="M126.019 28.1625C126.019 28.1625 122.226 40.8275 119.697 40.8275C117.169 40.8275 136.765 48.4264 136.765 48.4264C136.765 48.4264 131.708 43.3604 136.765 33.8618L126.019 28.1625Z" fill="#A0616A"/>
<path d="M114.008 97.1862L97.573 145.313C97.573 145.313 103.262 148.479 112.744 148.479C122.226 148.479 164.578 147.213 165.21 143.413C165.842 139.614 151.936 97.1862 151.936 97.1862L149.407 81.3551L118.433 89.5873L114.008 97.1862Z" fill="#2F2E41"/>
<path d="M103.262 220.669H91.8838L89.9874 228.901C89.9874 228.901 86.1947 231.434 87.4589 237.133C88.7232 242.833 88.0911 254.864 88.0911 254.864L100.734 263.096C100.734 263.096 104.526 258.664 101.998 251.065L103.262 220.669Z" fill="#2F2E41"/>
<path d="M135.501 220.669H124.122L122.226 228.901C122.226 228.901 118.433 231.434 119.697 237.133C120.962 242.833 120.33 254.864 120.33 254.864L132.972 263.096C132.972 263.096 136.765 258.664 134.236 251.065L135.501 220.669Z" fill="#2F2E41"/>
<path d="M123.49 39.5609C123.49 39.5609 132.255 41.8922 134.826 44.5261L139.293 47.1599L144.982 59.1915C144.982 59.1915 149.407 61.0913 149.407 69.3235C149.407 77.5556 155.728 91.487 155.728 91.487C155.728 91.487 160.153 95.2865 156.993 97.1862C153.832 99.086 150.039 99.086 150.039 99.086C150.039 99.086 153.2 87.0543 146.879 86.421C140.557 85.7878 137.397 85.1546 136.765 86.421C136.132 87.6875 119.065 106.052 112.112 104.152C105.158 102.252 108.951 83.2548 108.951 83.2548L114.64 38.9277C114.64 38.9277 119.065 38.2944 121.594 38.9277C124.122 39.5609 123.49 39.5609 123.49 39.5609Z" fill="#D0CDE1"/>
<path d="M101.998 92.7535L108.951 110.484C108.951 110.484 108.319 125.682 116.537 124.416C124.754 123.149 115.273 107.951 115.273 107.951L110.216 89.5873C110.216 89.5873 103.894 88.3208 101.998 92.7535Z" fill="#A0616A"/>
<path d="M115.905 39.5609L114.64 38.9277C114.64 38.9277 110.848 35.1282 106.423 40.1942C101.998 45.2601 97.573 71.8564 97.573 71.8564V80.0886C97.573 80.0886 92.516 87.0543 96.9409 90.8538C101.366 94.6533 101.998 95.2865 101.998 95.2865C101.998 95.2865 106.423 88.954 111.48 92.1203L112.112 89.5873C112.624 89.0193 113.05 88.3792 113.376 87.6875C114.008 86.4211 115.272 88.3208 114.64 86.4211C114.008 84.5213 114.64 83.8881 114.64 83.2548C114.64 82.6216 115.272 79.4554 115.272 79.4554L114.64 59.8248L115.905 39.5609Z" fill="#D0CDE1"/>
<path d="M148.729 21.9792C148.729 21.9792 157.973 1.79041 133.815 1.8121C133.815 1.8121 118.994 -5.98762 107.708 12.1007L96.0613 31.1191L99.037 30.5266L99.4147 33.4942L103.212 35.8277L106.068 32.8711L105.595 37.3972L138.311 51.3157C138.311 51.3157 125.977 37.6328 130.735 21.5005L132.666 25.4497L148.729 21.9792Z" fill="#2F2E41"/>
<path d="M128.811 31.1089C129.693 31.1089 130.409 29.6763 130.409 27.9091C130.409 26.1418 129.693 24.7092 128.811 24.7092C127.929 24.7092 127.214 26.1418 127.214 27.9091C127.214 29.6763 127.929 31.1089 128.811 31.1089Z" fill="#A0616A"/>
<path d="M426.215 137.452H427.014V144.841H426.215V137.452Z" fill="#F2F2F2"/>
<path d="M440.223 79.4512L441 79.6375L421.64 160.366L420.863 160.179L440.223 79.4512Z" fill="#2F2E41"/>
<path d="M353.35 134.457C353.35 134.457 336.976 141.246 342.168 145.24C347.36 149.234 358.143 140.448 357.743 139.25C357.344 138.052 359.341 135.256 359.341 135.256L353.35 134.457Z" fill="#9F616A"/>
<path d="M367.727 80.9421L362.536 85.7345L361.337 99.7123L357.344 114.489C357.344 114.489 350.555 128.467 351.753 131.262C352.951 134.058 350.555 134.857 350.555 134.857L359.74 138.451C359.74 138.451 369.724 127.269 369.724 124.872C369.724 122.476 367.727 80.9421 367.727 80.9421Z" fill="#575A88"/>
<path opacity="0.1" d="M367.727 80.9421L362.536 85.7345L361.337 99.7123L357.344 114.489C357.344 114.489 350.555 128.467 351.753 131.262C352.951 134.058 350.555 134.857 350.555 134.857L359.74 138.451C359.74 138.451 369.724 127.269 369.724 124.872C369.724 122.476 367.727 80.9421 367.727 80.9421Z" fill="black"/>
<path d="M318.605 233.458C318.605 233.458 320.602 242.643 321.001 243.442C321.401 244.241 313.413 247.036 313.413 247.036L303.829 240.247C303.829 240.247 307.822 231.461 307.822 229.864L318.605 233.458Z" fill="#575A88"/>
<path d="M370.922 144L368.127 147.195C368.127 147.195 310.219 154.384 309.02 165.566C307.822 176.748 299.436 229.464 304.228 231.062C309.02 232.659 321.401 238.65 321.401 235.455C321.401 232.26 329.388 188.33 327.791 180.342C327.791 180.342 396.881 171.556 398.478 161.572C400.076 151.588 396.881 147.195 396.881 147.195L370.922 144Z" fill="#2F2E41"/>
<path opacity="0.1" d="M370.922 144L368.127 147.195C368.127 147.195 310.219 154.384 309.02 165.566C307.822 176.748 299.436 229.464 304.228 231.062C309.02 232.659 321.401 238.65 321.401 235.455C321.401 232.26 329.388 188.33 327.791 180.342C327.791 180.342 396.881 171.556 398.478 161.572C400.076 151.588 396.881 147.195 396.881 147.195L370.922 144Z" fill="black"/>
<path d="M319.404 242.643C319.404 242.643 321.001 239.049 321.8 240.247C322.599 241.445 325.394 255.423 322.599 255.423C319.803 255.423 294.244 261.813 290.649 261.014C287.055 260.216 280.266 261.414 281.065 257.42C281.863 253.426 285.857 253.027 285.857 253.027C285.857 253.027 300.634 244.241 301.432 239.848C302.231 235.455 306.624 237.851 306.624 237.851V240.647C306.624 240.647 315.011 247.036 319.404 242.643Z" fill="#2F2E41"/>
<path d="M395.284 50.5903C395.284 50.5903 392.488 64.1688 398.479 65.3669C404.469 66.565 390.891 74.5523 390.891 74.5523L382.105 79.3447L375.715 72.9548C375.715 72.9548 381.505 61.1735 377.112 52.3875C372.719 43.6014 395.284 50.5903 395.284 50.5903Z" fill="#9F616A"/>
<path d="M375.715 72.9548L382.105 79.3447L390.891 74.5523C390.891 74.5523 404.469 66.565 398.479 65.3669C394.625 64.5961 394.409 58.7015 394.74 54.596C394.849 53.2519 395.03 51.9147 395.284 50.5903C395.284 50.5903 372.719 43.6014 377.112 52.3875C377.78 53.7442 378.243 55.1923 378.486 56.6847C379.832 64.5801 375.715 72.9548 375.715 72.9548Z" fill="#9F616A"/>
<path d="M353.35 236.296V245.481H338.174L336.976 241.887L338.574 232.302L353.35 236.296Z" fill="#575A88"/>
<path d="M416.051 143.243C416.051 143.243 416.051 166.806 406.466 167.605C396.881 168.403 362.535 172.796 362.535 172.796C362.535 172.796 360.539 211.934 356.944 224.714C353.35 237.494 356.545 238.292 353.35 239.091C350.155 239.89 336.577 237.094 336.976 234.299C337.375 231.503 338.973 160.815 338.973 160.815C338.973 160.815 335.379 145.639 383.303 138.451L416.051 143.243Z" fill="#2F2E41"/>
<path d="M352.152 242.685C352.152 242.685 354.548 237.494 354.947 239.091C355.347 240.689 360.139 254.666 355.347 255.865C350.554 257.063 335.378 263.452 325.394 263.053C315.41 262.654 314.212 262.254 314.212 262.254C314.212 262.254 311.416 258.261 315.011 255.865C318.605 253.468 333.382 239.49 334.18 237.893C334.979 236.296 340.97 235.097 340.97 237.893C340.97 240.689 349.356 246.28 352.152 242.685Z" fill="#2F2E41"/>
<path opacity="0.1" d="M377.112 52.3875C377.78 53.7442 378.243 55.1923 378.486 56.6847C380.475 57.8868 381.805 57.5792 384.301 57.5792C388.003 57.5792 389.497 52.8468 391.889 50.3907C392.077 48.1103 395.283 50.5903 395.283 50.5903C395.283 50.5903 372.719 43.6014 377.112 52.3875Z" fill="black"/>
<path d="M385.299 57.3795C378.021 57.3795 372.12 51.4791 372.12 44.2004C372.12 36.9218 378.021 31.0214 385.299 31.0214C392.578 31.0214 398.478 36.9218 398.478 44.2004C398.478 51.4791 392.578 57.3795 385.299 57.3795Z" fill="#9F616A"/>
<path d="M362.535 85.7345C362.535 85.7345 364.532 100.112 365.73 105.303C366.928 110.495 368.526 134.457 369.325 137.652C370.123 140.847 374.916 141.646 384.501 140.448C385.102 140.372 385.707 140.327 386.314 140.312C392.216 140.124 398.97 142.333 405.22 144.066C408.814 145.064 412.245 145.903 415.252 146.039C419.805 146.247 421.138 141.199 420.983 135.735C420.835 130.651 419.393 125.2 418.047 123.275C415.623 119.808 418.007 88.6859 417.113 78.4221V78.4182C416.977 76.8526 416.765 75.7744 416.45 75.351C414.054 72.1561 398.478 64.1688 396.733 64.4923C394.992 64.8157 380.108 74.1529 380.108 74.1529C376.513 74.1529 376.629 70.2551 376.629 70.2551C376.629 70.2551 374.117 74.9517 369.325 76.1498C364.532 77.3479 362.535 85.7345 362.535 85.7345Z" fill="#575A88"/>
<path d="M389.232 137.509C389.232 137.509 363.507 138.329 368.013 141.385C372.52 144.441 392.488 147.237 392.887 143.243C393.287 139.25 389.232 137.509 389.232 137.509Z" fill="#9F616A"/>
<path opacity="0.1" d="M386.314 140.312C386.23 141.845 390.355 145.3 391.689 147.636C392.428 148.93 398.147 147.225 405.22 144.066C410.647 141.63 415.912 138.847 420.983 135.735C420.835 130.651 419.393 125.2 418.047 123.275C415.623 119.808 418.007 88.6858 417.113 78.4221V78.4181C416.899 78.3098 416.678 78.219 416.45 78.1466H411.657C395.283 85.7345 414.054 118.483 414.054 118.483C414.054 118.483 389.293 138.85 386.897 139.649C386.74 139.679 386.597 139.76 386.491 139.88C386.386 140 386.323 140.152 386.314 140.312Z" fill="black"/>
<path d="M411.658 75.7504H416.45C416.45 75.7504 420.843 76.9485 424.437 84.9358C428.032 92.9231 441.211 117.684 429.629 127.269C418.047 136.853 393.287 148.036 391.689 145.24C390.092 142.445 384.501 138.051 386.897 137.253C389.293 136.454 414.054 116.086 414.054 116.086C414.054 116.086 395.284 83.3383 411.658 75.7504Z" fill="#575A88"/>
<path d="M387.327 38.0679C387.327 38.0679 386.748 30.0616 379.613 33.3261C372.478 36.5906 372.944 27.5925 375.1 26.0025C377.256 24.4124 377.188 24.0189 385.074 25.0828C392.96 26.1466 408.27 27.9491 403.319 43.8052C398.369 59.6614 393.886 55.5824 393.886 55.5824C393.886 55.5824 397.821 41.3139 393.833 44.0323L389.846 46.7507L387.742 46.305L387.327 38.0679Z" fill="#2F2E41"/>
<path d="M323.25 251.276L353.436 171.379L420.732 166.629L438.226 240.581L439.003 240.397L421.353 165.784L421.015 165.809L352.865 170.619L352.775 170.861L322.5 251L323.25 251.276Z" fill="#2F2E41"/>
<path d="M398.436 160.579V257.248L412.109 258.823H462.243L463.256 160.579H398.436Z" fill="#E6E6E6"/>
<path opacity="0.1" d="M398.436 160.579V257.248L411.922 258.812V160.579H398.436Z" fill="black"/>
<path d="M277.404 158.553V255.222L263.731 256.797H213.596L212.583 158.553H277.404Z" fill="#E6E6E6"/>
<path opacity="0.1" d="M277.404 158.553V255.222L263.918 256.765V158.553H277.404Z" fill="black"/>
<path d="M478.449 157.034V161.592H206V155.008L231.32 141.842H456.167L478.449 157.034Z" fill="#E6E6E6"/>
<path opacity="0.1" d="M478.449 157.034V161.592H206V155.008L478.449 157.034Z" fill="black"/>
<path d="M351.188 64H248.87C248.361 63.9999 247.858 64.1 247.389 64.2944C246.919 64.4889 246.493 64.7739 246.133 65.1332C245.774 65.4926 245.489 65.9192 245.294 66.3887C245.1 66.8582 245 67.3614 245 67.8696V136.794C245 137.302 245.1 137.805 245.294 138.275C245.489 138.744 245.774 139.171 246.133 139.53C246.493 139.89 246.919 140.175 247.389 140.369C247.858 140.564 248.361 140.664 248.87 140.664H287.711L286.255 149.954C286.255 149.954 277.939 154.372 283.787 154.502C289.634 154.632 317.181 154.502 317.181 154.502C317.181 154.502 322.508 154.502 314.062 149.824L312.693 140.664H351.188C351.696 140.664 352.2 140.564 352.669 140.369C353.139 140.175 353.565 139.89 353.924 139.53C354.284 139.171 354.569 138.744 354.763 138.275C354.958 137.805 355.058 137.302 355.058 136.794V67.8696C355.058 67.3614 354.958 66.8582 354.763 66.3887C354.569 65.9192 354.284 65.4926 353.924 65.1332C353.565 64.7739 353.139 64.4889 352.669 64.2944C352.2 64.1 351.696 63.9999 351.188 64Z" fill="#3F3D56"/>
<path d="M299.566 107C302.603 107 305.066 104.538 305.066 101.5C305.066 98.4624 302.603 96 299.566 96C296.528 96 294.066 98.4624 294.066 101.5C294.066 104.538 296.528 107 299.566 107Z" fill="#F2F2F2"/>
<path d="M341.972 147.678V148.977H272.066V147.938L272.162 147.678L273.885 143H340.543L341.972 147.678Z" fill="#3F3D56"/>
<path d="M247.087 148.474C247.215 149.019 247.696 149.593 248.782 150.136C252.68 152.085 260.606 149.616 260.606 149.616C260.606 149.616 266.713 148.577 266.713 145.848C266.542 145.731 266.363 145.624 266.178 145.53C264.539 144.663 259.105 142.523 249.47 145.62C248.76 145.843 248.126 146.259 247.639 146.821C247.422 147.033 247.26 147.294 247.164 147.581C247.068 147.868 247.042 148.175 247.087 148.474Z" fill="#3F3D56"/>
<path opacity="0.1" d="M247.087 148.474C251.859 150.302 256.112 150.439 260.476 147.407C262.127 146.187 264.125 145.529 266.178 145.53C264.539 144.663 259.105 142.523 249.47 145.62C248.76 145.843 248.126 146.259 247.638 146.821C247.422 147.033 247.26 147.294 247.164 147.581C247.068 147.868 247.042 148.175 247.087 148.474Z" fill="black"/>
<path d="M253.07 147.407C252.137 147.407 251.381 147.175 251.381 146.888C251.381 146.601 252.137 146.368 253.07 146.368C254.003 146.368 254.76 146.601 254.76 146.888C254.76 147.175 254.003 147.407 253.07 147.407Z" fill="#F2F2F2"/>
<path opacity="0.1" d="M341.972 147.678V148.977H272.066V147.938L272.162 147.678H341.972Z" fill="black"/>
</svg>
