<svg width="1054" height="1251" viewBox="0 0 1054 1251" fill="none" xmlns="http://www.w3.org/2000/svg">
<path opacity="0.2" fill-rule="evenodd" clip-rule="evenodd" d="M408.49 143.624C399.195 115.127 396.174 90.4783 401.626 70.1302L400.66 69.8713C395.135 90.4932 398.22 115.362 407.539 143.934C416.861 172.513 432.439 204.856 451.97 240.453C471.468 275.991 494.918 314.795 520.036 356.358L520.166 356.574C545.335 398.222 572.176 442.642 598.405 489.344C703.333 676.172 798.385 899.373 737.343 1127.18L738.309 1127.44C799.462 899.219 704.217 675.704 599.277 488.854C573.039 442.137 546.19 397.703 521.022 356.057L520.899 355.853C495.775 314.28 472.335 275.492 452.847 239.972C433.325 204.393 417.782 172.114 408.49 143.624Z" fill="white"/>
<path opacity="0.2" fill-rule="evenodd" clip-rule="evenodd" d="M507.099 644.393C360.294 452.255 215.427 253.882 283.378 0.284698L282.412 0.0258789C214.316 254.164 359.548 452.927 506.304 645C510.241 650.152 514.178 655.299 518.113 660.443C587.545 751.204 656.056 840.762 701.304 934.33C749.107 1033.18 770.924 1136.47 740.415 1250.33L741.381 1250.59C771.969 1136.43 750.079 1032.89 702.204 933.895C656.911 840.231 588.341 750.598 518.928 659.862C514.986 654.709 511.042 649.553 507.099 644.393Z" fill="white"/>
<path opacity="0.2" fill-rule="evenodd" clip-rule="evenodd" d="M779.122 596.47C753.2 436.702 729.019 270.526 797.047 16.6424L796.081 16.3835C727.999 270.471 752.205 436.813 778.135 596.631C778.83 600.917 779.527 605.198 780.223 609.477C805.479 764.692 830.061 915.769 770.605 1137.67L771.57 1137.92C831.083 915.82 806.472 764.565 781.213 609.334C780.516 605.049 779.818 600.762 779.122 596.47Z" fill="white"/>
</svg>
