<svg width="1440" height="874" viewBox="0 0 1440 874" fill="none" xmlns="http://www.w3.org/2000/svg">
<path d="M-97 40.7784C-97 30.8196 -88.0871 23.1586 -78.2217 24.5192C-8.01921 34.2012 258.778 63.0751 718.086 21.6778C1182.74 -20.2013 1391.27 9.8359 1440.95 19.1665C1448.15 20.5199 1453 26.817 1453 34.1491V854C1453 862.837 1445.84 870 1437 870H-81C-89.8366 870 -97 862.837 -97 854V40.7784Z" fill="#3949DB" fill-opacity="0.19"/>
<path d="M-55 44.7784C-55 34.8196 -46.0871 27.1586 -36.2217 28.5192C33.9808 38.2012 300.778 67.0751 760.086 25.6778C1224.74 -16.2013 1433.27 13.8359 1482.95 23.1665C1490.15 24.5199 1495 30.817 1495 38.1491V858C1495 866.837 1487.84 874 1479 874H-39C-47.8366 874 -55 866.837 -55 858V44.7784Z" fill="#F6F7FB"/>
</svg>
