<svg width="1724" height="1251" viewBox="0 0 1724 1251" fill="none" xmlns="http://www.w3.org/2000/svg">
<path opacity="0.2" fill-rule="evenodd" clip-rule="evenodd" d="M221.033 420.399C196.159 404.206 173.358 395 152.5 395V394C173.642 394 196.638 403.325 221.578 419.561C246.525 435.802 273.467 458.991 302.51 486.795C331.504 514.553 362.608 546.926 395.925 581.602L396.098 581.782C429.482 616.529 465.09 653.586 503.037 690.642C654.84 838.884 843.964 987 1077.5 987V988C843.536 988 654.16 839.616 502.338 691.358C464.378 654.289 428.76 617.221 395.377 582.475L395.215 582.307C361.89 547.622 330.798 515.261 301.818 487.517C272.79 459.728 245.901 436.589 221.033 420.399Z" fill="white"/>
<path opacity="0.2" fill-rule="evenodd" clip-rule="evenodd" d="M674.729 643.055C528.579 453.398 375.97 264 116 264V263C376.53 263 529.421 452.852 675.521 642.445C679.44 647.53 683.354 652.615 687.265 657.697C756.281 747.367 824.382 835.848 902.28 903.106C984.577 974.162 1077.78 1021.5 1194.5 1021.5V1022.5C1077.47 1022.5 984.048 975.026 901.626 903.863C823.648 836.536 755.49 747.98 686.494 658.335C682.575 653.244 678.655 648.149 674.729 643.055Z" fill="white"/>
<path opacity="0.2" fill-rule="evenodd" clip-rule="evenodd" d="M559.179 890.956C413.009 825.216 260.265 759.5 0 759.5V758.5C260.476 758.5 413.374 824.284 559.589 890.044C563.511 891.808 567.427 893.571 571.341 895.334C713.327 959.269 851.527 1021.5 1079 1021.5V1022.5C851.311 1022.5 712.947 960.195 570.946 896.253C567.027 894.488 563.106 892.722 559.179 890.956Z" fill="white"/>
<path opacity="0.2" fill-rule="evenodd" clip-rule="evenodd" d="M1078.49 143.624C1069.2 115.127 1066.17 90.4783 1071.63 70.1302L1070.66 69.8713C1065.14 90.4932 1068.22 115.362 1077.54 143.934C1086.86 172.513 1102.44 204.856 1121.97 240.453C1141.47 275.991 1164.92 314.795 1190.04 356.358L1190.17 356.574C1215.34 398.222 1242.18 442.642 1268.41 489.344C1373.33 676.172 1468.39 899.373 1407.34 1127.18L1408.31 1127.44C1469.46 899.219 1374.22 675.704 1269.28 488.854C1243.04 442.137 1216.19 397.703 1191.02 356.057L1190.9 355.853C1165.78 314.28 1142.34 275.492 1122.85 239.972C1103.33 204.393 1087.78 172.114 1078.49 143.624Z" fill="white"/>
<path opacity="0.2" fill-rule="evenodd" clip-rule="evenodd" d="M1177.1 644.393C1030.29 452.255 885.428 253.882 953.379 0.284698L952.413 0.0258789C884.317 254.164 1029.55 452.927 1176.31 645C1180.24 650.152 1184.18 655.299 1188.11 660.443C1257.55 751.204 1326.06 840.762 1371.31 934.33C1419.11 1033.18 1440.93 1136.47 1410.42 1250.33L1411.38 1250.59C1441.97 1136.43 1420.08 1032.89 1372.21 933.895C1326.91 840.231 1258.34 750.598 1188.93 659.862C1184.99 654.709 1181.04 649.553 1177.1 644.393Z" fill="white"/>
<path opacity="0.2" fill-rule="evenodd" clip-rule="evenodd" d="M1449.12 596.47C1423.2 436.702 1399.02 270.526 1467.05 16.6421L1466.08 16.3833C1398 270.471 1422.21 436.812 1448.14 596.63C1448.83 600.917 1449.53 605.198 1450.22 609.477C1475.48 764.692 1500.06 915.769 1440.61 1137.67L1441.57 1137.92C1501.08 915.82 1476.47 764.565 1451.21 609.333C1450.52 605.049 1449.82 600.762 1449.12 596.47Z" fill="white"/>
</svg>
