<svg width="79" height="57" viewBox="0 0 79 57" fill="none" xmlns="http://www.w3.org/2000/svg">
<path d="M77.4688 4.87658C77.4636 4.87658 77.4584 4.87658 77.4534 4.87658H72.2623V3.10027C72.2903 2.39721 71.8355 1.76536 71.1598 1.56897C67.5559 0.624533 63.8447 0.150978 60.1191 0.160165C53.9939 0.160165 45.6483 1.53834 39.4771 7.81669C33.3519 1.47709 24.945 0.160165 18.8351 0.160165C15.1094 0.150978 11.3983 0.624533 7.7944 1.56897C7.11871 1.76536 6.66392 2.39721 6.69186 3.10027V4.86127H1.53137C0.685703 4.86127 6.10352e-05 5.54691 6.10352e-05 6.39257V55.3024C6.10352e-05 56.1481 0.685703 56.8337 1.53137 56.8337C1.79437 56.833 2.05277 56.7644 2.2817 56.6347C2.43484 56.5581 17.7479 48.1819 39.1249 53.5721H39.3546H39.4924C39.6145 53.5868 39.7378 53.5868 39.8599 53.5721C61.2982 48.1359 76.6112 56.4968 76.7031 56.6347C77.1768 56.9082 77.7607 56.9082 78.2344 56.6347C78.7053 56.3629 78.9968 55.8615 79.0001 55.3177V6.40789C79.0001 5.56222 78.3146 4.87658 77.4688 4.87658ZM3.06267 52.8677V7.93919H6.72249V46.3443C6.71292 47.19 7.39071 47.8833 8.23637 47.8928C8.31906 47.8938 8.40175 47.8881 8.48349 47.8756C11.6514 47.3919 14.8497 47.136 18.0541 47.11C22.493 47.033 26.9133 47.7007 31.1315 49.0853C21.6058 47.9334 11.9437 49.2354 3.06267 52.8677ZM18.0541 44.0627C15.2689 44.069 12.4869 44.2479 9.72384 44.5986V4.31C12.7053 3.6458 15.7499 3.3068 18.8045 3.29934C24.5316 3.29934 32.4331 4.61626 37.9152 10.8027L37.9611 48.9475C34.776 46.8649 28.5589 44.0627 18.0541 44.0627ZM41.0237 10.8027C46.5058 4.67751 54.4073 3.29934 60.1344 3.29934C63.1888 3.30834 66.2334 3.64714 69.215 4.31V44.5986C66.4675 44.2447 63.7008 44.0606 60.9307 44.0473C50.4872 44.0473 44.2548 46.8496 41.0237 48.9322V10.8027ZM75.9221 52.8677C67.0222 49.2255 57.3378 47.9233 47.7921 49.0853C52.0301 47.6957 56.4715 47.0278 60.9307 47.11C64.1552 47.1279 67.3742 47.3787 70.5626 47.8603C71.3987 47.9872 72.1794 47.4122 72.3063 46.5761C72.3188 46.4944 72.3245 46.4117 72.3236 46.329V7.93919H75.9834L75.9221 52.8677Z" fill="url(#paint0_linear)"/>
<defs>
<linearGradient id="paint0_linear" x1="39.5001" y1="0.160034" x2="39.5001" y2="56.8398" gradientUnits="userSpaceOnUse">
<stop stop-color="#3949DB"/>
<stop offset="0.078125" stop-color="#D839DB"/>
<stop offset="1" stop-color="#3949DB"/>
</linearGradient>
</defs>
</svg>
