<svg width="1972" height="1458" viewBox="0 0 1972 1458" fill="none" xmlns="http://www.w3.org/2000/svg">
<path opacity="0.2" fill-rule="evenodd" clip-rule="evenodd" d="M1776.62 590.467C1806.48 582.349 1829.47 570.995 1843.95 554.761L1844.69 555.426C1830.03 571.872 1806.82 583.293 1776.88 591.432C1746.93 599.573 1710.19 604.445 1668.41 607.749C1626.69 611.048 1579.92 612.786 1529.82 614.647L1529.56 614.656C1479.35 616.521 1425.81 618.513 1370.65 622.326C1149.96 637.576 903.467 681.952 741.406 863.673L740.66 863.007C903.005 680.968 1149.87 636.58 1370.58 621.328C1425.76 617.514 1479.32 615.522 1529.52 613.657L1529.76 613.648C1579.88 611.786 1626.63 610.049 1668.33 606.752C1710.1 603.45 1746.76 598.583 1776.62 590.467Z" fill="white"/>
<path opacity="0.2" fill-rule="evenodd" clip-rule="evenodd" d="M1288.53 788.983C1537.52 806.871 1790.8 819.555 1971.2 617.264L1971.95 617.929C1791.17 820.638 1537.37 807.862 1288.46 789.98C1281.78 789.501 1275.11 789.017 1268.44 788.534C1150.78 780.012 1034.67 771.602 928.285 785.544C815.885 800.272 714.372 839.945 633.373 930.77L632.626 930.105C713.83 839.05 815.593 799.302 928.155 784.552C1034.65 770.597 1150.85 779.014 1268.48 787.535C1275.16 788.018 1281.84 788.503 1288.53 788.983Z" fill="white"/>
<path opacity="0.2" fill-rule="evenodd" clip-rule="evenodd" d="M1175.83 527.049C1328.42 458.932 1485.55 385.683 1666.15 183.168L1666.9 183.833C1486.15 386.506 1328.87 459.825 1176.24 527.962C1172.15 529.79 1168.06 531.613 1163.97 533.436C1015.7 599.549 871.372 663.9 713.521 840.9L712.774 840.234C870.769 663.073 1015.26 598.649 1163.55 532.529C1167.64 530.705 1171.74 528.879 1175.83 527.049Z" fill="white"/>
<path opacity="0.2" fill-rule="evenodd" clip-rule="evenodd" d="M221.033 346.899C196.159 330.706 173.358 321.5 152.5 321.5V320.5C173.642 320.5 196.638 329.825 221.578 346.061C246.525 362.302 273.467 385.491 302.51 413.295C331.504 441.052 362.608 473.426 395.925 508.102L396.098 508.282C429.482 543.029 465.09 580.086 503.037 617.142C654.84 765.383 843.964 913.5 1077.5 913.5V914.5C843.536 914.5 654.16 766.116 502.338 617.857C464.378 580.789 428.76 543.72 395.377 508.975L395.215 508.807C361.89 474.122 330.798 441.76 301.818 414.017C272.79 386.227 245.901 363.089 221.033 346.899Z" fill="white"/>
<path opacity="0.2" fill-rule="evenodd" clip-rule="evenodd" d="M673.729 569.555C527.579 379.898 374.97 190.5 115 190.5V189.5C375.53 189.5 528.421 379.352 674.521 568.945C678.44 574.03 682.354 579.115 686.265 584.196C755.281 673.867 823.382 762.348 901.28 829.606C983.577 900.661 1076.78 948 1193.5 948V949C1076.47 949 983.048 901.526 900.626 830.363C822.648 763.036 754.49 674.48 685.494 584.834C681.575 579.743 677.655 574.649 673.729 569.555Z" fill="white"/>
<path opacity="0.2" fill-rule="evenodd" clip-rule="evenodd" d="M559.179 817.456C413.009 751.716 260.265 686 0 686V685C260.476 685 413.374 750.784 559.589 816.544C563.511 818.308 567.427 820.071 571.341 821.834C713.327 885.769 851.527 948 1079 948V949C851.311 949 712.947 886.695 570.946 822.753C567.027 820.988 563.106 819.222 559.179 817.456Z" fill="white"/>
</svg>
