<svg xmlns="http://www.w3.org/2000/svg" xmlns:xlink="http://www.w3.org/1999/xlink" viewBox="0 0 65 65.68"><defs><style>.cls-1{opacity:0.2;}.cls-2{fill:#3949db;}.cls-3{fill:#fff;}.cls-4{fill:none;stroke:#3949db;stroke-opacity:0.06;}.cls-5{fill:url(#linear-gradient);}.cls-6{fill:url(#linear-gradient-2);}.cls-7{fill:url(#linear-gradient-3);}.cls-8{fill:url(#linear-gradient-4);}</style><linearGradient id="linear-gradient" x1="31.93" y1="33.29" x2="31.93" y2="28.91" gradientTransform="matrix(1, 0, 0, -1, 0, 75.89)" gradientUnits="userSpaceOnUse"><stop offset="0" stop-color="#3949db"/><stop offset="0.48" stop-color="#3949db"/><stop offset="1" stop-color="#3949db"/></linearGradient><linearGradient id="linear-gradient-2" x1="32" y1="56.87" x2="32" y2="47.37" xlink:href="#linear-gradient"/><linearGradient id="linear-gradient-3" x1="32" y1="49.16" x2="32" y2="41.86" xlink:href="#linear-gradient"/><linearGradient id="linear-gradient-4" x1="31.94" y1="41.4" x2="31.94" y2="36.35" xlink:href="#linear-gradient"/></defs><g id="Layer_2" data-name="Layer 2"><g id="Layer_1-2" data-name="Layer 1"><g class="cls-1"><circle class="cls-2" cx="32.5" cy="37.97" r="27.71"/></g><circle class="cls-3" cx="32.5" cy="32.5" r="32.5"/><circle class="cls-4" cx="32.5" cy="32.5" r="32"/><path class="cls-5" d="M31.93,47a2.19,2.19,0,1,0-2.19-2.19A2.2,2.2,0,0,0,31.93,47Z"/><path class="cls-6" d="M48.64,26.28a22.7,22.7,0,0,0-33.28,0A1.33,1.33,0,0,0,17.3,28.1a20,20,0,0,1,29.4,0,1.33,1.33,0,0,0,1.94-1.82Z"/><path class="cls-7" d="M43.77,31.77a16.26,16.26,0,0,0-23.54,0,1.33,1.33,0,1,0,1.89,1.87,13.59,13.59,0,0,1,19.76,0,1.33,1.33,0,0,0,.94.39,1.36,1.36,0,0,0,.94-.38A1.34,1.34,0,0,0,43.77,31.77Z"/><path class="cls-8" d="M38.45,37.27A9.59,9.59,0,0,0,32,34.49h-.1a9.57,9.57,0,0,0-6.46,2.78,1.33,1.33,0,0,0,1.86,1.89,7,7,0,0,1,4.6-2H32a6.93,6.93,0,0,1,4.59,2,1.33,1.33,0,1,0,1.87-1.89Z"/></g></g></svg>