<svg xmlns="http://www.w3.org/2000/svg" viewBox="0 0 65 65.01"><defs><style>.cls-1{opacity:0.2;}.cls-2{fill:#3949db;}.cls-3{fill:#fff;}.cls-4{fill:none;stroke:#3949db;stroke-opacity:0.06;}</style></defs><g id="Layer_2" data-name="Layer 2"><g id="Layer_1-2" data-name="Layer 1"><g class="cls-1"><ellipse class="cls-2" cx="32.5" cy="37.58" rx="27.71" ry="27.42"/></g><ellipse class="cls-3" cx="32.5" cy="32.17" rx="32.5" ry="32.16"/><ellipse class="cls-4" cx="32.5" cy="32.17" rx="32" ry="31.67"/><path class="cls-2" d="M50,34.42a3.21,3.21,0,0,0-1-2.27A3.52,3.52,0,0,0,50,29.4a3.75,3.75,0,0,0-3.8-3.27h-9a20.44,20.44,0,0,0,1.16-5.78c0-3.13-2.68-5.77-4.37-5.77a4.59,4.59,0,0,0-2.64.88A.7.7,0,0,0,31,16v4.9l-4.2,9-.17.09v-.28a.73.73,0,0,0-.73-.72H18.65A3.63,3.63,0,0,0,15,32.62V44.17a3.62,3.62,0,0,0,3.65,3.6H23a3.64,3.64,0,0,0,3.43-2.38,9.58,9.58,0,0,0,3.86.94H43.7A3.34,3.34,0,0,0,47,43.81a3.23,3.23,0,0,0-.26-2.17,3.22,3.22,0,0,0,1.46-4.33A3.21,3.21,0,0,0,50,34.42Zm-3.08,1.79a.71.71,0,0,0-.41,1.24,1.76,1.76,0,0,1,.57,1.3,1.8,1.8,0,0,1-1.61,1.78.76.76,0,0,0-.61.49.72.72,0,0,0,.19.76,1.77,1.77,0,0,1,.53,1.72,1.89,1.89,0,0,1-1.88,1.39H30.31a6.93,6.93,0,0,1-3.86-1.24.74.74,0,0,0-.79-.15.72.72,0,0,0-.45.67A2.18,2.18,0,0,1,23,46.33H18.65a2.18,2.18,0,0,1-2.19-2.16V32.62a2.18,2.18,0,0,1,2.19-2.16h6.56v.72a.71.71,0,0,0,.35.61.73.73,0,0,0,.7,0l1.46-.72a.7.7,0,0,0,.34-.34l4.37-9.38a.66.66,0,0,0,.07-.3V16.42A3,3,0,0,1,34,16c.8,0,2.92,2,2.92,4.33a22,22,0,0,1-1.42,6.24.76.76,0,0,0,.08.67.77.77,0,0,0,.61.31h10a2.29,2.29,0,0,1,2.35,2,2.13,2.13,0,0,1-1,2,.73.73,0,0,0,0,1.26,1.78,1.78,0,0,1,1,1.59A1.81,1.81,0,0,1,46.92,36.21Z"/><path class="cls-2" d="M25.94,30.46a.72.72,0,0,0-.73.72v13a.73.73,0,0,0,1.46,0v-13A.73.73,0,0,0,25.94,30.46Z"/></g></g></svg>