<svg xmlns="http://www.w3.org/2000/svg" viewBox="0 0 65 65.01"><defs><style>.cls-1{opacity:0.2;}.cls-2{fill:#3949db;}.cls-3{fill:#fff;}.cls-4{fill:none;stroke:#3949db;stroke-opacity:0.06;}</style></defs><g id="Layer_2" data-name="Layer 2"><g id="Layer_1-2" data-name="Layer 1"><g class="cls-1"><ellipse class="cls-2" cx="32.5" cy="37.58" rx="27.71" ry="27.42"/></g><ellipse class="cls-3" cx="32.5" cy="32.17" rx="32.5" ry="32.16"/><ellipse class="cls-4" cx="32.5" cy="32.17" rx="32" ry="31.67"/><path class="cls-2" d="M45.22,18.24H20.75a4.62,4.62,0,0,0-4.64,4.59V37.65a4.62,4.62,0,0,0,4.62,4.59V49l9.77-6.73H45.22a4.62,4.62,0,0,0,4.64-4.59V22.83a4.62,4.62,0,0,0-4.64-4.59Zm2.66,19.41a2.65,2.65,0,0,1-2.66,2.63H29.88l-7.17,4.94V40.28h-2a2.65,2.65,0,0,1-2.67-2.63V22.83a2.65,2.65,0,0,1,2.67-2.63H45.22a2.65,2.65,0,0,1,2.66,2.63Z"/><path class="cls-2" d="M25.14,25.15H40.82v2H25.14Z"/><path class="cls-2" d="M25.14,29.33H40.82v2H25.14Z"/><path class="cls-2" d="M25.14,33.5H40.82v2H25.14Z"/></g></g></svg>