<svg xmlns="http://www.w3.org/2000/svg" viewBox="0 0 65 65.01"><defs><style>.cls-1{opacity:0.2;}.cls-2{fill:#3949db;}.cls-3{fill:#fff;}.cls-4{fill:none;stroke:#3949db;stroke-opacity:0.06;}</style></defs><g id="Layer_2" data-name="Layer 2"><g id="Layer_1-2" data-name="Layer 1"><g class="cls-1"><ellipse class="cls-2" cx="32.5" cy="37.58" rx="27.71" ry="27.42"/></g><ellipse class="cls-3" cx="32.5" cy="32.17" rx="32.5" ry="32.16"/><ellipse class="cls-4" cx="32.5" cy="32.17" rx="32" ry="31.67"/><path class="cls-2" d="M42.71,26.44H41.64V25.38a9.64,9.64,0,0,0-19.28,0v1.06H21.29a1.07,1.07,0,0,0-1.08,1.06v17a1.07,1.07,0,0,0,1.08,1.06H42.71a1.07,1.07,0,0,0,1.08-1.06v-17A1.07,1.07,0,0,0,42.71,26.44ZM24.5,25.38a7.5,7.5,0,0,1,15,0v1.06h-15Zm17.14,18H22.36V28.56H41.64Z"/><path class="cls-2" d="M35,33.86a3.22,3.22,0,0,0-6.24,1,3.16,3.16,0,0,0,2.14,3v2.31a1.07,1.07,0,0,0,2.14,0V37.91A3.17,3.17,0,0,0,35,33.86ZM32,36a1.06,1.06,0,1,1,1.07-1.06A1.06,1.06,0,0,1,32,36Z"/></g></g></svg>