<svg width="168" height="16" viewBox="0 0 168 16" fill="none" xmlns="http://www.w3.org/2000/svg">
<path d="M12.84 7.76988C12.84 8.82988 12.6633 9.80322 12.31 10.6899C11.9567 11.5765 11.46 12.3399 10.82 12.9799C10.18 13.6199 9.41 14.1165 8.51 14.4699C7.61 14.8232 6.61 14.9999 5.51 14.9999H0V0.539882H5.51C6.61 0.539882 7.61 0.719882 8.51 1.07988C9.41 1.43321 10.18 1.92988 10.82 2.56988C11.46 3.20322 11.9567 3.96322 12.31 4.84988C12.6633 5.73655 12.84 6.70988 12.84 7.76988ZM10.08 7.76988C10.08 6.97655 9.97333 6.26655 9.76 5.63988C9.55333 5.00655 9.25 4.47322 8.85 4.03988C8.45667 3.59988 7.97667 3.26322 7.41 3.02988C6.85 2.79655 6.21667 2.67988 5.51 2.67988H2.7V12.8599H5.51C6.21667 12.8599 6.85 12.7432 7.41 12.5099C7.97667 12.2765 8.45667 11.9432 8.85 11.5099C9.25 11.0699 9.55333 10.5365 9.76 9.90988C9.97333 9.27655 10.08 8.56322 10.08 7.76988Z" fill="white"/>
<path d="M17.9148 2.67988V6.68988H22.9748V8.75988H17.9148V12.8499H24.3348V14.9999H15.2148V0.539882H24.3348V2.67988H17.9148Z" fill="white"/>
<path d="M34.4188 3.16988C34.3387 3.30988 34.2521 3.41322 34.1587 3.47988C34.0721 3.53988 33.9621 3.56988 33.8288 3.56988C33.6888 3.56988 33.5354 3.51988 33.3688 3.41988C33.2088 3.31322 33.0154 3.19655 32.7887 3.06988C32.5621 2.94322 32.2954 2.82988 31.9888 2.72988C31.6888 2.62322 31.3321 2.56988 30.9188 2.56988C30.5454 2.56988 30.2188 2.61655 29.9387 2.70988C29.6587 2.79655 29.4221 2.91988 29.2288 3.07988C29.0421 3.23988 28.9021 3.43322 28.8088 3.65988C28.7154 3.87988 28.6687 4.12322 28.6687 4.38988C28.6687 4.72988 28.7621 5.01322 28.9487 5.23988C29.1421 5.46655 29.3954 5.65988 29.7087 5.81988C30.0221 5.97988 30.3788 6.12322 30.7788 6.24988C31.1788 6.37655 31.5888 6.51322 32.0088 6.65988C32.4287 6.79988 32.8387 6.96655 33.2388 7.15988C33.6388 7.34655 33.9954 7.58655 34.3088 7.87988C34.6221 8.16655 34.8721 8.51988 35.0588 8.93988C35.2521 9.35988 35.3488 9.86988 35.3488 10.4699C35.3488 11.1232 35.2354 11.7365 35.0088 12.3099C34.7887 12.8765 34.4621 13.3732 34.0288 13.7999C33.6021 14.2199 33.0787 14.5532 32.4587 14.7999C31.8387 15.0399 31.1287 15.1599 30.3287 15.1599C29.8687 15.1599 29.4154 15.1132 28.9688 15.0199C28.5221 14.9332 28.0921 14.8065 27.6787 14.6399C27.2721 14.4732 26.8888 14.2732 26.5287 14.0399C26.1687 13.8066 25.8487 13.5465 25.5687 13.2599L26.3587 11.9699C26.4254 11.8765 26.5121 11.7999 26.6187 11.7399C26.7254 11.6732 26.8387 11.6399 26.9587 11.6399C27.1254 11.6399 27.3054 11.7099 27.4987 11.8499C27.6921 11.9832 27.9221 12.1332 28.1887 12.2999C28.4554 12.4665 28.7654 12.6199 29.1187 12.7599C29.4788 12.8932 29.9087 12.9599 30.4087 12.9599C31.1754 12.9599 31.7688 12.7799 32.1888 12.4199C32.6088 12.0532 32.8187 11.5299 32.8187 10.8499C32.8187 10.4699 32.7221 10.1599 32.5288 9.91988C32.3421 9.67988 32.0921 9.47988 31.7788 9.31988C31.4654 9.15322 31.1087 9.01322 30.7087 8.89988C30.3087 8.78655 29.9021 8.66322 29.4888 8.52988C29.0754 8.39655 28.6687 8.23655 28.2687 8.04988C27.8687 7.86322 27.5121 7.61988 27.1987 7.31988C26.8854 7.01988 26.6321 6.64655 26.4387 6.19988C26.2521 5.74655 26.1587 5.18988 26.1587 4.52988C26.1587 4.00322 26.2621 3.48988 26.4688 2.98988C26.6821 2.48988 26.9888 2.04655 27.3888 1.65988C27.7887 1.27322 28.2821 0.963215 28.8687 0.729882C29.4554 0.496549 30.1287 0.379883 30.8887 0.379883C31.7421 0.379883 32.5287 0.513216 33.2487 0.779882C33.9688 1.04655 34.5821 1.41988 35.0887 1.89988L34.4188 3.16988Z" fill="white"/>
<path d="M40.3953 14.9999H37.6953V0.539882H40.3953V14.9999Z" fill="white"/>
<path d="M55.5528 7.74988V13.5999C54.8195 14.1399 54.0361 14.5366 53.2028 14.7899C52.3761 15.0366 51.4895 15.1599 50.5428 15.1599C49.3628 15.1599 48.2928 14.9766 47.3328 14.6099C46.3795 14.2432 45.5628 13.7332 44.8828 13.0799C44.2095 12.4265 43.6895 11.6465 43.3228 10.7399C42.9561 9.83322 42.7728 8.84322 42.7728 7.76988C42.7728 6.68322 42.9495 5.68655 43.3028 4.77988C43.6561 3.87321 44.1561 3.09322 44.8028 2.43988C45.4561 1.78655 46.2461 1.27988 47.1728 0.919882C48.0995 0.559882 49.1395 0.379883 50.2928 0.379883C50.8795 0.379883 51.4261 0.426549 51.9328 0.519882C52.4461 0.613216 52.9195 0.743216 53.3528 0.909883C53.7928 1.06988 54.1928 1.26655 54.5528 1.49988C54.9128 1.73322 55.2428 1.98988 55.5428 2.26988L54.7728 3.48988C54.6528 3.68322 54.4961 3.80322 54.3028 3.84988C54.1095 3.88988 53.8995 3.83988 53.6728 3.69988C53.4528 3.57322 53.2328 3.44655 53.0128 3.31988C52.7928 3.19322 52.5461 3.08322 52.2728 2.98988C52.0061 2.89655 51.7028 2.81988 51.3628 2.75988C51.0295 2.69988 50.6428 2.66988 50.2028 2.66988C49.4895 2.66988 48.8428 2.78988 48.2628 3.02988C47.6895 3.26988 47.1995 3.61322 46.7928 4.05988C46.3861 4.50655 46.0728 5.04322 45.8528 5.66988C45.6328 6.29655 45.5228 6.99655 45.5228 7.76988C45.5228 8.59655 45.6395 9.33655 45.8728 9.98988C46.1128 10.6365 46.4461 11.1865 46.8728 11.6399C47.3061 12.0865 47.8261 12.4299 48.4328 12.6699C49.0395 12.9032 49.7161 13.0199 50.4628 13.0199C50.9961 13.0199 51.4728 12.9632 51.8928 12.8499C52.3128 12.7365 52.7228 12.5832 53.1228 12.3899V9.76988H51.3028C51.1295 9.76988 50.9928 9.72322 50.8928 9.62988C50.7995 9.52988 50.7528 9.40988 50.7528 9.26988V7.74988H55.5528Z" fill="white"/>
<path d="M70.3345 0.539882V14.9999H68.9545C68.7412 14.9999 68.5612 14.9665 68.4145 14.8999C68.2745 14.8265 68.1379 14.7066 68.0045 14.5399L60.4545 4.89988C60.4945 5.33988 60.5145 5.74655 60.5145 6.11988V14.9999H58.1445V0.539882H59.5545C59.6679 0.539882 59.7645 0.546548 59.8445 0.559881C59.9312 0.566548 60.0045 0.586548 60.0645 0.619882C60.1312 0.646549 60.1945 0.689882 60.2545 0.749882C60.3145 0.803215 60.3812 0.876549 60.4545 0.969882L68.0345 10.6499C68.0145 10.4165 67.9979 10.1865 67.9845 9.95988C67.9712 9.73322 67.9645 9.52322 67.9645 9.32988V0.539882H70.3345Z" fill="white"/>
<path d="M81.1947 9.53988L79.4347 4.72988C79.348 4.51655 79.258 4.26322 79.1647 3.96988C79.0714 3.67655 78.978 3.35988 78.8847 3.01988C78.798 3.35988 78.708 3.67988 78.6147 3.97988C78.5214 4.27322 78.4314 4.52988 78.3447 4.74988L76.5947 9.53988H81.1947ZM85.9447 14.9999H83.8647C83.6314 14.9999 83.4414 14.9432 83.2947 14.8299C83.148 14.7099 83.038 14.5632 82.9647 14.3899L81.8847 11.4399H75.8947L74.8147 14.3899C74.7614 14.5432 74.658 14.6832 74.5047 14.8099C74.3513 14.9365 74.1614 14.9999 73.9347 14.9999H71.8347L77.5247 0.539882H80.2647L85.9447 14.9999Z" fill="white"/>
<path d="M95.1414 3.16988C95.0614 3.30988 94.9747 3.41322 94.8814 3.47988C94.7947 3.53988 94.6847 3.56988 94.5514 3.56988C94.4114 3.56988 94.2581 3.51988 94.0914 3.41988C93.9314 3.31322 93.7381 3.19655 93.5114 3.06988C93.2847 2.94322 93.0181 2.82988 92.7114 2.72988C92.4114 2.62322 92.0547 2.56988 91.6414 2.56988C91.2681 2.56988 90.9414 2.61655 90.6614 2.70988C90.3814 2.79655 90.1447 2.91988 89.9514 3.07988C89.7647 3.23988 89.6247 3.43322 89.5314 3.65988C89.4381 3.87988 89.3914 4.12322 89.3914 4.38988C89.3914 4.72988 89.4847 5.01322 89.6714 5.23988C89.8647 5.46655 90.1181 5.65988 90.4314 5.81988C90.7447 5.97988 91.1014 6.12322 91.5014 6.24988C91.9014 6.37655 92.3114 6.51322 92.7314 6.65988C93.1514 6.79988 93.5614 6.96655 93.9614 7.15988C94.3614 7.34655 94.7181 7.58655 95.0314 7.87988C95.3447 8.16655 95.5947 8.51988 95.7814 8.93988C95.9747 9.35988 96.0714 9.86988 96.0714 10.4699C96.0714 11.1232 95.9581 11.7365 95.7314 12.3099C95.5114 12.8765 95.1847 13.3732 94.7514 13.7999C94.3247 14.2199 93.8014 14.5532 93.1814 14.7999C92.5614 15.0399 91.8514 15.1599 91.0514 15.1599C90.5914 15.1599 90.1381 15.1132 89.6914 15.0199C89.2447 14.9332 88.8147 14.8065 88.4014 14.6399C87.9947 14.4732 87.6114 14.2732 87.2514 14.0399C86.8914 13.8066 86.5714 13.5465 86.2914 13.2599L87.0814 11.9699C87.1481 11.8765 87.2347 11.7999 87.3414 11.7399C87.4481 11.6732 87.5614 11.6399 87.6814 11.6399C87.8481 11.6399 88.0281 11.7099 88.2214 11.8499C88.4147 11.9832 88.6447 12.1332 88.9114 12.2999C89.1781 12.4665 89.4881 12.6199 89.8414 12.7599C90.2014 12.8932 90.6314 12.9599 91.1314 12.9599C91.8981 12.9599 92.4914 12.7799 92.9114 12.4199C93.3314 12.0532 93.5414 11.5299 93.5414 10.8499C93.5414 10.4699 93.4447 10.1599 93.2514 9.91988C93.0647 9.67988 92.8147 9.47988 92.5014 9.31988C92.1881 9.15322 91.8314 9.01322 91.4314 8.89988C91.0314 8.78655 90.6247 8.66322 90.2114 8.52988C89.7981 8.39655 89.3914 8.23655 88.9914 8.04988C88.5914 7.86322 88.2347 7.61988 87.9214 7.31988C87.6081 7.01988 87.3547 6.64655 87.1614 6.19988C86.9747 5.74655 86.8814 5.18988 86.8814 4.52988C86.8814 4.00322 86.9847 3.48988 87.1914 2.98988C87.4047 2.48988 87.7114 2.04655 88.1114 1.65988C88.5114 1.27322 89.0047 0.963215 89.5914 0.729882C90.1781 0.496549 90.8514 0.379883 91.6114 0.379883C92.4647 0.379883 93.2514 0.513216 93.9714 0.779882C94.6914 1.04655 95.3047 1.41988 95.8114 1.89988L95.1414 3.16988Z" fill="white"/>
<path d="M101.118 14.9999H98.418V0.539882H101.118V14.9999Z" fill="white"/>
<path d="M114.455 2.74988H110.095V14.9999H107.405V2.74988H103.045V0.539882H114.455V2.74988Z" fill="white"/>
<path d="M119.048 2.67988V6.68988H124.108V8.75988H119.048V12.8499H125.468V14.9999H116.348V0.539882H125.468V2.67988H119.048Z" fill="white"/>
<path d="M144.43 13.1499V14.9999H136.43V13.1499H139.36V4.71988C139.36 4.38655 139.37 4.04322 139.39 3.68988L137.31 5.42988C137.19 5.52322 137.07 5.58322 136.95 5.60988C136.837 5.62988 136.727 5.62988 136.62 5.60988C136.52 5.58988 136.43 5.55655 136.35 5.50988C136.27 5.45655 136.21 5.39988 136.17 5.33988L135.39 4.26988L139.8 0.519882H141.83V13.1499H144.43Z" fill="white"/>
<path d="M156.782 7.76988C156.782 9.02988 156.645 10.1265 156.372 11.0599C156.105 11.9865 155.732 12.7532 155.252 13.3599C154.778 13.9665 154.215 14.4199 153.562 14.7199C152.915 15.0132 152.215 15.1599 151.462 15.1599C150.708 15.1599 150.008 15.0132 149.362 14.7199C148.722 14.4199 148.165 13.9665 147.692 13.3599C147.218 12.7532 146.848 11.9865 146.582 11.0599C146.315 10.1265 146.182 9.02988 146.182 7.76988C146.182 6.50322 146.315 5.40655 146.582 4.47988C146.848 3.55322 147.218 2.78655 147.692 2.17988C148.165 1.57322 148.722 1.12322 149.362 0.829882C150.008 0.529882 150.708 0.379883 151.462 0.379883C152.215 0.379883 152.915 0.529882 153.562 0.829882C154.215 1.12322 154.778 1.57322 155.252 2.17988C155.732 2.78655 156.105 3.55322 156.372 4.47988C156.645 5.40655 156.782 6.50322 156.782 7.76988ZM154.232 7.76988C154.232 6.72322 154.155 5.85655 154.002 5.16988C153.848 4.48322 153.642 3.93655 153.382 3.52988C153.128 3.12321 152.835 2.83988 152.502 2.67988C152.168 2.51322 151.822 2.42988 151.462 2.42988C151.108 2.42988 150.765 2.51322 150.432 2.67988C150.105 2.83988 149.815 3.12321 149.562 3.52988C149.308 3.93655 149.105 4.48322 148.952 5.16988C148.805 5.85655 148.732 6.72322 148.732 7.76988C148.732 8.81655 148.805 9.68322 148.952 10.3699C149.105 11.0565 149.308 11.6032 149.562 12.0099C149.815 12.4165 150.105 12.7032 150.432 12.8699C150.765 13.0299 151.108 13.1099 151.462 13.1099C151.822 13.1099 152.168 13.0299 152.502 12.8699C152.835 12.7032 153.128 12.4165 153.382 12.0099C153.642 11.6032 153.848 11.0565 154.002 10.3699C154.155 9.68322 154.232 8.81655 154.232 7.76988Z" fill="white"/>
<path d="M167.633 13.1499V14.9999H159.633V13.1499H162.563V4.71988C162.563 4.38655 162.573 4.04322 162.593 3.68988L160.513 5.42988C160.393 5.52322 160.273 5.58322 160.153 5.60988C160.04 5.62988 159.93 5.62988 159.823 5.60988C159.723 5.58988 159.633 5.55655 159.553 5.50988C159.473 5.45655 159.413 5.39988 159.373 5.33988L158.593 4.26988L163.003 0.519882H165.033V13.1499H167.633Z" fill="white"/>
</svg>
