<svg width="190" height="38" viewBox="0 0 190 38" fill="none" xmlns="http://www.w3.org/2000/svg">
<path fill-rule="evenodd" clip-rule="evenodd" d="M188 2H2V36H188V2ZM0 0V38H190V0H0Z" fill="white"/>
<path d="M24.84 18.7699C24.84 19.8299 24.6633 20.8032 24.31 21.6899C23.9567 22.5765 23.46 23.3399 22.82 23.9799C22.18 24.6199 21.41 25.1165 20.51 25.4699C19.61 25.8232 18.61 25.9999 17.51 25.9999H12V11.5399H17.51C18.61 11.5399 19.61 11.7199 20.51 12.0799C21.41 12.4332 22.18 12.9299 22.82 13.5699C23.46 14.2032 23.9567 14.9632 24.31 15.8499C24.6633 16.7365 24.84 17.7099 24.84 18.7699ZM22.08 18.7699C22.08 17.9765 21.9733 17.2665 21.76 16.6399C21.5533 16.0065 21.25 15.4732 20.85 15.0399C20.4567 14.5999 19.9767 14.2632 19.41 14.0299C18.85 13.7965 18.2167 13.6799 17.51 13.6799H14.7V23.8599H17.51C18.2167 23.8599 18.85 23.7432 19.41 23.5099C19.9767 23.2765 20.4567 22.9432 20.85 22.5099C21.25 22.0699 21.5533 21.5365 21.76 20.9099C21.9733 20.2765 22.08 19.5632 22.08 18.7699Z" fill="white"/>
<path d="M29.9148 13.6799V17.6899H34.9748V19.7599H29.9148V23.8499H36.3348V25.9999H27.2148V11.5399H36.3348V13.6799H29.9148Z" fill="white"/>
<path d="M46.4188 14.1699C46.3388 14.3099 46.2521 14.4132 46.1587 14.4799C46.0721 14.5399 45.9621 14.5699 45.8288 14.5699C45.6888 14.5699 45.5354 14.5199 45.3688 14.4199C45.2088 14.3132 45.0154 14.1965 44.7887 14.0699C44.5621 13.9432 44.2954 13.8299 43.9888 13.7299C43.6888 13.6232 43.3321 13.5699 42.9188 13.5699C42.5454 13.5699 42.2187 13.6165 41.9387 13.7099C41.6587 13.7965 41.4221 13.9199 41.2288 14.0799C41.0421 14.2399 40.9021 14.4332 40.8088 14.6599C40.7154 14.8799 40.6687 15.1232 40.6687 15.3899C40.6687 15.7299 40.7621 16.0132 40.9487 16.2399C41.1421 16.4665 41.3954 16.6599 41.7087 16.8199C42.0221 16.9799 42.3788 17.1232 42.7788 17.2499C43.1788 17.3765 43.5888 17.5132 44.0088 17.6599C44.4288 17.7999 44.8388 17.9665 45.2388 18.1599C45.6388 18.3465 45.9954 18.5865 46.3088 18.8799C46.6221 19.1665 46.8721 19.5199 47.0588 19.9399C47.2521 20.3599 47.3488 20.8699 47.3488 21.4699C47.3488 22.1232 47.2354 22.7365 47.0088 23.3099C46.7888 23.8765 46.4621 24.3732 46.0288 24.7999C45.6021 25.2199 45.0787 25.5532 44.4587 25.7999C43.8387 26.0399 43.1287 26.1599 42.3287 26.1599C41.8687 26.1599 41.4154 26.1132 40.9688 26.0199C40.5221 25.9332 40.0921 25.8065 39.6787 25.6399C39.2721 25.4732 38.8887 25.2732 38.5287 25.0399C38.1687 24.8066 37.8487 24.5465 37.5687 24.2599L38.3587 22.9699C38.4254 22.8765 38.5121 22.7999 38.6187 22.7399C38.7254 22.6732 38.8387 22.6399 38.9587 22.6399C39.1254 22.6399 39.3054 22.7099 39.4987 22.8499C39.6921 22.9832 39.9221 23.1332 40.1887 23.2999C40.4554 23.4665 40.7654 23.6199 41.1187 23.7599C41.4787 23.8932 41.9087 23.9599 42.4087 23.9599C43.1754 23.9599 43.7688 23.7799 44.1888 23.4199C44.6088 23.0532 44.8187 22.5299 44.8187 21.8499C44.8187 21.4699 44.7221 21.1599 44.5288 20.9199C44.3421 20.6799 44.0921 20.4799 43.7788 20.3199C43.4654 20.1532 43.1087 20.0132 42.7087 19.8999C42.3087 19.7865 41.9021 19.6632 41.4888 19.5299C41.0754 19.3965 40.6687 19.2365 40.2687 19.0499C39.8687 18.8632 39.5121 18.6199 39.1987 18.3199C38.8854 18.0199 38.6321 17.6465 38.4387 17.1999C38.2521 16.7465 38.1587 16.1899 38.1587 15.5299C38.1587 15.0032 38.2621 14.4899 38.4688 13.9899C38.6821 13.4899 38.9888 13.0465 39.3888 12.6599C39.7888 12.2732 40.2821 11.9632 40.8687 11.7299C41.4554 11.4965 42.1287 11.3799 42.8887 11.3799C43.7421 11.3799 44.5287 11.5132 45.2487 11.7799C45.9687 12.0465 46.5821 12.4199 47.0887 12.8999L46.4188 14.1699Z" fill="white"/>
<path d="M52.3953 25.9999H49.6953V11.5399H52.3953V25.9999Z" fill="white"/>
<path d="M67.5528 18.7499V24.5999C66.8195 25.1399 66.0361 25.5366 65.2028 25.7899C64.3761 26.0366 63.4895 26.1599 62.5428 26.1599C61.3628 26.1599 60.2928 25.9765 59.3328 25.6099C58.3795 25.2432 57.5628 24.7332 56.8828 24.0799C56.2095 23.4265 55.6895 22.6465 55.3228 21.7399C54.9561 20.8332 54.7728 19.8432 54.7728 18.7699C54.7728 17.6832 54.9495 16.6865 55.3028 15.7799C55.6561 14.8732 56.1561 14.0932 56.8028 13.4399C57.4561 12.7865 58.2461 12.2799 59.1728 11.9199C60.0995 11.5599 61.1395 11.3799 62.2928 11.3799C62.8795 11.3799 63.4261 11.4265 63.9328 11.5199C64.4461 11.6132 64.9195 11.7432 65.3528 11.9099C65.7928 12.0699 66.1928 12.2665 66.5528 12.4999C66.9128 12.7332 67.2428 12.9899 67.5428 13.2699L66.7728 14.4899C66.6528 14.6832 66.4961 14.8032 66.3028 14.8499C66.1095 14.8899 65.8995 14.8399 65.6728 14.6999C65.4528 14.5732 65.2328 14.4465 65.0128 14.3199C64.7928 14.1932 64.5461 14.0832 64.2728 13.9899C64.0061 13.8965 63.7028 13.8199 63.3628 13.7599C63.0295 13.6999 62.6428 13.6699 62.2028 13.6699C61.4895 13.6699 60.8428 13.7899 60.2628 14.0299C59.6895 14.2699 59.1995 14.6132 58.7928 15.0599C58.3861 15.5065 58.0728 16.0432 57.8528 16.6699C57.6328 17.2965 57.5228 17.9965 57.5228 18.7699C57.5228 19.5965 57.6395 20.3365 57.8728 20.9899C58.1128 21.6365 58.4461 22.1865 58.8728 22.6399C59.3061 23.0865 59.8261 23.4299 60.4328 23.6699C61.0395 23.9032 61.7161 24.0199 62.4628 24.0199C62.9961 24.0199 63.4728 23.9632 63.8928 23.8499C64.3128 23.7365 64.7228 23.5832 65.1228 23.3899V20.7699H63.3028C63.1295 20.7699 62.9928 20.7232 62.8928 20.6299C62.7995 20.5299 62.7528 20.4099 62.7528 20.2699V18.7499H67.5528Z" fill="white"/>
<path d="M82.3345 11.5399V25.9999H80.9545C80.7412 25.9999 80.5612 25.9665 80.4145 25.8999C80.2745 25.8265 80.1379 25.7066 80.0045 25.5399L72.4545 15.8999C72.4945 16.3399 72.5145 16.7465 72.5145 17.1199V25.9999H70.1445V11.5399H71.5545C71.6679 11.5399 71.7645 11.5465 71.8445 11.5599C71.9312 11.5665 72.0045 11.5865 72.0645 11.6199C72.1312 11.6465 72.1945 11.6899 72.2545 11.7499C72.3145 11.8032 72.3812 11.8765 72.4545 11.9699L80.0345 21.6499C80.0145 21.4165 79.9979 21.1865 79.9845 20.9599C79.9712 20.7332 79.9645 20.5232 79.9645 20.3299V11.5399H82.3345Z" fill="white"/>
<path d="M93.1947 20.5399L91.4347 15.7299C91.348 15.5165 91.258 15.2632 91.1647 14.9699C91.0714 14.6765 90.978 14.3599 90.8847 14.0199C90.798 14.3599 90.708 14.6799 90.6147 14.9799C90.5214 15.2732 90.4314 15.5299 90.3447 15.7499L88.5947 20.5399H93.1947ZM97.9447 25.9999H95.8647C95.6314 25.9999 95.4414 25.9432 95.2947 25.8299C95.148 25.7099 95.038 25.5632 94.9647 25.3899L93.8847 22.4399H87.8947L86.8147 25.3899C86.7614 25.5432 86.658 25.6832 86.5047 25.8099C86.3514 25.9365 86.1614 25.9999 85.9347 25.9999H83.8347L89.5247 11.5399H92.2647L97.9447 25.9999Z" fill="white"/>
<path d="M107.141 14.1699C107.061 14.3099 106.975 14.4132 106.881 14.4799C106.795 14.5399 106.685 14.5699 106.551 14.5699C106.411 14.5699 106.258 14.5199 106.091 14.4199C105.931 14.3132 105.738 14.1965 105.511 14.0699C105.285 13.9432 105.018 13.8299 104.711 13.7299C104.411 13.6232 104.055 13.5699 103.641 13.5699C103.268 13.5699 102.941 13.6165 102.661 13.7099C102.381 13.7965 102.145 13.9199 101.951 14.0799C101.765 14.2399 101.625 14.4332 101.531 14.6599C101.438 14.8799 101.391 15.1232 101.391 15.3899C101.391 15.7299 101.485 16.0132 101.671 16.2399C101.865 16.4665 102.118 16.6599 102.431 16.8199C102.745 16.9799 103.101 17.1232 103.501 17.2499C103.901 17.3765 104.311 17.5132 104.731 17.6599C105.151 17.7999 105.561 17.9665 105.961 18.1599C106.361 18.3465 106.718 18.5865 107.031 18.8799C107.345 19.1665 107.595 19.5199 107.781 19.9399C107.975 20.3599 108.071 20.8699 108.071 21.4699C108.071 22.1232 107.958 22.7365 107.731 23.3099C107.511 23.8765 107.185 24.3732 106.751 24.7999C106.325 25.2199 105.801 25.5532 105.181 25.7999C104.561 26.0399 103.851 26.1599 103.051 26.1599C102.591 26.1599 102.138 26.1132 101.691 26.0199C101.245 25.9332 100.815 25.8065 100.401 25.6399C99.9947 25.4732 99.6114 25.2732 99.2514 25.0399C98.8914 24.8066 98.5714 24.5465 98.2914 24.2599L99.0814 22.9699C99.1481 22.8765 99.2347 22.7999 99.3414 22.7399C99.4481 22.6732 99.5614 22.6399 99.6814 22.6399C99.8481 22.6399 100.028 22.7099 100.221 22.8499C100.415 22.9832 100.645 23.1332 100.911 23.2999C101.178 23.4665 101.488 23.6199 101.841 23.7599C102.201 23.8932 102.631 23.9599 103.131 23.9599C103.898 23.9599 104.491 23.7799 104.911 23.4199C105.331 23.0532 105.541 22.5299 105.541 21.8499C105.541 21.4699 105.445 21.1599 105.251 20.9199C105.065 20.6799 104.815 20.4799 104.501 20.3199C104.188 20.1532 103.831 20.0132 103.431 19.8999C103.031 19.7865 102.625 19.6632 102.211 19.5299C101.798 19.3965 101.391 19.2365 100.991 19.0499C100.591 18.8632 100.235 18.6199 99.9214 18.3199C99.6081 18.0199 99.3547 17.6465 99.1614 17.1999C98.9747 16.7465 98.8814 16.1899 98.8814 15.5299C98.8814 15.0032 98.9847 14.4899 99.1914 13.9899C99.4047 13.4899 99.7114 13.0465 100.111 12.6599C100.511 12.2732 101.005 11.9632 101.591 11.7299C102.178 11.4965 102.851 11.3799 103.611 11.3799C104.465 11.3799 105.251 11.5132 105.971 11.7799C106.691 12.0465 107.305 12.4199 107.811 12.8999L107.141 14.1699Z" fill="white"/>
<path d="M113.118 25.9999H110.418V11.5399H113.118V25.9999Z" fill="white"/>
<path d="M126.455 13.7499H122.095V25.9999H119.405V13.7499H115.045V11.5399H126.455V13.7499Z" fill="white"/>
<path d="M131.048 13.6799V17.6899H136.108V19.7599H131.048V23.8499H137.468V25.9999H128.348V11.5399H137.468V13.6799H131.048Z" fill="white"/>
<path d="M156.43 24.1499V25.9999H148.43V24.1499H151.36V15.7199C151.36 15.3865 151.37 15.0432 151.39 14.6899L149.31 16.4299C149.19 16.5232 149.07 16.5832 148.95 16.6099C148.837 16.6299 148.727 16.6299 148.62 16.6099C148.52 16.5899 148.43 16.5565 148.35 16.5099C148.27 16.4565 148.21 16.3999 148.17 16.3399L147.39 15.2699L151.8 11.5199H153.83V24.1499H156.43Z" fill="white"/>
<path d="M168.782 18.7699C168.782 20.0299 168.645 21.1265 168.372 22.0599C168.105 22.9865 167.732 23.7532 167.252 24.3599C166.778 24.9665 166.215 25.4199 165.562 25.7199C164.915 26.0132 164.215 26.1599 163.462 26.1599C162.708 26.1599 162.008 26.0132 161.362 25.7199C160.722 25.4199 160.165 24.9665 159.692 24.3599C159.218 23.7532 158.848 22.9865 158.582 22.0599C158.315 21.1265 158.182 20.0299 158.182 18.7699C158.182 17.5032 158.315 16.4065 158.582 15.4799C158.848 14.5532 159.218 13.7865 159.692 13.1799C160.165 12.5732 160.722 12.1232 161.362 11.8299C162.008 11.5299 162.708 11.3799 163.462 11.3799C164.215 11.3799 164.915 11.5299 165.562 11.8299C166.215 12.1232 166.778 12.5732 167.252 13.1799C167.732 13.7865 168.105 14.5532 168.372 15.4799C168.645 16.4065 168.782 17.5032 168.782 18.7699ZM166.232 18.7699C166.232 17.7232 166.155 16.8565 166.002 16.1699C165.848 15.4832 165.642 14.9365 165.382 14.5299C165.128 14.1232 164.835 13.8399 164.502 13.6799C164.168 13.5132 163.822 13.4299 163.462 13.4299C163.108 13.4299 162.765 13.5132 162.432 13.6799C162.105 13.8399 161.815 14.1232 161.562 14.5299C161.308 14.9365 161.105 15.4832 160.952 16.1699C160.805 16.8565 160.732 17.7232 160.732 18.7699C160.732 19.8165 160.805 20.6832 160.952 21.3699C161.105 22.0565 161.308 22.6032 161.562 23.0099C161.815 23.4165 162.105 23.7032 162.432 23.8699C162.765 24.0299 163.108 24.1099 163.462 24.1099C163.822 24.1099 164.168 24.0299 164.502 23.8699C164.835 23.7032 165.128 23.4165 165.382 23.0099C165.642 22.6032 165.848 22.0565 166.002 21.3699C166.155 20.6832 166.232 19.8165 166.232 18.7699Z" fill="white"/>
<path d="M179.633 24.1499V25.9999H171.633V24.1499H174.563V15.7199C174.563 15.3865 174.573 15.0432 174.593 14.6899L172.513 16.4299C172.393 16.5232 172.273 16.5832 172.153 16.6099C172.04 16.6299 171.93 16.6299 171.823 16.6099C171.723 16.5899 171.633 16.5565 171.553 16.5099C171.473 16.4565 171.413 16.3999 171.373 16.3399L170.593 15.2699L175.003 11.5199H177.033V24.1499H179.633Z" fill="white"/>
</svg>
