<svg width="190" height="38" viewBox="0 0 190 38" fill="none" xmlns="http://www.w3.org/2000/svg">
<path fill-rule="evenodd" clip-rule="evenodd" d="M188 2H2V36H188V2ZM0 0V38H190V0H0Z" fill="url(#paint0_linear)"/>
<path d="M24.84 18.77C24.84 19.83 24.6633 20.8033 24.31 21.69C23.9567 22.5767 23.46 23.34 22.82 23.98C22.18 24.62 21.41 25.1167 20.51 25.47C19.61 25.8233 18.61 26 17.51 26H12V11.54H17.51C18.61 11.54 19.61 11.72 20.51 12.08C21.41 12.4333 22.18 12.93 22.82 13.57C23.46 14.2033 23.9567 14.9633 24.31 15.85C24.6633 16.7367 24.84 17.71 24.84 18.77ZM22.08 18.77C22.08 17.9767 21.9733 17.2667 21.76 16.64C21.5533 16.0067 21.25 15.4733 20.85 15.04C20.4567 14.6 19.9767 14.2633 19.41 14.03C18.85 13.7967 18.2167 13.68 17.51 13.68H14.7V23.86H17.51C18.2167 23.86 18.85 23.7433 19.41 23.51C19.9767 23.2767 20.4567 22.9433 20.85 22.51C21.25 22.07 21.5533 21.5367 21.76 20.91C21.9733 20.2767 22.08 19.5633 22.08 18.77Z" fill="url(#paint1_linear)"/>
<path d="M29.9148 13.68V17.69H34.9748V19.76H29.9148V23.85H36.3348V26H27.2148V11.54H36.3348V13.68H29.9148Z" fill="url(#paint2_linear)"/>
<path d="M46.4188 14.17C46.3387 14.31 46.2521 14.4133 46.1587 14.48C46.0721 14.54 45.9621 14.57 45.8288 14.57C45.6888 14.57 45.5354 14.52 45.3688 14.42C45.2088 14.3133 45.0154 14.1967 44.7887 14.07C44.5621 13.9433 44.2954 13.83 43.9888 13.73C43.6888 13.6233 43.3321 13.57 42.9188 13.57C42.5454 13.57 42.2188 13.6167 41.9387 13.71C41.6587 13.7967 41.4221 13.92 41.2288 14.08C41.0421 14.24 40.9021 14.4333 40.8088 14.66C40.7154 14.88 40.6687 15.1233 40.6687 15.39C40.6687 15.73 40.7621 16.0133 40.9487 16.24C41.1421 16.4667 41.3954 16.66 41.7087 16.82C42.0221 16.98 42.3788 17.1233 42.7788 17.25C43.1788 17.3767 43.5888 17.5133 44.0088 17.66C44.4287 17.8 44.8387 17.9667 45.2388 18.16C45.6388 18.3467 45.9954 18.5867 46.3088 18.88C46.6221 19.1667 46.8721 19.52 47.0588 19.94C47.2521 20.36 47.3488 20.87 47.3488 21.47C47.3488 22.1233 47.2354 22.7367 47.0088 23.31C46.7887 23.8767 46.4621 24.3733 46.0288 24.8C45.6021 25.22 45.0787 25.5533 44.4587 25.8C43.8387 26.04 43.1287 26.16 42.3287 26.16C41.8687 26.16 41.4154 26.1133 40.9688 26.02C40.5221 25.9333 40.0921 25.8067 39.6787 25.64C39.2721 25.4733 38.8888 25.2733 38.5287 25.04C38.1687 24.8067 37.8487 24.5467 37.5687 24.26L38.3587 22.97C38.4254 22.8767 38.5121 22.8 38.6187 22.74C38.7254 22.6733 38.8387 22.64 38.9587 22.64C39.1254 22.64 39.3054 22.71 39.4987 22.85C39.6921 22.9833 39.9221 23.1333 40.1887 23.3C40.4554 23.4667 40.7654 23.62 41.1187 23.76C41.4788 23.8933 41.9087 23.96 42.4087 23.96C43.1754 23.96 43.7688 23.78 44.1888 23.42C44.6088 23.0533 44.8187 22.53 44.8187 21.85C44.8187 21.47 44.7221 21.16 44.5288 20.92C44.3421 20.68 44.0921 20.48 43.7788 20.32C43.4654 20.1533 43.1087 20.0133 42.7087 19.9C42.3087 19.7867 41.9021 19.6633 41.4888 19.53C41.0754 19.3967 40.6687 19.2367 40.2687 19.05C39.8687 18.8633 39.5121 18.62 39.1987 18.32C38.8854 18.02 38.6321 17.6467 38.4387 17.2C38.2521 16.7467 38.1587 16.19 38.1587 15.53C38.1587 15.0033 38.2621 14.49 38.4688 13.99C38.6821 13.49 38.9888 13.0467 39.3888 12.66C39.7887 12.2733 40.2821 11.9633 40.8687 11.73C41.4554 11.4967 42.1287 11.38 42.8887 11.38C43.7421 11.38 44.5287 11.5133 45.2487 11.78C45.9688 12.0467 46.5821 12.42 47.0887 12.9L46.4188 14.17Z" fill="url(#paint3_linear)"/>
<path d="M52.3953 26H49.6953V11.54H52.3953V26Z" fill="url(#paint4_linear)"/>
<path d="M67.5528 18.75V24.6C66.8195 25.14 66.0361 25.5367 65.2028 25.79C64.3761 26.0367 63.4895 26.16 62.5428 26.16C61.3628 26.16 60.2928 25.9767 59.3328 25.61C58.3795 25.2433 57.5628 24.7333 56.8828 24.08C56.2095 23.4267 55.6895 22.6467 55.3228 21.74C54.9561 20.8333 54.7728 19.8433 54.7728 18.77C54.7728 17.6833 54.9495 16.6867 55.3028 15.78C55.6561 14.8733 56.1561 14.0933 56.8028 13.44C57.4561 12.7867 58.2461 12.28 59.1728 11.92C60.0995 11.56 61.1395 11.38 62.2928 11.38C62.8795 11.38 63.4261 11.4267 63.9328 11.52C64.4461 11.6133 64.9195 11.7433 65.3528 11.91C65.7928 12.07 66.1928 12.2667 66.5528 12.5C66.9128 12.7333 67.2428 12.99 67.5428 13.27L66.7728 14.49C66.6528 14.6833 66.4961 14.8033 66.3028 14.85C66.1095 14.89 65.8995 14.84 65.6728 14.7C65.4528 14.5733 65.2328 14.4467 65.0128 14.32C64.7928 14.1933 64.5461 14.0833 64.2728 13.99C64.0061 13.8967 63.7028 13.82 63.3628 13.76C63.0295 13.7 62.6428 13.67 62.2028 13.67C61.4895 13.67 60.8428 13.79 60.2628 14.03C59.6895 14.27 59.1995 14.6133 58.7928 15.06C58.3861 15.5067 58.0728 16.0433 57.8528 16.67C57.6328 17.2967 57.5228 17.9967 57.5228 18.77C57.5228 19.5967 57.6395 20.3367 57.8728 20.99C58.1128 21.6367 58.4461 22.1867 58.8728 22.64C59.3061 23.0867 59.8261 23.43 60.4328 23.67C61.0395 23.9033 61.7161 24.02 62.4628 24.02C62.9961 24.02 63.4728 23.9633 63.8928 23.85C64.3128 23.7367 64.7228 23.5833 65.1228 23.39V20.77H63.3028C63.1295 20.77 62.9928 20.7233 62.8928 20.63C62.7995 20.53 62.7528 20.41 62.7528 20.27V18.75H67.5528Z" fill="url(#paint5_linear)"/>
<path d="M82.3345 11.54V26H80.9545C80.7412 26 80.5612 25.9667 80.4145 25.9C80.2745 25.8267 80.1379 25.7067 80.0045 25.54L72.4545 15.9C72.4945 16.34 72.5145 16.7467 72.5145 17.12V26H70.1445V11.54H71.5545C71.6679 11.54 71.7645 11.5467 71.8445 11.56C71.9312 11.5667 72.0045 11.5867 72.0645 11.62C72.1312 11.6467 72.1945 11.69 72.2545 11.75C72.3145 11.8033 72.3812 11.8767 72.4545 11.97L80.0345 21.65C80.0145 21.4167 79.9979 21.1867 79.9845 20.96C79.9712 20.7333 79.9645 20.5233 79.9645 20.33V11.54H82.3345Z" fill="url(#paint6_linear)"/>
<path d="M93.1947 20.54L91.4347 15.73C91.348 15.5167 91.258 15.2633 91.1647 14.97C91.0714 14.6767 90.978 14.36 90.8847 14.02C90.798 14.36 90.708 14.68 90.6147 14.98C90.5214 15.2733 90.4314 15.53 90.3447 15.75L88.5947 20.54H93.1947ZM97.9447 26H95.8647C95.6314 26 95.4414 25.9433 95.2947 25.83C95.148 25.71 95.038 25.5633 94.9647 25.39L93.8847 22.44H87.8947L86.8147 25.39C86.7614 25.5433 86.658 25.6833 86.5047 25.81C86.3513 25.9367 86.1614 26 85.9347 26H83.8347L89.5247 11.54H92.2647L97.9447 26Z" fill="url(#paint7_linear)"/>
<path d="M107.141 14.17C107.061 14.31 106.975 14.4133 106.881 14.48C106.795 14.54 106.685 14.57 106.551 14.57C106.411 14.57 106.258 14.52 106.091 14.42C105.931 14.3133 105.738 14.1967 105.511 14.07C105.285 13.9433 105.018 13.83 104.711 13.73C104.411 13.6233 104.055 13.57 103.641 13.57C103.268 13.57 102.941 13.6167 102.661 13.71C102.381 13.7967 102.145 13.92 101.951 14.08C101.765 14.24 101.625 14.4333 101.531 14.66C101.438 14.88 101.391 15.1233 101.391 15.39C101.391 15.73 101.485 16.0133 101.671 16.24C101.865 16.4667 102.118 16.66 102.431 16.82C102.745 16.98 103.101 17.1233 103.501 17.25C103.901 17.3767 104.311 17.5133 104.731 17.66C105.151 17.8 105.561 17.9667 105.961 18.16C106.361 18.3467 106.718 18.5867 107.031 18.88C107.345 19.1667 107.595 19.52 107.781 19.94C107.975 20.36 108.071 20.87 108.071 21.47C108.071 22.1233 107.958 22.7367 107.731 23.31C107.511 23.8767 107.185 24.3733 106.751 24.8C106.325 25.22 105.801 25.5533 105.181 25.8C104.561 26.04 103.851 26.16 103.051 26.16C102.591 26.16 102.138 26.1133 101.691 26.02C101.245 25.9333 100.815 25.8067 100.401 25.64C99.9947 25.4733 99.6114 25.2733 99.2514 25.04C98.8914 24.8067 98.5714 24.5467 98.2914 24.26L99.0814 22.97C99.1481 22.8767 99.2347 22.8 99.3414 22.74C99.4481 22.6733 99.5614 22.64 99.6814 22.64C99.8481 22.64 100.028 22.71 100.221 22.85C100.415 22.9833 100.645 23.1333 100.911 23.3C101.178 23.4667 101.488 23.62 101.841 23.76C102.201 23.8933 102.631 23.96 103.131 23.96C103.898 23.96 104.491 23.78 104.911 23.42C105.331 23.0533 105.541 22.53 105.541 21.85C105.541 21.47 105.445 21.16 105.251 20.92C105.065 20.68 104.815 20.48 104.501 20.32C104.188 20.1533 103.831 20.0133 103.431 19.9C103.031 19.7867 102.625 19.6633 102.211 19.53C101.798 19.3967 101.391 19.2367 100.991 19.05C100.591 18.8633 100.235 18.62 99.9214 18.32C99.6081 18.02 99.3547 17.6467 99.1614 17.2C98.9747 16.7467 98.8814 16.19 98.8814 15.53C98.8814 15.0033 98.9847 14.49 99.1914 13.99C99.4047 13.49 99.7114 13.0467 100.111 12.66C100.511 12.2733 101.005 11.9633 101.591 11.73C102.178 11.4967 102.851 11.38 103.611 11.38C104.465 11.38 105.251 11.5133 105.971 11.78C106.691 12.0467 107.305 12.42 107.811 12.9L107.141 14.17Z" fill="url(#paint8_linear)"/>
<path d="M113.118 26H110.418V11.54H113.118V26Z" fill="url(#paint9_linear)"/>
<path d="M126.455 13.75H122.095V26H119.405V13.75H115.045V11.54H126.455V13.75Z" fill="url(#paint10_linear)"/>
<path d="M131.048 13.68V17.69H136.108V19.76H131.048V23.85H137.468V26H128.348V11.54H137.468V13.68H131.048Z" fill="url(#paint11_linear)"/>
<path d="M156.43 24.15V26H148.43V24.15H151.36V15.72C151.36 15.3867 151.37 15.0433 151.39 14.69L149.31 16.43C149.19 16.5233 149.07 16.5833 148.95 16.61C148.837 16.63 148.727 16.63 148.62 16.61C148.52 16.59 148.43 16.5567 148.35 16.51C148.27 16.4567 148.21 16.4 148.17 16.34L147.39 15.27L151.8 11.52H153.83V24.15H156.43Z" fill="#C93CDD"/>
<path d="M168.782 18.77C168.782 20.03 168.645 21.1267 168.372 22.06C168.105 22.9867 167.732 23.7533 167.252 24.36C166.778 24.9667 166.215 25.42 165.562 25.72C164.915 26.0133 164.215 26.16 163.462 26.16C162.708 26.16 162.008 26.0133 161.362 25.72C160.722 25.42 160.165 24.9667 159.692 24.36C159.218 23.7533 158.848 22.9867 158.582 22.06C158.315 21.1267 158.182 20.03 158.182 18.77C158.182 17.5033 158.315 16.4067 158.582 15.48C158.848 14.5533 159.218 13.7867 159.692 13.18C160.165 12.5733 160.722 12.1233 161.362 11.83C162.008 11.53 162.708 11.38 163.462 11.38C164.215 11.38 164.915 11.53 165.562 11.83C166.215 12.1233 166.778 12.5733 167.252 13.18C167.732 13.7867 168.105 14.5533 168.372 15.48C168.645 16.4067 168.782 17.5033 168.782 18.77ZM166.232 18.77C166.232 17.7233 166.155 16.8567 166.002 16.17C165.848 15.4833 165.642 14.9367 165.382 14.53C165.128 14.1233 164.835 13.84 164.502 13.68C164.168 13.5133 163.822 13.43 163.462 13.43C163.108 13.43 162.765 13.5133 162.432 13.68C162.105 13.84 161.815 14.1233 161.562 14.53C161.308 14.9367 161.105 15.4833 160.952 16.17C160.805 16.8567 160.732 17.7233 160.732 18.77C160.732 19.8167 160.805 20.6833 160.952 21.37C161.105 22.0567 161.308 22.6033 161.562 23.01C161.815 23.4167 162.105 23.7033 162.432 23.87C162.765 24.03 163.108 24.11 163.462 24.11C163.822 24.11 164.168 24.03 164.502 23.87C164.835 23.7033 165.128 23.4167 165.382 23.01C165.642 22.6033 165.848 22.0567 166.002 21.37C166.155 20.6833 166.232 19.8167 166.232 18.77Z" fill="#C93CDD"/>
<path d="M179.633 24.15V26H171.633V24.15H174.563V15.72C174.563 15.3867 174.573 15.0433 174.593 14.69L172.513 16.43C172.393 16.5233 172.273 16.5833 172.153 16.61C172.04 16.63 171.93 16.63 171.823 16.61C171.723 16.59 171.633 16.5567 171.553 16.51C171.473 16.4567 171.413 16.4 171.373 16.34L170.593 15.27L175.003 11.52H177.033V24.15H179.633Z" fill="#C93CDD"/>
<defs>
<linearGradient id="paint0_linear" x1="-10.0631" y1="-13.8327" x2="177.202" y2="-42.7718" gradientUnits="userSpaceOnUse">
<stop stop-color="#3949DB"/>
<stop offset="0.368745" stop-color="#D839DB"/>
<stop offset="1" stop-color="#3949DB"/>
</linearGradient>
<linearGradient id="paint1_linear" x1="5.35475" y1="5.99979" x2="123.815" y2="-25.0806" gradientUnits="userSpaceOnUse">
<stop stop-color="#3949DB"/>
<stop offset="0.368745" stop-color="#D839DB"/>
<stop offset="1" stop-color="#3949DB"/>
</linearGradient>
<linearGradient id="paint2_linear" x1="5.35475" y1="5.99979" x2="123.815" y2="-25.0806" gradientUnits="userSpaceOnUse">
<stop stop-color="#3949DB"/>
<stop offset="0.368745" stop-color="#D839DB"/>
<stop offset="1" stop-color="#3949DB"/>
</linearGradient>
<linearGradient id="paint3_linear" x1="5.35475" y1="5.99979" x2="123.815" y2="-25.0806" gradientUnits="userSpaceOnUse">
<stop stop-color="#3949DB"/>
<stop offset="0.368745" stop-color="#D839DB"/>
<stop offset="1" stop-color="#3949DB"/>
</linearGradient>
<linearGradient id="paint4_linear" x1="5.35475" y1="5.99979" x2="123.815" y2="-25.0806" gradientUnits="userSpaceOnUse">
<stop stop-color="#3949DB"/>
<stop offset="0.368745" stop-color="#D839DB"/>
<stop offset="1" stop-color="#3949DB"/>
</linearGradient>
<linearGradient id="paint5_linear" x1="5.35475" y1="5.99979" x2="123.815" y2="-25.0806" gradientUnits="userSpaceOnUse">
<stop stop-color="#3949DB"/>
<stop offset="0.368745" stop-color="#D839DB"/>
<stop offset="1" stop-color="#3949DB"/>
</linearGradient>
<linearGradient id="paint6_linear" x1="5.35475" y1="5.99979" x2="123.815" y2="-25.0806" gradientUnits="userSpaceOnUse">
<stop stop-color="#3949DB"/>
<stop offset="0.368745" stop-color="#D839DB"/>
<stop offset="1" stop-color="#3949DB"/>
</linearGradient>
<linearGradient id="paint7_linear" x1="5.35475" y1="5.99979" x2="123.815" y2="-25.0806" gradientUnits="userSpaceOnUse">
<stop stop-color="#3949DB"/>
<stop offset="0.368745" stop-color="#D839DB"/>
<stop offset="1" stop-color="#3949DB"/>
</linearGradient>
<linearGradient id="paint8_linear" x1="5.35475" y1="5.99979" x2="123.815" y2="-25.0806" gradientUnits="userSpaceOnUse">
<stop stop-color="#3949DB"/>
<stop offset="0.368745" stop-color="#D839DB"/>
<stop offset="1" stop-color="#3949DB"/>
</linearGradient>
<linearGradient id="paint9_linear" x1="5.35475" y1="5.99979" x2="123.815" y2="-25.0806" gradientUnits="userSpaceOnUse">
<stop stop-color="#3949DB"/>
<stop offset="0.368745" stop-color="#D839DB"/>
<stop offset="1" stop-color="#3949DB"/>
</linearGradient>
<linearGradient id="paint10_linear" x1="5.35475" y1="5.99979" x2="123.815" y2="-25.0806" gradientUnits="userSpaceOnUse">
<stop stop-color="#3949DB"/>
<stop offset="0.368745" stop-color="#D839DB"/>
<stop offset="1" stop-color="#3949DB"/>
</linearGradient>
<linearGradient id="paint11_linear" x1="5.35475" y1="5.99979" x2="123.815" y2="-25.0806" gradientUnits="userSpaceOnUse">
<stop stop-color="#3949DB"/>
<stop offset="0.368745" stop-color="#D839DB"/>
<stop offset="1" stop-color="#3949DB"/>
</linearGradient>
</defs>
</svg>
