<svg width="143" height="142" viewBox="0 0 143 142" fill="none" xmlns="http://www.w3.org/2000/svg">
<g opacity="0.2" filter="url(#filter0_f)">
<circle cx="71.5" cy="70.9737" r="27.7105" fill="#3949DB"/>
</g>
<circle cx="71.5" cy="65.5" r="32.5" fill="white"/>
<circle cx="71.5" cy="65.5" r="32" stroke="#3949DB" stroke-opacity="0.06"/>
<path d="M89 67.7813C89 66.9049 88.6514 66.0882 88.0506 65.4859C88.7317 64.7407 89.0788 63.7417 88.9839 62.7019C88.8133 60.8484 87.1435 59.3959 85.1806 59.3959H76.1725C76.6187 58.0411 77.3333 55.5576 77.3333 53.5626C77.3333 50.3994 74.6456 47.7292 72.9583 47.7292C71.4446 47.7292 70.361 48.5824 70.3158 48.6174C70.1422 48.7559 70.0416 48.9659 70.0416 49.1876V54.1327L65.8402 63.2313L65.6666 63.3202V63.0417C65.6666 62.6392 65.3399 62.3125 64.9374 62.3125H57.6458C55.6348 62.3126 54 63.9474 54 65.9584V77.6251C54 79.6361 55.6348 81.2709 57.6458 81.2709H62.0208C63.5972 81.2709 64.9447 80.2646 65.4522 78.8602C66.6656 79.4844 68.2989 79.8126 69.3125 79.8126H82.6986C84.2867 79.8126 85.6765 78.7421 86.0031 77.2663C86.1708 76.5051 86.0731 75.7394 85.7406 75.0744C86.8169 74.5334 87.5417 73.4207 87.5417 72.1563C87.5417 71.6401 87.4236 71.1457 87.2004 70.6994C88.2767 70.1569 89 69.0457 89 67.7813ZM85.9244 69.5809C85.6429 69.6144 85.4052 69.8054 85.3148 70.0752C85.2259 70.3451 85.3003 70.6411 85.5073 70.8365C85.8778 71.1851 86.0834 71.6546 86.0834 72.1563C86.0834 73.0765 85.3878 73.8494 84.4676 73.9559C84.1861 73.9894 83.9484 74.1804 83.858 74.4502C83.7691 74.7201 83.8434 75.0161 84.0505 75.2115C84.5303 75.6636 84.7228 76.2979 84.5784 76.9513C84.3991 77.7651 83.6086 78.3542 82.6986 78.3542H69.3125C68.1283 78.3542 66.1421 77.7986 65.4538 77.1088C65.2452 76.9017 64.9302 76.8405 64.6589 76.9513C64.3863 77.0636 64.2083 77.3305 64.2083 77.6251C64.2083 78.8311 63.2269 79.8126 62.0208 79.8126H57.6458C56.4397 79.8126 55.4583 78.8311 55.4583 77.6251V65.9584C55.4583 64.7523 56.4397 63.7709 57.6458 63.7709H64.2083V64.5001C64.2083 64.7524 64.3396 64.9871 64.5554 65.1213C64.7683 65.2496 65.0366 65.2627 65.2641 65.1519L66.7224 64.4227C66.8697 64.3498 66.9879 64.2273 67.0579 64.0771L71.4329 54.5979C71.4766 54.5017 71.4999 54.3967 71.4999 54.2917V49.5827C71.8033 49.4151 72.3298 49.1876 72.9583 49.1876C73.7575 49.1876 75.875 51.1738 75.875 53.5626C75.875 56.1292 74.4779 59.829 74.4648 59.8655C74.3803 60.0886 74.4094 60.3409 74.545 60.5392C74.6821 60.7361 74.9067 60.8542 75.1458 60.8542H85.1806C86.3969 60.8542 87.4294 61.7249 87.5314 62.8361C87.6087 63.6674 87.2091 64.4578 86.4931 64.8997C86.27 65.0367 86.1373 65.2847 86.1475 65.5486C86.1577 65.8126 86.3094 66.0488 86.5427 66.1699C87.1596 66.4834 87.5416 67.1017 87.5416 67.7813C87.5417 68.7015 86.8461 69.4744 85.9244 69.5809Z" fill="#3949DB"/>
<path d="M64.9375 63.7708C64.535 63.7708 64.2083 64.0974 64.2083 64.4999V77.625C64.2083 78.0275 64.535 78.3541 64.9375 78.3541C65.34 78.3541 65.6667 78.0275 65.6667 77.625V64.4999C65.6667 64.0974 65.34 63.7708 64.9375 63.7708Z" fill="#3949DB"/>
<defs>
<filter id="filter0_f" x="0.789429" y="0.263184" width="141.421" height="141.421" filterUnits="userSpaceOnUse" color-interpolation-filters="sRGB">
<feFlood flood-opacity="0" result="BackgroundImageFix"/>
<feBlend mode="normal" in="SourceGraphic" in2="BackgroundImageFix" result="shape"/>
<feGaussianBlur stdDeviation="21.5" result="effect1_foregroundBlur"/>
</filter>
</defs>
</svg>
