<svg width="143" height="142" viewBox="0 0 143 142" fill="none" xmlns="http://www.w3.org/2000/svg">
<g opacity="0.2" filter="url(#filter0_f)">
<circle cx="71.5" cy="70.9737" r="27.7105" fill="#3949DB"/>
</g>
<circle cx="71.5" cy="65.5" r="32.5" fill="white"/>
<circle cx="71.5" cy="65.5" r="32" stroke="#3949DB" stroke-opacity="0.06"/>
<path d="M81.7143 59.7143H80.6428V58.6429C80.6369 53.3197 76.3231 49.0059 71 49C65.6768 49.0059 61.363 53.3197 61.3571 58.6429V59.7143H60.2857C59.694 59.7143 59.2143 60.194 59.2143 60.7857V77.9285C59.2143 78.5203 59.694 79 60.2857 79H81.7143C82.306 79 82.7857 78.5203 82.7857 77.9285V60.7857C82.7857 60.194 82.306 59.7143 81.7143 59.7143ZM63.5 58.6429C63.5 54.5007 66.8579 51.1428 71 51.1428C75.1422 51.1428 78.5 54.5007 78.5 58.6429V59.7143H63.5V58.6429ZM80.6428 76.8571H61.3571V61.8571H80.6428V76.8571Z" fill="#3949DB"/>
<path d="M74.0307 67.2129C73.578 65.9277 72.3626 65.0688 71 65.0714C69.2289 65.0681 67.7905 66.5011 67.7871 68.2721C67.7846 69.6348 68.6434 70.8502 69.9286 71.3029V73.6429C69.9286 74.2346 70.4083 74.7143 71 74.7143C71.5918 74.7143 72.0714 74.2346 72.0714 73.6428V71.3029C73.7419 70.7145 74.6191 68.8833 74.0307 67.2129ZM71 69.3572C70.4082 69.3572 69.9285 68.8775 69.9285 68.2857C69.9285 67.6939 70.4082 67.2143 71 67.2143C71.5917 67.2143 72.0714 67.6939 72.0714 68.2857C72.0714 68.8775 71.5917 69.3572 71 69.3572Z" fill="#3949DB"/>
<defs>
<filter id="filter0_f" x="0.789444" y="0.263184" width="141.421" height="141.421" filterUnits="userSpaceOnUse" color-interpolation-filters="sRGB">
<feFlood flood-opacity="0" result="BackgroundImageFix"/>
<feBlend mode="normal" in="SourceGraphic" in2="BackgroundImageFix" result="shape"/>
<feGaussianBlur stdDeviation="21.5" result="effect1_foregroundBlur"/>
</filter>
</defs>
</svg>
