<svg width="68" height="68" viewBox="0 0 68 68" fill="none" xmlns="http://www.w3.org/2000/svg">
<g clip-path="url(#clip0)">
<path d="M68.0001 5.97656C68.0001 2.68109 65.319 0 62.0235 0H5.97662C2.68115 0 6.10352e-05 2.68109 6.10352e-05 5.97656V46.0859C6.10352e-05 49.3814 2.68115 52.0625 5.97662 52.0625H23.9063V56.247C19.3653 57.1726 15.9376 61.1975 15.9376 66.0078C15.9376 67.108 16.8295 68 17.9297 68H50.0856C50.0874 68 50.0891 67.9997 50.0908 67.9997C59.968 67.9886 68.0001 59.95 68.0001 50.0703C68.0001 49.2115 67.938 48.3673 67.8208 47.5404C67.9395 47.0665 68.0001 46.5795 68.0001 46.0859V5.97656ZM5.97662 48.0781C4.87813 48.0781 3.98444 47.1844 3.98444 46.0859V44.0805H33.1663C32.7163 45.3495 32.4054 46.697 32.252 48.0781H5.97662ZM33.1663 56.0469H27.8907V52.0625H32.252C32.4054 53.4436 32.7162 54.7779 33.1663 56.0469ZM20.2633 64.0156C21.0855 61.6966 23.3012 60.0312 25.8985 60.0312H35.1696C36.1787 61.5358 37.4096 62.8793 38.8148 64.0156H20.2633ZM50.0704 64.0156C42.3809 64.0156 36.1251 57.7598 36.1251 50.0703C36.1251 42.3809 42.3809 36.125 50.0704 36.125C57.7598 36.125 64.0157 42.3809 64.0157 50.0703C64.0157 57.7598 57.7598 64.0156 50.0704 64.0156ZM64.0157 38.8146C60.7261 34.7469 55.6972 32.1406 50.0704 32.1406C43.867 32.1406 38.3899 35.3077 35.1696 40.1094H3.98444V5.97656C3.98444 4.87807 4.87813 3.98438 5.97662 3.98438H62.0235C63.122 3.98438 64.0157 4.87807 64.0157 5.97656V38.8146Z" fill="url(#paint0_linear)"/>
<path d="M30.8949 14.2252C30.7083 14.1144 32.0484 14.9246 20.9876 8.2182C20.3545 7.83437 19.5608 7.83331 18.9269 8.21528L8.95693 14.2205C8.36671 14.5653 7.96893 15.214 7.96893 15.9414V27.9804C7.96893 28.6711 8.3266 29.3124 8.91429 29.6754L18.8752 35.8278C19.1765 36.0136 19.5459 36.125 19.9221 36.125C20.2905 36.125 20.6624 36.0169 20.9689 35.8278L30.9298 29.6754C31.5174 29.3124 31.8752 28.6711 31.8752 27.9804V15.9414C31.8751 14.7508 30.9078 14.2385 30.8949 14.2252ZM17.9297 30.5608L11.9532 26.8695V19.473L17.9297 23.0847V30.5608ZM19.9219 19.6332L13.8175 15.9442L19.9514 12.2496L26.0358 15.9386L19.9219 19.6332ZM27.8907 26.8695L21.9141 30.5608V23.0848L27.8907 19.4731V26.8695Z" fill="url(#paint1_linear)"/>
<path d="M54.0547 12.0859H46.086C44.9858 12.0859 44.0938 12.9779 44.0938 14.0781C44.0938 15.1783 44.9858 16.0703 46.086 16.0703H54.0547C55.155 16.0703 56.0469 15.1783 56.0469 14.0781C56.0469 12.9779 55.155 12.0859 54.0547 12.0859Z" fill="url(#paint2_linear)"/>
<path d="M54.0547 20.0547H46.086C44.9858 20.0547 44.0938 20.9467 44.0938 22.0469C44.0938 23.1471 44.9858 24.0391 46.086 24.0391H54.0547C55.155 24.0391 56.0469 23.1471 56.0469 22.0469C56.0469 20.9467 55.155 20.0547 54.0547 20.0547Z" fill="url(#paint3_linear)"/>
<path d="M50.0704 44.0938C46.7749 44.0938 44.0938 46.7748 44.0938 50.0703C44.0938 50.0738 44.0941 50.0771 44.0941 50.0805V50.1147C44.0941 50.1264 44.0957 50.1375 44.0958 50.1491C44.1383 53.4083 46.8012 56.0469 50.0704 56.0469C53.3659 56.0469 56.0469 53.3658 56.0469 50.0703C56.0469 46.7748 53.3659 44.0938 50.0704 44.0938ZM50.0704 52.0625C48.9735 52.0625 48.0812 51.1716 48.0785 50.0755V50.0703C48.0785 50.0694 48.0783 50.0686 48.0783 50.0678C48.0798 48.9705 48.9727 48.0781 50.0704 48.0781C51.1689 48.0781 52.0626 48.9718 52.0626 50.0703C52.0626 51.1688 51.1689 52.0625 50.0704 52.0625Z" fill="url(#paint4_linear)"/>
</g>
<defs>
<linearGradient id="paint0_linear" x1="34.0001" y1="0" x2="34.0001" y2="68" gradientUnits="userSpaceOnUse">
<stop stop-color="#3949DB"/>
<stop offset="0.078125" stop-color="#D839DB"/>
<stop offset="1" stop-color="#3949DB"/>
</linearGradient>
<linearGradient id="paint1_linear" x1="19.9221" y1="7.92957" x2="19.9221" y2="36.125" gradientUnits="userSpaceOnUse">
<stop stop-color="#3949DB"/>
<stop offset="0.078125" stop-color="#D839DB"/>
<stop offset="1" stop-color="#3949DB"/>
</linearGradient>
<linearGradient id="paint2_linear" x1="50.0704" y1="12.0859" x2="50.0704" y2="16.0703" gradientUnits="userSpaceOnUse">
<stop stop-color="#3949DB"/>
<stop offset="0.078125" stop-color="#D839DB"/>
<stop offset="1" stop-color="#3949DB"/>
</linearGradient>
<linearGradient id="paint3_linear" x1="50.0704" y1="20.0547" x2="50.0704" y2="24.0391" gradientUnits="userSpaceOnUse">
<stop stop-color="#3949DB"/>
<stop offset="0.078125" stop-color="#D839DB"/>
<stop offset="1" stop-color="#3949DB"/>
</linearGradient>
<linearGradient id="paint4_linear" x1="50.0704" y1="44.0938" x2="50.0704" y2="56.0469" gradientUnits="userSpaceOnUse">
<stop stop-color="#3949DB"/>
<stop offset="0.078125" stop-color="#D839DB"/>
<stop offset="1" stop-color="#3949DB"/>
</linearGradient>
<clipPath id="clip0">
<rect width="68" height="68" fill="white"/>
</clipPath>
</defs>
</svg>
