<svg width="479" height="264" viewBox="0 0 479 264" fill="none" xmlns="http://www.w3.org/2000/svg">
<g clip-path="url(#clip0)">
<path d="M475.981 0.215088H97.4428V243.335H475.981V0.215088Z" fill="#E6E6E6"/>
<path d="M267.573 32.8623H130.915V173.684H267.573V32.8623Z" fill="white"/>
<path d="M455.341 35.5933H318.684V206.63H455.341V35.5933Z" fill="white"/>
<path d="M454.52 261.012C468.04 261.012 479 259.442 479 257.505C479 255.568 468.04 253.998 454.52 253.998C441 253.998 430.04 255.568 430.04 257.505C430.04 259.442 441 261.012 454.52 261.012Z" fill="#E6E6E6"/>
<path d="M209.774 261.091C223.294 261.091 234.254 259.52 234.254 257.583C234.254 255.647 223.294 254.076 209.774 254.076C196.254 254.076 185.294 255.647 185.294 257.583C185.294 259.52 196.254 261.091 209.774 261.091Z" fill="#E6E6E6"/>
<path d="M55.1827 256.774C86.2116 256.774 111.365 255.566 111.365 254.076C111.365 252.586 86.2116 251.379 55.1827 251.379C24.1539 251.379 -1 252.586 -1 254.076C-1 255.566 24.1539 256.774 55.1827 256.774Z" fill="#E6E6E6"/>
<path d="M475.819 0H97.2812V16.1273H475.819V0Z" fill="#C83BDC"/>
<path d="M109.232 11.2342C110.878 11.2342 112.212 9.89599 112.212 8.24518C112.212 6.59436 110.878 5.2561 109.232 5.2561C107.586 5.2561 106.251 6.59436 106.251 8.24518C106.251 9.89599 107.586 11.2342 109.232 11.2342Z" fill="#E6E6E6"/>
<path d="M120.545 11.2342C122.192 11.2342 123.526 9.89599 123.526 8.24518C123.526 6.59436 122.192 5.2561 120.545 5.2561C118.899 5.2561 117.565 6.59436 117.565 8.24518C117.565 9.89599 118.899 11.2342 120.545 11.2342Z" fill="#E6E6E6"/>
<path d="M131.859 11.2342C133.505 11.2342 134.84 9.89599 134.84 8.24518C134.84 6.59436 133.505 5.2561 131.859 5.2561C130.213 5.2561 128.878 6.59436 128.878 8.24518C128.878 9.89599 130.213 11.2342 131.859 11.2342Z" fill="#E6E6E6"/>
<path d="M425.212 81.4709H424.384V58.7287C424.384 57.0002 424.045 55.2886 423.385 53.6916C422.726 52.0947 421.759 50.6436 420.54 49.4214C419.321 48.1991 417.874 47.2296 416.282 46.5681C414.69 45.9066 412.983 45.5662 411.259 45.5662H363.213C361.489 45.5662 359.783 45.9066 358.19 46.5681C356.598 47.2296 355.151 48.1991 353.932 49.4214C352.713 50.6436 351.746 52.0947 351.087 53.6916C350.427 55.2886 350.088 57.0002 350.088 58.7287V183.494C350.088 185.223 350.427 186.934 351.087 188.531C351.746 190.128 352.713 191.579 353.932 192.802C355.151 194.024 356.598 194.993 358.19 195.655C359.783 196.316 361.489 196.657 363.213 196.657H411.259C412.983 196.657 414.69 196.316 416.282 195.655C417.874 194.993 419.321 194.024 420.54 192.802C421.759 191.579 422.726 190.128 423.385 188.531C424.045 186.934 424.384 185.223 424.384 183.494V97.6592H425.212V81.4709Z" fill="#3F3D56"/>
<path d="M411.251 48.9905H404.979C405.268 49.6996 405.378 50.4689 405.3 51.2308C405.222 51.9926 404.958 52.7235 404.532 53.3591C404.106 53.9948 403.531 54.5156 402.857 54.8757C402.183 55.2358 401.431 55.4242 400.668 55.4243H373.143C372.379 55.4242 371.627 55.2358 370.953 54.8757C370.279 54.5155 369.704 53.9947 369.278 53.3591C368.852 52.7235 368.588 51.9926 368.51 51.2308C368.433 50.4689 368.543 49.6996 368.831 48.9905H362.973C361.686 48.9905 360.412 49.2447 359.222 49.7387C358.033 50.2327 356.953 50.9567 356.042 51.8695C355.132 52.7823 354.41 53.8659 353.918 55.0585C353.425 56.2511 353.171 57.5293 353.171 58.8201V183.402C353.171 184.693 353.425 185.972 353.918 187.164C354.41 188.357 355.132 189.44 356.042 190.353C356.953 191.266 358.033 191.99 359.222 192.484C360.412 192.978 361.686 193.232 362.973 193.232H411.251C412.538 193.232 413.813 192.978 415.002 192.484C416.191 191.99 417.272 191.266 418.182 190.353C419.092 189.44 419.814 188.357 420.306 187.164C420.799 185.972 421.053 184.693 421.053 183.402V58.8201C421.053 56.2131 420.02 53.7129 418.182 51.8695C416.344 50.0261 413.85 48.9905 411.251 48.9905Z" fill="white"/>
<path d="M246.831 121.816H151.846V126.161H246.831V121.816Z" fill="#E6E6E6"/>
<path d="M246.831 135.845H151.846V140.19H246.831V135.845Z" fill="#C83BDC"/>
<path d="M246.831 149.873H151.846V154.218H246.831V149.873Z" fill="#E6E6E6"/>
<path d="M415.375 131.296H359.925V135.641H415.375V131.296Z" fill="#E6E6E6"/>
<path d="M415.375 144.785H359.925V149.13H415.375V144.785Z" fill="#E6E6E6"/>
<path d="M415.375 158.274H359.925V162.618H415.375V158.274Z" fill="#E6E6E6"/>
<path d="M421.173 225.741V216.473H411.931V225.741H421.173Z" fill="#3F3D56"/>
<path d="M406.283 225.741V216.473H397.042V225.741H406.283Z" fill="#C83BDC"/>
<path d="M391.394 225.741V216.473H382.152V225.741H391.394Z" fill="#3F3D56"/>
<path d="M376.504 225.741V216.473H367.263V225.741H376.504Z" fill="#3F3D56"/>
<path d="M361.615 225.741V216.473H352.373V225.741H361.615Z" fill="#3F3D56"/>
<path d="M402.515 74.9917H371.709V105.885H402.515V74.9917Z" fill="#C83BDC"/>
<path d="M187.095 148.695L186.696 149.495L185.5 143.497C185.5 143.497 183.905 137.099 187.095 137.099C190.285 137.099 189.487 143.497 189.487 143.497V147.896L187.095 148.695Z" fill="#A0616A"/>
<path d="M239.412 147.876L239.811 148.676L241.007 142.678C241.007 142.678 242.602 136.28 239.412 136.28C236.222 136.28 237.02 142.678 237.02 142.678V147.076L239.412 147.876Z" fill="#A0616A"/>
<path d="M204.639 193.665L199.855 223.256L202.247 252.046L207.829 249.648L207.032 228.054L212.614 210.859L213.81 231.253L211.418 252.446L218.595 253.246L223.779 209.66L223.381 194.864L204.639 193.665Z" fill="#2F2E41"/>
<path d="M204.639 248.448L201.848 252.846V262.675C201.848 262.958 201.949 263.232 202.132 263.447C202.315 263.663 202.568 263.806 202.847 263.851C204.215 264.076 206.597 264.236 207.431 262.843C208.627 260.844 207.829 256.445 207.829 256.445C207.829 256.445 209.424 253.246 208.627 250.847C207.829 248.448 207.032 248.048 207.032 248.048L204.639 248.448Z" fill="#2F2E41"/>
<path d="M216.602 252.447L217.399 253.646C217.399 253.646 218.595 254.846 217.798 255.646C217.213 256.267 216.679 256.936 216.203 257.645C216.203 257.645 211.817 258.845 211.817 257.245V252.047L216.602 252.447Z" fill="#2F2E41"/>
<path d="M215.165 161.119C218.084 161.119 220.45 158.746 220.45 155.818C220.45 152.891 218.084 150.518 215.165 150.518C212.245 150.518 209.879 152.891 209.879 155.818C209.879 158.746 212.245 161.119 215.165 161.119Z" fill="#A0616A"/>
<path d="M211.617 157.476L211.219 165.074L218.396 165.474L217.997 157.876L211.617 157.476Z" fill="#A0616A"/>
<path d="M219.393 165.673L218.261 162.9C218.261 162.9 213.013 160.875 211.418 162.874L210.621 165.273L204.241 163.674L200.652 171.671L203.842 194.464C203.842 194.464 212.216 205.261 223.38 194.864L226.57 173.271L224.178 164.873L219.393 165.673Z" fill="#575A89"/>
<path d="M223.381 166.473L224.178 164.874L232.153 160.075L237.02 145.627L240.786 147.246L236.539 164.474L224.975 175.27L223.381 166.473Z" fill="#575A89"/>
<path d="M205.038 164.474L204.241 163.674L195.867 158.476L189.886 146.479L185.101 148.078L190.284 162.874L203.045 173.271L205.038 164.474Z" fill="#575A89"/>
<path d="M219.088 147.701L219.952 147.268L218.656 146.834V146.401C218.656 146.401 212.174 143.801 211.31 148.134C210.194 149.637 209.592 151.461 209.592 153.334C209.592 155.208 210.194 157.031 211.31 158.534V159.834L218.223 160.701L219.088 158.101C219.088 158.101 223.409 150.301 219.088 147.701Z" fill="#2F2E41"/>
<path d="M61.9206 194.134L60.3843 194.904C60.3843 194.904 54.2392 197.729 56.0315 199.269C57.8239 200.81 62.6887 197.729 62.6887 197.729L63.7129 196.445L61.9206 194.134Z" fill="#FFB8B8"/>
<path d="M105.868 193.75L101.12 225.717L93.9503 248.056L90.1099 246.259L93.6942 215.703L83.4524 206.973L84.2207 194.134L105.868 193.75Z" fill="#2F2E41"/>
<path d="M89.5976 247.029C89.5976 247.029 93.9504 244.718 94.2065 248.056L93.6944 251.394C93.6944 251.394 95.2307 257.3 90.1097 256.016C84.9888 254.732 88.5735 250.881 88.5735 250.881L89.5976 247.029Z" fill="#2F2E41"/>
<path d="M86.7812 204.148L83.4526 206.973C83.4526 206.973 83.4526 224.433 85.757 227.001C88.0614 229.569 102.656 242.664 103.168 243.178C103.68 243.691 105.985 238.042 105.985 238.042L92.1581 221.865L93.1823 211.851L86.7812 204.148Z" fill="#2F2E41"/>
<path d="M104.448 237.272C104.448 237.272 108.545 236.501 108.545 239.326C108.596 241.559 108.767 243.787 109.057 246.002C109.057 246.002 110.081 254.989 106.753 253.705C103.424 252.421 102.144 243.434 102.144 243.434C102.454 242.687 102.991 242.058 103.68 241.637C104.704 241.123 104.448 237.272 104.448 237.272Z" fill="#2F2E41"/>
<path d="M92.6459 155.618L93.4142 165.119L91.366 168.714L85.7329 163.321L85.2207 156.132L92.6459 155.618Z" fill="#FFB8B8"/>
<path d="M88.0372 158.7C91.4311 158.7 94.1823 155.941 94.1823 152.537C94.1823 149.134 91.4311 146.375 88.0372 146.375C84.6434 146.375 81.8921 149.134 81.8921 152.537C81.8921 155.941 84.6434 158.7 88.0372 158.7Z" fill="#FFB8B8"/>
<path d="M89.5977 164.862L92.1581 157.416L96.7668 162.551L105.216 195.161L98.815 199.013L95.9991 194.904L95.4869 200.296L82.9402 197.729L81.9164 163.321L84.4752 159.707L89.5977 164.862Z" fill="#D0CDE1"/>
<path d="M87.0129 201.324L85.4768 159.727L82.1481 162.295L76.0028 166.403L80.0999 181.039L81.3798 196.445L87.0129 201.324Z" fill="#2F2E41"/>
<path d="M77.7955 166.659L76.0028 166.403L70.882 181.552L60.6402 194.391L64.4811 198.499L76.2589 186.944L80.612 177.444L77.7955 166.659Z" fill="#2F2E41"/>
<path d="M104.758 194.369L104.408 196.056C104.408 196.056 102.81 202.642 105.126 202.187C107.443 201.731 108.047 195.993 108.047 195.993L107.677 194.391L104.758 194.369Z" fill="#FFB8B8"/>
<path d="M91.7578 156.999L104.448 162.038L102.912 177.444L105.985 194.391L102.912 197.729L91.5512 159.181L91.7578 156.999Z" fill="#2F2E41"/>
<path d="M87.3589 142.187L89.1627 141.282V142.187L90.3652 141.584V143.091C90.3652 143.091 94.8747 146.408 93.9728 150.327C93.0709 154.246 93.0709 154.548 93.0709 154.548C93.0709 154.548 91.9307 147.094 87.4213 148.3C82.9118 149.506 82.5489 149.724 81.3464 153.04L81.0201 154.463C81.0201 154.463 75.9351 142.79 87.3589 142.187Z" fill="#2F2E41"/>
<path d="M102.656 162.038H104.704L108.033 180.012V195.675L103.936 194.904L100.608 171.281L102.656 162.038Z" fill="#2F2E41"/>
<path d="M77.3974 200.049H1.90191V252.66H77.3974V200.049Z" fill="#C83BDC"/>
<path d="M39.6496 210.314C36.4862 210.314 33.3937 211.255 30.7634 213.017C28.1331 214.78 26.083 217.285 24.8724 220.216C23.6618 223.147 23.345 226.372 23.9622 229.484C24.5793 232.595 26.1027 235.453 28.3396 237.697C30.5765 239.94 33.4265 241.467 36.5292 242.086C39.6319 242.705 42.8479 242.388 45.7706 241.174C48.6932 239.96 51.1913 237.904 52.9488 235.266C54.7063 232.628 55.6444 229.527 55.6444 226.354C55.632 222.104 53.9429 218.031 50.946 215.026C47.949 212.021 43.8879 210.327 39.6496 210.314ZM39.6496 215.126C40.5987 215.126 41.5264 215.409 42.3155 215.937C43.1046 216.466 43.7196 217.218 44.0828 218.097C44.446 218.976 44.541 219.944 44.3559 220.877C44.1707 221.811 43.7137 222.668 43.0427 223.341C42.3716 224.014 41.5166 224.472 40.5858 224.658C39.655 224.844 38.6902 224.748 37.8134 224.384C36.9366 224.02 36.1871 223.403 35.6599 222.612C35.1326 221.82 34.8512 220.89 34.8512 219.938C34.8554 218.663 35.3624 217.442 36.2613 216.54C37.1603 215.639 38.3783 215.131 39.6496 215.126ZM39.6496 238.292C37.7541 238.283 35.8892 237.811 34.2169 236.916C32.5445 236.021 31.1152 234.73 30.0528 233.156C30.1297 229.948 36.4507 228.182 39.6496 228.182C42.8486 228.182 49.1696 229.948 49.2465 233.156C48.1829 234.729 46.7533 236.019 45.0812 236.914C43.4091 237.809 41.5449 238.282 39.6496 238.292Z" fill="white"/>
<path d="M246.59 49.0486H151.898V103.543H246.59V49.0486Z" fill="#E6E6E6"/>
<path d="M433.829 157.134L434.268 154.296C434.268 154.296 436.825 148.466 434.803 148.152C432.782 147.838 431.096 153.388 431.096 153.388L431.836 159.315L433.829 157.134Z" fill="#FFB8B8"/>
<path d="M454.525 173.222L436.458 169.583L434.359 156.386L429.04 155.974L429.3 173.036L444.998 181.29L454.525 173.222Z" fill="#575A89"/>
<path opacity="0.2" d="M454.525 173.222L436.458 169.583L434.359 156.386L429.04 155.974L429.3 173.036L444.998 181.29L454.525 173.222Z" fill="black"/>
<path d="M405.374 153.644H460.824V149.299H405.374V153.644Z" fill="#C83BDC"/>
<path d="M430.299 156.161L430.302 153.289C430.302 153.289 431.947 147.137 429.901 147.135C427.856 147.132 427.03 152.875 427.03 152.875L428.659 158.621L430.299 156.161Z" fill="#FFB8B8"/>
<path d="M453.817 164.386L456.296 163.78C457.242 163.781 458.176 163.572 459.031 163.166C459.886 162.761 460.641 162.17 461.24 161.436C461.84 160.702 462.269 159.844 462.497 158.923C462.725 158.003 462.746 157.043 462.559 156.113C462.561 155.014 462.346 153.926 461.928 152.911C461.51 151.895 460.897 150.972 460.123 150.195C459.35 149.417 458.431 148.8 457.419 148.378C456.408 147.956 455.323 147.738 454.228 147.737C453.133 147.736 452.048 147.951 451.035 148.37C450.023 148.789 449.102 149.404 448.327 150.18C447.551 150.956 446.935 151.877 446.515 152.891C446.095 153.906 445.877 154.993 445.876 156.092C445.555 157.211 445.533 158.395 445.812 159.525C446.091 160.655 446.661 161.692 447.465 162.532C448.269 163.371 449.279 163.985 450.394 164.31C451.509 164.636 452.689 164.662 453.817 164.386Z" fill="#2F2E41"/>
<path d="M439.237 205.814L441.255 227.971L444.909 249.72L451.046 249.727L450.254 228.393L447.014 202.542L439.237 205.814Z" fill="#2F2E41"/>
<path d="M445.729 248.49L441.635 250.947C441.635 250.947 435.088 251.759 436.313 253.812C437.538 255.865 451.858 254.652 451.859 253.831C451.86 253.011 451.457 248.497 450.638 248.496L445.729 248.49Z" fill="#2F2E41"/>
<path d="M457.351 203.9C457.351 203.9 457.236 207.068 454.366 211.988L454.756 227.168L469.46 246.059L464.136 250.565L446.161 230.029L441.692 205.407L447.427 199.671L457.351 203.9Z" fill="#2F2E41"/>
<path d="M468.233 246.057C468.233 246.057 473.141 246.884 472.32 248.934C471.5 250.984 469.442 260.418 464.125 259.18C464.125 259.18 461.671 259.177 462.491 257.537C462.984 256.551 463.532 255.593 464.131 254.667L464.138 249.334L468.233 246.057Z" fill="#2F2E41"/>
<path d="M451.16 164.803C454.549 164.803 457.297 162.048 457.297 158.649C457.297 155.25 454.549 152.495 451.16 152.495C447.771 152.495 445.023 155.25 445.023 158.649C445.023 162.048 447.771 164.803 451.16 164.803Z" fill="#FFB8B8"/>
<path d="M454.018 162.755L454.01 169.729L447.464 169.721L448.291 162.748L454.018 162.755Z" fill="#FFB8B8"/>
<path d="M445.831 167.258L447.814 166.769L454.013 167.268C454.013 167.268 457.282 170.554 456.872 171.374C456.461 172.194 454.391 192.295 454.391 192.295L458.055 206.659L444.962 207.463L438.418 206.634L439.677 180.789C439.677 180.789 436.822 173.811 440.507 171.764C442.588 170.669 444.405 169.131 445.831 167.258Z" fill="#575A89"/>
<path d="M453.193 168.908L434.784 168.064L430.709 155.341L425.39 155.744L428.233 172.569L444.999 178.334L453.193 168.908Z" fill="#575A89"/>
<path d="M463.006 154.115C465.192 154.115 466.965 152.338 466.965 150.145C466.965 147.952 465.192 146.174 463.006 146.174C460.819 146.174 459.047 147.952 459.047 150.145C459.047 152.338 460.819 154.115 463.006 154.115Z" fill="#2F2E41"/>
<path d="M459.353 148.01C459.353 147.423 459.484 146.843 459.735 146.312C459.986 145.782 460.351 145.314 460.804 144.942C461.258 144.57 461.788 144.303 462.356 144.162C462.924 144.02 463.517 144.007 464.091 144.123C463.585 143.883 463.033 143.753 462.473 143.743C461.912 143.733 461.356 143.842 460.841 144.063C460.327 144.285 459.864 144.613 459.485 145.027C459.106 145.441 458.819 145.931 458.643 146.464C458.467 146.998 458.406 147.562 458.464 148.121C458.522 148.68 458.698 149.22 458.979 149.706C459.261 150.192 459.642 150.612 460.098 150.939C460.554 151.266 461.073 151.492 461.623 151.602C460.943 151.281 460.369 150.773 459.967 150.137C459.565 149.501 459.352 148.763 459.353 148.01Z" fill="#2F2E41"/>
<path d="M455.956 150.262L450.619 149.276L446.514 151.856C445.504 152.491 444.698 153.402 444.189 154.482C443.681 155.562 443.492 156.766 443.645 157.95L447.757 156.905L448.677 154.59L449.773 156.393L454.221 164.191L458.725 161.735L461.594 157.226L455.956 150.262Z" fill="#2F2E41"/>
<path d="M152.166 48.5809L151.631 49.5166L246.322 104.011L246.857 103.075L152.166 48.5809Z" fill="white"/>
<path d="M246.324 48.5844L151.628 103.071L152.164 104.007L246.86 49.5202L246.324 48.5844Z" fill="white"/>
<path d="M372.329 74.5654L371.568 75.3284L402.235 106.083L402.996 105.32L372.329 74.5654Z" fill="white"/>
<path d="M402.235 74.5654L371.568 105.32L372.329 106.083L402.996 75.3284L402.235 74.5654Z" fill="white"/>
</g>
<defs>
<clipPath id="clip0">
<rect width="479" height="264" fill="white"/>
</clipPath>
</defs>
</svg>
