<svg width="105" height="93" viewBox="0 0 105 93" fill="none" xmlns="http://www.w3.org/2000/svg">
<path d="M57.0836 92.9577C56.2302 92.9577 55.5383 92.2658 55.5383 91.4125V87.3036C55.5383 86.7152 55.0595 86.2363 54.4711 86.2363H50.3227C49.7342 86.2363 49.2554 86.7152 49.2554 87.3036V91.4125C49.2554 92.2658 48.5636 92.9577 47.7102 92.9577C46.8568 92.9577 46.1649 92.2658 46.1649 91.4125V87.3036C46.1649 85.0111 48.0301 83.1459 50.3227 83.1459H54.4711C56.7636 83.1459 58.6288 85.0111 58.6288 87.3036V91.4125C58.6288 92.2658 57.9371 92.9577 57.0836 92.9577Z" fill="url(#paint0_linear)"/>
<path d="M67.2538 36.4725C66.7462 35.7866 65.7785 35.6426 65.0924 36.15C64.4065 36.6579 64.2623 37.6256 64.7699 38.3115L72.4431 48.6751C73.2967 49.8278 73.2349 51.564 72.3026 52.628L64.0356 62.0624H40.7583L32.4913 52.628C31.559 51.564 31.4972 49.8278 32.3508 48.6751L47.5849 28.0996V39.8236C45.6538 41.3078 44.5249 43.5779 44.5249 46.0556C44.5249 50.3963 48.0563 53.9276 52.3969 53.9276C56.7376 53.9276 60.269 50.3963 60.269 46.0556C60.269 43.6893 59.216 41.4797 57.415 39.9911V28.3779L60.8082 32.9607C61.316 33.6468 62.2838 33.7908 62.9696 33.2831C63.6555 32.7753 63.7997 31.8075 63.2921 31.1216L56.6641 22.1696C55.6207 20.7603 54.0654 19.9521 52.3972 19.9521C50.7289 19.9521 49.1736 20.7603 48.1303 22.1696L29.8671 46.8363C28.1543 49.1496 28.2833 52.5151 30.1672 54.665L37.0617 62.5327C35.3401 63.3354 34.1434 65.0815 34.1434 67.1029V74.4749C34.1434 76.7318 35.6345 78.6468 37.6832 79.2872L38.1048 91.4665C38.1336 92.3013 38.8193 92.9584 39.6482 92.9584C39.6663 92.9584 39.6844 92.9581 39.7026 92.9575C40.5555 92.9279 41.2229 92.2127 41.1934 91.3598L40.7834 79.5154H64.2169L63.8069 91.3598C63.7775 92.2127 64.445 92.9279 65.2978 92.9575C65.3159 92.9581 65.334 92.9584 65.3522 92.9584C66.1808 92.9584 66.8667 92.3013 66.8956 91.4665L67.3196 79.2165C69.2602 78.515 70.6509 76.6545 70.6509 74.4749V67.1029C70.6509 65.0815 69.4543 63.3354 67.7327 62.5327L74.6271 54.665C76.511 52.5153 76.64 49.1496 74.9273 46.8363L67.2538 36.4725ZM52.3969 23.0423C53.0855 23.0423 53.7188 23.3854 54.1799 24.0082L54.3246 24.2035V40.7676C54.3246 41.2874 54.586 41.7726 55.0203 42.0584C56.3717 42.9476 57.1785 44.442 57.1785 46.0552C57.1785 48.6918 55.0335 50.8368 52.3969 50.8368C49.7604 50.8368 47.6154 48.6918 47.6154 46.0552C47.6154 44.3655 48.4803 42.8343 49.9291 41.9589C50.3923 41.6791 50.6754 41.1774 50.6754 40.6364V23.9334C51.1307 23.3598 51.7376 23.0423 52.3969 23.0423ZM67.5604 74.4745C67.5604 75.5496 66.6856 76.4244 65.6105 76.4244H39.1836C38.1083 76.4244 37.2337 75.5496 37.2337 74.4745V67.1025C37.2337 66.0274 38.1085 65.1526 39.1836 65.1526H65.6105C66.6858 65.1526 67.5604 66.0274 67.5604 67.1025V74.4745Z" fill="url(#paint1_linear)"/>
<path d="M21.6462 36.9466C21.8492 32.0508 23.2108 27.2575 25.6208 23.01C26.0419 22.2677 25.7817 21.3247 25.0394 20.9035C24.297 20.4822 23.354 20.7426 22.9329 21.485C20.2619 26.1921 18.7602 31.5069 18.5533 36.9315C15.8866 37.6096 13.9083 40.0302 13.9083 42.905C13.9083 46.3032 16.6731 49.068 20.0713 49.068C23.4696 49.068 26.2343 46.3032 26.2343 42.905C26.2343 40.0508 24.284 37.6444 21.6462 36.9466ZM20.0713 45.9775C18.3771 45.9775 16.9988 44.5992 16.9988 42.905C16.9988 41.2108 18.3771 39.8324 20.0713 39.8324C21.7655 39.8324 23.1439 41.2108 23.1439 42.905C23.1439 44.5992 21.7655 45.9775 20.0713 45.9775Z" fill="url(#paint2_linear)"/>
<path d="M101.728 0.0422668H96.7625C94.9585 0.0422668 93.4907 1.51003 93.4907 3.31404V4.25169H58.2546V3.31404C58.2546 1.51003 56.7869 0.0422668 54.9829 0.0422668H50.0171C48.2131 0.0422668 46.7453 1.51003 46.7453 3.31404V4.25169H11.5093V3.31404C11.5093 1.51003 10.0415 0.0422668 8.23752 0.0422668H3.27176C1.46775 0.0422668 -1.52588e-05 1.51003 -1.52588e-05 3.31404V8.2798C-1.52588e-05 10.0838 1.46775 11.5516 3.27176 11.5516H8.23752C10.0415 11.5516 11.5093 10.0838 11.5093 8.2798V7.34215H38.3339C34.0439 9.31263 30.1714 12.175 26.9913 15.7876C26.4274 16.4281 26.4894 17.4045 27.1301 17.9684C27.4237 18.2268 27.7878 18.3539 28.1506 18.3539C28.5792 18.3539 29.0057 18.1767 29.311 17.8297C33.8803 12.6392 40.0188 9.14987 46.7453 7.88051V8.28C46.7453 10.084 48.2131 11.5518 50.0171 11.5518H54.9829C56.7869 11.5518 58.2546 10.084 58.2546 8.28V7.8803C72.2827 10.5235 82.7635 22.6206 83.3556 36.9463C80.717 37.6435 78.7656 40.0504 78.7656 42.9052C78.7656 46.3034 81.5304 49.0682 84.9287 49.0682C88.3269 49.0682 91.0917 46.3034 91.0917 42.9052C91.0917 40.0308 89.1136 37.6102 86.4471 36.9319C85.9533 23.9336 78.0585 12.5865 66.6669 7.34256H93.4907V8.28021C93.4907 10.0842 94.9585 11.552 96.7625 11.552H101.728C103.532 11.552 105 10.0842 105 8.28021V3.31404C105 1.51003 103.532 0.0422668 101.728 0.0422668ZM8.41883 8.2798C8.41883 8.37972 8.33744 8.4611 8.23752 8.4611H3.27176C3.17183 8.4611 3.09045 8.37972 3.09045 8.2798V3.31404C3.09045 3.21411 3.17183 3.13273 3.27176 3.13273H8.23752C8.33744 3.13273 8.41883 3.21411 8.41883 3.31404V8.2798ZM88.0012 42.9047C88.0012 44.5989 86.6229 45.9773 84.9287 45.9773C83.2345 45.9773 81.8561 44.5989 81.8561 42.9047C81.8561 41.2106 83.2345 39.8322 84.9287 39.8322C86.6229 39.8322 88.0012 41.2106 88.0012 42.9047ZM55.1642 8.2798C55.1642 8.37972 55.0828 8.4611 54.9829 8.4611H50.0171C49.9172 8.4611 49.8358 8.37972 49.8358 8.2798V3.31404C49.8358 3.21411 49.9172 3.13273 50.0171 3.13273H54.9829C55.0828 3.13273 55.1642 3.21411 55.1642 3.31404V8.2798ZM101.91 8.2798C101.91 8.37972 101.828 8.4611 101.728 8.4611H96.7625C96.6625 8.4611 96.5812 8.37972 96.5812 8.2798V3.31404C96.5812 3.21411 96.6625 3.13273 96.7625 3.13273H101.728C101.828 3.13273 101.91 3.21411 101.91 3.31404V8.2798Z" fill="url(#paint3_linear)"/>
<defs>
<linearGradient id="paint0_linear" x1="52.3969" y1="83.1459" x2="52.3969" y2="92.9577" gradientUnits="userSpaceOnUse">
<stop stop-color="#3949DB"/>
<stop offset="0.4375" stop-color="#C83BDC"/>
<stop offset="1" stop-color="#3949DB"/>
</linearGradient>
<linearGradient id="paint1_linear" x1="52.3972" y1="19.9521" x2="52.3972" y2="92.9584" gradientUnits="userSpaceOnUse">
<stop stop-color="#3949DB"/>
<stop offset="0.4375" stop-color="#C83BDC"/>
<stop offset="1" stop-color="#3949DB"/>
</linearGradient>
<linearGradient id="paint2_linear" x1="20.0713" y1="20.7019" x2="20.0713" y2="49.068" gradientUnits="userSpaceOnUse">
<stop stop-color="#3949DB"/>
<stop offset="0.4375" stop-color="#C83BDC"/>
<stop offset="1" stop-color="#3949DB"/>
</linearGradient>
<linearGradient id="paint3_linear" x1="52.5" y1="0.0422668" x2="52.5" y2="49.0682" gradientUnits="userSpaceOnUse">
<stop stop-color="#3949DB"/>
<stop offset="0.4375" stop-color="#C83BDC"/>
<stop offset="1" stop-color="#3949DB"/>
</linearGradient>
</defs>
</svg>
