<svg width="70" height="70" viewBox="0 0 70 70" fill="none" xmlns="http://www.w3.org/2000/svg">
<path d="M46.3408 33.2609L29.9346 23.007C29.3023 22.6119 28.5055 22.591 27.8535 22.9524C27.2013 23.3137 26.7968 24.0006 26.7968 24.7461V45.2539C26.7968 45.9994 27.2013 46.6862 27.8535 47.0477C28.1633 47.2194 28.5056 47.3047 28.8475 47.3047C29.2253 47.3047 29.6025 47.2004 29.9344 46.993L46.3407 36.7391C46.9403 36.3643 47.3046 35.7071 47.3046 35C47.3046 34.2929 46.9405 33.6357 46.3408 33.2609ZM30.8985 41.5538V28.4461L41.3845 35L30.8985 41.5538Z" fill="url(#paint0_linear)"/>
<path d="M59.7461 8.33984H10.2539C4.5999 8.33984 0 12.9397 0 18.5938V51.4062C0 57.0603 4.5999 61.6602 10.2539 61.6602H59.7461C65.4001 61.6602 70 57.0603 70 51.4062V18.5938C70 12.9397 65.4001 8.33984 59.7461 8.33984ZM65.8984 51.4062C65.8984 54.7987 63.1385 57.5586 59.7461 57.5586H10.2539C6.8615 57.5586 4.10156 54.7987 4.10156 51.4062V18.5938C4.10156 15.2013 6.8615 12.4414 10.2539 12.4414H59.7461C63.1385 12.4414 65.8984 15.2013 65.8984 18.5938V51.4062Z" fill="url(#paint1_linear)"/>
<defs>
<linearGradient id="paint0_linear" x1="37.0507" y1="22.6953" x2="37.0507" y2="47.3047" gradientUnits="userSpaceOnUse">
<stop stop-color="#3949DB"/>
<stop offset="0.078125" stop-color="#D839DB"/>
<stop offset="1" stop-color="#3949DB"/>
</linearGradient>
<linearGradient id="paint1_linear" x1="35" y1="8.33984" x2="35" y2="61.6602" gradientUnits="userSpaceOnUse">
<stop stop-color="#3949DB"/>
<stop offset="0.078125" stop-color="#D839DB"/>
<stop offset="1" stop-color="#3949DB"/>
</linearGradient>
</defs>
</svg>
