<svg width="522" height="309" viewBox="0 0 522 309" fill="none" xmlns="http://www.w3.org/2000/svg">
<g clip-path="url(#clip0)">
<path opacity="0.2" d="M76.284 0.0352794C72.2228 -0.0808481 68.0609 0.0352754 64.2518 1.20665C53.8873 4.39763 48.9747 14.839 50.5719 23.8616C52.1692 32.8842 58.7395 40.7455 65.5567 47.9303C72.374 55.115 79.7606 62.219 83.4992 70.8074C85.3635 75.094 86.2352 79.8956 84.3407 84.1772C81.4183 90.7763 72.6058 94.462 64.1459 95.2295C55.6861 95.9969 47.191 94.5024 38.701 94.0026C35.1387 93.7956 31.4756 93.7703 28.1199 94.7347C24.4367 95.7849 21.3681 97.9307 18.5465 100.167C7.53716 108.943 -1.27537 120.914 0.150556 133.491C1.76291 147.744 16.1431 159.009 31.8938 165.052C37.1088 167.072 42.626 168.678 47.2162 171.535C59.3089 179.074 62.0247 193.211 60.8205 205.687C59.6162 218.163 55.5148 230.654 57.7973 243.019C60.4829 257.404 72.369 270.4 88.4018 276.469C102.686 281.877 120.563 281.518 133.245 273.889C139.428 270.163 144.104 264.988 148.17 259.636C154.207 251.732 159.195 243.076 163.008 233.886C164.777 229.599 166.44 224.989 170.566 222.01C173.086 220.178 176.351 219.153 179.581 218.355C189.315 215.952 199.569 215.295 209.394 213.154C219.219 211.014 229.105 207.01 234.446 199.891C242.004 189.793 238.477 176.857 238.512 164.982C238.573 137.889 258.218 113.638 265.469 87.2268C267.837 78.598 268.719 69.0503 263.428 61.3506C259.835 56.1248 253.774 52.3532 247.405 49.4399C233.393 43.0327 217.466 40.18 201.801 37.4031C180.029 33.5456 153.591 33.0458 136.717 20.5646C120.523 8.58326 98.3682 0.0352794 76.284 0.0352794Z" fill="#C83BDC"/>
<path d="M287.705 309C417.102 309 522 280.852 522 246.13C522 211.407 417.102 183.259 287.705 183.259C158.307 183.259 53.4092 211.407 53.4092 246.13C53.4092 280.852 158.307 309 287.705 309Z" fill="#F5F5F5"/>
<path d="M482.286 94.3459C482.286 94.3459 464.232 112.437 474.426 139.282C484.619 166.128 456.952 210.771 456.952 210.771C456.952 210.771 457.249 210.726 457.798 210.63C494.877 204.066 513.303 161.574 492.685 130.002C485.022 118.268 478.729 104.515 482.286 94.3459Z" fill="#C83BDC"/>
<path d="M482.286 94.3459C482.286 94.3459 472.093 116.521 482.286 134.612C492.479 152.703 484.034 203.475 456.952 210.771" stroke="#535461" stroke-width="2" stroke-miterlimit="10"/>
<path d="M514.442 167.521C514.442 167.521 493.839 164.234 491.965 182.734C490.091 201.234 452.351 203.799 452.351 203.799L453.057 204.268C484.215 224.762 514.024 217.325 509.489 190.131C507.842 179.992 507.978 169.829 514.442 167.521Z" fill="#C83BDC"/>
<path opacity="0.2" d="M514.442 167.521C514.442 167.521 493.839 164.234 491.965 182.734C490.091 201.234 452.351 203.799 452.351 203.799L453.057 204.268C484.215 224.762 514.024 217.325 509.489 190.131C507.842 179.992 507.978 169.829 514.442 167.521Z" fill="#F5F5F5"/>
<path d="M514.442 167.521C514.442 167.521 498.45 171.056 499.765 185.607C501.08 200.158 476.018 217.643 452.351 203.784" stroke="#535461" stroke-width="2" stroke-miterlimit="10"/>
<path d="M466.762 212.018H434.394C435.138 210.517 435.525 208.863 435.522 207.186V59.4724C435.522 56.592 434.38 53.8296 432.348 51.7929C430.315 49.7562 427.559 48.6119 424.684 48.6119H174.094C172.67 48.6113 171.26 48.8917 169.945 49.4372C168.629 49.9827 167.434 50.7826 166.427 51.7911C165.42 52.7997 164.621 53.9971 164.076 55.3151C163.531 56.6331 163.251 58.0457 163.251 59.4724V207.192C163.248 208.868 163.635 210.522 164.379 212.023H130.868C130.107 212.023 129.378 212.326 128.84 212.865C128.303 213.404 128.001 214.134 128.001 214.896V217.214C128.005 221.472 129.696 225.555 132.702 228.564C135.708 231.574 139.784 233.265 144.034 233.265H453.596C457.848 233.265 461.926 231.572 464.933 228.559C467.939 225.546 469.629 221.46 469.629 217.199V214.881C469.626 214.121 469.323 213.393 468.785 212.856C468.248 212.32 467.52 212.018 466.762 212.018ZM267.288 221.208L264.527 218.052H333.415L330.341 221.213L267.288 221.208Z" fill="url(#paint0_linear)"/>
<path d="M420.709 50.7023H178.049C171.577 50.7023 166.33 55.9602 166.33 62.4463V204.561C166.33 211.047 171.577 216.305 178.049 216.305H420.709C427.182 216.305 432.429 211.047 432.429 204.561V62.4463C432.429 55.9602 427.182 50.7023 420.709 50.7023Z" fill="#535461"/>
<path d="M426.261 74.8417H171.927V210.13H426.261V74.8417Z" fill="white"/>
<path d="M299.097 65.2989C300.335 65.2989 301.339 64.293 301.339 63.0521C301.339 61.8112 300.335 60.8053 299.097 60.8053C297.859 60.8053 296.855 61.8112 296.855 63.0521C296.855 64.293 297.859 65.2989 299.097 65.2989Z" fill="white"/>
<path d="M338.368 210.408L329.626 219.39H268.004L260.108 210.408H134.677C133.934 210.408 133.221 210.704 132.696 211.23C132.171 211.757 131.875 212.471 131.875 213.215V215.477C131.875 219.642 133.526 223.636 136.465 226.58C139.404 229.525 143.39 231.18 147.546 231.18H450.089C454.245 231.18 458.231 229.525 461.169 226.58C464.108 223.636 465.759 219.642 465.759 215.477V213.215C465.759 212.471 465.464 211.757 464.938 211.23C464.413 210.704 463.701 210.408 462.958 210.408H338.368Z" fill="#535461"/>
<path d="M251.129 79.5978H143.842C141.236 79.5951 138.735 80.6297 136.89 82.4741C135.045 84.3184 134.006 86.8216 134.002 89.4333V238.379C134.006 240.991 135.045 243.494 136.89 245.339C138.735 247.183 141.236 248.218 143.842 248.215H251.129C253.736 248.218 256.236 247.183 258.082 245.339C259.927 243.494 260.966 240.991 260.97 238.379V89.4333C260.966 86.8216 259.927 84.3184 258.082 82.4741C256.236 80.6297 253.736 79.5951 251.129 79.5978Z" fill="url(#paint1_linear)"/>
<path d="M249.381 81.6174H145.586C140.02 81.6174 135.508 86.1385 135.508 91.7155V236.622C135.508 242.199 140.02 246.72 145.586 246.72H249.381C254.946 246.72 259.458 242.199 259.458 236.622V91.7155C259.458 86.1385 254.946 81.6174 249.381 81.6174Z" fill="#535461"/>
<path d="M253.16 97.234H141.807V231.104H253.16V97.234Z" fill="white"/>
<path d="M196.979 90.7056C197.814 90.7056 198.491 90.0274 198.491 89.1909C198.491 88.3543 197.814 87.6761 196.979 87.6761C196.145 87.6761 195.468 88.3543 195.468 89.1909C195.468 90.0274 196.145 90.7056 196.979 90.7056Z" fill="white"/>
<path d="M196.98 243.186C199.484 243.186 201.514 241.152 201.514 238.642C201.514 236.132 199.484 234.098 196.98 234.098C194.475 234.098 192.445 236.132 192.445 238.642C192.445 241.152 194.475 243.186 196.98 243.186Z" fill="white"/>
<path d="M169.353 130.088H114.266C113.55 130.087 112.842 130.227 112.18 130.5C111.519 130.773 110.918 131.174 110.411 131.679C109.905 132.185 109.502 132.786 109.227 133.448C108.952 134.11 108.81 134.819 108.809 135.536V256.42C108.81 257.136 108.952 257.846 109.227 258.507C109.502 259.169 109.905 259.77 110.411 260.276C110.918 260.782 111.519 261.183 112.18 261.456C112.842 261.729 113.55 261.869 114.266 261.867H169.353C170.068 261.869 170.777 261.729 171.438 261.456C172.099 261.183 172.7 260.782 173.207 260.276C173.714 259.77 174.116 259.169 174.391 258.507C174.666 257.846 174.808 257.136 174.81 256.42V135.536C174.808 134.819 174.666 134.11 174.391 133.448C174.116 132.786 173.714 132.185 173.207 131.679C172.7 131.174 172.099 130.773 171.438 130.5C170.777 130.227 170.068 130.087 169.353 130.088Z" fill="url(#paint2_linear)"/>
<path d="M168.763 131.098H114.85C111.789 131.098 109.308 133.584 109.308 136.652V255.809C109.308 258.876 111.789 261.363 114.85 261.363H168.763C171.824 261.363 174.306 258.876 174.306 255.809V136.652C174.306 133.584 171.824 131.098 168.763 131.098Z" fill="#535461"/>
<path d="M169.519 143.215H114.094V249.245H169.519V143.215Z" fill="white"/>
<path d="M135.257 137.662C135.535 137.662 135.76 137.435 135.76 137.157C135.76 136.878 135.535 136.652 135.257 136.652C134.978 136.652 134.753 136.878 134.753 137.157C134.753 137.435 134.978 137.662 135.257 137.662Z" fill="white"/>
<path d="M148.357 136.652H138.28C138.001 136.652 137.776 136.878 137.776 137.157C137.776 137.435 138.001 137.662 138.28 137.662H148.357C148.635 137.662 148.861 137.435 148.861 137.157C148.861 136.878 148.635 136.652 148.357 136.652Z" fill="white"/>
<path d="M141.555 257.828C143.503 257.828 145.082 256.246 145.082 254.294C145.082 252.342 143.503 250.76 141.555 250.76C139.607 250.76 138.028 252.342 138.028 254.294C138.028 256.246 139.607 257.828 141.555 257.828Z" fill="white"/>
<path d="M102.652 270.754C102.652 270.754 95.9704 248.033 103.906 231.301C107.284 224.307 108.306 216.403 106.819 208.777C106.083 205.165 105.019 201.627 103.639 198.209" stroke="#535461" stroke-width="2" stroke-miterlimit="10"/>
<path d="M108.557 187.637C108.557 190.424 103.518 198.497 103.518 198.497C103.518 198.497 98.4797 190.419 98.4797 187.637C98.4797 186.298 99.0106 185.013 99.9555 184.066C100.9 183.12 102.182 182.588 103.518 182.588C104.855 182.588 106.136 183.12 107.081 184.066C108.026 185.013 108.557 186.298 108.557 187.637Z" fill="#C83BDC"/>
<path d="M116.896 203.067C115.384 205.404 106.778 209.443 106.778 209.443C106.778 209.443 106.935 199.921 108.446 197.583C108.79 196.994 109.249 196.481 109.796 196.075C110.344 195.669 110.967 195.378 111.63 195.22C112.292 195.062 112.98 195.041 113.651 195.156C114.322 195.272 114.963 195.523 115.534 195.894C116.106 196.265 116.597 196.748 116.977 197.314C117.357 197.881 117.618 198.518 117.745 199.189C117.873 199.859 117.863 200.548 117.717 201.215C117.571 201.881 117.292 202.511 116.896 203.067Z" fill="#C83BDC"/>
<path d="M116.513 229.427C114.029 230.68 104.566 229.816 104.566 229.816C104.566 229.816 109.499 221.677 111.978 220.425C113.162 219.889 114.506 219.832 115.731 220.266C116.956 220.699 117.966 221.59 118.551 222.752C119.136 223.914 119.251 225.258 118.871 226.503C118.491 227.747 117.646 228.797 116.513 229.432V229.427Z" fill="#C83BDC"/>
<path d="M111.756 249.316C109.519 250.972 100.047 251.719 100.047 251.719C100.047 251.719 103.533 242.863 105.771 241.207C106.847 240.487 108.158 240.21 109.433 240.433C110.708 240.656 111.848 241.362 112.618 242.404C113.387 243.447 113.727 244.746 113.567 246.033C113.406 247.319 112.758 248.495 111.756 249.316Z" fill="#C83BDC"/>
<path d="M96.1919 209.984C98.2074 211.923 107.473 213.937 107.473 213.937C107.473 213.937 105.201 204.692 103.206 202.753C102.74 202.255 102.178 201.857 101.553 201.582C100.929 201.308 100.256 201.163 99.5743 201.157C98.8926 201.151 98.2169 201.283 97.5879 201.546C96.9588 201.809 96.3896 202.198 95.9147 202.688C95.4397 203.178 95.069 203.759 94.8247 204.397C94.5805 205.034 94.468 205.715 94.4939 206.398C94.5198 207.08 94.6837 207.75 94.9755 208.368C95.2674 208.985 95.6812 209.536 96.1919 209.989V209.984Z" fill="#C83BDC"/>
<path d="M90.9218 233.31C93.4058 234.562 102.868 233.699 102.868 233.699C102.868 233.699 97.9355 225.56 95.4565 224.308C94.8632 223.975 94.2088 223.766 93.5328 223.694C92.8569 223.621 92.1732 223.687 91.5231 223.886C90.8729 224.085 90.2697 224.414 89.7498 224.853C89.2299 225.292 88.804 225.832 88.4978 226.44C88.1916 227.048 88.0114 227.712 87.968 228.392C87.9247 229.072 88.0191 229.754 88.2455 230.396C88.472 231.038 88.8259 231.628 89.2858 232.13C89.7457 232.632 90.3022 233.035 90.9218 233.315V233.31Z" fill="#C83BDC"/>
<path d="M88.9063 256.687C91.1434 258.343 100.616 259.09 100.616 259.09C100.616 259.09 97.1293 250.234 94.8921 248.578C93.8157 247.859 92.5042 247.582 91.2295 247.805C89.9548 248.027 88.8145 248.733 88.045 249.776C87.2754 250.818 86.9356 252.117 87.096 253.404C87.2563 254.691 87.9045 255.866 88.9063 256.687Z" fill="#C83BDC"/>
<path d="M501.342 198.477C495.764 191.696 489.007 183.905 489.955 174.883C490.72 167.577 488.886 160.821 489.249 153.49C489.753 143.074 487.667 134.92 480.18 128.245C475.806 124.342 468.495 121.277 466.318 122.06C462.005 123.605 457.299 123.014 452.86 124.08C449.489 124.867 447.247 126.099 445.857 127.614C443.06 130.138 443.015 133.673 444.29 137.434C443.177 139.476 442.506 141.729 442.319 144.048C442.132 146.367 442.434 148.699 443.205 150.893C443.976 153.087 445.199 155.094 446.795 156.784C448.391 158.473 450.323 159.808 452.467 160.7C449.358 162.003 446.673 165.002 445.625 171.091C444.896 175.273 443.795 179.381 442.335 183.365C441.678 183.673 441.005 183.944 440.319 184.178C440.47 184.239 440.627 184.279 440.778 184.335C440.45 184.461 440.128 184.587 439.77 184.698C440.366 184.931 440.981 185.11 441.609 185.233C437.578 195.437 432.54 201.759 432.54 201.759C432.54 201.759 423.143 203.839 419.49 200.199C419.49 200.199 420.084 200.895 420.89 201.941C417.318 200.456 411.453 198.033 406.44 196.038C402.802 194.589 401.87 196.038 401.905 198.058C401.017 198.17 400.16 198.458 399.386 198.906C398.311 198.213 397.184 197.605 396.015 197.088C393.929 196.584 387.142 192.928 380.355 205.404C376.404 212.66 366.277 225.903 358.492 235.698C343.351 242.676 323.64 251.512 316.314 253.733H311.618C311.003 252.724 310.575 252.087 310.575 252.087L310.212 252.33L310.056 252.087C310.056 252.087 300.835 258.484 291.474 258.535C290.142 258.517 288.817 258.347 287.523 258.03C283.22 256.945 280.187 256.46 278.021 256.515C275.456 256.47 273.99 257.081 273.103 258.232C272.984 258.383 272.874 258.542 272.775 258.707C272.676 258.87 272.585 259.039 272.503 259.212C272.423 259.393 272.342 259.585 272.271 259.782C272.242 259.958 272.253 260.138 272.304 260.308C272.355 260.479 272.444 260.636 272.564 260.767C272.689 260.943 272.826 261.112 272.972 261.272L273.234 261.554C274.413 262.776 276.559 264.397 279.23 266.204C280.001 266.709 280.817 267.265 281.668 267.815L283.286 268.825L284.732 269.729L285.311 270.087L285.956 270.481L287.11 271.183L287.795 271.597L289.09 272.369L290.138 272.99C292.879 274.611 295.61 276.181 298.074 277.575L299.797 278.605L299.964 278.696L301.072 279.317L302.987 280.382L304.302 281.109L304.917 281.447L305.577 281.811L305.708 281.882L306.856 282.508C307.093 282.548 307.335 282.536 307.566 282.473C307.798 282.41 308.013 282.298 308.197 282.144C308.529 280.73 309.34 277.701 310.212 277.469C311.084 277.237 314.858 270.627 315.921 266.204H326.109C328.116 266.033 330.109 265.726 332.075 265.286C329.445 267.164 326.84 268.345 324.814 267.84C320.531 266.775 316.475 269.39 316.067 271.97C316.067 272.026 316.032 272.076 316.017 272.132C316.002 272.188 315.991 272.238 315.981 272.289C315.971 272.339 315.951 272.415 315.941 272.48C315.931 272.546 315.941 272.586 315.941 272.642C315.941 272.697 315.941 272.768 315.941 272.834C315.941 272.899 315.941 272.94 315.941 272.99C315.941 273.041 315.941 273.122 315.941 273.187C315.941 273.253 315.941 273.288 315.941 273.339C315.941 273.389 315.971 273.475 315.991 273.546C316.012 273.616 315.991 273.637 316.027 273.677C316.059 273.768 316.096 273.858 316.138 273.945L316.163 274.01C316.219 274.121 316.283 274.227 316.354 274.328L316.435 274.434C316.485 274.505 316.541 274.576 316.601 274.641L316.717 274.757C316.778 274.818 316.843 274.879 316.909 274.939L317.05 275.055L317.276 275.222L317.443 275.333L317.715 275.495L317.896 275.591L318.239 275.752L318.41 275.828C318.591 275.904 318.783 275.974 318.989 276.04C319.317 276.146 319.705 276.257 320.143 276.368L320.582 276.474L321.222 276.621L321.559 276.696C321.996 276.791 322.459 276.885 322.95 276.979L323.63 277.105L324.184 277.206L325.459 277.428C326.255 277.565 327.086 277.701 327.978 277.832L330.175 278.166L333.037 278.575L333.672 278.66L334.68 278.802L336.156 278.999L337.164 279.13L339.779 279.463L340.595 279.564L342.243 279.766C344.409 280.029 346.505 280.271 348.435 280.488L350.667 280.741L351.796 280.867L352.3 280.917L353.65 281.064L354.401 281.145L355.328 281.24L356.633 281.377H356.774L357.61 281.463C357.715 281.474 357.821 281.463 357.922 281.431C358.022 281.399 358.115 281.347 358.194 281.277C358.273 281.207 358.337 281.122 358.381 281.026C358.426 280.93 358.45 280.826 358.452 280.72C358.452 280.695 358.452 280.665 358.452 280.635C358.529 280.517 358.571 280.381 358.573 280.241C358.595 278.995 358.752 277.756 359.041 276.545C359.097 276.338 359.162 276.126 359.233 275.914L359.313 275.671C359.404 275.414 359.495 275.166 359.601 274.889C359.676 274.701 359.742 274.508 359.797 274.313C359.797 274.253 359.832 274.192 359.853 274.126C359.873 274.061 359.903 273.919 359.923 273.813C360.971 270.223 359.706 263.528 359.344 260.898C359.227 260.058 359.035 259.229 358.769 258.424C358.835 258.43 358.9 258.43 358.966 258.424C359.507 258.225 360.016 257.947 360.477 257.601C368.176 254.849 374.666 251.704 376.717 248.553C380.038 247.675 383.565 248.045 386.633 249.593C390.618 251.577 420.769 261.438 434.807 265.992C437.326 268.169 439.301 269.441 440.395 269.345C440.395 269.345 458.267 272.243 465.452 266.588C466.092 267.032 466.495 267.27 466.495 267.27C466.495 267.27 476.935 262.074 478.502 255.314C479.006 253.122 479.464 249.891 479.933 246.316C482.355 243.871 483.716 240.567 483.722 237.122C484.049 225.772 488.438 212.806 491.693 201.274C495.643 201.587 497.17 200.84 500.793 199.047L500.631 198.84C500.888 198.689 501.115 198.588 501.342 198.477ZM441.488 215.477L439.473 214.805C440.149 213.901 440.731 212.93 441.211 211.907L441.488 215.477ZM430.257 220.253L442.35 227.524L442.456 229.003C442.308 230.129 442.342 231.271 442.556 232.386C437.225 227.64 430.988 221.879 430.252 220.248L430.257 220.253ZM425.319 209.65C423.999 209.105 422.906 208.61 422.155 208.201C423.163 208.272 424.12 208.333 424.956 208.378C425.122 208.788 425.243 209.215 425.319 209.65ZM392.931 221.5C392.931 221.5 395.017 216.825 399.718 224.621C400.449 225.833 401.794 227.761 403.573 230.149L389.888 228.317C391.5 225.812 392.583 223.485 392.931 221.506V221.5Z" fill="url(#paint3_linear)"/>
<path d="M422.991 202.718C422.991 202.718 413.418 198.679 405.86 195.649C398.302 192.62 402.837 202.718 402.837 202.718C402.837 202.718 415.433 206.252 415.433 206.757C415.433 207.262 426.015 207.767 426.015 207.767L422.991 202.718Z" fill="#F7C4A7"/>
<path opacity="0.05" d="M422.991 202.718C422.991 202.718 413.418 198.679 405.86 195.649C398.302 192.62 402.837 202.718 402.837 202.718C402.837 202.718 415.433 206.252 415.433 206.757C415.433 207.262 426.015 207.767 426.015 207.767L422.991 202.718Z" fill="black"/>
<path d="M463.804 162.831C463.804 162.831 446.673 153.743 443.65 171.414C440.626 189.086 431.053 201.203 431.053 201.203C431.053 201.203 421.984 203.223 418.457 199.689C418.457 199.689 427.022 209.787 422.991 210.797C422.991 210.797 432.061 217.36 436.092 215.341C440.123 213.321 443.146 199.689 444.657 196.154C446.169 192.62 451.711 161.821 463.804 162.831Z" fill="#575988"/>
<path opacity="0.1" d="M463.804 162.831C463.804 162.831 446.673 153.743 443.65 171.414C440.626 189.086 431.053 201.203 431.053 201.203C431.053 201.203 421.984 203.223 418.457 199.689C418.457 199.689 427.022 209.787 422.991 210.797C422.991 210.797 432.061 217.36 436.092 215.341C440.123 213.321 443.146 199.689 444.657 196.154C446.169 192.62 451.711 161.821 463.804 162.831Z" fill="black"/>
<path d="M454.231 156.772C454.231 156.772 464.812 168.89 465.316 178.988C465.819 189.086 477.408 168.385 478.416 167.88C479.424 167.375 468.339 150.208 467.331 144.654C466.323 139.1 454.231 156.772 454.231 156.772Z" fill="#F7C4A7"/>
<path d="M461.537 161.947L454.861 168.006L458.01 180.755L466.575 172.676L465.568 164.598L461.537 161.947Z" fill="#F7C4A7"/>
<path d="M322.219 251.694H310.63L315.165 262.801L326.25 259.772L322.219 251.694Z" fill="#F7C4A7"/>
<path opacity="0.1" d="M313.311 250.093C313.311 250.093 301.309 258.469 291.055 255.864C280.802 253.259 278.015 254.233 276.821 257.596C275.718 260.691 305.461 277.06 310.202 279.645C310.276 279.685 310.357 279.708 310.441 279.711C310.525 279.715 310.608 279.699 310.685 279.665C310.761 279.63 310.829 279.579 310.883 279.514C310.936 279.45 310.974 279.373 310.993 279.291C311.316 277.918 312.097 274.975 312.933 274.747C314.021 274.455 318.979 265.154 318.707 261.499C318.435 257.843 313.311 250.093 313.311 250.093Z" fill="black"/>
<path d="M312.807 250.093C312.807 250.093 300.805 258.469 290.552 255.864C280.298 253.259 277.512 254.233 276.318 257.596C275.214 260.691 304.957 277.06 309.698 279.645C309.772 279.685 309.854 279.708 309.937 279.711C310.021 279.715 310.105 279.699 310.181 279.665C310.258 279.63 310.325 279.579 310.379 279.514C310.432 279.45 310.47 279.373 310.489 279.291C310.812 277.918 311.593 274.975 312.429 274.747C313.518 274.455 318.476 265.154 318.204 261.499C317.931 257.843 312.807 250.093 312.807 250.093Z" fill="#F3B5B7"/>
<path d="M411.906 229.983L378.148 225.439C378.148 225.439 323.227 251.694 316.677 252.199L318.188 263.811H328.266C332.296 263.811 371.598 255.228 377.14 246.645C380.347 245.79 383.755 246.15 386.713 247.654C391.752 250.179 440.123 265.831 440.123 265.831L411.906 229.983Z" fill="#575988"/>
<path opacity="0.1" d="M411.906 229.983L378.148 225.439C378.148 225.439 323.227 251.694 316.677 252.199L318.188 263.811H328.266C332.296 263.811 371.598 255.228 377.14 246.645C380.347 245.79 383.755 246.15 386.713 247.654C391.752 250.179 440.123 265.831 440.123 265.831L411.906 229.983Z" fill="black"/>
<path d="M351.947 245.635L346.405 252.703L351.947 255.733L360.009 249.674L351.947 245.635Z" fill="#F7C4A7"/>
<path d="M448.184 237.556C448.184 237.556 430.045 221.995 428.791 219.173C427.536 216.35 397.798 197.164 395.783 196.659C393.767 196.154 387.217 192.62 380.667 204.738C374.117 216.855 349.931 246.14 349.931 246.14C349.931 246.14 357.489 256.743 360.009 256.238C362.528 255.733 390.744 232.002 392.76 220.39C392.76 220.39 394.775 215.846 399.31 223.419C403.845 230.993 433.068 267.346 438.611 266.841C438.611 266.841 460.277 270.375 464.812 261.792C469.346 253.208 448.184 237.556 448.184 237.556Z" fill="#575988"/>
<path d="M458.513 163.588C458.513 163.588 452.215 166.365 451.711 177.978C451.208 189.591 440.123 209.282 440.123 209.282L441.13 232.507C441.13 232.507 453.223 244.625 454.231 252.198C455.238 259.772 463.804 264.821 463.804 264.821C463.804 264.821 473.881 259.772 475.393 253.208C476.904 246.645 477.912 230.488 480.431 224.429C482.951 218.37 481.439 180.502 481.439 180.502L473.881 167.375L469.85 162.831L459.269 174.948C459.269 174.948 453.475 167.122 458.513 163.588Z" fill="#DDDBE2"/>
<path opacity="0.1" d="M443.649 224.934C443.649 224.934 442.138 206.757 446.673 202.718L455.742 176.968C455.742 176.968 459.017 164.598 458.513 163.588C458.01 162.578 446.673 173.434 446.673 173.434L439.115 200.194L441.13 228.468L443.649 224.934Z" fill="black"/>
<path d="M443.146 224.934C443.146 224.934 441.634 206.757 446.169 202.718L455.239 176.968C455.239 176.968 458.766 164.346 458.262 163.336C457.758 162.326 446.169 173.434 446.169 173.434L438.611 200.194L440.627 228.468L443.146 224.934Z" fill="#575988"/>
<path d="M446.673 216.855C446.673 216.855 421.48 208.777 419.968 206.757C418.456 204.738 402.333 191.61 396.79 200.698C391.248 209.787 417.449 212.311 417.449 212.311L444.153 228.468L446.673 216.855Z" fill="#F7C4A7"/>
<path opacity="0.1" d="M353.04 252.658L345.583 251.315C345.583 251.315 333.37 266.992 327.006 265.402C320.642 263.811 314.787 270.673 321.509 272.874C327.58 274.864 353.801 277.646 358.794 278.161C358.896 278.171 358.998 278.16 359.095 278.129C359.191 278.098 359.281 278.048 359.357 277.98C359.433 277.913 359.495 277.83 359.537 277.738C359.58 277.646 359.603 277.545 359.606 277.444C359.644 275.492 360.037 273.564 360.765 271.753C362.11 268.446 360.765 261.342 360.392 258.626C360.186 257.034 359.689 255.493 358.925 254.082L353.04 252.658Z" fill="black"/>
<path d="M352.914 253.148L345.457 251.805C345.457 251.805 333.244 267.482 326.89 265.897C320.536 264.311 314.671 271.168 321.393 273.369C327.464 275.358 353.685 278.14 358.678 278.655C358.78 278.666 358.882 278.655 358.978 278.624C359.075 278.593 359.165 278.542 359.241 278.475C359.317 278.408 359.378 278.325 359.421 278.233C359.464 278.141 359.487 278.04 359.49 277.938C359.514 275.991 359.891 274.065 360.603 272.253C361.949 268.946 360.603 261.842 360.23 259.126C360.025 257.534 359.528 255.993 358.764 254.582L352.914 253.148Z" fill="#F3B5B7"/>
<path opacity="0.1" d="M458.01 162.578C466.914 162.578 474.133 155.345 474.133 146.422C474.133 137.498 466.914 130.265 458.01 130.265C449.105 130.265 441.886 137.498 441.886 146.422C441.886 155.345 449.105 162.578 458.01 162.578Z" fill="black"/>
<path d="M456.498 162.578C465.403 162.578 472.622 155.345 472.622 146.422C472.622 137.498 465.403 130.265 456.498 130.265C447.593 130.265 440.375 137.498 440.375 146.422C440.375 155.345 447.593 162.578 456.498 162.578Z" fill="#F7C4A7"/>
<path d="M472.37 162.326C472.37 162.326 491.516 168.89 491.516 182.522C491.516 196.154 480.935 217.865 480.432 235.537C479.928 253.208 452.215 250.684 452.215 250.684C452.215 250.684 448.184 191.105 452.215 186.561C456.246 182.017 474.385 164.346 472.37 162.326Z" fill="#575988"/>
<path opacity="0.1" d="M468.843 190.601C468.843 190.601 461.789 221.904 445.161 216.351C445.161 216.351 436.596 228.973 442.642 234.527C442.642 234.527 457.254 238.061 466.827 228.468C476.401 218.875 483.455 215.341 484.966 203.728C486.478 192.115 487.486 175.958 482.447 177.473C477.408 178.988 468.843 190.601 468.843 190.601Z" fill="black"/>
<path d="M469.347 190.096C469.347 190.096 462.293 221.4 445.665 215.846C445.665 215.846 437.099 228.468 443.146 234.022C443.146 234.022 457.758 237.556 467.331 227.963C476.904 218.37 483.959 214.836 485.47 203.223C486.982 191.61 487.989 175.454 482.951 176.968C477.912 178.483 469.347 190.096 469.347 190.096Z" fill="#575988"/>
<path d="M361.037 270.627C361.037 270.673 361.006 270.728 360.991 270.769C360.644 271.632 360.379 272.526 360.2 273.44C360.321 273.046 360.462 272.642 360.623 272.238C360.822 271.719 360.96 271.178 361.037 270.627Z" fill="#DDDBE2"/>
<path d="M321.761 271.895C319.685 271.213 318.813 270.092 318.778 268.911C317.921 270.557 318.46 272.405 321.393 273.364C327.464 275.353 353.69 278.135 358.679 278.65C358.78 278.661 358.883 278.65 358.98 278.619C359.077 278.587 359.166 278.536 359.243 278.468C359.319 278.4 359.38 278.317 359.423 278.224C359.465 278.131 359.488 278.031 359.49 277.928C359.493 277.743 359.428 277.563 359.305 277.424C359.183 277.285 359.014 277.196 358.83 277.176C353.358 276.59 327.752 273.854 321.761 271.895Z" fill="#DDDBE2"/>
<path d="M277.013 256.707C277.146 256.335 277.315 255.977 277.517 255.637C276.974 256.187 276.568 256.859 276.332 257.596C275.229 260.691 304.972 277.06 309.713 279.645C309.787 279.685 309.869 279.708 309.953 279.711C310.037 279.714 310.121 279.698 310.198 279.663C310.274 279.628 310.342 279.576 310.395 279.511C310.448 279.445 310.486 279.369 310.504 279.286C310.532 279.17 310.521 279.048 310.473 278.938C310.425 278.829 310.342 278.738 310.237 278.681C304.997 275.808 275.924 259.767 277.013 256.707Z" fill="#DDDBE2"/>
<path d="M313.119 273.864C312.852 273.935 312.59 274.293 312.344 274.783L312.424 274.753C312.646 274.692 313.024 274.248 313.482 273.591C313.384 273.709 313.26 273.803 313.119 273.864Z" fill="#DDDBE2"/>
<path opacity="0.1" d="M454.261 160.645C452.84 163.785 452.543 167.325 451.5 170.617C449.429 177.145 444.234 182.547 438.011 184.633C443.247 186.723 449.424 184.168 453.47 179.927C457.516 175.686 459.889 170.041 462.162 164.548C468.037 168.506 467.321 177.604 469.296 184.688C470.144 187.77 471.642 190.634 473.689 193.086C475.736 195.538 478.284 197.521 481.162 198.901C484.03 200.191 487.148 200.826 490.291 200.763C493.433 200.699 496.523 199.937 499.336 198.533C493.95 191.969 486.281 182.916 487.193 174.151C487.934 167.052 482.85 161.629 483.198 154.505C483.702 144.407 479.842 139.277 472.617 132.794C468.394 129.003 475.04 123.656 469.593 125.221C467.452 125.837 465.195 123.539 463.094 124.297C458.932 125.812 454.387 125.226 450.104 126.236C427.844 131.477 456.337 156.06 454.261 160.645Z" fill="black"/>
<path d="M454.765 160.14C453.344 163.28 453.046 166.82 452.004 170.112C449.933 176.64 444.738 182.042 438.515 184.128C443.75 186.218 449.928 183.663 453.974 179.422C458.02 175.181 460.393 169.536 462.665 164.043C468.54 168.001 467.825 177.099 469.8 184.183C470.648 187.265 472.145 190.129 474.193 192.581C476.24 195.033 478.788 197.016 481.666 198.396C484.534 199.686 487.651 200.322 490.794 200.258C493.937 200.194 497.027 199.432 499.84 198.028C494.454 191.464 487.289 183.926 488.201 175.161C488.942 168.062 487.838 160.766 488.201 153.647C488.705 143.549 483.762 133.794 476.531 127.311C472.309 123.519 465.714 123.035 463.607 123.777C459.446 125.291 454.901 124.706 450.618 125.716C428.347 130.972 456.841 155.555 454.765 160.14Z" fill="#FC6681"/>
</g>
<defs>
<linearGradient id="paint0_linear" x1="298.815" y1="233.275" x2="298.815" y2="48.6069" gradientUnits="userSpaceOnUse">
<stop stop-color="#808080" stop-opacity="0.25"/>
<stop offset="0.54" stop-color="#808080" stop-opacity="0.12"/>
<stop offset="1" stop-color="#808080" stop-opacity="0.1"/>
</linearGradient>
<linearGradient id="paint1_linear" x1="60309.2" y1="107261" x2="60309.2" y2="50942.9" gradientUnits="userSpaceOnUse">
<stop stop-color="#808080" stop-opacity="0.25"/>
<stop offset="0.54" stop-color="#808080" stop-opacity="0.12"/>
<stop offset="1" stop-color="#808080" stop-opacity="0.1"/>
</linearGradient>
<linearGradient id="paint2_linear" x1="24096.1" y1="87453.7" x2="24096.1" y2="53059.3" gradientUnits="userSpaceOnUse">
<stop stop-color="#808080" stop-opacity="0.25"/>
<stop offset="0.54" stop-color="#808080" stop-opacity="0.12"/>
<stop offset="1" stop-color="#808080" stop-opacity="0.1"/>
</linearGradient>
<linearGradient id="paint3_linear" x1="194922" y1="113125" x2="194922" y2="62030.7" gradientUnits="userSpaceOnUse">
<stop stop-color="#808080" stop-opacity="0.25"/>
<stop offset="0.54" stop-color="#808080" stop-opacity="0.12"/>
<stop offset="1" stop-color="#808080" stop-opacity="0.1"/>
</linearGradient>
<clipPath id="clip0">
<rect width="522" height="309" fill="white"/>
</clipPath>
</defs>
</svg>
