<svg width="615" height="371" viewBox="0 0 615 371" fill="none" xmlns="http://www.w3.org/2000/svg">
<g clip-path="url(#clip0)">
<path d="M40.3189 271.643L36.6266 257.056C30.0796 254.277 23.3813 251.87 16.5636 249.846L16.0974 256.625L14.207 249.157C5.75196 246.738 0 245.673 0 245.673C0 245.673 7.76957 275.267 24.0657 297.892L43.0542 301.233L28.3025 303.363C30.3533 305.835 32.5572 308.174 34.9012 310.368C58.6074 332.409 85.0117 342.521 93.8768 332.955C102.742 323.388 90.7108 297.765 67.0046 275.725C59.6554 268.892 50.4233 263.408 41.182 259.093L40.3189 271.643Z" fill="#E6E6E6"/>
<path d="M75.4358 255.802L79.8027 241.403C75.6324 235.634 71.1405 230.105 66.3485 224.843L62.451 230.405L64.6869 223.033C58.697 216.585 54.3228 212.695 54.3228 212.695C54.3228 212.695 45.7019 242.051 47.9764 269.857L62.5074 282.548L48.7799 276.734C49.2602 279.911 49.9396 283.055 50.814 286.147C59.7335 317.289 77.1182 339.616 89.644 336.017C102.17 332.418 105.093 304.254 96.1736 273.112C93.4085 263.458 88.3351 253.984 82.6511 245.505L75.4358 255.802Z" fill="#E6E6E6"/>
<path d="M614.866 338.184H0.0551758V339.738H614.866V338.184Z" fill="#3F3D56"/>
<path d="M97.1913 177.267C97.1913 177.267 92.4035 234.93 91.3755 247.286C90.6706 255.032 88.9422 262.649 86.2356 269.939C86.2356 269.939 84.1796 274.058 84.1796 278.177V330.691C84.1796 330.691 80.0677 330.69 81.0957 334.809C82.1236 338.928 83.1516 346.136 83.1516 346.136H98.5714C98.5714 346.136 97.5434 343.047 100.627 342.017C103.711 340.987 100.627 332.75 100.627 332.75L117.075 270.969L141.747 219.485C141.747 219.485 156.139 265.821 159.223 270.969C159.223 270.969 170.53 328.631 172.586 333.78C174.642 338.928 175.67 338.928 174.642 340.987C173.614 343.047 173.614 345.106 174.642 346.136C175.67 347.165 195.202 346.136 195.202 346.136L190.062 273.028L180.81 185.505L133.523 171.09L97.1913 177.267Z" fill="#2F2E41"/>
<path d="M94.4596 337.898C94.4596 337.898 89.3197 319.364 81.0958 333.779C72.8719 348.195 72.8719 353.343 72.8719 353.343C72.8719 353.343 59.508 372.907 78.0118 370.848C96.5155 368.789 92.4036 359.522 92.4036 359.522C92.4036 359.522 99.5995 355.403 99.5995 352.314C99.5995 349.225 94.4596 337.898 94.4596 337.898Z" fill="#2F2E41"/>
<path d="M177.726 335.839C177.726 335.839 182.866 317.305 191.09 331.72C199.314 346.136 199.314 351.284 199.314 351.284C199.314 351.284 212.678 370.848 194.174 368.789C175.67 366.729 179.782 357.462 179.782 357.462C179.782 357.462 172.586 353.344 172.586 350.254C172.586 347.165 177.726 335.839 177.726 335.839Z" fill="#2F2E41"/>
<path d="M129.411 38.2606C129.411 38.2606 131.467 51.6465 125.299 54.7355C119.131 57.8246 138.663 69.1511 143.803 69.1511C148.943 69.1511 158.195 58.8543 158.195 58.8543C158.195 58.8543 153.055 43.409 154.083 40.32L129.411 38.2606Z" fill="#A0616A"/>
<path d="M140.719 48.5574C152.642 48.5574 162.307 38.8763 162.307 26.9341C162.307 14.9918 152.642 5.31073 140.719 5.31073C128.796 5.31073 119.131 14.9918 119.131 26.9341C119.131 38.8763 128.796 48.5574 140.719 48.5574Z" fill="#A0616A"/>
<path d="M182.866 71.2104L157.167 55.6146C157.167 55.6146 142.545 72.2401 126.726 53.7058L99.5991 60.9136L103.711 130.932C103.711 130.932 97.5432 158.733 99.5991 163.882C101.655 169.03 94.4592 171.09 96.5152 172.119C98.5711 173.149 96.5152 180.357 96.5152 180.357C96.5152 180.357 136.607 200.95 180.81 185.505L176.698 172.119C177.258 170.369 177.363 168.506 177.003 166.704C176.643 164.902 175.831 163.222 174.642 161.822C174.642 161.822 178.754 155.644 173.614 150.496C173.614 150.496 175.67 141.229 170.53 137.11L169.502 122.695L172.586 115.487L182.866 71.2104Z" fill="#CFCCE0"/>
<path d="M129.671 16.8938C129.671 16.8938 127.097 22.4727 137.392 20.2411C137.392 20.2411 141.253 22.4727 141.253 19.1254C141.253 19.1254 146.4 24.7043 147.687 21.3569C148.974 18.0096 151.548 22.4727 151.548 22.4727L154.121 16.8938L156.695 20.2411H165.703C165.703 20.2411 168.276 -2.07472 137.392 0.156869C106.508 2.38846 121.701 37.7458 121.701 37.7458C121.701 37.7458 121.95 31.3991 124.524 34.7465C127.097 38.0939 129.671 16.8938 129.671 16.8938Z" fill="#2F2E41"/>
<path d="M192.118 112.398L193.146 134.021C193.146 134.021 197.258 174.179 189.034 191.683V200.95C189.034 200.95 186.978 224.633 176.698 223.603C166.418 222.574 179.782 189.624 179.782 189.624L177.726 144.318L175.67 118.576L192.118 112.398Z" fill="#A0616A"/>
<path d="M171.559 72.2401L181.813 70.5713C189.2 77.6806 194.232 86.8885 196.23 96.9525C199.314 113.427 200.342 116.516 200.342 116.516L175.67 122.695L162.307 96.9525L171.559 72.2401Z" fill="#CFCCE0"/>
<path d="M289.631 60.4891H127.405V141.208H289.631V60.4891Z" fill="white"/>
<path d="M145.119 65.3432C140.951 62.8327 135.926 63.0245 134.016 63.2162C134.743 64.9954 136.926 69.5334 141.094 72.0452C145.272 74.562 150.29 74.3645 152.198 74.174C151.471 72.3955 149.288 67.8556 145.119 65.3432Z" fill="#C83BDC"/>
<path d="M164.703 115.159H138.654C137.884 115.158 137.121 115.309 136.41 115.604C135.698 115.899 135.051 116.331 134.506 116.876C133.961 117.422 133.529 118.069 133.234 118.782C132.939 119.494 132.787 120.258 132.787 121.03C132.787 121.801 132.939 122.565 133.234 123.278C133.529 123.99 133.961 124.638 134.506 125.183C135.051 125.728 135.698 126.161 136.41 126.455C137.121 126.75 137.884 126.901 138.654 126.9H164.703C165.474 126.901 166.236 126.75 166.948 126.455C167.66 126.161 168.307 125.728 168.852 125.183C169.397 124.638 169.829 123.99 170.124 123.278C170.419 122.565 170.571 121.801 170.571 121.03C170.571 120.258 170.419 119.494 170.124 118.782C169.829 118.069 169.397 117.422 168.852 116.876C168.307 116.331 167.66 115.899 166.948 115.604C166.236 115.309 165.474 115.158 164.703 115.159Z" fill="#C83BDC"/>
<path d="M282.662 53.191H136.614C134.915 53.191 133.233 53.5262 131.663 54.1774C130.094 54.8286 128.667 55.7831 127.466 56.9864C126.265 58.1898 125.312 59.6183 124.662 61.1905C124.011 62.7627 123.677 64.4478 123.677 66.1496V137.424C123.677 140.861 125.04 144.157 127.466 146.588C129.892 149.018 133.183 150.383 136.614 150.383H282.662C286.093 150.383 289.384 149.018 291.81 146.588C294.236 144.157 295.599 140.861 295.599 137.424V66.1496C295.599 64.4478 295.264 62.7627 294.614 61.1905C293.964 59.6183 293.011 58.1898 291.81 56.9864C290.608 55.7831 289.182 54.8286 287.613 54.1774C286.043 53.5262 284.361 53.191 282.662 53.191ZM133.001 62.0307C133.289 61.9785 140.128 60.8128 145.791 64.2259C151.453 67.6383 153.629 74.237 153.718 74.5161L153.947 75.2276L153.213 75.3582C152.164 75.5221 151.104 75.6001 150.043 75.5913C146.677 75.6558 143.355 74.8172 140.422 73.1624C134.76 69.7506 132.584 63.1518 132.495 62.8728L132.266 62.1613L133.001 62.0307ZM164.704 128.205H138.655C136.755 128.205 134.933 127.449 133.59 126.103C132.246 124.758 131.491 122.933 131.491 121.03C131.491 119.127 132.246 117.302 133.59 115.956C134.933 114.61 136.755 113.854 138.655 113.854H164.704C166.604 113.854 168.426 114.61 169.769 115.956C171.112 117.302 171.867 119.127 171.867 121.03C171.867 122.933 171.112 124.758 169.769 126.103C168.426 127.449 166.604 128.205 164.704 128.205ZM283.226 126.9C283.22 128.974 282.394 130.962 280.93 132.429C279.466 133.895 277.482 134.722 275.411 134.728H255.875C253.804 134.722 251.82 133.895 250.355 132.429C248.891 130.962 248.066 128.974 248.06 126.9V115.159C248.066 113.085 248.891 111.097 250.355 109.631C251.82 108.164 253.804 107.338 255.875 107.331H275.411C277.482 107.338 279.466 108.164 280.93 109.631C282.394 111.097 283.22 113.085 283.226 115.159V126.9Z" fill="#C83BDC"/>
<path d="M262.061 124.617H253.595C252.991 124.617 252.411 124.858 251.984 125.286C251.556 125.714 251.316 126.295 251.316 126.9C251.316 127.506 251.556 128.087 251.984 128.515C252.411 128.943 252.991 129.183 253.595 129.183H262.061C262.666 129.183 263.245 128.943 263.673 128.515C264.1 128.087 264.34 127.506 264.34 126.9C264.34 126.295 264.1 125.714 263.673 125.286C263.245 124.858 262.666 124.617 262.061 124.617ZM262.061 127.879H253.595C253.467 127.879 253.339 127.854 253.221 127.805C253.102 127.756 252.994 127.684 252.903 127.593C252.812 127.502 252.74 127.394 252.69 127.275C252.641 127.156 252.616 127.029 252.616 126.9C252.616 126.772 252.641 126.644 252.69 126.525C252.74 126.406 252.812 126.298 252.903 126.208C252.994 126.117 253.102 126.045 253.221 125.996C253.339 125.947 253.467 125.922 253.595 125.922H262.061C262.32 125.923 262.567 126.026 262.75 126.209C262.933 126.393 263.035 126.641 263.035 126.9C263.035 127.159 262.933 127.408 262.75 127.591C262.567 127.775 262.32 127.878 262.061 127.879Z" fill="#C83BDC"/>
<path d="M277.69 124.617H269.224C268.62 124.617 268.04 124.858 267.612 125.286C267.185 125.714 266.945 126.295 266.945 126.9C266.945 127.506 267.185 128.087 267.612 128.515C268.04 128.943 268.62 129.183 269.224 129.183H277.69C278.294 129.183 278.874 128.943 279.302 128.515C279.729 128.087 279.969 127.506 279.969 126.9C279.969 126.295 279.729 125.714 279.302 125.286C278.874 124.858 278.294 124.617 277.69 124.617ZM277.69 127.879H269.224C269.096 127.879 268.968 127.854 268.849 127.805C268.731 127.756 268.623 127.684 268.532 127.593C268.441 127.502 268.369 127.394 268.319 127.275C268.27 127.156 268.245 127.029 268.245 126.9C268.245 126.772 268.27 126.644 268.319 126.525C268.369 126.406 268.441 126.298 268.532 126.208C268.623 126.117 268.731 126.045 268.849 125.996C268.968 125.947 269.096 125.922 269.224 125.922H277.69C277.949 125.923 278.196 126.026 278.379 126.209C278.562 126.393 278.664 126.641 278.664 126.9C278.664 127.159 278.562 127.408 278.379 127.591C278.196 127.775 277.949 127.878 277.69 127.879Z" fill="#C83BDC"/>
<path d="M262.061 118.747H253.595C252.991 118.747 252.411 118.987 251.984 119.415C251.556 119.844 251.316 120.424 251.316 121.03C251.316 121.635 251.556 122.216 251.984 122.644C252.411 123.072 252.991 123.313 253.595 123.313H262.061C262.666 123.313 263.245 123.072 263.673 122.644C264.1 122.216 264.34 121.635 264.34 121.03C264.34 120.424 264.1 119.844 263.673 119.415C263.245 118.987 262.666 118.747 262.061 118.747ZM262.061 122.008H253.595C253.467 122.008 253.34 121.983 253.221 121.934C253.103 121.885 252.995 121.812 252.904 121.722C252.814 121.631 252.742 121.523 252.693 121.404C252.644 121.285 252.618 121.158 252.618 121.03C252.618 120.901 252.644 120.774 252.693 120.655C252.742 120.537 252.814 120.429 252.904 120.338C252.995 120.247 253.103 120.175 253.221 120.126C253.34 120.077 253.467 120.051 253.595 120.051H262.061C262.189 120.051 262.316 120.077 262.435 120.126C262.553 120.175 262.661 120.247 262.752 120.338C262.842 120.429 262.914 120.537 262.964 120.655C263.013 120.774 263.038 120.901 263.038 121.03C263.038 121.158 263.013 121.285 262.964 121.404C262.914 121.523 262.842 121.631 262.752 121.722C262.661 121.812 262.553 121.885 262.435 121.934C262.316 121.983 262.189 122.008 262.061 122.008Z" fill="#C83BDC"/>
<path d="M277.69 118.747H269.224C268.62 118.747 268.04 118.987 267.612 119.415C267.185 119.844 266.945 120.424 266.945 121.03C266.945 121.635 267.185 122.216 267.612 122.644C268.04 123.072 268.62 123.313 269.224 123.313H277.69C278.294 123.313 278.874 123.072 279.302 122.644C279.729 122.216 279.969 121.635 279.969 121.03C279.969 120.424 279.729 119.844 279.302 119.415C278.874 118.987 278.294 118.747 277.69 118.747ZM277.69 122.008H269.224C269.096 122.008 268.969 121.983 268.85 121.934C268.732 121.885 268.624 121.812 268.533 121.722C268.443 121.631 268.371 121.523 268.322 121.404C268.273 121.285 268.247 121.158 268.247 121.03C268.247 120.901 268.273 120.774 268.322 120.655C268.371 120.537 268.443 120.429 268.533 120.338C268.624 120.247 268.732 120.175 268.85 120.126C268.969 120.077 269.096 120.051 269.224 120.051H277.69C277.818 120.051 277.945 120.077 278.064 120.126C278.182 120.175 278.29 120.247 278.381 120.338C278.471 120.429 278.543 120.537 278.592 120.655C278.641 120.774 278.667 120.901 278.667 121.03C278.667 121.158 278.641 121.285 278.592 121.404C278.543 121.523 278.471 121.631 278.381 121.722C278.29 121.812 278.182 121.885 278.064 121.934C277.945 121.983 277.818 122.008 277.69 122.008Z" fill="#C83BDC"/>
<path d="M262.061 112.876H253.595C252.991 112.876 252.411 113.117 251.984 113.545C251.556 113.973 251.316 114.554 251.316 115.159C251.316 115.765 251.556 116.345 251.984 116.773C252.411 117.202 252.991 117.442 253.595 117.442H262.061C262.666 117.442 263.245 117.202 263.673 116.773C264.1 116.345 264.34 115.765 264.34 115.159C264.34 114.554 264.1 113.973 263.673 113.545C263.245 113.117 262.666 112.876 262.061 112.876ZM262.061 116.138H253.595C253.467 116.138 253.339 116.113 253.221 116.064C253.102 116.015 252.994 115.943 252.903 115.852C252.812 115.761 252.74 115.653 252.69 115.534C252.641 115.415 252.616 115.288 252.616 115.159C252.616 115.03 252.641 114.903 252.69 114.784C252.74 114.665 252.812 114.557 252.903 114.466C252.994 114.375 253.102 114.303 253.221 114.254C253.339 114.205 253.467 114.18 253.595 114.181H262.061C262.32 114.181 262.567 114.285 262.75 114.468C262.933 114.652 263.035 114.9 263.035 115.159C263.035 115.418 262.933 115.667 262.75 115.85C262.567 116.033 262.32 116.137 262.061 116.138Z" fill="#C83BDC"/>
<path d="M277.69 112.876H269.224C268.62 112.876 268.04 113.117 267.612 113.545C267.185 113.973 266.945 114.554 266.945 115.159C266.945 115.765 267.185 116.345 267.612 116.773C268.04 117.202 268.62 117.442 269.224 117.442H277.69C278.294 117.442 278.874 117.202 279.302 116.773C279.729 116.345 279.969 115.765 279.969 115.159C279.969 114.554 279.729 113.973 279.302 113.545C278.874 113.117 278.294 112.876 277.69 112.876ZM277.69 116.138H269.224C269.096 116.138 268.968 116.113 268.849 116.064C268.731 116.015 268.623 115.943 268.532 115.852C268.441 115.761 268.369 115.653 268.319 115.534C268.27 115.415 268.245 115.288 268.245 115.159C268.245 115.03 268.27 114.903 268.319 114.784C268.369 114.665 268.441 114.557 268.532 114.466C268.623 114.375 268.731 114.303 268.849 114.254C268.968 114.205 269.096 114.18 269.224 114.181H277.69C277.949 114.181 278.196 114.285 278.379 114.468C278.562 114.652 278.664 114.9 278.664 115.159C278.664 115.418 278.562 115.667 278.379 115.85C278.196 116.033 277.949 116.137 277.69 116.138Z" fill="#C83BDC"/>
<path d="M84.1796 100.042C84.1796 100.042 74.9277 139.17 86.2355 139.17C97.5434 139.17 124.271 94.8932 124.271 94.8932C124.271 94.8932 152.027 80.4776 140.719 75.3292C129.411 70.1808 115.019 83.5666 115.019 83.5666L98.413 106.66L97.5434 94.8932L84.1796 100.042Z" fill="#A0616A"/>
<path d="M105.767 67.0917L99.5991 60.9136C99.5991 60.9136 87.2633 68.1214 86.2353 75.3291C85.2073 82.5369 80.0674 105.19 80.0674 105.19L99.0851 106.734L105.253 97.4673L105.767 67.0917Z" fill="#CFCCE0"/>
<path d="M397.954 52.4442C397.179 50.1537 387.468 42.3678 393.419 41.0592L398.299 47.577L420.736 25.1036L422.992 27.3639L397.954 52.4442Z" fill="#C83BDC"/>
<path d="M397.954 128.863C397.179 126.573 387.468 118.787 393.419 117.478L398.299 123.996L420.736 101.523L422.992 103.783L397.954 128.863Z" fill="#C83BDC"/>
<path d="M397.954 206.374C397.179 204.084 387.468 196.298 393.419 194.989L398.299 201.507L420.736 179.034L422.992 181.294L397.954 206.374Z" fill="#C83BDC"/>
<path d="M465.914 50.0866C469.738 50.0866 472.838 46.9817 472.838 43.1516C472.838 39.3216 469.738 36.2167 465.914 36.2167C462.09 36.2167 458.991 39.3216 458.991 43.1516C458.991 46.9817 462.09 50.0866 465.914 50.0866Z" fill="#3F3D56"/>
<path d="M603.346 42.4581H491.877V43.8451H603.346V42.4581Z" fill="#3F3D56"/>
<path d="M465.914 126.506C469.738 126.506 472.838 123.401 472.838 119.571C472.838 115.741 469.738 112.636 465.914 112.636C462.09 112.636 458.991 115.741 458.991 119.571C458.991 123.401 462.09 126.506 465.914 126.506Z" fill="#3F3D56"/>
<path d="M603.346 118.877H491.877V120.264H603.346V118.877Z" fill="#3F3D56"/>
<path d="M465.914 204.017C469.738 204.017 472.838 200.912 472.838 197.082C472.838 193.252 469.738 190.147 465.914 190.147C462.09 190.147 458.991 193.252 458.991 197.082C458.991 200.912 462.09 204.017 465.914 204.017Z" fill="#3F3D56"/>
<path d="M603.346 196.388H491.877V197.775H603.346V196.388Z" fill="#3F3D56"/>
<path d="M415.441 216.707H380.823V181.339H404.363V182.726H382.207V215.32H414.056V199.37H415.441V216.707Z" fill="#3F3D56"/>
<path d="M415.441 139.036H380.823V103.667H404.363V105.054H382.207V137.649H414.056V121.698H415.441V139.036Z" fill="#3F3D56"/>
<path d="M415.441 59.9771H380.823V24.6088H404.363V25.9958H382.207V58.5901H414.056V42.6397H415.441V59.9771Z" fill="#3F3D56"/>
</g>
<defs>
<clipPath id="clip0">
<rect width="614.866" height="371" fill="white"/>
</clipPath>
</defs>
</svg>
