<?xml version="1.0" standalone="no"?>
<!DOCTYPE svg PUBLIC "-//W3C//DTD SVG 1.1//EN" "http://www.w3.org/Graphics/SVG/1.1/DTD/svg11.dtd" >
<svg>
<metadata>
Created by FontForge 20090914 at Sat Oct 31 14:24:18 2020
 By www-data
Copyright 2019 The Darkergrotesque Project Authors (https://github.com/bettergui/DarkerGrotesque)
</metadata>
<defs>
<font id="DarkerGrotesque-Black" horiz-adv-x="600" >
  <font-face 
    font-family="Darker Grotesque Black"
    font-weight="900"
    font-stretch="normal"
    units-per-em="1000"
    panose-1="0 0 0 0 0 0 0 0 0 0"
    ascent="800"
    descent="-200"
    x-height="414"
    cap-height="563"
    bbox="-44 -296.003 1842 1060"
    underline-thickness="50"
    underline-position="-75"
    unicode-range="U+000D-U+240D"
  />
<missing-glyph horiz-adv-x="500" 
d="M50 -296h400v1356h-400v-1356zM100 -246v1256h300v-1256h-300z" />
    <glyph glyph-name="w_w_w.liga" unicode="www" horiz-adv-x="1869" 
d="M91 0l-82 395v21h138l44 -300h2l71 300h119l75 -300h2l45 300h137v-21l-86 -395h-193l-38 175h-2l-35 -175h-197zM691 0l-82 395v21h138l44 -300h2l71 300h119l75 -300h2l45 300h137v-21l-86 -395h-193l-38 175h-2l-35 -175h-197zM1291 0l-82 395v21h138l44 -300h2
l71 300h119l75 -300h2l45 300h137v-21l-86 -395h-193l-38 175h-2l-35 -175h-197z" />
    <glyph glyph-name=".notdef" horiz-adv-x="500" 
d="M50 -296h400v1356h-400v-1356zM100 -246v1256h300v-1256h-300z" />
    <glyph glyph-name="CR" unicode="&#xd;" 
 />
    <glyph glyph-name="space" unicode=" " horiz-adv-x="200" 
 />
    <glyph glyph-name="exclam" unicode="!" horiz-adv-x="255" 
d="M88 194c-6 36 -12.501 71.668 -19.501 107.001s-12.333 68.833 -16 100.5s-4 59.5 -1 83.5s10.833 43 23.5 57s32.334 21 59.001 21s46.667 -7 60 -21s21.333 -33.333 24 -58s2.16699 -52.834 -1.5 -84.501s-9 -65 -16 -100l-20.5 -105.5l-11.5 3
c-7.66699 2 -19.167 3 -34.5 3c-10.667 0 -21 -1 -31 -3zM135.999 -8.99902c-32 0 -53.333 7.66797 -64 23.001s-16 33.666 -16 54.999c0 20.667 5.5 38.5 16.5 53.5s32.167 22.5 63.5 22.5c30 0 50.5 -7.33301 61.5 -22s16.5 -32.667 16.5 -54
c0 -22 -5.5 -40.5 -16.5 -55.5s-31.5 -22.5 -61.5 -22.5z" />
    <glyph glyph-name="quotedbl" unicode="&#x22;" horiz-adv-x="415" 
d="M40 305l-0.000976562 85h31c18 0 31.333 1.66699 40 5s13 12 13 26c-32 0 -54 7 -66 21s-18 30.667 -18 50c0 20 5.66699 36.833 17 50.5s30.333 20.5 57 20.5c20 0 36.667 -6.16699 50 -18.5s20 -38.5 20 -78.5c0 -27.333 -3.83301 -53.333 -11.5 -78
s-19.667 -44.667 -36 -60s-38.166 -23 -65.499 -23h-31zM240.999 305l-0.000976562 85h31c18 0 31.333 1.66699 40 5s13 12 13 26c-32 0 -54 7 -66 21s-18 30.667 -18 50c0 20 5.66699 36.833 17 50.5s30.333 20.5 57 20.5c20 0 36.667 -6.16699 50 -18.5s20 -38.5 20 -78.5
c0 -27.333 -3.83301 -53.333 -11.5 -78s-19.667 -44.667 -36 -60s-38.166 -23 -65.499 -23h-31z" />
    <glyph glyph-name="numbersign" unicode="#" horiz-adv-x="688" 
d="M52 0l50 118h-87v119h137l31 72h-113v119h150l43 135h130l-57 -135h85l43 135h130l-56 -135h85v-119h-135l-30 -72h113v-119h-150l-37 -118h-131l50 118h-86l-37 -118h-128zM255 238v-1h98l31 72h-99z" />
    <glyph glyph-name="dollar" unicode="$" horiz-adv-x="569" 
d="M230 -108l9.00293 102c-29.333 5.33301 -57.666 15.833 -84.999 31.5s-50.833 37.167 -70.5 64.5s-32.5 61.666 -38.5 102.999l137 25c0 -1.33301 1 -7.5 3 -18.5s6.66699 -23.167 14 -36.5s18.5 -25 33.5 -35s35.5 -15 61.5 -15c10 0 21.167 1.16699 33.5 3.5
s23.166 7 32.499 14s14 16.833 14 29.5c0 16.667 -8 29.334 -24 38.001s-36.333 15.834 -61 21.501s-50.834 12.167 -78.501 19.5s-53.5 17.5 -77.5 30.5s-43 31.333 -57 55s-19.667 54.5 -17 92.5c2.66699 40.667 18.667 74.5 48 101.5s73 44.167 131 51.5l-8 101h140
l-8 -105c44 -10.667 81.333 -32 112 -64s46.334 -75.667 47.001 -131l-132 -21c0 24 -4.83301 42.667 -14.5 56s-21.667 22.666 -36 27.999s-28 8.5 -41 9.5s-22.5 1.5 -28.5 1.5c-12.667 0 -26.334 -3.33301 -41.001 -10s-22.667 -18.667 -24 -36
c0 -15.333 6.16699 -27.333 18.5 -36s28.5 -15.667 48.5 -21s41.833 -10.5 65.5 -15.5s47.167 -11.333 70.5 -19s44.666 -17.834 63.999 -30.501s34.166 -29.667 44.499 -51s14.5 -48.333 12.5 -81c-2.66699 -39.333 -20 -71.666 -52 -96.999s-70.333 -42.333 -115 -51
l9 -105h-140z" />
    <glyph glyph-name="percent" unicode="%" horiz-adv-x="643" 
d="M142 338c-40.667 0 -70.167 10.667 -88.5 32s-27.5 49.333 -27.5 84c0 36 9.16699 64.833 27.5 86.5s47.833 32.5 88.5 32.5s70.667 -10.833 90 -32.5s29 -50.5 29 -86.5c0 -33.333 -9.66699 -61 -29 -83s-49.333 -33 -90 -33zM153 0l-95 67l247 238l192 258l94 -66
l-241 -229zM140 425c12.667 0 21.5 3.16699 26.5 9.5s7.5 13.833 7.5 22.5c0 9.33301 -2.5 17.333 -7.5 24s-13.833 10 -26.5 10c-11.333 0 -19.666 -3.33301 -24.999 -10s-8 -14.667 -8 -24c0 -8.66699 2.66699 -16.167 8 -22.5s13.666 -9.5 24.999 -9.5zM499 -10
c-40 0 -69.167 10.667 -87.5 32s-27.5 50.333 -27.5 87c0 34.667 9 62.667 27 84s47.333 32 88 32c41.333 0 71.333 -10.667 90 -32s28 -49.333 28 -84s-9.33301 -63.167 -28 -85.5s-48.667 -33.5 -90 -33.5zM497 77c12.667 0 21.667 3.16699 27 9.5s8 13.833 8 22.5
c0 9.33301 -2.66699 17.333 -8 24s-14.333 10 -27 10c-11.333 0 -19.666 -3.33301 -24.999 -10s-8 -14.667 -8 -24c0 -8.66699 2.66699 -16.167 8 -22.5s13.666 -9.5 24.999 -9.5z" />
    <glyph glyph-name="ampersand" unicode="&#x26;" horiz-adv-x="658" 
d="M592 -3c-24 10.667 -46.8359 21.334 -68.5029 32.001s-42.167 21.667 -61.5 33c-30.667 -24 -64.667 -42 -102 -54s-74.5 -17.667 -111.5 -17s-70.833 7.5 -101.5 20.5s-55.334 32 -74.001 57s-28 56.167 -28 93.5c0 30 6.16699 54.667 18.5 74s26.5 34.333 42.5 45
s30.167 18 42.5 22l18.5 6l-16 15c-10.667 10 -21.167 24.5 -31.5 43.5s-15.5 42.167 -15.5 69.5c0 29.333 8.16699 53.833 24.5 73.5s37.333 34.667 63 45s53 15.833 82 16.5s56.333 -3.83301 82 -13.5s46.667 -24.5 63 -44.5s24.5 -45.333 24.5 -76
c0 -24.667 -5.16699 -46 -15.5 -64s-22.5 -33 -36.5 -45s-26.167 -20.833 -36.5 -26.5l-15.5 -8.5l17.5 -17.5c11.667 -11.667 30.167 -28.5 55.5 -50.5c0 -0.666992 1.66699 1.16602 5 5.49902s6.33301 10 9 17s3.16699 14.667 1.5 23s-7.5 16.5 -17.5 24.5l118 75
c0 0.666992 2.83301 -3 8.5 -11s11.834 -19 18.501 -33s11.834 -30.5 15.501 -49.5s3.33398 -39.333 -0.999023 -61s-15.166 -44.167 -32.499 -67.5l41.5 -22c16.333 -8.66699 37.833 -18.667 64.5 -30zM261.997 358c19.333 10.667 33.998 20.833 43.998 30.5
s16.333 19.167 19 28.5c2.66699 15.333 -0.666016 27.333 -9.99902 36s-21 13.5 -35 14.5s-26.167 -2 -36.5 -9s-15.166 -18.5 -14.499 -34.5c1.33301 -22 12.333 -44 33 -66zM353.995 140.999c-23.333 18.667 -43.167 35.499 -59.5 50.499s-33.5 32.833 -51.5 53.5
c-14.667 -7.33301 -28.667 -15.5 -42 -24.5s-20 -22.833 -20 -41.5c0 -17.333 6 -31.666 18 -42.999s27.167 -19 45.5 -23s37.333 -3.83301 57 0.5s37.167 13.5 52.5 27.5z" />
    <glyph glyph-name="quotesingle" unicode="'" horiz-adv-x="259" 
d="M70 305l-0.000976562 85h31c18 0 31.333 1.66699 40 5s13 12 13 26c-32 0 -54 7 -66 21s-18 30.667 -18 50c0 20 5.66699 36.833 17 50.5s30.333 20.5 57 20.5c20 0 36.667 -6.16699 50 -18.5s20 -38.5 20 -78.5c0 -27.333 -3.83301 -53.333 -11.5 -78
s-19.667 -44.667 -36 -60s-38.166 -23 -65.499 -23h-31z" />
    <glyph glyph-name="parenleft" unicode="(" horiz-adv-x="363" 
d="M233 -199l-19.501 16.002c-13 10.667 -29 26.667 -48 48s-38.167 48 -57.5 80s-35.5 69.167 -48.5 111.5s-19.5 90.166 -19.5 143.499s6.5 101.5 19.5 144.5s29.167 80.667 48.5 113s38.5 59.166 57.5 80.499s35 37.5 48 48.5l19.5 16.5l110 -108
c-2.66699 -2 -11.5 -7.33301 -26.5 -16s-32.833 -20.667 -53.5 -36s-41.167 -34.5 -61.5 -57.5s-37.166 -49.833 -50.499 -80.5s-20 -65.667 -20 -105c0 -40 7.16699 -75.667 21.5 -107s32 -58.333 53 -81s42 -41.5 63 -56.5s38.667 -26.167 53 -33.5l21.5 -11z" />
    <glyph glyph-name="parenright" unicode=")" horiz-adv-x="353" 
d="M120 -199l-110.001 109.998l21.5 11c14.333 7.33301 32 18.5 53 33.5s42 33.833 63 56.5s38.667 49.667 53 81s21.5 67 21.5 107c0 38.667 -6.66699 73.5 -20 104.5s-30.166 58 -50.499 81s-40.833 42.167 -61.5 57.5s-38.5 27.333 -53.5 36s-23.833 14 -26.5 16l110 108
l19.5 -16.5c13 -11 29.167 -27.167 48.5 -48.5s38.5 -48.166 57.5 -80.499s35 -70 48 -113s19.5 -91.167 19.5 -144.5s-6.5 -101.166 -19.5 -143.499s-29 -79.5 -48 -111.5s-38.167 -58.667 -57.5 -80s-35.5 -37.333 -48.5 -48z" />
    <glyph glyph-name="asterisk" unicode="*" horiz-adv-x="387" 
d="M357 400l-114 -5l90 -71l-100 -73l-39 108l-40 -108l-100 73l91 71l-115 5l38 116l95 -64l-30 111h123l-32 -111l95 64z" />
    <glyph glyph-name="plus" unicode="+" horiz-adv-x="380" 
d="M144 76v102h-104v94h104v104h94v-104h102v-94h-102v-102h-94z" />
    <glyph glyph-name="comma" unicode="," horiz-adv-x="264" 
d="M60 -116l-0.000976562 85h31c18 0 31.333 1.66699 40 5s13 12 13 26c-32 0 -54 7 -66 21s-18 30.667 -18 50c0 20 5.66699 36.833 17 50.5s30.333 20.5 57 20.5c20 0 36.667 -6.16699 50 -18.5s20 -38.5 20 -78.5c0 -27.333 -3.83301 -53.333 -11.5 -78
s-19.667 -44.667 -36 -60s-38.166 -23 -65.499 -23h-31z" />
    <glyph glyph-name="hyphen" unicode="-" horiz-adv-x="317" 
d="M40 178v94h222v-94h-222z" />
    <glyph glyph-name="period" unicode="." horiz-adv-x="246" 
d="M114 0c-31.333 0 -52.333 7.66797 -63 23.001s-16 33.666 -16 54.999c0 20.667 5.5 38.334 16.5 53.001s31.833 22 62.5 22c30 0 50.333 -7.33301 61 -22s16 -32.334 16 -53.001c0 -22 -5.33301 -40.5 -16 -55.5s-31 -22.5 -61 -22.5z" />
    <glyph glyph-name="slash" unicode="/" horiz-adv-x="419" 
d="M25 0l254 563h130l-254 -563h-130z" />
    <glyph glyph-name="zero" unicode="0" horiz-adv-x="576" 
d="M288 -14c-86.667 0 -151.332 26.5 -193.999 79.5s-64 124.5 -64 214.5c0 59.333 9 110.833 27 154.5s46.167 77.667 84.5 102s87.166 36.5 146.499 36.5c88 0 153 -26.5 195 -79.5s63 -124.167 63 -213.5c0 -58 -9.33301 -109.167 -28 -153.5s-47 -78.833 -85 -103.5
s-86.333 -37 -145 -37zM287.002 101c44.667 0 77.5 14.5 98.5 43.5s31.5 74.167 31.5 135.5s-10.333 106.333 -31 135s-53.667 43 -99 43c-43.333 0 -75.5 -13.833 -96.5 -41.5s-31.5 -73.167 -31.5 -136.5c0 -60.667 10.167 -105.667 30.5 -135s52.833 -44 97.5 -44z" />
    <glyph glyph-name="one" unicode="1" horiz-adv-x="424" 
d="M379 119l-0.000976562 -119.003h-308v119h95v295c-4 -27.333 -11.833 -48.166 -23.5 -62.499s-24.334 -24.166 -38.001 -29.499s-26.167 -8.33301 -37.5 -9s-18.666 -1 -21.999 -1v155c4.66699 -1.33301 13.834 -2.16602 27.501 -2.49902s28.5 2.16699 44.5 7.5
s30.167 15 42.5 29s19.5 34.667 21.5 62h124v-444h74z" />
    <glyph glyph-name="two" unicode="2" horiz-adv-x="547" 
d="M45 0l-0.000976562 115.999c0.666992 0.666992 9 4 25 10s36.5 14.833 61.5 26.5s51.333 25.834 79 42.501s53.167 35.5 76.5 56.5s41.333 44.167 54 69.5c14 28.667 18.5 53 13.5 73s-15.333 35.333 -31 46s-33.167 16 -52.5 16c-32.667 0 -58.167 -12.167 -76.5 -36.5
s-22.166 -62.833 -11.499 -115.5l-130 19c-8 52.667 -2.5 97.667 16.5 135s47.5 65.833 85.5 85.5s81.333 29.5 130 29.5c36 0 69.167 -6.83301 99.5 -20.5s55.166 -32.5 74.499 -56.5s30.666 -51.833 33.999 -83.5s-3.66699 -65.167 -21 -100.5s-40.333 -65 -69 -89
s-58.167 -43.333 -88.5 -58s-57.666 -25.5 -81.999 -32.5s-41.166 -11.5 -50.499 -13.5h320v-119h-457z" />
    <glyph glyph-name="three" unicode="3" horiz-adv-x="541" 
d="M283 -10c-76.667 0 -137.5 18.502 -182.5 55.502s-66.833 92.5 -65.5 166.5l134 20c0 -36.667 9.83301 -66.167 29.5 -88.5s48.834 -33.5 87.501 -33.5c28 0 49.833 7.66699 65.5 23s23.5 33.333 23.5 54c0 22.667 -9.16699 39.167 -27.5 49.5s-41.833 15.5 -70.5 15.5
h-53v71h56c14 0 28.167 1.33301 42.5 4s26.333 7.83398 36 15.501s14.5 19.5 14.5 35.5c0 23.333 -8.83301 42.5 -26.5 57.5s-41.5 22.5 -71.5 22.5c-32.667 0 -58.334 -10.333 -77.001 -31s-28 -43.667 -28 -69l-124 22c0 8.66699 2 20.667 6 36s11 32 21 50
s23.5 35.167 40.5 51.5s38.5 29.666 64.5 39.999s57 15.5 93 15.5c73.333 0 129.333 -14.5 168 -43.5s58 -67.5 58 -115.5c0 -32.667 -9.33301 -62 -28 -88s-48.667 -40.333 -90 -43c39.333 -2 70.333 -15.5 93 -40.5s34 -54.5 34 -88.5
c0 -34.667 -9.5 -64.334 -28.5 -89.001s-45.167 -43.334 -78.5 -56.001s-72 -19 -116 -19z" />
    <glyph glyph-name="four" unicode="4" horiz-adv-x="551" 
d="M35 101v119c36 15.333 67.167 36.333 93.5 63s47.833 56.5 64.5 89.5s29 66 37 99s12 63.5 12 91.5h152c0 -37.333 -8.5 -77 -25.5 -119s-42 -82.5 -75 -121.5s-73.833 -73.167 -122.5 -102.5h138v61h139v-61h63v-119h-63v-101h-139v101h-274z" />
    <glyph glyph-name="five" unicode="5" horiz-adv-x="540" 
d="M269 -10c-51.333 0 -93.335 9.16699 -126.002 27.5s-57.167 40.833 -73.5 67.5s-26.166 52.334 -29.499 77.001l138 21c1.33301 -8 5.5 -18.167 12.5 -30.5s17.167 -23.166 30.5 -32.499s30.666 -14 51.999 -14c26.667 0 47.167 8.16699 61.5 24.5
s22.833 34.833 25.5 55.5c2.66699 23.333 -3.33301 45.166 -18 65.499s-37.667 30.5 -69 30.5c-18 0 -32.167 -3.66699 -42.5 -11s-17.666 -14.833 -21.999 -22.5s-6.83301 -11.834 -7.5 -12.501l-147 22l32 305h386v-119h-291l-17 -153l8 12.5
c5.33301 8.33301 14 17.833 26 28.5s27.667 20.167 47 28.5s43 12.5 71 12.5c44 0 80 -9.16699 108 -27.5s48.167 -41.833 60.5 -70.5s17.166 -59 14.499 -91s-13.667 -62.833 -33 -92.5s-45.666 -54 -78.999 -73s-72.666 -28.5 -117.999 -28.5z" />
    <glyph glyph-name="six" unicode="6" horiz-adv-x="566" 
d="M288 -10c-54.667 0 -100.334 12.834 -137.001 38.501s-64.167 60.5 -82.5 104.5s-27.5 93.333 -27.5 148c0 52 10.167 100.167 30.5 144.5s49.5 80 87.5 107s84 40.5 138 40.5c38 0 69.833 -4.83301 95.5 -14.5s46.5 -21.667 62.5 -36s28.167 -28.833 36.5 -43.5
s14 -26.834 17 -36.501l4.5 -14.5l-139 -23l-6 12c-4 8 -12.167 15.833 -24.5 23.5s-30.5 11.5 -54.5 11.5c-6.66699 0 -16.834 -2 -30.501 -6s-27.5 -12.333 -41.5 -25s-25.167 -31.667 -33.5 -57s-10.833 -59.333 -7.5 -102c0 0.666992 2.5 5.83398 7.5 15.501
s13.5 20.667 25.5 33s28 23.166 48 32.499s45 14 75 14c44.667 0 81.334 -8.83301 110.001 -26.5s49.5 -40.5 62.5 -68.5s18.167 -57.5 15.5 -88.5s-13.167 -60.5 -31.5 -88.5s-44.166 -50.833 -77.499 -68.5s-74.333 -26.5 -123 -26.5zM297 105.001
c24.667 0 44.5 5.66504 59.5 16.998s25 25.333 30 42s5.16699 33.5 0.5 50.5s-14.167 31.333 -28.5 43s-33.833 17.834 -58.5 18.501c-30 0 -55.333 -10.167 -76 -30.5s-31 -44.166 -31 -71.499c4 -17.333 11.667 -31 23 -41s24.333 -17.167 39 -21.5s28.667 -6.5 42 -6.5z
" />
    <glyph glyph-name="seven" unicode="7" horiz-adv-x="551" 
d="M240 0h-138.999c0 76.667 12.667 145.5 38 206.5s59.166 111.833 101.499 152.5s88.833 68.334 139.5 83.001h-331v121h457v-119c-16 -6 -35.333 -15.167 -58 -27.5s-46.167 -29.333 -70.5 -51s-46.833 -49 -67.5 -82s-37.5 -72.833 -50.5 -119.5
s-19.5 -101.334 -19.5 -164.001z" />
    <glyph glyph-name="eight" unicode="8" horiz-adv-x="581" 
d="M289 -11c-47.333 0 -89.832 6.5 -127.499 19.5s-67.334 32 -89.001 57s-32.5 55.167 -32.5 90.5c0 37.333 12.833 69.166 38.5 95.499s61.834 41.833 108.501 46.5c-25.333 3.33301 -45.666 10.166 -60.999 20.499s-26.833 22 -34.5 35s-12.834 25.667 -15.501 38
s-4 22.5 -4 30.5c0 45.333 20 81.833 60 109.5s92.333 41.5 157 41.5c67.333 0 120.666 -14 159.999 -42s59 -64.333 59 -109c0 -8 -1.33301 -18.167 -4 -30.5s-7.83398 -25 -15.501 -38s-19.167 -24.667 -34.5 -35s-35.666 -17.166 -60.999 -20.499
c47.333 -5.33301 83.833 -20.666 109.5 -45.999s38.5 -57.333 38.5 -96c0 -36 -11 -66.5 -33 -91.5s-52 -43.833 -90 -56.5s-81 -19 -129 -19zM289.001 330c30.667 0 54.332 5.83301 70.999 17.5s25 27.5 25 47.5c0 26 -8.66699 44.667 -26 56s-40.666 17 -69.999 17
c-28.667 0 -51.5 -5.66699 -68.5 -17s-25.5 -30 -25.5 -56c0 -20 8.5 -35.833 25.5 -47.5s39.833 -17.5 68.5 -17.5zM289.999 95c35.333 0 63.333 7.66699 84 23s31 35.666 31 60.999c0 30.667 -10.333 52.834 -31 66.501s-48.667 20.5 -84 20.5
c-34.667 0 -62.5 -6.83301 -83.5 -20.5s-31.5 -35.834 -31.5 -66.501c0 -25.333 10.5 -45.666 31.5 -60.999s48.833 -23 83.5 -23z" />
    <glyph glyph-name="nine" unicode="9" horiz-adv-x="564" 
d="M265 -10c-39.333 0 -72.499 4.83398 -99.499 14.501s-48.667 21.667 -65 36s-28.833 28.833 -37.5 43.5s-14.5 26.834 -17.5 36.501l-4.5 14.5l139 27l6.5 -11.5c4.33301 -7.66699 12.5 -15.5 24.5 -23.5s30 -12 54 -12c8.66699 0 19.334 1.83301 32.001 5.5
s25.334 11.5 38.001 23.5s23.167 30.5 31.5 55.5s12.166 58.833 11.499 101.5l-7.5 -14.5c-5 -9.66699 -13.5 -20.834 -25.5 -33.501s-28 -23.834 -48 -33.501s-45 -14.5 -75 -14.5c-44.667 0 -81.334 8.83301 -110.001 26.5s-49.5 40.5 -62.5 68.5s-18.167 57.667 -15.5 89
s13.167 61 31.5 89s44.166 50.833 77.499 68.5s74.333 26.5 123 26.5c46 0 85 -8 117 -24s57.833 -37.667 77.5 -65s34 -58 43 -92s13.5 -69.333 13.5 -106c0 -38.667 -4.66699 -75.667 -14 -111s-24 -67 -44 -95s-46 -50 -78 -66s-70.667 -24 -116 -24zM256.001 285.001
c31.333 0 56.668 9.66699 76.001 29s29 43.666 29 72.999c-6 28.667 -18.333 48.167 -37 58.5s-38.334 15.5 -59.001 15.5c-23.333 0 -42.5 -5.83301 -57.5 -17.5s-25.5 -26.167 -31.5 -43.5s-7 -34.666 -3 -51.999s12.833 -32 26.5 -44s32.5 -18.333 56.5 -19z" />
    <glyph glyph-name="colon" unicode=":" horiz-adv-x="266" 
d="M134 242c-30.667 0 -51.5 7.49805 -62.5 22.498s-16.5 33.5 -16.5 55.5c0 20.667 5.5 38.334 16.5 53.001s31.833 22 62.5 22s51.167 -7.5 61.5 -22.5s15.5 -32.5 15.5 -52.5c0 -21.333 -5.16699 -39.666 -15.5 -54.999s-30.833 -23 -61.5 -23zM134 18.998
c-31.333 0 -52.333 7.66699 -63 23s-16 33.666 -16 54.999c0 20.667 5.33301 38.334 16 53.001s31.667 22 63 22c30.667 0 51.167 -7.33301 61.5 -22s15.5 -32.334 15.5 -53.001c0 -21.333 -5.16699 -39.666 -15.5 -54.999s-30.833 -23 -61.5 -23z" />
    <glyph glyph-name="semicolon" unicode=";" horiz-adv-x="279" 
d="M147 264c-31.333 0 -52.333 7.66797 -63 23.001s-16 33.666 -16 54.999c0 20.667 5.33301 38.334 16 53.001s31.667 22 63 22c30 0 50.333 -7.33301 61 -22s16 -32.334 16 -53.001c0 -22 -5.33301 -40.5 -16 -55.5s-31 -22.5 -61 -22.5zM76 -115.999l-0.000976562 85h31
c18 0 31.333 1.66699 40 5s13 12 13 26c-32 0 -54 7 -66 21s-18 30.667 -18 50c0 20 5.66699 36.833 17 50.5s30.333 20.5 57 20.5c20 0 36.667 -6.16699 50 -18.5s20 -38.5 20 -78.5c0 -27.333 -3.83301 -53.333 -11.5 -78s-19.667 -44.667 -36 -60
s-38.166 -23 -65.499 -23h-31z" />
    <glyph glyph-name="less" unicode="&#x3c;" horiz-adv-x="445" 
d="M390 427v-106l-249 -83l249 -82v-107l-345 189z" />
    <glyph glyph-name="equal" unicode="=" horiz-adv-x="445" 
d="M40 256v90h350v-90h-350zM40 99v90h350v-90h-350z" />
    <glyph glyph-name="greater" unicode="&#x3e;" horiz-adv-x="435" 
d="M45 427l345 -189l-345 -189v107l249 82l-249 83v106z" />
    <glyph glyph-name="question" unicode="?" horiz-adv-x="460" 
d="M284 194h-126.999c0 17.333 6.66699 35.166 20 53.499s28.666 36.5 45.999 54.5s33 35.5 47 52.5s22 33.5 24 49.5c1.33301 13.333 -1.66699 24.833 -9 34.5s-21 14.5 -41 14.5c-18 0 -31.167 -3.66699 -39.5 -11s-13.833 -16.333 -16.5 -27s-3.66699 -20.334 -3 -29.001
s1 -14.667 1 -18h-131c-6 21.333 -7.5 43.833 -4.5 67.5s11.333 45.834 25 66.501s33.5 37.667 59.5 51s59.333 20 100 20c38.667 0 73 -6.33301 103 -19s53.667 -30.167 71 -52.5s26 -48.166 26 -77.499c0 -23.333 -5.16699 -44.166 -15.5 -62.499
s-22.833 -34.833 -37.5 -49.5s-29.5 -28.334 -44.5 -41.001s-27.667 -25.167 -38 -37.5s-15.5 -25.5 -15.5 -39.5zM219.001 -9c-31.333 0 -52.5 7.66699 -63.5 23s-16.5 33.333 -16.5 54c0 21.333 5.66699 39.5 17 54.5s32.333 22.5 63 22.5s51.334 -7.5 62.001 -22.5
s16 -33.167 16 -54.5c0 -22 -5.33301 -40.333 -16 -55s-31.334 -22 -62.001 -22z" />
    <glyph glyph-name="at" unicode="@" horiz-adv-x="895" 
d="M412 47c-42.667 0 -74.1729 14.6631 -94.5059 43.9961s-27.166 66 -20.499 110c4.66699 28.667 14.5 54.334 29.5 77.001s33.667 40.667 56 54s46.5 20 72.5 20c27.333 0 50.166 -5.83301 68.499 -17.5s31.5 -27.834 39.5 -48.501l7 53h104l-29 -141
c-2.66699 -14 -4.83398 -28.667 -6.50098 -44s-0.166992 -28.5 4.5 -39.5s15 -16.5 31 -16.5c21.333 0 39.333 6.83301 54 20.5s25.334 31.334 32.001 53.001s8.83398 45.167 6.50098 70.5s-9.5 50 -21.5 74c-17.333 34.667 -42.666 62.667 -75.999 84s-70.5 36 -111.5 44
s-81.833 9.16699 -122.5 3.5s-77.334 -18.167 -110.001 -37.5c-37.333 -22.667 -67.666 -53.167 -90.999 -91.5s-36.666 -81.833 -39.999 -130.5c-2.66699 -45.333 4.83301 -84.666 22.5 -117.999s42.834 -60 75.501 -80s70.334 -33.333 113.001 -40
s87.667 -5.83398 135 2.49902s94.333 24.5 141 48.5l71 -122c-42 -22 -88.5 -39.333 -139.5 -52s-102.833 -19.167 -155.5 -19.5s-103.667 6 -153 19s-93.333 33.833 -132 62.5s-69.5 65.834 -92.5 111.501s-34.5 100.834 -34.5 165.501c0 78.667 19.333 148.167 58 208.5
s90.667 105.833 156 136.5c40 18.667 83.333 31.5 130 38.5s93.667 8 141 3s91.833 -16.333 133.5 -34s77.5 -41.5 107.5 -71.5s51.333 -66.333 64 -109c10 -35.333 12.5 -70.666 7.5 -105.999s-16.667 -67.5 -35 -96.5s-42.5 -52.167 -72.5 -69.5s-65 -26 -105 -26
c-36 0 -60.333 7.83301 -73 23.5s-18.667 33.5 -18 53.5c-14.667 -22 -33.167 -39.167 -55.5 -51.5s-46.166 -18.5 -71.499 -18.5zM449.994 122.996c21.333 0 37.333 4.99902 48 14.999s18.167 21.167 22.5 33.5s7.16602 21.833 8.49902 28.5
c4 22.667 2.16699 41.167 -5.5 55.5s-23.167 21.5 -46.5 21.5c-20.667 0 -38.667 -7.16699 -54 -21.5s-24.666 -33.166 -27.999 -56.499c-2.66699 -22.667 0.5 -41 9.5 -55s24.167 -21 45.5 -21z" />
    <glyph glyph-name="A" unicode="A" horiz-adv-x="591" 
d="M18 0l162 563h229l168 -563h-149l-37 141h-187l-36 -141h-150zM297 505l-66 -258h133z" />
    <glyph glyph-name="B" unicode="B" horiz-adv-x="584" 
d="M50 0l-0.000976562 563.005h243c13.333 0 29.666 -0.5 48.999 -1.5s39.333 -3.66699 60 -8s40 -11.833 58 -22.5s32.667 -25.334 44 -44.001s17 -42.667 17 -72c0 -21.333 -4.33301 -41 -13 -59s-24.167 -32.833 -46.5 -44.5s-54.833 -18.834 -97.5 -21.501v-4
c48.667 -1.33301 86.334 -8 113.001 -20s45.334 -27.5 56.001 -46.5s16 -40.833 16 -65.5c0 -30.667 -6 -55.834 -18 -75.501s-27.833 -34.834 -47.5 -45.501s-41 -18.334 -64 -23.001s-45.667 -7.5 -68 -8.5s-41.833 -1.5 -58.5 -1.5h-243zM186.999 342.005
l88 -0.000976562c16.667 0 33.334 0.833008 50.001 2.5s30.667 6.33398 42 14.001s17 20.834 17 39.501c0 18 -5.16699 30.667 -15.5 38s-23.833 11.666 -40.5 12.999s-34.334 2 -53.001 2h-88v-109zM187.999 111.004l92 -0.000976562c21.333 0 41.5 0.833008 60.5 2.5
s34.5 7 46.5 16s18 24.167 18 45.5s-5.83301 36.333 -17.5 45s-27 13.834 -46 15.501s-39.5 2.5 -61.5 2.5h-92v-127z" />
    <glyph glyph-name="C" unicode="C" horiz-adv-x="608" 
d="M303 -10c-53.333 0 -102.003 10.668 -146.003 32.001s-79 53.333 -105 96s-38.667 95.667 -38 159c0.666992 62 13.834 115.167 39.501 159.5s60.5 78.166 104.5 101.499s93.333 35 148 35c56.667 0 104.334 -10.167 143.001 -30.5s68.834 -47 90.501 -80
s35.5 -68.5 41.5 -106.5h-144c-3.33301 25.333 -12.833 44 -28.5 56s-33 19.833 -52 23.5s-35.833 5.5 -50.5 5.5c-52 0 -90.667 -13.5 -116 -40.5s-38 -64.5 -38 -112.5c0 -52.667 12.333 -93.667 37 -123s63.334 -44 116.001 -44c15.333 0 32.666 2.16699 51.999 6.5
s36.833 13.166 52.5 26.499s25.167 33.333 28.5 60h145c-6.66699 -39.333 -21 -76.166 -43 -110.499s-52.5 -61.833 -91.5 -82.5s-87.5 -31 -145.5 -31z" />
    <glyph glyph-name="D" unicode="D" horiz-adv-x="625" 
d="M585 282c0 -74 -14.833 -131.5 -44.5 -172.5s-71.834 -69.5 -126.501 -85.5s-119 -24 -193 -24h-161v563h161c74 0 138.333 -10.5 193 -31.5s96.834 -52.167 126.501 -93.5s44.5 -93.333 44.5 -156zM198 114h65.999c36 0 66.833 4.5 92.5 13.5s45.334 25.667 59.001 50
s20.5 59.5 20.5 105.5c0 53.333 -15.167 93.333 -45.5 120s-72.5 40 -126.5 40h-66v-329z" />
    <glyph glyph-name="E" unicode="E" horiz-adv-x="523" 
d="M187 111h300v-111h-437v563h426v-119h-289v-103h215v-112h-215v-118z" />
    <glyph glyph-name="F" unicode="F" horiz-adv-x="470" 
d="M197 0h-137v563h412v-119h-275v-97h203v-111h-203v-236z" />
    <glyph glyph-name="G" unicode="G" horiz-adv-x="636" 
d="M290 -10c-55.333 0 -104.003 10.833 -146.003 32.5s-74.167 53.834 -96.5 96.501s-32.833 95.667 -31.5 159c2 64 15.833 118 41.5 162s60.5 77.167 104.5 99.5s93.667 33.5 149 33.5c82.667 0 144.834 -16.667 186.501 -50s69.834 -82 84.501 -146l-135 -21
c-5.33301 23.333 -15.5 41.166 -30.5 53.499s-32 20.833 -51 25.5s-37.167 7 -54.5 7c-56 0 -96.333 -14.5 -121 -43.5s-36.667 -65.5 -36 -109.5c0 -54 15.167 -94.667 45.5 -122s73.833 -41 130.5 -41c16.667 0 34 1.83301 52 5.5s34.667 10.167 50 19.5s27 23 35 41h-91
v100h217v-292h-93l-30 72h-2c-12.667 -22.667 -34.167 -42 -64.5 -58s-68.166 -24 -113.499 -24z" />
    <glyph glyph-name="H" unicode="H" horiz-adv-x="595" 
d="M190 0h-140v563h140v-227h215v227h140v-563h-140v230h-215v-230z" />
    <glyph glyph-name="I" unicode="I" horiz-adv-x="415" 
d="M347 119v-119h-284v119h73v325h-73v119h284v-119h-72v-325h72z" />
    <glyph glyph-name="J" unicode="J" horiz-adv-x="508" 
d="M243 -10c-50 0 -90.332 8.83301 -120.999 26.5s-52.834 41.834 -66.501 72.501s-20.5 66 -20.5 106h132c0 -22.667 4.83301 -42.5 14.5 -59.5s28.5 -25.5 56.5 -25.5c24 0 41.667 7.5 53 22.5s17 44.833 17 89.5v235h-118v106h258v-317
c0 -38.667 -2.5 -73.834 -7.5 -105.501s-14.5 -58.667 -28.5 -81s-34.5 -39.5 -61.5 -51.5s-62.833 -18 -107.5 -18z" />
    <glyph glyph-name="K" unicode="K" horiz-adv-x="604" 
d="M60 0v563h139v-239l202 239h182v-13l-207 -204l219 -333v-13h-159l-161 246l-76 -75v-171h-139z" />
    <glyph glyph-name="L" unicode="L" horiz-adv-x="473" 
d="M60 0v563h140v-444h243v-119h-383z" />
    <glyph glyph-name="M" unicode="M" horiz-adv-x="766" 
d="M60 0v563h243l83 -505h2l81 505h242v-563h-145l10 504h-1l-88 -504h-203l-86 504h-2l9 -504h-145z" />
    <glyph glyph-name="N" unicode="N" horiz-adv-x="630" 
d="M429 563h146v-563h-268l-105 502h-2v-502h-145v563h248l124 -502h2v502z" />
    <glyph glyph-name="O" unicode="O" horiz-adv-x="619" 
d="M302 -14c-93.333 0 -164.667 26.5 -214 79.5s-74 124.5 -74 214.5c0 59.333 10.667 110.833 32 154.5s53.333 77.667 96 102s96 36.5 160 36.5c93.333 0 164.333 -26.5 213 -79.5s73 -124.167 73 -213.5c0 -58 -10.833 -109.167 -32.5 -153.5s-53.667 -78.833 -96 -103.5
s-94.833 -37 -157.5 -37zM299.999 121c34 0 62.168 7.16797 84.501 21.501s39 33.666 50 57.999s16.5 50.833 16.5 79.5c0 29.333 -5.5 56.333 -16.5 81s-27.667 44.334 -50 59.001s-50.5 22 -84.5 22c-48.667 0 -85.834 -15.333 -111.501 -46s-38.5 -69.334 -38.5 -116.001
c0 -28 5.5 -54.167 16.5 -78.5s27.5 -43.833 49.5 -58.5s50 -22 84 -22z" />
    <glyph glyph-name="P" unicode="P" horiz-adv-x="508" 
d="M190 0h-140v563h238c64 0 114.5 -16.5 151.5 -49.5s55.5 -82.5 55.5 -148.5c0 -56 -19 -100.167 -57 -132.5s-88 -48.5 -150 -48.5h-98v-184zM267 451l-76.999 -0.000976562v-169h77c28 0 52 7.16699 72 21.5s30 35.5 30 63.5c0 28.667 -9.83301 49.834 -29.5 63.501
s-43.834 20.5 -72.501 20.5z" />
    <glyph glyph-name="Q" unicode="Q" horiz-adv-x="636" 
d="M400 -141c-14 0 -28.5029 0.500977 -43.5029 1.50098s-29.333 5.16699 -43 12.5s-25 20.166 -34 38.499s-14.5 44.5 -16.5 78.5c-76 10 -133.833 40.667 -173.5 92s-59.5 117.333 -59.5 198c0 58.667 10.667 110 32 154s53.5 78.167 96.5 102.5s96.5 36.5 160.5 36.5
c62.667 0 115.334 -12.167 158.001 -36.5s74.834 -58.333 96.501 -102s32.5 -95.167 32.5 -154.5c0 -74.667 -17.833 -137.5 -53.5 -188.5s-88.167 -83.833 -157.5 -98.5c0 -14.667 2.83301 -23.167 8.5 -25.5s19.167 -3.5 40.5 -3.5c-2.66699 0 1.83301 0.166992 13.5 0.5
s23.834 0.5 36.501 0.5l-2 -105h-18.5c-10.333 0 -21.5 -0.166992 -33.5 -0.5s-22.167 -0.5 -30.5 -0.5s-11.5 0 -9.5 0zM316.997 124.001c49.333 0 86 14.665 110 43.998s36 68.333 36 117s-12 87.834 -36 117.501s-60.667 44.5 -110 44.5
c-47.333 0 -83.333 -14.167 -108 -42.5s-37 -68.166 -37 -119.499c0 -48.667 12 -87.667 36 -117s60.333 -44 109 -44z" />
    <glyph glyph-name="R" unicode="R" horiz-adv-x="578" 
d="M50 0l-0.000976562 562.998h229c73.333 0 131.333 -13 174 -39s64 -69.667 64 -131c0 -50.667 -11.167 -90 -33.5 -118s-52.5 -42 -90.5 -42c18.667 0 32.834 -4.16699 42.501 -12.5s16.667 -19 21 -32s7.83301 -26.167 10.5 -39.5s6.33398 -25.166 11.001 -35.499
s12.167 -17 22.5 -20s25.166 -0.5 44.499 7.5v-76c-18.667 -16 -39.334 -26.5 -62.001 -31.5s-44.167 -3.66699 -64.5 4s-37.166 22.334 -50.499 44.001s-20 51.167 -20 88.5c0 16 -1.16699 30.5 -3.5 43.5s-8.5 23.833 -18.5 32.5s-25.667 14.5 -47 17.5
s-51 2.83301 -89 -0.5v-223h-140zM189.999 320.998l70 -0.000976562c30.667 0 55.667 0.333008 75 1s33.833 5.16699 43.5 13.5s14.5 23.5 14.5 45.5c0 24.667 -5.83301 41.834 -17.5 51.501s-28.667 15.167 -51 16.5s-49.833 2 -82.5 2h-52v-130z" />
    <glyph glyph-name="S" unicode="S" horiz-adv-x="584" 
d="M282 -10c-32 0 -63.3252 3.66406 -93.9922 10.9971s-58.334 19.166 -83.001 35.499s-44.5 37.5 -59.5 63.5s-22.5 57.333 -22.5 94h140c0 -4 1.5 -10.167 4.5 -18.5s9 -17.166 18 -26.499s22 -17.166 39 -23.499s39.833 -9.5 68.5 -9.5c12.667 0 25.667 1 39 3
s24.666 6.16699 33.999 12.5s14 16.166 14 29.499c0 14 -6.5 25 -19.5 33s-30 14.5 -51 19.5s-44 10.167 -69 15.5s-49.833 12 -74.5 20s-47.167 18.833 -67.5 32.5s-36 31.334 -47 53.001s-15.5 48.834 -13.5 81.501c3.33301 49.333 26.666 87.833 69.999 115.5
s103.666 41.5 180.999 41.5c41.333 0 80.166 -7.33301 116.499 -22s66 -37 89 -67s34.5 -68 34.5 -114h-135c0 20.667 -6.83301 36.167 -20.5 46.5s-30 17.166 -49 20.499s-36.167 5 -51.5 5c-24.667 0 -45.167 -3 -61.5 -9s-24.5 -17.667 -24.5 -35
c0 -15.333 6.66699 -27.166 20 -35.499s30.666 -15 51.999 -20s44.833 -10 70.5 -15s51.167 -11.167 76.5 -18.5s48.166 -17.5 68.499 -30.5s36.333 -30.167 48 -51.5s16.167 -48.666 13.5 -81.999c-3.33301 -48.667 -27.833 -86.667 -73.5 -114s-105.834 -41 -180.501 -41z
" />
    <glyph glyph-name="T" unicode="T" horiz-adv-x="480" 
d="M10 444v119h445v-119h-153v-444h-140v444h-152z" />
    <glyph glyph-name="U" unicode="U" horiz-adv-x="614" 
d="M310 -14c-84 0 -147.498 22.168 -190.498 66.501s-64.5 106.833 -64.5 187.5v323h150v-322c0 -28 3.66699 -50.167 11 -66.5s16.5 -28.5 27.5 -36.5s22.5 -13.167 34.5 -15.5s22.667 -3.5 32 -3.5c15.333 0 31.166 2.33301 47.499 7s30.166 15.667 41.499 33
s17 44.666 17 81.999v322h150v-323c0 -82 -21.167 -144.833 -63.5 -188.5s-106.5 -65.5 -192.5 -65.5z" />
    <glyph glyph-name="V" unicode="V" horiz-adv-x="595" 
d="M442 563h153l-174 -563h-232l-174 563h153l136 -506z" />
    <glyph glyph-name="W" unicode="W" horiz-adv-x="802" 
d="M634 563h148l-104 -563h-223l-53 387l-47 -387h-224l-111 563h148l74 -506l85 503l-1 3h150l91 -506z" />
    <glyph glyph-name="X" unicode="X" horiz-adv-x="591" 
d="M16 0l193 295l-180 268h164l110 -187l110 187h162l-178 -268l194 -295h-162l-126 210l-125 -210h-162z" />
    <glyph glyph-name="Y" unicode="Y" horiz-adv-x="464" 
d="M163 0v194h-1l-191 369h157l107 -251l107 251h157l-197 -369v-194h-139z" />
    <glyph glyph-name="Z" unicode="Z" horiz-adv-x="583" 
d="M50 0v117l306 327h-287v119h466v-119l-299 -325h298v-119h-484z" />
    <glyph glyph-name="bracketleft" unicode="[" horiz-adv-x="326" 
d="M306 -199h-271v802h271v-130h-131v-541l131 -1v-130z" />
    <glyph glyph-name="backslash" unicode="\" horiz-adv-x="399" 
d="M224 0l-254 563h130l254 -563h-130z" />
    <glyph glyph-name="bracketright" unicode="]" horiz-adv-x="326" 
d="M35 -199v130l131 1v541h-131v130h271v-802h-271z" />
    <glyph glyph-name="asciicircum" unicode="^" horiz-adv-x="480" 
d="M30 320v32l210 210l210 -210v-32h-128l-81 140h-2l-80 -140h-129z" />
    <glyph glyph-name="underscore" unicode="_" horiz-adv-x="617" 
d="M40 0v94h522v-94h-522z" />
    <glyph glyph-name="grave" unicode="`" 
d="M125 632l-92 92v22h115l39 -97v-17h-62z" />
    <glyph glyph-name="a" unicode="a" horiz-adv-x="480" 
d="M174 -10c-56.667 0 -95.832 18.834 -117.499 56.501s-32.5 88.834 -32.5 153.501c0 43.333 4.66699 81 14 113s25 56.833 47 74.5s51.667 26.5 89 26.5c27.333 0 49.5 -3.83301 66.5 -11.5s30.167 -16.5 39.5 -26.5s15.666 -18.833 18.999 -26.5l5 -11.5h2v76h144v-414
h-122l-22 56h-2c0.666992 0 -1 -3.33301 -5 -10s-10.833 -14.334 -20.5 -23.001s-23 -16.334 -40 -23.001s-38.5 -10 -64.5 -10zM233.002 105.001c22.667 0 39.167 4.5 49.5 13.5s16.833 20.833 19.5 35.5s4 29.667 4 45c0 16 -1.33301 31.167 -4 45.5
s-9.16699 25.833 -19.5 34.5s-26.833 13 -49.5 13s-39.167 -4.5 -49.5 -13.5s-16.833 -20.5 -19.5 -34.5s-4 -29 -4 -45s1.33301 -31.167 4 -45.5s9.16699 -26 19.5 -35s26.833 -13.5 49.5 -13.5z" />
    <glyph glyph-name="b" unicode="b" horiz-adv-x="513" 
d="M313 -10c-24 0 -44.166 3.33203 -60.499 9.99902s-29.5 14.334 -39.5 23.001s-17.167 16.334 -21.5 23.001l-6.5 10h-2l-22 -56h-122v563h144v-225h2l6 11.5c4 7.66699 10.667 16.5 20 26.5s22.333 18.833 39 26.5s37.667 11.5 63 11.5
c61.333 0 103.666 -18.833 126.999 -56.5s35 -90.834 35 -159.501c0 -42.667 -4.83301 -79.667 -14.5 -111s-26.167 -55.333 -49.5 -72s-56 -25 -98 -25zM261.001 104.999c24 0 41.5 4.5 52.5 13.5s18 20.667 21 35s4.5 29.5 4.5 45.5s-1.5 31.167 -4.5 45.5
s-10 25.833 -21 34.5s-28.5 13 -52.5 13c-23.333 0 -40.666 -4.33301 -51.999 -13s-18.5 -20.167 -21.5 -34.5s-4.5 -29.5 -4.5 -45.5s1.5 -31.167 4.5 -45.5s10.167 -26 21.5 -35s28.666 -13.5 51.999 -13.5z" />
    <glyph glyph-name="c" unicode="c" horiz-adv-x="486" 
d="M245 -10c-38.667 0 -74.499 7.66797 -107.499 23.001s-59.5 38.666 -79.5 69.999s-30 70.333 -30 117c1.33301 46 11.666 85 30.999 117s45.333 56.5 78 73.5s69 25.5 109 25.5c46.667 0 85.5 -9 116.5 -27s54.333 -40.5 70 -67.5s23.5 -54.167 23.5 -81.5h-127
c-6.66699 38.667 -32.667 58 -78 58c-30 0 -52 -8 -66 -24s-21 -36.667 -21 -62c0 -31.333 7 -56.333 21 -75s36.667 -28 68 -28c18 0 34.333 5 49 15s23.667 26.333 27 49h127c0 -29.333 -7.83301 -58 -23.5 -86s-39.167 -51.167 -70.5 -69.5s-70.333 -27.5 -117 -27.5z
" />
    <glyph glyph-name="d" unicode="d" horiz-adv-x="523" 
d="M200 -10c-41.333 0 -73.8311 8.33398 -97.498 25.001s-40.334 40.667 -50.001 72s-14.5 68.333 -14.5 111c0 68.667 11.667 121.834 35 159.501s65.666 56.5 126.999 56.5c25.333 0 46.333 -3.83301 63 -11.5s29.667 -16.5 39 -26.5s16 -18.833 20 -26.5l6 -11.5h2v225
h144v-563h-122l-22 56h-2l-6.5 -10c-4.33301 -6.66699 -11.5 -14.334 -21.5 -23.001s-23.167 -16.334 -39.5 -23.001s-36.5 -10 -60.5 -10zM252.002 105.001c24 0 41.5 4.5 52.5 13.5s18 20.667 21 35s4.5 29.5 4.5 45.5s-1.5 31.167 -4.5 45.5s-10 25.833 -21 34.5
s-28.5 13 -52.5 13c-23.333 0 -40.666 -4.33301 -51.999 -13s-18.5 -20.167 -21.5 -34.5s-4.5 -29.5 -4.5 -45.5s1.5 -31.167 4.5 -45.5s10.167 -26 21.5 -35s28.666 -13.5 51.999 -13.5z" />
    <glyph glyph-name="e" unicode="e" horiz-adv-x="474" 
d="M235 -10c-50 0 -90.333 9.99805 -121 29.998s-53.167 45.833 -67.5 77.5s-22.166 64.834 -23.499 99.501c-1.33301 45.333 6.66699 84.5 24 117.5s41.833 58.333 73.5 76s68.167 26.5 109.5 26.5c39.333 0 74.5 -8.16699 105.5 -24.5s55.333 -39.5 73 -69.5
s26.5 -66 26.5 -108v-26h-280c0 -29.333 7.16699 -50.666 21.5 -63.999s32.833 -20 55.5 -20c19.333 0 34.833 4.5 46.5 13.5s18.5 20.5 20.5 34.5h135c-2 -29.333 -10.667 -56.5 -26 -81.5s-37.333 -44.833 -66 -59.5s-64.334 -22 -107.001 -22zM157 244.998h138.001
l-0.5 9c-0.333008 6 -2.5 13 -6.5 21s-10.667 15 -20 21s-23 9 -41 9s-32 -3 -42 -9s-16.833 -13 -20.5 -21s-5.83398 -15 -6.50098 -21z" />
    <glyph glyph-name="f" unicode="f" horiz-adv-x="309" 
d="M69 0v319h-49v95h49v45c0 49.333 11.667 83.333 35 102s55 28 95 28h96v-107h-87v-68h87v-95h-87v-319h-139z" />
    <glyph glyph-name="g" unicode="g" horiz-adv-x="496" 
d="M165 -199v132.002h157v123h-2l-6.5 -10c-4.33301 -6.66699 -11.166 -14.334 -20.499 -23.001s-22 -16.334 -38 -23.001s-36 -10 -60 -10c-41.333 0 -74 8.5 -98 25.5s-41 41.167 -51 72.5s-15 68.333 -15 111c0 68.667 12 121.667 36 159s66.667 56 128 56
c25.333 0 46.166 -3.83301 62.499 -11.5s29 -16.5 38 -26.5s15.333 -18.833 19 -26.5l5.5 -11.5h2v76h144v-414c0 -51.333 -6.83301 -91.5 -20.5 -120.5s-34 -49.333 -61 -61s-60.5 -17.5 -100.5 -17.5h-119zM244 105.002c24 0 41.5 4.5 52.5 13.5s18 20.667 21 35
s4.5 29.5 4.5 45.5s-1.5 31.167 -4.5 45.5s-10 25.833 -21 34.5s-28.5 13 -52.5 13c-23.333 0 -40.666 -4.33301 -51.999 -13s-18.5 -20.167 -21.5 -34.5s-4.5 -29.5 -4.5 -45.5s1.5 -31.167 4.5 -45.5s10.167 -26 21.5 -35s28.666 -13.5 51.999 -13.5z" />
    <glyph glyph-name="h" unicode="h" horiz-adv-x="506" 
d="M45 0v563h144v-225h2l5 11.5c3.33301 7.66699 9.5 16.5 18.5 26.5s21.5 18.833 37.5 26.5s36.667 11.5 62 11.5c29.333 0 53.333 -5.5 72 -16.5s33.167 -25.333 43.5 -43s17.666 -36.5 21.999 -56.5s7 -38.833 8 -56.5s1.5 -32.167 1.5 -43.5v-198h-136v199
c0 14.667 -1.16699 29 -3.5 43s-8.16602 25.833 -17.499 35.5s-25.333 14.5 -48 14.5c-22 0 -37.667 -4.83301 -47 -14.5s-15 -21.5 -17 -35.5s-3 -28.333 -3 -43v-199h-144z" />
    <glyph glyph-name="i" unicode="i" horiz-adv-x="238" 
d="M120 461c-28.667 -0.666992 -47.667 6 -57 20s-14 30.667 -14 50c0 18.667 4.83301 34.667 14.5 48s28.5 20 56.5 20c27.333 0 45.666 -6.66699 54.999 -20s14 -29.333 14 -48c0 -20 -4.66699 -36.5 -14 -49.5s-27.666 -19.833 -54.999 -20.5zM50 0v414h140v-414h-140z
" />
    <glyph glyph-name="j" unicode="j" horiz-adv-x="279" 
d="M156 430c-30 0 -50 7 -60 21s-15 31.333 -15 52c0 20 5 37 15 51s30 21 60 21c28.667 0 47.834 -7 57.501 -21s14.5 -31 14.5 -51c0 -20.667 -4.83301 -38 -14.5 -52s-28.834 -21 -57.501 -21zM84 414h140v-483c0 -49.333 -11.667 -83.333 -35 -102s-55 -28 -95 -28h-77
v107h67v506z" />
    <glyph glyph-name="k" unicode="k" horiz-adv-x="468" 
d="M175 0h-140v563h140v-311l128 165h168l-160 -172l163 -244h-165l-95 139l-39 -42v-98z" />
    <glyph glyph-name="l" unicode="l" horiz-adv-x="226" 
d="M45 0v563h136v-563h-136z" />
    <glyph glyph-name="m" unicode="m" horiz-adv-x="659" 
d="M35 0l-0.00292969 414.004h123v-76h2l6 11.5c4 7.66699 10.5 16.5 19.5 26.5s20.833 18.833 35.5 26.5s32.667 11.5 54 11.5c28.667 0 51 -7.33301 67 -22s27.667 -32.667 35 -54h2l7 11.5c4.66699 7.66699 11.834 16.5 21.501 26.5s22.334 18.833 38.001 26.5
s34.5 11.5 56.5 11.5c25.333 0 45.833 -5.5 61.5 -16.5s27.834 -25.333 36.501 -43s14.667 -36.334 18 -56.001s5.16602 -38.5 5.49902 -56.5s0.5 -32.667 0.5 -44v-198h-116v199c0 12.667 -0.833008 26.167 -2.5 40.5s-6.5 26.666 -14.5 36.999s-22 15.5 -42 15.5
c-16.667 0 -29.167 -3.83301 -37.5 -11.5s-13.666 -17.334 -15.999 -29.001s-3.83301 -23.834 -4.5 -36.501v-9v-8v-198h-116v199c0 12.667 -0.833008 26.167 -2.5 40.5s-6.5 26.666 -14.5 36.999s-22 15.5 -42 15.5c-19.333 0 -33 -5 -41 -15s-12.833 -22.167 -14.5 -36.5
s-2.5 -28.166 -2.5 -41.499v-199h-123z" />
    <glyph glyph-name="n" unicode="n" horiz-adv-x="486" 
d="M35 0v412h121l23 -74h2l5.5 11.5c3.66699 7.66699 10.167 16.5 19.5 26.5s22.5 18.833 39.5 26.5s38.833 11.5 65.5 11.5c30 0 54.167 -5.33301 72.5 -16s32.333 -24.5 42 -41.5s16.167 -35.333 19.5 -55s5.16602 -38.667 5.49902 -57s0.5 -33.833 0.5 -46.5v-198h-136
v199c0 14.667 -1.16699 29 -3.5 43s-8.16602 25.833 -17.499 35.5s-25.333 14.5 -48 14.5c-22 0 -37.667 -4.83301 -47 -14.5s-15 -21.5 -17 -35.5s-3 -28.333 -3 -43v-199h-144z" />
    <glyph glyph-name="o" unicode="o" horiz-adv-x="487" 
d="M239 -10c-48.667 0 -89.333 9.16602 -122 27.499s-57 43.5 -73 75.5s-24 68.333 -24 109c-0.666992 41.333 7 77.833 23 109.5s40.5 56.834 73.5 75.501s73.833 28 122.5 28c71.333 0 125.5 -19.5 162.5 -58.5s55.5 -90.5 55.5 -154.5c0 -40 -7.83301 -76 -23.5 -108
s-39.5 -57.333 -71.5 -76s-73 -28 -123 -28zM239.001 105.999c24.667 0 43 5 55 15s19.833 22.833 23.5 38.5s5.5 31.5 5.5 47.5c0 16.667 -1.83301 32.667 -5.5 48s-11.5 28.166 -23.5 38.499s-30.333 15.5 -55 15.5s-43.167 -5.16699 -55.5 -15.5
s-20.333 -23.166 -24 -38.499s-5.5 -31.333 -5.5 -48c0 -16 1.83301 -31.833 5.5 -47.5s11.667 -28.5 24 -38.5s30.833 -15 55.5 -15z" />
    <glyph glyph-name="p" unicode="p" horiz-adv-x="510" 
d="M318 -10c-24 0 -43.834 3.33008 -59.501 9.99707s-28.167 14.334 -37.5 23.001s-16 16.334 -20 23.001l-6 10h-2v-255h-144v613h122l22 -76h2l5 11.5c3.33301 7.66699 9.5 16.5 18.5 26.5s21.5 18.833 37.5 26.5s36.667 11.5 62 11.5c42 0 75 -8.66699 99 -26
s41 -42.166 51 -74.499s15 -70.833 15 -115.5c0 -66 -12.167 -117.167 -36.5 -153.5s-67.166 -54.5 -128.499 -54.5zM270.999 104.997c24 0 41.5 4.5 52.5 13.5s18 20.667 21 35s4.5 29.5 4.5 45.5s-1.5 31.167 -4.5 45.5s-10 25.833 -21 34.5s-28.5 13 -52.5 13
c-23.333 0 -40.666 -4.33301 -51.999 -13s-18.5 -20.167 -21.5 -34.5s-4.5 -29.5 -4.5 -45.5s1.5 -31.167 4.5 -45.5s10.167 -26 21.5 -35s28.666 -13.5 51.999 -13.5z" />
    <glyph glyph-name="q" unicode="q" horiz-adv-x="510" 
d="M192 -10c-61.333 0 -104.166 18.1699 -128.499 54.5029s-36.5 87.5 -36.5 153.5c0 44.667 5 83.167 15 115.5s27.167 57.166 51.5 74.499s57.166 26 98.499 26c25.333 0 46 -3.83301 62 -11.5s28.5 -16.5 37.5 -26.5s15.167 -18.833 18.5 -26.5l5 -11.5h2l22 76h122v-613
h-144v255h-2l-6 -10c-4 -6.66699 -10.667 -14.334 -20 -23.001s-21.833 -16.334 -37.5 -23.001s-35.5 -10 -59.5 -10zM239 105.003c24 0 41.5 4.5 52.5 13.5s18 20.667 21 35s4.5 29.5 4.5 45.5s-1.5 31.167 -4.5 45.5s-10 25.833 -21 34.5s-28.5 13 -52.5 13
c-23.333 0 -40.666 -4.33301 -51.999 -13s-18.5 -20.167 -21.5 -34.5s-4.5 -29.5 -4.5 -45.5s1.5 -31.167 4.5 -45.5s10.167 -26 21.5 -35s28.666 -13.5 51.999 -13.5z" />
    <glyph glyph-name="r" unicode="r" horiz-adv-x="374" 
d="M35 0v414.002h132l9 -118c4 17.333 11.667 35.166 23 53.499s27.666 33.666 48.999 45.999s49.333 18.5 84 18.5h9v-155h-10c-33.333 0 -61.666 -2 -84.999 -6s-41 -12.5 -53 -25.5s-18 -33.833 -18 -62.5v-165h-140z" />
    <glyph glyph-name="s" unicode="s" horiz-adv-x="427" 
d="M221 -10c-4.66699 0 -14.5 0.503906 -29.5 1.50391s-32 4 -51 9s-37.5 13.167 -55.5 24.5s-32.833 26.833 -44.5 46.5s-17.5 45.167 -17.5 76.5h128c0 -0.666992 0.166992 -4 0.5 -10s2.33301 -12.667 6 -20s10 -13.833 19 -19.5s22.5 -8.5 40.5 -8.5
c22.667 0 36.667 4 42 12s8 14 8 18c0 10 -5.66699 18 -17 24s-26 11.5 -44 16.5s-37.167 10.667 -57.5 17s-39.5 14.666 -57.5 24.999s-32.667 23.833 -44 40.5s-17 38 -17 64c0 42.667 15.833 73.667 47.5 93s71.5 29 119.5 29c60 0 108.833 -13.833 146.5 -41.5
s57.167 -68.167 58.5 -121.5h-126c0 23.333 -7.5 39 -22.5 47s-31.5 12 -49.5 12c-19.333 0 -32 -3.16699 -38 -9.5s-9 -12.833 -9 -19.5c0 -12 5.83301 -21.5 17.5 -28.5s26.667 -13.167 45 -18.5l59 -17c21 -6 40.667 -13.833 59 -23.5s33.333 -22.334 45 -38.001
s17.5 -35.834 17.5 -60.501c0 -38.667 -15.833 -68.334 -47.5 -89.001s-75.5 -31 -131.5 -31z" />
    <glyph glyph-name="t" unicode="t" horiz-adv-x="334" 
d="M203 0c-40 0 -71.667 9.33301 -95 28s-35 52.667 -35 102v189h-58v95c16 0 29.833 2.33301 41.5 7s20.667 14.5 27 29.5s9.5 37.833 9.5 68.5h110v-105h93v-95h-93v-212h96v-107h-96z" />
    <glyph glyph-name="u" unicode="u" horiz-adv-x="476" 
d="M170 -10c-30 0 -54.168 5.33301 -72.501 16s-32.333 24.5 -42 41.5s-16.167 35.333 -19.5 55s-5.16602 38.667 -5.49902 57s-0.5 33.833 -0.5 46.5v208h136v-209c0 -14 1.16699 -28.167 3.5 -42.5s8.33301 -26.333 18 -36s25.5 -14.5 47.5 -14.5s37.667 4.83301 47 14.5
s15 21.667 17 36s3 28.5 3 42.5v209h144v-414h-121l-23 66h-2l-5.5 -11.5c-3.66699 -7.66699 -10.167 -16.5 -19.5 -26.5s-22.5 -18.833 -39.5 -26.5s-38.833 -11.5 -65.5 -11.5z" />
    <glyph glyph-name="v" unicode="v" horiz-adv-x="481" 
d="M314 414h136v-19l-128 -395h-193l-129 394v20h134l92 -298h2z" />
    <glyph glyph-name="w" unicode="w" horiz-adv-x="669" 
d="M91 0l-82 395v21h138l44 -300h2l71 300h119l75 -300h2l45 300h137v-21l-86 -395h-193l-38 175h-2l-35 -175h-197z" />
    <glyph glyph-name="x" unicode="x" horiz-adv-x="474" 
d="M-10 0l151 214l-142 200h151l79 -123l78 123h152l-141 -200l150 -214h-150l-89 134l-88 -134h-151z" />
    <glyph glyph-name="y" unicode="y" horiz-adv-x="474" 
d="M0 -199v106h70c10 0 19.167 0.666992 27.5 2s16.5 5.83301 24.5 13.5s17 21.167 27 40.5l12 28l-161 423h143l85 -282l93 282h143l-187 -462c-14 -34 -27 -61 -39 -81s-24.667 -35 -38 -45s-28.5 -16.667 -45.5 -20s-37.5 -5 -61.5 -5h-93z" />
    <glyph glyph-name="z" unicode="z" horiz-adv-x="459" 
d="M35 0v100l220 216h-206v101h365v-98l-212 -217h212v-102h-379z" />
    <glyph glyph-name="braceleft" unicode="{" horiz-adv-x="392" 
d="M362 -196c-77.333 -16.667 -136.166 -18.5059 -176.499 -5.50586s-65.5 39.833 -75.5 80.5s-9 93.667 3 159c4 24.667 3.5 43.834 -1.5 57.501s-12.5 23.334 -22.5 29.001s-20.5 9.16699 -31.5 10.5s-20.167 2 -27.5 2v134c7.33301 0 16.5 0.666992 27.5 2
s21.5 4.83301 31.5 10.5s17.5 15.334 22.5 29.001s5.5 32.834 1.5 57.501c-12 66 -12.833 118.167 -2.5 156.5s35.5 63.833 75.5 76.5s98.667 12.667 176 0v-130c-36.667 8 -63.5 10.167 -80.5 6.5s-27.833 -11.167 -32.5 -22.5s-5.83398 -24.5 -3.50098 -39.5
s4.5 -30.167 6.5 -45.5c7.33301 -48 3.16602 -86.833 -12.501 -116.5s-50.5 -47.167 -104.5 -52.5c54 -6 89 -23.333 105 -52s20 -67 12 -115c-2 -15.333 -4.16699 -30.666 -6.5 -45.999s-1.16602 -28.666 3.50098 -39.999s15.5 -18.833 32.5 -22.5s43.833 -1.5 80.5 6.5
v-130z" />
    <glyph glyph-name="bar" unicode="|" horiz-adv-x="260" 
d="M60 -151v752h140v-752h-140z" />
    <glyph glyph-name="braceright" unicode="}" horiz-adv-x="402" 
d="M40 -196l-0.000976562 130.005c36.667 -8 63.5 -10.167 80.5 -6.5s27.833 11.167 32.5 22.5s5.83398 24.666 3.50098 39.999s-4.5 30.666 -6.5 45.999c-8 48 -4 86.333 12 115s51 46 105 52c-54 5.33301 -88.833 22.833 -104.5 52.5s-19.834 68.5 -12.501 116.5
c2 15.333 4.16699 30.5 6.5 45.5s1.16602 28.167 -3.50098 39.5s-15.5 18.833 -32.5 22.5s-43.833 1.5 -80.5 -6.5v130c66 4 117.833 3.33301 155.5 -2s64.667 -16.833 81 -34.5s24.833 -42.5 25.5 -74.5s-3.66602 -72.667 -12.999 -122
c-4 -24.667 -3.5 -43.834 1.5 -57.501s12.5 -23.334 22.5 -29.001s20.5 -9.16699 31.5 -10.5s20.167 -2 27.5 -2v-134c-7.33301 0 -16.5 -0.666992 -27.5 -2s-21.5 -4.83301 -31.5 -10.5s-17.5 -15.334 -22.5 -29.001s-5.5 -32.834 -1.5 -57.501
c9.33301 -49.333 13.833 -90.166 13.5 -122.499s-8.66602 -57.333 -24.999 -75s-43.5 -29.167 -81.5 -34.5s-90 -6 -156 -2z" />
    <glyph glyph-name="asciitilde" unicode="~" horiz-adv-x="389" 
d="M254 200c-18.667 0 -33.335 2.99902 -44.002 8.99902s-19.334 12.667 -26.001 20l-18 20c-5.33301 6 -12.666 9 -21.999 9c-10.667 0 -16.834 -4.5 -18.501 -13.5s-2.5 -22.167 -2.5 -39.5h-78c0 8 0.166992 19.167 0.5 33.5s2.83301 29 7.5 44
s13.334 27.833 26.001 38.5s31.334 16 56.001 16c18.667 0 33.5 -3 44.5 -9s19.833 -12.667 26.5 -20l19 -20c6 -6 13 -9 21 -9c10 0 15.833 4.83301 17.5 14.5s2.5 22.834 2.5 39.501h78c0 -12.667 -0.5 -26.5 -1.5 -41.5s-4.16699 -29.5 -9.5 -43.5
s-14.166 -25.5 -26.499 -34.5s-29.833 -13.5 -52.5 -13.5z" />
    <glyph glyph-name="uni00A0" unicode="&#xa0;" horiz-adv-x="200" 
 />
    <glyph glyph-name="exclamdown" unicode="&#xa1;" horiz-adv-x="228" 
d="M110 373c28.667 0 47.999 -7 57.999 -21s15 -31.667 15 -53c0 -19.333 -5 -36 -15 -50s-29.333 -21 -58 -21c-29.333 0 -49.166 7 -59.499 21s-15.5 30.667 -15.5 50c0 20.667 5 38.167 15 52.5s30 21.5 60 21.5zM57.999 167l15.502 -3.00098
c10.333 -2 22.166 -3 35.499 -3c17.333 0 30 1 38 3l12 3c7.33301 -62 14.166 -116 20.499 -162s9.33301 -84 9 -114s-6.5 -52.5 -18.5 -67.5s-32.667 -22.5 -62 -22.5c-28.667 0 -49 7.33301 -61 22s-18 36.834 -18 66.501s3 67.667 9 114s12.667 100.833 20 163.5z" />
    <glyph glyph-name="cent" unicode="&#xa2;" horiz-adv-x="479" 
d="M169 -108l7.99902 105.002c-44 10 -81 31.833 -111 65.5s-45 79.5 -45 137.5c1.33301 56 16.5 102 45.5 138s65.833 59.667 110.5 71l-8 104h140l-8 -103c32 -7.33301 58.333 -19.166 79 -35.499s36.5 -35.5 47.5 -57.5s18.167 -44.333 21.5 -67l-127 -24
c-5.33301 25.333 -13.166 43.666 -23.499 54.999s-30.166 17 -59.499 17c-30 0 -51.167 -8 -63.5 -24s-18.5 -36.667 -18.5 -62c0 -31.333 6.16699 -56.333 18.5 -75s34.166 -28 65.499 -28c24.667 0 43.167 6.33301 55.5 19s20.833 32 25.5 58l127 -23
c-5.33301 -36.667 -19.5 -70.834 -42.5 -102.501s-58.167 -52.834 -105.5 -63.501l8 -105h-140z" />
    <glyph glyph-name="sterling" unicode="&#xa3;" horiz-adv-x="720" 
d="M139 -15l-62.9971 104.005c11.333 8.66699 23.666 18.667 36.999 30s24.666 24.5 33.999 39.5s14.333 32.5 15 52.5h-109v99h76c-13.333 33.333 -18.5 65.666 -15.5 96.999s13.333 59.5 31 84.5s42.5 44.833 74.5 59.5s71 22 117 22c56.667 0 101.167 -9.5 133.5 -28.5
s55.833 -43.833 70.5 -74.5s23.334 -63.667 26.001 -99l-132 -21c-6.66699 35.333 -17.834 60.666 -33.501 75.999s-32.167 24.5 -49.5 27.5s-32.666 3.5 -45.999 1.5c-16.667 -2.66699 -31.334 -9.16699 -44.001 -19.5s-20.334 -25.833 -23.001 -46.5s3.33301 -47 18 -79
h157v-100h-124c0.666992 -26 -5.66602 -46.833 -18.999 -62.5s-27.666 -29.834 -42.999 -42.501c25.333 13.333 49.166 19.333 71.499 18s43.166 -5.5 62.499 -12.5s36.833 -12.833 52.5 -17.5s29.5 -3.66699 41.5 3c11.333 7.33301 17.833 18.333 19.5 33
s-0.833008 29.667 -7.5 45l136 21c15.333 -66 11.666 -116.833 -11.001 -152.5s-61.667 -53.5 -117 -53.5c-32 0 -61.167 3.33301 -87.5 10s-51.833 12.667 -76.5 18s-50.167 6.66602 -76.5 3.99902s-56.166 -13.334 -89.499 -32.001z" />
    <glyph glyph-name="currency" unicode="&#xa4;" 
d="M468 9h-34l-41 59c-25.333 -18 -56.333 -27 -93 -27c-38 0 -70 9.33301 -96 28l-42 -60h-31l54 77c-27.333 30.667 -41 72.667 -41 126c0 60 16.667 105 50 135l-47 65h34l35 -50c22.667 13.333 50.667 20 84 20c32 0 59.333 -6.33301 82 -19l34 49h35l-47 -65
c34 -30.667 51 -75.667 51 -135c0 -52.667 -13.667 -94.667 -41 -126zM300 62c16.667 0 31.666 2.16797 44.999 6.50098s25.333 9.83301 36 16.5c2.66699 2 5 4 7 6l6 6c-6 -6.66699 -9.16699 -10 -9.5 -10s0.833984 1.33301 3.50098 4l8.5 8.5l4.5 4.5
c21.333 26.667 32 62.667 32 108c0 52 -13.667 91.333 -41 118c-5.33301 5.33301 -12.666 10.333 -21.999 15c-20 10.667 -43.333 16 -70 16c-28 0 -52 -5.33301 -72 -16c-0.666992 -0.666992 -4.33398 -3.33398 -11.001 -8.00098s-10 -7.33398 -10 -8.00098
c-27.333 -25.333 -41 -64.333 -41 -117c0 -22 4.16699 -44.5 12.5 -67.5s21.166 -42.5 38.499 -58.5c10.667 -7.33301 22.834 -13.166 36.501 -17.499s29.167 -6.5 46.5 -6.5z" />
    <glyph glyph-name="yen" unicode="&#xa5;" horiz-adv-x="578" 
d="M104 75v75h118v43l-118 -1v75h79l-153 296h157l107 -251l107 251h157l-158 -296h83v-71l-122 -1v-1v-44h122v-75h-122v-75h-139v75h-118z" />
    <glyph glyph-name="brokenbar" unicode="&#xa6;" horiz-adv-x="260" 
d="M60 307v294h140v-294h-140zM60 -151v294h140v-294h-140z" />
    <glyph glyph-name="section" unicode="&#xa7;" 
d="M418 223l-0.00292969 -1.99805c15.333 -10 28.333 -23.333 39 -40s15.667 -36.667 15 -60c-2 -37.333 -19.167 -66.666 -51.5 -87.999s-71.166 -32 -116.499 -32c-31.333 0 -61.5 5.33301 -90.5 16s-52.833 27.334 -71.5 50.001s-28.667 51.334 -30 86.001h31
c0 -1.33301 0.5 -6.33301 1.5 -15s4 -19 9 -31s13.167 -23.833 24.5 -35.5s27.333 -21.334 48 -29.001s47.334 -11.5 80.001 -11.5c30 0 54 3.66699 72 11s31.5 16.333 40.5 27s15 21 18 31s4.5 17.333 4.5 22c0.666992 25.333 -6.33301 45.166 -21 59.499
s-34 25.5 -58 33.5s-49.5 15.167 -76.5 21.5s-52.5 14.333 -76.5 24s-43.333 23 -58 40s-21.334 40.5 -20.001 70.5c0.666992 18.667 7.5 34.834 20.5 48.501s28.833 24.167 47.5 31.5v1c-20.667 11.333 -37.334 25.5 -50.001 42.5s-18.667 37.5 -18 61.5
c1.33301 24 9.66602 44.5 24.999 61.5s35.833 30.167 61.5 39.5s53.834 14 84.501 14c31.333 0 59.5 -5.5 84.5 -16.5s44.833 -27.167 59.5 -48.5s21.334 -48.333 20.001 -81h-30c0.666992 24 -3.66602 43.667 -12.999 59s-21.333 27.166 -36 35.499
s-29.834 14.166 -45.501 17.499s-29.5 5 -41.5 5c-39.333 0 -71.833 -8.33301 -97.5 -25s-39.167 -37.667 -40.5 -63c0 -24.667 7.5 -44 22.5 -58s34.333 -24.833 58 -32.5s49 -14.5 76 -20.5s52.333 -13.833 76 -23.5s42.834 -23.334 57.501 -41.001
s21.334 -41.834 20.001 -72.501c-0.666992 -18.667 -6 -34.667 -16 -48s-22.667 -25 -38 -35zM161.997 369.002c0 -23.333 5.83301 -41.8311 17.5 -55.498s27.5 -24.334 47.5 -32.001s41.833 -14.167 65.5 -19.5s46.834 -11.333 69.501 -18
c7.33301 -1.33301 12.333 -2.33301 15 -3s4.66699 -1.33398 6 -2.00098c5.33301 -1.33301 9.33301 -1.5 12 -0.5s4.66699 1.83301 6 2.5c17.333 11.333 28.333 23.666 33 36.999s7 23 7 29c0.666992 22 -4.83301 40 -16.5 54s-27.334 25.333 -47.001 34
s-41.167 15.834 -64.5 21.501l-69 17.5l-21.5 4.5c-5 1 -11.833 -1.16699 -20.5 -6.5c-26 -17.333 -39.333 -38.333 -40 -63z" />
    <glyph glyph-name="dieresis" unicode="&#xa8;" 
d="M121 660c-30 0 -50.167 7.5 -60.5 22.5s-15.5 32.833 -15.5 53.5c0 19.333 5.16699 36.5 15.5 51.5s30.5 22.5 60.5 22.5s49.833 -7.5 59.5 -22.5s14.5 -32.167 14.5 -51.5c0 -20.667 -4.83301 -38.5 -14.5 -53.5s-29.5 -22.5 -59.5 -22.5zM327 660
c-30 0 -50.167 7.5 -60.5 22.5s-15.5 32.833 -15.5 53.5c0 19.333 5.16699 36.5 15.5 51.5s30.5 22.5 60.5 22.5s49.833 -7.5 59.5 -22.5s14.5 -32.167 14.5 -51.5c0 -20.667 -4.83301 -38.5 -14.5 -53.5s-29.5 -22.5 -59.5 -22.5z" />
    <glyph glyph-name="copyright" unicode="&#xa9;" 
d="M328 -10c-40.667 0 -78.667 7.5 -114 22.5s-66.5 36 -93.5 63s-48 58.167 -63 93.5s-22.5 73.333 -22.5 114c0 39.333 7.5 76.5 22.5 111.5s36 65.833 63 92.5s58.167 47.667 93.5 63s73.333 23 114 23c39.333 0 76.5 -7.66699 111.5 -23s65.833 -36.333 92.5 -63
s47.667 -57.5 63 -92.5s23 -72.167 23 -111.5c0 -40.667 -7.66699 -78.667 -23 -114s-36.333 -66.5 -63 -93.5s-57.5 -48 -92.5 -63s-72.167 -22.5 -111.5 -22.5zM328 63c66.667 0 119.334 19.333 158.001 58s58 92 58 160c0 67.333 -19.333 120.333 -58 159
s-91.334 58 -158.001 58c-68.667 0 -122.334 -19.333 -161.001 -58s-58 -91.667 -58 -159c0 -68 19.333 -121.333 58 -160s92.334 -58 161.001 -58zM325 116c-30 0 -57.332 6.16797 -81.999 18.501s-44.334 30.666 -59.001 54.999s-22 54.166 -22 89.499
c1.33301 52.667 17.666 93.834 48.999 123.501s70.333 44.5 117 44.5c33.333 0 60.833 -6 82.5 -18s38.667 -27.333 51 -46s20.5 -38.667 24.5 -60l-81 -15c-4.66699 21.333 -12.334 37.333 -23.001 48s-28.667 16 -54 16c-29.333 0 -50.5 -7.83301 -63.5 -23.5
s-19.5 -36.5 -19.5 -62.5c0 -28.667 6.5 -51.167 19.5 -67.5s34.167 -24.5 63.5 -24.5c21.333 0 38.333 6 51 18s21.334 31.667 26.001 59l81 -26c-4 -22 -12.333 -42.833 -25 -62.5s-30.167 -35.667 -52.5 -48s-50.166 -18.5 -83.499 -18.5z" />
    <glyph glyph-name="ordfeminine" unicode="&#xaa;" horiz-adv-x="350" 
d="M132 406c-38.667 0 -65.3359 12.667 -80.0029 38s-22 60.333 -22 105c0 44 7.33301 79.333 22 106s41.334 40 80.001 40c24.667 0 43.334 -4.33301 56.001 -13s21.334 -17.334 26.001 -26.001l7 -13l1 52h99v-282h-84l-15 37h-1c0.666992 0 -1.5 -3.66699 -6.5 -11
s-14 -14.666 -27 -21.999s-31.5 -11 -55.5 -11zM171.998 485c23.333 0 37.5 6.5 42.5 19.5s7.5 27.5 7.5 43.5c0 16.667 -2.5 31.5 -7.5 44.5s-19.167 19.5 -42.5 19.5c-22.667 0 -36.667 -6.66699 -42 -20s-8 -28 -8 -44s2.66699 -30.5 8 -43.5s19.333 -19.5 42 -19.5z" />
    <glyph glyph-name="guillemotleft" unicode="&#xab;" 
d="M338 544v-92l-201 -157l201 -167v-85l-310 252zM528 544v-102l-201 -147l201 -157v-95l-310 252z" />
    <glyph glyph-name="logicalnot" unicode="&#xac;" horiz-adv-x="317" 
d="M40 181v86h222v-164h-87v78h-135z" />
    <glyph glyph-name="uni00AD" unicode="&#xad;" horiz-adv-x="280" 
d="M29 178v94h222v-94h-222z" />
    <glyph glyph-name="registered" unicode="&#xae;" horiz-adv-x="408" 
d="M203 229c-32 0 -61 7.66699 -87 23s-46.833 36 -62.5 62s-23.5 54.667 -23.5 86c0 32 7.83301 61 23.5 87s36.5 46.667 62.5 62s55 23 87 23c31.333 0 59.833 -7.66699 85.5 -23s46.167 -36 61.5 -62s23 -55 23 -87c0 -31.333 -7.66699 -60 -23 -86
s-35.833 -46.667 -61.5 -62s-54.167 -23 -85.5 -23zM203 272c40 0 71.167 12.667 93.5 38s33.5 55.333 33.5 90c0 35.333 -11.167 65.666 -33.5 90.999s-53.5 38 -93.5 38c-40.667 0 -72.334 -12.667 -95.001 -38s-34 -55.666 -34 -90.999c0 -34.667 11.333 -64.667 34 -90
s54.334 -38 95.001 -38zM138 322v160.999h65c22 0 39.167 -3.66699 51.5 -11s18.5 -19.666 18.5 -36.999c0 -31.333 -15.333 -47 -46 -47c10.667 0 18 -2.5 22 -7.5s6.66699 -10.333 8 -16s3.5 -10 6.5 -13s8.5 -2.83301 16.5 0.5v-22c-6.66699 -6 -14.5 -9.33301 -23.5 -10
s-16.833 2.16602 -23.5 8.49902s-10 16.833 -10 31.5c0 8.66699 -2 15.834 -6 21.501s-17 7.16699 -39 4.5v-64h-40zM178 413.999h20c13.333 0 22.833 0.666992 28.5 2s8.5 6.33301 8.5 15c0 10.667 -3.5 16.667 -10.5 18s-17.167 2 -30.5 2h-16v-37z" />
    <glyph glyph-name="macron" unicode="&#xaf;" horiz-adv-x="382" 
d="M40 726v94h302v-94h-302z" />
    <glyph glyph-name="degree" unicode="&#xb0;" horiz-adv-x="295" 
d="M147 338c-40.667 0 -70.332 10.667 -88.999 32s-28 49.333 -28 84c0 36 9.16699 64.833 27.5 86.5s48.166 32.5 89.499 32.5c40.667 0 70.834 -10.833 90.501 -32.5s29.5 -50.5 29.5 -86.5c0 -33.333 -9.83301 -61 -29.5 -83s-49.834 -33 -90.501 -33zM145.002 425
c12.667 0 21.5 3.16699 26.5 9.5s7.5 13.833 7.5 22.5c0 9.33301 -2.5 17.333 -7.5 24s-13.833 10 -26.5 10c-11.333 0 -19.666 -3.33301 -24.999 -10s-8 -14.667 -8 -24c0 -8.66699 2.66699 -16.167 8 -22.5s13.666 -9.5 24.999 -9.5z" />
    <glyph glyph-name="plusminus" unicode="&#xb1;" horiz-adv-x="317" 
d="M116 155v75h-76v76h76v71h76v-71h70v-76h-70v-75h-76zM40 36v76h222v-76h-222z" />
    <glyph glyph-name="uni00B2" unicode="&#xb2;" horiz-adv-x="251" 
d="M15 414l0.000976562 55.999l18 7c12 4.66699 26.333 11.334 43 20.001s32.667 19 48 31s26.666 25.667 33.999 41c10 20.667 10.5 36.667 1.5 48s-20.833 17 -35.5 17c-15.333 0 -27.333 -5.83301 -36 -17.5s-10.667 -30.167 -6 -55.5l-63 9
c-6 38.667 2.5 68.5 25.5 89.5s51.833 31.5 86.5 31.5c23.333 0 43.833 -5.83301 61.5 -17.5s29.834 -27 36.501 -46s4.33398 -39.833 -6.99902 -62.5c-8.66699 -16.667 -19.834 -30.834 -33.501 -42.501s-28 -21.167 -43 -28.5s-28.333 -12.666 -40 -15.999
s-19.834 -5.33301 -24.501 -6h155v-58h-221z" />
    <glyph glyph-name="uni00B3" unicode="&#xb3;" horiz-adv-x="254" 
d="M133 404c-36.667 0 -65.668 8.83301 -87.001 26.5s-31.666 43.834 -30.999 78.501l64 10c0 -17.333 4.66699 -31.333 14 -42s23.333 -16 42 -16c13.333 0 23.666 3.66699 30.999 11s11 16 11 26c0 10.667 -4.5 18.334 -13.5 23.001s-20.167 7 -33.5 7h-25v34h27
c10 0 19.833 1.66699 29.5 5s14.5 10.333 14.5 21c0 11.333 -4.16699 20.5 -12.5 27.5s-19.833 10.5 -34.5 10.5c-15.333 0 -27.333 -4.83301 -36 -14.5s-13 -20.5 -13 -32.5l-59 10c0 5.33301 1.5 12.833 4.5 22.5s8.5 20 16.5 31s19 20.167 33 27.5s31.667 11 53 11
c34.667 0 61.167 -6.83301 79.5 -20.5s27.5 -32.167 27.5 -55.5c0 -14.667 -4.5 -28.334 -13.5 -41.001s-23.167 -19.667 -42.5 -21c18.667 -0.666992 33.334 -7 44.001 -19s16 -26 16 -42c0 -24.667 -9.83301 -43.834 -29.5 -57.501s-45.167 -20.5 -76.5 -20.5z" />
    <glyph glyph-name="acute" unicode="&#xb4;" 
d="M95 632h-62v17l39 97h115v-22z" />
    <glyph glyph-name="uni00B5" unicode="&#xb5;" 
d="M92 -158l0.999023 571h136v-209c0 -14 1.16699 -28.167 3.5 -42.5s8.33301 -26.166 18 -35.499s25.5 -14 47.5 -14s37.667 4.66699 47 14s15 21.166 17 35.499s3 28.5 3 42.5v209h143v-413h-121l-13 31h-3l-24 -29c-7.33301 -8.66699 -22.666 -13 -45.999 -13
c-18.667 0 -33.167 3 -43.5 9s-18.833 13.333 -25.5 22h-3v-178h-137z" />
    <glyph glyph-name="paragraph" unicode="&#xb6;" horiz-adv-x="547" 
d="M248 -88v402.999h-27c-37.333 0.666992 -71.5 6.83398 -102.5 18.501s-55.833 31.5 -74.5 59.5s-28 66.333 -28 115c0 47.333 9.16699 85 27.5 113s43 48.333 74 61s65.167 19 102.5 19h116v-1h195v-90h-51v-699h-90v699h-54v-698h-88z" />
    <glyph glyph-name="periodcentered" unicode="&#xb7;" horiz-adv-x="280" 
d="M136 184c-36 0 -60.167 9 -72.5 27s-18.5 39.333 -18.5 64c0 23.333 6.16699 44 18.5 62s36.5 27 72.5 27s59.833 -9 71.5 -27s17.5 -38.667 17.5 -62c0 -24.667 -5.83301 -46 -17.5 -64s-35.5 -27 -71.5 -27z" />
    <glyph glyph-name="cedilla" unicode="&#xb8;" horiz-adv-x="334" 
d="M40 -120l38.998 63.998c5.33301 -4 14.666 -8.16699 27.999 -12.5s27.333 -7.66602 42 -9.99902s27.334 -2.16602 38.001 0.500977s16 9.33398 16 20.001c0.666992 6.66699 -3.16602 12 -11.499 16s-18 5.5 -29 4.5s-20.167 -5.16699 -27.5 -12.5l-57 26l46 101l60 -23
l-36 -61c10.667 8 24 13 40 15s32.167 0.833008 48.5 -3.5s30 -12 41 -23s16.5 -26.167 16.5 -45.5c0 -22.667 -8 -41.334 -24 -56.001s-36.833 -24.5 -62.5 -29.5s-53.167 -5.16699 -82.5 -0.5s-57.666 14.667 -84.999 30z" />
    <glyph glyph-name="uni00B9" unicode="&#xb9;" horiz-adv-x="194" 
d="M28 414l0.00390625 59.001h47v159c-2.66699 -18 -8.33398 -31.5 -17.001 -40.5s-17.334 -15.167 -26.001 -18.5s-14.334 -5 -17.001 -5v76c3.33301 -0.666992 10.166 -0.833984 20.499 -0.500977s20.333 3.83301 30 10.5s15.167 19 16.5 37h61v-218h36v-59h-151z" />
    <glyph glyph-name="ordmasculine" unicode="&#xba;" horiz-adv-x="332" 
d="M166 415c-50.667 0 -88.499 13.833 -113.499 41.5s-37.5 63.167 -37.5 106.5c-0.666992 42 11.666 76.5 36.999 103.5s63.333 40.833 114 41.5c49.333 0 86.833 -13.333 112.5 -40s38.5 -61.667 38.5 -105c0 -42.667 -12.167 -78 -36.5 -106s-62.5 -42 -114.5 -42z
M166.001 495c25.333 0 41.499 7.5 48.499 22.5s10.5 30.833 10.5 47.5c0 11.333 -1.33301 22.5 -4 33.5s-8.16699 20.167 -16.5 27.5s-21.166 11 -38.499 11s-30.166 -3.66699 -38.499 -11s-13.833 -16.5 -16.5 -27.5s-4 -22.167 -4 -33.5c0 -10.667 1.33301 -21.5 4 -32.5
s8.16699 -20 16.5 -27s21.166 -10.5 38.499 -10.5z" />
    <glyph glyph-name="guillemotright" unicode="&#xbb;" horiz-adv-x="530" 
d="M205 544l310 -249l-310 -252v85l201 167l-201 157v92zM15 544l310 -249l-310 -252v95l201 157l-201 147v102z" />
    <glyph glyph-name="onequarter" unicode="&#xbc;" horiz-adv-x="756" 
d="M38 293l0.00390625 59.001h47v159c-2.66699 -18 -8.33398 -31.5 -17.001 -40.5s-17.334 -15.167 -26.001 -18.5s-14.334 -5 -17.001 -5v76c3.33301 -0.666992 10.166 -0.833984 20.499 -0.500977s20.333 3.83301 30 10.5s15.167 19 16.5 37h61v-218h36v-59h-151z
M196.004 0.000976562l-95 67l247 238l192 258l94 -66l-241 -229zM482.004 50.001v57.999c24 10 43.5 24.833 58.5 44.5s26 40.834 33 63.501s10.5 43 10.5 61h75c0 -28 -9.33301 -57.667 -28 -89s-46 -58 -82 -80h68v30h68v-30h31v-58h-31v-50h-68v50h-135z" />
    <glyph glyph-name="onehalf" unicode="&#xbd;" horiz-adv-x="778" 
d="M38 293l0.00390625 59.001h47v159c-2.66699 -18 -8.33398 -31.5 -17.001 -40.5s-17.334 -15.167 -26.001 -18.5s-14.334 -5 -17.001 -5v76c3.33301 -0.666992 10.166 -0.833984 20.499 -0.500977s20.333 3.83301 30 10.5s15.167 19 16.5 37h61v-218h36v-59h-151z
M196.004 0.000976562l-95 67l247 238l192 258l94 -66l-241 -229zM517.004 0.000976562l0.000976562 55.999l18 7c12 4.66699 26.333 11.334 43 20.001s32.667 19 48 31s26.666 25.667 33.999 41c10 20.667 10.5 36.667 1.5 48s-20.833 17 -35.5 17
c-15.333 0 -27.333 -5.83301 -36 -17.5s-10.667 -30.167 -6 -55.5l-63 9c-6 38.667 2.5 68.5 25.5 89.5s51.833 31.5 86.5 31.5c23.333 0 43.833 -5.83301 61.5 -17.5s29.834 -27 36.501 -46s4.33398 -39.833 -6.99902 -62.5
c-8.66699 -16.667 -19.834 -30.834 -33.501 -42.501s-28 -21.167 -43 -28.5s-28.333 -12.666 -40 -15.999s-19.834 -5.33301 -24.501 -6h155v-58h-221z" />
    <glyph glyph-name="threequarters" unicode="&#xbe;" horiz-adv-x="756" 
d="M143 296c-36.667 0 -65.668 8.83301 -87.001 26.5s-31.666 43.834 -30.999 78.501l64 10c0 -17.333 4.66699 -31.333 14 -42s23.333 -16 42 -16c13.333 0 23.666 3.66699 30.999 11s11 16 11 26c0 10.667 -4.5 18.334 -13.5 23.001s-20.167 7 -33.5 7h-25v34h27
c10 0 19.833 1.66699 29.5 5s14.5 10.333 14.5 21c0 11.333 -4.16699 20.5 -12.5 27.5s-19.833 10.5 -34.5 10.5c-15.333 0 -27.333 -4.83301 -36 -14.5s-13 -20.5 -13 -32.5l-59 10c0 5.33301 1.5 12.833 4.5 22.5s8.5 20 16.5 31s19 20.167 33 27.5s31.667 11 53 11
c34.667 0 61.167 -6.83301 79.5 -20.5s27.5 -32.167 27.5 -55.5c0 -14.667 -4.5 -28.334 -13.5 -41.001s-23.167 -19.667 -42.5 -21c18.667 -0.666992 33.334 -7 44.001 -19s16 -26 16 -42c0 -24.667 -9.83301 -43.834 -29.5 -57.501s-45.167 -20.5 -76.5 -20.5zM195.999 0
l-95 67l247 238l192 258l94 -66l-241 -229zM481.999 50v57.999c24 10 43.5 24.833 58.5 44.5s26 40.834 33 63.501s10.5 43 10.5 61h75c0 -28 -9.33301 -57.667 -28 -89s-46 -58 -82 -80h68v30h68v-30h31v-58h-31v-50h-68v50h-135z" />
    <glyph glyph-name="questiondown" unicode="&#xbf;" horiz-adv-x="453" 
d="M258 383c31.333 0 52.5 -7.66699 63.5 -23s16.5 -33.333 16.5 -54c0 -21.333 -5.5 -39.5 -16.5 -54.5s-32.167 -22.5 -63.5 -22.5c-30.667 0 -51.334 7.5 -62.001 22.5s-16 33.167 -16 54.5c0 22 5.33301 40.333 16 55s31.334 22 62.001 22zM193 180h126.998
c0 -17.333 -6.66699 -35.166 -20 -53.499s-28.666 -36.5 -45.999 -54.5s-33 -35.5 -47 -52.5s-22 -33.5 -24 -49.5c-1.33301 -13.333 1.66699 -24.833 9 -34.5s21 -14.5 41 -14.5c18 0 31.167 3.66699 39.5 11s13.833 16.333 16.5 27s3.66699 20.5 3 29.5s-1 14.833 -1 17.5
h131c6 -20.667 7.5 -43 4.5 -67s-11.333 -46.333 -25 -67s-33.5 -37.667 -59.5 -51s-59.333 -20 -100 -20c-38 0 -72.167 6.33301 -102.5 19s-54.166 30.167 -71.499 52.5s-26 48.166 -26 77.499c0 23.333 5.16699 44.166 15.5 62.499s23 34.833 38 49.5
s29.833 28.334 44.5 41.001s27.167 25.167 37.5 37.5s15.5 25.5 15.5 39.5z" />
    <glyph glyph-name="Agrave" unicode="&#xc0;" horiz-adv-x="591" 
d="M18 0l162 563h229l168 -563h-149l-37 141h-187l-36 -141h-150zM297 505l-66 -258h133zM268 610l-92 92v22h115l39 -97v-17h-62z" />
    <glyph glyph-name="Aacute" unicode="&#xc1;" horiz-adv-x="591" 
d="M18 0l162 563h229l168 -563h-149l-37 141h-187l-36 -141h-150zM297 505l-66 -258h133zM321 610h-62v17l39 97h115v-22z" />
    <glyph glyph-name="Acircumflex" unicode="&#xc2;" horiz-adv-x="591" 
d="M18 0l162 563h229l168 -563h-149l-37 141h-187l-36 -141h-150zM297 505l-66 -258h133zM141 617v10l127 114h58l126 -114v-10h-120l-32 36h-6l-29 -36h-124z" />
    <glyph glyph-name="Atilde" unicode="&#xc3;" horiz-adv-x="591" 
d="M18 0l162 563h229l168 -563h-149l-37 141h-187l-36 -141h-150zM297 505l-66 -258h133zM355 621c-18.667 0 -33.335 2.99902 -44.002 8.99902s-19.334 12.667 -26.001 20l-18 20c-5.33301 6 -12.666 9 -21.999 9c-10.667 0 -16.834 -4.5 -18.501 -13.5
s-2.5 -22.167 -2.5 -39.5h-78c0 8 0.166992 19.167 0.5 33.5s2.83301 29 7.5 44s13.334 27.833 26.001 38.5s31.334 16 56.001 16c18.667 0 33.5 -3 44.5 -9s19.833 -12.667 26.5 -20l19 -20c6 -6 13 -9 21 -9c10 0 15.833 4.83301 17.5 14.5s2.5 22.834 2.5 39.501h78
c0 -12.667 -0.5 -26.5 -1.5 -41.5s-4.16699 -29.5 -9.5 -43.5s-14.166 -25.5 -26.499 -34.5s-29.833 -13.5 -52.5 -13.5z" />
    <glyph glyph-name="Adieresis" unicode="&#xc4;" horiz-adv-x="591" 
d="M18 0l162 563h229l168 -563h-149l-37 141h-187l-36 -141h-150zM297 505l-66 -258h133zM195 625c-30 0 -50.167 7.5 -60.5 22.5s-15.5 32.833 -15.5 53.5c0 19.333 5.16699 36.5 15.5 51.5s30.5 22.5 60.5 22.5s49.833 -7.5 59.5 -22.5s14.5 -32.167 14.5 -51.5
c0 -20.667 -4.83301 -38.5 -14.5 -53.5s-29.5 -22.5 -59.5 -22.5zM401 625c-30 0 -50.167 7.5 -60.5 22.5s-15.5 32.833 -15.5 53.5c0 19.333 5.16699 36.5 15.5 51.5s30.5 22.5 60.5 22.5s49.833 -7.5 59.5 -22.5s14.5 -32.167 14.5 -51.5
c0 -20.667 -4.83301 -38.5 -14.5 -53.5s-29.5 -22.5 -59.5 -22.5z" />
    <glyph glyph-name="Aring" unicode="&#xc5;" horiz-adv-x="591" 
d="M18 0l162 563h229l168 -563h-149l-37 141h-187l-36 -141h-150zM297 505l-66 -258h133zM286 615c-37.333 0 -64.5 9.66699 -81.5 29s-25.5 45 -25.5 77c0 33.333 8.33301 59.833 25 79.5s44 29.5 82 29.5c37.333 0 65 -9.83301 83 -29.5s27 -46.167 27 -79.5
c0 -30.667 -9 -56 -27 -76s-45.667 -30 -83 -30zM284 695c11.333 0 19.333 2.66699 24 8s7 12.333 7 21s-2.33301 16 -7 22s-12.667 9 -24 9c-10.667 0 -18.334 -3.16699 -23.001 -9.5s-7 -13.5 -7 -21.5c0 -8.66699 2.33301 -15.667 7 -21s12.334 -8 23.001 -8z" />
    <glyph glyph-name="AE" unicode="&#xc6;" horiz-adv-x="877" 
d="M18 0l282 563h530v-119h-289v-103h215v-112h-215v-118h300v-111h-437v141h-170l-66 -141h-150zM284 247h120v256z" />
    <glyph glyph-name="Ccedilla" unicode="&#xc7;" horiz-adv-x="608" 
d="M303 -10c-53.333 0 -102.003 10.668 -146.003 32.001s-79 53.333 -105 96s-38.667 95.667 -38 159c0.666992 62 13.834 115.167 39.501 159.5s60.5 78.166 104.5 101.499s93.333 35 148 35c56.667 0 104.334 -10.167 143.001 -30.5s68.834 -47 90.501 -80
s35.5 -68.5 41.5 -106.5h-144c-3.33301 25.333 -12.833 44 -28.5 56s-33 19.833 -52 23.5s-35.833 5.5 -50.5 5.5c-52 0 -90.667 -13.5 -116 -40.5s-38 -64.5 -38 -112.5c0 -52.667 12.333 -93.667 37 -123s63.334 -44 116.001 -44c15.333 0 32.666 2.16699 51.999 6.5
s36.833 13.166 52.5 26.499s25.167 33.333 28.5 60h145c-6.66699 -39.333 -21 -76.166 -43 -110.499s-52.5 -61.833 -91.5 -82.5s-87.5 -31 -145.5 -31zM186.997 -151.999l38.998 63.998c5.33301 -4 14.666 -8.16699 27.999 -12.5s27.333 -7.66602 42 -9.99902
s27.334 -2.16602 38.001 0.500977s16 9.33398 16 20.001c0.666992 6.66699 -3.16602 12 -11.499 16s-18 5.5 -29 4.5s-20.167 -5.16699 -27.5 -12.5l-57 26l46 101l60 -23l-36 -61c10.667 8 24 13 40 15s32.167 0.833008 48.5 -3.5s30 -12 41 -23s16.5 -26.167 16.5 -45.5
c0 -22.667 -8 -41.334 -24 -56.001s-36.833 -24.5 -62.5 -29.5s-53.167 -5.16699 -82.5 -0.5s-57.666 14.667 -84.999 30z" />
    <glyph glyph-name="Egrave" unicode="&#xc8;" horiz-adv-x="523" 
d="M187 111h300v-111h-437v563h426v-119h-289v-103h215v-112h-215v-118zM212 610l-92 92v22h115l39 -97v-17h-62z" />
    <glyph glyph-name="Eacute" unicode="&#xc9;" horiz-adv-x="523" 
d="M187 111h300v-111h-437v563h426v-119h-289v-103h215v-112h-215v-118zM273 610h-62v17l39 97h115v-22z" />
    <glyph glyph-name="Ecircumflex" unicode="&#xca;" horiz-adv-x="523" 
d="M187 111h300v-111h-437v563h426v-119h-289v-103h215v-112h-215v-118zM102 617v10l127 114h58l126 -114v-10h-120l-32 36h-6l-29 -36h-124z" />
    <glyph glyph-name="Edieresis" unicode="&#xcb;" horiz-adv-x="523" 
d="M187 111h300v-111h-437v563h426v-119h-289v-103h215v-112h-215v-118zM167 625c-30 0 -50.167 7.5 -60.5 22.5s-15.5 32.833 -15.5 53.5c0 19.333 5.16699 36.5 15.5 51.5s30.5 22.5 60.5 22.5s49.833 -7.5 59.5 -22.5s14.5 -32.167 14.5 -51.5
c0 -20.667 -4.83301 -38.5 -14.5 -53.5s-29.5 -22.5 -59.5 -22.5zM373 625c-30 0 -50.167 7.5 -60.5 22.5s-15.5 32.833 -15.5 53.5c0 19.333 5.16699 36.5 15.5 51.5s30.5 22.5 60.5 22.5s49.833 -7.5 59.5 -22.5s14.5 -32.167 14.5 -51.5
c0 -20.667 -4.83301 -38.5 -14.5 -53.5s-29.5 -22.5 -59.5 -22.5z" />
    <glyph glyph-name="Igrave" unicode="&#xcc;" horiz-adv-x="415" 
d="M347 119v-119h-284v119h73v325h-73v119h284v-119h-72v-325h72zM158 610l-92 92v22h115l39 -97v-17h-62z" />
    <glyph glyph-name="Iacute" unicode="&#xcd;" horiz-adv-x="415" 
d="M347 119v-119h-284v119h73v325h-73v119h284v-119h-72v-325h72zM226 610h-62v17l39 97h115v-22z" />
    <glyph glyph-name="Icircumflex" unicode="&#xce;" horiz-adv-x="415" 
d="M347 119v-119h-284v119h73v325h-73v119h284v-119h-72v-325h72zM46 617v10l127 114h58l126 -114v-10h-120l-32 36h-6l-29 -36h-124z" />
    <glyph glyph-name="Idieresis" unicode="&#xcf;" horiz-adv-x="415" 
d="M347 119v-119h-284v119h73v325h-73v119h284v-119h-72v-325h72zM101 624c-30 0 -50.167 7.5 -60.5 22.5s-15.5 32.833 -15.5 53.5c0 19.333 5.16699 36.5 15.5 51.5s30.5 22.5 60.5 22.5s49.833 -7.5 59.5 -22.5s14.5 -32.167 14.5 -51.5
c0 -20.667 -4.83301 -38.5 -14.5 -53.5s-29.5 -22.5 -59.5 -22.5zM307 624c-30 0 -50.167 7.5 -60.5 22.5s-15.5 32.833 -15.5 53.5c0 19.333 5.16699 36.5 15.5 51.5s30.5 22.5 60.5 22.5s49.833 -7.5 59.5 -22.5s14.5 -32.167 14.5 -51.5
c0 -20.667 -4.83301 -38.5 -14.5 -53.5s-29.5 -22.5 -59.5 -22.5z" />
    <glyph glyph-name="Eth" unicode="&#xd0;" 
d="M60 0v241h-60v90h60v232h161c74 0 138.333 -10.5 193 -31.5s96.834 -52.167 126.501 -93.5s44.5 -93.333 44.5 -156c0 -74 -14.833 -131.5 -44.5 -172.5s-71.834 -69.5 -126.501 -85.5s-119 -24 -193 -24h-161zM198 114h65.999c36 0 66.833 4.5 92.5 13.5
s45.334 25.667 59.001 50s20.5 59.5 20.5 105.5c0 53.333 -15.167 93.333 -45.5 120s-72.5 40 -126.5 40h-66v-112h117v-90h-117v-127z" />
    <glyph glyph-name="Ntilde" unicode="&#xd1;" horiz-adv-x="630" 
d="M429 563h146v-563h-268l-105 502h-2v-502h-145v563h248l124 -502h2v502zM360 621c-18.667 0 -33.335 2.99902 -44.002 8.99902s-19.334 12.667 -26.001 20l-18 20c-5.33301 6 -12.666 9 -21.999 9c-10.667 0 -16.834 -4.5 -18.501 -13.5s-2.5 -22.167 -2.5 -39.5h-78
c0 8 0.166992 19.167 0.5 33.5s2.83301 29 7.5 44s13.334 27.833 26.001 38.5s31.334 16 56.001 16c18.667 0 33.5 -3 44.5 -9s19.833 -12.667 26.5 -20l19 -20c6 -6 13 -9 21 -9c10 0 15.833 4.83301 17.5 14.5s2.5 22.834 2.5 39.501h78c0 -12.667 -0.5 -26.5 -1.5 -41.5
s-4.16699 -29.5 -9.5 -43.5s-14.166 -25.5 -26.499 -34.5s-29.833 -13.5 -52.5 -13.5z" />
    <glyph glyph-name="Ograve" unicode="&#xd2;" horiz-adv-x="619" 
d="M302 -14c-93.333 0 -164.667 26.5 -214 79.5s-74 124.5 -74 214.5c0 59.333 10.667 110.833 32 154.5s53.333 77.667 96 102s96 36.5 160 36.5c93.333 0 164.333 -26.5 213 -79.5s73 -124.167 73 -213.5c0 -58 -10.833 -109.167 -32.5 -153.5s-53.667 -78.833 -96 -103.5
s-94.833 -37 -157.5 -37zM299.999 121c34 0 62.168 7.16797 84.501 21.501s39 33.666 50 57.999s16.5 50.833 16.5 79.5c0 29.333 -5.5 56.333 -16.5 81s-27.667 44.334 -50 59.001s-50.5 22 -84.5 22c-48.667 0 -85.834 -15.333 -111.501 -46s-38.5 -69.334 -38.5 -116.001
c0 -28 5.5 -54.167 16.5 -78.5s27.5 -43.833 49.5 -58.5s50 -22 84 -22zM262 610.001l-92 92v22h115l39 -97v-17h-62z" />
    <glyph glyph-name="Oacute" unicode="&#xd3;" horiz-adv-x="619" 
d="M302 -14c-93.333 0 -164.667 26.5 -214 79.5s-74 124.5 -74 214.5c0 59.333 10.667 110.833 32 154.5s53.333 77.667 96 102s96 36.5 160 36.5c93.333 0 164.333 -26.5 213 -79.5s73 -124.167 73 -213.5c0 -58 -10.833 -109.167 -32.5 -153.5s-53.667 -78.833 -96 -103.5
s-94.833 -37 -157.5 -37zM299.999 121c34 0 62.168 7.16797 84.501 21.501s39 33.666 50 57.999s16.5 50.833 16.5 79.5c0 29.333 -5.5 56.333 -16.5 81s-27.667 44.334 -50 59.001s-50.5 22 -84.5 22c-48.667 0 -85.834 -15.333 -111.501 -46s-38.5 -69.334 -38.5 -116.001
c0 -28 5.5 -54.167 16.5 -78.5s27.5 -43.833 49.5 -58.5s50 -22 84 -22zM347 610.001h-62v17l39 97h115v-22z" />
    <glyph glyph-name="Ocircumflex" unicode="&#xd4;" horiz-adv-x="619" 
d="M302 -14c-93.333 0 -164.667 26.5 -214 79.5s-74 124.5 -74 214.5c0 59.333 10.667 110.833 32 154.5s53.333 77.667 96 102s96 36.5 160 36.5c93.333 0 164.333 -26.5 213 -79.5s73 -124.167 73 -213.5c0 -58 -10.833 -109.167 -32.5 -153.5s-53.667 -78.833 -96 -103.5
s-94.833 -37 -157.5 -37zM299.999 121c34 0 62.168 7.16797 84.501 21.501s39 33.666 50 57.999s16.5 50.833 16.5 79.5c0 29.333 -5.5 56.333 -16.5 81s-27.667 44.334 -50 59.001s-50.5 22 -84.5 22c-48.667 0 -85.834 -15.333 -111.501 -46s-38.5 -69.334 -38.5 -116.001
c0 -28 5.5 -54.167 16.5 -78.5s27.5 -43.833 49.5 -58.5s50 -22 84 -22zM146 617.001v10l127 114h58l126 -114v-10h-120l-32 36h-6l-29 -36h-124z" />
    <glyph glyph-name="Otilde" unicode="&#xd5;" horiz-adv-x="619" 
d="M302 -14c-93.333 0 -164.667 26.5 -214 79.5s-74 124.5 -74 214.5c0 59.333 10.667 110.833 32 154.5s53.333 77.667 96 102s96 36.5 160 36.5c93.333 0 164.333 -26.5 213 -79.5s73 -124.167 73 -213.5c0 -58 -10.833 -109.167 -32.5 -153.5s-53.667 -78.833 -96 -103.5
s-94.833 -37 -157.5 -37zM299.999 121c34 0 62.168 7.16797 84.501 21.501s39 33.666 50 57.999s16.5 50.833 16.5 79.5c0 29.333 -5.5 56.333 -16.5 81s-27.667 44.334 -50 59.001s-50.5 22 -84.5 22c-48.667 0 -85.834 -15.333 -111.501 -46s-38.5 -69.334 -38.5 -116.001
c0 -28 5.5 -54.167 16.5 -78.5s27.5 -43.833 49.5 -58.5s50 -22 84 -22zM363 627.001c-18.667 0 -33.335 2.99902 -44.002 8.99902s-19.334 12.667 -26.001 20l-18 20c-5.33301 6 -12.666 9 -21.999 9c-10.667 0 -16.834 -4.5 -18.501 -13.5s-2.5 -22.167 -2.5 -39.5h-78
c0 8 0.166992 19.167 0.5 33.5s2.83301 29 7.5 44s13.334 27.833 26.001 38.5s31.334 16 56.001 16c18.667 0 33.5 -3 44.5 -9s19.833 -12.667 26.5 -20l19 -20c6 -6 13 -9 21 -9c10 0 15.833 4.83301 17.5 14.5s2.5 22.834 2.5 39.501h78c0 -12.667 -0.5 -26.5 -1.5 -41.5
s-4.16699 -29.5 -9.5 -43.5s-14.166 -25.5 -26.499 -34.5s-29.833 -13.5 -52.5 -13.5z" />
    <glyph glyph-name="Odieresis" unicode="&#xd6;" horiz-adv-x="619" 
d="M302 -14c-93.333 0 -164.667 26.5 -214 79.5s-74 124.5 -74 214.5c0 59.333 10.667 110.833 32 154.5s53.333 77.667 96 102s96 36.5 160 36.5c93.333 0 164.333 -26.5 213 -79.5s73 -124.167 73 -213.5c0 -58 -10.833 -109.167 -32.5 -153.5s-53.667 -78.833 -96 -103.5
s-94.833 -37 -157.5 -37zM299.999 121c34 0 62.168 7.16797 84.501 21.501s39 33.666 50 57.999s16.5 50.833 16.5 79.5c0 29.333 -5.5 56.333 -16.5 81s-27.667 44.334 -50 59.001s-50.5 22 -84.5 22c-48.667 0 -85.834 -15.333 -111.501 -46s-38.5 -69.334 -38.5 -116.001
c0 -28 5.5 -54.167 16.5 -78.5s27.5 -43.833 49.5 -58.5s50 -22 84 -22zM210 625.001c-30 0 -50.167 7.5 -60.5 22.5s-15.5 32.833 -15.5 53.5c0 19.333 5.16699 36.5 15.5 51.5s30.5 22.5 60.5 22.5s49.833 -7.5 59.5 -22.5s14.5 -32.167 14.5 -51.5
c0 -20.667 -4.83301 -38.5 -14.5 -53.5s-29.5 -22.5 -59.5 -22.5zM416 625.001c-30 0 -50.167 7.5 -60.5 22.5s-15.5 32.833 -15.5 53.5c0 19.333 5.16699 36.5 15.5 51.5s30.5 22.5 60.5 22.5s49.833 -7.5 59.5 -22.5s14.5 -32.167 14.5 -51.5
c0 -20.667 -4.83301 -38.5 -14.5 -53.5s-29.5 -22.5 -59.5 -22.5z" />
    <glyph glyph-name="multiply" unicode="&#xd7;" horiz-adv-x="326" 
d="M291 281l-66 -67l66 -66l-61 -61l-66 66l-68 -68l-61 62l67 67l-67 68l61 61l68 -67l66 66z" />
    <glyph glyph-name="Oslash" unicode="&#xd8;" 
d="M81 -27l42.999 61.999c-36 24.667 -63.333 57.834 -82 99.501s-28 90.167 -28 145.5c0 59.333 10.667 110.833 32 154.5s53.333 77.667 96 102s96 36.5 160 36.5c65.333 0 120.333 -13.667 165 -41l44 63l30 -17l-46 -66c30.667 -25.333 53.834 -57.833 69.501 -97.5
s23.5 -84.5 23.5 -134.5c0 -58 -10.833 -109 -32.5 -153s-53.667 -78.5 -96 -103.5s-94.833 -37.5 -157.5 -37.5c-57.333 0 -107 10.333 -149 31l-42 -61zM149.999 279.999c0 -26 4.50098 -50.166 13.501 -72.499s22.833 -40.833 41.5 -55.5l183 265
c-11.333 8 -24.333 14.167 -39 18.5s-31 6.5 -49 6.5c-48.667 0 -85.834 -15.333 -111.501 -46s-38.5 -69.334 -38.5 -116.001zM300 121c34 0 62.167 7.16699 84.5 21.5s39 33.666 50 57.999s16.5 50.833 16.5 79.5c0 22 -3.16699 42.833 -9.5 62.5
s-15.5 36.834 -27.5 51.501l-180 -260c19.333 -8.66699 41.333 -13 66 -13z" />
    <glyph glyph-name="Ugrave" unicode="&#xd9;" horiz-adv-x="614" 
d="M310 -14c-84 0 -147.498 22.168 -190.498 66.501s-64.5 106.833 -64.5 187.5v323h150v-322c0 -28 3.66699 -50.167 11 -66.5s16.5 -28.5 27.5 -36.5s22.5 -13.167 34.5 -15.5s22.667 -3.5 32 -3.5c15.333 0 31.166 2.33301 47.499 7s30.166 15.667 41.499 33
s17 44.666 17 81.999v322h150v-323c0 -82 -21.167 -144.833 -63.5 -188.5s-106.5 -65.5 -192.5 -65.5zM272.002 610.001l-92 92v22h115l39 -97v-17h-62z" />
    <glyph glyph-name="Uacute" unicode="&#xda;" horiz-adv-x="614" 
d="M310 -14c-84 0 -147.498 22.168 -190.498 66.501s-64.5 106.833 -64.5 187.5v323h150v-322c0 -28 3.66699 -50.167 11 -66.5s16.5 -28.5 27.5 -36.5s22.5 -13.167 34.5 -15.5s22.667 -3.5 32 -3.5c15.333 0 31.166 2.33301 47.499 7s30.166 15.667 41.499 33
s17 44.666 17 81.999v322h150v-323c0 -82 -21.167 -144.833 -63.5 -188.5s-106.5 -65.5 -192.5 -65.5zM337.002 610.001h-62v17l39 97h115v-22z" />
    <glyph glyph-name="Ucircumflex" unicode="&#xdb;" horiz-adv-x="614" 
d="M310 -14c-84 0 -147.498 22.168 -190.498 66.501s-64.5 106.833 -64.5 187.5v323h150v-322c0 -28 3.66699 -50.167 11 -66.5s16.5 -28.5 27.5 -36.5s22.5 -13.167 34.5 -15.5s22.667 -3.5 32 -3.5c15.333 0 31.166 2.33301 47.499 7s30.166 15.667 41.499 33
s17 44.666 17 81.999v322h150v-323c0 -82 -21.167 -144.833 -63.5 -188.5s-106.5 -65.5 -192.5 -65.5zM155.002 617.001v10l127 114h58l126 -114v-10h-120l-32 36h-6l-29 -36h-124z" />
    <glyph glyph-name="Udieresis" unicode="&#xdc;" horiz-adv-x="614" 
d="M310 -14c-84 0 -147.498 22.168 -190.498 66.501s-64.5 106.833 -64.5 187.5v323h150v-322c0 -28 3.66699 -50.167 11 -66.5s16.5 -28.5 27.5 -36.5s22.5 -13.167 34.5 -15.5s22.667 -3.5 32 -3.5c15.333 0 31.166 2.33301 47.499 7s30.166 15.667 41.499 33
s17 44.666 17 81.999v322h150v-323c0 -82 -21.167 -144.833 -63.5 -188.5s-106.5 -65.5 -192.5 -65.5zM210.002 625.001c-30 0 -50.167 7.5 -60.5 22.5s-15.5 32.833 -15.5 53.5c0 19.333 5.16699 36.5 15.5 51.5s30.5 22.5 60.5 22.5s49.833 -7.5 59.5 -22.5
s14.5 -32.167 14.5 -51.5c0 -20.667 -4.83301 -38.5 -14.5 -53.5s-29.5 -22.5 -59.5 -22.5zM416.002 625.001c-30 0 -50.167 7.5 -60.5 22.5s-15.5 32.833 -15.5 53.5c0 19.333 5.16699 36.5 15.5 51.5s30.5 22.5 60.5 22.5s49.833 -7.5 59.5 -22.5s14.5 -32.167 14.5 -51.5
c0 -20.667 -4.83301 -38.5 -14.5 -53.5s-29.5 -22.5 -59.5 -22.5z" />
    <glyph glyph-name="Yacute" unicode="&#xdd;" horiz-adv-x="464" 
d="M163 0v194h-1l-191 369h157l107 -251l107 251h157l-197 -369v-194h-139zM257 610h-62v17l39 97h115v-22z" />
    <glyph glyph-name="Thorn" unicode="&#xde;" horiz-adv-x="500" 
d="M190 0h-140v563h140v-92h90c64 0 114.5 -16.5 151.5 -49.5s55.5 -82.5 55.5 -148.5c0 -56 -19 -100.167 -57 -132.5s-88 -48.5 -150 -48.5h-90v-92zM259 359l-68.999 -0.000976562v-169h69c28 0 52 7.16699 72 21.5s30 35.5 30 63.5
c0 28.667 -9.83301 49.834 -29.5 63.501s-43.834 20.5 -72.501 20.5z" />
    <glyph glyph-name="germandbls" unicode="&#xdf;" horiz-adv-x="637" 
d="M429 -10c-40.667 0 -74.166 5.49902 -100.499 16.499s-46.666 25.5 -60.999 43.5s-24.333 37.333 -30 58s-8.5 41 -8.5 61h119l1 -9c0.666992 -6 2.66699 -12.667 6 -20s9.33301 -14 18 -20s21 -9 37 -9c23.333 0 39.833 6.83301 49.5 20.5s14.5 26.834 14.5 39.501
c0 17.333 -6.33301 31.666 -19 42.999s-28.167 21.166 -46.5 29.499l-55 24.5c-18.333 8 -33.833 17.167 -46.5 27.5s-19 23.166 -19 38.499c0 14 3.66699 24.5 11 31.5s16.5 12.5 27.5 16.5s21.833 8.16699 32.5 12.5s19.667 10.666 27 18.999s11 20.833 11 37.5h-202v-451
h-140v563h268c16 0 35.5 -0.166992 58.5 -0.5s45.5 -2.83301 67.5 -7.5s40.5 -12.834 55.5 -24.501s22.5 -29.167 22.5 -52.5c0 -20.667 -4.33301 -37.167 -13 -49.5s-19.5 -22.166 -32.5 -29.499s-26 -13.666 -39 -18.999s-23.833 -11.166 -32.5 -17.499
s-13 -15.166 -13 -26.499s7.16699 -20.666 21.5 -27.999s32.166 -14.5 53.499 -21.5s42.833 -16 64.5 -27s39.667 -25.667 54 -44s21.5 -42.5 21.5 -72.5c0 -32 -9 -59.333 -27 -82s-40.833 -40.167 -68.5 -52.5s-56.834 -18.5 -87.501 -18.5z" />
    <glyph glyph-name="agrave" unicode="&#xe0;" horiz-adv-x="480" 
d="M174 -10c-56.667 0 -95.832 18.834 -117.499 56.501s-32.5 88.834 -32.5 153.501c0 43.333 4.66699 81 14 113s25 56.833 47 74.5s51.667 26.5 89 26.5c27.333 0 49.5 -3.83301 66.5 -11.5s30.167 -16.5 39.5 -26.5s15.666 -18.833 18.999 -26.5l5 -11.5h2v76h144v-414
h-122l-22 56h-2c0.666992 0 -1 -3.33301 -5 -10s-10.833 -14.334 -20.5 -23.001s-23 -16.334 -40 -23.001s-38.5 -10 -64.5 -10zM233.002 105.001c22.667 0 39.167 4.5 49.5 13.5s16.833 20.833 19.5 35.5s4 29.667 4 45c0 16 -1.33301 31.167 -4 45.5
s-9.16699 25.833 -19.5 34.5s-26.833 13 -49.5 13s-39.167 -4.5 -49.5 -13.5s-16.833 -20.5 -19.5 -34.5s-4 -29 -4 -45s1.33301 -31.167 4 -45.5s9.16699 -26 19.5 -35s26.833 -13.5 49.5 -13.5zM204.002 461.001l-92 92v22h115l39 -97v-17h-62z" />
    <glyph glyph-name="aacute" unicode="&#xe1;" horiz-adv-x="480" 
d="M174 -10c-56.667 0 -95.832 18.834 -117.499 56.501s-32.5 88.834 -32.5 153.501c0 43.333 4.66699 81 14 113s25 56.833 47 74.5s51.667 26.5 89 26.5c27.333 0 49.5 -3.83301 66.5 -11.5s30.167 -16.5 39.5 -26.5s15.666 -18.833 18.999 -26.5l5 -11.5h2v76h144v-414
h-122l-22 56h-2c0.666992 0 -1 -3.33301 -5 -10s-10.833 -14.334 -20.5 -23.001s-23 -16.334 -40 -23.001s-38.5 -10 -64.5 -10zM233.002 105.001c22.667 0 39.167 4.5 49.5 13.5s16.833 20.833 19.5 35.5s4 29.667 4 45c0 16 -1.33301 31.167 -4 45.5
s-9.16699 25.833 -19.5 34.5s-26.833 13 -49.5 13s-39.167 -4.5 -49.5 -13.5s-16.833 -20.5 -19.5 -34.5s-4 -29 -4 -45s1.33301 -31.167 4 -45.5s9.16699 -26 19.5 -35s26.833 -13.5 49.5 -13.5zM272.002 461.001h-62v17l39 97h115v-22z" />
    <glyph glyph-name="acircumflex" unicode="&#xe2;" horiz-adv-x="480" 
d="M174 -10c-56.667 0 -95.832 18.834 -117.499 56.501s-32.5 88.834 -32.5 153.501c0 43.333 4.66699 81 14 113s25 56.833 47 74.5s51.667 26.5 89 26.5c27.333 0 49.5 -3.83301 66.5 -11.5s30.167 -16.5 39.5 -26.5s15.666 -18.833 18.999 -26.5l5 -11.5h2v76h144v-414
h-122l-22 56h-2c0.666992 0 -1 -3.33301 -5 -10s-10.833 -14.334 -20.5 -23.001s-23 -16.334 -40 -23.001s-38.5 -10 -64.5 -10zM233.002 105.001c22.667 0 39.167 4.5 49.5 13.5s16.833 20.833 19.5 35.5s4 29.667 4 45c0 16 -1.33301 31.167 -4 45.5
s-9.16699 25.833 -19.5 34.5s-26.833 13 -49.5 13s-39.167 -4.5 -49.5 -13.5s-16.833 -20.5 -19.5 -34.5s-4 -29 -4 -45s1.33301 -31.167 4 -45.5s9.16699 -26 19.5 -35s26.833 -13.5 49.5 -13.5zM84.002 464.001v10l127 114h58l126 -114v-10h-120l-32 36h-6l-29 -36h-124z
" />
    <glyph glyph-name="atilde" unicode="&#xe3;" horiz-adv-x="480" 
d="M174 -10c-56.667 0 -95.832 18.834 -117.499 56.501s-32.5 88.834 -32.5 153.501c0 43.333 4.66699 81 14 113s25 56.833 47 74.5s51.667 26.5 89 26.5c27.333 0 49.5 -3.83301 66.5 -11.5s30.167 -16.5 39.5 -26.5s15.666 -18.833 18.999 -26.5l5 -11.5h2v76h144v-414
h-122l-22 56h-2c0.666992 0 -1 -3.33301 -5 -10s-10.833 -14.334 -20.5 -23.001s-23 -16.334 -40 -23.001s-38.5 -10 -64.5 -10zM233.002 105.001c22.667 0 39.167 4.5 49.5 13.5s16.833 20.833 19.5 35.5s4 29.667 4 45c0 16 -1.33301 31.167 -4 45.5
s-9.16699 25.833 -19.5 34.5s-26.833 13 -49.5 13s-39.167 -4.5 -49.5 -13.5s-16.833 -20.5 -19.5 -34.5s-4 -29 -4 -45s1.33301 -31.167 4 -45.5s9.16699 -26 19.5 -35s26.833 -13.5 49.5 -13.5zM292.002 471.001c-18.667 0 -33.335 2.99902 -44.002 8.99902
s-19.334 12.667 -26.001 20l-18 20c-5.33301 6 -12.666 9 -21.999 9c-10.667 0 -16.834 -4.5 -18.501 -13.5s-2.5 -22.167 -2.5 -39.5h-78c0 8 0.166992 19.167 0.5 33.5s2.83301 29 7.5 44s13.334 27.833 26.001 38.5s31.334 16 56.001 16c18.667 0 33.5 -3 44.5 -9
s19.833 -12.667 26.5 -20l19 -20c6 -6 13 -9 21 -9c10 0 15.833 4.83301 17.5 14.5s2.5 22.834 2.5 39.501h78c0 -12.667 -0.5 -26.5 -1.5 -41.5s-4.16699 -29.5 -9.5 -43.5s-14.166 -25.5 -26.499 -34.5s-29.833 -13.5 -52.5 -13.5z" />
    <glyph glyph-name="adieresis" unicode="&#xe4;" horiz-adv-x="545" 
d="M152 456c-30 0 -50.167 7.5 -60.5 22.5s-15.5 32.833 -15.5 53.5c0 19.333 5.16699 36.5 15.5 51.5s30.5 22.5 60.5 22.5s49.833 -7.5 59.5 -22.5s14.5 -32.167 14.5 -51.5c0 -20.667 -4.83301 -38.5 -14.5 -53.5s-29.5 -22.5 -59.5 -22.5zM358 456
c-30 0 -50.167 7.5 -60.5 22.5s-15.5 32.833 -15.5 53.5c0 19.333 5.16699 36.5 15.5 51.5s30.5 22.5 60.5 22.5s49.833 -7.5 59.5 -22.5s14.5 -32.167 14.5 -51.5c0 -20.667 -4.83301 -38.5 -14.5 -53.5s-29.5 -22.5 -59.5 -22.5zM198 -10
c-41.333 0 -75.833 9.83203 -103.5 29.499s-48.334 46 -62.001 79s-20.5 69.167 -20.5 108.5c0 40.667 7 77.334 21 110.001s34.833 58.667 62.5 78s61.834 29 102.501 29c28.667 0 54 -5.33301 76 -16s40.667 -24 56 -40v46h139v-267c0 -10 0.333008 -20.667 1 -32
s4.5 -19.5 11.5 -24.5s19.833 -3.16699 38.5 5.5l-2 -75l-9.5 -8c-6.33301 -5.33301 -16 -10.5 -29 -15.5s-30.167 -7.5 -51.5 -7.5c-34.667 0 -58.5 7.33301 -71.5 22s-21.167 29.667 -24.5 45c-14 -19.333 -32 -35.333 -54 -48s-48.667 -19 -80 -19zM235 95.999
c26 0 45 5.66699 57 17s19.667 25.666 23 42.999s5 34.666 5 51.999c0 18.667 -1.66699 36.667 -5 54s-11 31.666 -23 42.999s-31 17 -57 17c-25.333 0 -44 -5.66699 -56 -17s-19.667 -25.666 -23 -42.999s-5 -35.333 -5 -54c0 -17.333 1.66699 -34.666 5 -51.999
s11 -31.666 23 -42.999s30.667 -17 56 -17zM518 20.999v0z" />
    <glyph glyph-name="aring" unicode="&#xe5;" horiz-adv-x="480" 
d="M174 -10c-56.667 0 -95.832 18.834 -117.499 56.501s-32.5 88.834 -32.5 153.501c0 43.333 4.66699 81 14 113s25 56.833 47 74.5s51.667 26.5 89 26.5c27.333 0 49.5 -3.83301 66.5 -11.5s30.167 -16.5 39.5 -26.5s15.666 -18.833 18.999 -26.5l5 -11.5h2v76h144v-414
h-122l-22 56h-2c0.666992 0 -1 -3.33301 -5 -10s-10.833 -14.334 -20.5 -23.001s-23 -16.334 -40 -23.001s-38.5 -10 -64.5 -10zM233.002 105.001c22.667 0 39.167 4.5 49.5 13.5s16.833 20.833 19.5 35.5s4 29.667 4 45c0 16 -1.33301 31.167 -4 45.5
s-9.16699 25.833 -19.5 34.5s-26.833 13 -49.5 13s-39.167 -4.5 -49.5 -13.5s-16.833 -20.5 -19.5 -34.5s-4 -29 -4 -45s1.33301 -31.167 4 -45.5s9.16699 -26 19.5 -35s26.833 -13.5 49.5 -13.5zM237.002 472.001c-37.333 0 -64.5 9.66699 -81.5 29s-25.5 45 -25.5 77
c0 33.333 8.33301 59.833 25 79.5s44 29.5 82 29.5c37.333 0 65 -9.83301 83 -29.5s27 -46.167 27 -79.5c0 -30.667 -9 -56 -27 -76s-45.667 -30 -83 -30zM235.002 552.001c11.333 0 19.333 2.66699 24 8s7 12.333 7 21s-2.33301 16 -7 22s-12.667 9 -24 9
c-10.667 0 -18.334 -3.16699 -23.001 -9.5s-7 -13.5 -7 -21.5c0 -8.66699 2.33301 -15.667 7 -21s12.334 -8 23.001 -8z" />
    <glyph glyph-name="ae" unicode="&#xe6;" horiz-adv-x="726" 
d="M141 0c-37.333 0 -67.498 10.166 -90.498 30.499s-34.5 46.833 -34.5 79.5c0 28 7.83301 49.833 23.5 65.5s36 28 61 37s51.5 16.5 79.5 22.5c28.667 6.66699 50.167 12.334 64.5 17.001s23.833 9.83398 28.5 15.501s7 12.834 7 21.501
c0 10.667 -4.5 19.334 -13.5 26.001s-20.5 10 -34.5 10c-10 0 -20.167 -2.16699 -30.5 -6.5s-18.5 -11.833 -24.5 -22.5s-7.66699 -25.667 -5 -45h-130c0 43.333 9.16699 77.833 27.5 103.5s42.166 44 71.499 55s60 16.5 92 16.5c23.333 0 46.333 -2.83301 69 -8.5
s42.667 -14.5 60 -26.5c16.667 11.333 36.167 20.166 58.5 26.499s48.166 9.5 77.499 9.5c36 0 68.667 -8.83301 98 -26.5s52.666 -41.667 69.999 -72s26 -64.833 26 -103.5v-26h-278c0 -26.667 7.5 -46.5 22.5 -59.5s34.833 -19.5 59.5 -19.5
c21.333 0 36.833 4.66699 46.5 14s16.5 21.666 20.5 36.999l133 -27c-8 -25.333 -20 -49 -36 -71s-37.333 -39.667 -64 -53s-59.667 -20 -99 -20c-60 0 -106.333 13.167 -139 39.5s-54.667 58.166 -66 95.499c-0.666992 -6 -3.5 -16.333 -8.5 -31s-13 -30 -24 -46
s-26.167 -29.667 -45.5 -41s-43.666 -17 -72.999 -17zM414.002 266.999h138.002l0.5 9.5c0.333008 6.33301 -0.833984 13.833 -3.50098 22.5s-8.33398 16.167 -17.001 22.5s-22 9.5 -40 9.5s-32.333 -3.16699 -43 -9.5s-18.5 -13.833 -23.5 -22.5
s-8.16699 -16.167 -9.5 -22.5zM201.004 96.999c12.667 2 25.001 9.33398 37.001 22.001s22 28.5 30 47.5s12 38.833 12 59.5c-4 -4.66699 -12.333 -9 -25 -13s-23 -7.66699 -31 -11c-17.333 -6.66699 -33.166 -16.334 -47.499 -29.001s-20.833 -28 -19.5 -46
c1.33301 -13.333 7.16602 -21.833 17.499 -25.5s19.166 -5.16699 26.499 -4.5z" />
    <glyph glyph-name="ccedilla" unicode="&#xe7;" horiz-adv-x="486" 
d="M245 -10c-38.667 0 -74.499 7.66797 -107.499 23.001s-59.5 38.666 -79.5 69.999s-30 70.333 -30 117c1.33301 46 11.666 85 30.999 117s45.333 56.5 78 73.5s69 25.5 109 25.5c46.667 0 85.5 -9 116.5 -27s54.333 -40.5 70 -67.5s23.5 -54.167 23.5 -81.5h-127
c-6.66699 38.667 -32.667 58 -78 58c-30 0 -52 -8 -66 -24s-21 -36.667 -21 -62c0 -31.333 7 -56.333 21 -75s36.667 -28 68 -28c18 0 34.333 5 49 15s23.667 26.333 27 49h127c0 -29.333 -7.83301 -58 -23.5 -86s-39.167 -51.167 -70.5 -69.5s-70.333 -27.5 -117 -27.5z
M105.001 -149.999l38.998 63.998c5.33301 -4 14.666 -8.16699 27.999 -12.5s27.333 -7.66602 42 -9.99902s27.334 -2.16602 38.001 0.500977s16 9.33398 16 20.001c0.666992 6.66699 -3.16602 12 -11.499 16s-18 5.5 -29 4.5s-20.167 -5.16699 -27.5 -12.5l-57 26l46 101
l60 -23l-36 -61c10.667 8 24 13 40 15s32.167 0.833008 48.5 -3.5s30 -12 41 -23s16.5 -26.167 16.5 -45.5c0 -22.667 -8 -41.334 -24 -56.001s-36.833 -24.5 -62.5 -29.5s-53.167 -5.16699 -82.5 -0.5s-57.666 14.667 -84.999 30z" />
    <glyph glyph-name="egrave" unicode="&#xe8;" horiz-adv-x="474" 
d="M235 -10c-50 0 -90.333 9.99805 -121 29.998s-53.167 45.833 -67.5 77.5s-22.166 64.834 -23.499 99.501c-1.33301 45.333 6.66699 84.5 24 117.5s41.833 58.333 73.5 76s68.167 26.5 109.5 26.5c39.333 0 74.5 -8.16699 105.5 -24.5s55.333 -39.5 73 -69.5
s26.5 -66 26.5 -108v-26h-280c0 -29.333 7.16699 -50.666 21.5 -63.999s32.833 -20 55.5 -20c19.333 0 34.833 4.5 46.5 13.5s18.5 20.5 20.5 34.5h135c-2 -29.333 -10.667 -56.5 -26 -81.5s-37.333 -44.833 -66 -59.5s-64.334 -22 -107.001 -22zM157 244.998h138.001
l-0.5 9c-0.333008 6 -2.5 13 -6.5 21s-10.667 15 -20 21s-23 9 -41 9s-32 -3 -42 -9s-16.833 -13 -20.5 -21s-5.83398 -15 -6.50098 -21zM204.001 460.998l-92 92v22h115l39 -97v-17h-62z" />
    <glyph glyph-name="eacute" unicode="&#xe9;" horiz-adv-x="474" 
d="M235 -10c-50 0 -90.333 9.99805 -121 29.998s-53.167 45.833 -67.5 77.5s-22.166 64.834 -23.499 99.501c-1.33301 45.333 6.66699 84.5 24 117.5s41.833 58.333 73.5 76s68.167 26.5 109.5 26.5c39.333 0 74.5 -8.16699 105.5 -24.5s55.333 -39.5 73 -69.5
s26.5 -66 26.5 -108v-26h-280c0 -29.333 7.16699 -50.666 21.5 -63.999s32.833 -20 55.5 -20c19.333 0 34.833 4.5 46.5 13.5s18.5 20.5 20.5 34.5h135c-2 -29.333 -10.667 -56.5 -26 -81.5s-37.333 -44.833 -66 -59.5s-64.334 -22 -107.001 -22zM157 244.998h138.001
l-0.5 9c-0.333008 6 -2.5 13 -6.5 21s-10.667 15 -20 21s-23 9 -41 9s-32 -3 -42 -9s-16.833 -13 -20.5 -21s-5.83398 -15 -6.50098 -21zM269.001 460.998h-62v17l39 97h115v-22z" />
    <glyph glyph-name="ecircumflex" unicode="&#xea;" horiz-adv-x="474" 
d="M235 -10c-50 0 -90.333 9.99805 -121 29.998s-53.167 45.833 -67.5 77.5s-22.166 64.834 -23.499 99.501c-1.33301 45.333 6.66699 84.5 24 117.5s41.833 58.333 73.5 76s68.167 26.5 109.5 26.5c39.333 0 74.5 -8.16699 105.5 -24.5s55.333 -39.5 73 -69.5
s26.5 -66 26.5 -108v-26h-280c0 -29.333 7.16699 -50.666 21.5 -63.999s32.833 -20 55.5 -20c19.333 0 34.833 4.5 46.5 13.5s18.5 20.5 20.5 34.5h135c-2 -29.333 -10.667 -56.5 -26 -81.5s-37.333 -44.833 -66 -59.5s-64.334 -22 -107.001 -22zM157 244.998h138.001
l-0.5 9c-0.333008 6 -2.5 13 -6.5 21s-10.667 15 -20 21s-23 9 -41 9s-32 -3 -42 -9s-16.833 -13 -20.5 -21s-5.83398 -15 -6.50098 -21zM75.001 455.998v10l127 114h58l126 -114v-10h-120l-32 36h-6l-29 -36h-124z" />
    <glyph glyph-name="edieresis" unicode="&#xeb;" horiz-adv-x="474" 
d="M235 -10c-50 0 -90.333 9.99805 -121 29.998s-53.167 45.833 -67.5 77.5s-22.166 64.834 -23.499 99.501c-1.33301 45.333 6.66699 84.5 24 117.5s41.833 58.333 73.5 76s68.167 26.5 109.5 26.5c39.333 0 74.5 -8.16699 105.5 -24.5s55.333 -39.5 73 -69.5
s26.5 -66 26.5 -108v-26h-280c0 -29.333 7.16699 -50.666 21.5 -63.999s32.833 -20 55.5 -20c19.333 0 34.833 4.5 46.5 13.5s18.5 20.5 20.5 34.5h135c-2 -29.333 -10.667 -56.5 -26 -81.5s-37.333 -44.833 -66 -59.5s-64.334 -22 -107.001 -22zM157 244.998h138.001
l-0.5 9c-0.333008 6 -2.5 13 -6.5 21s-10.667 15 -20 21s-23 9 -41 9s-32 -3 -42 -9s-16.833 -13 -20.5 -21s-5.83398 -15 -6.50098 -21zM128.001 455.998c-30 0 -50.167 7.5 -60.5 22.5s-15.5 32.833 -15.5 53.5c0 19.333 5.16699 36.5 15.5 51.5s30.5 22.5 60.5 22.5
s49.833 -7.5 59.5 -22.5s14.5 -32.167 14.5 -51.5c0 -20.667 -4.83301 -38.5 -14.5 -53.5s-29.5 -22.5 -59.5 -22.5zM334.001 455.998c-30 0 -50.167 7.5 -60.5 22.5s-15.5 32.833 -15.5 53.5c0 19.333 5.16699 36.5 15.5 51.5s30.5 22.5 60.5 22.5s49.833 -7.5 59.5 -22.5
s14.5 -32.167 14.5 -51.5c0 -20.667 -4.83301 -38.5 -14.5 -53.5s-29.5 -22.5 -59.5 -22.5z" />
    <glyph glyph-name="igrave" unicode="&#xec;" horiz-adv-x="241" 
d="M98 461l-92 92v22h115l39 -97v-17h-62zM51 0v414h140v-414h-140z" />
    <glyph glyph-name="iacute" unicode="&#xed;" horiz-adv-x="238" 
d="M139 461h-62v17l39 97h115v-22zM40 0v417h140v-417h-140z" />
    <glyph glyph-name="icircumflex" unicode="&#xee;" horiz-adv-x="289" 
d="M-6 456v10l127 114h58l126 -114v-10h-120l-32 36h-6l-29 -36h-124zM80 0v417h140v-417h-140z" />
    <glyph glyph-name="idieresis" unicode="&#xef;" horiz-adv-x="296" 
d="M51 456c-30 0 -50.167 7.5 -60.5 22.5s-15.5 32.833 -15.5 53.5c0 19.333 5.16699 36.5 15.5 51.5s30.5 22.5 60.5 22.5s49.833 -7.5 59.5 -22.5s14.5 -32.167 14.5 -51.5c0 -20.667 -4.83301 -38.5 -14.5 -53.5s-29.5 -22.5 -59.5 -22.5zM257 456
c-30 0 -50.167 7.5 -60.5 22.5s-15.5 32.833 -15.5 53.5c0 19.333 5.16699 36.5 15.5 51.5s30.5 22.5 60.5 22.5s49.833 -7.5 59.5 -22.5s14.5 -32.167 14.5 -51.5c0 -20.667 -4.83301 -38.5 -14.5 -53.5s-29.5 -22.5 -59.5 -22.5zM83 0v417h140v-417h-140z" />
    <glyph glyph-name="eth" unicode="&#xf0;" horiz-adv-x="538" 
d="M258 -10c-48 0 -88.001 9.66504 -120.001 28.998s-56.333 44.333 -73 75s-25.667 63.334 -27 98.001s4.5 67.334 17.5 98.001s32.667 55.667 59 75s59.166 29 98.499 29c30 0 55.333 -4.5 76 -13.5s37.334 -19.667 50.001 -32s22 -23 28 -32l9 -13.5h2
c-8 28 -24 54.5 -48 79.5s-49 47.167 -75 66.5l-52 -31l-50 37l49 30c-14 8.66699 -25.5 15.5 -34.5 20.5l-13.5 7.5l107 117c30.667 -16 59 -35.333 85 -58l53 32l50 -37l-61 -37c35.333 -40.667 62.333 -85.167 81 -133.5s28.334 -96.5 29.001 -144.5
s-7.66602 -91.667 -24.999 -131s-43.833 -71 -79.5 -95s-80.834 -36 -135.501 -36zM383.999 180.998c0 28.667 -7.66797 51.834 -23.001 69.501s-34.166 29.667 -56.499 36s-44.166 7 -65.499 2s-38.5 -15.5 -51.5 -31.5s-17.5 -37.667 -13.5 -65
c3.33301 -22.667 11.833 -40.834 25.5 -54.501s30 -23 49 -28s38.167 -5.66699 57.5 -2s36.166 11.667 50.499 24s23.5 28.833 27.5 49.5z" />
    <glyph glyph-name="ntilde" unicode="&#xf1;" horiz-adv-x="486" 
d="M35 0v412h121l23 -74h2l5.5 11.5c3.66699 7.66699 10.167 16.5 19.5 26.5s22.5 18.833 39.5 26.5s38.833 11.5 65.5 11.5c30 0 54.167 -5.33301 72.5 -16s32.333 -24.5 42 -41.5s16.167 -35.333 19.5 -55s5.16602 -38.667 5.49902 -57s0.5 -33.833 0.5 -46.5v-198h-136
v199c0 14.667 -1.16699 29 -3.5 43s-8.16602 25.833 -17.499 35.5s-25.333 14.5 -48 14.5c-22 0 -37.667 -4.83301 -47 -14.5s-15 -21.5 -17 -35.5s-3 -28.333 -3 -43v-199h-144zM313 471c-18.667 0 -33.335 2.99902 -44.002 8.99902s-19.334 12.667 -26.001 20l-18 20
c-5.33301 6 -12.666 9 -21.999 9c-10.667 0 -16.834 -4.5 -18.501 -13.5s-2.5 -22.167 -2.5 -39.5h-78c0 8 0.166992 19.167 0.5 33.5s2.83301 29 7.5 44s13.334 27.833 26.001 38.5s31.334 16 56.001 16c18.667 0 33.5 -3 44.5 -9s19.833 -12.667 26.5 -20l19 -20
c6 -6 13 -9 21 -9c10 0 15.833 4.83301 17.5 14.5s2.5 22.834 2.5 39.501h78c0 -12.667 -0.5 -26.5 -1.5 -41.5s-4.16699 -29.5 -9.5 -43.5s-14.166 -25.5 -26.499 -34.5s-29.833 -13.5 -52.5 -13.5z" />
    <glyph glyph-name="ograve" unicode="&#xf2;" horiz-adv-x="487" 
d="M239 -10c-48.667 0 -89.333 9.16602 -122 27.499s-57 43.5 -73 75.5s-24 68.333 -24 109c-0.666992 41.333 7 77.833 23 109.5s40.5 56.834 73.5 75.501s73.833 28 122.5 28c71.333 0 125.5 -19.5 162.5 -58.5s55.5 -90.5 55.5 -154.5c0 -40 -7.83301 -76 -23.5 -108
s-39.5 -57.333 -71.5 -76s-73 -28 -123 -28zM239.001 105.999c24.667 0 43 5 55 15s19.833 22.833 23.5 38.5s5.5 31.5 5.5 47.5c0 16.667 -1.83301 32.667 -5.5 48s-11.5 28.166 -23.5 38.499s-30.333 15.5 -55 15.5s-43.167 -5.16699 -55.5 -15.5
s-20.333 -23.166 -24 -38.499s-5.5 -31.333 -5.5 -48c0 -16 1.83301 -31.833 5.5 -47.5s11.667 -28.5 24 -38.5s30.833 -15 55.5 -15zM204.001 460.999l-92 92v22h115l39 -97v-17h-62z" />
    <glyph glyph-name="oacute" unicode="&#xf3;" horiz-adv-x="487" 
d="M239 -10c-48.667 0 -89.333 9.16602 -122 27.499s-57 43.5 -73 75.5s-24 68.333 -24 109c-0.666992 41.333 7 77.833 23 109.5s40.5 56.834 73.5 75.501s73.833 28 122.5 28c71.333 0 125.5 -19.5 162.5 -58.5s55.5 -90.5 55.5 -154.5c0 -40 -7.83301 -76 -23.5 -108
s-39.5 -57.333 -71.5 -76s-73 -28 -123 -28zM239.001 105.999c24.667 0 43 5 55 15s19.833 22.833 23.5 38.5s5.5 31.5 5.5 47.5c0 16.667 -1.83301 32.667 -5.5 48s-11.5 28.166 -23.5 38.499s-30.333 15.5 -55 15.5s-43.167 -5.16699 -55.5 -15.5
s-20.333 -23.166 -24 -38.499s-5.5 -31.333 -5.5 -48c0 -16 1.83301 -31.833 5.5 -47.5s11.667 -28.5 24 -38.5s30.833 -15 55.5 -15zM269.001 460.999h-62v17l39 97h115v-22z" />
    <glyph glyph-name="ocircumflex" unicode="&#xf4;" horiz-adv-x="487" 
d="M239 -10c-48.667 0 -89.333 9.16602 -122 27.499s-57 43.5 -73 75.5s-24 68.333 -24 109c-0.666992 41.333 7 77.833 23 109.5s40.5 56.834 73.5 75.501s73.833 28 122.5 28c71.333 0 125.5 -19.5 162.5 -58.5s55.5 -90.5 55.5 -154.5c0 -40 -7.83301 -76 -23.5 -108
s-39.5 -57.333 -71.5 -76s-73 -28 -123 -28zM239.001 105.999c24.667 0 43 5 55 15s19.833 22.833 23.5 38.5s5.5 31.5 5.5 47.5c0 16.667 -1.83301 32.667 -5.5 48s-11.5 28.166 -23.5 38.499s-30.333 15.5 -55 15.5s-43.167 -5.16699 -55.5 -15.5
s-20.333 -23.166 -24 -38.499s-5.5 -31.333 -5.5 -48c0 -16 1.83301 -31.833 5.5 -47.5s11.667 -28.5 24 -38.5s30.833 -15 55.5 -15zM75.001 455.999v10l127 114h58l126 -114v-10h-120l-32 36h-6l-29 -36h-124z" />
    <glyph glyph-name="otilde" unicode="&#xf5;" horiz-adv-x="487" 
d="M239 -10c-48.667 0 -89.333 9.16602 -122 27.499s-57 43.5 -73 75.5s-24 68.333 -24 109c-0.666992 41.333 7 77.833 23 109.5s40.5 56.834 73.5 75.501s73.833 28 122.5 28c71.333 0 125.5 -19.5 162.5 -58.5s55.5 -90.5 55.5 -154.5c0 -40 -7.83301 -76 -23.5 -108
s-39.5 -57.333 -71.5 -76s-73 -28 -123 -28zM239.001 105.999c24.667 0 43 5 55 15s19.833 22.833 23.5 38.5s5.5 31.5 5.5 47.5c0 16.667 -1.83301 32.667 -5.5 48s-11.5 28.166 -23.5 38.499s-30.333 15.5 -55 15.5s-43.167 -5.16699 -55.5 -15.5
s-20.333 -23.166 -24 -38.499s-5.5 -31.333 -5.5 -48c0 -16 1.83301 -31.833 5.5 -47.5s11.667 -28.5 24 -38.5s30.833 -15 55.5 -15zM295.001 470.999c-18.667 0 -33.335 2.99902 -44.002 8.99902s-19.334 12.667 -26.001 20l-18 20c-5.33301 6 -12.666 9 -21.999 9
c-10.667 0 -16.834 -4.5 -18.501 -13.5s-2.5 -22.167 -2.5 -39.5h-78c0 8 0.166992 19.167 0.5 33.5s2.83301 29 7.5 44s13.334 27.833 26.001 38.5s31.334 16 56.001 16c18.667 0 33.5 -3 44.5 -9s19.833 -12.667 26.5 -20l19 -20c6 -6 13 -9 21 -9
c10 0 15.833 4.83301 17.5 14.5s2.5 22.834 2.5 39.501h78c0 -12.667 -0.5 -26.5 -1.5 -41.5s-4.16699 -29.5 -9.5 -43.5s-14.166 -25.5 -26.499 -34.5s-29.833 -13.5 -52.5 -13.5z" />
    <glyph glyph-name="odieresis" unicode="&#xf6;" horiz-adv-x="487" 
d="M239 -10c-48.667 0 -89.333 9.16602 -122 27.499s-57 43.5 -73 75.5s-24 68.333 -24 109c-0.666992 41.333 7 77.833 23 109.5s40.5 56.834 73.5 75.501s73.833 28 122.5 28c71.333 0 125.5 -19.5 162.5 -58.5s55.5 -90.5 55.5 -154.5c0 -40 -7.83301 -76 -23.5 -108
s-39.5 -57.333 -71.5 -76s-73 -28 -123 -28zM239.001 105.999c24.667 0 43 5 55 15s19.833 22.833 23.5 38.5s5.5 31.5 5.5 47.5c0 16.667 -1.83301 32.667 -5.5 48s-11.5 28.166 -23.5 38.499s-30.333 15.5 -55 15.5s-43.167 -5.16699 -55.5 -15.5
s-20.333 -23.166 -24 -38.499s-5.5 -31.333 -5.5 -48c0 -16 1.83301 -31.833 5.5 -47.5s11.667 -28.5 24 -38.5s30.833 -15 55.5 -15zM128.001 455.999c-30 0 -50.167 7.5 -60.5 22.5s-15.5 32.833 -15.5 53.5c0 19.333 5.16699 36.5 15.5 51.5s30.5 22.5 60.5 22.5
s49.833 -7.5 59.5 -22.5s14.5 -32.167 14.5 -51.5c0 -20.667 -4.83301 -38.5 -14.5 -53.5s-29.5 -22.5 -59.5 -22.5zM334.001 455.999c-30 0 -50.167 7.5 -60.5 22.5s-15.5 32.833 -15.5 53.5c0 19.333 5.16699 36.5 15.5 51.5s30.5 22.5 60.5 22.5s49.833 -7.5 59.5 -22.5
s14.5 -32.167 14.5 -51.5c0 -20.667 -4.83301 -38.5 -14.5 -53.5s-29.5 -22.5 -59.5 -22.5z" />
    <glyph glyph-name="divide" unicode="&#xf7;" horiz-adv-x="317" 
d="M150 307c-15.333 0 -26.6689 4.16699 -34.002 12.5s-11 18.833 -11 31.5c-0.666992 12.667 2.83301 23.167 10.5 31.5s19.167 12.5 34.5 12.5c14.667 0 25.834 -4 33.501 -12s11.5 -18.667 11.5 -32c0 -12.667 -3.66699 -23.167 -11 -31.5s-18.666 -12.5 -33.999 -12.5z
M39.9971 178v94h222v-94h-222zM149.997 51c-15.333 0 -26.6689 4.16699 -34.002 12.5s-11 18.833 -11 31.5c-0.666992 12.667 2.83301 23.167 10.5 31.5s19.167 12.5 34.5 12.5c14.667 0 25.834 -4 33.501 -12s11.5 -18.667 11.5 -32c0 -12.667 -3.66699 -23.167 -11 -31.5
s-18.666 -12.5 -33.999 -12.5z" />
    <glyph glyph-name="oslash" unicode="&#xf8;" horiz-adv-x="479" 
d="M62 -27l36 56.9971c-26 18.667 -45.5 42.834 -58.5 72.501s-19.5 62.834 -19.5 99.501c-0.666992 41.333 7 77.833 23 109.5s40.5 56.834 73.5 75.501s73.833 28 122.5 28c34 0 64.667 -4.66699 92 -14l37 59l30 -17l-36 -57c31.333 -17.333 55 -41.833 71 -73.5
s24 -68.5 24 -110.5c0 -40 -7.83301 -76 -23.5 -108s-39.5 -57.333 -71.5 -76s-73 -28 -123 -28c-42.667 0 -80 7.33301 -112 22l-35 -56zM154 206.997c0 -11.333 0.833008 -22.834 2.5 -34.501s5.16699 -22.5 10.5 -32.5l104 165c-9.33301 2.66699 -20 4 -32 4
c-24.667 0 -43.167 -5.16699 -55.5 -15.5s-20.333 -23.166 -24 -38.499s-5.5 -31.333 -5.5 -48zM239 105.996c24.667 0 42.999 4.99902 54.999 14.999s19.833 22.833 23.5 38.5s5.5 31.5 5.5 47.5c0 14.667 -1.33301 29.334 -4 44.001s-9 26.667 -19 36l-108 -171
c12.667 -6.66699 28.334 -10 47.001 -10z" />
    <glyph glyph-name="ugrave" unicode="&#xf9;" horiz-adv-x="476" 
d="M170 -10c-30 0 -54.168 5.33301 -72.501 16s-32.333 24.5 -42 41.5s-16.167 35.333 -19.5 55s-5.16602 38.667 -5.49902 57s-0.5 33.833 -0.5 46.5v208h136v-209c0 -14 1.16699 -28.167 3.5 -42.5s8.33301 -26.333 18 -36s25.5 -14.5 47.5 -14.5s37.667 4.83301 47 14.5
s15 21.667 17 36s3 28.5 3 42.5v209h144v-414h-121l-23 66h-2l-5.5 -11.5c-3.66699 -7.66699 -10.167 -16.5 -19.5 -26.5s-22.5 -18.833 -39.5 -26.5s-38.833 -11.5 -65.5 -11.5zM213.999 461l-92 92v22h115l39 -97v-17h-62z" />
    <glyph glyph-name="uacute" unicode="&#xfa;" horiz-adv-x="476" 
d="M170 -10c-30 0 -54.168 5.33301 -72.501 16s-32.333 24.5 -42 41.5s-16.167 35.333 -19.5 55s-5.16602 38.667 -5.49902 57s-0.5 33.833 -0.5 46.5v208h136v-209c0 -14 1.16699 -28.167 3.5 -42.5s8.33301 -26.333 18 -36s25.5 -14.5 47.5 -14.5s37.667 4.83301 47 14.5
s15 21.667 17 36s3 28.5 3 42.5v209h144v-414h-121l-23 66h-2l-5.5 -11.5c-3.66699 -7.66699 -10.167 -16.5 -19.5 -26.5s-22.5 -18.833 -39.5 -26.5s-38.833 -11.5 -65.5 -11.5zM272.999 461h-62v17l39 97h115v-22z" />
    <glyph glyph-name="ucircumflex" unicode="&#xfb;" horiz-adv-x="476" 
d="M170 -10c-30 0 -54.168 5.33301 -72.501 16s-32.333 24.5 -42 41.5s-16.167 35.333 -19.5 55s-5.16602 38.667 -5.49902 57s-0.5 33.833 -0.5 46.5v208h136v-209c0 -14 1.16699 -28.167 3.5 -42.5s8.33301 -26.333 18 -36s25.5 -14.5 47.5 -14.5s37.667 4.83301 47 14.5
s15 21.667 17 36s3 28.5 3 42.5v209h144v-414h-121l-23 66h-2l-5.5 -11.5c-3.66699 -7.66699 -10.167 -16.5 -19.5 -26.5s-22.5 -18.833 -39.5 -26.5s-38.833 -11.5 -65.5 -11.5zM77.999 456v10l127 114h58l126 -114v-10h-120l-32 36h-6l-29 -36h-124z" />
    <glyph glyph-name="udieresis" unicode="&#xfc;" horiz-adv-x="476" 
d="M170 -10c-30 0 -54.168 5.33301 -72.501 16s-32.333 24.5 -42 41.5s-16.167 35.333 -19.5 55s-5.16602 38.667 -5.49902 57s-0.5 33.833 -0.5 46.5v208h136v-209c0 -14 1.16699 -28.167 3.5 -42.5s8.33301 -26.333 18 -36s25.5 -14.5 47.5 -14.5s37.667 4.83301 47 14.5
s15 21.667 17 36s3 28.5 3 42.5v209h144v-414h-121l-23 66h-2l-5.5 -11.5c-3.66699 -7.66699 -10.167 -16.5 -19.5 -26.5s-22.5 -18.833 -39.5 -26.5s-38.833 -11.5 -65.5 -11.5zM128.999 456c-30 0 -50.167 7.5 -60.5 22.5s-15.5 32.833 -15.5 53.5
c0 19.333 5.16699 36.5 15.5 51.5s30.5 22.5 60.5 22.5s49.833 -7.5 59.5 -22.5s14.5 -32.167 14.5 -51.5c0 -20.667 -4.83301 -38.5 -14.5 -53.5s-29.5 -22.5 -59.5 -22.5zM334.999 456c-30 0 -50.167 7.5 -60.5 22.5s-15.5 32.833 -15.5 53.5
c0 19.333 5.16699 36.5 15.5 51.5s30.5 22.5 60.5 22.5s49.833 -7.5 59.5 -22.5s14.5 -32.167 14.5 -51.5c0 -20.667 -4.83301 -38.5 -14.5 -53.5s-29.5 -22.5 -59.5 -22.5z" />
    <glyph glyph-name="yacute" unicode="&#xfd;" horiz-adv-x="474" 
d="M0 -199v106h70c10 0 19.167 0.666992 27.5 2s16.5 5.83301 24.5 13.5s17 21.167 27 40.5l12 28l-161 423h143l85 -282l93 282h143l-187 -462c-14 -34 -27 -61 -39 -81s-24.667 -35 -38 -45s-28.5 -16.667 -45.5 -20s-37.5 -5 -61.5 -5h-93zM242 461h-62v17l39 97h115v-22
z" />
    <glyph glyph-name="thorn" unicode="&#xfe;" horiz-adv-x="512" 
d="M50 -199l-0.00292969 762.001h144v-259c0 0.666992 2.33301 6.5 7 17.5s12.334 23.667 23.001 38s24.834 26.833 42.501 37.5s39.5 16 65.5 16c34.667 0 62.667 -10 84 -30s36.833 -45.833 46.5 -77.5s14.5 -64.834 14.5 -99.501
c0 -35.333 -4.66699 -69.666 -14 -102.999s-24.666 -60.5 -45.999 -81.5s-50 -31.5 -86 -31.5c-22 0 -41.5 4.16699 -58.5 12.5s-31.167 18.166 -42.5 29.499s-20 21.5 -26 30.5s-9.33301 14.167 -10 15.5v168c-1.33301 -6.66699 -2.33301 -14.167 -3 -22.5
s-1 -17.166 -1 -26.499s0.166992 -18.333 0.5 -27s1.5 -16.334 3.5 -23.001v-346h-144zM254.997 105.001c20.667 0 35.8311 4.5 45.498 13.5s15.834 20.5 18.501 34.5s4 28.667 4 44c0 16 -1.33301 31.167 -4 45.5s-8.66699 26.166 -18 35.499s-24 14 -44 14
s-34.667 -4 -44 -12s-15.666 -19.333 -18.999 -34v-99c3.33301 -13.333 9.5 -23.666 18.5 -30.999s23.167 -11 42.5 -11z" />
    <glyph glyph-name="ydieresis" unicode="&#xff;" horiz-adv-x="474" 
d="M0 -199v106h70c10 0 19.167 0.666992 27.5 2s16.5 5.83301 24.5 13.5s17 21.167 27 40.5l12 28l-161 423h143l85 -282l93 282h143l-187 -462c-14 -34 -27 -61 -39 -81s-24.667 -35 -38 -45s-28.5 -16.667 -45.5 -20s-37.5 -5 -61.5 -5h-93zM130 456
c-30 0 -50.167 7.5 -60.5 22.5s-15.5 32.833 -15.5 53.5c0 19.333 5.16699 36.5 15.5 51.5s30.5 22.5 60.5 22.5s49.833 -7.5 59.5 -22.5s14.5 -32.167 14.5 -51.5c0 -20.667 -4.83301 -38.5 -14.5 -53.5s-29.5 -22.5 -59.5 -22.5zM336 456c-30 0 -50.167 7.5 -60.5 22.5
s-15.5 32.833 -15.5 53.5c0 19.333 5.16699 36.5 15.5 51.5s30.5 22.5 60.5 22.5s49.833 -7.5 59.5 -22.5s14.5 -32.167 14.5 -51.5c0 -20.667 -4.83301 -38.5 -14.5 -53.5s-29.5 -22.5 -59.5 -22.5z" />
    <glyph glyph-name="Amacron" unicode="&#x100;" 
d="M18 0l162 563h229l168 -563h-149l-37 141h-187l-36 -141h-150zM297 505l-66 -258h133zM147 626v94h302v-94h-302z" />
    <glyph glyph-name="amacron" unicode="&#x101;" horiz-adv-x="480" 
d="M174 -10c-56.667 0 -95.832 18.834 -117.499 56.501s-32.5 88.834 -32.5 153.501c0 43.333 4.66699 81 14 113s25 56.833 47 74.5s51.667 26.5 89 26.5c27.333 0 49.5 -3.83301 66.5 -11.5s30.167 -16.5 39.5 -26.5s15.666 -18.833 18.999 -26.5l5 -11.5h2v76h144v-414
h-122l-22 56h-2c0.666992 0 -1 -3.33301 -5 -10s-10.833 -14.334 -20.5 -23.001s-23 -16.334 -40 -23.001s-38.5 -10 -64.5 -10zM233.002 105.001c22.667 0 39.167 4.5 49.5 13.5s16.833 20.833 19.5 35.5s4 29.667 4 45c0 16 -1.33301 31.167 -4 45.5
s-9.16699 25.833 -19.5 34.5s-26.833 13 -49.5 13s-39.167 -4.5 -49.5 -13.5s-16.833 -20.5 -19.5 -34.5s-4 -29 -4 -45s1.33301 -31.167 4 -45.5s9.16699 -26 19.5 -35s26.833 -13.5 49.5 -13.5zM87.002 461.001v94h302v-94h-302z" />
    <glyph glyph-name="Abreve" unicode="&#x102;" horiz-adv-x="591" 
d="M18 0l162 563h229l168 -563h-149l-37 141h-187l-36 -141h-150zM297 505l-66 -258h133zM298 625c-46.667 0 -82.833 10.667 -108.5 32s-38.5 50.333 -38.5 87h97c0 -16.667 4.66699 -28.5 14 -35.5s21.333 -10.5 36 -10.5c15.333 0 27.333 3.33301 36 10s13 18.667 13 36
h97c0 -36.667 -12.5 -65.667 -37.5 -87s-61.167 -32 -108.5 -32z" />
    <glyph glyph-name="abreve" unicode="&#x103;" horiz-adv-x="480" 
d="M174 -10c-56.667 0 -95.832 18.834 -117.499 56.501s-32.5 88.834 -32.5 153.501c0 43.333 4.66699 81 14 113s25 56.833 47 74.5s51.667 26.5 89 26.5c27.333 0 49.5 -3.83301 66.5 -11.5s30.167 -16.5 39.5 -26.5s15.666 -18.833 18.999 -26.5l5 -11.5h2v76h144v-414
h-122l-22 56h-2c0.666992 0 -1 -3.33301 -5 -10s-10.833 -14.334 -20.5 -23.001s-23 -16.334 -40 -23.001s-38.5 -10 -64.5 -10zM233.002 105.001c22.667 0 39.167 4.5 49.5 13.5s16.833 20.833 19.5 35.5s4 29.667 4 45c0 16 -1.33301 31.167 -4 45.5
s-9.16699 25.833 -19.5 34.5s-26.833 13 -49.5 13s-39.167 -4.5 -49.5 -13.5s-16.833 -20.5 -19.5 -34.5s-4 -29 -4 -45s1.33301 -31.167 4 -45.5s9.16699 -26 19.5 -35s26.833 -13.5 49.5 -13.5zM239.002 464.001c-46.667 0 -82.833 10.667 -108.5 32
s-38.5 50.333 -38.5 87h97c0 -16.667 4.66699 -28.5 14 -35.5s21.333 -10.5 36 -10.5c15.333 0 27.333 3.33301 36 10s13 18.667 13 36h97c0 -36.667 -12.5 -65.667 -37.5 -87s-61.167 -32 -108.5 -32z" />
    <glyph glyph-name="Aogonek" unicode="&#x104;" horiz-adv-x="609" 
d="M18 0l162 563.001h229l168 -563l-14 -4c-9.33301 -2.66699 -20.333 -6.5 -33 -11.5s-23.667 -11.167 -33 -18.5s-14 -16 -14 -26c0 -14.667 8.33301 -22 25 -22c11.333 0 20.833 4.33301 28.5 13l11.5 13l71 -64l-13.5 -15c-9 -10 -22.5 -20 -40.5 -30
s-41.333 -15 -70 -15c-16 0 -32.667 3 -50 9s-32 15.833 -44 29.5s-18 32.5 -18 56.5c-0.666992 17.333 3.33301 33.166 12 47.499s19.667 26.833 33 37.5l-37 141h-187l-36 -141h-150zM297 505.001l-66 -258h133z" />
    <glyph glyph-name="aogonek" unicode="&#x105;" horiz-adv-x="480" 
d="M174 -10c-56.667 0 -95.832 18.834 -117.499 56.501s-32.5 88.834 -32.5 153.501c0 43.333 4.66699 81 14 113s25 56.833 47 74.5s51.667 26.5 89 26.5c27.333 0 49.5 -3.83301 66.5 -11.5s30.167 -16.5 39.5 -26.5s15.666 -18.833 18.999 -26.5l5 -11.5h2v76h144v-414
h-122l-22 56h-2c0.666992 0 -1 -3.33301 -5 -10s-10.833 -14.334 -20.5 -23.001s-23 -16.334 -40 -23.001s-38.5 -10 -64.5 -10zM233.002 105.001c22.667 0 39.167 4.5 49.5 13.5s16.833 20.833 19.5 35.5s4 29.667 4 45c0 16 -1.33301 31.167 -4 45.5
s-9.16699 25.833 -19.5 34.5s-26.833 13 -49.5 13s-39.167 -4.5 -49.5 -13.5s-16.833 -20.5 -19.5 -34.5s-4 -29 -4 -45s1.33301 -31.167 4 -45.5s9.16699 -26 19.5 -35s26.833 -13.5 49.5 -13.5zM396.002 -198.999c-16 0 -32.6621 3.00098 -49.9951 9.00098
s-32 15.833 -44 29.5s-18 32.5 -18 56.5c0 20.667 5.66699 39.167 17 55.5s25.166 30.166 41.499 41.499s32.666 20.833 48.999 28.5s30.166 13.167 41.499 16.5l17 5v-62l-10 -4c-6.66699 -2.66699 -14.334 -6.5 -23.001 -11.5s-16.334 -11.167 -23.001 -18.5
s-10 -16 -10 -26c0 -14.667 8.33301 -22 25 -22c11.333 0 20.833 4.33301 28.5 13l11.5 13l71 -64l-13.5 -15c-9 -10 -22.5 -20 -40.5 -30s-41.333 -15 -70 -15z" />
    <glyph glyph-name="Cacute" unicode="&#x106;" horiz-adv-x="608" 
d="M303 -10c-53.333 0 -102.003 10.668 -146.003 32.001s-79 53.333 -105 96s-38.667 95.667 -38 159c0.666992 62 13.834 115.167 39.501 159.5s60.5 78.166 104.5 101.499s93.333 35 148 35c56.667 0 104.334 -10.167 143.001 -30.5s68.834 -47 90.501 -80
s35.5 -68.5 41.5 -106.5h-144c-3.33301 25.333 -12.833 44 -28.5 56s-33 19.833 -52 23.5s-35.833 5.5 -50.5 5.5c-52 0 -90.667 -13.5 -116 -40.5s-38 -64.5 -38 -112.5c0 -52.667 12.333 -93.667 37 -123s63.334 -44 116.001 -44c15.333 0 32.666 2.16699 51.999 6.5
s36.833 13.166 52.5 26.499s25.167 33.333 28.5 60h145c-6.66699 -39.333 -21 -76.166 -43 -110.499s-52.5 -61.833 -91.5 -82.5s-87.5 -31 -145.5 -31zM346.997 610.001h-62v17l39 97h115v-22z" />
    <glyph glyph-name="cacute" unicode="&#x107;" horiz-adv-x="486" 
d="M245 -10c-38.667 0 -74.499 7.66797 -107.499 23.001s-59.5 38.666 -79.5 69.999s-30 70.333 -30 117c1.33301 46 11.666 85 30.999 117s45.333 56.5 78 73.5s69 25.5 109 25.5c46.667 0 85.5 -9 116.5 -27s54.333 -40.5 70 -67.5s23.5 -54.167 23.5 -81.5h-127
c-6.66699 38.667 -32.667 58 -78 58c-30 0 -52 -8 -66 -24s-21 -36.667 -21 -62c0 -31.333 7 -56.333 21 -75s36.667 -28 68 -28c18 0 34.333 5 49 15s23.667 26.333 27 49h127c0 -29.333 -7.83301 -58 -23.5 -86s-39.167 -51.167 -70.5 -69.5s-70.333 -27.5 -117 -27.5z
M267.001 461.001h-62v17l39 97h115v-22z" />
    <glyph glyph-name="Cdotaccent" unicode="&#x10a;" horiz-adv-x="608" 
d="M303 -10c-53.333 0 -102.003 10.668 -146.003 32.001s-79 53.333 -105 96s-38.667 95.667 -38 159c0.666992 62 13.834 115.167 39.501 159.5s60.5 78.166 104.5 101.499s93.333 35 148 35c56.667 0 104.334 -10.167 143.001 -30.5s68.834 -47 90.501 -80
s35.5 -68.5 41.5 -106.5h-144c-3.33301 25.333 -12.833 44 -28.5 56s-33 19.833 -52 23.5s-35.833 5.5 -50.5 5.5c-52 0 -90.667 -13.5 -116 -40.5s-38 -64.5 -38 -112.5c0 -52.667 12.333 -93.667 37 -123s63.334 -44 116.001 -44c15.333 0 32.666 2.16699 51.999 6.5
s36.833 13.166 52.5 26.499s25.167 33.333 28.5 60h145c-6.66699 -39.333 -21 -76.166 -43 -110.499s-52.5 -61.833 -91.5 -82.5s-87.5 -31 -145.5 -31zM317.997 625.001c-30 0 -50.167 7.5 -60.5 22.5s-15.5 32.833 -15.5 53.5c0 19.333 5.16699 36.5 15.5 51.5
s30.5 22.5 60.5 22.5s49.833 -7.5 59.5 -22.5s14.5 -32.167 14.5 -51.5c0 -20.667 -4.83301 -38.5 -14.5 -53.5s-29.5 -22.5 -59.5 -22.5z" />
    <glyph glyph-name="cdotaccent" unicode="&#x10b;" horiz-adv-x="486" 
d="M245 -10c-38.667 0 -74.499 7.66797 -107.499 23.001s-59.5 38.666 -79.5 69.999s-30 70.333 -30 117c1.33301 46 11.666 85 30.999 117s45.333 56.5 78 73.5s69 25.5 109 25.5c46.667 0 85.5 -9 116.5 -27s54.333 -40.5 70 -67.5s23.5 -54.167 23.5 -81.5h-127
c-6.66699 38.667 -32.667 58 -78 58c-30 0 -52 -8 -66 -24s-21 -36.667 -21 -62c0 -31.333 7 -56.333 21 -75s36.667 -28 68 -28c18 0 34.333 5 49 15s23.667 26.333 27 49h127c0 -29.333 -7.83301 -58 -23.5 -86s-39.167 -51.167 -70.5 -69.5s-70.333 -27.5 -117 -27.5z
M243.001 456.001c-30 0 -50.167 7.5 -60.5 22.5s-15.5 32.833 -15.5 53.5c0 19.333 5.16699 36.5 15.5 51.5s30.5 22.5 60.5 22.5s49.833 -7.5 59.5 -22.5s14.5 -32.167 14.5 -51.5c0 -20.667 -4.83301 -38.5 -14.5 -53.5s-29.5 -22.5 -59.5 -22.5z" />
    <glyph glyph-name="Ccaron" unicode="&#x10c;" 
d="M303 -10c-53.333 0 -102.003 10.668 -146.003 32.001s-79 53.333 -105 96s-38.667 95.667 -38 159c0.666992 62 13.834 115.167 39.501 159.5s60.5 78.166 104.5 101.499s93.333 35 148 35c56.667 0 104.334 -10.167 143.001 -30.5s68.834 -47 90.501 -80
s35.5 -68.5 41.5 -106.5h-144c-3.33301 25.333 -12.833 44 -28.5 56s-33 19.833 -52 23.5s-35.833 5.5 -50.5 5.5c-52 0 -90.667 -13.5 -116 -40.5s-38 -64.5 -38 -112.5c0 -52.667 12.333 -93.667 37 -123s63.334 -44 116.001 -44c15.333 0 32.666 2.16699 51.999 6.5
s36.833 13.166 52.5 26.499s25.167 33.333 28.5 60h145c-6.66699 -39.333 -21 -76.166 -43 -110.499s-52.5 -61.833 -91.5 -82.5s-87.5 -31 -145.5 -31zM141.997 754.001h143l32 -79l35 79h139l-145 -136h-58z" />
    <glyph glyph-name="ccaron" unicode="&#x10d;" horiz-adv-x="486" 
d="M245 -10c-38.667 0 -74.499 7.66797 -107.499 23.001s-59.5 38.666 -79.5 69.999s-30 70.333 -30 117c1.33301 46 11.666 85 30.999 117s45.333 56.5 78 73.5s69 25.5 109 25.5c46.667 0 85.5 -9 116.5 -27s54.333 -40.5 70 -67.5s23.5 -54.167 23.5 -81.5h-127
c-6.66699 38.667 -32.667 58 -78 58c-30 0 -52 -8 -66 -24s-21 -36.667 -21 -62c0 -31.333 7 -56.333 21 -75s36.667 -28 68 -28c18 0 34.333 5 49 15s23.667 26.333 27 49h127c0 -29.333 -7.83301 -58 -23.5 -86s-39.167 -51.167 -70.5 -69.5s-70.333 -27.5 -117 -27.5z
M68.001 597.001h143l32 -79l35 79h139l-145 -136h-58z" />
    <glyph glyph-name="Dcaron" unicode="&#x10e;" horiz-adv-x="625" 
d="M585 282c0 -74 -14.833 -131.5 -44.5 -172.5s-71.834 -69.5 -126.501 -85.5s-119 -24 -193 -24h-161v563h161c74 0 138.333 -10.5 193 -31.5s96.834 -52.167 126.501 -93.5s44.5 -93.333 44.5 -156zM198 114h65.999c36 0 66.833 4.5 92.5 13.5s45.334 25.667 59.001 50
s20.5 59.5 20.5 105.5c0 53.333 -15.167 93.333 -45.5 120s-72.5 40 -126.5 40h-66v-329zM89.999 754h143l32 -79l35 79h139l-145 -136h-58z" />
    <glyph glyph-name="dcaron" unicode="&#x10f;" horiz-adv-x="649" 
d="M512 389l27 174h130l-76 -174h-81zM200 -10c-41.333 0 -73.8311 8.33398 -97.498 25.001s-40.334 40.667 -50.001 72s-14.5 68.333 -14.5 111c0 68.667 11.667 121.834 35 159.501s65.666 56.5 126.999 56.5c25.333 0 46.333 -3.83301 63 -11.5s29.667 -16.5 39 -26.5
s16 -18.833 20 -26.5l6 -11.5h2v225h144v-563h-122l-22 56h-2l-6.5 -10c-4.33301 -6.66699 -11.5 -14.334 -21.5 -23.001s-23.167 -16.334 -39.5 -23.001s-36.5 -10 -60.5 -10zM252.002 105.001c24 0 41.5 4.5 52.5 13.5s18 20.667 21 35s4.5 29.5 4.5 45.5
s-1.5 31.167 -4.5 45.5s-10 25.833 -21 34.5s-28.5 13 -52.5 13c-23.333 0 -40.666 -4.33301 -51.999 -13s-18.5 -20.167 -21.5 -34.5s-4.5 -29.5 -4.5 -45.5s1.5 -31.167 4.5 -45.5s10.167 -26 21.5 -35s28.666 -13.5 51.999 -13.5z" />
    <glyph glyph-name="Dcroat" unicode="&#x110;" 
d="M60 0v241h-60v90h60v232h161c74 0 138.333 -10.5 193 -31.5s96.834 -52.167 126.501 -93.5s44.5 -93.333 44.5 -156c0 -74 -14.833 -131.5 -44.5 -172.5s-71.834 -69.5 -126.501 -85.5s-119 -24 -193 -24h-161zM198 114h65.999c36 0 66.833 4.5 92.5 13.5
s45.334 25.667 59.001 50s20.5 59.5 20.5 105.5c0 53.333 -15.167 93.333 -45.5 120s-72.5 40 -126.5 40h-66v-112h117v-90h-117v-127z" />
    <glyph glyph-name="dcroat" unicode="&#x111;" horiz-adv-x="521" 
d="M195 -10c-41.333 0 -73.8311 8.33398 -97.498 25.001s-40.334 40.667 -50.001 72s-14.5 68.333 -14.5 111c0 68.667 11.667 121.834 35 159.501s65.666 56.5 126.999 56.5c25.333 0 46.333 -3.83301 63 -11.5s29.667 -16.5 39 -26.5s16 -18.833 20 -26.5l6 -11.5h2v108
h-134v80h134v37h144v-37h37v-80h-37v-446h-122l-22 56h-2l-6.5 -10c-4.33301 -6.66699 -11.5 -14.334 -21.5 -23.001s-23.167 -16.334 -39.5 -23.001s-36.5 -10 -60.5 -10zM247.002 105.001c24 0 41.5 4.5 52.5 13.5s18 20.667 21 35s4.5 29.5 4.5 45.5
s-1.5 31.167 -4.5 45.5s-10 25.833 -21 34.5s-28.5 13 -52.5 13c-23.333 0 -40.666 -4.33301 -51.999 -13s-18.5 -20.167 -21.5 -34.5s-4.5 -29.5 -4.5 -45.5s1.5 -31.167 4.5 -45.5s10.167 -26 21.5 -35s28.666 -13.5 51.999 -13.5z" />
    <glyph glyph-name="Emacron" unicode="&#x112;" horiz-adv-x="523" 
d="M187 111h300v-111h-437v563h426v-119h-289v-103h215v-112h-215v-118zM107 626v94h302v-94h-302z" />
    <glyph glyph-name="emacron" unicode="&#x113;" horiz-adv-x="474" 
d="M235 -10c-50 0 -90.333 9.99805 -121 29.998s-53.167 45.833 -67.5 77.5s-22.166 64.834 -23.499 99.501c-1.33301 45.333 6.66699 84.5 24 117.5s41.833 58.333 73.5 76s68.167 26.5 109.5 26.5c39.333 0 74.5 -8.16699 105.5 -24.5s55.333 -39.5 73 -69.5
s26.5 -66 26.5 -108v-26h-280c0 -29.333 7.16699 -50.666 21.5 -63.999s32.833 -20 55.5 -20c19.333 0 34.833 4.5 46.5 13.5s18.5 20.5 20.5 34.5h135c-2 -29.333 -10.667 -56.5 -26 -81.5s-37.333 -44.833 -66 -59.5s-64.334 -22 -107.001 -22zM157 244.998h138.001
l-0.5 9c-0.333008 6 -2.5 13 -6.5 21s-10.667 15 -20 21s-23 9 -41 9s-32 -3 -42 -9s-16.833 -13 -20.5 -21s-5.83398 -15 -6.50098 -21zM81.001 479.998v94h302v-94h-302z" />
    <glyph glyph-name="Edotaccent" unicode="&#x116;" horiz-adv-x="523" 
d="M187 111h300v-111h-437v563h426v-119h-289v-103h215v-112h-215v-118zM270 625c-30 0 -50.167 7.5 -60.5 22.5s-15.5 32.833 -15.5 53.5c0 19.333 5.16699 36.5 15.5 51.5s30.5 22.5 60.5 22.5s49.833 -7.5 59.5 -22.5s14.5 -32.167 14.5 -51.5
c0 -20.667 -4.83301 -38.5 -14.5 -53.5s-29.5 -22.5 -59.5 -22.5z" />
    <glyph glyph-name="edotaccent" unicode="&#x117;" horiz-adv-x="474" 
d="M235 -10c-50 0 -90.333 9.99805 -121 29.998s-53.167 45.833 -67.5 77.5s-22.166 64.834 -23.499 99.501c-1.33301 45.333 6.66699 84.5 24 117.5s41.833 58.333 73.5 76s68.167 26.5 109.5 26.5c39.333 0 74.5 -8.16699 105.5 -24.5s55.333 -39.5 73 -69.5
s26.5 -66 26.5 -108v-26h-280c0 -29.333 7.16699 -50.666 21.5 -63.999s32.833 -20 55.5 -20c19.333 0 34.833 4.5 46.5 13.5s18.5 20.5 20.5 34.5h135c-2 -29.333 -10.667 -56.5 -26 -81.5s-37.333 -44.833 -66 -59.5s-64.334 -22 -107.001 -22zM157 244.998h138.001
l-0.5 9c-0.333008 6 -2.5 13 -6.5 21s-10.667 15 -20 21s-23 9 -41 9s-32 -3 -42 -9s-16.833 -13 -20.5 -21s-5.83398 -15 -6.50098 -21zM230.001 455.998c-30 0 -50.167 7.5 -60.5 22.5s-15.5 32.833 -15.5 53.5c0 19.333 5.16699 36.5 15.5 51.5s30.5 22.5 60.5 22.5
s49.833 -7.5 59.5 -22.5s14.5 -32.167 14.5 -51.5c0 -20.667 -4.83301 -38.5 -14.5 -53.5s-29.5 -22.5 -59.5 -22.5z" />
    <glyph glyph-name="Eogonek" unicode="&#x118;" horiz-adv-x="523" 
d="M187 111l300 0.000976562v-111l-10.5 -4c-7 -2.66699 -15.167 -6.5 -24.5 -11.5s-17.5 -11.167 -24.5 -18.5s-10.5 -16 -10.5 -26c0 -14.667 8.33301 -22 25 -22c11.333 0 20.833 4.33301 28.5 13l11.5 13l71 -64l-13.5 -15c-9 -10 -22.5 -20 -40.5 -30
s-41.333 -15 -70 -15c-16 0 -32.667 3 -50 9s-32 15.833 -44 29.5s-18 32.5 -18 56.5c0 17.333 4.16699 33.166 12.5 47.499s18.833 26.833 31.5 37.5h-311v563h426v-119h-289v-103h215v-112h-215v-118z" />
    <glyph glyph-name="eogonek" unicode="&#x119;" horiz-adv-x="474" 
d="M235 -10c-50 0 -90.333 9.99805 -121 29.998s-53.167 45.833 -67.5 77.5s-22.166 64.834 -23.499 99.501c-1.33301 45.333 6.66699 84.5 24 117.5s41.833 58.333 73.5 76s68.167 26.5 109.5 26.5c39.333 0 74.5 -8.16699 105.5 -24.5s55.333 -39.5 73 -69.5
s26.5 -66 26.5 -108v-26h-280c0 -29.333 7.16699 -50.666 21.5 -63.999s32.833 -20 55.5 -20c19.333 0 34.833 4.5 46.5 13.5s18.5 20.5 20.5 34.5h135c-2 -29.333 -10.667 -56.5 -26 -81.5s-37.333 -44.833 -66 -59.5s-64.334 -22 -107.001 -22zM157 244.998h138.001
l-0.5 9c-0.333008 6 -2.5 13 -6.5 21s-10.667 15 -20 21s-23 9 -41 9s-32 -3 -42 -9s-16.833 -13 -20.5 -21s-5.83398 -15 -6.50098 -21zM254.001 -181.002c-16 0 -32.6621 3.00098 -49.9951 9.00098s-32 15.833 -44 29.5s-18 32.5 -18 56.5
c0 20.667 5.66699 39.167 17 55.5s25.166 30.166 41.499 41.499s32.666 20.833 48.999 28.5s30.166 13.167 41.499 16.5l17 5v-62l-10 -4c-6.66699 -2.66699 -14.334 -6.5 -23.001 -11.5s-16.334 -11.167 -23.001 -18.5s-10 -16 -10 -26c0 -14.667 8.33301 -22 25 -22
c11.333 0 20.833 4.33301 28.5 13l11.5 13l71 -64l-13.5 -15c-9 -10 -22.5 -20 -40.5 -30s-41.333 -15 -70 -15z" />
    <glyph glyph-name="Ecaron" unicode="&#x11a;" horiz-adv-x="523" 
d="M187 111h300v-111h-437v563h426v-119h-289v-103h215v-112h-215v-118zM85 754h143l32 -79l35 79h139l-145 -136h-58z" />
    <glyph glyph-name="ecaron" unicode="&#x11b;" horiz-adv-x="474" 
d="M235 -10c-50 0 -90.333 9.99805 -121 29.998s-53.167 45.833 -67.5 77.5s-22.166 64.834 -23.499 99.501c-1.33301 45.333 6.66699 84.5 24 117.5s41.833 58.333 73.5 76s68.167 26.5 109.5 26.5c39.333 0 74.5 -8.16699 105.5 -24.5s55.333 -39.5 73 -69.5
s26.5 -66 26.5 -108v-26h-280c0 -29.333 7.16699 -50.666 21.5 -63.999s32.833 -20 55.5 -20c19.333 0 34.833 4.5 46.5 13.5s18.5 20.5 20.5 34.5h135c-2 -29.333 -10.667 -56.5 -26 -81.5s-37.333 -44.833 -66 -59.5s-64.334 -22 -107.001 -22zM157 244.998h138.001
l-0.5 9c-0.333008 6 -2.5 13 -6.5 21s-10.667 15 -20 21s-23 9 -41 9s-32 -3 -42 -9s-16.833 -13 -20.5 -21s-5.83398 -15 -6.50098 -21zM50.001 600.998h143l32 -58l35 58h139v-19l-145 -117h-58l-146 118v18z" />
    <glyph glyph-name="Gbreve" unicode="&#x11e;" horiz-adv-x="636" 
d="M290 -10c-55.333 0 -104.003 10.833 -146.003 32.5s-74.167 53.834 -96.5 96.501s-32.833 95.667 -31.5 159c2 64 15.833 118 41.5 162s60.5 77.167 104.5 99.5s93.667 33.5 149 33.5c82.667 0 144.834 -16.667 186.501 -50s69.834 -82 84.501 -146l-135 -21
c-5.33301 23.333 -15.5 41.166 -30.5 53.499s-32 20.833 -51 25.5s-37.167 7 -54.5 7c-56 0 -96.333 -14.5 -121 -43.5s-36.667 -65.5 -36 -109.5c0 -54 15.167 -94.667 45.5 -122s73.833 -41 130.5 -41c16.667 0 34 1.83301 52 5.5s34.667 10.167 50 19.5s27 23 35 41h-91
v100h217v-292h-93l-30 72h-2c-12.667 -22.667 -34.167 -42 -64.5 -58s-68.166 -24 -113.499 -24zM310.997 625c-46.667 0 -82.833 10.667 -108.5 32s-38.5 50.333 -38.5 87h97c0 -16.667 4.66699 -28.5 14 -35.5s21.333 -10.5 36 -10.5c15.333 0 27.333 3.33301 36 10
s13 18.667 13 36h97c0 -36.667 -12.5 -65.667 -37.5 -87s-61.167 -32 -108.5 -32z" />
    <glyph glyph-name="gbreve" unicode="&#x11f;" horiz-adv-x="476" 
d="M260 461c-46.667 0 -82.833 10.667 -108.5 32s-38.5 50.333 -38.5 87h97c0 -16.667 4.66699 -28.5 14 -35.5s21.333 -10.5 36 -10.5c15.333 0 27.333 3.33301 36 10s13 18.667 13 36h97c0 -36.667 -12.5 -65.667 -37.5 -87s-61.167 -32 -108.5 -32zM165.001 -199v132.002
h157v123h-2l-6.5 -10c-4.33301 -6.66699 -11.166 -14.334 -20.499 -23.001s-22 -16.334 -38 -23.001s-36 -10 -60 -10c-41.333 0 -74 8.5 -98 25.5s-41 41.167 -51 72.5s-15 68.333 -15 111c0 68.667 12 121.667 36 159s66.667 56 128 56
c25.333 0 46.166 -3.83301 62.499 -11.5s29 -16.5 38 -26.5s15.333 -18.833 19 -26.5l5.5 -11.5h2v76h144v-414c0 -51.333 -6.83301 -91.5 -20.5 -120.5s-34 -49.333 -61 -61s-60.5 -17.5 -100.5 -17.5h-119zM244.001 105.002c24 0 41.5 4.5 52.5 13.5s18 20.667 21 35
s4.5 29.5 4.5 45.5s-1.5 31.167 -4.5 45.5s-10 25.833 -21 34.5s-28.5 13 -52.5 13c-23.333 0 -40.666 -4.33301 -51.999 -13s-18.5 -20.167 -21.5 -34.5s-4.5 -29.5 -4.5 -45.5s1.5 -31.167 4.5 -45.5s10.167 -26 21.5 -35s28.666 -13.5 51.999 -13.5z" />
    <glyph glyph-name="Gdotaccent" unicode="&#x120;" horiz-adv-x="636" 
d="M290 -10c-55.333 0 -104.003 10.833 -146.003 32.5s-74.167 53.834 -96.5 96.501s-32.833 95.667 -31.5 159c2 64 15.833 118 41.5 162s60.5 77.167 104.5 99.5s93.667 33.5 149 33.5c82.667 0 144.834 -16.667 186.501 -50s69.834 -82 84.501 -146l-135 -21
c-5.33301 23.333 -15.5 41.166 -30.5 53.499s-32 20.833 -51 25.5s-37.167 7 -54.5 7c-56 0 -96.333 -14.5 -121 -43.5s-36.667 -65.5 -36 -109.5c0 -54 15.167 -94.667 45.5 -122s73.833 -41 130.5 -41c16.667 0 34 1.83301 52 5.5s34.667 10.167 50 19.5s27 23 35 41h-91
v100h217v-292h-93l-30 72h-2c-12.667 -22.667 -34.167 -42 -64.5 -58s-68.166 -24 -113.499 -24zM311.997 625c-30 0 -50.167 7.5 -60.5 22.5s-15.5 32.833 -15.5 53.5c0 19.333 5.16699 36.5 15.5 51.5s30.5 22.5 60.5 22.5s49.833 -7.5 59.5 -22.5
s14.5 -32.167 14.5 -51.5c0 -20.667 -4.83301 -38.5 -14.5 -53.5s-29.5 -22.5 -59.5 -22.5z" />
    <glyph glyph-name="gdotaccent" unicode="&#x121;" horiz-adv-x="476" 
d="M250 456c-30 0 -50.167 7.5 -60.5 22.5s-15.5 32.833 -15.5 53.5c0 19.333 5.16699 36.5 15.5 51.5s30.5 22.5 60.5 22.5s49.833 -7.5 59.5 -22.5s14.5 -32.167 14.5 -51.5c0 -20.667 -4.83301 -38.5 -14.5 -53.5s-29.5 -22.5 -59.5 -22.5zM165 -199v132.002h157v123h-2
l-6.5 -10c-4.33301 -6.66699 -11.166 -14.334 -20.499 -23.001s-22 -16.334 -38 -23.001s-36 -10 -60 -10c-41.333 0 -74 8.5 -98 25.5s-41 41.167 -51 72.5s-15 68.333 -15 111c0 68.667 12 121.667 36 159s66.667 56 128 56c25.333 0 46.166 -3.83301 62.499 -11.5
s29 -16.5 38 -26.5s15.333 -18.833 19 -26.5l5.5 -11.5h2v76h144v-414c0 -51.333 -6.83301 -91.5 -20.5 -120.5s-34 -49.333 -61 -61s-60.5 -17.5 -100.5 -17.5h-119zM244 105.002c24 0 41.5 4.5 52.5 13.5s18 20.667 21 35s4.5 29.5 4.5 45.5s-1.5 31.167 -4.5 45.5
s-10 25.833 -21 34.5s-28.5 13 -52.5 13c-23.333 0 -40.666 -4.33301 -51.999 -13s-18.5 -20.167 -21.5 -34.5s-4.5 -29.5 -4.5 -45.5s1.5 -31.167 4.5 -45.5s10.167 -26 21.5 -35s28.666 -13.5 51.999 -13.5z" />
    <glyph glyph-name="uni0122" unicode="&#x122;" horiz-adv-x="636" 
d="M290 -10c-55.333 0 -104.003 10.833 -146.003 32.5s-74.167 53.834 -96.5 96.501s-32.833 95.667 -31.5 159c2 64 15.833 118 41.5 162s60.5 77.167 104.5 99.5s93.667 33.5 149 33.5c82.667 0 144.834 -16.667 186.501 -50s69.834 -82 84.501 -146l-135 -21
c-5.33301 23.333 -15.5 41.166 -30.5 53.499s-32 20.833 -51 25.5s-37.167 7 -54.5 7c-56 0 -96.333 -14.5 -121 -43.5s-36.667 -65.5 -36 -109.5c0 -54 15.167 -94.667 45.5 -122s73.833 -41 130.5 -41c16.667 0 34 1.83301 52 5.5s34.667 10.167 50 19.5s27 23 35 41h-91
v100h217v-292h-93l-30 72h-2c-12.667 -22.667 -34.167 -42 -64.5 -58s-68.166 -24 -113.499 -24zM243.997 -296l-0.000976562 85h31c18 0 31.333 1.66699 40 5s13 12 13 26c-32 0 -54 7 -66 21s-18 30.667 -18 50c0 20 5.66699 36.833 17 50.5s30.333 20.5 57 20.5
c20 0 36.667 -6.16699 50 -18.5s20 -38.5 20 -78.5c0 -27.333 -3.83301 -53.333 -11.5 -78s-19.667 -44.667 -36 -60s-38.166 -23 -65.499 -23h-31z" />
    <glyph glyph-name="uni0123" unicode="&#x123;" horiz-adv-x="476" 
d="M272 461h-62v17l39 97h115v-22zM165 -199v132.002h157v123h-2l-6.5 -10c-4.33301 -6.66699 -11.166 -14.334 -20.499 -23.001s-22 -16.334 -38 -23.001s-36 -10 -60 -10c-41.333 0 -74 8.5 -98 25.5s-41 41.167 -51 72.5s-15 68.333 -15 111c0 68.667 12 121.667 36 159
s66.667 56 128 56c25.333 0 46.166 -3.83301 62.499 -11.5s29 -16.5 38 -26.5s15.333 -18.833 19 -26.5l5.5 -11.5h2v76h144v-414c0 -51.333 -6.83301 -91.5 -20.5 -120.5s-34 -49.333 -61 -61s-60.5 -17.5 -100.5 -17.5h-119zM244 105.002c24 0 41.5 4.5 52.5 13.5
s18 20.667 21 35s4.5 29.5 4.5 45.5s-1.5 31.167 -4.5 45.5s-10 25.833 -21 34.5s-28.5 13 -52.5 13c-23.333 0 -40.666 -4.33301 -51.999 -13s-18.5 -20.167 -21.5 -34.5s-4.5 -29.5 -4.5 -45.5s1.5 -31.167 4.5 -45.5s10.167 -26 21.5 -35s28.666 -13.5 51.999 -13.5z" />
    <glyph glyph-name="Hbar" unicode="&#x126;" 
d="M50 0v404h-46v96h46v63h140v-63h215v63h140v-63h46v-96h-46v-404h-140v230h-215v-230h-140zM190 336h215v68h-215v-68z" />
    <glyph glyph-name="hbar" unicode="&#x127;" horiz-adv-x="491" 
d="M45 0l-0.000976562 445.997h-50v80h50v37h140v-37h125v-80h-125v-151c0.666992 4.66699 3.33398 13.334 8.00098 26.001s11.5 26.5 20.5 41.5s21 27.833 36 38.5s33.5 16 55.5 16c32.667 0 58.667 -6.66699 78 -20s33.5 -30.666 42.5 -51.999
s14.833 -44.166 17.5 -68.499s3.66699 -48 3 -71s-1 -42.833 -1 -59.5v-146h-140v131v81.5c0 25 -4.33301 45 -13 60s-26 22.5 -52 22.5c-20.667 0 -35 -11.833 -43 -35.5s-12 -60.5 -12 -110.5v-149h-140z" />
    <glyph glyph-name="Itilde" unicode="&#x128;" horiz-adv-x="415" 
d="M347 119v-119h-284v119h73v325h-73v119h284v-119h-72v-325h72zM264 628c-18.667 0 -33.335 2.99902 -44.002 8.99902s-19.334 12.667 -26.001 20l-18 20c-5.33301 6 -12.666 9 -21.999 9c-10.667 0 -16.834 -4.5 -18.501 -13.5s-2.5 -22.167 -2.5 -39.5h-78
c0 8 0.166992 19.167 0.5 33.5s2.83301 29 7.5 44s13.334 27.833 26.001 38.5s31.334 16 56.001 16c18.667 0 33.5 -3 44.5 -9s19.833 -12.667 26.5 -20l19 -20c6 -6 13 -9 21 -9c10 0 15.833 4.83301 17.5 14.5s2.5 22.834 2.5 39.501h78c0 -12.667 -0.5 -26.5 -1.5 -41.5
s-4.16699 -29.5 -9.5 -43.5s-14.166 -25.5 -26.499 -34.5s-29.833 -13.5 -52.5 -13.5z" />
    <glyph glyph-name="itilde" unicode="&#x129;" horiz-adv-x="256" 
d="M180 471c-18.667 0 -33.335 2.99902 -44.002 8.99902s-19.334 12.667 -26.001 20l-18 20c-5.33301 6 -12.666 9 -21.999 9c-10.667 0 -16.834 -4.5 -18.501 -13.5s-2.5 -22.167 -2.5 -39.5h-78c0 8 0.166992 19.167 0.5 33.5s2.83301 29 7.5 44
s13.334 27.833 26.001 38.5s31.334 16 56.001 16c18.667 0 33.5 -3 44.5 -9s19.833 -12.667 26.5 -20l19 -20c6 -6 13 -9 21 -9c10 0 15.833 4.83301 17.5 14.5s2.5 22.834 2.5 39.501h78c0 -12.667 -0.5 -26.5 -1.5 -41.5s-4.16699 -29.5 -9.5 -43.5
s-14.166 -25.5 -26.499 -34.5s-29.833 -13.5 -52.5 -13.5zM53.999 -0.000976562v417h140v-417h-140z" />
    <glyph glyph-name="Imacron" unicode="&#x12a;" horiz-adv-x="415" 
d="M347 119v-119h-284v119h73v325h-73v119h284v-119h-72v-325h72zM52 626v94h302v-94h-302z" />
    <glyph glyph-name="imacron" unicode="&#x12b;" horiz-adv-x="260" 
d="M-35 480v94h302v-94h-302zM46 0v417h140v-417h-140z" />
    <glyph glyph-name="Iogonek" unicode="&#x12e;" horiz-adv-x="415" 
d="M210 -180c-16 0 -32.667 3.00098 -50 9.00098s-32 15.833 -44 29.5s-18 32.5 -18 56.5c0 17.333 4.16699 33.166 12.5 47.499s18.833 26.833 31.5 37.5h-79v119h73v325h-73v119h284v-119h-72v-325h72v-119h-79l-10.5 -4c-7 -2.66699 -15.167 -6.5 -24.5 -11.5
s-17.5 -11.167 -24.5 -18.5s-10.5 -16 -10.5 -26c0 -14.667 8.33301 -22 25 -22c11.333 0 20.833 4.33301 28.5 13l11.5 13l71 -64l-13.5 -15c-9 -10 -22.5 -20 -40.5 -30s-41.333 -15 -70 -15z" />
    <glyph glyph-name="iogonek" unicode="&#x12f;" horiz-adv-x="266" 
d="M120 430c-30 0 -49.999 7.16699 -59.999 21.5s-15 31.833 -15 52.5c0 19.333 5.16699 36 15.5 50s30.166 21 59.499 21c28.667 0 48 -7 58 -21s15 -30.667 15 -50c0 -20.667 -5 -38.167 -15 -52.5s-29.333 -21.5 -58 -21.5zM50.001 0l-0.000976562 417.001l17.5 -7
c11.667 -4.66699 28.834 -7 51.501 -7c23.333 0 41 2.33301 53 7l18 7v-417l-10.5 -4c-7 -2.66699 -15.167 -6.5 -24.5 -11.5s-17.5 -11.167 -24.5 -18.5s-10.5 -16 -10.5 -26c0 -14.667 8.33301 -22 25 -22c11.333 0 20.833 4.33301 28.5 13l11.5 13l71 -64l-13.5 -15
c-9 -10 -22.5 -20 -40.5 -30s-41.333 -15 -70 -15c-16 0 -32.667 3 -50 9s-32 15.833 -44 29.5s-18 32.5 -18 56.5c0 17.333 4.16699 33.166 12.5 47.499s18.833 26.833 31.5 37.5h-14z" />
    <glyph glyph-name="Idotaccent" unicode="&#x130;" horiz-adv-x="415" 
d="M347 119v-119h-284v119h73v325h-73v119h284v-119h-72v-325h72zM121 670c-30 0 -50.167 7.5 -60.5 22.5s-15.5 32.833 -15.5 53.5c0 19.333 5.16699 36.5 15.5 51.5s30.5 22.5 60.5 22.5s49.833 -7.5 59.5 -22.5s14.5 -32.167 14.5 -51.5
c0 -20.667 -4.83301 -38.5 -14.5 -53.5s-29.5 -22.5 -59.5 -22.5z" />
    <glyph glyph-name="dotlessi" unicode="&#x131;" horiz-adv-x="230" 
d="M45 0v417h140v-417h-140z" />
    <glyph glyph-name="uni0136" unicode="&#x136;" 
d="M60 0v563h139v-239l212 239h196l-227 -218l229 -345h-163l-168 247l-79 -76v-171h-139zM246 -296l-0.000976562 85h31c18 0 31.333 1.66699 40 5s13 12 13 26c-32 0 -54 7 -66 21s-18 30.667 -18 50c0 20 5.66699 36.833 17 50.5s30.333 20.5 57 20.5
c20 0 36.667 -6.16699 50 -18.5s20 -38.5 20 -78.5c0 -27.333 -3.83301 -53.333 -11.5 -78s-19.667 -44.667 -36 -60s-38.166 -23 -65.499 -23h-31z" />
    <glyph glyph-name="uni0137" unicode="&#x137;" horiz-adv-x="483" 
d="M190 0h-140v563h140v-311l128 165h168l-160 -172l163 -244h-165l-95 139l-39 -42v-98zM178 -296l-0.000976562 85h31c18 0 31.333 1.66699 40 5s13 12 13 26c-32 0 -54 7 -66 21s-18 30.667 -18 50c0 20 5.66699 36.833 17 50.5s30.333 20.5 57 20.5
c20 0 36.667 -6.16699 50 -18.5s20 -38.5 20 -78.5c0 -27.333 -3.83301 -53.333 -11.5 -78s-19.667 -44.667 -36 -60s-38.166 -23 -65.499 -23h-31z" />
    <glyph glyph-name="Lacute" unicode="&#x139;" horiz-adv-x="473" 
d="M60 0v563h140v-444h243v-119h-383zM148 610h-62v17l39 97h115v-22z" />
    <glyph glyph-name="lacute" unicode="&#x13a;" horiz-adv-x="226" 
d="M45 0v563h136v-563h-136zM139 632h-62v17l39 97h115v-22z" />
    <glyph glyph-name="uni013B" unicode="&#x13b;" horiz-adv-x="473" 
d="M60 0v563h140v-444h243v-119h-383zM185 -296l-0.000976562 85h31c18 0 31.333 1.66699 40 5s13 12 13 26c-32 0 -54 7 -66 21s-18 30.667 -18 50c0 20 5.66699 36.833 17 50.5s30.333 20.5 57 20.5c20 0 36.667 -6.16699 50 -18.5s20 -38.5 20 -78.5
c0 -27.333 -3.83301 -53.333 -11.5 -78s-19.667 -44.667 -36 -60s-38.166 -23 -65.499 -23h-31z" />
    <glyph glyph-name="uni013C" unicode="&#x13c;" horiz-adv-x="285" 
d="M74 -296l-0.000976562 85h31c18 0 31.333 1.66699 40 5s13 12 13 26c-32 0 -54 7 -66 21s-18 30.667 -18 50c0 20 5.66699 36.833 17 50.5s30.333 20.5 57 20.5c20 0 36.667 -6.16699 50 -18.5s20 -38.5 20 -78.5c0 -27.333 -3.83301 -53.333 -11.5 -78
s-19.667 -44.667 -36 -60s-38.166 -23 -65.499 -23h-31zM44.999 0v563h136v-563h-136z" />
    <glyph glyph-name="Lcaron" unicode="&#x13d;" horiz-adv-x="473" 
d="M60 0v563h140v-444h243v-119h-383zM-44 754h143l32 -79l35 79h139l-145 -136h-58z" />
    <glyph glyph-name="lcaron" unicode="&#x13e;" horiz-adv-x="315" 
d="M233 389l27 174h130l-76 -174h-81zM45 0v563h136v-563h-136z" />
    <glyph glyph-name="Lslash" unicode="&#x141;" horiz-adv-x="473" 
d="M60 0v186l-59 -26v120l59 26v257h140v-195l103 46v-120l-103 -46v-129h243v-119h-383z" />
    <glyph glyph-name="lslash" unicode="&#x142;" horiz-adv-x="285" 
d="M45 0v188l-54 -28v120l54 28v255h136v-186l72 37v-120l-72 -37v-257h-136z" />
    <glyph glyph-name="Nacute" unicode="&#x143;" horiz-adv-x="630" 
d="M429 563h146v-563h-268l-105 502h-2v-502h-145v563h248l124 -502h2v502zM305 610h-62v17l39 97h115v-22z" />
    <glyph glyph-name="nacute" unicode="&#x144;" horiz-adv-x="486" 
d="M35 0v412h121l23 -74h2l5.5 11.5c3.66699 7.66699 10.167 16.5 19.5 26.5s22.5 18.833 39.5 26.5s38.833 11.5 65.5 11.5c30 0 54.167 -5.33301 72.5 -16s32.333 -24.5 42 -41.5s16.167 -35.333 19.5 -55s5.16602 -38.667 5.49902 -57s0.5 -33.833 0.5 -46.5v-198h-136
v199c0 14.667 -1.16699 29 -3.5 43s-8.16602 25.833 -17.499 35.5s-25.333 14.5 -48 14.5c-22 0 -37.667 -4.83301 -47 -14.5s-15 -21.5 -17 -35.5s-3 -28.333 -3 -43v-199h-144zM273 461h-62v17l39 97h115v-22z" />
    <glyph glyph-name="uni0145" unicode="&#x145;" horiz-adv-x="630" 
d="M429 563h146v-563h-268l-105 502h-2v-502h-145v563h248l124 -502h2v502zM248 -296l-0.000976562 85h31c18 0 31.333 1.66699 40 5s13 12 13 26c-32 0 -54 7 -66 21s-18 30.667 -18 50c0 20 5.66699 36.833 17 50.5s30.333 20.5 57 20.5c20 0 36.667 -6.16699 50 -18.5
s20 -38.5 20 -78.5c0 -27.333 -3.83301 -53.333 -11.5 -78s-19.667 -44.667 -36 -60s-38.166 -23 -65.499 -23h-31z" />
    <glyph glyph-name="uni0146" unicode="&#x146;" horiz-adv-x="486" 
d="M35 0v412h121l23 -74h2l5.5 11.5c3.66699 7.66699 10.167 16.5 19.5 26.5s22.5 18.833 39.5 26.5s38.833 11.5 65.5 11.5c30 0 54.167 -5.33301 72.5 -16s32.333 -24.5 42 -41.5s16.167 -35.333 19.5 -55s5.16602 -38.667 5.49902 -57s0.5 -33.833 0.5 -46.5v-198h-136
v199c0 14.667 -1.16699 29 -3.5 43s-8.16602 25.833 -17.499 35.5s-25.333 14.5 -48 14.5c-22 0 -37.667 -4.83301 -47 -14.5s-15 -21.5 -17 -35.5s-3 -28.333 -3 -43v-199h-144zM178 -296l-0.000976562 85h31c18 0 31.333 1.66699 40 5s13 12 13 26c-32 0 -54 7 -66 21
s-18 30.667 -18 50c0 20 5.66699 36.833 17 50.5s30.333 20.5 57 20.5c20 0 36.667 -6.16699 50 -18.5s20 -38.5 20 -78.5c0 -27.333 -3.83301 -53.333 -11.5 -78s-19.667 -44.667 -36 -60s-38.166 -23 -65.499 -23h-31z" />
    <glyph glyph-name="Ncaron" unicode="&#x147;" 
d="M429 563h146v-563h-268l-105 502h-2v-502h-145v563h248l124 -502h2v502zM143 754h143l32 -79l35 79h139l-145 -136h-58z" />
    <glyph glyph-name="ncaron" unicode="&#x148;" horiz-adv-x="506" 
d="M35 0v412h121l23 -74h2l5.5 11.5c3.66699 7.66699 10.167 16.5 19.5 26.5s22.5 18.833 39.5 26.5s38.833 11.5 65.5 11.5c30 0 54.167 -5.33301 72.5 -16s32.333 -24.5 42 -41.5s16.167 -35.333 19.5 -55s5.16602 -38.667 5.49902 -57s0.5 -33.833 0.5 -46.5v-198h-136
v199c0 14.667 -1.16699 29 -3.5 43s-8.16602 25.833 -17.499 35.5s-25.333 14.5 -48 14.5c-22 0 -37.667 -4.83301 -47 -14.5s-15 -21.5 -17 -35.5s-3 -28.333 -3 -43v-199h-144zM79 597h143l32 -79l35 79h139l-145 -136h-58z" />
    <glyph glyph-name="Eng" unicode="&#x14a;" 
d="M418 -207c-26.667 0 -49.1689 4.33398 -67.502 13.001s-32.166 17.167 -41.499 25.5l-14 12.5l75 93l9.5 -8c6.33301 -5.33301 14.833 -8 25.5 -8c6.66699 0 13.334 2.5 20.001 7.5s10 14.5 10 28.5v43h-128l-105 502h-2v-502h-145v563h248l124 -502h2v502h146v-628
c0 -24 -5.33301 -46.833 -16 -68.5s-27.5 -39.334 -50.5 -53.001s-53.167 -20.5 -90.5 -20.5z" />
    <glyph glyph-name="eng" unicode="&#x14b;" horiz-adv-x="506" 
d="M35 0l-0.00195312 412.001h121l23 -74h2l5.5 11.5c3.66699 7.66699 10.167 16.5 19.5 26.5s22.5 18.833 39.5 26.5s38.833 11.5 65.5 11.5c30 0 54.167 -5.33301 72.5 -16s32.333 -24.5 42 -41.5s16.167 -35.333 19.5 -55s5.16602 -38.667 5.49902 -57
s0.5 -33.833 0.5 -46.5v-189h10v-65c0 -24 -5.33301 -46.833 -16 -68.5s-27.5 -39.334 -50.5 -53.001s-53.167 -20.5 -90.5 -20.5c-26.667 0 -49.167 4.33301 -67.5 13s-32.166 17.167 -41.499 25.5l-14 12.5l75 93l9.5 -8c6.33301 -5.33301 14.833 -8 25.5 -8
c6.66699 0 13.334 2.5 20.001 7.5s10 14.5 10 28.5v34h-6v199c0 14.667 -1.16699 29 -3.5 43s-8.16602 25.833 -17.499 35.5s-25.333 14.5 -48 14.5c-22 0 -37.667 -4.83301 -47 -14.5s-15 -21.5 -17 -35.5s-3 -28.333 -3 -43v-199h-144z" />
    <glyph glyph-name="Omacron" unicode="&#x14c;" 
d="M302 -14c-93.333 0 -164.667 26.5 -214 79.5s-74 124.5 -74 214.5c0 59.333 10.667 110.833 32 154.5s53.333 77.667 96 102s96 36.5 160 36.5c93.333 0 164.333 -26.5 213 -79.5s73 -124.167 73 -213.5c0 -58 -10.833 -109.167 -32.5 -153.5s-53.667 -78.833 -96 -103.5
s-94.833 -37 -157.5 -37zM299.999 121c34 0 62.168 7.16797 84.501 21.501s39 33.666 50 57.999s16.5 50.833 16.5 79.5c0 29.333 -5.5 56.333 -16.5 81s-27.667 44.334 -50 59.001s-50.5 22 -84.5 22c-48.667 0 -85.834 -15.333 -111.501 -46s-38.5 -69.334 -38.5 -116.001
c0 -28 5.5 -54.167 16.5 -78.5s27.5 -43.833 49.5 -58.5s50 -22 84 -22zM162 626.001v94h302v-94h-302z" />
    <glyph glyph-name="omacron" unicode="&#x14d;" horiz-adv-x="479" 
d="M239 -10c-48.667 0 -89.333 9.16602 -122 27.499s-57 43.5 -73 75.5s-24 68.333 -24 109c-0.666992 41.333 7 77.833 23 109.5s40.5 56.834 73.5 75.501s73.833 28 122.5 28c71.333 0 125.5 -19.5 162.5 -58.5s55.5 -90.5 55.5 -154.5c0 -40 -7.83301 -76 -23.5 -108
s-39.5 -57.333 -71.5 -76s-73 -28 -123 -28zM239.001 105.999c24.667 0 43 5 55 15s19.833 22.833 23.5 38.5s5.5 31.5 5.5 47.5c0 16.667 -1.83301 32.667 -5.5 48s-11.5 28.166 -23.5 38.499s-30.333 15.5 -55 15.5s-43.167 -5.16699 -55.5 -15.5
s-20.333 -23.166 -24 -38.499s-5.5 -31.333 -5.5 -48c0 -16 1.83301 -31.833 5.5 -47.5s11.667 -28.5 24 -38.5s30.833 -15 55.5 -15zM81.001 479.999v94h302v-94h-302z" />
    <glyph glyph-name="Ohungarumlaut" unicode="&#x150;" 
d="M154 640l67 158l107 -53l-112 -135zM355 640l67 158l107 -53l-112 -135zM302 -14c-93.333 0 -164.667 26.5 -214 79.5s-74 124.5 -74 214.5c0 59.333 10.667 110.833 32 154.5s53.333 77.667 96 102s96 36.5 160 36.5c93.333 0 164.333 -26.5 213 -79.5
s73 -124.167 73 -213.5c0 -58 -10.833 -109.167 -32.5 -153.5s-53.667 -78.833 -96 -103.5s-94.833 -37 -157.5 -37zM299.999 121c34 0 62.168 7.16797 84.501 21.501s39 33.666 50 57.999s16.5 50.833 16.5 79.5c0 29.333 -5.5 56.333 -16.5 81s-27.667 44.334 -50 59.001
s-50.5 22 -84.5 22c-48.667 0 -85.834 -15.333 -111.501 -46s-38.5 -69.334 -38.5 -116.001c0 -28 5.5 -54.167 16.5 -78.5s27.5 -43.833 49.5 -58.5s50 -22 84 -22z" />
    <glyph glyph-name="ohungarumlaut" unicode="&#x151;" horiz-adv-x="499" 
d="M94 491l67 158l107 -53l-112 -135zM295 491l67 158l107 -53l-112 -135zM239 -10c-48.667 0 -89.333 9.16602 -122 27.499s-57 43.5 -73 75.5s-24 68.333 -24 109c-0.666992 41.333 7 77.833 23 109.5s40.5 56.834 73.5 75.501s73.833 28 122.5 28
c71.333 0 125.5 -19.5 162.5 -58.5s55.5 -90.5 55.5 -154.5c0 -40 -7.83301 -76 -23.5 -108s-39.5 -57.333 -71.5 -76s-73 -28 -123 -28zM239.001 105.999c24.667 0 43 5 55 15s19.833 22.833 23.5 38.5s5.5 31.5 5.5 47.5c0 16.667 -1.83301 32.667 -5.5 48
s-11.5 28.166 -23.5 38.499s-30.333 15.5 -55 15.5s-43.167 -5.16699 -55.5 -15.5s-20.333 -23.166 -24 -38.499s-5.5 -31.333 -5.5 -48c0 -16 1.83301 -31.833 5.5 -47.5s11.667 -28.5 24 -38.5s30.833 -15 55.5 -15z" />
    <glyph glyph-name="OE" unicode="&#x152;" horiz-adv-x="858" 
d="M385 0c-72 0.666992 -133.667 9.33105 -185 25.998s-90.833 45.334 -118.5 86.001s-41.5 97.334 -41.5 170.001c0 92 30.5 161.5 91.5 208.5s145.5 71.167 253.5 72.5v0h426v-119h-288v-103h214v-112h-214v-118h299v-111h-437zM361 113.997h23.999v329h-24
c-54 0 -96.167 -13.333 -126.5 -40s-45.5 -66.667 -45.5 -120c0 -46 6.83301 -81.167 20.5 -105.5s33.334 -41 59.001 -50s56.5 -13.5 92.5 -13.5z" />
    <glyph glyph-name="oe" unicode="&#x153;" horiz-adv-x="754" 
d="M231 -10c-48.667 0 -89.335 9.16699 -122.002 27.5s-57 43.5 -73 75.5s-24 68.333 -24 109c-0.666992 41.333 7 77.833 23 109.5s40.5 56.834 73.5 75.501s73.833 28 122.5 28c32 0 60.5 -4 85.5 -12s46.5 -19.667 64.5 -35c17.333 14.667 38.5 26.5 63.5 35.5
s54.833 13.5 89.5 13.5c36 0 68.833 -8.83301 98.5 -26.5s53.334 -41.667 71.001 -72s25.834 -64.833 24.501 -103.5v-26h-278c0 -26.667 7.5 -46.5 22.5 -59.5s34.833 -19.5 59.5 -19.5c21.333 0 36.833 4.66699 46.5 14s16.5 21.666 20.5 36.999l133 -27
c-8 -25.333 -20 -49 -36 -71s-37.333 -39.667 -64 -53s-59.667 -20 -99 -20c-33.333 0 -62.5 4.33301 -87.5 13s-45.833 20.334 -62.5 35.001c-18 -14.667 -39.667 -26.334 -65 -35.001s-54.333 -13 -87 -13zM449.999 257h138.002l0.5 9.5
c0.333008 6.33301 -0.833984 13.833 -3.50098 22.5s-8.33398 16.167 -17.001 22.5s-22 9.5 -40 9.5c-20 0 -35.333 -3.16699 -46 -9.5s-18.167 -13.833 -22.5 -22.5s-7 -16.167 -8 -22.5zM231.001 106c24.667 0 43 5 55 15s19.833 22.833 23.5 38.5s5.5 31.5 5.5 47.5
c0 16.667 -1.83301 32.667 -5.5 48s-11.5 28.166 -23.5 38.499s-30.333 15.5 -55 15.5s-43.167 -5.16699 -55.5 -15.5s-20.333 -23.166 -24 -38.499s-5.5 -31.333 -5.5 -48c0 -16 1.83301 -31.833 5.5 -47.5s11.667 -28.5 24 -38.5s30.833 -15 55.5 -15z" />
    <glyph glyph-name="Racute" unicode="&#x154;" horiz-adv-x="578" 
d="M50 0l-0.000976562 562.998h229c73.333 0 131.333 -13 174 -39s64 -69.667 64 -131c0 -50.667 -11.167 -90 -33.5 -118s-52.5 -42 -90.5 -42c18.667 0 32.834 -4.16699 42.501 -12.5s16.667 -19 21 -32s7.83301 -26.167 10.5 -39.5s6.33398 -25.166 11.001 -35.499
s12.167 -17 22.5 -20s25.166 -0.5 44.499 7.5v-76c-18.667 -16 -39.334 -26.5 -62.001 -31.5s-44.167 -3.66699 -64.5 4s-37.166 22.334 -50.499 44.001s-20 51.167 -20 88.5c0 16 -1.16699 30.5 -3.5 43.5s-8.5 23.833 -18.5 32.5s-25.667 14.5 -47 17.5
s-51 2.83301 -89 -0.5v-223h-140zM189.999 320.998l70 -0.000976562c30.667 0 55.667 0.333008 75 1s33.833 5.16699 43.5 13.5s14.5 23.5 14.5 45.5c0 24.667 -5.83301 41.834 -17.5 51.501s-28.667 15.167 -51 16.5s-49.833 2 -82.5 2h-52v-130zM286.999 609.997h-62v17
l39 97h115v-22z" />
    <glyph glyph-name="racute" unicode="&#x155;" horiz-adv-x="374" 
d="M35 0v414.002h132l9 -118c4 17.333 11.667 35.166 23 53.499s27.666 33.666 48.999 45.999s49.333 18.5 84 18.5h9v-155h-10c-33.333 0 -61.666 -2 -84.999 -6s-41 -12.5 -53 -25.5s-18 -33.833 -18 -62.5v-165h-140zM248 461.002h-62v17l39 97h115v-22z" />
    <glyph glyph-name="uni0156" unicode="&#x156;" horiz-adv-x="578" 
d="M50 0l-0.000976562 562.998h229c73.333 0 131.333 -13 174 -39s64 -69.667 64 -131c0 -50.667 -11.167 -90 -33.5 -118s-52.5 -42 -90.5 -42c18.667 0 32.834 -4.16699 42.501 -12.5s16.667 -19 21 -32s7.83301 -26.167 10.5 -39.5s6.33398 -25.166 11.001 -35.499
s12.167 -17 22.5 -20s25.166 -0.5 44.499 7.5v-76c-18.667 -16 -39.334 -26.5 -62.001 -31.5s-44.167 -3.66699 -64.5 4s-37.166 22.334 -50.499 44.001s-20 51.167 -20 88.5c0 16 -1.16699 30.5 -3.5 43.5s-8.5 23.833 -18.5 32.5s-25.667 14.5 -47 17.5
s-51 2.83301 -89 -0.5v-223h-140zM189.999 320.998l70 -0.000976562c30.667 0 55.667 0.333008 75 1s33.833 5.16699 43.5 13.5s14.5 23.5 14.5 45.5c0 24.667 -5.83301 41.834 -17.5 51.501s-28.667 15.167 -51 16.5s-49.833 2 -82.5 2h-52v-130zM219.999 -296.003
l-0.000976562 85h31c18 0 31.333 1.66699 40 5s13 12 13 26c-32 0 -54 7 -66 21s-18 30.667 -18 50c0 20 5.66699 36.833 17 50.5s30.333 20.5 57 20.5c20 0 36.667 -6.16699 50 -18.5s20 -38.5 20 -78.5c0 -27.333 -3.83301 -53.333 -11.5 -78s-19.667 -44.667 -36 -60
s-38.166 -23 -65.499 -23h-31z" />
    <glyph glyph-name="uni0157" unicode="&#x157;" horiz-adv-x="419" 
d="M55 -296l-0.000976562 85h31c18 0 31.333 1.66699 40 5s13 12 13 26c-32 0 -54 7 -66 21s-18 30.667 -18 50c0 20 5.66699 36.833 17 50.5s30.333 20.5 57 20.5c20 0 36.667 -6.16699 50 -18.5s20 -38.5 20 -78.5c0 -27.333 -3.83301 -53.333 -11.5 -78
s-19.667 -44.667 -36 -60s-38.166 -23 -65.499 -23h-31zM41.999 0v414.002h132l9 -118c4 17.333 11.667 35.166 23 53.499s27.666 33.666 48.999 45.999s49.333 18.5 84 18.5h9v-155h-10c-33.333 0 -61.666 -2 -84.999 -6s-41 -12.5 -53 -25.5s-18 -33.833 -18 -62.5v-165
h-140z" />
    <glyph glyph-name="Rcaron" unicode="&#x158;" 
d="M50 0l-0.000976562 562.998h229c73.333 0 131.333 -13 174 -39s64 -69.667 64 -131c0 -50.667 -11.167 -90 -33.5 -118s-52.5 -42 -90.5 -42c18.667 0 32.834 -4.16699 42.501 -12.5s16.667 -19 21 -32s7.83301 -26.167 10.5 -39.5s6.33398 -25.166 11.001 -35.499
s12.167 -17 22.5 -20s25.166 -0.5 44.499 7.5v-76c-18.667 -16 -39.334 -26.5 -62.001 -31.5s-44.167 -3.66699 -64.5 4s-37.166 22.334 -50.499 44.001s-20 51.167 -20 88.5c0 16 -1.16699 30.5 -3.5 43.5s-8.5 23.833 -18.5 32.5s-25.667 14.5 -47 17.5
s-51 2.83301 -89 -0.5v-223h-140zM189.999 320.998l70 -0.000976562c30.667 0 55.667 0.333008 75 1s33.833 5.16699 43.5 13.5s14.5 23.5 14.5 45.5c0 24.667 -5.83301 41.834 -17.5 51.501s-28.667 15.167 -51 16.5s-49.833 2 -82.5 2h-52v-130zM86.999 753.997h143
l32 -79l35 79h139l-145 -136h-58z" />
    <glyph glyph-name="rcaron" unicode="&#x159;" horiz-adv-x="435" 
d="M35 0v414.002h132l9 -118c4 17.333 11.667 35.166 23 53.499s27.666 33.666 48.999 45.999s49.333 18.5 84 18.5h9v-155h-10c-33.333 0 -61.666 -2 -84.999 -6s-41 -12.5 -53 -25.5s-18 -33.833 -18 -62.5v-165h-140zM56 597.002h143l32 -79l35 79h139l-145 -136h-58z
" />
    <glyph glyph-name="Sacute" unicode="&#x15a;" horiz-adv-x="584" 
d="M282 -10c-32 0 -63.3252 3.66406 -93.9922 10.9971s-58.334 19.166 -83.001 35.499s-44.5 37.5 -59.5 63.5s-22.5 57.333 -22.5 94h140c0 -4 1.5 -10.167 4.5 -18.5s9 -17.166 18 -26.499s22 -17.166 39 -23.499s39.833 -9.5 68.5 -9.5c12.667 0 25.667 1 39 3
s24.666 6.16699 33.999 12.5s14 16.166 14 29.499c0 14 -6.5 25 -19.5 33s-30 14.5 -51 19.5s-44 10.167 -69 15.5s-49.833 12 -74.5 20s-47.167 18.833 -67.5 32.5s-36 31.334 -47 53.001s-15.5 48.834 -13.5 81.501c3.33301 49.333 26.666 87.833 69.999 115.5
s103.666 41.5 180.999 41.5c41.333 0 80.166 -7.33301 116.499 -22s66 -37 89 -67s34.5 -68 34.5 -114h-135c0 20.667 -6.83301 36.167 -20.5 46.5s-30 17.166 -49 20.499s-36.167 5 -51.5 5c-24.667 0 -45.167 -3 -61.5 -9s-24.5 -17.667 -24.5 -35
c0 -15.333 6.66699 -27.166 20 -35.499s30.666 -15 51.999 -20s44.833 -10 70.5 -15s51.167 -11.167 76.5 -18.5s48.166 -17.5 68.499 -30.5s36.333 -30.167 48 -51.5s16.167 -48.666 13.5 -81.999c-3.33301 -48.667 -27.833 -86.667 -73.5 -114s-105.834 -41 -180.501 -41z
M302.008 609.997h-62v17l39 97h115v-22z" />
    <glyph glyph-name="sacute" unicode="&#x15b;" horiz-adv-x="427" 
d="M221 -10c-4.66699 0 -14.5 0.503906 -29.5 1.50391s-32 4 -51 9s-37.5 13.167 -55.5 24.5s-32.833 26.833 -44.5 46.5s-17.5 45.167 -17.5 76.5h128c0 -0.666992 0.166992 -4 0.5 -10s2.33301 -12.667 6 -20s10 -13.833 19 -19.5s22.5 -8.5 40.5 -8.5
c22.667 0 36.667 4 42 12s8 14 8 18c0 10 -5.66699 18 -17 24s-26 11.5 -44 16.5s-37.167 10.667 -57.5 17s-39.5 14.666 -57.5 24.999s-32.667 23.833 -44 40.5s-17 38 -17 64c0 42.667 15.833 73.667 47.5 93s71.5 29 119.5 29c60 0 108.833 -13.833 146.5 -41.5
s57.167 -68.167 58.5 -121.5h-126c0 23.333 -7.5 39 -22.5 47s-31.5 12 -49.5 12c-19.333 0 -32 -3.16699 -38 -9.5s-9 -12.833 -9 -19.5c0 -12 5.83301 -21.5 17.5 -28.5s26.667 -13.167 45 -18.5l59 -17c21 -6 40.667 -13.833 59 -23.5s33.333 -22.334 45 -38.001
s17.5 -35.834 17.5 -60.501c0 -38.667 -15.833 -68.334 -47.5 -89.001s-75.5 -31 -131.5 -31zM248 461.004h-62v17l39 97h115v-22z" />
    <glyph glyph-name="Scedilla" unicode="&#x15e;" horiz-adv-x="584" 
d="M282 -10c-32 0 -63.3252 3.66406 -93.9922 10.9971s-58.334 19.166 -83.001 35.499s-44.5 37.5 -59.5 63.5s-22.5 57.333 -22.5 94h140c0 -4 1.5 -10.167 4.5 -18.5s9 -17.166 18 -26.499s22 -17.166 39 -23.499s39.833 -9.5 68.5 -9.5c12.667 0 25.667 1 39 3
s24.666 6.16699 33.999 12.5s14 16.166 14 29.499c0 14 -6.5 25 -19.5 33s-30 14.5 -51 19.5s-44 10.167 -69 15.5s-49.833 12 -74.5 20s-47.167 18.833 -67.5 32.5s-36 31.334 -47 53.001s-15.5 48.834 -13.5 81.501c3.33301 49.333 26.666 87.833 69.999 115.5
s103.666 41.5 180.999 41.5c41.333 0 80.166 -7.33301 116.499 -22s66 -37 89 -67s34.5 -68 34.5 -114h-135c0 20.667 -6.83301 36.167 -20.5 46.5s-30 17.166 -49 20.499s-36.167 5 -51.5 5c-24.667 0 -45.167 -3 -61.5 -9s-24.5 -17.667 -24.5 -35
c0 -15.333 6.66699 -27.166 20 -35.499s30.666 -15 51.999 -20s44.833 -10 70.5 -15s51.167 -11.167 76.5 -18.5s48.166 -17.5 68.499 -30.5s36.333 -30.167 48 -51.5s16.167 -48.666 13.5 -81.999c-3.33301 -48.667 -27.833 -86.667 -73.5 -114s-105.834 -41 -180.501 -41z
M150.008 -165.003l38.998 63.998c5.33301 -4 14.666 -8.16699 27.999 -12.5s27.333 -7.66602 42 -9.99902s27.334 -2.16602 38.001 0.500977s16 9.33398 16 20.001c0.666992 6.66699 -3.16602 12 -11.499 16s-18 5.5 -29 4.5s-20.167 -5.16699 -27.5 -12.5l-57 26l46 101
l60 -23l-36 -61c10.667 8 24 13 40 15s32.167 0.833008 48.5 -3.5s30 -12 41 -23s16.5 -26.167 16.5 -45.5c0 -22.667 -8 -41.334 -24 -56.001s-36.833 -24.5 -62.5 -29.5s-53.167 -5.16699 -82.5 -0.5s-57.666 14.667 -84.999 30z" />
    <glyph glyph-name="scedilla" unicode="&#x15f;" horiz-adv-x="427" 
d="M221 -10c-4.66699 0 -14.5 0.503906 -29.5 1.50391s-32 4 -51 9s-37.5 13.167 -55.5 24.5s-32.833 26.833 -44.5 46.5s-17.5 45.167 -17.5 76.5h128c0 -0.666992 0.166992 -4 0.5 -10s2.33301 -12.667 6 -20s10 -13.833 19 -19.5s22.5 -8.5 40.5 -8.5
c22.667 0 36.667 4 42 12s8 14 8 18c0 10 -5.66699 18 -17 24s-26 11.5 -44 16.5s-37.167 10.667 -57.5 17s-39.5 14.666 -57.5 24.999s-32.667 23.833 -44 40.5s-17 38 -17 64c0 42.667 15.833 73.667 47.5 93s71.5 29 119.5 29c60 0 108.833 -13.833 146.5 -41.5
s57.167 -68.167 58.5 -121.5h-126c0 23.333 -7.5 39 -22.5 47s-31.5 12 -49.5 12c-19.333 0 -32 -3.16699 -38 -9.5s-9 -12.833 -9 -19.5c0 -12 5.83301 -21.5 17.5 -28.5s26.667 -13.167 45 -18.5l59 -17c21 -6 40.667 -13.833 59 -23.5s33.333 -22.334 45 -38.001
s17.5 -35.834 17.5 -60.501c0 -38.667 -15.833 -68.334 -47.5 -89.001s-75.5 -31 -131.5 -31zM105 -149.996l38.998 63.998c5.33301 -4 14.666 -8.16699 27.999 -12.5s27.333 -7.66602 42 -9.99902s27.334 -2.16602 38.001 0.500977s16 9.33398 16 20.001
c0.666992 6.66699 -3.16602 12 -11.499 16s-18 5.5 -29 4.5s-20.167 -5.16699 -27.5 -12.5l-57 26l46 101l60 -23l-36 -61c10.667 8 24 13 40 15s32.167 0.833008 48.5 -3.5s30 -12 41 -23s16.5 -26.167 16.5 -45.5c0 -22.667 -8 -41.334 -24 -56.001
s-36.833 -24.5 -62.5 -29.5s-53.167 -5.16699 -82.5 -0.5s-57.666 14.667 -84.999 30z" />
    <glyph glyph-name="Scaron" unicode="&#x160;" horiz-adv-x="569" 
d="M282 -10c-32 0 -63.3252 3.66406 -93.9922 10.9971s-58.334 19.166 -83.001 35.499s-44.5 37.5 -59.5 63.5s-22.5 57.333 -22.5 94h140c0 -4 1.5 -10.167 4.5 -18.5s9 -17.166 18 -26.499s22 -17.166 39 -23.499s39.833 -9.5 68.5 -9.5c12.667 0 25.667 1 39 3
s24.666 6.16699 33.999 12.5s14 16.166 14 29.499c0 14 -6.5 25 -19.5 33s-30 14.5 -51 19.5s-44 10.167 -69 15.5s-49.833 12 -74.5 20s-47.167 18.833 -67.5 32.5s-36 31.334 -47 53.001s-15.5 48.834 -13.5 81.501c3.33301 49.333 26.666 87.833 69.999 115.5
s103.666 41.5 180.999 41.5c41.333 0 80.166 -7.33301 116.499 -22s66 -37 89 -67s34.5 -68 34.5 -114h-135c0 20.667 -6.83301 36.167 -20.5 46.5s-30 17.166 -49 20.499s-36.167 5 -51.5 5c-24.667 0 -45.167 -3 -61.5 -9s-24.5 -17.667 -24.5 -35
c0 -15.333 6.66699 -27.166 20 -35.499s30.666 -15 51.999 -20s44.833 -10 70.5 -15s51.167 -11.167 76.5 -18.5s48.166 -17.5 68.499 -30.5s36.333 -30.167 48 -51.5s16.167 -48.666 13.5 -81.999c-3.33301 -48.667 -27.833 -86.667 -73.5 -114s-105.834 -41 -180.501 -41z
M116.008 753.997h143l32 -79l35 79h139l-145 -136h-58z" />
    <glyph glyph-name="scaron" unicode="&#x161;" horiz-adv-x="472" 
d="M221 -10c-4.66699 0 -14.5 0.503906 -29.5 1.50391s-32 4 -51 9s-37.5 13.167 -55.5 24.5s-32.833 26.833 -44.5 46.5s-17.5 45.167 -17.5 76.5h128c0 -0.666992 0.166992 -4 0.5 -10s2.33301 -12.667 6 -20s10 -13.833 19 -19.5s22.5 -8.5 40.5 -8.5
c22.667 0 36.667 4 42 12s8 14 8 18c0 10 -5.66699 18 -17 24s-26 11.5 -44 16.5s-37.167 10.667 -57.5 17s-39.5 14.666 -57.5 24.999s-32.667 23.833 -44 40.5s-17 38 -17 64c0 42.667 15.833 73.667 47.5 93s71.5 29 119.5 29c60 0 108.833 -13.833 146.5 -41.5
s57.167 -68.167 58.5 -121.5h-126c0 23.333 -7.5 39 -22.5 47s-31.5 12 -49.5 12c-19.333 0 -32 -3.16699 -38 -9.5s-9 -12.833 -9 -19.5c0 -12 5.83301 -21.5 17.5 -28.5s26.667 -13.167 45 -18.5l59 -17c21 -6 40.667 -13.833 59 -23.5s33.333 -22.334 45 -38.001
s17.5 -35.834 17.5 -60.501c0 -38.667 -15.833 -68.334 -47.5 -89.001s-75.5 -31 -131.5 -31zM54 597.004h143l32 -79l35 79h139l-145 -136h-58z" />
    <glyph glyph-name="uni0162" unicode="&#x162;" horiz-adv-x="480" 
d="M10 444v119h445v-119h-153v-444h-140v444h-152zM93 -165l38.998 63.998c5.33301 -4 14.666 -8.16699 27.999 -12.5s27.333 -7.66602 42 -9.99902s27.334 -2.16602 38.001 0.500977s16 9.33398 16 20.001c0.666992 6.66699 -3.16602 12 -11.499 16s-18 5.5 -29 4.5
s-20.167 -5.16699 -27.5 -12.5l-57 26l46 101l60 -23l-36 -61c10.667 8 24 13 40 15s32.167 0.833008 48.5 -3.5s30 -12 41 -23s16.5 -26.167 16.5 -45.5c0 -22.667 -8 -41.334 -24 -56.001s-36.833 -24.5 -62.5 -29.5s-53.167 -5.16699 -82.5 -0.5
s-57.666 14.667 -84.999 30z" />
    <glyph glyph-name="uni0163" unicode="&#x163;" horiz-adv-x="334" 
d="M203 0c-40 0 -71.667 9.33301 -95 28s-35 52.667 -35 102v189h-58v95c16 0 29.833 2.33301 41.5 7s20.667 14.5 27 29.5s9.5 37.833 9.5 68.5h110v-105h93v-95h-93v-212h96v-107h-96zM47 -150l38.998 63.998c5.33301 -4 14.666 -8.16699 27.999 -12.5
s27.333 -7.66602 42 -9.99902s27.334 -2.16602 38.001 0.500977s16 9.33398 16 20.001c0.666992 6.66699 -3.16602 12 -11.499 16s-18 5.5 -29 4.5s-20.167 -5.16699 -27.5 -12.5l-57 26l46 101l60 -23l-36 -61c10.667 8 24 13 40 15s32.167 0.833008 48.5 -3.5
s30 -12 41 -23s16.5 -26.167 16.5 -45.5c0 -22.667 -8 -41.334 -24 -56.001s-36.833 -24.5 -62.5 -29.5s-53.167 -5.16699 -82.5 -0.5s-57.666 14.667 -84.999 30z" />
    <glyph glyph-name="Tcaron" unicode="&#x164;" horiz-adv-x="480" 
d="M10 444v119h445v-119h-153v-444h-140v444h-152zM63 754h143l32 -79l35 79h139l-145 -136h-58z" />
    <glyph glyph-name="tcaron" unicode="&#x165;" horiz-adv-x="343" 
d="M244 467l27 174h130l-76 -174h-81zM203 0c-40 0 -71.667 9.33301 -95 28s-35 52.667 -35 102v189h-58v95c16 0 29.833 2.33301 41.5 7s20.667 14.5 27 29.5s9.5 37.833 9.5 68.5h110v-105h93v-95h-93v-212h96v-107h-96z" />
    <glyph glyph-name="Tbar" unicode="&#x166;" horiz-adv-x="480" 
d="M58 237v96h105v111h-153v119h445v-119h-152v-111h105v-96h-105v-237h-140v237h-105z" />
    <glyph glyph-name="tbar" unicode="&#x167;" horiz-adv-x="334" 
d="M15 159l-0.00390625 95.998h58v55h-58v107c16 0 29.833 2.33301 41.5 7s20.667 14.5 27 29.5s9.5 37.833 9.5 68.5h110v-105h93v-107h-93v-55h93v-96h-92c2.66699 -21.333 7.83398 -37 15.501 -47s16.334 -16.5 26.001 -19.5s19.334 -3.66699 29.001 -2
s17.834 3.5 24.501 5.5l-3 -77c-24 -16 -49 -25.167 -75 -27.5s-50.167 1.83398 -72.5 12.501s-40.5 27.834 -54.5 51.501s-21 53.5 -21 89.5v14h-58z" />
    <glyph glyph-name="Utilde" unicode="&#x168;" horiz-adv-x="614" 
d="M310 -14c-84 0 -147.498 22.168 -190.498 66.501s-64.5 106.833 -64.5 187.5v323h150v-322c0 -28 3.66699 -50.167 11 -66.5s16.5 -28.5 27.5 -36.5s22.5 -13.167 34.5 -15.5s22.667 -3.5 32 -3.5c15.333 0 31.166 2.33301 47.499 7s30.166 15.667 41.499 33
s17 44.666 17 81.999v322h150v-323c0 -82 -21.167 -144.833 -63.5 -188.5s-106.5 -65.5 -192.5 -65.5zM370.002 627.001c-18.667 0 -33.335 2.99902 -44.002 8.99902s-19.334 12.667 -26.001 20l-18 20c-5.33301 6 -12.666 9 -21.999 9
c-10.667 0 -16.834 -4.5 -18.501 -13.5s-2.5 -22.167 -2.5 -39.5h-78c0 8 0.166992 19.167 0.5 33.5s2.83301 29 7.5 44s13.334 27.833 26.001 38.5s31.334 16 56.001 16c18.667 0 33.5 -3 44.5 -9s19.833 -12.667 26.5 -20l19 -20c6 -6 13 -9 21 -9
c10 0 15.833 4.83301 17.5 14.5s2.5 22.834 2.5 39.501h78c0 -12.667 -0.5 -26.5 -1.5 -41.5s-4.16699 -29.5 -9.5 -43.5s-14.166 -25.5 -26.499 -34.5s-29.833 -13.5 -52.5 -13.5z" />
    <glyph glyph-name="utilde" unicode="&#x169;" horiz-adv-x="476" 
d="M170 -10c-30 0 -54.168 5.33301 -72.501 16s-32.333 24.5 -42 41.5s-16.167 35.333 -19.5 55s-5.16602 38.667 -5.49902 57s-0.5 33.833 -0.5 46.5v208h136v-209c0 -14 1.16699 -28.167 3.5 -42.5s8.33301 -26.333 18 -36s25.5 -14.5 47.5 -14.5s37.667 4.83301 47 14.5
s15 21.667 17 36s3 28.5 3 42.5v209h144v-414h-121l-23 66h-2l-5.5 -11.5c-3.66699 -7.66699 -10.167 -16.5 -19.5 -26.5s-22.5 -18.833 -39.5 -26.5s-38.833 -11.5 -65.5 -11.5zM294.999 481c-18.667 0 -33.335 2.99902 -44.002 8.99902s-19.334 12.667 -26.001 20l-18 20
c-5.33301 6 -12.666 9 -21.999 9c-10.667 0 -16.834 -4.5 -18.501 -13.5s-2.5 -22.167 -2.5 -39.5h-78c0 8 0.166992 19.167 0.5 33.5s2.83301 29 7.5 44s13.334 27.833 26.001 38.5s31.334 16 56.001 16c18.667 0 33.5 -3 44.5 -9s19.833 -12.667 26.5 -20l19 -20
c6 -6 13 -9 21 -9c10 0 15.833 4.83301 17.5 14.5s2.5 22.834 2.5 39.501h78c0 -12.667 -0.5 -26.5 -1.5 -41.5s-4.16699 -29.5 -9.5 -43.5s-14.166 -25.5 -26.499 -34.5s-29.833 -13.5 -52.5 -13.5z" />
    <glyph glyph-name="Umacron" unicode="&#x16a;" 
d="M310 -14c-84 0 -147.498 22.168 -190.498 66.501s-64.5 106.833 -64.5 187.5v323h150v-322c0 -28 3.66699 -50.167 11 -66.5s16.5 -28.5 27.5 -36.5s22.5 -13.167 34.5 -15.5s22.667 -3.5 32 -3.5c15.333 0 31.166 2.33301 47.499 7s30.166 15.667 41.499 33
s17 44.666 17 81.999v322h150v-323c0 -82 -21.167 -144.833 -63.5 -188.5s-106.5 -65.5 -192.5 -65.5zM160.002 626.001v94h302v-94h-302z" />
    <glyph glyph-name="umacron" unicode="&#x16b;" horiz-adv-x="489" 
d="M170 -10c-30 0 -54.168 5.33301 -72.501 16s-32.333 24.5 -42 41.5s-16.167 35.333 -19.5 55s-5.16602 38.667 -5.49902 57s-0.5 33.833 -0.5 46.5v208h136v-209c0 -14 1.16699 -28.167 3.5 -42.5s8.33301 -26.333 18 -36s25.5 -14.5 47.5 -14.5s37.667 4.83301 47 14.5
s15 21.667 17 36s3 28.5 3 42.5v209h144v-414h-121l-23 66h-2l-5.5 -11.5c-3.66699 -7.66699 -10.167 -16.5 -19.5 -26.5s-22.5 -18.833 -39.5 -26.5s-38.833 -11.5 -65.5 -11.5zM80.999 480v94h302v-94h-302z" />
    <glyph glyph-name="Uring" unicode="&#x16e;" horiz-adv-x="614" 
d="M310 -14c-84 0 -147.498 22.168 -190.498 66.501s-64.5 106.833 -64.5 187.5v323h150v-322c0 -28 3.66699 -50.167 11 -66.5s16.5 -28.5 27.5 -36.5s22.5 -13.167 34.5 -15.5s22.667 -3.5 32 -3.5c15.333 0 31.166 2.33301 47.499 7s30.166 15.667 41.499 33
s17 44.666 17 81.999v322h150v-323c0 -82 -21.167 -144.833 -63.5 -188.5s-106.5 -65.5 -192.5 -65.5zM309.002 585.001c-37.333 0 -64.5 9.66699 -81.5 29s-25.5 45 -25.5 77c0 33.333 8.33301 59.833 25 79.5s44 29.5 82 29.5c37.333 0 65 -9.83301 83 -29.5
s27 -46.167 27 -79.5c0 -30.667 -9 -56 -27 -76s-45.667 -30 -83 -30zM307.002 665.001c11.333 0 19.333 2.66699 24 8s7 12.333 7 21s-2.33301 16 -7 22s-12.667 9 -24 9c-10.667 0 -18.334 -3.16699 -23.001 -9.5s-7 -13.5 -7 -21.5c0 -8.66699 2.33301 -15.667 7 -21
s12.334 -8 23.001 -8z" />
    <glyph glyph-name="uring" unicode="&#x16f;" horiz-adv-x="476" 
d="M170 -10c-30 0 -54.168 5.33301 -72.501 16s-32.333 24.5 -42 41.5s-16.167 35.333 -19.5 55s-5.16602 38.667 -5.49902 57s-0.5 33.833 -0.5 46.5v208h136v-209c0 -14 1.16699 -28.167 3.5 -42.5s8.33301 -26.333 18 -36s25.5 -14.5 47.5 -14.5s37.667 4.83301 47 14.5
s15 21.667 17 36s3 28.5 3 42.5v209h144v-414h-121l-23 66h-2l-5.5 -11.5c-3.66699 -7.66699 -10.167 -16.5 -19.5 -26.5s-22.5 -18.833 -39.5 -26.5s-38.833 -11.5 -65.5 -11.5zM231.999 459c-37.333 0 -64.5 9.66699 -81.5 29s-25.5 45 -25.5 77
c0 33.333 8.33301 59.833 25 79.5s44 29.5 82 29.5c37.333 0 65 -9.83301 83 -29.5s27 -46.167 27 -79.5c0 -30.667 -9 -56 -27 -76s-45.667 -30 -83 -30zM229.999 539c11.333 0 19.333 2.66699 24 8s7 12.333 7 21s-2.33301 16 -7 22s-12.667 9 -24 9
c-10.667 0 -18.334 -3.16699 -23.001 -9.5s-7 -13.5 -7 -21.5c0 -8.66699 2.33301 -15.667 7 -21s12.334 -8 23.001 -8z" />
    <glyph glyph-name="Uhungarumlaut" unicode="&#x170;" 
d="M149 640l67 158l107 -53l-112 -135zM350 640l67 158l107 -53l-112 -135zM310 -14c-84 0 -147.498 22.168 -190.498 66.501s-64.5 106.833 -64.5 187.5v323h150v-322c0 -28 3.66699 -50.167 11 -66.5s16.5 -28.5 27.5 -36.5s22.5 -13.167 34.5 -15.5s22.667 -3.5 32 -3.5
c15.333 0 31.166 2.33301 47.499 7s30.166 15.667 41.499 33s17 44.666 17 81.999v322h150v-323c0 -82 -21.167 -144.833 -63.5 -188.5s-106.5 -65.5 -192.5 -65.5z" />
    <glyph glyph-name="uhungarumlaut" unicode="&#x171;" horiz-adv-x="509" 
d="M84 491l67 158l107 -53l-112 -135zM285 491l67 158l107 -53l-112 -135zM170 -10c-30 0 -54.168 5.33301 -72.501 16s-32.333 24.5 -42 41.5s-16.167 35.333 -19.5 55s-5.16602 38.667 -5.49902 57s-0.5 33.833 -0.5 46.5v208h136v-209c0 -14 1.16699 -28.167 3.5 -42.5
s8.33301 -26.333 18 -36s25.5 -14.5 47.5 -14.5s37.667 4.83301 47 14.5s15 21.667 17 36s3 28.5 3 42.5v209h144v-414h-121l-23 66h-2l-5.5 -11.5c-3.66699 -7.66699 -10.167 -16.5 -19.5 -26.5s-22.5 -18.833 -39.5 -26.5s-38.833 -11.5 -65.5 -11.5z" />
    <glyph glyph-name="Uogonek" unicode="&#x172;" horiz-adv-x="614" 
d="M316 -186c-16 0 -32.665 2.99902 -49.998 8.99902s-32 15.833 -44 29.5s-18 32.5 -18 56.5c0 16.667 3.83301 31.834 11.5 45.501s17.5 25.834 29.5 36.501c-62.667 10.667 -110 37.5 -142 80.5s-48 99.167 -48 168.5v323h150v-322c0 -28 3.66699 -50.167 11 -66.5
s16.5 -28.5 27.5 -36.5s22.5 -13.167 34.5 -15.5s22.667 -3.5 32 -3.5c15.333 0 31.166 2.33301 47.499 7s30.166 15.667 41.499 33s17 44.666 17 81.999v322h150v-323c0 -73.333 -17 -131.5 -51 -174.5s-85.667 -68.5 -155 -76.5c-10.667 -4.66699 -22.667 -11.5 -36 -20.5
s-20 -20.5 -20 -34.5c0 -14.667 8.33301 -22 25 -22c11.333 0 20.833 4.33301 28.5 13l11.5 13l71 -64l-13.5 -15c-9 -10 -22.5 -20 -40.5 -30s-41.333 -15 -70 -15z" />
    <glyph glyph-name="uogonek" unicode="&#x173;" horiz-adv-x="489" 
d="M170 -10c-30 0 -54.168 5.33496 -72.501 16.002s-32.333 24.5 -42 41.5s-16.167 35.333 -19.5 55s-5.16602 38.667 -5.49902 57s-0.5 33.833 -0.5 46.5v208h136v-209c0 -14 1.16699 -28.167 3.5 -42.5s8.33301 -26.333 18 -36s25.5 -14.5 47.5 -14.5
s37.667 4.83301 47 14.5s15 21.667 17 36s3 28.5 3 42.5v209h144v-414h-7l-10.5 -4c-7 -2.66699 -15.167 -6.5 -24.5 -11.5s-17.5 -11.167 -24.5 -18.5s-10.5 -16 -10.5 -26c0 -14.667 8.33301 -22 25 -22c11.333 0 20.833 4.33301 28.5 13l11.5 13l71 -64l-13.5 -15
c-9 -10 -22.5 -20 -40.5 -30s-41.333 -15 -70 -15c-16 0 -32.667 3 -50 9s-32 15.833 -44 29.5s-18 32.5 -18 56.5c0 19.333 5.16699 36.666 15.5 51.999s22.833 28.666 37.5 39.999l-20 59h-2l-5.5 -11.5c-3.66699 -7.66699 -10.167 -16.5 -19.5 -26.5
s-22.5 -18.833 -39.5 -26.5s-38.833 -11.5 -65.5 -11.5z" />
    <glyph glyph-name="Wcircumflex" unicode="&#x174;" horiz-adv-x="802" 
d="M634 563h148l-104 -563h-223l-53 387l-47 -387h-224l-111 563h148l74 -506l85 503l-1 3h150l91 -506zM246 617v10l127 114h58l126 -114v-10h-120l-32 36h-6l-29 -36h-124z" />
    <glyph glyph-name="wcircumflex" unicode="&#x175;" horiz-adv-x="669" 
d="M91 0l-82 395v21h138l44 -300h2l71 300h119l75 -300h2l45 300h137v-21l-86 -395h-193l-38 175h-2l-35 -175h-197zM168 456v10l127 114h58l126 -114v-10h-120l-32 36h-6l-29 -36h-124z" />
    <glyph glyph-name="Ycircumflex" unicode="&#x176;" horiz-adv-x="464" 
d="M163 0v194h-1l-191 369h157l107 -251l107 251h157l-197 -369v-194h-139zM79 617v10l127 114h58l126 -114v-10h-120l-32 36h-6l-29 -36h-124z" />
    <glyph glyph-name="ycircumflex" unicode="&#x177;" horiz-adv-x="474" 
d="M0 -199v106h70c10 0 19.167 0.666992 27.5 2s16.5 5.83301 24.5 13.5s17 21.167 27 40.5l12 28l-161 423h143l85 -282l93 282h143l-187 -462c-14 -34 -27 -61 -39 -81s-24.667 -35 -38 -45s-28.5 -16.667 -45.5 -20s-37.5 -5 -61.5 -5h-93zM77 456v10l127 114h58
l126 -114v-10h-120l-32 36h-6l-29 -36h-124z" />
    <glyph glyph-name="Ydieresis" unicode="&#x178;" horiz-adv-x="464" 
d="M163 0v194h-1l-191 369h157l107 -251l107 251h157l-197 -369v-194h-139zM133 625c-30 0 -50.167 7.5 -60.5 22.5s-15.5 32.833 -15.5 53.5c0 19.333 5.16699 36.5 15.5 51.5s30.5 22.5 60.5 22.5s49.833 -7.5 59.5 -22.5s14.5 -32.167 14.5 -51.5
c0 -20.667 -4.83301 -38.5 -14.5 -53.5s-29.5 -22.5 -59.5 -22.5zM339 625c-30 0 -50.167 7.5 -60.5 22.5s-15.5 32.833 -15.5 53.5c0 19.333 5.16699 36.5 15.5 51.5s30.5 22.5 60.5 22.5s49.833 -7.5 59.5 -22.5s14.5 -32.167 14.5 -51.5
c0 -20.667 -4.83301 -38.5 -14.5 -53.5s-29.5 -22.5 -59.5 -22.5z" />
    <glyph glyph-name="Zacute" unicode="&#x179;" horiz-adv-x="583" 
d="M50 0v117l306 327h-287v119h466v-119l-299 -325h298v-119h-484zM327 610h-62v17l39 97h115v-22z" />
    <glyph glyph-name="zacute" unicode="&#x17a;" horiz-adv-x="459" 
d="M35 0v100l220 216h-206v101h365v-98l-212 -217h212v-102h-379zM250 461h-62v17l39 97h115v-22z" />
    <glyph glyph-name="Zdotaccent" unicode="&#x17b;" horiz-adv-x="583" 
d="M50 0v117l306 327h-287v119h466v-119l-299 -325h298v-119h-484zM291 670c-30 0 -50.167 7.5 -60.5 22.5s-15.5 32.833 -15.5 53.5c0 19.333 5.16699 36.5 15.5 51.5s30.5 22.5 60.5 22.5s49.833 -7.5 59.5 -22.5s14.5 -32.167 14.5 -51.5
c0 -20.667 -4.83301 -38.5 -14.5 -53.5s-29.5 -22.5 -59.5 -22.5z" />
    <glyph glyph-name="zdotaccent" unicode="&#x17c;" horiz-adv-x="459" 
d="M35 0v100l220 216h-206v101h365v-98l-212 -217h212v-102h-379zM232 456c-30 0 -50.167 7.5 -60.5 22.5s-15.5 32.833 -15.5 53.5c0 19.333 5.16699 36.5 15.5 51.5s30.5 22.5 60.5 22.5s49.833 -7.5 59.5 -22.5s14.5 -32.167 14.5 -51.5
c0 -20.667 -4.83301 -38.5 -14.5 -53.5s-29.5 -22.5 -59.5 -22.5z" />
    <glyph glyph-name="Zcaron" unicode="&#x17d;" horiz-adv-x="583" 
d="M50 0v117l306 327h-287v119h466v-119l-299 -325h298v-119h-484zM131 754h143l32 -79l35 79h139l-145 -136h-58z" />
    <glyph glyph-name="zcaron" unicode="&#x17e;" horiz-adv-x="459" 
d="M35 0v100l220 216h-206v101h365v-98l-212 -217h212v-102h-379zM57 597h143l32 -79l35 79h139l-145 -136h-58z" />
    <glyph glyph-name="Ohorn" unicode="&#x1a0;" horiz-adv-x="619" 
d="M302 -14c-93.333 0 -164.667 26.5 -214 79.5s-74 124.5 -74 214.5c0 59.333 10.667 110.833 32 154.5s53.333 77.667 96 102s96 36.5 160 36.5c93.333 0 164.333 -26.5 213 -79.5s73 -124.167 73 -213.5c0 -58 -10.833 -109.167 -32.5 -153.5s-53.667 -78.833 -96 -103.5
s-94.833 -37 -157.5 -37zM299.999 121c34 0 62.168 7.16797 84.501 21.501s39 33.666 50 57.999s16.5 50.833 16.5 79.5c0 29.333 -5.5 56.333 -16.5 81s-27.667 44.334 -50 59.001s-50.5 22 -84.5 22c-48.667 0 -85.834 -15.333 -111.501 -46s-38.5 -69.334 -38.5 -116.001
c0 -28 5.5 -54.167 16.5 -78.5s27.5 -43.833 49.5 -58.5s50 -22 84 -22zM376 484.001v79h54c11.333 0 19 1.33301 23 4s6.33301 8.16699 7 16.5s1 21.5 1 39.5h86c0 -34.667 -3.5 -62.167 -10.5 -82.5s-20 -34.833 -39 -43.5s-46.5 -13 -82.5 -13h-39z" />
    <glyph glyph-name="ohorn" unicode="&#x1a1;" horiz-adv-x="487" 
d="M239 -10c-48.667 0 -89.333 9.16602 -122 27.499s-57 43.5 -73 75.5s-24 68.333 -24 109c-0.666992 41.333 7 77.833 23 109.5s40.5 56.834 73.5 75.501s73.833 28 122.5 28c71.333 0 125.5 -19.5 162.5 -58.5s55.5 -90.5 55.5 -154.5c0 -40 -7.83301 -76 -23.5 -108
s-39.5 -57.333 -71.5 -76s-73 -28 -123 -28zM239.001 105.999c24.667 0 43 5 55 15s19.833 22.833 23.5 38.5s5.5 31.5 5.5 47.5c0 16.667 -1.83301 32.667 -5.5 48s-11.5 28.166 -23.5 38.499s-30.333 15.5 -55 15.5s-43.167 -5.16699 -55.5 -15.5
s-20.333 -23.166 -24 -38.499s-5.5 -31.333 -5.5 -48c0 -16 1.83301 -31.833 5.5 -47.5s11.667 -28.5 24 -38.5s30.833 -15 55.5 -15zM270.001 334.999v79h54c11.333 0 19 1.33301 23 4s6.33301 8.16699 7 16.5s1 21.5 1 39.5h86c0 -34.667 -3.5 -62.167 -10.5 -82.5
s-20 -34.833 -39 -43.5s-46.5 -13 -82.5 -13h-39z" />
    <glyph glyph-name="Uhorn" unicode="&#x1af;" horiz-adv-x="614" 
d="M509 484v79h54c11.333 0 19 1.33301 23 4s6.33301 8.16699 7 16.5s1 21.5 1 39.5h86c0 -34.667 -3.5 -62.167 -10.5 -82.5s-20 -34.833 -39 -43.5s-46.5 -13 -82.5 -13h-39zM310 -14c-84 0 -147.498 22.168 -190.498 66.501s-64.5 106.833 -64.5 187.5v323h150v-322
c0 -28 3.66699 -50.167 11 -66.5s16.5 -28.5 27.5 -36.5s22.5 -13.167 34.5 -15.5s22.667 -3.5 32 -3.5c15.333 0 31.166 2.33301 47.499 7s30.166 15.667 41.499 33s17 44.666 17 81.999v322h150v-323c0 -82 -21.167 -144.833 -63.5 -188.5s-106.5 -65.5 -192.5 -65.5z" />
    <glyph glyph-name="uhorn" unicode="&#x1b0;" horiz-adv-x="499" 
d="M170 -10c-30 0 -54.168 5.33301 -72.501 16s-32.333 24.5 -42 41.5s-16.167 35.333 -19.5 55s-5.16602 38.667 -5.49902 57s-0.5 33.833 -0.5 46.5v208h136v-209c0 -14 1.16699 -28.167 3.5 -42.5s8.33301 -26.333 18 -36s25.5 -14.5 47.5 -14.5s37.667 4.83301 47 14.5
s15 21.667 17 36s3 28.5 3 42.5v209h144v-414h-121l-23 66h-2l-5.5 -11.5c-3.66699 -7.66699 -10.167 -16.5 -19.5 -26.5s-22.5 -18.833 -39.5 -26.5s-38.833 -11.5 -65.5 -11.5zM364.999 335v79h54c11.333 0 19 1.33301 23 4s6.33301 8.16699 7 16.5s1 21.5 1 39.5h86
c0 -34.667 -3.5 -62.167 -10.5 -82.5s-20 -34.833 -39 -43.5s-46.5 -13 -82.5 -13h-39z" />
    <glyph glyph-name="uni0218" unicode="&#x218;" horiz-adv-x="584" 
d="M282 -10c-32 0 -63.3252 3.66406 -93.9922 10.9971s-58.334 19.166 -83.001 35.499s-44.5 37.5 -59.5 63.5s-22.5 57.333 -22.5 94h140c0 -4 1.5 -10.167 4.5 -18.5s9 -17.166 18 -26.499s22 -17.166 39 -23.499s39.833 -9.5 68.5 -9.5c12.667 0 25.667 1 39 3
s24.666 6.16699 33.999 12.5s14 16.166 14 29.499c0 14 -6.5 25 -19.5 33s-30 14.5 -51 19.5s-44 10.167 -69 15.5s-49.833 12 -74.5 20s-47.167 18.833 -67.5 32.5s-36 31.334 -47 53.001s-15.5 48.834 -13.5 81.501c3.33301 49.333 26.666 87.833 69.999 115.5
s103.666 41.5 180.999 41.5c41.333 0 80.166 -7.33301 116.499 -22s66 -37 89 -67s34.5 -68 34.5 -114h-135c0 20.667 -6.83301 36.167 -20.5 46.5s-30 17.166 -49 20.499s-36.167 5 -51.5 5c-24.667 0 -45.167 -3 -61.5 -9s-24.5 -17.667 -24.5 -35
c0 -15.333 6.66699 -27.166 20 -35.499s30.666 -15 51.999 -20s44.833 -10 70.5 -15s51.167 -11.167 76.5 -18.5s48.166 -17.5 68.499 -30.5s36.333 -30.167 48 -51.5s16.167 -48.666 13.5 -81.999c-3.33301 -48.667 -27.833 -86.667 -73.5 -114s-105.834 -41 -180.501 -41z
M220.008 -296.003l-0.000976562 85h31c18 0 31.333 1.66699 40 5s13 12 13 26c-32 0 -54 7 -66 21s-18 30.667 -18 50c0 20 5.66699 36.833 17 50.5s30.333 20.5 57 20.5c20 0 36.667 -6.16699 50 -18.5s20 -38.5 20 -78.5c0 -27.333 -3.83301 -53.333 -11.5 -78
s-19.667 -44.667 -36 -60s-38.166 -23 -65.499 -23h-31z" />
    <glyph glyph-name="uni0219" unicode="&#x219;" horiz-adv-x="427" 
d="M221 -10c-4.66699 0 -14.5 0.503906 -29.5 1.50391s-32 4 -51 9s-37.5 13.167 -55.5 24.5s-32.833 26.833 -44.5 46.5s-17.5 45.167 -17.5 76.5h128c0 -0.666992 0.166992 -4 0.5 -10s2.33301 -12.667 6 -20s10 -13.833 19 -19.5s22.5 -8.5 40.5 -8.5
c22.667 0 36.667 4 42 12s8 14 8 18c0 10 -5.66699 18 -17 24s-26 11.5 -44 16.5s-37.167 10.667 -57.5 17s-39.5 14.666 -57.5 24.999s-32.667 23.833 -44 40.5s-17 38 -17 64c0 42.667 15.833 73.667 47.5 93s71.5 29 119.5 29c60 0 108.833 -13.833 146.5 -41.5
s57.167 -68.167 58.5 -121.5h-126c0 23.333 -7.5 39 -22.5 47s-31.5 12 -49.5 12c-19.333 0 -32 -3.16699 -38 -9.5s-9 -12.833 -9 -19.5c0 -12 5.83301 -21.5 17.5 -28.5s26.667 -13.167 45 -18.5l59 -17c21 -6 40.667 -13.833 59 -23.5s33.333 -22.334 45 -38.001
s17.5 -35.834 17.5 -60.501c0 -38.667 -15.833 -68.334 -47.5 -89.001s-75.5 -31 -131.5 -31zM162 -295.996l-0.000976562 85h31c18 0 31.333 1.66699 40 5s13 12 13 26c-32 0 -54 7 -66 21s-18 30.667 -18 50c0 20 5.66699 36.833 17 50.5s30.333 20.5 57 20.5
c20 0 36.667 -6.16699 50 -18.5s20 -38.5 20 -78.5c0 -27.333 -3.83301 -53.333 -11.5 -78s-19.667 -44.667 -36 -60s-38.166 -23 -65.499 -23h-31z" />
    <glyph glyph-name="uni021A" unicode="&#x21a;" horiz-adv-x="480" 
d="M10 444v119h445v-119h-153v-444h-140v444h-152zM162 -296l-0.000976562 85h31c18 0 31.333 1.66699 40 5s13 12 13 26c-32 0 -54 7 -66 21s-18 30.667 -18 50c0 20 5.66699 36.833 17 50.5s30.333 20.5 57 20.5c20 0 36.667 -6.16699 50 -18.5s20 -38.5 20 -78.5
c0 -27.333 -3.83301 -53.333 -11.5 -78s-19.667 -44.667 -36 -60s-38.166 -23 -65.499 -23h-31z" />
    <glyph glyph-name="uni021B" unicode="&#x21b;" horiz-adv-x="334" 
d="M203 0c-40 0 -71.667 9.33301 -95 28s-35 52.667 -35 102v189h-58v95c16 0 29.833 2.33301 41.5 7s20.667 14.5 27 29.5s9.5 37.833 9.5 68.5h110v-105h93v-95h-93v-212h96v-107h-96zM108 -296l-0.000976562 85h31c18 0 31.333 1.66699 40 5s13 12 13 26
c-32 0 -54 7 -66 21s-18 30.667 -18 50c0 20 5.66699 36.833 17 50.5s30.333 20.5 57 20.5c20 0 36.667 -6.16699 50 -18.5s20 -38.5 20 -78.5c0 -27.333 -3.83301 -53.333 -11.5 -78s-19.667 -44.667 -36 -60s-38.166 -23 -65.499 -23h-31z" />
    <glyph glyph-name="circumflex" unicode="&#x2c6;" 
d="M89 690v10l127 114h58l126 -114v-10h-120l-32 36h-6l-29 -36h-124z" />
    <glyph glyph-name="caron" unicode="&#x2c7;" horiz-adv-x="449" 
d="M50 790h143l32 -79l35 79h139l-145 -136h-58z" />
    <glyph glyph-name="breve" unicode="&#x2d8;" 
d="M201 701c-46.667 0 -82.833 10.667 -108.5 32s-38.5 50.333 -38.5 87h97c0 -16.667 4.66699 -28.5 14 -35.5s21.333 -10.5 36 -10.5c15.333 0 27.333 3.33301 36 10s13 18.667 13 36h97c0 -36.667 -12.5 -65.667 -37.5 -87s-61.167 -32 -108.5 -32z" />
    <glyph glyph-name="dotaccent" unicode="&#x2d9;" 
d="M121 670c-30 0 -50.167 7.5 -60.5 22.5s-15.5 32.833 -15.5 53.5c0 19.333 5.16699 36.5 15.5 51.5s30.5 22.5 60.5 22.5s49.833 -7.5 59.5 -22.5s14.5 -32.167 14.5 -51.5c0 -20.667 -4.83301 -38.5 -14.5 -53.5s-29.5 -22.5 -59.5 -22.5z" />
    <glyph glyph-name="ring" unicode="&#x2da;" 
d="M137 585c-37.333 0 -64.5 9.66699 -81.5 29s-25.5 45 -25.5 77c0 33.333 8.33301 59.833 25 79.5s44 29.5 82 29.5c37.333 0 65 -9.83301 83 -29.5s27 -46.167 27 -79.5c0 -30.667 -9 -56 -27 -76s-45.667 -30 -83 -30zM135 665c11.333 0 19.333 2.66699 24 8
s7 12.333 7 21s-2.33301 16 -7 22s-12.667 9 -24 9c-10.667 0 -18.334 -3.16699 -23.001 -9.5s-7 -13.5 -7 -21.5c0 -8.66699 2.33301 -15.667 7 -21s12.334 -8 23.001 -8z" />
    <glyph glyph-name="tilde" unicode="&#x2dc;" 
d="M253 657c-18.667 0 -33.335 2.99902 -44.002 8.99902s-19.334 12.667 -26.001 20l-18 20c-5.33301 6 -12.666 9 -21.999 9c-10.667 0 -16.834 -4.5 -18.501 -13.5s-2.5 -22.167 -2.5 -39.5h-78c0 8 0.166992 19.167 0.5 33.5s2.83301 29 7.5 44
s13.334 27.833 26.001 38.5s31.334 16 56.001 16c18.667 0 33.5 -3 44.5 -9s19.833 -12.667 26.5 -20l19 -20c6 -6 13 -9 21 -9c10 0 15.833 4.83301 17.5 14.5s2.5 22.834 2.5 39.501h78c0 -12.667 -0.5 -26.5 -1.5 -41.5s-4.16699 -29.5 -9.5 -43.5
s-14.166 -25.5 -26.499 -34.5s-29.833 -13.5 -52.5 -13.5z" />
    <glyph glyph-name="gravecomb" unicode="&#x300;" horiz-adv-x="0" 
d="M125 632l-92 92v22h115l39 -97v-17h-62z" />
    <glyph glyph-name="acutecomb" unicode="&#x301;" horiz-adv-x="0" 
d="M95 632h-62v17l39 97h115v-22z" />
    <glyph glyph-name="uni0302" unicode="&#x302;" horiz-adv-x="0" 
d="M89 690v10l127 114h58l126 -114v-10h-120l-32 36h-6l-29 -36h-124z" />
    <glyph glyph-name="tildecomb" unicode="&#x303;" horiz-adv-x="0" 
d="M253 657c-18.667 0 -33.335 2.99902 -44.002 8.99902s-19.334 12.667 -26.001 20l-18 20c-5.33301 6 -12.666 9 -21.999 9c-10.667 0 -16.834 -4.5 -18.501 -13.5s-2.5 -22.167 -2.5 -39.5h-78c0 8 0.166992 19.167 0.5 33.5s2.83301 29 7.5 44
s13.334 27.833 26.001 38.5s31.334 16 56.001 16c18.667 0 33.5 -3 44.5 -9s19.833 -12.667 26.5 -20l19 -20c6 -6 13 -9 21 -9c10 0 15.833 4.83301 17.5 14.5s2.5 22.834 2.5 39.501h78c0 -12.667 -0.5 -26.5 -1.5 -41.5s-4.16699 -29.5 -9.5 -43.5
s-14.166 -25.5 -26.499 -34.5s-29.833 -13.5 -52.5 -13.5z" />
    <glyph glyph-name="uni0304" unicode="&#x304;" horiz-adv-x="0" 
d="M40 726v94h302v-94h-302z" />
    <glyph glyph-name="uni0306" unicode="&#x306;" horiz-adv-x="0" 
d="M201 701c-46.667 0 -82.833 10.667 -108.5 32s-38.5 50.333 -38.5 87h97c0 -16.667 4.66699 -28.5 14 -35.5s21.333 -10.5 36 -10.5c15.333 0 27.333 3.33301 36 10s13 18.667 13 36h97c0 -36.667 -12.5 -65.667 -37.5 -87s-61.167 -32 -108.5 -32z" />
    <glyph glyph-name="uni0307" unicode="&#x307;" horiz-adv-x="0" 
d="M121 670c-30 0 -50.167 7.5 -60.5 22.5s-15.5 32.833 -15.5 53.5c0 19.333 5.16699 36.5 15.5 51.5s30.5 22.5 60.5 22.5s49.833 -7.5 59.5 -22.5s14.5 -32.167 14.5 -51.5c0 -20.667 -4.83301 -38.5 -14.5 -53.5s-29.5 -22.5 -59.5 -22.5z" />
    <glyph glyph-name="uni0308" unicode="&#x308;" horiz-adv-x="0" 
d="M121 660c-30 0 -50.167 7.5 -60.5 22.5s-15.5 32.833 -15.5 53.5c0 19.333 5.16699 36.5 15.5 51.5s30.5 22.5 60.5 22.5s49.833 -7.5 59.5 -22.5s14.5 -32.167 14.5 -51.5c0 -20.667 -4.83301 -38.5 -14.5 -53.5s-29.5 -22.5 -59.5 -22.5zM327 660
c-30 0 -50.167 7.5 -60.5 22.5s-15.5 32.833 -15.5 53.5c0 19.333 5.16699 36.5 15.5 51.5s30.5 22.5 60.5 22.5s49.833 -7.5 59.5 -22.5s14.5 -32.167 14.5 -51.5c0 -20.667 -4.83301 -38.5 -14.5 -53.5s-29.5 -22.5 -59.5 -22.5z" />
    <glyph glyph-name="hookabovecomb" unicode="&#x309;" horiz-adv-x="0" 
d="M107 593l-0.00292969 20.001c4.66699 8.66699 12.334 16 23.001 22s20.834 12.667 30.501 20s14.5 17 14.5 29c0 10.667 -5.16699 17.5 -15.5 20.5s-21.5 2.66699 -33.5 -1s-20.667 -10.834 -26 -21.501l-52 37c6 20.667 16.833 36.834 32.5 48.501s33.5 19 53.5 22
s39.333 1.83301 58 -3.5s34.167 -15.333 46.5 -30s18.5 -33.667 18.5 -57c0 -22 -4.33301 -38.833 -13 -50.5s-18.167 -21.334 -28.5 -29.001s-18.166 -16.5 -23.499 -26.5h-85z" />
    <glyph glyph-name="uni030A" unicode="&#x30a;" horiz-adv-x="0" 
d="M137 585c-37.333 0 -64.5 9.66699 -81.5 29s-25.5 45 -25.5 77c0 33.333 8.33301 59.833 25 79.5s44 29.5 82 29.5c37.333 0 65 -9.83301 83 -29.5s27 -46.167 27 -79.5c0 -30.667 -9 -56 -27 -76s-45.667 -30 -83 -30zM135 665c11.333 0 19.333 2.66699 24 8
s7 12.333 7 21s-2.33301 16 -7 22s-12.667 9 -24 9c-10.667 0 -18.334 -3.16699 -23.001 -9.5s-7 -13.5 -7 -21.5c0 -8.66699 2.33301 -15.667 7 -21s12.334 -8 23.001 -8z" />
    <glyph glyph-name="uni030B" unicode="&#x30b;" horiz-adv-x="0" 
d="M33 662l67 158l107 -53l-112 -135zM234 662l67 158l107 -53l-112 -135z" />
    <glyph glyph-name="uni030C" unicode="&#x30c;" horiz-adv-x="0" 
d="M50 790h143l32 -58l35 58h139v-19l-145 -117h-58l-146 118v18z" />
    <glyph glyph-name="uni0312" unicode="&#x312;" horiz-adv-x="0" 
d="M184 819v-111.999c-17.333 0 -31.5 -2.66699 -42.5 -8s-19.5 -12 -25.5 -20c23.333 -0.666992 39.833 -7.33398 49.5 -20.001s14.5 -27.667 14.5 -45c0 -18.667 -5 -34.167 -15 -46.5s-26.667 -18.5 -50 -18.5c-22.667 0 -39.167 6 -49.5 18s-15.5 27.333 -15.5 46v0v2v0
v2c0 8 0.833008 20 2.5 36s5 33.5 10 52.5s12.333 37.167 22 54.5s22.667 31.5 39 42.5s36.5 16.5 60.5 16.5z" />
    <glyph glyph-name="uni031B" unicode="&#x31b;" horiz-adv-x="0" 
d="M44 579v79h54c11.333 0 19 1.33301 23 4s6.33301 8.16699 7 16.5s1 21.5 1 39.5h86c0 -34.667 -3.5 -62.167 -10.5 -82.5s-20 -34.833 -39 -43.5s-46.5 -13 -82.5 -13h-39z" />
    <glyph glyph-name="dotbelowcomb" unicode="&#x323;" horiz-adv-x="0" 
d="M111 -150c-26 0 -43.5 6.5 -52.5 19.5s-13.5 28.5 -13.5 46.5c0 17.333 4.5 32.333 13.5 45s26.5 19 52.5 19s43.167 -6.33301 51.5 -19s12.5 -27.667 12.5 -45c0 -18 -4.16699 -33.5 -12.5 -46.5s-25.5 -19.5 -51.5 -19.5z" />
    <glyph glyph-name="uni0326" unicode="&#x326;" horiz-adv-x="0" 
d="M59 -296l-0.000976562 85h31c18 0 31.333 1.66699 40 5s13 12 13 26c-32 0 -54 7 -66 21s-18 30.667 -18 50c0 20 5.66699 36.833 17 50.5s30.333 20.5 57 20.5c20 0 36.667 -6.16699 50 -18.5s20 -38.5 20 -78.5c0 -27.333 -3.83301 -53.333 -11.5 -78
s-19.667 -44.667 -36 -60s-38.166 -23 -65.499 -23h-31z" />
    <glyph glyph-name="uni0327" unicode="&#x327;" horiz-adv-x="0" 
d="M40 -120l38.998 63.998c5.33301 -4 14.666 -8.16699 27.999 -12.5s27.333 -7.66602 42 -9.99902s27.334 -2.16602 38.001 0.500977s16 9.33398 16 20.001c0.666992 6.66699 -3.16602 12 -11.499 16s-18 5.5 -29 4.5s-20.167 -5.16699 -27.5 -12.5l-57 26l46 101l60 -23
l-36 -61c10.667 8 24 13 40 15s32.167 0.833008 48.5 -3.5s30 -12 41 -23s16.5 -26.167 16.5 -45.5c0 -22.667 -8 -41.334 -24 -56.001s-36.833 -24.5 -62.5 -29.5s-53.167 -5.16699 -82.5 -0.5s-57.666 14.667 -84.999 30z" />
    <glyph glyph-name="uni0328" unicode="&#x328;" horiz-adv-x="0" 
d="M157 -199c-16 0 -32.6621 3.00098 -49.9951 9.00098s-32 15.833 -44 29.5s-18 32.5 -18 56.5c0 20.667 5.66699 39.167 17 55.5s25.166 30.166 41.499 41.499s32.666 20.833 48.999 28.5s30.166 13.167 41.499 16.5l17 5v-62l-10 -4
c-6.66699 -2.66699 -14.334 -6.5 -23.001 -11.5s-16.334 -11.167 -23.001 -18.5s-10 -16 -10 -26c0 -14.667 8.33301 -22 25 -22c11.333 0 20.833 4.33301 28.5 13l11.5 13l71 -64l-13.5 -15c-9 -10 -22.5 -20 -40.5 -30s-41.333 -15 -70 -15z" />
    <glyph glyph-name="Wgrave" unicode="&#x1e80;" horiz-adv-x="802" 
d="M634 563h148l-104 -563h-223l-53 387l-47 -387h-224l-111 563h148l74 -506l85 503l-1 3h150l91 -506zM349 610l-92 92v22h115l39 -97v-17h-62z" />
    <glyph glyph-name="wgrave" unicode="&#x1e81;" horiz-adv-x="669" 
d="M91 0l-82 395v21h138l44 -300h2l71 300h119l75 -300h2l45 300h137v-21l-86 -395h-193l-38 175h-2l-35 -175h-197zM270 461l-92 92v22h115l39 -97v-17h-62z" />
    <glyph glyph-name="Wacute" unicode="&#x1e82;" horiz-adv-x="802" 
d="M634 563h148l-104 -563h-223l-53 387l-47 -387h-224l-111 563h148l74 -506l85 503l-1 3h150l91 -506zM424 610h-62v17l39 97h115v-22z" />
    <glyph glyph-name="wacute" unicode="&#x1e83;" horiz-adv-x="669" 
d="M91 0l-82 395v21h138l44 -300h2l71 300h119l75 -300h2l45 300h137v-21l-86 -395h-193l-38 175h-2l-35 -175h-197zM352 461h-62v17l39 97h115v-22z" />
    <glyph glyph-name="Wdieresis" unicode="&#x1e84;" horiz-adv-x="802" 
d="M634 563h148l-104 -563h-223l-53 387l-47 -387h-224l-111 563h148l74 -506l85 503l-1 3h150l91 -506zM300 625c-30 0 -50.167 7.5 -60.5 22.5s-15.5 32.833 -15.5 53.5c0 19.333 5.16699 36.5 15.5 51.5s30.5 22.5 60.5 22.5s49.833 -7.5 59.5 -22.5
s14.5 -32.167 14.5 -51.5c0 -20.667 -4.83301 -38.5 -14.5 -53.5s-29.5 -22.5 -59.5 -22.5zM506 625c-30 0 -50.167 7.5 -60.5 22.5s-15.5 32.833 -15.5 53.5c0 19.333 5.16699 36.5 15.5 51.5s30.5 22.5 60.5 22.5s49.833 -7.5 59.5 -22.5s14.5 -32.167 14.5 -51.5
c0 -20.667 -4.83301 -38.5 -14.5 -53.5s-29.5 -22.5 -59.5 -22.5z" />
    <glyph glyph-name="wdieresis" unicode="&#x1e85;" horiz-adv-x="669" 
d="M91 0l-82 395v21h138l44 -300h2l71 300h119l75 -300h2l45 300h137v-21l-86 -395h-193l-38 175h-2l-35 -175h-197zM223 456c-30 0 -50.167 7.5 -60.5 22.5s-15.5 32.833 -15.5 53.5c0 19.333 5.16699 36.5 15.5 51.5s30.5 22.5 60.5 22.5s49.833 -7.5 59.5 -22.5
s14.5 -32.167 14.5 -51.5c0 -20.667 -4.83301 -38.5 -14.5 -53.5s-29.5 -22.5 -59.5 -22.5zM429 456c-30 0 -50.167 7.5 -60.5 22.5s-15.5 32.833 -15.5 53.5c0 19.333 5.16699 36.5 15.5 51.5s30.5 22.5 60.5 22.5s49.833 -7.5 59.5 -22.5s14.5 -32.167 14.5 -51.5
c0 -20.667 -4.83301 -38.5 -14.5 -53.5s-29.5 -22.5 -59.5 -22.5z" />
    <glyph glyph-name="uni1EA0" unicode="&#x1ea0;" horiz-adv-x="591" 
d="M18 0l162 563h229l168 -563h-149l-37 141h-187l-36 -141h-150zM297 505l-66 -258h133zM289 -200c-26 0 -43.5 6.5 -52.5 19.5s-13.5 28.5 -13.5 46.5c0 17.333 4.5 32.333 13.5 45s26.5 19 52.5 19s43.167 -6.33301 51.5 -19s12.5 -27.667 12.5 -45
c0 -18 -4.16699 -33.5 -12.5 -46.5s-25.5 -19.5 -51.5 -19.5z" />
    <glyph glyph-name="uni1EA1" unicode="&#x1ea1;" horiz-adv-x="480" 
d="M174 -10c-56.667 0 -95.832 18.834 -117.499 56.501s-32.5 88.834 -32.5 153.501c0 43.333 4.66699 81 14 113s25 56.833 47 74.5s51.667 26.5 89 26.5c27.333 0 49.5 -3.83301 66.5 -11.5s30.167 -16.5 39.5 -26.5s15.666 -18.833 18.999 -26.5l5 -11.5h2v76h144v-414
h-122l-22 56h-2c0.666992 0 -1 -3.33301 -5 -10s-10.833 -14.334 -20.5 -23.001s-23 -16.334 -40 -23.001s-38.5 -10 -64.5 -10zM233.002 105.001c22.667 0 39.167 4.5 49.5 13.5s16.833 20.833 19.5 35.5s4 29.667 4 45c0 16 -1.33301 31.167 -4 45.5
s-9.16699 25.833 -19.5 34.5s-26.833 13 -49.5 13s-39.167 -4.5 -49.5 -13.5s-16.833 -20.5 -19.5 -34.5s-4 -29 -4 -45s1.33301 -31.167 4 -45.5s9.16699 -26 19.5 -35s26.833 -13.5 49.5 -13.5zM232.002 -199.999c-26 0 -43.5 6.5 -52.5 19.5s-13.5 28.5 -13.5 46.5
c0 17.333 4.5 32.333 13.5 45s26.5 19 52.5 19s43.167 -6.33301 51.5 -19s12.5 -27.667 12.5 -45c0 -18 -4.16699 -33.5 -12.5 -46.5s-25.5 -19.5 -51.5 -19.5z" />
    <glyph glyph-name="uni1EA2" unicode="&#x1ea2;" horiz-adv-x="591" 
d="M18 0l162 563h229l168 -563h-149l-37 141h-187l-36 -141h-150zM297 505l-66 -258h133zM256 620l-0.00292969 20.001c4.66699 8.66699 12.334 16 23.001 22s20.834 12.667 30.501 20s14.5 17 14.5 29c0 10.667 -5.16699 17.5 -15.5 20.5s-21.5 2.66699 -33.5 -1
s-20.667 -10.834 -26 -21.501l-52 37c6 20.667 16.833 36.834 32.5 48.501s33.5 19 53.5 22s39.333 1.83301 58 -3.5s34.167 -15.333 46.5 -30s18.5 -33.667 18.5 -57c0 -22 -4.33301 -38.833 -13 -50.5s-18.167 -21.334 -28.5 -29.001s-18.166 -16.5 -23.499 -26.5h-85z
" />
    <glyph glyph-name="uni1EA3" unicode="&#x1ea3;" horiz-adv-x="480" 
d="M174 -10c-56.667 0 -95.832 18.834 -117.499 56.501s-32.5 88.834 -32.5 153.501c0 43.333 4.66699 81 14 113s25 56.833 47 74.5s51.667 26.5 89 26.5c27.333 0 49.5 -3.83301 66.5 -11.5s30.167 -16.5 39.5 -26.5s15.666 -18.833 18.999 -26.5l5 -11.5h2v76h144v-414
h-122l-22 56h-2c0.666992 0 -1 -3.33301 -5 -10s-10.833 -14.334 -20.5 -23.001s-23 -16.334 -40 -23.001s-38.5 -10 -64.5 -10zM233.002 105.001c22.667 0 39.167 4.5 49.5 13.5s16.833 20.833 19.5 35.5s4 29.667 4 45c0 16 -1.33301 31.167 -4 45.5
s-9.16699 25.833 -19.5 34.5s-26.833 13 -49.5 13s-39.167 -4.5 -49.5 -13.5s-16.833 -20.5 -19.5 -34.5s-4 -29 -4 -45s1.33301 -31.167 4 -45.5s9.16699 -26 19.5 -35s26.833 -13.5 49.5 -13.5zM197.002 471.001l-0.00292969 20.001c4.66699 8.66699 12.334 16 23.001 22
s20.834 12.667 30.501 20s14.5 17 14.5 29c0 10.667 -5.16699 17.5 -15.5 20.5s-21.5 2.66699 -33.5 -1s-20.667 -10.834 -26 -21.501l-52 37c6 20.667 16.833 36.834 32.5 48.501s33.5 19 53.5 22s39.333 1.83301 58 -3.5s34.167 -15.333 46.5 -30s18.5 -33.667 18.5 -57
c0 -22 -4.33301 -38.833 -13 -50.5s-18.167 -21.334 -28.5 -29.001s-18.166 -16.5 -23.499 -26.5h-85z" />
    <glyph glyph-name="uni1EA4" unicode="&#x1ea4;" horiz-adv-x="591" 
d="M18 0l162 563h229l168 -563h-149l-37 141h-187l-36 -141h-150zM297 505l-66 -258h133zM141 617v10l127 114h58l126 -114v-10h-120l-32 36h-6l-29 -36h-124zM454 717h-62v17l39 97h115v-22z" />
    <glyph glyph-name="uni1EA5" unicode="&#x1ea5;" horiz-adv-x="480" 
d="M174 -10c-56.667 0 -95.832 18.834 -117.499 56.501s-32.5 88.834 -32.5 153.501c0 43.333 4.66699 81 14 113s25 56.833 47 74.5s51.667 26.5 89 26.5c27.333 0 49.5 -3.83301 66.5 -11.5s30.167 -16.5 39.5 -26.5s15.666 -18.833 18.999 -26.5l5 -11.5h2v76h144v-414
h-122l-22 56h-2c0.666992 0 -1 -3.33301 -5 -10s-10.833 -14.334 -20.5 -23.001s-23 -16.334 -40 -23.001s-38.5 -10 -64.5 -10zM233.002 105.001c22.667 0 39.167 4.5 49.5 13.5s16.833 20.833 19.5 35.5s4 29.667 4 45c0 16 -1.33301 31.167 -4 45.5
s-9.16699 25.833 -19.5 34.5s-26.833 13 -49.5 13s-39.167 -4.5 -49.5 -13.5s-16.833 -20.5 -19.5 -34.5s-4 -29 -4 -45s1.33301 -31.167 4 -45.5s9.16699 -26 19.5 -35s26.833 -13.5 49.5 -13.5zM84.002 464.001v10l127 114h58l126 -114v-10h-120l-32 36h-6l-29 -36h-124z
M397.002 564.001h-62v17l39 97h115v-22z" />
    <glyph glyph-name="uni1EA6" unicode="&#x1ea6;" horiz-adv-x="591" 
d="M18 0l162 563h229l168 -563h-149l-37 141h-187l-36 -141h-150zM297 505l-66 -258h133zM121 716l-92 92v22h115l39 -97v-17h-62zM141 617v10l127 114h58l126 -114v-10h-120l-32 36h-6l-29 -36h-124z" />
    <glyph glyph-name="uni1EA7" unicode="&#x1ea7;" horiz-adv-x="480" 
d="M174 -10c-56.667 0 -95.832 18.834 -117.499 56.501s-32.5 88.834 -32.5 153.501c0 43.333 4.66699 81 14 113s25 56.833 47 74.5s51.667 26.5 89 26.5c27.333 0 49.5 -3.83301 66.5 -11.5s30.167 -16.5 39.5 -26.5s15.666 -18.833 18.999 -26.5l5 -11.5h2v76h144v-414
h-122l-22 56h-2c0.666992 0 -1 -3.33301 -5 -10s-10.833 -14.334 -20.5 -23.001s-23 -16.334 -40 -23.001s-38.5 -10 -64.5 -10zM233.002 105.001c22.667 0 39.167 4.5 49.5 13.5s16.833 20.833 19.5 35.5s4 29.667 4 45c0 16 -1.33301 31.167 -4 45.5
s-9.16699 25.833 -19.5 34.5s-26.833 13 -49.5 13s-39.167 -4.5 -49.5 -13.5s-16.833 -20.5 -19.5 -34.5s-4 -29 -4 -45s1.33301 -31.167 4 -45.5s9.16699 -26 19.5 -35s26.833 -13.5 49.5 -13.5zM64.002 563.001l-92 92v22h115l39 -97v-17h-62zM84.002 464.001v10l127 114
h58l126 -114v-10h-120l-32 36h-6l-29 -36h-124z" />
    <glyph glyph-name="uni1EA8" unicode="&#x1ea8;" horiz-adv-x="591" 
d="M18 0l162 563h229l168 -563h-149l-37 141h-187l-36 -141h-150zM297 505l-66 -258h133zM141 617v10l127 114h58l126 -114v-10h-120l-32 36h-6l-29 -36h-124zM383 716l-0.00292969 20.001c4.66699 8.66699 12.334 16 23.001 22s20.834 12.667 30.501 20s14.5 17 14.5 29
c0 10.667 -5.16699 17.5 -15.5 20.5s-21.5 2.66699 -33.5 -1s-20.667 -10.834 -26 -21.501l-52 37c6 20.667 16.833 36.834 32.5 48.501s33.5 19 53.5 22s39.333 1.83301 58 -3.5s34.167 -15.333 46.5 -30s18.5 -33.667 18.5 -57c0 -22 -4.33301 -38.833 -13 -50.5
s-18.167 -21.334 -28.5 -29.001s-18.166 -16.5 -23.499 -26.5h-85z" />
    <glyph glyph-name="uni1EA9" unicode="&#x1ea9;" horiz-adv-x="480" 
d="M174 -10c-56.667 0 -95.832 18.834 -117.499 56.501s-32.5 88.834 -32.5 153.501c0 43.333 4.66699 81 14 113s25 56.833 47 74.5s51.667 26.5 89 26.5c27.333 0 49.5 -3.83301 66.5 -11.5s30.167 -16.5 39.5 -26.5s15.666 -18.833 18.999 -26.5l5 -11.5h2v76h144v-414
h-122l-22 56h-2c0.666992 0 -1 -3.33301 -5 -10s-10.833 -14.334 -20.5 -23.001s-23 -16.334 -40 -23.001s-38.5 -10 -64.5 -10zM233.002 105.001c22.667 0 39.167 4.5 49.5 13.5s16.833 20.833 19.5 35.5s4 29.667 4 45c0 16 -1.33301 31.167 -4 45.5
s-9.16699 25.833 -19.5 34.5s-26.833 13 -49.5 13s-39.167 -4.5 -49.5 -13.5s-16.833 -20.5 -19.5 -34.5s-4 -29 -4 -45s1.33301 -31.167 4 -45.5s9.16699 -26 19.5 -35s26.833 -13.5 49.5 -13.5zM84.002 464.001v10l127 114h58l126 -114v-10h-120l-32 36h-6l-29 -36h-124z
M326.002 563.001l-0.00292969 20.001c4.66699 8.66699 12.334 16 23.001 22s20.834 12.667 30.501 20s14.5 17 14.5 29c0 10.667 -5.16699 17.5 -15.5 20.5s-21.5 2.66699 -33.5 -1s-20.667 -10.834 -26 -21.501l-52 37c6 20.667 16.833 36.834 32.5 48.501s33.5 19 53.5 22
s39.333 1.83301 58 -3.5s34.167 -15.333 46.5 -30s18.5 -33.667 18.5 -57c0 -22 -4.33301 -38.833 -13 -50.5s-18.167 -21.334 -28.5 -29.001s-18.166 -16.5 -23.499 -26.5h-85z" />
    <glyph glyph-name="uni1EAA" unicode="&#x1eaa;" horiz-adv-x="591" 
d="M18 0l162 563h229l168 -563h-149l-37 141h-187l-36 -141h-150zM297 505l-66 -258h133zM141 617v10l127 114h58l126 -114v-10h-120l-32 36h-6l-29 -36h-124zM350 765c-18.667 0 -33.335 2.99902 -44.002 8.99902s-19.334 12.667 -26.001 20l-18 20
c-5.33301 6 -12.666 9 -21.999 9c-10.667 0 -16.834 -4.5 -18.501 -13.5s-2.5 -22.167 -2.5 -39.5h-78c0 8 0.166992 19.167 0.5 33.5s2.83301 29 7.5 44s13.334 27.833 26.001 38.5s31.334 16 56.001 16c18.667 0 33.5 -3 44.5 -9s19.833 -12.667 26.5 -20l19 -20
c6 -6 13 -9 21 -9c10 0 15.833 4.83301 17.5 14.5s2.5 22.834 2.5 39.501h78c0 -12.667 -0.5 -26.5 -1.5 -41.5s-4.16699 -29.5 -9.5 -43.5s-14.166 -25.5 -26.499 -34.5s-29.833 -13.5 -52.5 -13.5z" />
    <glyph glyph-name="uni1EAB" unicode="&#x1eab;" horiz-adv-x="480" 
d="M174 -10c-56.667 0 -95.832 18.834 -117.499 56.501s-32.5 88.834 -32.5 153.501c0 43.333 4.66699 81 14 113s25 56.833 47 74.5s51.667 26.5 89 26.5c27.333 0 49.5 -3.83301 66.5 -11.5s30.167 -16.5 39.5 -26.5s15.666 -18.833 18.999 -26.5l5 -11.5h2v76h144v-414
h-122l-22 56h-2c0.666992 0 -1 -3.33301 -5 -10s-10.833 -14.334 -20.5 -23.001s-23 -16.334 -40 -23.001s-38.5 -10 -64.5 -10zM233.002 105.001c22.667 0 39.167 4.5 49.5 13.5s16.833 20.833 19.5 35.5s4 29.667 4 45c0 16 -1.33301 31.167 -4 45.5
s-9.16699 25.833 -19.5 34.5s-26.833 13 -49.5 13s-39.167 -4.5 -49.5 -13.5s-16.833 -20.5 -19.5 -34.5s-4 -29 -4 -45s1.33301 -31.167 4 -45.5s9.16699 -26 19.5 -35s26.833 -13.5 49.5 -13.5zM84.002 464.001v10l127 114h58l126 -114v-10h-120l-32 36h-6l-29 -36h-124z
M293.002 612.001c-18.667 0 -33.335 2.99902 -44.002 8.99902s-19.334 12.667 -26.001 20l-18 20c-5.33301 6 -12.666 9 -21.999 9c-10.667 0 -16.834 -4.5 -18.501 -13.5s-2.5 -22.167 -2.5 -39.5h-78c0 8 0.166992 19.167 0.5 33.5s2.83301 29 7.5 44
s13.334 27.833 26.001 38.5s31.334 16 56.001 16c18.667 0 33.5 -3 44.5 -9s19.833 -12.667 26.5 -20l19 -20c6 -6 13 -9 21 -9c10 0 15.833 4.83301 17.5 14.5s2.5 22.834 2.5 39.501h78c0 -12.667 -0.5 -26.5 -1.5 -41.5s-4.16699 -29.5 -9.5 -43.5
s-14.166 -25.5 -26.499 -34.5s-29.833 -13.5 -52.5 -13.5z" />
    <glyph glyph-name="uni1EAC" unicode="&#x1eac;" horiz-adv-x="591" 
d="M18 0l162 563h229l168 -563h-149l-37 141h-187l-36 -141h-150zM297 505l-66 -258h133zM289 -200c-26 0 -43.5 6.5 -52.5 19.5s-13.5 28.5 -13.5 46.5c0 17.333 4.5 32.333 13.5 45s26.5 19 52.5 19s43.167 -6.33301 51.5 -19s12.5 -27.667 12.5 -45
c0 -18 -4.16699 -33.5 -12.5 -46.5s-25.5 -19.5 -51.5 -19.5zM141 617v10l127 114h58l126 -114v-10h-120l-32 36h-6l-29 -36h-124z" />
    <glyph glyph-name="uni1EAD" unicode="&#x1ead;" horiz-adv-x="480" 
d="M174 -10c-56.667 0 -95.832 18.834 -117.499 56.501s-32.5 88.834 -32.5 153.501c0 43.333 4.66699 81 14 113s25 56.833 47 74.5s51.667 26.5 89 26.5c27.333 0 49.5 -3.83301 66.5 -11.5s30.167 -16.5 39.5 -26.5s15.666 -18.833 18.999 -26.5l5 -11.5h2v76h144v-414
h-122l-22 56h-2c0.666992 0 -1 -3.33301 -5 -10s-10.833 -14.334 -20.5 -23.001s-23 -16.334 -40 -23.001s-38.5 -10 -64.5 -10zM233.002 105.001c22.667 0 39.167 4.5 49.5 13.5s16.833 20.833 19.5 35.5s4 29.667 4 45c0 16 -1.33301 31.167 -4 45.5
s-9.16699 25.833 -19.5 34.5s-26.833 13 -49.5 13s-39.167 -4.5 -49.5 -13.5s-16.833 -20.5 -19.5 -34.5s-4 -29 -4 -45s1.33301 -31.167 4 -45.5s9.16699 -26 19.5 -35s26.833 -13.5 49.5 -13.5zM84.002 464.001v10l127 114h58l126 -114v-10h-120l-32 36h-6l-29 -36h-124z
M232.002 -199.999c-26 0 -43.5 6.5 -52.5 19.5s-13.5 28.5 -13.5 46.5c0 17.333 4.5 32.333 13.5 45s26.5 19 52.5 19s43.167 -6.33301 51.5 -19s12.5 -27.667 12.5 -45c0 -18 -4.16699 -33.5 -12.5 -46.5s-25.5 -19.5 -51.5 -19.5z" />
    <glyph glyph-name="uni1EAE" unicode="&#x1eae;" horiz-adv-x="591" 
d="M18 0l162 563h229l168 -563h-149l-37 141h-187l-36 -141h-150zM297 505l-66 -258h133zM298 625c-46.667 0 -82.833 10.667 -108.5 32s-38.5 50.333 -38.5 87h97c0 -16.667 4.66699 -28.5 14 -35.5s21.333 -10.5 36 -10.5c15.333 0 27.333 3.33301 36 10s13 18.667 13 36
h97c0 -36.667 -12.5 -65.667 -37.5 -87s-61.167 -32 -108.5 -32zM326.001 766h-62v17l39 97h115v-22z" />
    <glyph glyph-name="uni1EAF" unicode="&#x1eaf;" horiz-adv-x="480" 
d="M174 -10c-56.667 0 -95.832 18.834 -117.499 56.501s-32.5 88.834 -32.5 153.501c0 43.333 4.66699 81 14 113s25 56.833 47 74.5s51.667 26.5 89 26.5c27.333 0 49.5 -3.83301 66.5 -11.5s30.167 -16.5 39.5 -26.5s15.666 -18.833 18.999 -26.5l5 -11.5h2v76h144v-414
h-122l-22 56h-2c0.666992 0 -1 -3.33301 -5 -10s-10.833 -14.334 -20.5 -23.001s-23 -16.334 -40 -23.001s-38.5 -10 -64.5 -10zM233.002 105.001c22.667 0 39.167 4.5 49.5 13.5s16.833 20.833 19.5 35.5s4 29.667 4 45c0 16 -1.33301 31.167 -4 45.5
s-9.16699 25.833 -19.5 34.5s-26.833 13 -49.5 13s-39.167 -4.5 -49.5 -13.5s-16.833 -20.5 -19.5 -34.5s-4 -29 -4 -45s1.33301 -31.167 4 -45.5s9.16699 -26 19.5 -35s26.833 -13.5 49.5 -13.5zM239.002 464.001c-46.667 0 -82.833 10.667 -108.5 32
s-38.5 50.333 -38.5 87h97c0 -16.667 4.66699 -28.5 14 -35.5s21.333 -10.5 36 -10.5c15.333 0 27.333 3.33301 36 10s13 18.667 13 36h97c0 -36.667 -12.5 -65.667 -37.5 -87s-61.167 -32 -108.5 -32zM267.003 605.001h-62v17l39 97h115v-22z" />
    <glyph glyph-name="uni1EB0" unicode="&#x1eb0;" horiz-adv-x="591" 
d="M18 0l162 563h229l168 -563h-149l-37 141h-187l-36 -141h-150zM297 505l-66 -258h133zM298 625c-46.667 0 -82.833 10.667 -108.5 32s-38.5 50.333 -38.5 87h97c0 -16.667 4.66699 -28.5 14 -35.5s21.333 -10.5 36 -10.5c15.333 0 27.333 3.33301 36 10s13 18.667 13 36
h97c0 -36.667 -12.5 -65.667 -37.5 -87s-61.167 -32 -108.5 -32zM268.001 766l-92 92v22h115l39 -97v-17h-62z" />
    <glyph glyph-name="uni1EB1" unicode="&#x1eb1;" horiz-adv-x="480" 
d="M174 -10c-56.667 0 -95.832 18.834 -117.499 56.501s-32.5 88.834 -32.5 153.501c0 43.333 4.66699 81 14 113s25 56.833 47 74.5s51.667 26.5 89 26.5c27.333 0 49.5 -3.83301 66.5 -11.5s30.167 -16.5 39.5 -26.5s15.666 -18.833 18.999 -26.5l5 -11.5h2v76h144v-414
h-122l-22 56h-2c0.666992 0 -1 -3.33301 -5 -10s-10.833 -14.334 -20.5 -23.001s-23 -16.334 -40 -23.001s-38.5 -10 -64.5 -10zM233.002 105.001c22.667 0 39.167 4.5 49.5 13.5s16.833 20.833 19.5 35.5s4 29.667 4 45c0 16 -1.33301 31.167 -4 45.5
s-9.16699 25.833 -19.5 34.5s-26.833 13 -49.5 13s-39.167 -4.5 -49.5 -13.5s-16.833 -20.5 -19.5 -34.5s-4 -29 -4 -45s1.33301 -31.167 4 -45.5s9.16699 -26 19.5 -35s26.833 -13.5 49.5 -13.5zM239.002 464.001c-46.667 0 -82.833 10.667 -108.5 32
s-38.5 50.333 -38.5 87h97c0 -16.667 4.66699 -28.5 14 -35.5s21.333 -10.5 36 -10.5c15.333 0 27.333 3.33301 36 10s13 18.667 13 36h97c0 -36.667 -12.5 -65.667 -37.5 -87s-61.167 -32 -108.5 -32zM209.003 605.001l-92 92v22h115l39 -97v-17h-62z" />
    <glyph glyph-name="uni1EB2" unicode="&#x1eb2;" horiz-adv-x="591" 
d="M18 0l162 563h229l168 -563h-149l-37 141h-187l-36 -141h-150zM297 505l-66 -258h133zM297 625c-46.667 0 -82.833 10.667 -108.5 32s-38.5 50.333 -38.5 87h97c0 -16.667 4.66699 -28.5 14 -35.5s21.333 -10.5 36 -10.5c15.333 0 27.333 3.33301 36 10s13 18.667 13 36
h97c0 -36.667 -12.5 -65.667 -37.5 -87s-61.167 -32 -108.5 -32zM258.001 764l-0.00292969 20.001c4.66699 8.66699 12.334 16 23.001 22s20.834 12.667 30.501 20s14.5 17 14.5 29c0 10.667 -5.16699 17.5 -15.5 20.5s-21.5 2.66699 -33.5 -1s-20.667 -10.834 -26 -21.501
l-52 37c6 20.667 16.833 36.834 32.5 48.501s33.5 19 53.5 22s39.333 1.83301 58 -3.5s34.167 -15.333 46.5 -30s18.5 -33.667 18.5 -57c0 -22 -4.33301 -38.833 -13 -50.5s-18.167 -21.334 -28.5 -29.001s-18.166 -16.5 -23.499 -26.5h-85z" />
    <glyph glyph-name="uni1EB3" unicode="&#x1eb3;" horiz-adv-x="480" 
d="M174 -10c-56.667 0 -95.832 18.834 -117.499 56.501s-32.5 88.834 -32.5 153.501c0 43.333 4.66699 81 14 113s25 56.833 47 74.5s51.667 26.5 89 26.5c27.333 0 49.5 -3.83301 66.5 -11.5s30.167 -16.5 39.5 -26.5s15.666 -18.833 18.999 -26.5l5 -11.5h2v76h144v-414
h-122l-22 56h-2c0.666992 0 -1 -3.33301 -5 -10s-10.833 -14.334 -20.5 -23.001s-23 -16.334 -40 -23.001s-38.5 -10 -64.5 -10zM233.002 105.001c22.667 0 39.167 4.5 49.5 13.5s16.833 20.833 19.5 35.5s4 29.667 4 45c0 16 -1.33301 31.167 -4 45.5
s-9.16699 25.833 -19.5 34.5s-26.833 13 -49.5 13s-39.167 -4.5 -49.5 -13.5s-16.833 -20.5 -19.5 -34.5s-4 -29 -4 -45s1.33301 -31.167 4 -45.5s9.16699 -26 19.5 -35s26.833 -13.5 49.5 -13.5zM239.002 464.001c-46.667 0 -82.833 10.667 -108.5 32
s-38.5 50.333 -38.5 87h97c0 -16.667 4.66699 -28.5 14 -35.5s21.333 -10.5 36 -10.5c15.333 0 27.333 3.33301 36 10s13 18.667 13 36h97c0 -36.667 -12.5 -65.667 -37.5 -87s-61.167 -32 -108.5 -32zM200.003 603.001l-0.00292969 20.001
c4.66699 8.66699 12.334 16 23.001 22s20.834 12.667 30.501 20s14.5 17 14.5 29c0 10.667 -5.16699 17.5 -15.5 20.5s-21.5 2.66699 -33.5 -1s-20.667 -10.834 -26 -21.501l-52 37c6 20.667 16.833 36.834 32.5 48.501s33.5 19 53.5 22s39.333 1.83301 58 -3.5
s34.167 -15.333 46.5 -30s18.5 -33.667 18.5 -57c0 -22 -4.33301 -38.833 -13 -50.5s-18.167 -21.334 -28.5 -29.001s-18.166 -16.5 -23.499 -26.5h-85z" />
    <glyph glyph-name="uni1EB4" unicode="&#x1eb4;" horiz-adv-x="591" 
d="M18 0l162 563h229l168 -563h-149l-37 141h-187l-36 -141h-150zM297 505l-66 -258h133zM298 625c-46.667 0 -82.833 10.667 -108.5 32s-38.5 50.333 -38.5 87h97c0 -16.667 4.66699 -28.5 14 -35.5s21.333 -10.5 36 -10.5c15.333 0 27.333 3.33301 36 10s13 18.667 13 36
h97c0 -36.667 -12.5 -65.667 -37.5 -87s-61.167 -32 -108.5 -32zM354.001 793c-18.667 0 -33.335 2.99902 -44.002 8.99902s-19.334 12.667 -26.001 20l-18 20c-5.33301 6 -12.666 9 -21.999 9c-10.667 0 -16.834 -4.5 -18.501 -13.5s-2.5 -22.167 -2.5 -39.5h-78
c0 8 0.166992 19.167 0.5 33.5s2.83301 29 7.5 44s13.334 27.833 26.001 38.5s31.334 16 56.001 16c18.667 0 33.5 -3 44.5 -9s19.833 -12.667 26.5 -20l19 -20c6 -6 13 -9 21 -9c10 0 15.833 4.83301 17.5 14.5s2.5 22.834 2.5 39.501h78c0 -12.667 -0.5 -26.5 -1.5 -41.5
s-4.16699 -29.5 -9.5 -43.5s-14.166 -25.5 -26.499 -34.5s-29.833 -13.5 -52.5 -13.5z" />
    <glyph glyph-name="uni1EB5" unicode="&#x1eb5;" horiz-adv-x="480" 
d="M174 -10c-56.667 0 -95.832 18.834 -117.499 56.501s-32.5 88.834 -32.5 153.501c0 43.333 4.66699 81 14 113s25 56.833 47 74.5s51.667 26.5 89 26.5c27.333 0 49.5 -3.83301 66.5 -11.5s30.167 -16.5 39.5 -26.5s15.666 -18.833 18.999 -26.5l5 -11.5h2v76h144v-414
h-122l-22 56h-2c0.666992 0 -1 -3.33301 -5 -10s-10.833 -14.334 -20.5 -23.001s-23 -16.334 -40 -23.001s-38.5 -10 -64.5 -10zM233.002 105.001c22.667 0 39.167 4.5 49.5 13.5s16.833 20.833 19.5 35.5s4 29.667 4 45c0 16 -1.33301 31.167 -4 45.5
s-9.16699 25.833 -19.5 34.5s-26.833 13 -49.5 13s-39.167 -4.5 -49.5 -13.5s-16.833 -20.5 -19.5 -34.5s-4 -29 -4 -45s1.33301 -31.167 4 -45.5s9.16699 -26 19.5 -35s26.833 -13.5 49.5 -13.5zM233.002 464.001c-46.667 0 -82.833 10.667 -108.5 32
s-38.5 50.333 -38.5 87h97c0 -16.667 4.66699 -28.5 14 -35.5s21.333 -10.5 36 -10.5c15.333 0 27.333 3.33301 36 10s13 18.667 13 36h97c0 -36.667 -12.5 -65.667 -37.5 -87s-61.167 -32 -108.5 -32zM289.003 632.001c-18.667 0 -33.335 2.99902 -44.002 8.99902
s-19.334 12.667 -26.001 20l-18 20c-5.33301 6 -12.666 9 -21.999 9c-10.667 0 -16.834 -4.5 -18.501 -13.5s-2.5 -22.167 -2.5 -39.5h-78c0 8 0.166992 19.167 0.5 33.5s2.83301 29 7.5 44s13.334 27.833 26.001 38.5s31.334 16 56.001 16c18.667 0 33.5 -3 44.5 -9
s19.833 -12.667 26.5 -20l19 -20c6 -6 13 -9 21 -9c10 0 15.833 4.83301 17.5 14.5s2.5 22.834 2.5 39.501h78c0 -12.667 -0.5 -26.5 -1.5 -41.5s-4.16699 -29.5 -9.5 -43.5s-14.166 -25.5 -26.499 -34.5s-29.833 -13.5 -52.5 -13.5z" />
    <glyph glyph-name="uni1EB6" unicode="&#x1eb6;" horiz-adv-x="591" 
d="M18 0l162 563h229l168 -563h-149l-37 141h-187l-36 -141h-150zM297 505l-66 -258h133zM289 -200c-26 0 -43.5 6.5 -52.5 19.5s-13.5 28.5 -13.5 46.5c0 17.333 4.5 32.333 13.5 45s26.5 19 52.5 19s43.167 -6.33301 51.5 -19s12.5 -27.667 12.5 -45
c0 -18 -4.16699 -33.5 -12.5 -46.5s-25.5 -19.5 -51.5 -19.5zM298 625c-46.667 0 -82.833 10.667 -108.5 32s-38.5 50.333 -38.5 87h97c0 -16.667 4.66699 -28.5 14 -35.5s21.333 -10.5 36 -10.5c15.333 0 27.333 3.33301 36 10s13 18.667 13 36h97
c0 -36.667 -12.5 -65.667 -37.5 -87s-61.167 -32 -108.5 -32z" />
    <glyph glyph-name="uni1EB7" unicode="&#x1eb7;" horiz-adv-x="480" 
d="M174 -10c-56.667 0 -95.832 18.834 -117.499 56.501s-32.5 88.834 -32.5 153.501c0 43.333 4.66699 81 14 113s25 56.833 47 74.5s51.667 26.5 89 26.5c27.333 0 49.5 -3.83301 66.5 -11.5s30.167 -16.5 39.5 -26.5s15.666 -18.833 18.999 -26.5l5 -11.5h2v76h144v-414
h-122l-22 56h-2c0.666992 0 -1 -3.33301 -5 -10s-10.833 -14.334 -20.5 -23.001s-23 -16.334 -40 -23.001s-38.5 -10 -64.5 -10zM233.002 105.001c22.667 0 39.167 4.5 49.5 13.5s16.833 20.833 19.5 35.5s4 29.667 4 45c0 16 -1.33301 31.167 -4 45.5
s-9.16699 25.833 -19.5 34.5s-26.833 13 -49.5 13s-39.167 -4.5 -49.5 -13.5s-16.833 -20.5 -19.5 -34.5s-4 -29 -4 -45s1.33301 -31.167 4 -45.5s9.16699 -26 19.5 -35s26.833 -13.5 49.5 -13.5zM239.002 464.001c-46.667 0 -82.833 10.667 -108.5 32
s-38.5 50.333 -38.5 87h97c0 -16.667 4.66699 -28.5 14 -35.5s21.333 -10.5 36 -10.5c15.333 0 27.333 3.33301 36 10s13 18.667 13 36h97c0 -36.667 -12.5 -65.667 -37.5 -87s-61.167 -32 -108.5 -32zM232.003 -199.999c-26 0 -43.5 6.5 -52.5 19.5s-13.5 28.5 -13.5 46.5
c0 17.333 4.5 32.333 13.5 45s26.5 19 52.5 19s43.167 -6.33301 51.5 -19s12.5 -27.667 12.5 -45c0 -18 -4.16699 -33.5 -12.5 -46.5s-25.5 -19.5 -51.5 -19.5z" />
    <glyph glyph-name="uni1EB8" unicode="&#x1eb8;" horiz-adv-x="523" 
d="M187 111h300v-111h-437v563h426v-119h-289v-103h215v-112h-215v-118zM257 -201c-26 0 -43.5 6.5 -52.5 19.5s-13.5 28.5 -13.5 46.5c0 17.333 4.5 32.333 13.5 45s26.5 19 52.5 19s43.167 -6.33301 51.5 -19s12.5 -27.667 12.5 -45c0 -18 -4.16699 -33.5 -12.5 -46.5
s-25.5 -19.5 -51.5 -19.5z" />
    </font>
</defs>
</svg>
