<svg width="365" height="130" viewBox="0 0 365 130" fill="none" xmlns="http://www.w3.org/2000/svg">
<path d="M20.9016 84L21.9941 82.3248L20.9016 84ZM7.30156 68.6L5.46925 69.4016L5.47942 69.4249L5.49018 69.4479L7.30156 68.6ZM2.70156 48.6L0.702427 48.6588L0.702693 48.6678L0.703041 48.6769L2.70156 48.6ZM7.50156 25.2L9.26826 26.1374L9.27216 26.1301L9.276 26.1227L7.50156 25.2ZM22.1016 10L23.0697 11.7501L23.0759 11.7466L23.0821 11.7431L22.1016 10ZM65.1016 9.59999L64.1465 11.3572L64.1691 11.3695L64.192 11.3812L65.1016 9.59999ZM79.7016 23.4L77.9698 24.4006L77.9781 24.4148L77.9866 24.429L79.7016 23.4ZM85.1016 50.2V52.2H87.1016V50.2H85.1016ZM29.1016 50.2V48.2H27.1016V50.2H29.1016ZM33.3016 63L31.9223 64.4483L31.9391 64.4643L31.9562 64.4799L33.3016 63ZM53.7016 64.4L54.9165 65.9887L54.923 65.9837L54.9295 65.9787L53.7016 64.4ZM57.9016 57.4V55.4H56.167L55.9217 57.1172L57.9016 57.4ZM84.9016 57.4L86.8969 57.536L87.0426 55.4H84.9016V57.4ZM79.7016 73.8L81.4001 74.8559L81.4064 74.8458L81.4126 74.8356L79.7016 73.8ZM66.5016 85.6L65.5906 83.8195L66.5016 85.6ZM29.5016 39L27.5138 38.7791L27.267 41H29.5016V39ZM57.1016 39V41H59.3361L59.0893 38.7791L57.1016 39ZM56.9016 37.2H54.9016V37.3108L54.9138 37.4209L56.9016 37.2ZM55.7016 33L57.4904 32.1056L55.7016 33ZM30.9016 33L29.1127 32.1056L29.0819 32.1672L29.0554 32.2308L30.9016 33ZM29.7016 37.2L27.7138 36.9791L29.7016 37.2ZM45.1016 88C35.352 88 27.7038 86.0485 21.9941 82.3248L19.809 85.6752C26.366 89.9515 34.8512 92 45.1016 92V88ZM21.9941 82.3248C16.1537 78.5159 11.879 73.6615 9.11294 67.7521L5.49018 69.4479C8.59076 76.0719 13.3827 81.4841 19.809 85.6752L21.9941 82.3248ZM9.13388 67.7984C6.4334 61.6258 4.95708 55.2049 4.70009 48.5231L0.703041 48.6769C0.979384 55.8618 2.56973 62.7742 5.46925 69.4016L9.13388 67.7984ZM4.7007 48.5412C4.44193 39.7432 5.99713 32.3023 9.26826 26.1374L5.73486 24.2626C2.07266 31.1644 0.427858 39.3234 0.702427 48.6588L4.7007 48.5412ZM9.276 26.1227C12.5706 19.787 17.1648 15.0166 23.0697 11.7501L21.1334 8.24992C14.505 11.9167 9.3659 17.2796 5.72713 24.2773L9.276 26.1227ZM23.0821 11.7431C29.1466 8.33186 36.1344 6.59999 44.1016 6.59999V2.6C35.5354 2.6 27.8565 4.46812 21.121 8.25685L23.0821 11.7431ZM44.1016 6.59999C51.6776 6.59999 58.3419 8.20255 64.1465 11.3572L66.0566 7.84274C59.5946 4.33078 52.2589 2.6 44.1016 2.6V6.59999ZM64.192 11.3812C70.1207 14.4086 74.6993 18.7401 77.9698 24.4006L81.4333 22.3994C77.7705 16.0599 72.6158 11.1914 66.0111 7.81879L64.192 11.3812ZM77.9866 24.429C81.3658 30.061 83.1016 36.8895 83.1016 45H87.1016C87.1016 36.3105 85.2373 28.739 81.4165 22.371L77.9866 24.429ZM83.1016 45V50.2H87.1016V45H83.1016ZM85.1016 48.2H29.1016V52.2H85.1016V48.2ZM27.1016 50.2C27.1016 56.3334 28.5605 61.2466 31.9223 64.4483L34.6809 61.5517C32.4426 59.4201 31.1016 55.7999 31.1016 50.2H27.1016ZM31.9562 64.4799C35.3106 67.5293 39.5472 69 44.5016 69V65C40.3893 65 37.1592 63.804 34.6469 61.5201L31.9562 64.4799ZM44.5016 69C48.653 69 52.1956 68.0694 54.9165 65.9887L52.4867 62.8113C50.6742 64.1973 48.0834 65 44.5016 65V69ZM54.9295 65.9787C57.7048 63.8201 59.4023 61.0367 59.8815 57.6828L55.9217 57.1172C55.6008 59.3633 54.4983 61.2466 52.4737 62.8213L54.9295 65.9787ZM57.9016 59.4H84.9016V55.4H57.9016V59.4ZM82.9062 57.2639C82.5281 62.81 80.8933 67.9686 77.9906 72.7644L81.4126 74.8356C84.6432 69.4981 86.4751 63.7233 86.8969 57.536L82.9062 57.2639ZM78.003 72.7441C75.1485 77.3361 71.0366 81.0332 65.5906 83.8195L67.4125 87.3805C73.4332 84.3002 78.1213 80.1306 81.4001 74.8559L78.003 72.7441ZM65.5906 83.8195C60.2157 86.5694 53.417 88 45.1016 88V92C53.8529 92 61.3207 90.4972 67.4125 87.3805L65.5906 83.8195ZM29.5016 41H57.1016V37H29.5016V41ZM57.1016 39C59.0893 38.7791 59.0893 38.7791 59.0893 38.7791C59.0893 38.7791 59.0893 38.7791 59.0893 38.7791C59.0893 38.7791 59.0893 38.7791 59.0893 38.7791C59.0893 38.7791 59.0893 38.779 59.0893 38.779C59.0893 38.779 59.0893 38.779 59.0893 38.779C59.0893 38.7789 59.0893 38.7789 59.0893 38.7789C59.0893 38.7789 59.0893 38.7788 59.0893 38.7788C59.0893 38.7788 59.0893 38.7787 59.0893 38.7787C59.0893 38.7787 59.0893 38.7786 59.0893 38.7786C59.0893 38.7785 59.0893 38.7785 59.0893 38.7784C59.0893 38.7784 59.0892 38.7784 59.0892 38.7783C59.0892 38.7782 59.0892 38.7782 59.0892 38.7781C59.089 38.7765 59.0893 38.7791 59.0891 38.7774C59.0886 38.7727 59.0894 38.7802 59.0889 38.7752C59.0884 38.7712 59.0892 38.7778 59.0887 38.7737C59.0884 38.7712 59.0889 38.7755 59.0886 38.7729C59.0878 38.7654 59.0894 38.7797 59.0886 38.7721C59.0859 38.7487 59.0903 38.7879 59.0876 38.7633C59.0855 38.7444 59.0894 38.7796 59.0873 38.7606C59.0866 38.7549 59.0877 38.7648 59.0871 38.7591C59.0871 38.7589 59.0871 38.7586 59.087 38.7584C59.087 38.7581 59.087 38.7579 59.0869 38.7576C59.0842 38.733 59.0893 38.7791 59.0866 38.7544C59.0863 38.7522 59.0865 38.7533 59.0862 38.751C59.0779 38.676 59.0912 38.7955 59.0823 38.7159C59.0678 38.5858 59.0943 38.8242 59.0798 38.693C59.0779 38.676 59.0788 38.6848 59.0768 38.6666C59.0574 38.4915 59.0671 38.5793 59.0393 38.3291C59.0061 38.0301 59.0184 38.1407 58.9768 37.7666C58.9674 37.6815 58.9839 37.8307 58.9745 37.7454C58.9743 37.7437 58.9741 37.7419 58.9739 37.7401C58.9737 37.7383 58.9735 37.7365 58.9733 37.7347C58.9731 37.733 58.9729 37.7312 58.9727 37.7294C58.9725 37.7276 58.9723 37.7258 58.9721 37.724C58.9673 37.6809 58.9745 37.7455 58.9697 37.7024C58.9599 37.6145 58.977 37.7684 58.9673 37.6805C58.951 37.534 58.9786 37.7829 58.9623 37.6361C58.9506 37.5306 58.9716 37.7192 58.9598 37.6136C58.9581 37.5985 58.959 37.606 58.9573 37.5909C58.9571 37.5889 58.9569 37.587 58.9567 37.5851C58.9565 37.5832 58.9562 37.5813 58.956 37.5794C58.9558 37.5775 58.9556 37.5756 58.9554 37.5737C58.9552 37.5717 58.955 37.5698 58.9547 37.5679C58.9427 37.4593 58.9642 37.6534 58.9522 37.5447C58.9349 37.3894 58.9642 37.6533 58.9469 37.4977C58.9328 37.37 58.9585 37.6016 58.9443 37.4738C58.9434 37.4659 58.9439 37.4698 58.943 37.4618C58.9427 37.4598 58.9425 37.4578 58.9423 37.4558C58.9421 37.4538 58.9418 37.4518 58.9416 37.4498C58.9273 37.3208 58.9533 37.5545 58.9389 37.4255C58.9244 37.2944 58.9508 37.5322 58.9362 37.401C58.9061 37.1298 58.9215 37.2691 58.8893 36.9791L54.9138 37.4209C54.9159 37.4396 54.9133 37.4162 54.9154 37.4349C54.9216 37.4907 54.9107 37.3931 54.9169 37.4489C54.9252 37.5231 54.9102 37.3885 54.9185 37.4628C54.9205 37.4813 54.9179 37.4582 54.92 37.4767C54.9261 37.5318 54.9154 37.4353 54.9215 37.4905C54.9307 37.5731 54.9139 37.4217 54.9231 37.5043C54.9261 37.5317 54.9215 37.4905 54.9246 37.518C54.9306 37.5724 54.92 37.4771 54.9261 37.5316C54.9352 37.6132 54.9185 37.4636 54.9276 37.5452C54.9306 37.5723 54.9261 37.5316 54.9291 37.5587C54.9341 37.6036 54.9256 37.5274 54.9306 37.5722C54.9386 37.6439 54.9241 37.514 54.9321 37.5857C54.9351 37.6125 54.9306 37.5722 54.9336 37.599C54.9385 37.6434 54.9301 37.5681 54.9351 37.6124C54.9353 37.6146 54.9356 37.6168 54.9358 37.619C54.9361 37.6212 54.9363 37.6234 54.9365 37.6256C54.9405 37.6609 54.9341 37.6035 54.938 37.6388C54.9532 37.7759 54.9344 37.6066 54.9495 37.7425C54.9498 37.7447 54.95 37.7468 54.9502 37.7489C54.9505 37.751 54.9507 37.7531 54.951 37.7553C54.9538 37.7805 54.9496 37.7427 54.9524 37.7679C54.9526 37.77 54.9528 37.7721 54.9531 37.7742C54.9533 37.7763 54.9535 37.7784 54.9538 37.7805C54.954 37.7826 54.9542 37.7847 54.9545 37.7868C54.9547 37.7889 54.9549 37.791 54.9552 37.7931C54.9579 37.818 54.9538 37.7807 54.9565 37.8056C54.9568 37.8077 54.957 37.8097 54.9572 37.8118C54.9575 37.8139 54.9577 37.8159 54.9579 37.818C54.9582 37.8201 54.9584 37.8222 54.9586 37.8242C54.9588 37.8263 54.9591 37.8284 54.9593 37.8304C54.9595 37.8325 54.9598 37.8345 54.96 37.8366C54.9602 37.8386 54.9604 37.8407 54.9607 37.8427C54.9609 37.8448 54.9611 37.8468 54.9614 37.8489C54.9616 37.8509 54.9618 37.853 54.962 37.855C54.9623 37.8571 54.9625 37.8591 54.9627 37.8611C54.9629 37.8632 54.9632 37.8652 54.9634 37.8672C54.9636 37.8693 54.9638 37.8713 54.9641 37.8733C54.9643 37.8754 54.9645 37.8774 54.9647 37.8794C54.965 37.8814 54.9652 37.8835 54.9654 37.8855C54.9656 37.8875 54.9659 37.8895 54.9661 37.8915C54.9663 37.8935 54.9665 37.8955 54.9668 37.8976C54.967 37.8996 54.9672 37.9016 54.9674 37.9036C54.9677 37.9056 54.9679 37.9076 54.9681 37.9096C54.9683 37.9116 54.9685 37.9136 54.9688 37.9156C54.969 37.9176 54.9692 37.9196 54.9694 37.9216C54.9697 37.9236 54.9699 37.9255 54.9701 37.9275C54.9703 37.9295 54.9705 37.9315 54.9708 37.9335C54.971 37.9355 54.9712 37.9374 54.9714 37.9394C54.9851 38.0625 54.9682 37.9107 54.9818 38.0326C54.9852 38.0631 54.9796 38.0135 54.983 38.044C54.9881 38.0893 54.9793 38.0101 54.9843 38.0553C54.9845 38.0572 54.9847 38.0591 54.9849 38.061C54.9851 38.0629 54.9853 38.0647 54.9855 38.0666C54.9897 38.1042 54.9826 38.0403 54.9868 38.0779C54.9901 38.1076 54.9847 38.0593 54.988 38.089C54.9946 38.1484 54.9827 38.0408 54.9893 38.1001C54.9934 38.1371 54.9864 38.0742 54.9905 38.1112C54.9929 38.1332 54.9893 38.1003 54.9917 38.1222C54.999 38.188 54.9856 38.0675 54.9929 38.1332C54.9978 38.1769 54.9893 38.1004 54.9942 38.1441C54.9958 38.1585 54.9938 38.1405 54.9954 38.1549C55.0026 38.2197 54.9894 38.101 54.9966 38.1657C55.0013 38.2088 54.993 38.1334 54.9978 38.1765C54.9993 38.1907 54.9974 38.173 54.9989 38.1872C55.0052 38.2439 54.9938 38.1411 55.0001 38.1978C55.0072 38.2614 54.9942 38.1448 55.0013 38.2084C55.0074 38.2634 55.0045 38.2371 55.0105 38.291C55.0239 38.4116 54.9993 38.1905 55.0127 38.3111C55.0194 38.3709 55.0072 38.2612 55.0138 38.3211C55.014 38.3227 55.0142 38.3244 55.0144 38.326C55.0146 38.3277 55.0147 38.3293 55.0149 38.331C55.0151 38.3326 55.0153 38.3343 55.0155 38.3359C55.0157 38.3376 55.0158 38.3392 55.016 38.3408C55.0218 38.3931 55.0113 38.2984 55.0171 38.3506C55.0286 38.4544 55.0077 38.2664 55.0193 38.3701C55.025 38.4215 55.0146 38.3283 55.0203 38.3797C55.0205 38.3813 55.0207 38.3829 55.0209 38.3845C55.021 38.3861 55.0212 38.3877 55.0214 38.3893C55.0216 38.3909 55.0218 38.3925 55.0219 38.3941C55.0221 38.3957 55.0223 38.3973 55.0225 38.3988C55.0288 38.4557 55.0172 38.3515 55.0235 38.4083C55.0346 38.5085 55.0145 38.327 55.0256 38.4271C55.0311 38.4768 55.0211 38.3868 55.0266 38.4364C55.0268 38.438 55.027 38.4395 55.0271 38.4411C55.0273 38.4426 55.0275 38.4441 55.0277 38.4457C55.033 38.4937 55.0305 38.4709 55.0357 38.5177C55.046 38.6109 55.0273 38.4421 55.0376 38.5352C55.0415 38.5699 55.0357 38.5178 55.0395 38.5525C55.0397 38.5539 55.0398 38.5553 55.04 38.5567C55.0402 38.5582 55.0403 38.5596 55.0405 38.561C55.0455 38.6063 55.0364 38.5242 55.0414 38.5695C55.0526 38.6704 55.0321 38.4855 55.0433 38.5863C55.0434 38.5877 55.0436 38.5891 55.0438 38.5905C55.0439 38.5918 55.0441 38.5932 55.0442 38.5946C55.0444 38.596 55.0445 38.5974 55.0447 38.5988C55.0448 38.6001 55.045 38.6015 55.0451 38.6029C55.0453 38.6043 55.0454 38.6056 55.0456 38.607C55.0457 38.6084 55.0459 38.6097 55.046 38.6111C55.0462 38.6125 55.0463 38.6138 55.0465 38.6152C55.0466 38.6165 55.0468 38.6179 55.047 38.6192C55.0565 38.7054 55.0392 38.5493 55.0487 38.6354C55.0489 38.6367 55.049 38.6381 55.0492 38.6394C55.0493 38.6407 55.0495 38.6421 55.0496 38.6434C55.0498 38.6447 55.0499 38.646 55.0501 38.6474C55.0502 38.6487 55.0504 38.65 55.0505 38.6513C55.0507 38.6526 55.0508 38.654 55.051 38.6553C55.0511 38.6566 55.0512 38.6579 55.0514 38.6592C55.0515 38.6605 55.0517 38.6618 55.0518 38.6631C55.052 38.6644 55.0521 38.6657 55.0523 38.667C55.0626 38.76 55.0437 38.5896 55.054 38.6825C55.072 38.8444 55.0394 38.5513 55.0574 38.7129C55.0661 38.792 55.0502 38.6486 55.059 38.7277C55.0633 38.7668 55.0555 38.6959 55.0598 38.735C55.06 38.7362 55.0601 38.7375 55.0602 38.7387C55.0604 38.7399 55.0605 38.7411 55.0606 38.7423C55.0608 38.7435 55.0609 38.7447 55.061 38.7459C55.0612 38.7471 55.0613 38.7483 55.0614 38.7495C55.0657 38.7878 55.058 38.7185 55.0622 38.7567C55.0706 38.8323 55.0554 38.6953 55.0638 38.7709C55.0659 38.7896 55.0633 38.7661 55.0653 38.7848C55.0714 38.8394 55.0608 38.7441 55.0669 38.7986C55.0749 38.8707 55.0604 38.74 55.0684 38.8121C55.0714 38.8389 55.0669 38.7986 55.0699 38.8254C55.0737 38.86 55.0675 38.8039 55.0713 38.8384C55.0723 38.8471 55.0711 38.8363 55.072 38.8449C55.0744 38.8661 55.0704 38.83 55.0727 38.8513C55.0729 38.8523 55.073 38.8534 55.0731 38.8545C55.0732 38.8555 55.0733 38.8566 55.0734 38.8576C55.0762 38.8829 55.0713 38.8387 55.0741 38.8639C55.0755 38.8763 55.0735 38.8577 55.0748 38.8701C55.0749 38.8712 55.0751 38.8722 55.0752 38.8732C55.0753 38.8743 55.0754 38.8753 55.0755 38.8763C55.0756 38.8774 55.0757 38.8784 55.0759 38.8794C55.076 38.8804 55.0761 38.8814 55.0762 38.8825C55.0763 38.8835 55.0764 38.8845 55.0765 38.8855C55.0766 38.8865 55.0768 38.8875 55.0769 38.8885C55.077 38.8895 55.0771 38.8905 55.0772 38.8915C55.0773 38.8925 55.0774 38.8935 55.0775 38.8945C55.0789 38.9065 55.0769 38.8885 55.0782 38.9005C55.0813 38.9279 55.0758 38.879 55.0789 38.9064C55.079 38.9074 55.0791 38.9084 55.0792 38.9093C55.0793 38.9103 55.0794 38.9113 55.0795 38.9123C55.0817 38.9317 55.078 38.8987 55.0802 38.9181C55.081 38.9257 55.0799 38.9162 55.0808 38.9238C55.0842 38.9543 55.0787 38.9047 55.082 38.9351C55.0845 38.9572 55.0808 38.9242 55.0833 38.9462C55.0905 39.0115 55.0772 38.8919 55.0845 38.9571C55.0893 39.0002 55.0809 38.9247 55.0857 38.9677C55.0914 39.0193 55.0891 38.9982 55.0943 39.0451C55.1044 39.1366 55.086 38.971 55.0962 39.0622C55.0977 39.0761 55.0951 39.0525 55.0966 39.0664C55.0972 39.0718 55.0965 39.065 55.0971 39.0705C55.0972 39.0711 55.0972 39.0718 55.0973 39.0725C55.0974 39.0732 55.0975 39.0738 55.0975 39.0745C55.0984 39.0825 55.0971 39.0705 55.098 39.0785C55.0988 39.0863 55.0975 39.0746 55.0984 39.0824C55.1007 39.1031 55.0965 39.0656 55.0988 39.0863C55.1033 39.1267 55.0952 39.0535 55.0997 39.0939C55.1072 39.1616 55.0938 39.0409 55.1013 39.1084C55.1034 39.1271 55.1008 39.1035 55.1028 39.122C55.1047 39.1387 55.1024 39.1183 55.1042 39.1347C55.1043 39.1352 55.1043 39.1358 55.1044 39.1363C55.1045 39.1368 55.1045 39.1373 55.1046 39.1378C55.105 39.1418 55.1045 39.1368 55.1049 39.1408C55.1058 39.1485 55.1047 39.139 55.1055 39.1466C55.1089 39.1771 55.1034 39.1274 55.1068 39.1576C55.1068 39.158 55.1069 39.1585 55.1069 39.1589C55.107 39.1593 55.107 39.1598 55.1071 39.1602C55.1082 39.1704 55.1062 39.1525 55.1073 39.1628C55.1099 39.1859 55.1053 39.1447 55.1079 39.1677C55.112 39.2047 55.1048 39.1402 55.1089 39.1769C55.1148 39.2297 55.1049 39.1412 55.1107 39.1927C55.1124 39.2084 55.1118 39.2029 55.113 39.2138C55.1148 39.2302 55.1119 39.2039 55.1136 39.2191C55.1146 39.2279 55.1128 39.2119 55.1138 39.2204C55.1139 39.2218 55.1136 39.2194 55.1138 39.2207C55.1139 39.2214 55.1137 39.2203 55.1138 39.2208V39.2209C55.1138 39.2209 55.1138 39.2209 57.1016 39ZM58.9016 37.2C58.9016 35.5748 58.3667 33.8582 57.4904 32.1056L53.9127 33.8944C54.6364 35.3418 54.9016 36.4252 54.9016 37.2H58.9016ZM57.4904 32.1056C56.4952 30.1152 54.8798 28.4656 52.7831 27.1176L50.62 30.4824C52.2566 31.5344 53.3079 32.6848 53.9127 33.8944L57.4904 32.1056ZM52.7831 27.1176C50.4505 25.6181 47.2689 25 43.5016 25V29C46.9342 29 49.2193 29.5818 50.62 30.4824L52.7831 27.1176ZM43.5016 25C39.72 25 36.5086 25.6234 34.0726 27.085L36.1306 30.515C37.6945 29.5766 40.0831 29 43.5016 29V25ZM34.0726 27.085C31.8438 28.4223 30.1273 30.0763 29.1127 32.1056L32.6904 33.8944C33.2758 32.7237 34.3593 31.5777 36.1306 30.515L34.0726 27.085ZM29.0554 32.2308C28.3446 33.9366 27.875 35.5282 27.7138 36.9791L31.6893 37.4209C31.7948 36.4718 32.1252 35.2634 32.7477 33.7692L29.0554 32.2308ZM27.7138 36.9791C27.6305 37.7291 27.6138 37.8791 27.5638 38.3291C27.5471 38.4791 27.5346 38.5917 27.5263 38.6666C27.5232 38.6948 27.518 38.7416 27.5169 38.751C27.516 38.7596 27.515 38.7682 27.5146 38.7721C27.5144 38.7735 27.514 38.7772 27.514 38.7774C27.5139 38.7779 27.5139 38.7785 27.5138 38.7787C27.5138 38.7788 27.5138 38.7789 27.5138 38.779C27.5138 38.7791 27.5138 38.7791 27.5138 38.7791C27.5138 38.7791 27.5138 38.7791 27.5138 38.7791C27.5138 38.7791 27.5138 38.7791 29.5016 39C31.4893 39.2209 31.4893 39.2209 31.4893 39.2209C31.4893 39.2209 31.4893 39.2208 31.4893 39.2208C31.4893 39.2208 31.4893 39.2208 31.4893 39.2207C31.4894 39.2207 31.4894 39.2206 31.4894 39.2204C31.4894 39.2199 31.4894 39.2199 31.4895 39.2191C31.49 39.2148 31.4895 39.2193 31.4901 39.2138C31.4904 39.2114 31.4902 39.2126 31.4906 39.2099C31.4907 39.2084 31.4906 39.2091 31.4908 39.2076C31.4909 39.2066 31.4908 39.2073 31.4909 39.2063C31.491 39.2061 31.491 39.2059 31.491 39.2057C31.491 39.2055 31.4911 39.2053 31.4911 39.205C31.4911 39.2048 31.4911 39.2046 31.4912 39.2044C31.4912 39.2041 31.4912 39.2039 31.4912 39.2037C31.4914 39.2021 31.4912 39.2039 31.4914 39.2023C31.4914 39.2021 31.4917 39.1996 31.4917 39.1993C31.4923 39.1945 31.4919 39.1978 31.4925 39.1927C31.4994 39.1302 31.4928 39.1896 31.5018 39.1084C31.5129 39.0084 31.5199 38.9458 31.5393 38.7709C31.5546 38.6333 31.5501 38.674 31.5675 38.5177C31.5768 38.434 31.574 38.4585 31.5839 38.3701C31.5889 38.3245 31.5875 38.3377 31.5927 38.291C31.5957 38.2639 31.5942 38.2775 31.5972 38.2501C31.5985 38.238 31.5981 38.2415 31.5995 38.2293C31.6003 38.2224 31.5999 38.2259 31.6007 38.2189C31.6009 38.2171 31.6011 38.2154 31.6012 38.2136C31.6014 38.2119 31.6016 38.2101 31.6018 38.2084C31.6056 38.1743 31.6004 38.2213 31.6042 38.1872C31.6044 38.1854 31.6046 38.1836 31.6048 38.1818C31.605 38.18 31.6052 38.1783 31.6054 38.1765C31.6056 38.1747 31.6058 38.1729 31.606 38.1711C31.6062 38.1693 31.6064 38.1675 31.6066 38.1657C31.6094 38.1405 31.6086 38.1478 31.6114 38.1222C31.618 38.063 31.6147 38.0929 31.6214 38.0326C31.6268 37.9838 31.6262 37.9893 31.6317 37.9394C31.6319 37.9374 31.6322 37.9355 31.6324 37.9335C31.6326 37.9315 31.6328 37.9295 31.633 37.9275C31.6338 37.9206 31.6336 37.9226 31.6344 37.9156C31.6346 37.9136 31.6348 37.9116 31.635 37.9096C31.6353 37.9076 31.6355 37.9056 31.6357 37.9036C31.6359 37.9016 31.6361 37.8996 31.6364 37.8976C31.6366 37.8955 31.6368 37.8935 31.637 37.8915C31.6373 37.8895 31.6375 37.8875 31.6377 37.8855C31.6379 37.8835 31.6382 37.8814 31.6384 37.8794C31.6386 37.8774 31.6388 37.8754 31.6391 37.8733C31.6393 37.8713 31.6395 37.8693 31.6397 37.8672C31.64 37.8652 31.6402 37.8632 31.6404 37.8611C31.6406 37.8591 31.6409 37.8571 31.6411 37.855C31.642 37.8468 31.6415 37.8509 31.6425 37.8427C31.6726 37.5715 31.6571 37.7108 31.6893 37.4209L27.7138 36.9791ZM102.028 78.8L100.284 79.7791L100.294 79.7973L100.305 79.8154L102.028 78.8ZM98.4281 25.4L100.348 25.96L98.4281 25.4ZM107.828 10.6L109.066 12.171L109.08 12.1596L109.095 12.1479L107.828 10.6ZM138.828 7.59999L137.963 9.40305L138.005 9.42351L138.049 9.44194L138.828 7.59999ZM146.828 12.8L145.366 14.1646L146.828 12.8ZM150.628 18.2L148.782 18.9692L148.794 18.9986L148.807 19.0276L150.628 18.2ZM151.628 20.4L149.807 21.2276L150.34 22.4H151.628V20.4ZM152.028 20.4V22.4H154.028V20.4H152.028ZM152.028 5.2V3.2H150.028V5.2H152.028ZM180.828 5.2H182.828V3.2H180.828V5.2ZM180.828 88V90H182.828V88H180.828ZM156.428 88L154.567 88.7313L155.065 90H156.428V88ZM152.028 76.8L153.89 76.0687L153.391 74.8H152.028V76.8ZM150.628 78.8L152.343 79.829H152.343L150.628 78.8ZM146.428 83.4L145.118 81.8886L145.092 81.9111L145.067 81.9344L146.428 83.4ZM138.428 88L137.71 86.1333L137.698 86.1381L137.685 86.1431L138.428 88ZM147.228 64.4L148.538 65.9114L148.545 65.9052L147.228 64.4ZM151.228 57.2L149.26 56.8422L151.228 57.2ZM151.228 39.2L149.26 39.5578L149.262 39.566L149.263 39.5742L151.228 39.2ZM147.228 32.2L145.918 33.7114L145.942 33.7322L145.967 33.7522L147.228 32.2ZM127.428 32.4L128.738 33.9114L128.745 33.9052L127.428 32.4ZM123.628 39.2L121.663 38.8258L123.628 39.2ZM123.628 57.4L121.66 57.7578L121.662 57.766L121.663 57.7742L123.628 57.4ZM127.428 64.4L126.063 65.8621L126.114 65.9089L126.167 65.9522L127.428 64.4ZM125.628 88C114.754 88 107.681 84.4535 103.751 77.7846L100.305 79.8154C105.175 88.0798 113.835 92 125.628 92V88ZM103.772 77.8209C99.7353 70.6303 97.6281 60.7443 97.6281 48H93.6281C93.6281 61.1223 95.7877 71.7697 100.284 79.7791L103.772 77.8209ZM97.6281 48C97.6281 39.4694 98.5477 32.133 100.348 25.96L96.5081 24.84C94.5753 31.467 93.6281 39.1973 93.6281 48H97.6281ZM100.348 25.96C102.121 19.8819 105.051 15.3338 109.066 12.171L106.59 9.02901C101.805 12.7995 98.4687 18.1181 96.5081 24.84L100.348 25.96ZM109.095 12.1479C113.039 8.92101 118.477 7.2 125.628 7.2V3.2C117.846 3.2 111.418 5.07898 106.562 9.05208L109.095 12.1479ZM125.628 7.2C130.927 7.2 134.997 7.97961 137.963 9.40305L139.694 5.79695C135.992 4.02037 131.263 3.2 125.628 3.2V7.2ZM138.049 9.44194C141.348 10.8378 143.749 12.4317 145.366 14.1646L148.29 11.4354C146.174 9.16829 143.241 7.29553 139.607 5.75806L138.049 9.44194ZM145.366 14.1646C147.153 16.0795 148.244 17.6785 148.782 18.9692L152.474 17.4308C151.679 15.5215 150.236 13.5205 148.29 11.4354L145.366 14.1646ZM148.807 19.0276C148.841 19.1009 148.898 19.2264 148.928 19.294C148.948 19.3366 148.938 19.3157 148.958 19.3579C148.959 19.36 148.971 19.3875 148.972 19.3895C148.973 19.3921 148.974 19.3947 148.975 19.3973C148.977 19.3999 148.978 19.4026 148.979 19.4052C148.98 19.4078 148.981 19.4104 148.983 19.413C148.984 19.4156 148.985 19.4182 148.986 19.4208C149.005 19.4623 148.995 19.4414 149.014 19.4825C149.034 19.527 149.022 19.4991 149.042 19.5432C149.129 19.7357 149.168 19.8205 149.245 19.9901C149.318 20.1505 149.354 20.2307 149.417 20.3682C149.42 20.3745 149.453 20.4471 149.455 20.452C149.497 20.5445 149.45 20.4404 149.491 20.5315C149.506 20.5647 149.545 20.6501 149.557 20.6776C149.563 20.6892 149.613 20.8006 149.616 20.8065C149.618 20.8111 149.641 20.8613 149.642 20.8645C149.653 20.8869 149.657 20.8973 149.667 20.9182C149.69 20.9686 149.732 21.0626 149.745 21.0901C149.766 21.1359 149.781 21.1703 149.792 21.1932C149.795 21.2001 149.796 21.2028 149.799 21.2083C149.799 21.2097 149.799 21.2084 149.799 21.2098C149.799 21.2101 149.8 21.2104 149.8 21.2106C149.8 21.2109 149.8 21.2111 149.8 21.2113C149.801 21.2127 149.8 21.2114 149.801 21.2128C149.801 21.213 149.801 21.2133 149.801 21.2135C149.801 21.2137 149.801 21.2139 149.801 21.2142C149.803 21.2181 149.801 21.2129 149.802 21.2167C149.803 21.2169 149.803 21.2171 149.803 21.2173C149.803 21.2175 149.803 21.2177 149.803 21.2179C149.803 21.2183 149.803 21.2186 149.803 21.219C149.804 21.2211 149.806 21.2248 149.806 21.2254C149.806 21.2255 149.807 21.2256 149.807 21.2257C149.807 21.2258 149.807 21.2259 149.807 21.226C149.807 21.2265 149.807 21.2258 149.807 21.2264C149.807 21.2265 149.807 21.2265 149.807 21.2266C149.807 21.2267 149.807 21.2267 149.807 21.2268C149.807 21.2269 149.807 21.227 149.807 21.2271C149.807 21.2271 149.807 21.2273 149.807 21.2273C149.807 21.2273 149.807 21.2274 149.807 21.2274C149.807 21.2274 149.807 21.2274 149.807 21.2275C149.807 21.2275 149.807 21.2275 149.807 21.2275C149.807 21.2275 149.807 21.2276 149.807 21.2276C149.807 21.2276 149.807 21.2276 149.807 21.2276C149.807 21.2276 149.807 21.2276 151.628 20.4C153.449 19.5724 153.449 19.5724 153.449 19.5724C153.449 19.5724 153.449 19.5724 153.449 19.5724C153.449 19.5723 153.449 19.5723 153.449 19.5723C153.449 19.5722 153.449 19.5722 153.449 19.5721C153.449 19.5721 153.449 19.572 153.449 19.572C153.449 19.5719 153.449 19.5719 153.449 19.5719C153.448 19.5715 153.449 19.5716 153.448 19.5712C153.448 19.5709 153.448 19.5706 153.448 19.5702C153.447 19.5692 153.447 19.5689 153.447 19.5676C153.446 19.5662 153.446 19.5655 153.445 19.5638C153.444 19.5627 153.436 19.5449 153.433 19.538C153.423 19.5151 153.427 19.5237 153.414 19.495C153.412 19.4905 153.404 19.4731 153.401 19.4671C153.401 19.4665 153.4 19.4659 153.4 19.4652C153.4 19.4646 153.4 19.464 153.399 19.4633C153.399 19.4628 153.398 19.46 153.398 19.4595C153.397 19.4584 153.394 19.4527 153.394 19.4515C153.394 19.4509 153.393 19.4502 153.393 19.4495C153.393 19.4488 153.392 19.4482 153.392 19.4475C153.391 19.4453 153.391 19.4456 153.39 19.4433C153.389 19.44 153.39 19.4425 153.388 19.4391C153.388 19.4384 153.388 19.4377 153.387 19.437C153.387 19.4363 153.387 19.4356 153.386 19.4349C153.3 19.2453 153.327 19.3036 153.199 19.0224C153.066 18.7291 153.061 18.7198 152.886 18.3349C152.877 18.3141 152.884 18.3298 152.875 18.309C152.867 18.2916 152.871 18.3003 152.863 18.2828C152.862 18.2806 152.861 18.2784 152.86 18.2762C152.859 18.274 152.858 18.2718 152.857 18.2696C152.849 18.252 152.859 18.274 152.851 18.2563C152.846 18.2466 152.849 18.2528 152.845 18.243C152.844 18.2408 152.843 18.2386 152.842 18.2363C152.841 18.2341 152.84 18.2319 152.839 18.2296C152.83 18.2117 152.834 18.2207 152.826 18.2026C152.825 18.199 152.816 18.1791 152.814 18.1754C152.79 18.1236 152.812 18.1722 152.789 18.12C152.788 18.1177 152.787 18.1154 152.786 18.1131C152.784 18.1107 152.783 18.1084 152.782 18.106C152.781 18.1037 152.78 18.1014 152.779 18.099C152.778 18.0967 152.777 18.0943 152.776 18.092C152.771 18.0807 152.768 18.075 152.763 18.0636C152.749 18.0333 152.751 18.0369 152.737 18.0062C152.716 17.9595 152.705 17.9361 152.683 17.888C152.661 17.8399 152.594 17.6927 152.57 17.6388C152.552 17.5998 152.558 17.6131 152.54 17.5738C152.536 17.5651 152.529 17.5497 152.525 17.5409C152.524 17.5382 152.523 17.5354 152.522 17.5326C152.52 17.5299 152.519 17.5271 152.518 17.5244C152.517 17.5216 152.515 17.5188 152.514 17.5161C152.513 17.5133 152.512 17.5105 152.51 17.5077C152.484 17.45 152.506 17.4987 152.48 17.4406C152.463 17.4043 152.466 17.4091 152.449 17.3724L148.807 19.0276ZM151.628 22.4H152.028V18.4H151.628V22.4ZM154.028 20.4V5.2H150.028V20.4H154.028ZM152.028 7.2H180.828V3.2H152.028V7.2ZM178.828 5.2V88H182.828V5.2H178.828ZM180.828 86H156.428V90H180.828V86ZM158.29 87.2687L153.89 76.0687L150.167 77.5313L154.567 88.7313L158.29 87.2687ZM152.028 74.8H151.628V78.8H152.028V74.8ZM151.628 78.8C151.187 78.8 150.608 78.6418 150.161 78.1457C149.771 77.7128 149.688 77.2447 149.666 77.0302C149.643 76.7994 149.668 76.6208 149.681 76.5415C149.696 76.4499 149.715 76.3827 149.725 76.3503C149.753 76.2578 149.766 76.253 149.689 76.4056C149.559 76.6665 149.309 77.1119 148.913 77.771L152.343 79.829C152.748 79.1548 153.064 78.6001 153.267 78.1944C153.357 78.0137 153.479 77.7588 153.556 77.4997C153.58 77.4192 153.69 77.0678 153.646 76.6323C153.623 76.397 153.533 75.9132 153.134 75.4699C152.678 74.9634 152.086 74.8 151.628 74.8V78.8ZM148.913 77.771C148.272 78.8397 147.054 80.211 145.118 81.8886L147.738 84.9114C149.802 83.1224 151.384 81.4269 152.343 79.829L148.913 77.771ZM145.067 81.9344C143.452 83.4341 141.038 84.8532 137.71 86.1333L139.146 89.8667C142.751 88.4801 145.671 86.8326 147.789 84.8656L145.067 81.9344ZM137.685 86.1431C134.669 87.3496 130.678 88 125.628 88V92C130.978 92 135.521 91.3171 139.171 89.8569L137.685 86.1431ZM137.428 69C142.129 69 145.992 68.1179 148.538 65.9114L145.918 62.8886C144.464 64.1488 141.794 65 137.428 65V69ZM148.545 65.9052C151.037 63.7244 152.586 60.9113 153.196 57.5578L149.26 56.8422C148.803 59.3553 147.686 61.3422 145.911 62.8949L148.545 65.9052ZM153.196 57.5578C153.751 54.5031 154.028 51.3832 154.028 48.2H150.028C150.028 51.1501 149.772 54.0303 149.26 56.8422L153.196 57.5578ZM154.028 48.2C154.028 44.8895 153.752 41.7631 153.193 38.8258L149.263 39.5742C149.771 42.2369 150.028 45.1105 150.028 48.2H154.028ZM153.196 38.8422C152.585 35.482 151.026 32.7085 148.489 30.6478L145.967 33.7522C147.697 35.1581 148.805 37.0513 149.26 39.5578L153.196 38.8422ZM148.538 30.6886C145.992 28.4821 142.129 27.6 137.428 27.6V31.6C141.794 31.6 144.464 32.4512 145.918 33.7114L148.538 30.6886ZM137.428 27.6C132.684 27.6 128.773 28.5659 126.111 30.8948L128.745 33.9052C130.35 32.5007 133.105 31.6 137.428 31.6V27.6ZM126.118 30.8886C123.751 32.9399 122.274 35.6202 121.663 38.8258L125.593 39.5742C126.049 37.1798 127.105 35.3267 128.738 33.9114L126.118 30.8886ZM121.663 38.8258C121.104 41.7631 120.828 44.8895 120.828 48.2H124.828C124.828 45.1105 125.086 42.2369 125.593 39.5742L121.663 38.8258ZM120.828 48.2C120.828 51.5113 121.104 54.6981 121.66 57.7578L125.596 57.0422C125.085 54.2352 124.828 51.2887 124.828 48.2H120.828ZM121.663 57.7742C122.273 60.9727 123.739 63.693 126.063 65.8621L128.793 62.9379C127.117 61.3737 126.05 59.4273 125.593 57.0258L121.663 57.7742ZM126.167 65.9522C128.824 68.111 132.711 69 137.428 69V65C133.079 65 130.299 64.1557 128.689 62.8478L126.167 65.9522ZM223.122 89.6L223.295 87.6075L223.254 87.6039L223.213 87.6021L223.122 89.6ZM212.922 88L212.372 89.923L212.412 89.9344L212.453 89.9442L212.922 88ZM201.922 83L200.856 84.6925L201.922 83ZM192.922 73.8L191.182 74.786L191.202 74.8208L191.223 74.8547L192.922 73.8ZM189.522 58.4V56.4H187.522V58.4H189.522ZM215.122 58.4H217.122V56.4H215.122V58.4ZM215.122 60.4H213.122V60.5108L213.134 60.6209L215.122 60.4ZM216.322 64.4L214.501 65.2276L214.531 65.2938L214.566 65.3577L216.322 64.4ZM220.122 68.4L218.983 70.0444L219.055 70.0936L219.13 70.1365L220.122 68.4ZM236.722 67.6L235.058 66.4906L236.722 67.6ZM234.922 59.2L233.986 60.9676L234.922 59.2ZM226.122 56L225.554 57.9176L225.587 57.9274L225.62 57.936L226.122 56ZM214.522 52.6L213.889 54.4974L213.927 54.5098L213.964 54.5207L214.522 52.6ZM203.122 47.6L202.102 49.3206L202.126 49.3348L202.151 49.3483L203.122 47.6ZM194.322 39.4L195.976 38.2754L194.322 39.4ZM200.322 8L199.288 6.28816L199.28 6.29301L199.272 6.29793L200.322 8ZM253.522 10.6L252.322 12.2L252.338 12.212L252.354 12.2236L253.522 10.6ZM265.322 34.8V36.8H267.372L267.321 34.75L265.322 34.8ZM240.122 34.8H238.122V36.8H240.122V34.8ZM235.522 25.4L234.564 27.1558L234.58 27.1646L234.597 27.1732L235.522 25.4ZM218.122 25L219.536 26.4142L219.573 26.377L219.608 26.3379L218.122 25ZM219.722 34.6L218.635 36.2791L218.692 36.3157L218.751 36.3483L219.722 34.6ZM228.722 38.2L228.154 40.1176L228.163 40.1204L228.172 40.123L228.722 38.2ZM240.522 41.6L239.964 43.5207L239.972 43.523L239.98 43.5253L240.522 41.6ZM252.322 46.4L251.351 48.1483L251.389 48.1694L251.427 48.1889L252.322 46.4ZM261.322 54L259.69 55.156L259.717 55.195L259.747 55.2326L261.322 54ZM255.322 83.8L254.237 82.1199L254.229 82.1252L254.221 82.1304L255.322 83.8ZM229.122 88C228.292 88 226.382 87.876 223.295 87.6075L222.949 91.5925C225.995 91.8574 228.085 92 229.122 92V88ZM223.213 87.6021C220.443 87.4762 217.174 86.969 213.391 86.0558L212.453 89.9442C216.403 90.8977 219.934 91.4572 223.031 91.5979L223.213 87.6021ZM213.471 86.077C209.937 85.067 206.442 83.4828 202.988 81.3075L200.856 84.6925C204.601 87.0505 208.44 88.7996 212.372 89.923L213.471 86.077ZM202.988 81.3075C199.662 79.2137 196.872 76.3724 194.621 72.7453L191.223 74.8547C193.771 78.9609 196.982 82.2529 200.856 84.6925L202.988 81.3075ZM194.662 72.814C192.616 69.2043 191.522 64.4412 191.522 58.4H187.522C187.522 64.8921 188.694 70.3957 191.182 74.786L194.662 72.814ZM189.522 60.4H215.122V56.4H189.522V60.4ZM213.122 58.4C213.122 58.4003 213.122 58.4005 213.122 58.4008C213.122 58.401 213.122 58.4013 213.122 58.4016C213.122 58.4019 213.122 58.4021 213.122 58.4024C213.122 58.4027 213.122 58.4029 213.122 58.4032C213.122 58.4035 213.122 58.4038 213.122 58.4041C213.122 58.4043 213.122 58.4046 213.122 58.4049C213.122 58.4052 213.122 58.4055 213.122 58.4058C213.122 58.4061 213.122 58.4063 213.122 58.4066C213.122 58.4069 213.122 58.4072 213.122 58.4075C213.122 58.4078 213.122 58.4081 213.122 58.4084C213.122 58.4087 213.122 58.409 213.122 58.4093C213.122 58.4096 213.122 58.4099 213.122 58.4102C213.122 58.4106 213.122 58.4109 213.122 58.4112C213.122 58.4115 213.122 58.4118 213.122 58.4121C213.122 58.4124 213.122 58.4128 213.122 58.4131C213.122 58.4134 213.122 58.4137 213.122 58.4141C213.122 58.4144 213.122 58.4147 213.122 58.415C213.122 58.4154 213.122 58.4157 213.122 58.416C213.122 58.4164 213.122 58.4167 213.122 58.4171C213.122 58.4174 213.122 58.4177 213.122 58.4181C213.122 58.4184 213.122 58.4187 213.122 58.4191C213.122 58.4194 213.122 58.4198 213.122 58.4201C213.122 58.4205 213.122 58.4208 213.122 58.4212C213.122 58.4216 213.122 58.4219 213.122 58.4223C213.122 58.4226 213.122 58.423 213.122 58.4233C213.122 58.4237 213.122 58.4241 213.122 58.4244C213.122 58.4248 213.122 58.4252 213.122 58.4255C213.122 58.4259 213.122 58.4263 213.122 58.4267C213.122 58.427 213.122 58.4274 213.122 58.4278C213.122 58.4282 213.122 58.4285 213.122 58.4289C213.122 58.4293 213.122 58.4297 213.122 58.4301C213.122 58.4305 213.122 58.4309 213.122 58.4312C213.122 58.4316 213.122 58.432 213.122 58.4324C213.122 58.4328 213.122 58.4332 213.122 58.4336C213.122 58.434 213.122 58.4344 213.122 58.4348C213.122 58.4352 213.122 58.4356 213.122 58.436C213.122 58.4364 213.122 58.4368 213.122 58.4373C213.122 58.4377 213.122 58.4381 213.122 58.4385C213.122 58.4389 213.122 58.4393 213.122 58.4398C213.122 58.4402 213.122 58.4406 213.122 58.441C213.122 58.4414 213.122 58.4419 213.122 58.4423C213.122 58.4427 213.122 58.4431 213.122 58.4436C213.122 58.444 213.122 58.4444 213.122 58.4449C213.122 58.4453 213.122 58.4458 213.122 58.4462C213.122 58.4466 213.122 58.4471 213.122 58.4475C213.122 58.448 213.122 58.4484 213.122 58.4489C213.122 58.4493 213.122 58.4498 213.122 58.4502C213.122 58.4507 213.122 58.4511 213.122 58.4516C213.122 58.452 213.122 58.4525 213.122 58.4529C213.122 58.4534 213.122 58.4539 213.122 58.4543C213.122 58.4548 213.122 58.4552 213.122 58.4557C213.122 58.4562 213.122 58.4566 213.122 58.4571C213.122 58.4576 213.122 58.4581 213.122 58.4586C213.122 58.459 213.122 58.4595 213.122 58.46C213.122 58.4605 213.122 58.461 213.122 58.4614C213.122 58.4619 213.122 58.4624 213.122 58.4629C213.122 58.4634 213.122 58.4639 213.122 58.4644C213.122 58.4649 213.122 58.4653 213.122 58.4659C213.122 58.4663 213.122 58.4668 213.122 58.4673C213.122 58.4678 213.122 58.4683 213.122 58.4688C213.122 58.4693 213.122 58.4699 213.122 58.4704C213.122 58.4709 213.122 58.4714 213.122 58.4719C213.122 58.4724 213.122 58.4729 213.122 58.4734C213.122 58.474 213.122 58.4745 213.122 58.475C213.122 58.4755 213.122 58.476 213.122 58.4766C213.122 58.4771 213.122 58.4776 213.122 58.4781C213.122 58.4787 213.122 58.4792 213.122 58.4797C213.122 58.4803 213.122 58.4808 213.122 58.4814C213.122 58.4819 213.122 58.4824 213.122 58.483C213.122 58.4835 213.122 58.4841 213.122 58.4846C213.122 58.4851 213.122 58.4857 213.122 58.4862C213.122 58.4868 213.122 58.4873 213.122 58.4879C213.122 58.4884 213.122 58.489 213.122 58.4896C213.122 58.4901 213.122 58.4907 213.122 58.4912C213.122 58.4918 213.122 58.4924 213.122 58.4929C213.122 58.4935 213.122 58.4941 213.122 58.4946C213.122 58.4952 213.122 58.4958 213.122 58.4963C213.122 58.4969 213.122 58.4975 213.122 58.4981C213.122 58.4986 213.122 58.4992 213.122 58.4998C213.122 58.5004 213.122 58.501 213.122 58.5016C213.122 58.5022 213.122 58.5027 213.122 58.5033C213.122 58.5039 213.122 58.5045 213.122 58.5051C213.122 58.5057 213.122 58.5063 213.122 58.5069C213.122 58.5075 213.122 58.5081 213.122 58.5087C213.122 58.5093 213.122 58.5099 213.122 58.5105C213.122 58.5111 213.122 58.5117 213.122 58.5123C213.122 58.5129 213.122 58.5135 213.122 58.5142C213.122 58.5148 213.122 58.5154 213.122 58.516C213.122 58.5166 213.122 58.5173 213.122 58.5179C213.122 58.5185 213.122 58.5191 213.122 58.5197C213.122 58.5204 213.122 58.521 213.122 58.5216C213.122 58.5223 213.122 58.5229 213.122 58.5235C213.122 58.5242 213.122 58.5248 213.122 58.5255C213.122 58.5261 213.122 58.5267 213.122 58.5274C213.122 58.528 213.122 58.5287 213.122 58.5293C213.122 58.53 213.122 58.5306 213.122 58.5312C213.122 58.5319 213.122 58.5325 213.122 58.5332C213.122 58.5339 213.122 58.5345 213.122 58.5352C213.122 58.5358 213.122 58.5365 213.122 58.5372C213.122 58.5378 213.122 58.5385 213.122 58.5392C213.122 58.5398 213.122 58.5405 213.122 58.5412C213.122 58.5418 213.122 58.5425 213.122 58.5432C213.122 58.5439 213.122 58.5445 213.122 58.5452C213.122 58.5459 213.122 58.5466 213.122 58.5473C213.122 58.5479 213.122 58.5486 213.122 58.5493C213.122 58.55 213.122 58.5507 213.122 58.5514C213.122 58.5521 213.122 58.5528 213.122 58.5535C213.122 58.5542 213.122 58.5549 213.122 58.5556C213.122 58.5563 213.122 58.557 213.122 58.5577C213.122 58.5584 213.122 58.5591 213.122 58.5598C213.122 58.5605 213.122 58.5612 213.122 58.5619C213.122 58.5626 213.122 58.5633 213.122 58.5641C213.122 58.5648 213.122 58.5655 213.122 58.5662C213.122 58.5669 213.122 58.5677 213.122 58.5684C213.122 58.5691 213.122 58.5698 213.122 58.5706C213.122 58.5713 213.122 58.572 213.122 58.5728C213.122 58.5735 213.122 58.5742 213.122 58.575C213.122 58.5757 213.122 58.5764 213.122 58.5772C213.122 58.5779 213.122 58.5787 213.122 58.5794C213.122 58.5801 213.122 58.5809 213.122 58.5816C213.122 58.5824 213.122 58.5831 213.122 58.5839C213.122 58.5846 213.122 58.5854 213.122 58.5862C213.122 58.5869 213.122 58.5877 213.122 58.5884C213.122 58.5892 213.122 58.59 213.122 58.5907C213.122 58.5915 213.122 58.5923 213.122 58.593C213.122 58.5938 213.122 58.5946 213.122 58.5953C213.122 58.5961 213.122 58.5969 213.122 58.5977C213.122 58.5984 213.122 58.5992 213.122 58.6C213.122 58.6008 213.122 58.6016 213.122 58.6024C213.122 58.6031 213.122 58.6039 213.122 58.6047C213.122 58.6055 213.122 58.6063 213.122 58.6071C213.122 58.6079 213.122 58.6087 213.122 58.6095C213.122 58.6103 213.122 58.6111 213.122 58.6119C213.122 58.6127 213.122 58.6135 213.122 58.6143C213.122 58.6151 213.122 58.6159 213.122 58.6167C213.122 58.6175 213.122 58.6183 213.122 58.6191C213.122 58.6199 213.122 58.6208 213.122 58.6216C213.122 58.6224 213.122 58.6232 213.122 58.6241C213.122 58.6249 213.122 58.6257 213.122 58.6265C213.122 58.6273 213.122 58.6282 213.122 58.629C213.122 58.6298 213.122 58.6307 213.122 58.6315C213.122 58.6323 213.122 58.6332 213.122 58.634C213.122 58.6348 213.122 58.6357 213.122 58.6365C213.122 58.6374 213.122 58.6382 213.122 58.6391C213.122 58.6399 213.122 58.6408 213.122 58.6416C213.122 58.6425 213.122 58.6433 213.122 58.6442C213.122 58.645 213.122 58.6459 213.122 58.6467C213.122 58.6476 213.122 58.6485 213.122 58.6493C213.122 58.6502 213.122 58.651 213.122 58.6519C213.122 58.6528 213.122 58.6536 213.122 58.6545C213.122 58.6554 213.122 58.6563 213.122 58.6571C213.122 58.658 213.122 58.6589 213.122 58.6598C213.122 58.6606 213.122 58.6615 213.122 58.6624C213.122 58.6633 213.122 58.6642 213.122 58.6651C213.122 58.666 213.122 58.6668 213.122 58.6677C213.122 58.6686 213.122 58.6695 213.122 58.6704C213.122 58.6713 213.122 58.6722 213.122 58.6731C213.122 58.674 213.122 58.6749 213.122 58.6758C213.122 58.6767 213.122 58.6776 213.122 58.6785C213.122 58.6794 213.122 58.6803 213.122 58.6812C213.122 58.6822 213.122 58.6831 213.122 58.684C213.122 58.6849 213.122 58.6858 213.122 58.6867C213.122 58.6877 213.122 58.6886 213.122 58.6895C213.122 58.6904 213.122 58.6914 213.122 58.6923C213.122 58.6932 213.122 58.6941 213.122 58.6951C213.122 58.696 213.122 58.6969 213.122 58.6979C213.122 58.6988 213.122 58.6998 213.122 58.7007C213.122 58.7016 213.122 58.7026 213.122 58.7035C213.122 58.7045 213.122 58.7054 213.122 58.7064C213.122 58.7073 213.122 58.7083 213.122 58.7092C213.122 58.7102 213.122 58.7111 213.122 58.7121C213.122 58.713 213.122 58.714 213.122 58.7149C213.122 58.7159 213.122 58.7169 213.122 58.7178C213.122 58.7188 213.122 58.7198 213.122 58.7207C213.122 58.7217 213.122 58.7227 213.122 58.7236C213.122 58.7246 213.122 58.7256 213.122 58.7266C213.122 58.7275 213.122 58.7285 213.122 58.7295C213.122 58.7305 213.122 58.7315 213.122 58.7325C213.122 58.7334 213.122 58.7344 213.122 58.7354C213.122 58.7364 213.122 58.7374 213.122 58.7384C213.122 58.7394 213.122 58.7404 213.122 58.7414C213.122 58.7424 213.122 58.7434 213.122 58.7444C213.122 58.7454 213.122 58.7464 213.122 58.7474C213.122 58.7484 213.122 58.7494 213.122 58.7504C213.122 58.7514 213.122 58.7524 213.122 58.7534C213.122 58.7544 213.122 58.7554 213.122 58.7565C213.122 58.7575 213.122 58.7585 213.122 58.7595C213.122 58.7605 213.122 58.7616 213.122 58.7626C213.122 58.7636 213.122 58.7646 213.122 58.7657C213.122 58.7667 213.122 58.7677 213.122 58.7688C213.122 58.7698 213.122 58.7708 213.122 58.7719C213.122 58.7729 213.122 58.774 213.122 58.775C213.122 58.776 213.122 58.7771 213.122 58.7781C213.122 58.7792 213.122 58.7802 213.122 58.7813C213.122 58.7823 213.122 58.7834 213.122 58.7844C213.122 58.7855 213.122 58.7865 213.122 58.7876C213.122 58.7887 213.122 58.7897 213.122 58.7908C213.122 58.7918 213.122 58.7929 213.122 58.794C213.122 58.795 213.122 58.7961 213.122 58.7972C213.122 58.7982 213.122 58.7993 213.122 58.8004C213.122 58.8015 213.122 58.8025 213.122 58.8036C213.122 58.8047 213.122 58.8058 213.122 58.8069C213.122 58.8079 213.122 58.809 213.122 58.8101C213.122 58.8112 213.122 58.8123 213.122 58.8134C213.122 58.8145 213.122 58.8156 213.122 58.8167C213.122 58.8177 213.122 58.8188 213.122 58.8199C213.122 58.821 213.122 58.8221 213.122 58.8232C213.122 58.8244 213.122 58.8255 213.122 58.8266C213.122 58.8277 213.122 58.8288 213.122 58.8299C213.122 58.831 213.122 58.8321 213.122 58.8332C213.122 58.8343 213.122 58.8355 213.122 58.8366C213.122 58.8377 213.122 58.8388 213.122 58.8399C213.122 58.8411 213.122 58.8422 213.122 58.8433C213.122 58.8444 213.122 58.8456 213.122 58.8467C213.122 58.8478 213.122 58.849 213.122 58.8501C213.122 58.8512 213.122 58.8524 213.122 58.8535C213.122 58.8547 213.122 58.8558 213.122 58.8569C213.122 58.8581 213.122 58.8592 213.122 58.8604C213.122 58.8615 213.122 58.8627 213.122 58.8638C213.122 58.865 213.122 58.8661 213.122 58.8673C213.122 58.8684 213.122 58.8696 213.122 58.8708C213.122 58.8719 213.122 58.8731 213.122 58.8742C213.122 58.8754 213.122 58.8766 213.122 58.8777C213.122 58.8789 213.122 58.8801 213.122 58.8813C213.122 58.8824 213.122 58.8836 213.122 58.8848C213.122 58.8859 213.122 58.8871 213.122 58.8883C213.122 58.8895 213.122 58.8907 213.122 58.8918C213.122 58.893 213.122 58.8942 213.122 58.8954C213.122 58.8966 213.122 58.8978 213.122 58.899C213.122 58.9002 213.122 58.9014 213.122 58.9026C213.122 58.9038 213.122 58.905 213.122 58.9062C213.122 58.9074 213.122 58.9086 213.122 58.9098C213.122 58.911 213.122 58.9122 213.122 58.9134C213.122 58.9146 213.122 58.9158 213.122 58.917C213.122 58.9182 213.122 58.9194 213.122 58.9207C213.122 58.9219 213.122 58.9231 213.122 58.9243C213.122 58.9255 213.122 58.9268 213.122 58.928C213.122 58.9292 213.122 58.9304 213.122 58.9317C213.122 58.9329 213.122 58.9341 213.122 58.9354C213.122 58.9366 213.122 58.9378 213.122 58.9391C213.122 58.9403 213.122 58.9415 213.122 58.9428C213.122 58.944 213.122 58.9453 213.122 58.9465C213.122 58.9478 213.122 58.949 213.122 58.9503C213.122 58.9515 213.122 58.9527 213.122 58.954C213.122 58.9553 213.122 58.9565 213.122 58.9578C213.122 58.959 213.122 58.9603 213.122 58.9615C213.122 58.9628 213.122 58.9641 213.122 58.9653C213.122 58.9666 213.122 58.9679 213.122 58.9691C213.122 58.9704 213.122 58.9717 213.122 58.973C213.122 58.9742 213.122 58.9755 213.122 58.9768C213.122 58.9781 213.122 58.9793 213.122 58.9806C213.122 58.9819 213.122 58.9832 213.122 58.9845C213.122 58.9858 213.122 58.987 213.122 58.9883C213.122 58.9896 213.122 58.9909 213.122 58.9922C213.122 58.9935 213.122 58.9948 213.122 58.9961C213.122 58.9974 213.122 58.9987 213.122 59C213.122 59.0013 213.122 59.0026 213.122 59.0039C213.122 59.0052 213.122 59.0065 213.122 59.0078C213.122 59.0091 213.122 59.0105 213.122 59.0118C213.122 59.0131 213.122 59.0144 213.122 59.0157C213.122 59.017 213.122 59.0184 213.122 59.0197C213.122 59.021 213.122 59.0223 213.122 59.0237C213.122 59.025 213.122 59.0263 213.122 59.0276C213.122 59.029 213.122 59.0303 213.122 59.0316C213.122 59.033 213.122 59.0343 213.122 59.0356C213.122 59.037 213.122 59.0383 213.122 59.0397C213.122 59.041 213.122 59.0424 213.122 59.0437C213.122 59.0451 213.122 59.0464 213.122 59.0478C213.122 59.0491 213.122 59.0505 213.122 59.0518C213.122 59.0532 213.122 59.0545 213.122 59.0559C213.122 59.0572 213.122 59.0586 213.122 59.06C213.122 59.0613 213.122 59.0627 213.122 59.0641C213.122 59.0654 213.122 59.0668 213.122 59.0682C213.122 59.0695 213.122 59.0709 213.122 59.0723C213.122 59.0737 213.122 59.075 213.122 59.0764C213.122 59.0778 213.122 59.0792 213.122 59.0806C213.122 59.082 213.122 59.0833 213.122 59.0847C213.122 59.0861 213.122 59.0875 213.122 59.0889C213.122 59.0903 213.122 59.0917 213.122 59.0931C213.122 59.0945 213.122 59.0959 213.122 59.0973C213.122 59.0987 213.122 59.1001 213.122 59.1015C213.122 59.1029 213.122 59.1043 213.122 59.1057C213.122 59.1071 213.122 59.1085 213.122 59.1099C213.122 59.1113 213.122 59.1127 213.122 59.1142C213.122 59.1156 213.122 59.117 213.122 59.1184C213.122 59.1198 213.122 59.1213 213.122 59.1227C213.122 59.1241 213.122 59.1255 213.122 59.127C213.122 59.1284 213.122 59.1298 213.122 59.1313C213.122 59.1327 213.122 59.1341 213.122 59.1356C213.122 59.137 213.122 59.1384 213.122 59.1399C213.122 59.1413 213.122 59.1427 213.122 59.1442C213.122 59.1456 213.122 59.1471 213.122 59.1485C213.122 59.15 213.122 59.1514 213.122 59.1529C213.122 59.1543 213.122 59.1558 213.122 59.1573C213.122 59.1587 213.122 59.1602 213.122 59.1616C213.122 59.1631 213.122 59.1646 213.122 59.166C213.122 59.1675 213.122 59.1689 213.122 59.1704C213.122 59.1719 213.122 59.1734 213.122 59.1748C213.122 59.1763 213.122 59.1778 213.122 59.1793C213.122 59.1807 213.122 59.1822 213.122 59.1837C213.122 59.1852 213.122 59.1867 213.122 59.1881C213.122 59.1896 213.122 59.1911 213.122 59.1926C213.122 59.1941 213.122 59.1956 213.122 59.1971C213.122 59.1986 213.122 59.2001 213.122 59.2016C213.122 59.2031 213.122 59.2046 213.122 59.2061C213.122 59.2076 213.122 59.2091 213.122 59.2106C213.122 59.2121 213.122 59.2136 213.122 59.2151C213.122 59.2166 213.122 59.2181 213.122 59.2196C213.122 59.2211 213.122 59.2227 213.122 59.2242C213.122 59.2257 213.122 59.2272 213.122 59.2287C213.122 59.2303 213.122 59.2318 213.122 59.2333C213.122 59.2348 213.122 59.2364 213.122 59.2379C213.122 59.2394 213.122 59.241 213.122 59.2425C213.122 59.244 213.122 59.2456 213.122 59.2471C213.122 59.2486 213.122 59.2502 213.122 59.2517C213.122 59.2533 213.122 59.2548 213.122 59.2563C213.122 59.2579 213.122 59.2594 213.122 59.261C213.122 59.2625 213.122 59.2641 213.122 59.2657C213.122 59.2672 213.122 59.2688 213.122 59.2703C213.122 59.2719 213.122 59.2734 213.122 59.275C213.122 59.2766 213.122 59.2781 213.122 59.2797C213.122 59.2813 213.122 59.2828 213.122 59.2844C213.122 59.286 213.122 59.2875 213.122 59.2891C213.122 59.2907 213.122 59.2923 213.122 59.2939C213.122 59.2954 213.122 59.297 213.122 59.2986C213.122 59.3002 213.122 59.3018 213.122 59.3033C213.122 59.3049 213.122 59.3065 213.122 59.3081C213.122 59.3097 213.122 59.3113 213.122 59.3129C213.122 59.3145 213.122 59.3161 213.122 59.3177C213.122 59.3193 213.122 59.3209 213.122 59.3225C213.122 59.3241 213.122 59.3257 213.122 59.3273C213.122 59.3289 213.122 59.3305 213.122 59.3321C213.122 59.3337 213.122 59.3354 213.122 59.337C213.122 59.3386 213.122 59.3402 213.122 59.3418C213.122 59.3434 213.122 59.3451 213.122 59.3467C213.122 59.3483 213.122 59.3499 213.122 59.3516C213.122 59.3532 213.122 59.3548 213.122 59.3564C213.122 59.3581 213.122 59.3597 213.122 59.3614C213.122 59.363 213.122 59.3646 213.122 59.3663C213.122 59.3679 213.122 59.3696 213.122 59.3712C213.122 59.3728 213.122 59.3745 213.122 59.3761C213.122 59.3778 213.122 59.3794 213.122 59.3811C213.122 59.3827 213.122 59.3844 213.122 59.386C213.122 59.3877 213.122 59.3894 213.122 59.391C213.122 59.3927 213.122 59.3943 213.122 59.396C213.122 59.3977 213.122 59.3993 213.122 59.401C213.122 59.4027 213.122 59.4043 213.122 59.406C213.122 59.4077 213.122 59.4094 213.122 59.411C213.122 59.4127 213.122 59.4144 213.122 59.4161C213.122 59.4178 213.122 59.4194 213.122 59.4211C213.122 59.4228 213.122 59.4245 213.122 59.4262C213.122 59.4279 213.122 59.4296 213.122 59.4312C213.122 59.4329 213.122 59.4346 213.122 59.4363C213.122 59.438 213.122 59.4397 213.122 59.4414C213.122 59.4431 213.122 59.4448 213.122 59.4465C213.122 59.4482 213.122 59.45 213.122 59.4517C213.122 59.4534 213.122 59.4551 213.122 59.4568C213.122 59.4585 213.122 59.4602 213.122 59.4619C213.122 59.4637 213.122 59.4654 213.122 59.4671C213.122 59.4688 213.122 59.4705 213.122 59.4723C213.122 59.474 213.122 59.4757 213.122 59.4774C213.122 59.4792 213.122 59.4809 213.122 59.4826C213.122 59.4844 213.122 59.4861 213.122 59.4879C213.122 59.4896 213.122 59.4913 213.122 59.4931C213.122 59.4948 213.122 59.4966 213.122 59.4983C213.122 59.5 213.122 59.5018 213.122 59.5035C213.122 59.5053 213.122 59.507 213.122 59.5088C213.122 59.5105 213.122 59.5123 213.122 59.5141C213.122 59.5158 213.122 59.5176 213.122 59.5193C213.122 59.5211 213.122 59.5229 213.122 59.5246C213.122 59.5264 213.122 59.5282 213.122 59.5299C213.122 59.5317 213.122 59.5335 213.122 59.5352C213.122 59.537 213.122 59.5388 213.122 59.5406C213.122 59.5424 213.122 59.5441 213.122 59.5459C213.122 59.5477 213.122 59.5495 213.122 59.5513C213.122 59.5531 213.122 59.5549 213.122 59.5566C213.122 59.5584 213.122 59.5602 213.122 59.562C213.122 59.5638 213.122 59.5656 213.122 59.5674C213.122 59.5692 213.122 59.571 213.122 59.5728C213.122 59.5746 213.122 59.5764 213.122 59.5782C213.122 59.58 213.122 59.5818 213.122 59.5836C213.122 59.5855 213.122 59.5873 213.122 59.5891C213.122 59.5909 213.122 59.5927 213.122 59.5945C213.122 59.5964 213.122 59.5982 213.122 59.6C213.122 59.6018 213.122 59.6037 213.122 59.6055C213.122 59.6073 213.122 59.6091 213.122 59.611C213.122 59.6128 213.122 59.6146 213.122 59.6165C213.122 59.6183 213.122 59.6201 213.122 59.622C213.122 59.6238 213.122 59.6257 213.122 59.6275C213.122 59.6293 213.122 59.6312 213.122 59.633C213.122 59.6349 213.122 59.6367 213.122 59.6386C213.122 59.6404 213.122 59.6423 213.122 59.6441C213.122 59.646 213.122 59.6479 213.122 59.6497C213.122 59.6516 213.122 59.6534 213.122 59.6553C213.122 59.6572 213.122 59.659 213.122 59.6609C213.122 59.6628 213.122 59.6646 213.122 59.6665C213.122 59.6684 213.122 59.6702 213.122 59.6721C213.122 59.674 213.122 59.6759 213.122 59.6778C213.122 59.6796 213.122 59.6815 213.122 59.6834C213.122 59.6853 213.122 59.6872 213.122 59.6891C213.122 59.6909 213.122 59.6928 213.122 59.6947C213.122 59.6966 213.122 59.6985 213.122 59.7004C213.122 59.7023 213.122 59.7042 213.122 59.7061C213.122 59.708 213.122 59.7099 213.122 59.7118C213.122 59.7137 213.122 59.7156 213.122 59.7175C213.122 59.7194 213.122 59.7214 213.122 59.7233C213.122 59.7252 213.122 59.7271 213.122 59.729C213.122 59.7309 213.122 59.7328 213.122 59.7348C213.122 59.7367 213.122 59.7386 213.122 59.7405C213.122 59.7425 213.122 59.7444 213.122 59.7463C213.122 59.7482 213.122 59.7502 213.122 59.7521C213.122 59.754 213.122 59.756 213.122 59.7579C213.122 59.7598 213.122 59.7618 213.122 59.7637C213.122 59.7657 213.122 59.7676 213.122 59.7696C213.122 59.7715 213.122 59.7735 213.122 59.7754C213.122 59.7773 213.122 59.7793 213.122 59.7812C213.122 59.7832 213.122 59.7852 213.122 59.7871C213.122 59.7891 213.122 59.791 213.122 59.793C213.122 59.795 213.122 59.7969 213.122 59.7989C213.122 59.8008 213.122 59.8028 213.122 59.8048C213.122 59.8067 213.122 59.8087 213.122 59.8107C213.122 59.8127 213.122 59.8147 213.122 59.8166C213.122 59.8186 213.122 59.8206 213.122 59.8226C213.122 59.8245 213.122 59.8265 213.122 59.8285C213.122 59.8305 213.122 59.8325 213.122 59.8345C213.122 59.8365 213.122 59.8385 213.122 59.8405C213.122 59.8425 213.122 59.8444 213.122 59.8464C213.122 59.8484 213.122 59.8504 213.122 59.8524C213.122 59.8544 213.122 59.8564 213.122 59.8584C213.122 59.8605 213.122 59.8625 213.122 59.8645C213.122 59.8665 213.122 59.8685 213.122 59.8705C213.122 59.8725 213.122 59.8745 213.122 59.8766C213.122 59.8786 213.122 59.8806 213.122 59.8826C213.122 59.8846 213.122 59.8867 213.122 59.8887C213.122 59.8907 213.122 59.8927 213.122 59.8948C213.122 59.8968 213.122 59.8988 213.122 59.9009C213.122 59.9029 213.122 59.905 213.122 59.907C213.122 59.909 213.122 59.9111 213.122 59.9131C213.122 59.9151 213.122 59.9172 213.122 59.9192C213.122 59.9213 213.122 59.9233 213.122 59.9254C213.122 59.9274 213.122 59.9295 213.122 59.9315C213.122 59.9336 213.122 59.9357 213.122 59.9377C213.122 59.9398 213.122 59.9418 213.122 59.9439C213.122 59.946 213.122 59.948 213.122 59.9501C213.122 59.9522 213.122 59.9542 213.122 59.9563C213.122 59.9584 213.122 59.9604 213.122 59.9625C213.122 59.9646 213.122 59.9667 213.122 59.9688C213.122 59.9708 213.122 59.9729 213.122 59.975C213.122 59.9771 213.122 59.9792 213.122 59.9812C213.122 59.9833 213.122 59.9854 213.122 59.9875C213.122 59.9896 213.122 59.9917 213.122 59.9938C213.122 59.9959 213.122 59.998 213.122 60.0001C213.122 60.0022 213.122 60.0043 213.122 60.0064C213.122 60.0085 213.122 60.0106 213.122 60.0127C213.122 60.0148 213.122 60.0169 213.122 60.019C213.122 60.0212 213.122 60.0233 213.122 60.0254C213.122 60.0275 213.122 60.0296 213.122 60.0317C213.122 60.0339 213.122 60.036 213.122 60.0381C213.122 60.0402 213.122 60.0424 213.122 60.0445C213.122 60.0466 213.122 60.0488 213.122 60.0509C213.122 60.053 213.122 60.0551 213.122 60.0573C213.122 60.0594 213.122 60.0616 213.122 60.0637C213.122 60.0658 213.122 60.068 213.122 60.0701C213.122 60.0723 213.122 60.0744 213.122 60.0766C213.122 60.0787 213.122 60.0809 213.122 60.083C213.122 60.0852 213.122 60.0873 213.122 60.0895C213.122 60.0916 213.122 60.0938 213.122 60.0959C213.122 60.0981 213.122 60.1003 213.122 60.1024C213.122 60.1046 213.122 60.1068 213.122 60.1089C213.122 60.1111 213.122 60.1133 213.122 60.1154C213.122 60.1176 213.122 60.1198 213.122 60.122C213.122 60.1242 213.122 60.1263 213.122 60.1285C213.122 60.1307 213.122 60.1329 213.122 60.1351C213.122 60.1373 213.122 60.1394 213.122 60.1416C213.122 60.1438 213.122 60.146 213.122 60.1482C213.122 60.1504 213.122 60.1526 213.122 60.1548C213.122 60.157 213.122 60.1592 213.122 60.1614C213.122 60.1636 213.122 60.1658 213.122 60.168C213.122 60.1702 213.122 60.1724 213.122 60.1746C213.122 60.1768 213.122 60.179 213.122 60.1812C213.122 60.1835 213.122 60.1857 213.122 60.1879C213.122 60.1901 213.122 60.1923 213.122 60.1945C213.122 60.1968 213.122 60.199 213.122 60.2012C213.122 60.2034 213.122 60.2057 213.122 60.2079C213.122 60.2101 213.122 60.2124 213.122 60.2146C213.122 60.2168 213.122 60.2191 213.122 60.2213C213.122 60.2236 213.122 60.2258 213.122 60.228C213.122 60.2303 213.122 60.2325 213.122 60.2348C213.122 60.237 213.122 60.2393 213.122 60.2415C213.122 60.2438 213.122 60.246 213.122 60.2483C213.122 60.2505 213.122 60.2528 213.122 60.255C213.122 60.2573 213.122 60.2596 213.122 60.2618C213.122 60.2641 213.122 60.2663 213.122 60.2686C213.122 60.2709 213.122 60.2731 213.122 60.2754C213.122 60.2777 213.122 60.28 213.122 60.2822C213.122 60.2845 213.122 60.2868 213.122 60.2891C213.122 60.2913 213.122 60.2936 213.122 60.2959C213.122 60.2982 213.122 60.3005 213.122 60.3027C213.122 60.305 213.122 60.3073 213.122 60.3096C213.122 60.3119 213.122 60.3142 213.122 60.3165C213.122 60.3188 213.122 60.3211 213.122 60.3234C213.122 60.3257 213.122 60.328 213.122 60.3303C213.122 60.3326 213.122 60.3349 213.122 60.3372C213.122 60.3395 213.122 60.3418 213.122 60.3441C213.122 60.3465 213.122 60.3488 213.122 60.3511C213.122 60.3534 213.122 60.3557 213.122 60.358C213.122 60.3604 213.122 60.3627 213.122 60.365C213.122 60.3673 213.122 60.3696 213.122 60.372C213.122 60.3743 213.122 60.3766 213.122 60.379C213.122 60.3813 213.122 60.3836 213.122 60.386C213.122 60.3883 213.122 60.3906 213.122 60.393C213.122 60.3953 213.122 60.3977 213.122 60.4H217.122C217.122 60.3977 217.122 60.3953 217.122 60.393C217.122 60.3906 217.122 60.3883 217.122 60.386C217.122 60.3836 217.122 60.3813 217.122 60.379C217.122 60.3766 217.122 60.3743 217.122 60.372C217.122 60.3696 217.122 60.3673 217.122 60.365C217.122 60.3627 217.122 60.3604 217.122 60.358C217.122 60.3557 217.122 60.3534 217.122 60.3511C217.122 60.3488 217.122 60.3465 217.122 60.3441C217.122 60.3418 217.122 60.3395 217.122 60.3372C217.122 60.3349 217.122 60.3326 217.122 60.3303C217.122 60.328 217.122 60.3257 217.122 60.3234C217.122 60.3211 217.122 60.3188 217.122 60.3165C217.122 60.3142 217.122 60.3119 217.122 60.3096C217.122 60.3073 217.122 60.305 217.122 60.3027C217.122 60.3005 217.122 60.2982 217.122 60.2959C217.122 60.2936 217.122 60.2913 217.122 60.2891C217.122 60.2868 217.122 60.2845 217.122 60.2822C217.122 60.28 217.122 60.2777 217.122 60.2754C217.122 60.2731 217.122 60.2709 217.122 60.2686C217.122 60.2663 217.122 60.2641 217.122 60.2618C217.122 60.2596 217.122 60.2573 217.122 60.255C217.122 60.2528 217.122 60.2505 217.122 60.2483C217.122 60.246 217.122 60.2438 217.122 60.2415C217.122 60.2393 217.122 60.237 217.122 60.2348C217.122 60.2325 217.122 60.2303 217.122 60.228C217.122 60.2258 217.122 60.2236 217.122 60.2213C217.122 60.2191 217.122 60.2168 217.122 60.2146C217.122 60.2124 217.122 60.2101 217.122 60.2079C217.122 60.2057 217.122 60.2034 217.122 60.2012C217.122 60.199 217.122 60.1968 217.122 60.1945C217.122 60.1923 217.122 60.1901 217.122 60.1879C217.122 60.1857 217.122 60.1835 217.122 60.1812C217.122 60.179 217.122 60.1768 217.122 60.1746C217.122 60.1724 217.122 60.1702 217.122 60.168C217.122 60.1658 217.122 60.1636 217.122 60.1614C217.122 60.1592 217.122 60.157 217.122 60.1548C217.122 60.1526 217.122 60.1504 217.122 60.1482C217.122 60.146 217.122 60.1438 217.122 60.1416C217.122 60.1394 217.122 60.1373 217.122 60.1351C217.122 60.1329 217.122 60.1307 217.122 60.1285C217.122 60.1263 217.122 60.1242 217.122 60.122C217.122 60.1198 217.122 60.1176 217.122 60.1154C217.122 60.1133 217.122 60.1111 217.122 60.1089C217.122 60.1068 217.122 60.1046 217.122 60.1024C217.122 60.1003 217.122 60.0981 217.122 60.0959C217.122 60.0938 217.122 60.0916 217.122 60.0895C217.122 60.0873 217.122 60.0852 217.122 60.083C217.122 60.0809 217.122 60.0787 217.122 60.0766C217.122 60.0744 217.122 60.0723 217.122 60.0701C217.122 60.068 217.122 60.0658 217.122 60.0637C217.122 60.0616 217.122 60.0594 217.122 60.0573C217.122 60.0551 217.122 60.053 217.122 60.0509C217.122 60.0488 217.122 60.0466 217.122 60.0445C217.122 60.0424 217.122 60.0402 217.122 60.0381C217.122 60.036 217.122 60.0339 217.122 60.0317C217.122 60.0296 217.122 60.0275 217.122 60.0254C217.122 60.0233 217.122 60.0212 217.122 60.019C217.122 60.0169 217.122 60.0148 217.122 60.0127C217.122 60.0106 217.122 60.0085 217.122 60.0064C217.122 60.0043 217.122 60.0022 217.122 60.0001C217.122 59.998 217.122 59.9959 217.122 59.9938C217.122 59.9917 217.122 59.9896 217.122 59.9875C217.122 59.9854 217.122 59.9833 217.122 59.9812C217.122 59.9792 217.122 59.9771 217.122 59.975C217.122 59.9729 217.122 59.9708 217.122 59.9688C217.122 59.9667 217.122 59.9646 217.122 59.9625C217.122 59.9604 217.122 59.9584 217.122 59.9563C217.122 59.9542 217.122 59.9522 217.122 59.9501C217.122 59.948 217.122 59.946 217.122 59.9439C217.122 59.9418 217.122 59.9398 217.122 59.9377C217.122 59.9357 217.122 59.9336 217.122 59.9315C217.122 59.9295 217.122 59.9274 217.122 59.9254C217.122 59.9233 217.122 59.9213 217.122 59.9192C217.122 59.9172 217.122 59.9151 217.122 59.9131C217.122 59.9111 217.122 59.909 217.122 59.907C217.122 59.905 217.122 59.9029 217.122 59.9009C217.122 59.8988 217.122 59.8968 217.122 59.8948C217.122 59.8927 217.122 59.8907 217.122 59.8887C217.122 59.8867 217.122 59.8846 217.122 59.8826C217.122 59.8806 217.122 59.8786 217.122 59.8766C217.122 59.8745 217.122 59.8725 217.122 59.8705C217.122 59.8685 217.122 59.8665 217.122 59.8645C217.122 59.8625 217.122 59.8605 217.122 59.8584C217.122 59.8564 217.122 59.8544 217.122 59.8524C217.122 59.8504 217.122 59.8484 217.122 59.8464C217.122 59.8444 217.122 59.8425 217.122 59.8405C217.122 59.8385 217.122 59.8365 217.122 59.8345C217.122 59.8325 217.122 59.8305 217.122 59.8285C217.122 59.8265 217.122 59.8245 217.122 59.8226C217.122 59.8206 217.122 59.8186 217.122 59.8166C217.122 59.8147 217.122 59.8127 217.122 59.8107C217.122 59.8087 217.122 59.8067 217.122 59.8048C217.122 59.8028 217.122 59.8008 217.122 59.7989C217.122 59.7969 217.122 59.795 217.122 59.793C217.122 59.791 217.122 59.7891 217.122 59.7871C217.122 59.7852 217.122 59.7832 217.122 59.7812C217.122 59.7793 217.122 59.7773 217.122 59.7754C217.122 59.7735 217.122 59.7715 217.122 59.7696C217.122 59.7676 217.122 59.7657 217.122 59.7637C217.122 59.7618 217.122 59.7598 217.122 59.7579C217.122 59.756 217.122 59.754 217.122 59.7521C217.122 59.7502 217.122 59.7482 217.122 59.7463C217.122 59.7444 217.122 59.7425 217.122 59.7405C217.122 59.7386 217.122 59.7367 217.122 59.7348C217.122 59.7328 217.122 59.7309 217.122 59.729C217.122 59.7271 217.122 59.7252 217.122 59.7233C217.122 59.7214 217.122 59.7194 217.122 59.7175C217.122 59.7156 217.122 59.7137 217.122 59.7118C217.122 59.7099 217.122 59.708 217.122 59.7061C217.122 59.7042 217.122 59.7023 217.122 59.7004C217.122 59.6985 217.122 59.6966 217.122 59.6947C217.122 59.6928 217.122 59.6909 217.122 59.6891C217.122 59.6872 217.122 59.6853 217.122 59.6834C217.122 59.6815 217.122 59.6796 217.122 59.6778C217.122 59.6759 217.122 59.674 217.122 59.6721C217.122 59.6702 217.122 59.6684 217.122 59.6665C217.122 59.6646 217.122 59.6628 217.122 59.6609C217.122 59.659 217.122 59.6572 217.122 59.6553C217.122 59.6534 217.122 59.6516 217.122 59.6497C217.122 59.6479 217.122 59.646 217.122 59.6441C217.122 59.6423 217.122 59.6404 217.122 59.6386C217.122 59.6367 217.122 59.6349 217.122 59.633C217.122 59.6312 217.122 59.6293 217.122 59.6275C217.122 59.6257 217.122 59.6238 217.122 59.622C217.122 59.6201 217.122 59.6183 217.122 59.6165C217.122 59.6146 217.122 59.6128 217.122 59.611C217.122 59.6091 217.122 59.6073 217.122 59.6055C217.122 59.6037 217.122 59.6018 217.122 59.6C217.122 59.5982 217.122 59.5964 217.122 59.5945C217.122 59.5927 217.122 59.5909 217.122 59.5891C217.122 59.5873 217.122 59.5855 217.122 59.5836C217.122 59.5818 217.122 59.58 217.122 59.5782C217.122 59.5764 217.122 59.5746 217.122 59.5728C217.122 59.571 217.122 59.5692 217.122 59.5674C217.122 59.5656 217.122 59.5638 217.122 59.562C217.122 59.5602 217.122 59.5584 217.122 59.5566C217.122 59.5549 217.122 59.5531 217.122 59.5513C217.122 59.5495 217.122 59.5477 217.122 59.5459C217.122 59.5441 217.122 59.5424 217.122 59.5406C217.122 59.5388 217.122 59.537 217.122 59.5352C217.122 59.5335 217.122 59.5317 217.122 59.5299C217.122 59.5282 217.122 59.5264 217.122 59.5246C217.122 59.5229 217.122 59.5211 217.122 59.5193C217.122 59.5176 217.122 59.5158 217.122 59.5141C217.122 59.5123 217.122 59.5105 217.122 59.5088C217.122 59.507 217.122 59.5053 217.122 59.5035C217.122 59.5018 217.122 59.5 217.122 59.4983C217.122 59.4966 217.122 59.4948 217.122 59.4931C217.122 59.4913 217.122 59.4896 217.122 59.4879C217.122 59.4861 217.122 59.4844 217.122 59.4826C217.122 59.4809 217.122 59.4792 217.122 59.4774C217.122 59.4757 217.122 59.474 217.122 59.4723C217.122 59.4705 217.122 59.4688 217.122 59.4671C217.122 59.4654 217.122 59.4637 217.122 59.4619C217.122 59.4602 217.122 59.4585 217.122 59.4568C217.122 59.4551 217.122 59.4534 217.122 59.4517C217.122 59.45 217.122 59.4482 217.122 59.4465C217.122 59.4448 217.122 59.4431 217.122 59.4414C217.122 59.4397 217.122 59.438 217.122 59.4363C217.122 59.4346 217.122 59.4329 217.122 59.4312C217.122 59.4296 217.122 59.4279 217.122 59.4262C217.122 59.4245 217.122 59.4228 217.122 59.4211C217.122 59.4194 217.122 59.4178 217.122 59.4161C217.122 59.4144 217.122 59.4127 217.122 59.411C217.122 59.4094 217.122 59.4077 217.122 59.406C217.122 59.4043 217.122 59.4027 217.122 59.401C217.122 59.3993 217.122 59.3977 217.122 59.396C217.122 59.3943 217.122 59.3927 217.122 59.391C217.122 59.3894 217.122 59.3877 217.122 59.386C217.122 59.3844 217.122 59.3827 217.122 59.3811C217.122 59.3794 217.122 59.3778 217.122 59.3761C217.122 59.3745 217.122 59.3728 217.122 59.3712C217.122 59.3696 217.122 59.3679 217.122 59.3663C217.122 59.3646 217.122 59.363 217.122 59.3614C217.122 59.3597 217.122 59.3581 217.122 59.3564C217.122 59.3548 217.122 59.3532 217.122 59.3516C217.122 59.3499 217.122 59.3483 217.122 59.3467C217.122 59.3451 217.122 59.3434 217.122 59.3418C217.122 59.3402 217.122 59.3386 217.122 59.337C217.122 59.3354 217.122 59.3337 217.122 59.3321C217.122 59.3305 217.122 59.3289 217.122 59.3273C217.122 59.3257 217.122 59.3241 217.122 59.3225C217.122 59.3209 217.122 59.3193 217.122 59.3177C217.122 59.3161 217.122 59.3145 217.122 59.3129C217.122 59.3113 217.122 59.3097 217.122 59.3081C217.122 59.3065 217.122 59.3049 217.122 59.3033C217.122 59.3018 217.122 59.3002 217.122 59.2986C217.122 59.297 217.122 59.2954 217.122 59.2939C217.122 59.2923 217.122 59.2907 217.122 59.2891C217.122 59.2875 217.122 59.286 217.122 59.2844C217.122 59.2828 217.122 59.2813 217.122 59.2797C217.122 59.2781 217.122 59.2766 217.122 59.275C217.122 59.2734 217.122 59.2719 217.122 59.2703C217.122 59.2688 217.122 59.2672 217.122 59.2657C217.122 59.2641 217.122 59.2625 217.122 59.261C217.122 59.2594 217.122 59.2579 217.122 59.2563C217.122 59.2548 217.122 59.2533 217.122 59.2517C217.122 59.2502 217.122 59.2486 217.122 59.2471C217.122 59.2456 217.122 59.244 217.122 59.2425C217.122 59.241 217.122 59.2394 217.122 59.2379C217.122 59.2364 217.122 59.2348 217.122 59.2333C217.122 59.2318 217.122 59.2303 217.122 59.2287C217.122 59.2272 217.122 59.2257 217.122 59.2242C217.122 59.2227 217.122 59.2211 217.122 59.2196C217.122 59.2181 217.122 59.2166 217.122 59.2151C217.122 59.2136 217.122 59.2121 217.122 59.2106C217.122 59.2091 217.122 59.2076 217.122 59.2061C217.122 59.2046 217.122 59.2031 217.122 59.2016C217.122 59.2001 217.122 59.1986 217.122 59.1971C217.122 59.1956 217.122 59.1941 217.122 59.1926C217.122 59.1911 217.122 59.1896 217.122 59.1881C217.122 59.1867 217.122 59.1852 217.122 59.1837C217.122 59.1822 217.122 59.1807 217.122 59.1793C217.122 59.1778 217.122 59.1763 217.122 59.1748C217.122 59.1734 217.122 59.1719 217.122 59.1704C217.122 59.1689 217.122 59.1675 217.122 59.166C217.122 59.1646 217.122 59.1631 217.122 59.1616C217.122 59.1602 217.122 59.1587 217.122 59.1573C217.122 59.1558 217.122 59.1543 217.122 59.1529C217.122 59.1514 217.122 59.15 217.122 59.1485C217.122 59.1471 217.122 59.1456 217.122 59.1442C217.122 59.1427 217.122 59.1413 217.122 59.1399C217.122 59.1384 217.122 59.137 217.122 59.1356C217.122 59.1341 217.122 59.1327 217.122 59.1313C217.122 59.1298 217.122 59.1284 217.122 59.127C217.122 59.1255 217.122 59.1241 217.122 59.1227C217.122 59.1213 217.122 59.1198 217.122 59.1184C217.122 59.117 217.122 59.1156 217.122 59.1142C217.122 59.1127 217.122 59.1113 217.122 59.1099C217.122 59.1085 217.122 59.1071 217.122 59.1057C217.122 59.1043 217.122 59.1029 217.122 59.1015C217.122 59.1001 217.122 59.0987 217.122 59.0973C217.122 59.0959 217.122 59.0945 217.122 59.0931C217.122 59.0917 217.122 59.0903 217.122 59.0889C217.122 59.0875 217.122 59.0861 217.122 59.0847C217.122 59.0833 217.122 59.082 217.122 59.0806C217.122 59.0792 217.122 59.0778 217.122 59.0764C217.122 59.075 217.122 59.0737 217.122 59.0723C217.122 59.0709 217.122 59.0695 217.122 59.0682C217.122 59.0668 217.122 59.0654 217.122 59.0641C217.122 59.0627 217.122 59.0613 217.122 59.06C217.122 59.0586 217.122 59.0572 217.122 59.0559C217.122 59.0545 217.122 59.0532 217.122 59.0518C217.122 59.0505 217.122 59.0491 217.122 59.0478C217.122 59.0464 217.122 59.0451 217.122 59.0437C217.122 59.0424 217.122 59.041 217.122 59.0397C217.122 59.0383 217.122 59.037 217.122 59.0356C217.122 59.0343 217.122 59.033 217.122 59.0316C217.122 59.0303 217.122 59.029 217.122 59.0276C217.122 59.0263 217.122 59.025 217.122 59.0237C217.122 59.0223 217.122 59.021 217.122 59.0197C217.122 59.0184 217.122 59.017 217.122 59.0157C217.122 59.0144 217.122 59.0131 217.122 59.0118C217.122 59.0105 217.122 59.0091 217.122 59.0078C217.122 59.0065 217.122 59.0052 217.122 59.0039C217.122 59.0026 217.122 59.0013 217.122 59C217.122 58.9987 217.122 58.9974 217.122 58.9961C217.122 58.9948 217.122 58.9935 217.122 58.9922C217.122 58.9909 217.122 58.9896 217.122 58.9883C217.122 58.987 217.122 58.9858 217.122 58.9845C217.122 58.9832 217.122 58.9819 217.122 58.9806C217.122 58.9793 217.122 58.9781 217.122 58.9768C217.122 58.9755 217.122 58.9742 217.122 58.973C217.122 58.9717 217.122 58.9704 217.122 58.9691C217.122 58.9679 217.122 58.9666 217.122 58.9653C217.122 58.9641 217.122 58.9628 217.122 58.9615C217.122 58.9603 217.122 58.959 217.122 58.9578C217.122 58.9565 217.122 58.9553 217.122 58.954C217.122 58.9527 217.122 58.9515 217.122 58.9503C217.122 58.949 217.122 58.9478 217.122 58.9465C217.122 58.9453 217.122 58.944 217.122 58.9428C217.122 58.9415 217.122 58.9403 217.122 58.9391C217.122 58.9378 217.122 58.9366 217.122 58.9354C217.122 58.9341 217.122 58.9329 217.122 58.9317C217.122 58.9304 217.122 58.9292 217.122 58.928C217.122 58.9268 217.122 58.9255 217.122 58.9243C217.122 58.9231 217.122 58.9219 217.122 58.9207C217.122 58.9194 217.122 58.9182 217.122 58.917C217.122 58.9158 217.122 58.9146 217.122 58.9134C217.122 58.9122 217.122 58.911 217.122 58.9098C217.122 58.9086 217.122 58.9074 217.122 58.9062C217.122 58.905 217.122 58.9038 217.122 58.9026C217.122 58.9014 217.122 58.9002 217.122 58.899C217.122 58.8978 217.122 58.8966 217.122 58.8954C217.122 58.8942 217.122 58.893 217.122 58.8918C217.122 58.8907 217.122 58.8895 217.122 58.8883C217.122 58.8871 217.122 58.8859 217.122 58.8848C217.122 58.8836 217.122 58.8824 217.122 58.8813C217.122 58.8801 217.122 58.8789 217.122 58.8777C217.122 58.8766 217.122 58.8754 217.122 58.8742C217.122 58.8731 217.122 58.8719 217.122 58.8708C217.122 58.8696 217.122 58.8684 217.122 58.8673C217.122 58.8661 217.122 58.865 217.122 58.8638C217.122 58.8627 217.122 58.8615 217.122 58.8604C217.122 58.8592 217.122 58.8581 217.122 58.8569C217.122 58.8558 217.122 58.8547 217.122 58.8535C217.122 58.8524 217.122 58.8512 217.122 58.8501C217.122 58.849 217.122 58.8478 217.122 58.8467C217.122 58.8456 217.122 58.8444 217.122 58.8433C217.122 58.8422 217.122 58.8411 217.122 58.8399C217.122 58.8388 217.122 58.8377 217.122 58.8366C217.122 58.8355 217.122 58.8343 217.122 58.8332C217.122 58.8321 217.122 58.831 217.122 58.8299C217.122 58.8288 217.122 58.8277 217.122 58.8266C217.122 58.8255 217.122 58.8244 217.122 58.8232C217.122 58.8221 217.122 58.821 217.122 58.8199C217.122 58.8188 217.122 58.8177 217.122 58.8167C217.122 58.8156 217.122 58.8145 217.122 58.8134C217.122 58.8123 217.122 58.8112 217.122 58.8101C217.122 58.809 217.122 58.8079 217.122 58.8069C217.122 58.8058 217.122 58.8047 217.122 58.8036C217.122 58.8025 217.122 58.8015 217.122 58.8004C217.122 58.7993 217.122 58.7982 217.122 58.7972C217.122 58.7961 217.122 58.795 217.122 58.794C217.122 58.7929 217.122 58.7918 217.122 58.7908C217.122 58.7897 217.122 58.7887 217.122 58.7876C217.122 58.7865 217.122 58.7855 217.122 58.7844C217.122 58.7834 217.122 58.7823 217.122 58.7813C217.122 58.7802 217.122 58.7792 217.122 58.7781C217.122 58.7771 217.122 58.776 217.122 58.775C217.122 58.774 217.122 58.7729 217.122 58.7719C217.122 58.7708 217.122 58.7698 217.122 58.7688C217.122 58.7677 217.122 58.7667 217.122 58.7657C217.122 58.7646 217.122 58.7636 217.122 58.7626C217.122 58.7616 217.122 58.7605 217.122 58.7595C217.122 58.7585 217.122 58.7575 217.122 58.7565C217.122 58.7554 217.122 58.7544 217.122 58.7534C217.122 58.7524 217.122 58.7514 217.122 58.7504C217.122 58.7494 217.122 58.7484 217.122 58.7474C217.122 58.7464 217.122 58.7454 217.122 58.7444C217.122 58.7434 217.122 58.7424 217.122 58.7414C217.122 58.7404 217.122 58.7394 217.122 58.7384C217.122 58.7374 217.122 58.7364 217.122 58.7354C217.122 58.7344 217.122 58.7334 217.122 58.7325C217.122 58.7315 217.122 58.7305 217.122 58.7295C217.122 58.7285 217.122 58.7275 217.122 58.7266C217.122 58.7256 217.122 58.7246 217.122 58.7236C217.122 58.7227 217.122 58.7217 217.122 58.7207C217.122 58.7198 217.122 58.7188 217.122 58.7178C217.122 58.7169 217.122 58.7159 217.122 58.7149C217.122 58.714 217.122 58.713 217.122 58.7121C217.122 58.7111 217.122 58.7102 217.122 58.7092C217.122 58.7083 217.122 58.7073 217.122 58.7064C217.122 58.7054 217.122 58.7045 217.122 58.7035C217.122 58.7026 217.122 58.7016 217.122 58.7007C217.122 58.6998 217.122 58.6988 217.122 58.6979C217.122 58.6969 217.122 58.696 217.122 58.6951C217.122 58.6941 217.122 58.6932 217.122 58.6923C217.122 58.6914 217.122 58.6904 217.122 58.6895C217.122 58.6886 217.122 58.6877 217.122 58.6867C217.122 58.6858 217.122 58.6849 217.122 58.684C217.122 58.6831 217.122 58.6822 217.122 58.6812C217.122 58.6803 217.122 58.6794 217.122 58.6785C217.122 58.6776 217.122 58.6767 217.122 58.6758C217.122 58.6749 217.122 58.674 217.122 58.6731C217.122 58.6722 217.122 58.6713 217.122 58.6704C217.122 58.6695 217.122 58.6686 217.122 58.6677C217.122 58.6668 217.122 58.666 217.122 58.6651C217.122 58.6642 217.122 58.6633 217.122 58.6624C217.122 58.6615 217.122 58.6606 217.122 58.6598C217.122 58.6589 217.122 58.658 217.122 58.6571C217.122 58.6563 217.122 58.6554 217.122 58.6545C217.122 58.6536 217.122 58.6528 217.122 58.6519C217.122 58.651 217.122 58.6502 217.122 58.6493C217.122 58.6485 217.122 58.6476 217.122 58.6467C217.122 58.6459 217.122 58.645 217.122 58.6442C217.122 58.6433 217.122 58.6425 217.122 58.6416C217.122 58.6408 217.122 58.6399 217.122 58.6391C217.122 58.6382 217.122 58.6374 217.122 58.6365C217.122 58.6357 217.122 58.6348 217.122 58.634C217.122 58.6332 217.122 58.6323 217.122 58.6315C217.122 58.6307 217.122 58.6298 217.122 58.629C217.122 58.6282 217.122 58.6273 217.122 58.6265C217.122 58.6257 217.122 58.6249 217.122 58.6241C217.122 58.6232 217.122 58.6224 217.122 58.6216C217.122 58.6208 217.122 58.6199 217.122 58.6191C217.122 58.6183 217.122 58.6175 217.122 58.6167C217.122 58.6159 217.122 58.6151 217.122 58.6143C217.122 58.6135 217.122 58.6127 217.122 58.6119C217.122 58.6111 217.122 58.6103 217.122 58.6095C217.122 58.6087 217.122 58.6079 217.122 58.6071C217.122 58.6063 217.122 58.6055 217.122 58.6047C217.122 58.6039 217.122 58.6031 217.122 58.6024C217.122 58.6016 217.122 58.6008 217.122 58.6C217.122 58.5992 217.122 58.5984 217.122 58.5977C217.122 58.5969 217.122 58.5961 217.122 58.5953C217.122 58.5946 217.122 58.5938 217.122 58.593C217.122 58.5923 217.122 58.5915 217.122 58.5907C217.122 58.59 217.122 58.5892 217.122 58.5884C217.122 58.5877 217.122 58.5869 217.122 58.5862C217.122 58.5854 217.122 58.5846 217.122 58.5839C217.122 58.5831 217.122 58.5824 217.122 58.5816C217.122 58.5809 217.122 58.5801 217.122 58.5794C217.122 58.5787 217.122 58.5779 217.122 58.5772C217.122 58.5764 217.122 58.5757 217.122 58.575C217.122 58.5742 217.122 58.5735 217.122 58.5728C217.122 58.572 217.122 58.5713 217.122 58.5706C217.122 58.5698 217.122 58.5691 217.122 58.5684C217.122 58.5677 217.122 58.5669 217.122 58.5662C217.122 58.5655 217.122 58.5648 217.122 58.5641C217.122 58.5633 217.122 58.5626 217.122 58.5619C217.122 58.5612 217.122 58.5605 217.122 58.5598C217.122 58.5591 217.122 58.5584 217.122 58.5577C217.122 58.557 217.122 58.5563 217.122 58.5556C217.122 58.5549 217.122 58.5542 217.122 58.5535C217.122 58.5528 217.122 58.5521 217.122 58.5514C217.122 58.5507 217.122 58.55 217.122 58.5493C217.122 58.5486 217.122 58.5479 217.122 58.5473C217.122 58.5466 217.122 58.5459 217.122 58.5452C217.122 58.5445 217.122 58.5439 217.122 58.5432C217.122 58.5425 217.122 58.5418 217.122 58.5412C217.122 58.5405 217.122 58.5398 217.122 58.5392C217.122 58.5385 217.122 58.5378 217.122 58.5372C217.122 58.5365 217.122 58.5358 217.122 58.5352C217.122 58.5345 217.122 58.5339 217.122 58.5332C217.122 58.5325 217.122 58.5319 217.122 58.5312C217.122 58.5306 217.122 58.53 217.122 58.5293C217.122 58.5287 217.122 58.528 217.122 58.5274C217.122 58.5267 217.122 58.5261 217.122 58.5255C217.122 58.5248 217.122 58.5242 217.122 58.5235C217.122 58.5229 217.122 58.5223 217.122 58.5216C217.122 58.521 217.122 58.5204 217.122 58.5197C217.122 58.5191 217.122 58.5185 217.122 58.5179C217.122 58.5173 217.122 58.5166 217.122 58.516C217.122 58.5154 217.122 58.5148 217.122 58.5142C217.122 58.5135 217.122 58.5129 217.122 58.5123C217.122 58.5117 217.122 58.5111 217.122 58.5105C217.122 58.5099 217.122 58.5093 217.122 58.5087C217.122 58.5081 217.122 58.5075 217.122 58.5069C217.122 58.5063 217.122 58.5057 217.122 58.5051C217.122 58.5045 217.122 58.5039 217.122 58.5033C217.122 58.5027 217.122 58.5022 217.122 58.5016C217.122 58.501 217.122 58.5004 217.122 58.4998C217.122 58.4992 217.122 58.4986 217.122 58.4981C217.122 58.4975 217.122 58.4969 217.122 58.4963C217.122 58.4958 217.122 58.4952 217.122 58.4946C217.122 58.4941 217.122 58.4935 217.122 58.4929C217.122 58.4924 217.122 58.4918 217.122 58.4912C217.122 58.4907 217.122 58.4901 217.122 58.4896C217.122 58.489 217.122 58.4884 217.122 58.4879C217.122 58.4873 217.122 58.4868 217.122 58.4862C217.122 58.4857 217.122 58.4851 217.122 58.4846C217.122 58.4841 217.122 58.4835 217.122 58.483C217.122 58.4824 217.122 58.4819 217.122 58.4814C217.122 58.4808 217.122 58.4803 217.122 58.4797C217.122 58.4792 217.122 58.4787 217.122 58.4781C217.122 58.4776 217.122 58.4771 217.122 58.4766C217.122 58.476 217.122 58.4755 217.122 58.475C217.122 58.4745 217.122 58.474 217.122 58.4734C217.122 58.4729 217.122 58.4724 217.122 58.4719C217.122 58.4714 217.122 58.4709 217.122 58.4704C217.122 58.4699 217.122 58.4693 217.122 58.4688C217.122 58.4683 217.122 58.4678 217.122 58.4673C217.122 58.4668 217.122 58.4663 217.122 58.4659C217.122 58.4653 217.122 58.4649 217.122 58.4644C217.122 58.4639 217.122 58.4634 217.122 58.4629C217.122 58.4624 217.122 58.4619 217.122 58.4614C217.122 58.461 217.122 58.4605 217.122 58.46C217.122 58.4595 217.122 58.459 217.122 58.4586C217.122 58.4581 217.122 58.4576 217.122 58.4571C217.122 58.4566 217.122 58.4562 217.122 58.4557C217.122 58.4552 217.122 58.4548 217.122 58.4543C217.122 58.4539 217.122 58.4534 217.122 58.4529C217.122 58.4525 217.122 58.452 217.122 58.4516C217.122 58.4511 217.122 58.4507 217.122 58.4502C217.122 58.4498 217.122 58.4493 217.122 58.4489C217.122 58.4484 217.122 58.448 217.122 58.4475C217.122 58.4471 217.122 58.4466 217.122 58.4462C217.122 58.4458 217.122 58.4453 217.122 58.4449C217.122 58.4444 217.122 58.444 217.122 58.4436C217.122 58.4431 217.122 58.4427 217.122 58.4423C217.122 58.4419 217.122 58.4414 217.122 58.441C217.122 58.4406 217.122 58.4402 217.122 58.4398C217.122 58.4393 217.122 58.4389 217.122 58.4385C217.122 58.4381 217.122 58.4377 217.122 58.4373C217.122 58.4368 217.122 58.4364 217.122 58.436C217.122 58.4356 217.122 58.4352 217.122 58.4348C217.122 58.4344 217.122 58.434 217.122 58.4336C217.122 58.4332 217.122 58.4328 217.122 58.4324C217.122 58.432 217.122 58.4316 217.122 58.4312C217.122 58.4309 217.122 58.4305 217.122 58.4301C217.122 58.4297 217.122 58.4293 217.122 58.4289C217.122 58.4285 217.122 58.4282 217.122 58.4278C217.122 58.4274 217.122 58.427 217.122 58.4267C217.122 58.4263 217.122 58.4259 217.122 58.4255C217.122 58.4252 217.122 58.4248 217.122 58.4244C217.122 58.4241 217.122 58.4237 217.122 58.4233C217.122 58.423 217.122 58.4226 217.122 58.4223C217.122 58.4219 217.122 58.4216 217.122 58.4212C217.122 58.4208 217.122 58.4205 217.122 58.4201C217.122 58.4198 217.122 58.4194 217.122 58.4191C217.122 58.4187 217.122 58.4184 217.122 58.4181C217.122 58.4177 217.122 58.4174 217.122 58.4171C217.122 58.4167 217.122 58.4164 217.122 58.416C217.122 58.4157 217.122 58.4154 217.122 58.415C217.122 58.4147 217.122 58.4144 217.122 58.4141C217.122 58.4137 217.122 58.4134 217.122 58.4131C217.122 58.4128 217.122 58.4124 217.122 58.4121C217.122 58.4118 217.122 58.4115 217.122 58.4112C217.122 58.4109 217.122 58.4106 217.122 58.4102C217.122 58.4099 217.122 58.4096 217.122 58.4093C217.122 58.409 217.122 58.4087 217.122 58.4084C217.122 58.4081 217.122 58.4078 217.122 58.4075C217.122 58.4072 217.122 58.4069 217.122 58.4066C217.122 58.4063 217.122 58.4061 217.122 58.4058C217.122 58.4055 217.122 58.4052 217.122 58.4049C217.122 58.4046 217.122 58.4043 217.122 58.4041C217.122 58.4038 217.122 58.4035 217.122 58.4032C217.122 58.4029 217.122 58.4027 217.122 58.4024C217.122 58.4021 217.122 58.4019 217.122 58.4016C217.122 58.4013 217.122 58.401 217.122 58.4008C217.122 58.4005 217.122 58.4003 217.122 58.4H213.122ZM213.134 60.6209C213.297 62.0875 213.774 63.6289 214.501 65.2276L218.143 63.5724C217.536 62.2378 217.213 61.1125 217.11 60.1791L213.134 60.6209ZM214.566 65.3577C215.549 67.1605 217.059 68.7121 218.983 70.0444L221.26 66.7556C219.718 65.6879 218.694 64.5728 218.078 63.4423L214.566 65.3577ZM219.13 70.1365C221.438 71.4558 224.581 72 228.322 72V68C224.862 68 222.539 67.4775 221.114 66.6635L219.13 70.1365ZM228.322 72C230.683 72 232.722 71.7942 234.371 71.323C236.002 70.8572 237.483 70.0634 238.386 68.7094L235.058 66.4906C234.894 66.7366 234.442 67.1428 233.272 67.4769C232.121 67.8058 230.494 68 228.322 68V72ZM238.386 68.7094C238.956 67.8542 239.421 67.0513 239.749 66.3123C240.066 65.6003 240.322 64.8031 240.322 64H236.322C236.322 63.9969 236.311 64.1997 236.094 64.6877C235.889 65.1487 235.554 65.7458 235.058 66.4906L238.386 68.7094ZM240.322 64C240.322 61.0423 238.562 58.8642 235.858 57.4324L233.986 60.9676C235.815 61.9358 236.322 62.9577 236.322 64H240.322ZM235.858 57.4324C233.407 56.135 230.313 55.0206 226.624 54.064L225.62 57.936C229.13 58.8461 231.903 59.8649 233.986 60.9676L235.858 57.4324ZM226.69 54.0824C223.086 53.0146 219.216 51.8802 215.079 50.6793L213.964 54.5207C218.095 55.7198 221.958 56.8521 225.554 57.9176L226.69 54.0824ZM215.154 50.7026C211.269 49.4075 207.583 47.7902 204.093 45.8517L202.151 49.3483C205.861 51.4098 209.775 53.1259 213.889 54.4974L215.154 50.7026ZM204.141 45.8794C200.784 43.8899 198.071 41.3566 195.976 38.2754L192.668 40.5246C195.106 44.1101 198.26 47.0434 202.102 49.3206L204.141 45.8794ZM195.976 38.2754C193.992 35.3579 192.922 31.5145 192.922 26.6H188.922C188.922 32.0856 190.119 36.7754 192.668 40.5246L195.976 38.2754ZM192.922 26.6C192.922 18.6304 195.798 13.1411 201.372 9.70207L199.272 6.29793C192.312 10.5922 188.922 17.5029 188.922 26.6H192.922ZM201.356 9.71182C207.367 6.08015 214.985 4.2 224.322 4.2V0.199997C214.459 0.199997 206.077 2.18651 199.288 6.28816L201.356 9.71182ZM224.322 4.2C236.013 4.2 245.289 6.92546 252.322 12.2L254.722 9C246.821 3.07452 236.63 0.199997 224.322 0.199997V4.2ZM252.354 12.2236C259.37 17.2702 263.069 24.7094 263.323 34.85L267.321 34.75C267.041 23.5573 262.874 14.8631 254.69 8.97638L252.354 12.2236ZM265.322 32.8H240.122V36.8H265.322V32.8ZM242.122 34.8C242.122 29.6888 240.404 25.6913 236.447 23.6268L234.597 27.1732C236.773 28.3087 238.122 30.5779 238.122 34.8H242.122ZM236.48 23.6442C233.23 21.8717 229.63 21 225.722 21V25C229.014 25 231.947 25.7283 234.564 27.1558L236.48 23.6442ZM225.722 21C223.69 21 221.904 21.1734 220.413 21.5658C218.933 21.9552 217.59 22.601 216.635 23.6621L219.608 26.3379C219.853 26.0657 220.377 25.7115 221.431 25.4341C222.473 25.1599 223.887 25 225.722 25V21ZM216.708 23.5858C215.24 25.0534 214.322 26.8015 214.322 28.8H218.322C218.322 28.1318 218.604 27.3466 219.536 26.4142L216.708 23.5858ZM214.322 28.8C214.322 31.9726 215.883 34.4982 218.635 36.2791L220.808 32.9209C219.027 31.7685 218.322 30.4274 218.322 28.8H214.322ZM218.751 36.3483C221.315 37.7731 224.461 39.0234 228.154 40.1176L229.29 36.2824C225.783 35.2432 222.928 34.0935 220.693 32.8517L218.751 36.3483ZM228.172 40.123C231.903 41.1889 235.833 42.3214 239.964 43.5207L241.079 39.6793C236.944 38.4786 233.008 37.3445 229.271 36.2769L228.172 40.123ZM239.98 43.5253C244.109 44.6864 247.896 46.2293 251.351 48.1483L253.293 44.6517C249.547 42.5707 245.468 40.9136 241.063 39.6747L239.98 43.5253ZM251.427 48.1889C254.886 49.9182 257.625 52.2417 259.69 55.156L262.954 52.844C260.485 49.3583 257.224 46.6151 253.216 44.6111L251.427 48.1889ZM259.747 55.2326C261.805 57.8626 262.922 61.3923 262.922 66H266.922C266.922 60.741 265.639 56.2707 262.897 52.7674L259.747 55.2326ZM262.922 66C262.922 73.0667 260.056 78.3616 254.237 82.1199L256.407 85.4801C263.388 80.9717 266.922 74.4 266.922 66H262.922ZM254.221 82.1304C248.405 85.9665 240.111 88 229.122 88V92C240.532 92 249.706 89.9001 256.423 85.4695L254.221 82.1304ZM268.273 127.8H266.273V129.8H268.273V127.8ZM268.273 106.6V104.6H266.273V106.6H268.273ZM287.673 106.2L287.369 104.223L287.357 104.225L287.345 104.227L287.673 106.2ZM292.673 103.4L291.322 101.926L291.29 101.955L291.259 101.986L292.673 103.4ZM298.073 95.4L299.85 96.3188L299.883 96.2545L299.912 96.1878L298.073 95.4ZM300.473 89.8L302.312 90.5878L302.63 89.8445L302.343 89.0886L300.473 89.8ZM268.273 5.2V3.2H265.372L266.404 5.91144L268.273 5.2ZM296.873 5.2L298.788 4.6228L298.359 3.2H296.873V5.2ZM313.873 61.6L311.959 62.1772L313.788 68.2457L315.773 62.2264L313.873 61.6ZM332.473 5.2V3.2H331.027L330.574 4.57361L332.473 5.2ZM361.073 5.2L362.927 5.95038L364.041 3.2H361.073V5.2ZM323.673 97.6L325.523 98.3615L325.527 98.3504L323.673 97.6ZM315.873 113.8L314.158 112.771L315.873 113.8ZM308.273 122.8L307.073 121.2L308.273 122.8ZM299.073 126.8L298.696 124.836L298.688 124.837L298.681 124.839L299.073 126.8ZM270.273 127.8V106.6H266.273V127.8H270.273ZM268.273 108.6H282.273V104.6H268.273V108.6ZM282.273 108.6C284.359 108.6 286.272 108.461 288.002 108.173L287.345 104.227C285.875 104.472 284.188 104.6 282.273 104.6V108.6ZM287.978 108.177C290.239 107.829 292.274 106.628 294.088 104.814L291.259 101.986C289.873 103.372 288.575 104.038 287.369 104.223L287.978 108.177ZM294.025 104.874C295.897 103.158 297.828 100.228 299.85 96.3188L296.297 94.4812C294.319 98.3057 292.65 100.708 291.322 101.926L294.025 104.874ZM299.912 96.1878L302.312 90.5878L298.635 89.0122L296.235 94.6122L299.912 96.1878ZM302.343 89.0886L270.143 4.48856L266.404 5.91144L298.604 90.5114L302.343 89.0886ZM268.273 7.2H296.873V3.2H268.273V7.2ZM294.959 5.77718L311.959 62.1772L315.788 61.0228L298.788 4.6228L294.959 5.77718ZM315.773 62.2264L334.373 5.82639L330.574 4.57361L311.974 60.9736L315.773 62.2264ZM332.473 7.2H361.073V3.2H332.473V7.2ZM359.22 4.4496L321.82 96.8496L325.527 98.3504L362.927 5.95038L359.22 4.4496ZM321.824 96.8385C319.043 103.592 316.487 108.891 314.158 112.771L317.588 114.829C320.06 110.709 322.704 105.208 325.523 98.3615L321.824 96.8385ZM314.158 112.771C311.842 116.631 309.468 119.404 307.073 121.2L309.473 124.4C312.412 122.196 315.105 118.969 317.588 114.829L314.158 112.771ZM307.073 121.2C304.664 123.007 301.882 124.223 298.696 124.836L299.451 128.764C303.198 128.043 306.55 126.593 309.473 124.4L307.073 121.2ZM298.681 124.839C295.518 125.472 291.591 125.8 286.873 125.8V129.8C291.756 129.8 295.963 129.462 299.466 128.761L298.681 124.839ZM286.873 125.8H268.273V129.8H286.873V125.8Z" fill="#F6F7FB"/>
</svg>
