<svg width="545" height="212" viewBox="0 0 545 212" fill="none" xmlns="http://www.w3.org/2000/svg">
<path d="M98.5686 208.308H142.446V165.846H169.019V127.385H142.446V3.07692H81.883L0 131.385V165.846H98.5686V208.308ZM98.5686 41.8462V127.385H42.95L98.5686 41.8462Z" fill="#597EF7"/>
<path d="M187.15 105.846C187.15 158.769 213.415 212 272.432 212C331.141 212 357.714 158.769 357.714 105.846C357.714 52.9231 331.141 0 272.432 0C213.415 0 187.15 52.9231 187.15 105.846ZM312.91 105.846C312.91 143.692 301.787 173.231 272.432 173.231C242.769 173.231 231.645 143.692 231.645 105.846C231.645 68 242.769 38.7692 272.432 38.7692C301.787 38.7692 312.91 68 312.91 105.846Z" fill="#597EF7"/>
<path d="M474.55 208.308H518.427V165.846H545V127.385H518.427V3.07692H457.864L375.981 131.385V165.846H474.55V208.308ZM474.55 41.8462V127.385H418.931L474.55 41.8462Z" fill="#597EF7"/>
</svg>
