<svg width="544" height="212" viewBox="0 0 544 212" fill="none" xmlns="http://www.w3.org/2000/svg">
<path d="M0 181.231C17.56 200.308 43.4378 212 79.1739 212C128.773 212 161.428 184.615 161.428 141.231C161.428 99.6923 130.313 74.7692 95.5016 74.7692C76.7093 74.7692 60.0736 82.4615 49.2911 92V40.6154H147.565V3.07692H6.46946V120.308L36.9683 128.615C49.2911 116.923 63.1543 111.692 80.0981 111.692C103.511 111.692 117.066 124.308 117.066 143.077C117.066 160 103.203 173.846 78.8658 173.846C57.3009 173.846 38.2006 166.154 24.0294 151.692L0 181.231Z" fill="#597EF7"/>
<path d="M182.808 105.846C182.808 158.769 208.994 212 267.835 212C326.368 212 352.862 158.769 352.862 105.846C352.862 52.9231 326.368 0 267.835 0C208.994 0 182.808 52.9231 182.808 105.846ZM308.192 105.846C308.192 143.692 297.102 173.231 267.835 173.231C238.26 173.231 227.17 143.692 227.17 105.846C227.17 68 238.26 38.7692 267.835 38.7692C297.102 38.7692 308.192 68 308.192 105.846Z" fill="#597EF7"/>
<path d="M373.847 105.846C373.847 158.769 400.033 212 458.874 212C517.408 212 543.902 158.769 543.902 105.846C543.902 52.9231 517.408 0 458.874 0C400.033 0 373.847 52.9231 373.847 105.846ZM499.232 105.846C499.232 143.692 488.141 173.231 458.874 173.231C429.3 173.231 418.209 143.692 418.209 105.846C418.209 68 429.3 38.7692 458.874 38.7692C488.141 38.7692 499.232 68 499.232 105.846Z" fill="#597EF7"/>
</svg>
