<svg width="650" height="480" viewBox="0 0 650 480" fill="none" xmlns="http://www.w3.org/2000/svg">
<path d="M0 8C0 3.58172 3.58172 0 8 0H650V30H0V8Z" fill="#F4F4F4"/>
<path d="M0 30H650V480H0V30Z" fill="#F97B99"/>
<circle cx="15" cy="15" r="5" fill="#4285F4"/>
<path d="M29 11.3333C29 10.597 29.597 10 30.3333 10H37.6667C38.403 10 39 10.597 39 11.3333V18.6667C39 19.403 38.403 20 37.6667 20H30.3333C29.597 20 29 19.403 29 18.6667V11.3333Z" fill="#4285F4"/>
<path d="M52.3137 10.6875C52.8323 9.77084 54.1677 9.77084 54.6863 10.6875L58.8254 18.0029C59.3316 18.8977 58.6767 20 57.639 20H49.361C48.3233 20 47.6684 18.8977 48.1746 18.0029L52.3137 10.6875Z" fill="#4285F4"/>
<g clip-path="url(#clip0)">
<path fill-rule="evenodd" clip-rule="evenodd" d="M235.612 221.302C239.202 221.302 242.113 218.695 242.113 215.479V76.8315H27.4729V215.479C27.4729 218.695 30.3835 221.302 33.9739 221.302H235.612Z" fill="#E4EBF7"/>
<path d="M43.9173 89.3963H168.204C169.635 89.3963 170.795 90.5595 170.795 91.9944V208.275C170.795 209.71 169.635 210.873 168.204 210.873H43.9173C42.4866 210.873 41.3267 209.71 41.3267 208.275V91.9944C41.3267 90.5595 42.4866 89.3963 43.9173 89.3963Z" fill="white"/>
<path d="M183.74 88.4298H226.031C227.461 88.4298 228.621 89.593 228.621 91.0278V207.309C228.621 208.743 227.461 209.907 226.031 209.907H183.74C182.309 209.907 181.149 208.743 181.149 207.309V91.0278C181.149 89.593 182.309 88.4298 183.74 88.4298Z" fill="white"/>
<path d="M192.816 136.756H216.548C217.361 136.756 218.02 137.417 218.02 138.232V141.882C218.02 142.697 217.361 143.357 216.548 143.357H192.816C192.003 143.357 191.344 142.697 191.344 141.882V138.232C191.344 137.417 192.003 136.756 192.816 136.756Z" fill="#597EF7"/>
<path d="M192.794 149.321H216.57C217.371 149.321 218.02 149.972 218.02 150.774V154.269C218.02 155.072 217.371 155.722 216.57 155.722H192.794C191.993 155.722 191.344 155.072 191.344 154.269V150.774C191.344 149.972 191.993 149.321 192.794 149.321Z" fill="#AAC2FE"/>
<path d="M192.794 161.886H216.57C217.371 161.886 218.02 162.536 218.02 163.339V166.834C218.02 167.637 217.371 168.287 216.57 168.287H192.794C191.993 168.287 191.344 167.637 191.344 166.834V163.339C191.344 162.536 191.993 161.886 192.794 161.886Z" fill="#FF7946"/>
<path d="M192.794 174.451H216.57C217.371 174.451 218.02 175.101 218.02 175.904V179.399C218.02 180.201 217.371 180.852 216.57 180.852H192.794C191.993 180.852 191.344 180.201 191.344 179.399V175.904C191.344 175.101 191.993 174.451 192.794 174.451Z" fill="#AAC2FE"/>
<path d="M82.3137 178.317H156.541C157.494 178.317 158.268 179.092 158.268 180.049V180.055C158.268 181.012 157.494 181.787 156.541 181.787H82.3137C81.3599 181.787 80.5867 181.012 80.5867 180.055V180.049C80.5867 179.092 81.3599 178.317 82.3137 178.317Z" fill="#597EF7"/>
<path d="M82.3137 196.681H156.541C157.494 196.681 158.268 197.456 158.268 198.413V198.419C158.268 199.376 157.494 200.151 156.541 200.151H82.3137C81.3599 200.151 80.5867 199.376 80.5867 198.419V198.413C80.5867 197.456 81.3599 196.681 82.3137 196.681Z" fill="#597EF7"/>
<path d="M56.4201 187.015H156.541C157.494 187.015 158.268 187.791 158.268 188.747V188.754C158.268 189.711 157.494 190.486 156.541 190.486H56.4201C55.4662 190.486 54.693 189.711 54.693 188.754V188.747C54.693 187.791 55.4662 187.015 56.4201 187.015Z" fill="#597EF7"/>
<path d="M57.6362 100.995H154.813C156.721 100.995 158.268 102.546 158.268 104.459V167.12C158.268 169.034 156.721 170.584 154.813 170.584H57.6362C55.7285 170.584 54.1821 169.034 54.1821 167.12V104.459C54.1821 102.546 55.7285 100.995 57.6362 100.995Z" fill="#597EF7"/>
<path fill-rule="evenodd" clip-rule="evenodd" d="M27.2692 79.1688H241.898V64.3244C241.898 61.1042 239.285 58.4935 236.061 58.4935H33.1069C29.8828 58.4935 27.2692 61.1042 27.2692 64.3244V79.1688Z" fill="#253369"/>
<path fill-rule="evenodd" clip-rule="evenodd" d="M226.847 68.2007C226.847 70.2216 228.477 71.8601 230.488 71.8601C232.499 71.8601 234.129 70.2216 234.129 68.2007C234.129 66.1798 232.499 64.5414 230.488 64.5414C228.477 64.5414 226.847 66.1798 226.847 68.2007Z" fill="#FF7946"/>
<path fill-rule="evenodd" clip-rule="evenodd" d="M213.254 68.2007C213.254 70.2216 214.884 71.8601 216.895 71.8601C218.905 71.8601 220.535 70.2216 220.535 68.2007C220.535 66.1798 218.905 64.5414 216.895 64.5414C214.884 64.5414 213.254 66.1798 213.254 68.2007Z" fill="#FFC53D"/>
<path fill-rule="evenodd" clip-rule="evenodd" d="M199.66 68.2007C199.66 70.2216 201.29 71.8601 203.301 71.8601C205.311 71.8601 206.941 70.2216 206.941 68.2007C206.941 66.1798 205.311 64.5414 203.301 64.5414C201.29 64.5414 199.66 66.1798 199.66 68.2007Z" fill="#BAE637"/>
<path d="M204.051 123.277C197.47 123.277 192.135 117.866 192.135 111.191C192.135 104.516 197.47 99.1052 204.051 99.1052C210.632 99.1052 215.967 104.516 215.967 111.191C215.967 117.866 210.632 123.277 204.051 123.277Z" fill="#FFC53D"/>
<path d="M204.05 123.277C200.616 123.278 197.356 121.74 195.147 119.073C196.888 115.721 200.316 113.622 204.052 113.622C207.788 113.622 211.216 115.721 212.957 119.073C210.746 121.74 207.486 123.279 204.05 123.277Z" fill="#253369"/>
<path d="M203.987 114.103C201.512 114.103 199.506 112.068 199.506 109.557C199.506 107.047 201.512 105.012 203.987 105.012C206.462 105.012 208.469 107.047 208.469 109.557C208.469 112.068 206.462 114.103 203.987 114.103Z" fill="#253369"/>
<path d="M53.8509 125.158C53.5848 125.158 53.369 125.374 53.369 125.641C53.369 125.896 53.5656 126.105 53.815 126.123L53.8509 126.124H157.303C157.569 126.124 157.785 125.908 157.785 125.641C157.785 125.386 157.589 125.178 157.339 125.159L157.303 125.158H53.8509Z" fill="white"/>
<path d="M134.172 100.109C133.918 100.109 133.71 100.306 133.692 100.556L133.691 100.593V170.584C133.691 170.851 133.906 171.068 134.172 171.068C134.426 171.068 134.635 170.871 134.653 170.62L134.654 170.584V100.593C134.654 100.326 134.439 100.109 134.172 100.109Z" fill="white"/>
<path d="M106.223 100.109C105.969 100.109 105.761 100.306 105.743 100.556L105.741 100.593V170.584C105.741 170.851 105.957 171.068 106.223 171.068C106.477 171.068 106.685 170.871 106.704 170.62L106.705 170.584V100.593C106.705 100.326 106.489 100.109 106.223 100.109Z" fill="white"/>
<path d="M79.2388 100.109C78.9848 100.109 78.7767 100.306 78.7583 100.556L78.757 100.593V170.584C78.757 170.851 78.9727 171.068 79.2388 171.068C79.4929 171.068 79.701 170.871 79.7194 170.62L79.7207 170.584V100.593C79.7207 100.326 79.505 100.109 79.2388 100.109Z" fill="white"/>
<path d="M53.8509 148.354C53.5848 148.354 53.369 148.571 53.369 148.838C53.369 149.092 53.5656 149.301 53.815 149.32L53.8509 149.321H157.303C157.569 149.321 157.785 149.105 157.785 148.838C157.785 148.583 157.589 148.374 157.339 148.356L157.303 148.354H53.8509Z" fill="white"/>
<mask id="mask0" mask-type="alpha" maskUnits="userSpaceOnUse" x="438" y="457" width="41" height="234">
<path d="M438.629 457.534H478.005V690.793H438.629V457.534Z" fill="white"/>
</mask>
<g mask="url(#mask0)">
<path fill-rule="evenodd" clip-rule="evenodd" d="M443.925 690.793C440.838 690.793 438.405 688.462 438.645 685.735L458.744 457.534H478.005L449.632 686.612C449.337 688.991 447.069 690.793 444.367 690.793" fill="#F5C565"/>
</g>
<path fill-rule="evenodd" clip-rule="evenodd" d="M884.237 457.534H447.355C445.769 457.534 444.284 456.842 443.387 455.684C441.19 452.853 443.477 449 447.355 449H884.237C888.114 449 890.402 452.853 888.205 455.684C887.307 456.842 885.824 457.534 884.237 457.534Z" fill="#F5C565"/>
<path fill-rule="evenodd" clip-rule="evenodd" d="M873.485 463.224H458.102L458.743 457.535H872.843L873.485 463.224Z" fill="#DF9E59"/>
<path fill-rule="evenodd" clip-rule="evenodd" d="M342.812 147.52C342.812 147.52 321.791 146.299 318.197 168.737C298.712 177.796 306.091 199.29 306.091 199.29C306.091 199.29 297.474 217.417 318.307 224.524C321.435 242.064 341.231 237.118 341.231 237.118C341.231 237.118 347.224 250.364 361.995 243.422C379.558 254.813 410.354 249.565 420.018 232.948C443.263 247.381 479.547 224.183 473.495 209.7C498.868 205.952 508.9 177.808 491.972 156.097C501.885 136.913 487.874 127.306 487.874 127.306C487.874 127.306 487.887 85.2056 458.499 82.075C441.708 60.8561 411.149 81.711 411.149 81.711C411.149 81.711 389.494 79.1264 383.459 98.2699C360.001 103.983 362.243 116.966 361.361 128.108C340.189 131.149 342.812 147.52 342.812 147.52Z" fill="#253368"/>
<path fill-rule="evenodd" clip-rule="evenodd" d="M407.023 121.421C423.946 122.912 427.924 109.847 427.924 109.847C427.924 109.847 433.268 91.4724 435.972 102.237C437.408 107.956 445.705 99.4857 450.357 105.315C453.489 109.237 447.021 115.2 456.986 125.519C462.757 131.498 442.611 138.406 456.336 149.158C456.336 149.158 448.551 164.405 464.469 167.783L467.576 184.601C469.382 194.39 462.357 203.603 452.448 204.444C443.001 205.243 434.758 198.076 434.23 188.599L433.077 167.864C408.99 169.944 404.959 136.909 407.023 121.421Z" fill="#FFC999"/>
<path fill-rule="evenodd" clip-rule="evenodd" d="M424.789 143.127C431.758 143.201 437.858 139.13 437.858 139.13C437.858 139.13 439.674 148.215 433.864 149.305C428.222 150.364 424.789 143.127 424.789 143.127Z" fill="white"/>
<path d="M438.858 138.93L438.925 139.318C438.95 139.48 438.977 139.673 439.004 139.893C439.186 141.379 439.213 142.94 438.986 144.425C438.505 147.568 436.952 149.762 434.053 150.306C431.022 150.875 428.364 149.499 426.135 146.938C425.496 146.204 424.939 145.421 424.464 144.638C424.177 144.164 423.979 143.79 423.872 143.564C423.549 142.884 424.049 142.101 424.801 142.109C427.717 142.14 430.712 141.418 433.606 140.191C434.602 139.769 435.514 139.317 436.319 138.866L436.693 138.652C436.974 138.489 437.177 138.361 437.296 138.282C437.898 137.88 438.716 138.219 438.858 138.93ZM437.078 141.138L437.051 140.786L437.313 140.643C436.445 141.129 435.468 141.614 434.399 142.067L433.811 142.309C431.665 143.167 429.465 143.766 427.26 144.016L426.525 144.085L426.74 144.405C427.025 144.815 427.336 145.217 427.67 145.601C429.473 147.673 431.488 148.716 433.678 148.304C435.582 147.947 436.611 146.493 436.975 144.117C437.121 143.161 437.144 142.143 437.078 141.138Z" fill="#F5222D"/>
<path d="M429.836 138.242C429.499 138.235 428.943 138.162 428.163 137.969C426.966 137.674 425.564 137.165 423.953 136.398L423.667 136.259L423.906 135.811C425.003 133.701 425.75 131.643 426.199 129.673L426.314 129.137C426.622 127.616 426.72 126.337 426.69 125.356L426.666 124.901C426.664 124.879 426.662 124.861 426.66 124.846C426.613 124.426 426.235 124.125 425.817 124.172C425.44 124.214 425.158 124.525 425.14 124.892L425.154 125.16C425.206 126.046 425.13 127.295 424.818 128.834C424.347 131.162 423.427 133.641 421.951 136.204C421.733 136.582 421.875 137.066 422.263 137.265C424.4 138.364 426.243 139.068 427.797 139.452C428.696 139.674 429.375 139.762 429.836 139.769L430.042 139.766C430.463 139.74 430.783 139.377 430.756 138.956C430.733 138.578 430.437 138.28 430.071 138.244L429.95 138.24L429.836 138.242Z" fill="#DD936F"/>
<path d="M441.441 118.706C438.328 118.976 436.344 122.864 436.723 127.262C436.769 127.802 437.245 128.202 437.784 128.156C438.324 128.109 438.723 127.634 438.677 127.093C438.379 123.638 439.819 120.817 441.609 120.661C443.397 120.509 445.297 123.041 445.597 126.496C445.644 127.036 446.119 127.436 446.659 127.389C447.198 127.342 447.598 126.866 447.551 126.326C447.179 122.039 444.681 118.615 441.673 118.693L441.441 118.706Z" fill="#253368"/>
<path d="M415.096 123.393C411.984 123.661 410 127.549 410.379 131.947C410.426 132.488 410.901 132.888 411.44 132.841C411.98 132.794 412.38 132.319 412.333 131.779C412.035 128.324 413.475 125.503 415.264 125.349C417.054 125.195 418.953 127.726 419.251 131.181C419.298 131.721 419.773 132.121 420.313 132.074C420.852 132.028 421.252 131.552 421.205 131.012C420.836 126.724 418.337 123.3 415.328 123.38L415.096 123.393Z" fill="#253368"/>
<path d="M448.857 109.5C444.211 107.125 439.782 107.038 435.962 108.327C435.051 108.634 434.392 108.947 434.016 109.171C433.527 109.463 433.367 110.097 433.658 110.587C433.95 111.077 434.583 111.237 435.073 110.945L435.17 110.892C435.235 110.857 435.326 110.811 435.442 110.756C435.778 110.597 436.172 110.436 436.621 110.284C439.947 109.163 443.807 109.238 447.918 111.34C448.426 111.6 449.048 111.398 449.307 110.89C449.566 110.382 449.365 109.76 448.857 109.5Z" fill="#253368"/>
<path d="M448.149 162.428C447.916 162.076 447.443 161.98 447.091 162.213C442.638 165.162 437.902 166.859 433.044 167.346C432.625 167.388 432.319 167.762 432.361 168.182C432.403 168.602 432.776 168.908 433.196 168.866C438.302 168.355 443.274 166.572 447.933 163.487C448.285 163.254 448.381 162.78 448.149 162.428Z" fill="#DD936F"/>
<path fill-rule="evenodd" clip-rule="evenodd" d="M349.032 328.865L347.771 328.172C338.348 322.987 334.907 311.141 340.085 301.71L388.051 214.351C393.231 204.919 405.067 201.476 414.488 206.659L415.749 207.352C425.171 212.537 428.612 224.382 423.434 233.814L375.467 321.173C370.287 330.604 358.454 334.048 349.032 328.865Z" fill="#FFC999"/>
<path fill-rule="evenodd" clip-rule="evenodd" d="M403.151 270.753L423.772 233.198C428.741 224.145 424.849 212.359 415.118 207.005C405.387 201.654 393.36 204.682 388.389 213.735L367.966 250.934L403.151 270.753Z" fill="#FF7A46"/>
<path d="M415.915 206.767C415.628 206.609 415.268 206.714 415.11 207.001C414.953 207.288 415.057 207.649 415.344 207.807C424.664 212.934 428.466 224.121 423.959 232.827L423.764 233.193L403.433 270.222L368.768 250.698C368.515 250.555 368.201 250.619 368.022 250.836L367.961 250.924C367.818 251.178 367.882 251.492 368.099 251.672L368.187 251.732L403.372 271.551C403.628 271.695 403.944 271.629 404.122 271.409L404.182 271.32L424.803 233.765C429.936 224.417 425.924 212.273 415.915 206.767Z" fill="#C44343"/>
<path fill-rule="evenodd" clip-rule="evenodd" d="M384.319 618.238C376.4 621.285 367.466 617.465 364.079 609.584L291.612 441.02C286.392 428.875 292.202 414.86 304.403 410.165C316.602 405.472 330.296 411.981 334.548 424.498L393.555 598.241C396.313 606.364 392.237 615.191 384.319 618.238Z" fill="#FFC999"/>
<path fill-rule="evenodd" clip-rule="evenodd" d="M490.663 404.895C485.566 389.492 471.454 380.429 459.412 384.826L329.938 432.108C319.965 435.749 315.373 448.837 319.593 461.591C323.81 474.348 335.301 482.106 345.473 479.07L477.553 439.666C489.837 436.001 495.757 420.298 490.663 404.895Z" fill="#FFC999"/>
<path fill-rule="evenodd" clip-rule="evenodd" d="M195.172 620.483C187.278 617.374 183.273 608.514 186.097 600.414L246.5 427.151C250.85 414.67 264.597 408.269 276.759 413.063C288.921 417.854 294.617 431.918 289.3 444.018L215.479 611.993C212.029 619.846 203.064 623.594 195.172 620.483Z" fill="#FFC999"/>
<path fill-rule="evenodd" clip-rule="evenodd" d="M420.877 418.956C419.123 402.825 407.224 390.999 394.527 392.771L258.024 411.808C247.51 413.273 240.278 425.106 241.729 438.463C243.181 451.822 252.789 461.819 263.371 460.989L400.769 450.199C413.55 449.195 422.63 435.087 420.877 418.956Z" fill="#FFC999"/>
<path fill-rule="evenodd" clip-rule="evenodd" d="M398.828 229.777C395.196 238.847 388.413 254.483 387.97 264.616C387.252 281.041 398.484 292.686 398.484 292.686C398.484 292.686 398.287 296.121 396.471 330.282C445.611 336.445 481.067 331.736 481.067 331.736L479.723 314.546L486.334 287.612C486.334 287.612 486.792 277.233 495.587 254.694C501.705 239.024 499.195 220.656 497.765 210.539C497.156 206.204 500.895 200.615 496.63 199.637C481.736 196.224 474.185 198.082 474.185 198.082L472.325 188.451C472.005 186.801 470.524 185.636 468.847 185.719L433.033 187.477C431.495 187.552 430.203 188.662 429.894 190.172L427.799 198.609L403.681 203.31C400.235 204.165 397.749 207.172 397.562 210.721L398.828 229.777Z" fill="#FF7A46"/>
<path d="M464.146 198.468L431.897 200.051C431.557 200.068 431.296 200.357 431.312 200.696C431.327 200.998 431.557 201.239 431.846 201.277L431.957 201.281L464.206 199.697C464.545 199.681 464.807 199.392 464.79 199.052C464.775 198.75 464.546 198.51 464.257 198.472L464.146 198.468Z" fill="#C44343"/>
<path d="M474.928 195.328C474.609 195.099 474.178 195.143 473.91 195.412L473.827 195.51L441.891 240.143L426.716 200.716C426.575 200.35 426.191 200.149 425.819 200.226L425.696 200.263C425.33 200.404 425.129 200.788 425.207 201.161L425.243 201.284L440.943 242.078C441.154 242.625 441.853 242.749 442.243 242.348L442.321 242.254L475.11 196.43C475.364 196.075 475.282 195.582 474.928 195.328Z" fill="#C9D4EA"/>
<path fill-rule="evenodd" clip-rule="evenodd" d="M432.086 245.61C428.805 251.823 430.788 259.315 436.513 262.343C442.24 265.373 449.54 262.793 452.822 256.58C456.101 250.367 454.12 242.875 448.395 239.847C442.668 236.817 435.366 239.398 432.086 245.61Z" fill="#C9D4EA"/>
<path fill-rule="evenodd" clip-rule="evenodd" d="M430.8 245.643C427.521 251.856 429.502 259.349 435.227 262.376C440.954 265.406 448.254 262.826 451.536 256.613C454.817 250.4 452.834 242.908 447.109 239.88C441.382 236.85 434.08 239.431 430.8 245.643Z" fill="#F0F0F5"/>
<path fill-rule="evenodd" clip-rule="evenodd" d="M433.121 246.584C430.574 251.409 432.113 257.224 436.558 259.577C441.003 261.929 446.674 259.925 449.22 255.101C451.767 250.278 450.229 244.46 445.782 242.108C441.336 239.758 435.667 241.761 433.121 246.584Z" fill="#FAAD14"/>
<path d="M502.684 209.564C502.345 209.59 502.092 209.886 502.118 210.225L502.268 212.321L502.38 214.022C502.455 215.189 502.528 216.416 502.598 217.687C502.76 220.636 502.889 223.534 502.973 226.291L503.01 227.657C503.154 233.38 503.076 237.966 502.724 240.984C502.37 244.017 500.651 249.045 497.897 255.489L497.627 256.118C497.045 257.467 496.425 258.862 495.772 260.294C494.228 263.681 492.573 267.121 490.918 270.435L490.082 272.098L488.713 274.766L488.662 274.9L478.563 314.62L478.547 314.833L480.173 331.079L478.318 331.246L476.931 331.36C475.258 331.493 473.398 331.625 471.362 331.749C448.915 333.123 423.759 332.786 398.833 329.561L397.439 329.375L397.456 328.114C397.514 325.47 397.721 320.303 398.04 313.293L398.33 307.059L398.966 294.062C398.972 293.937 398.941 293.813 398.875 293.707L398.439 292.98L398.001 292.227C397.773 291.831 397.532 291.404 397.281 290.95C396.081 288.787 394.881 286.445 393.762 284.01C392.24 280.701 390.99 277.483 390.104 274.458C389.289 271.678 388.805 269.13 388.694 266.867C388.409 261.052 388.941 256.52 390.393 251.851C391.158 249.39 392.183 246.849 393.689 243.604L394.323 242.26C395.072 240.7 396.477 237.833 397.628 235.488L399.464 231.757L399.526 231.48L399.412 221.386C399.408 221.046 399.129 220.773 398.79 220.777C398.488 220.781 398.239 221.001 398.19 221.289L398.182 221.4L398.295 231.347L393.581 240.968C393.325 241.496 393.109 241.944 392.953 242.275L392.883 242.421C391.186 246.032 390.054 248.797 389.218 251.485C387.722 256.295 387.173 260.972 387.465 266.928C387.581 269.297 388.084 271.938 388.923 274.804C389.828 277.892 391.099 281.165 392.644 284.525C393.616 286.638 394.646 288.68 395.685 290.599L396.205 291.548C396.46 292.008 396.704 292.44 396.935 292.842L397.573 293.931L397.729 294.189L397.499 298.785C397.365 301.508 397.23 304.276 397.101 307L396.465 321.183C396.268 326.027 396.177 329.094 396.219 329.947C396.234 330.243 396.457 330.487 396.751 330.527C422.392 334 448.341 334.392 471.437 332.978L473.145 332.87C474.81 332.759 476.344 332.645 477.737 332.53L479.946 332.337L480.911 332.243C481.21 332.211 481.436 331.97 481.459 331.68L481.458 331.569L479.782 314.819L489.836 275.274L490.413 274.158C490.897 273.215 491.437 272.149 492.019 270.985C493.679 267.659 495.34 264.206 496.891 260.805C497.383 259.725 497.857 258.667 498.31 257.632L498.756 256.606C501.715 249.751 503.562 244.416 503.946 241.127C504.306 238.036 504.385 233.403 504.24 227.626C504.172 224.907 504.056 222.034 503.905 219.094L503.826 217.62C503.756 216.345 503.683 215.114 503.608 213.944L503.345 210.13C503.319 209.791 503.023 209.537 502.684 209.564Z" fill="#C44343"/>
<path fill-rule="evenodd" clip-rule="evenodd" d="M394.788 340.3L397.924 329.555C397.924 329.555 437.975 332.474 475.619 332.461C477.441 336.854 477.799 345.181 477.799 345.181C474.772 342.429 436.395 348.075 394.788 340.3Z" fill="#4E5C93"/>
<path fill-rule="evenodd" clip-rule="evenodd" d="M269.793 390.283L382.312 358.263L393.203 340.819L477.403 344.122C477.403 344.122 531.499 444.643 467.467 466.644C453 471.615 453 496.5 453 496.5L382.503 509.614L291.613 465.821L225.206 424.005L269.793 390.283Z" fill="#4E5C93"/>
<path d="M437.077 347.475C436.773 347.28 436.379 347.337 436.141 347.593L436.06 347.698L422.785 368.451L327.801 428.188C327.709 428.246 327.632 428.322 327.574 428.412L327.522 428.507L310.548 465.789C310.379 466.159 310.542 466.596 310.912 466.765C311.245 466.916 311.632 466.799 311.829 466.504L311.887 466.4L328.771 429.32L423.708 369.611C423.769 369.572 423.824 369.525 423.872 369.471L423.936 369.384L437.3 348.493C437.519 348.15 437.419 347.694 437.077 347.475Z" fill="#253368"/>
<path d="M453.381 351.227C453.017 351.202 452.695 351.447 452.614 351.793L452.596 351.911L450.564 381.146L415.496 439.439L381.843 509.295C381.666 509.661 381.82 510.102 382.186 510.279C382.515 510.438 382.905 510.329 383.108 510.038L383.168 509.935L416.789 440.139L451.916 381.752C451.956 381.686 451.986 381.614 452.003 381.538L452.02 381.424L454.065 352.013C454.093 351.608 453.787 351.256 453.381 351.227Z" fill="#253368"/>
<path d="M467.987 353.066L467.868 353.08C467.509 353.151 467.263 353.471 467.274 353.826L467.288 353.945L475.208 394.339L439.586 469.218C439.428 469.549 439.539 469.938 439.83 470.14L439.934 470.2C440.264 470.357 440.653 470.247 440.855 469.955L440.915 469.851L476.639 394.755C476.69 394.648 476.714 394.531 476.711 394.413L476.697 394.296L468.732 353.661C468.662 353.302 468.341 353.055 467.987 353.066Z" fill="#253368"/>
<path d="M393.96 339.72C393.746 339.711 393.541 339.795 393.396 339.946L393.317 340.045L380.762 358.715L269.595 389.572L269.348 389.694L224.761 423.416C224.384 423.701 224.375 424.251 224.712 424.552L224.812 424.627L291.22 466.444C291.564 466.66 292.018 466.557 292.234 466.212C292.427 465.906 292.366 465.513 292.109 465.277L292.003 465.197L226.498 423.948L270.124 390.954L381.416 360.064C381.543 360.029 381.657 359.96 381.748 359.867L381.83 359.765L394.309 341.21L477.37 344.857C477.735 344.873 478.05 344.62 478.122 344.273L478.138 344.154C478.153 343.788 477.9 343.473 477.553 343.4L477.434 343.385L393.96 339.72Z" fill="#253368"/>
<path d="M436.69 374.357C436.382 374.168 435.99 374.233 435.757 374.493L435.678 374.599L419.386 401.174L383.417 434.039C383.15 434.283 383.104 434.678 383.289 434.974L383.369 435.08C383.613 435.347 384.008 435.394 384.303 435.208L384.409 435.128L420.453 402.194L420.584 402.035L436.932 375.37C437.145 375.023 437.036 374.57 436.69 374.357Z" fill="#253368"/>
<path d="M377.304 385.542C377.185 385.196 376.834 384.995 376.485 385.055L376.369 385.084L319.338 404.69L272.507 430.203C272.15 430.397 272.018 430.845 272.212 431.202C272.387 431.524 272.767 431.663 273.101 431.545L273.21 431.497L319.929 406.034L376.847 386.478C377.231 386.346 377.436 385.927 377.304 385.542Z" fill="#253368"/>
<path fill-rule="evenodd" clip-rule="evenodd" d="M302.145 209.545C296.644 212.449 294.18 218.753 296.547 223.851L340.148 320.106C344.678 328.994 357.575 336.822 368.242 329.052C378.089 323.85 382.136 312.335 377.198 303.566L316.848 212.589C313.841 208.055 307.466 206.736 302.145 209.545Z" fill="#FFC999"/>
<path fill-rule="evenodd" clip-rule="evenodd" d="M482.064 440.143C475.977 438.594 473.376 434.085 474.5 428.5L494.894 319.56C497.248 309.725 508.002 303.936 518.806 306.683C529.706 309.457 536.783 314.686 534 324.5L495.551 440.023C493.666 445.204 487.952 441.642 482.064 440.143Z" fill="#FFC999"/>
<path fill-rule="evenodd" clip-rule="evenodd" d="M518.918 339.03L516.75 339.468C506.061 341.628 495.646 334.707 493.489 324.007L473.998 227.391C471.841 216.693 478.756 206.269 489.446 204.108L491.613 203.669C502.301 201.51 512.717 208.431 514.874 219.13L534.363 315.746C536.523 326.446 529.606 336.87 518.918 339.03Z" fill="#FFC999"/>
<path fill-rule="evenodd" clip-rule="evenodd" d="M523.012 259.473L514.016 214.871C511.846 204.121 500.768 197.201 489.399 199.499C478.03 201.797 470.504 212.474 472.672 223.227L481.583 267.405L523.012 259.473Z" fill="#FF7A46"/>
<path d="M523.207 257.538L481.246 267.189C480.922 267.263 480.72 267.586 480.795 267.91C480.861 268.198 481.123 268.39 481.408 268.377L481.516 268.362L523.476 258.711C523.8 258.637 524.002 258.314 523.928 257.989C523.862 257.701 523.599 257.51 523.315 257.523L523.207 257.538Z" fill="#C44343"/>
<path fill-rule="evenodd" clip-rule="evenodd" d="M442.012 470.92C438.466 469.566 444.757 453.892 446.716 450.684C449.327 446.404 473.373 433.099 473.373 433.099L477.597 414.19L499.746 423.228C499.746 423.228 496.34 444.086 490.098 454.839C485.441 462.862 477.518 461.145 466.253 471.77C461.039 476.687 454.513 481.891 451.855 477.967C451.331 477.192 445.909 478.615 446.606 473.82C446.606 473.82 444.762 475.258 443.025 473.804C441.519 472.54 442.012 470.92 442.012 470.92Z" fill="#FFC999"/>
<path d="M471.034 459.456C470.855 459.075 470.4 458.911 470.019 459.091L469.587 459.306L469.43 459.387C468.971 459.625 468.462 459.906 467.913 460.226C466.347 461.142 464.782 462.2 463.317 463.388C461.988 464.466 460.807 465.601 459.811 466.792L451.098 477.217C450.827 477.541 450.87 478.023 451.193 478.293C451.517 478.564 451.998 478.521 452.268 478.197L460.982 467.772C461.909 466.662 463.021 465.594 464.278 464.575C465.677 463.439 467.18 462.424 468.683 461.545C469.078 461.315 469.451 461.106 469.797 460.92L470.515 460.548C470.58 460.515 470.632 460.49 470.67 460.473C471.051 460.293 471.214 459.838 471.034 459.456Z" fill="#DD936F"/>
<path d="M465.072 452.579C464.812 452.247 464.333 452.189 464.001 452.449L463.498 452.854L462.874 453.373C462.656 453.557 462.428 453.752 462.191 453.957C460.84 455.128 459.488 456.389 458.225 457.695C456.779 459.188 455.542 460.645 454.574 462.037L453.811 463.125C453.545 463.501 453.267 463.89 452.979 464.292L452.072 465.547C451.343 466.551 450.582 467.585 449.809 468.627L447.592 471.585L446.514 473.005C446.257 473.34 446.321 473.819 446.656 474.076C446.99 474.332 447.469 474.269 447.725 473.934L449.133 472.077L449.47 471.63C450.516 470.238 451.562 468.831 452.564 467.463L453.776 465.798L454.646 464.585C455.065 463.997 455.46 463.437 455.827 462.909C456.742 461.593 457.928 460.196 459.321 458.757C460.551 457.487 461.87 456.255 463.19 455.111L463.857 454.542L464.803 453.761C464.861 453.715 464.908 453.678 464.942 453.651C465.273 453.392 465.332 452.911 465.072 452.579Z" fill="#DD936F"/>
<path d="M459.747 447.858C459.511 447.509 459.037 447.418 458.688 447.654L458.186 448.009C457.794 448.293 457.359 448.621 456.89 448.989C455.551 450.04 454.212 451.205 452.961 452.454C450.534 454.876 448.729 457.318 447.801 459.716C447.35 460.88 446.85 462.024 446.308 463.141C445.439 464.934 444.507 466.574 443.577 468.026C443.252 468.533 442.951 468.98 442.681 469.361L442.351 469.816C442.095 470.151 442.159 470.63 442.494 470.886C442.829 471.143 443.307 471.079 443.563 470.744L443.83 470.38L443.927 470.243C444.21 469.843 444.524 469.378 444.861 468.851C445.823 467.351 446.784 465.658 447.681 463.807C448.24 462.654 448.758 461.472 449.224 460.268C450.061 458.104 451.75 455.821 454.038 453.536C455.244 452.333 456.538 451.206 457.832 450.191L458.485 449.688C458.589 449.609 458.691 449.533 458.79 449.459L459.486 448.959C459.508 448.943 459.528 448.93 459.544 448.919C459.893 448.682 459.984 448.207 459.747 447.858Z" fill="#DD936F"/>
<path fill-rule="evenodd" clip-rule="evenodd" d="M319.092 211.811L313.216 180.422C313.216 180.422 296.926 144.281 289.661 145.713C282.827 147.963 296.721 159.188 298.738 169.153C292.537 168.111 294.487 177.677 294.487 177.677C294.487 177.677 289.533 177.021 290.146 184.722C285.272 187.017 288.142 196.062 288.142 196.062C288.142 196.062 290.67 213.728 299.485 229.981C299.485 229.981 317.8 238.91 319.092 211.811Z" fill="#FFC999"/>
<path fill-rule="evenodd" clip-rule="evenodd" d="M319.836 209.278C319.836 209.278 319.436 194.622 318.807 187.114C318.18 179.606 322.563 166.577 316.85 169.595C313.01 171.624 312.881 179.612 312.455 185.472C312.026 191.329 301.271 204.287 307.387 214.551C311.519 221.486 318.929 223.054 319.836 209.278Z" fill="#FFC999"/>
<path d="M299.337 168.682C299.077 168.35 298.598 168.292 298.266 168.552C297.935 168.813 297.877 169.293 298.137 169.625L298.429 170.007L299.004 170.785C299.072 170.88 299.142 170.976 299.213 171.076C300.025 172.209 300.836 173.42 301.593 174.659C302.339 175.88 302.991 177.062 303.521 178.179C305.493 182.331 305.522 184.89 303.341 185.565C302.939 185.69 302.713 186.118 302.838 186.521C302.962 186.924 303.39 187.149 303.792 187.024C307.265 185.949 307.225 182.422 304.9 177.523C304.345 176.354 303.668 175.126 302.895 173.862C302.117 172.589 301.285 171.347 300.453 170.185L300.032 169.605L299.378 168.734C299.362 168.714 299.349 168.697 299.337 168.682Z" fill="#DD936F"/>
<path d="M294.492 177.493C294.205 177.802 294.222 178.285 294.531 178.572L294.852 178.88L295.264 179.284C295.409 179.427 295.56 179.579 295.716 179.738C296.61 180.649 297.505 181.623 298.338 182.617C299.153 183.59 299.865 184.531 300.444 185.418C302.292 188.248 302.534 190.046 301.09 190.753C300.784 190.903 300.469 190.975 300.14 190.977C298.967 190.982 297.579 190.09 296.166 188.572C295.649 188.017 295.168 187.421 294.736 186.824L294.407 186.355C294.317 186.223 294.248 186.117 294.201 186.041C293.979 185.683 293.509 185.573 293.151 185.795C292.793 186.018 292.683 186.489 292.905 186.847L293.046 187.067C293.16 187.24 293.313 187.461 293.5 187.72C293.967 188.364 294.487 189.009 295.049 189.613C296.728 191.417 298.433 192.512 300.147 192.505C300.705 192.502 301.246 192.377 301.761 192.125C304.382 190.841 304.011 188.088 301.722 184.582C301.106 183.639 300.359 182.652 299.507 181.635C298.646 180.608 297.725 179.605 296.805 178.668L296.121 177.984L295.57 177.454C295.261 177.166 294.779 177.184 294.492 177.493Z" fill="#DD936F"/>
<path d="M291.946 184.694C291.538 184.589 291.122 184.835 291.018 185.244C290.913 185.653 291.159 186.069 291.567 186.174C292.55 186.426 293.739 187.45 295.096 189.396C297.945 193.483 298.377 195.973 297.378 196.437C296.34 196.918 294.101 195.626 292.802 193.327C292.335 192.501 291.081 193.098 291.427 193.981C293.258 198.654 295.654 201.687 299.032 204.235C299.487 204.578 299.957 204.912 300.491 205.274L302.694 206.725C307.16 209.668 308.84 211.919 309.384 217.188C309.427 217.607 309.802 217.912 310.222 217.869C310.641 217.825 310.945 217.45 310.902 217.031C310.32 211.395 308.45 208.762 303.908 205.699L301.749 204.28L300.975 203.755C300.611 203.502 300.276 203.26 299.95 203.015C297.975 201.525 296.368 199.869 295.02 197.763L294.845 197.482L294.991 197.559C295.994 198.054 297 198.203 297.831 197.9L298.019 197.823C300.28 196.774 299.678 193.299 296.347 188.522C294.801 186.304 293.35 185.054 291.946 184.694Z" fill="#DD936F"/>
<path d="M313.124 177.395C312.75 177.328 312.392 177.545 312.269 177.892L312.238 178.012L310.287 188.884L310.179 189.036C310.011 189.274 309.825 189.548 309.625 189.857C309.055 190.738 308.486 191.717 307.955 192.773C306.425 195.811 305.504 198.86 305.503 201.742C305.503 203.371 305.802 204.9 306.434 206.305C306.607 206.689 307.059 206.861 307.444 206.687C307.828 206.514 307.999 206.062 307.826 205.677C307.286 204.479 307.029 203.163 307.029 201.743C307.03 199.136 307.886 196.304 309.318 193.46C309.722 192.657 310.149 191.9 310.581 191.201L310.906 190.688C311.229 190.19 311.477 189.837 311.615 189.655C311.663 189.591 311.701 189.52 311.727 189.445L311.757 189.329L313.74 178.282C313.814 177.867 313.538 177.47 313.124 177.395Z" fill="#DD936F"/>
<path d="M397.951 328.818C397.545 328.803 397.203 329.12 397.188 329.527C397.175 329.893 397.43 330.206 397.777 330.276L397.896 330.29L475.592 333.196C475.998 333.212 476.339 332.894 476.355 332.488C476.368 332.122 476.113 331.808 475.765 331.738L475.646 331.724L397.951 328.818Z" fill="#253368"/>
<path d="M74.6237 331H86.3763C86.7208 331 87 331.279 87 331.624V343.376C87 343.721 86.7208 344 86.3763 344H74.6237C74.2792 344 74 343.721 74 343.376V331.624C74 331.279 74.2792 331 74.6237 331Z" fill="#597EF7"/>
<path d="M48.3433 286H73.6567C74.3986 286 75 286.601 75 287.343V312.657C75 313.399 74.3986 314 73.6567 314H48.3433C47.6014 314 47 313.399 47 312.657V287.343C47 286.601 47.6014 286 48.3433 286Z" fill="#8EA7F8"/>
<path fill-rule="evenodd" clip-rule="evenodd" d="M200.59 293.961C227.362 281.261 243.319 314.568 229.854 333.113C213.424 355.743 205.007 381.782 200.32 389.628C196.366 396.246 185.535 412.381 172.493 404.944C160.491 398.1 167.032 371.238 167.032 371.238C167.032 371.238 167.563 309.628 200.59 293.961Z" fill="#389E0D"/>
<path fill-rule="evenodd" clip-rule="evenodd" d="M120.064 399.772C110.962 387.457 107.639 369.785 117.798 365.253C127.538 360.908 143.672 371.606 151.145 392.195C158.618 412.783 162.93 427.586 155.62 430.16C143.626 434.382 132.085 416.037 120.064 399.772Z" fill="#389E0D"/>
<path fill-rule="evenodd" clip-rule="evenodd" d="M215.75 400.707C205.456 412.806 190.601 437.144 181.294 428.62C175.654 423.454 183.194 398.99 203.835 385.679C221.392 374.357 226.045 388.609 215.75 400.707Z" fill="#BAE637"/>
<path fill-rule="evenodd" clip-rule="evenodd" d="M117.242 316.749C121.157 314.108 126.082 313.504 130.575 314.948C136.846 316.962 146.363 322.96 155.782 340.176C168.079 362.653 174.481 387.294 173.215 402.903C172.388 413.111 159.849 417.511 152.834 410.069C149.612 406.65 146.204 401.381 142.868 393.388C129.446 361.222 116.898 341.065 115.401 339.041C111.408 333.64 108.554 322.612 117.242 316.749Z" fill="#BAE637"/>
<path fill-rule="evenodd" clip-rule="evenodd" d="M126.245 329.579C126.378 331.167 125.202 332.563 123.618 332.696C122.035 332.829 120.643 331.65 120.51 330.062C120.377 328.474 121.554 327.078 123.137 326.945C124.721 326.812 126.112 327.991 126.245 329.579Z" fill="white"/>
<path fill-rule="evenodd" clip-rule="evenodd" d="M150.686 341.9C150.819 343.488 149.643 344.884 148.059 345.017C146.476 345.15 145.084 343.971 144.951 342.382C144.818 340.794 145.995 339.399 147.578 339.266C149.162 339.132 150.553 340.312 150.686 341.9Z" fill="white"/>
<path fill-rule="evenodd" clip-rule="evenodd" d="M146.59 374.705C146.742 376.524 145.395 378.122 143.581 378.274C141.768 378.427 140.174 377.076 140.022 375.257C139.87 373.439 141.217 371.841 143.031 371.688C144.844 371.535 146.438 372.886 146.59 374.705Z" fill="white"/>
<path fill-rule="evenodd" clip-rule="evenodd" d="M221.661 325.679C221.661 328.261 219.574 330.353 217 330.353C214.426 330.353 212.34 328.261 212.34 325.679C212.34 323.098 214.426 321.006 217 321.006C219.574 321.006 221.661 323.098 221.661 325.679Z" fill="white"/>
<path fill-rule="evenodd" clip-rule="evenodd" d="M184.144 339.951C184.144 342.532 182.058 344.625 179.484 344.625C176.91 344.625 174.824 342.532 174.824 339.951C174.824 337.37 176.91 335.278 179.484 335.278C182.058 335.278 184.144 337.37 184.144 339.951Z" fill="white"/>
<path fill-rule="evenodd" clip-rule="evenodd" d="M196.295 371.676C196.295 372.755 195.423 373.63 194.347 373.63C193.271 373.63 192.399 372.755 192.399 371.676C192.399 370.597 193.271 369.723 194.347 369.723C195.423 369.723 196.295 370.597 196.295 371.676Z" fill="white"/>
<path fill-rule="evenodd" clip-rule="evenodd" d="M210.328 396.658C210.328 398.252 209.039 399.544 207.45 399.544C205.861 399.544 204.573 398.252 204.573 396.658C204.573 395.065 205.861 393.773 207.45 393.773C209.039 393.773 210.328 395.065 210.328 396.658Z" fill="white"/>
<path d="M143.118 403.059C143.386 402.802 143.811 402.813 144.066 403.081L144.189 403.214L144.282 403.318C144.451 403.507 144.647 403.733 144.866 403.995C145.49 404.741 146.183 405.632 146.929 406.668C149.054 409.619 151.177 413.14 153.158 417.225C158.809 428.883 162.199 442.73 162.199 458.715C162.199 459.087 161.899 459.388 161.528 459.388C161.157 459.388 160.857 459.087 160.857 458.715C160.857 442.941 157.516 429.294 151.951 417.814C150.005 413.8 147.922 410.346 145.841 407.456C145.157 406.506 144.52 405.684 143.945 404.989L143.838 404.86C143.675 404.665 143.526 404.491 143.393 404.34L143.225 404.151C143.162 404.082 143.119 404.035 143.095 404.01C142.839 403.741 142.85 403.315 143.118 403.059Z" fill="#253369"/>
<path d="M193.809 407.769C194.031 407.471 194.451 407.41 194.748 407.632C195.045 407.854 195.106 408.276 194.885 408.574C192.441 411.856 190.186 415.386 188.112 419.127C183.727 427.035 180.338 435.514 177.822 443.994C176.941 446.962 176.233 449.717 175.681 452.188L175.57 452.695C175.438 453.299 175.324 453.85 175.228 454.345L175.165 454.668L175.054 455.278C174.992 455.645 174.646 455.892 174.281 455.83C173.915 455.768 173.669 455.421 173.731 455.055L173.769 454.838C173.8 454.663 173.839 454.457 173.884 454.221L173.995 453.661C174.103 453.127 174.229 452.537 174.372 451.894L174.494 451.354C175.033 448.995 175.709 446.394 176.535 443.61C179.077 435.043 182.503 426.475 186.939 418.473C189.041 414.681 191.328 411.101 193.809 407.769Z" fill="#253369"/>
<path d="M205.534 323.816C205.791 324.063 205.81 324.466 205.584 324.735L205.555 324.768C205.542 324.781 205.513 324.812 205.47 324.858L205.305 325.039L205.209 325.146C204.921 325.468 204.585 325.857 204.206 326.312C203.119 327.615 201.907 329.184 200.6 331.018C196.861 336.268 193.12 342.591 189.626 349.994C183.81 362.32 179.279 376.377 176.534 392.181C173.2 411.371 172.648 432.334 175.377 455.086C175.421 455.455 175.159 455.79 174.791 455.835C174.423 455.879 174.089 455.616 174.044 455.247C171.3 432.364 171.855 411.269 175.212 391.95C177.979 376.024 182.546 361.851 188.413 349.419C191.942 341.942 195.724 335.55 199.508 330.236L199.802 329.827C200.969 328.206 202.059 326.797 203.052 325.597L203.176 325.449C203.533 325.021 203.853 324.648 204.135 324.332L204.21 324.247C204.298 324.149 204.377 324.062 204.446 323.987L204.586 323.837C204.842 323.568 205.267 323.559 205.534 323.816Z" fill="#253369"/>
<path d="M147.456 363.72C147.773 363.527 148.186 363.629 148.378 363.947L148.445 364.06C148.499 364.151 148.562 364.26 148.634 364.386L148.74 364.571C148.92 364.888 149.122 365.252 149.345 365.664L149.529 366.006C150.212 367.28 150.959 368.754 151.758 370.424L151.867 370.653C154.472 376.126 157.075 382.525 159.504 389.797C166.306 410.159 170.443 433.269 170.598 458.711C170.6 459.083 170.302 459.386 169.931 459.388C169.561 459.391 169.258 459.091 169.256 458.719C169.102 433.426 164.99 410.456 158.232 390.225C155.864 383.137 153.332 376.888 150.797 371.53L150.656 371.233C149.79 369.412 148.983 367.824 148.256 366.474L148.037 366.07C147.827 365.685 147.638 365.347 147.471 365.057L147.392 364.919L147.23 364.644C147.038 364.326 147.14 363.913 147.456 363.72Z" fill="#253369"/>
<path fill-rule="evenodd" clip-rule="evenodd" d="M199.097 492.093H141.099C137.964 492.093 135.398 489.52 135.398 486.376V443.943C135.398 440.799 137.964 438.226 141.099 438.226H199.097C202.231 438.226 204.797 440.799 204.797 443.943V486.376C204.797 489.52 202.231 492.093 199.097 492.093Z" fill="#253369"/>
</g>
<path d="M595.984 54.9072H545.907C527.143 54.9072 511.932 70.1184 511.932 88.8822C511.932 107.646 527.143 122.857 545.907 122.857H595.984C614.748 122.857 629.959 107.646 629.959 88.8822C629.959 70.1184 614.748 54.9072 595.984 54.9072Z" fill="#597EF7"/>
<path fill-rule="evenodd" clip-rule="evenodd" d="M528.301 112.974V130.761C528.301 131.543 528.935 132.176 529.716 132.176C530.083 132.176 530.435 132.034 530.699 131.779L543.77 119.168L528.301 112.974Z" fill="#597EF7"/>
<path d="M548.206 93.1291C551.236 93.1291 553.692 90.6731 553.692 87.6435C553.692 84.614 551.236 82.158 548.206 82.158C545.177 82.158 542.721 84.614 542.721 87.6435C542.721 90.6731 545.177 93.1291 548.206 93.1291Z" fill="white"/>
<path d="M570.681 93.1291C573.71 93.1291 576.166 90.6731 576.166 87.6435C576.166 84.614 573.71 82.158 570.681 82.158C567.651 82.158 565.195 84.614 565.195 87.6435C565.195 90.6731 567.651 93.1291 570.681 93.1291Z" fill="white"/>
<path d="M593.685 93.1291C596.714 93.1291 599.17 90.6731 599.17 87.6435C599.17 84.614 596.714 82.158 593.685 82.158C590.655 82.158 588.199 84.614 588.199 87.6435C588.199 90.6731 590.655 93.1291 593.685 93.1291Z" fill="white"/>
<defs>
<clipPath id="clip0">
<rect width="650" height="450" fill="white" transform="matrix(-1 0 0 1 650 30)"/>
</clipPath>
</defs>
</svg>
