<svg width="19" height="20" viewBox="0 0 19 20" fill="none" xmlns="http://www.w3.org/2000/svg">
<path d="M9.5 9.60517e-07C5.4457 9.60517e-07 2.00841 2.27326 0.348379 5.5799C0.138118 5.99872 0.353682 6.49455 0.789262 6.66744C1.22333 6.83972 1.71124 6.62557 1.92691 6.21134C3.33284 3.51097 6.14582 1.66667 9.5 1.66667C12.2667 1.66667 14.738 2.99167 16.2785 5H13.7491C13.2888 5 12.9157 5.3731 12.9157 5.83333C12.9157 6.29357 13.2888 6.66667 13.7491 6.66667H18.8933V1.68727C18.8933 1.21565 18.5109 0.833334 18.0393 0.833334C17.5677 0.833334 17.1854 1.21565 17.1854 1.68727V3.41167C16.2288 2.33983 15.0478 1.48066 13.722 0.892128C12.3962 0.303593 10.9565 -0.000623858 9.5 9.60517e-07ZM18.2103 13.3325C17.776 13.1603 17.2879 13.3746 17.0722 13.789C15.6669 16.4892 12.854 18.3333 9.5 18.3333C6.70252 18.3333 4.24234 16.99 2.69416 15H5.25094C5.71117 15 6.08427 14.6269 6.08427 14.1667C6.08427 13.7064 5.71117 13.3333 5.25094 13.3333H0.106742V18.3127C0.106742 18.7843 0.48906 19.1667 0.960674 19.1667C1.43229 19.1667 1.81461 18.7843 1.81461 18.3127V16.5883C3.68472 18.655 6.42157 20 9.5 20C13.5541 20 16.9913 17.7269 18.6514 14.4205C18.8618 14.0015 18.6461 13.5054 18.2103 13.3325Z" fill="#597EF7"/>
</svg>
