<svg width="48" height="10" viewBox="0 0 48 10" fill="none" xmlns="http://www.w3.org/2000/svg">
<circle cx="4.86154" cy="4.95382" r="4.86154" fill="#4285F4"/>
<path d="M18.4746 1.3887C18.4746 0.672708 19.055 0.0922852 19.771 0.0922852H26.9013C27.6173 0.0922852 28.1977 0.672708 28.1977 1.3887V8.51895C28.1977 9.23494 27.6173 9.81536 26.9013 9.81536H19.771C19.055 9.81536 18.4746 9.23494 18.4746 8.51895V1.3887Z" fill="#4285F4"/>
<path d="M41.1425 0.760728C41.6467 -0.130531 42.9452 -0.130528 43.4494 0.76073L47.4738 7.87361C47.966 8.74355 47.3293 9.81536 46.3203 9.81536H38.2715C37.2625 9.81536 36.6258 8.74355 37.118 7.87361L41.1425 0.760728Z" fill="#4285F4"/>
</svg>
