<svg width="21" height="21" viewBox="0 0 21 21" fill="none" xmlns="http://www.w3.org/2000/svg">
<path d="M19.0405 15.1531L19.0404 15.1531L19.0433 15.1613C19.1128 15.3566 19.1652 15.5575 19.2 15.7619C19.2335 15.9726 19.2503 16.1857 19.25 16.3991V16.4C19.25 16.9056 19.1504 17.4062 18.9569 17.8733C18.7635 18.3404 18.4799 18.7649 18.1224 19.1224C17.7649 19.4799 17.3404 19.7635 16.8733 19.9569C16.4065 20.1503 15.9062 20.2499 15.401 20.25C11.5168 20.245 7.79323 18.6998 5.04673 15.9533C2.30035 13.2069 0.755172 9.48349 0.75 5.59955C0.75012 4.57863 1.15573 3.59955 1.87764 2.87764C2.59694 2.15834 3.57156 1.75305 4.58848 1.75002C4.79464 1.75703 4.99963 1.78402 5.20059 1.83062C5.2203 1.83519 5.24019 1.83896 5.26021 1.84192C5.45698 1.87104 5.65041 1.9194 5.83773 1.9863L5.83771 1.98636L5.84691 1.98951C5.88704 2.00326 5.92301 2.027 5.95144 2.05849C5.97982 2.08992 5.99974 2.12804 6.00935 2.16928C6.00937 2.16936 6.00939 2.16943 6.00941 2.16951L7.37856 8.09585C7.37864 8.09619 7.37872 8.09654 7.3788 8.09688C7.38778 8.13728 7.38659 8.17928 7.37533 8.21911L7.37533 8.21912C7.36398 8.25929 7.34274 8.29599 7.31356 8.32585C7.30313 8.33653 7.29301 8.34752 7.28323 8.3588C7.28118 8.36117 7.27934 8.36329 7.27769 8.36517C7.26602 8.37249 7.24439 8.38554 7.20787 8.40585C7.06477 8.48547 6.81065 8.61348 6.29521 8.87314C6.23466 8.90364 6.17049 8.93596 6.10248 8.97024C5.74277 9.15151 5.59048 9.58456 5.75756 9.95108C6.8171 12.2755 8.67609 14.1421 10.9961 15.2112C11.3588 15.3783 11.7889 15.2319 11.9743 14.8782C12.3037 14.2497 12.4587 13.9567 12.5493 13.8014C12.5787 13.7509 12.5943 13.7272 12.6006 13.7181C12.6044 13.7145 12.6106 13.7086 12.6203 13.6996L12.6342 13.6864C12.664 13.6573 12.7007 13.636 12.7409 13.6247C12.7809 13.6134 12.823 13.6122 12.8636 13.6213C12.8638 13.6213 12.864 13.6214 12.8642 13.6214L18.8605 14.9906C18.8608 14.9907 18.8611 14.9907 18.8614 14.9908C18.9024 15.0005 18.9403 15.0203 18.9715 15.0486C19.003 15.077 19.0267 15.113 19.0405 15.1531Z" stroke="#597EF7" stroke-width="1.5" stroke-linejoin="round"/>
<path d="M16.25 11C16.25 7.54822 13.4518 4.75 10 4.75" stroke="#597EF7" stroke-width="1.5" stroke-linecap="round"/>
<path d="M20 11C20 5.47715 15.5228 1 10 1" stroke="#597EF7" stroke-width="1.5" stroke-linecap="round"/>
</svg>
