<svg width="618" height="865" viewBox="0 0 618 865" fill="none" xmlns="http://www.w3.org/2000/svg">
<path d="M0 8C0 3.58172 3.58172 0 8 0H618V865H0V8Z" fill="white"/>
<mask id="mask0" mask-type="alpha" maskUnits="userSpaceOnUse" x="0" y="0" width="618" height="865">
<path d="M0 8C0 3.58172 3.58172 0 8 0H618V865H0V8Z" fill="#1A2F76"/>
</mask>
<g mask="url(#mask0)">
<path d="M739.977 8C739.977 3.58173 736.395 0 731.977 0H8.00006C3.58179 0 6.10352e-05 3.58172 6.10352e-05 8V34.1528H739.977V8Z" fill="#F4F4F4"/>
<circle cx="21.6921" cy="18.6921" r="5.69213" fill="#4285F4"/>
<path d="M37.6328 14.5179C37.6328 13.6796 38.3124 13 39.1507 13H47.4992C48.3375 13 49.0171 13.6796 49.0171 14.5179V22.8663C49.0171 23.7046 48.3375 24.3842 47.4992 24.3842H39.1507C38.3124 24.3842 37.6328 23.7046 37.6328 22.8663V14.5179Z" fill="#4285F4"/>
<path d="M64.1725 13.7826C64.7629 12.7391 66.2832 12.7391 66.8736 13.7826L71.5856 22.1107C72.1619 23.1293 71.4164 24.3842 70.235 24.3842H60.8111C59.6297 24.3842 58.8842 23.1293 59.4605 22.1107L64.1725 13.7826Z" fill="#4285F4"/>
<path fill-rule="evenodd" clip-rule="evenodd" d="M359.839 138.947C341.41 138.947 326.47 153.887 326.47 172.316V172.401C326.47 190.83 341.41 205.77 359.839 205.77H409.049C410.887 205.77 412.691 205.622 414.448 205.336L423.982 214.545C424.241 214.795 424.587 214.935 424.948 214.935C425.716 214.935 426.338 214.312 426.338 213.545L426.339 200.947C435.978 195.096 442.418 184.501 442.418 172.401V172.316C442.418 153.887 427.478 138.947 409.049 138.947H359.839Z" fill="#F5F8FF"/>
<path d="M367.934 59H297.67C271.343 59 250 80.3427 250 106.67C250 132.998 271.343 154.34 297.67 154.34H367.934C394.262 154.34 415.604 132.998 415.604 106.67C415.604 80.3427 394.262 59 367.934 59Z" fill="#597EF7"/>
<path fill-rule="evenodd" clip-rule="evenodd" d="M272.965 140.474V165.43C272.965 166.527 273.854 167.416 274.951 167.416C275.466 167.416 275.96 167.216 276.33 166.859L294.669 149.165L272.965 140.474Z" fill="#597EF7"/>
<path d="M300.898 112.629C305.149 112.629 308.595 109.183 308.595 104.932C308.595 100.681 305.149 97.2355 300.898 97.2355C296.647 97.2355 293.201 100.681 293.201 104.932C293.201 109.183 296.647 112.629 300.898 112.629Z" fill="white"/>
<path d="M332.431 112.629C336.682 112.629 340.128 109.183 340.128 104.932C340.128 100.681 336.682 97.2355 332.431 97.2355C328.18 97.2355 324.734 100.681 324.734 104.932C324.734 109.183 328.18 112.629 332.431 112.629Z" fill="white"/>
<path d="M364.707 112.629C368.957 112.629 372.403 109.183 372.403 104.932C372.403 100.681 368.957 97.2355 364.707 97.2355C360.456 97.2355 357.01 100.681 357.01 104.932C357.01 109.183 360.456 112.629 364.707 112.629Z" fill="white"/>
<path fill-rule="evenodd" clip-rule="evenodd" d="M511.403 259.014L517.962 176.034L592.677 181.316L595.488 260.846C596.336 284.868 576.943 304.729 552.908 304.45C528.533 304.169 509.482 283.315 511.403 259.014Z" fill="#79624D"/>
<path fill-rule="evenodd" clip-rule="evenodd" d="M498.692 167.004C498.692 167.004 487.353 155.076 482.474 163.003C477.595 170.932 485.794 199.478 498.183 200.317C514.727 201.434 498.692 167.004 498.692 167.004Z" fill="#79624D"/>
<path fill-rule="evenodd" clip-rule="evenodd" d="M570.212 240.542C570.212 240.542 545.735 260.258 513.684 240.247C490.619 225.848 488.189 174.387 492.978 136.676C495.687 115.336 505.633 103.927 526.515 97.7837C547.4 91.6405 603.874 91.9126 603.692 154.776C603.493 224.798 570.212 240.542 570.212 240.542Z" fill="#79624D"/>
<path d="M529.031 146.919C529.578 146.786 530.128 147.069 530.349 147.565L530.416 147.761L533.665 161.082C533.692 161.192 533.703 161.305 533.696 161.418L533.674 161.586L526.527 195.997L540.204 196.238C540.773 196.248 541.239 196.671 541.318 197.217L541.33 197.404C541.32 197.973 540.896 198.438 540.35 198.518L540.164 198.529L525.105 198.267C524.452 198.256 523.955 197.707 523.979 197.078L524.003 196.888L531.376 161.374L528.189 148.304C528.056 147.758 528.339 147.207 528.835 146.986L529.031 146.919Z" fill="#7A523E"/>
<path d="M550.585 206.264C551.443 206.051 552.312 206.573 552.525 207.431C552.738 208.289 552.216 209.158 551.358 209.371L550.82 209.492C550.662 209.526 550.477 209.563 550.267 209.604C549.407 209.772 548.404 209.939 547.263 210.094C540.821 210.97 533.137 211.121 524.527 210.089C523.65 209.983 523.024 209.187 523.129 208.309C523.234 207.431 524.031 206.805 524.909 206.91C533.235 207.908 540.648 207.763 546.832 206.922C547.695 206.804 548.471 206.68 549.157 206.556L550.143 206.363C550.349 206.32 550.497 206.286 550.585 206.264Z" fill="#483A34"/>
<mask id="mask1" mask-type="alpha" maskUnits="userSpaceOnUse" x="489" y="67" width="124" height="115">
<path d="M489.094 67H612.348V181.663H489.094V67Z" fill="white"/>
</mask>
<g mask="url(#mask1)">
<path fill-rule="evenodd" clip-rule="evenodd" d="M596.325 181.664L608.762 157.542C608.762 157.542 616.79 122.684 608.822 107.606C596.456 84.2075 567.74 84.6173 550.748 78.2724C533.752 71.9242 533.957 66.1907 527.036 67.0935C520.118 67.9963 493.215 86.458 490.065 105.954C487.292 123.093 491.339 166.842 491.339 166.842C491.339 166.842 496.448 128.167 500.257 117.971C513.802 112.433 562.874 112.52 583.305 118.986C583.305 118.986 584.982 132.179 585.936 141.469C596.846 149.395 596.325 181.664 596.325 181.664Z" fill="#252629"/>
</g>
<path d="M511.63 237.974C512.101 237.551 512.825 237.59 513.248 238.061C513.483 238.322 513.99 238.811 514.771 239.454C516.095 240.543 517.701 241.636 519.593 242.658C530.391 248.494 544.836 249.526 563.182 242.636C563.774 242.413 564.435 242.713 564.657 243.306C564.88 243.898 564.58 244.559 563.987 244.782C545.018 251.906 529.882 250.825 518.503 244.675C516.478 243.58 514.75 242.404 513.315 241.224C512.442 240.506 511.853 239.937 511.544 239.593C511.121 239.122 511.159 238.397 511.63 237.974Z" fill="#7A523E"/>
<path d="M530.009 159.133L541.082 159.671C542.346 159.732 543.322 160.807 543.26 162.071C543.203 163.251 542.263 164.18 541.11 164.248L540.86 164.25L529.786 163.712C528.522 163.65 527.547 162.576 527.608 161.311C527.666 160.131 528.606 159.203 529.759 159.134L530.009 159.133Z" fill="#393C68"/>
<path d="M532.989 165.308C535.267 165.094 537.588 165.631 539.855 166.636C540.988 167.139 541.868 167.647 542.406 168.013C543.453 168.724 543.725 170.15 543.014 171.197C542.302 172.244 540.877 172.516 539.83 171.804C539.502 171.582 538.853 171.207 537.996 170.827C536.384 170.112 534.79 169.743 533.417 169.872C532.488 169.959 531.685 170.27 530.978 170.854L530.682 171.12C529.775 172.004 528.324 171.986 527.44 171.08C526.556 170.174 526.575 168.723 527.481 167.839C529.034 166.324 530.916 165.502 532.989 165.308Z" fill="#393C68"/>
<path d="M531.261 218.344L540.289 218.668C540.921 218.69 541.416 219.221 541.393 219.854C541.373 220.423 540.941 220.881 540.393 220.95L540.207 220.958L531.179 220.635C530.547 220.612 530.052 220.081 530.075 219.449C530.095 218.879 530.528 218.422 531.075 218.353L531.261 218.344Z" fill="#7A523E"/>
<path d="M582.091 161.046L600.262 161.59C601.527 161.628 602.522 162.685 602.484 163.95C602.449 165.131 601.526 166.077 600.374 166.167L600.124 166.173L581.954 165.628C580.689 165.59 579.694 164.534 579.732 163.269C579.767 162.088 580.69 161.142 581.841 161.052L582.091 161.046Z" fill="#393C68"/>
<path fill-rule="evenodd" clip-rule="evenodd" d="M580.791 159.7L546.105 158.461C543.685 158.374 541.649 160.263 541.582 162.683C541.45 167.203 541.447 174.458 542.401 180.7C543.525 188.063 549.943 192.778 557.37 193.387C566.644 194.149 574.98 194.453 579.369 189.782C586.054 182.666 584.911 170.517 585.004 164.108C585.036 161.758 583.141 159.783 580.791 159.7Z" fill="white"/>
<path d="M580.821 158.937L546.135 157.698C543.288 157.596 540.9 159.821 540.821 162.662C540.632 169.16 540.837 175.504 541.649 180.816C542.785 188.261 549.204 193.484 557.311 194.148L559 194.279C570.538 195.124 576.127 194.351 579.928 190.305C582.88 187.163 584.549 182.954 585.295 177.72L585.439 176.626C585.718 174.281 585.8 172.04 585.789 168.66L585.764 164.695C585.765 164.498 585.767 164.314 585.77 164.119C585.807 161.355 583.587 159.035 580.821 158.937ZM546.08 159.224L580.766 160.463C582.705 160.531 584.269 162.166 584.243 164.098L584.237 164.89L584.263 169.397C584.259 172.798 584.141 174.995 583.784 177.504C583.078 182.454 581.521 186.379 578.816 189.259C575.288 193.013 569.635 193.628 557.435 192.626C549.995 192.017 544.181 187.286 543.158 180.585C542.363 175.382 542.161 169.12 542.347 162.706C542.403 160.714 544.079 159.152 546.08 159.224Z" fill="#253368"/>
<path fill-rule="evenodd" clip-rule="evenodd" d="M526.707 157.385L487.437 155.986C485.779 161.672 486.387 183.914 492.959 188.908C501.82 193.96 520.125 192.561 523.131 187.845C527.693 180.69 529.78 166.803 529.921 160.801C529.963 158.97 528.538 157.452 526.707 157.385Z" fill="white"/>
<path d="M526.735 156.622L487.464 155.223C487.114 155.211 486.801 155.437 486.703 155.772C484.292 164.041 486.627 185.056 492.497 189.516C501.376 194.585 520.354 193.622 523.774 188.256C527.725 182.06 530.484 169.338 530.684 160.819C530.735 158.569 528.982 156.704 526.735 156.622ZM487.929 157.146L488.018 156.77L526.679 158.148C528.091 158.2 529.189 159.368 529.157 160.783C528.963 169.049 526.259 181.519 522.487 187.435C519.586 191.984 501.507 192.903 493.337 188.245C488.379 184.47 486.094 165.473 487.929 157.146Z" fill="#253368"/>
<path d="M541.533 157.373L584.567 157.78C585.833 157.792 586.85 158.827 586.838 160.093C586.827 161.275 585.923 162.239 584.774 162.353L584.524 162.364L541.489 161.957C540.223 161.945 539.207 160.909 539.219 159.643C539.23 158.462 540.133 157.498 541.283 157.384L541.533 157.373Z" fill="#393C68"/>
<path d="M487.199 154.551L529.312 156.645C530.576 156.708 531.55 157.783 531.487 159.048C531.429 160.228 530.487 161.155 529.334 161.222L529.084 161.223L486.971 159.13C485.707 159.067 484.733 157.991 484.796 156.727C484.855 155.547 485.796 154.619 486.949 154.552L487.199 154.551Z" fill="#393C68"/>
<path fill-rule="evenodd" clip-rule="evenodd" d="M601.982 162.137C606.4 157.549 613.276 156.259 618.168 161.509C626.046 169.97 618.901 201.573 597.75 202.982C589.712 201.903 595.087 169.295 601.982 162.137Z" fill="#79624D"/>
<path d="M610.903 164.991C611.495 164.765 612.157 165.062 612.382 165.653C612.608 166.245 612.311 166.907 611.719 167.132L611.407 167.264C611.212 167.352 610.963 167.472 610.672 167.625C609.856 168.055 609.04 168.58 608.282 169.199C605.696 171.315 604.445 173.932 605.133 177.182C605.32 178.062 605.647 178.482 606.491 179.008L607.014 179.316C608.749 180.312 609.513 181.178 609.68 183.081C609.934 185.934 608.575 188.092 606.248 189.569C605.019 190.349 603.804 190.788 602.953 190.978C602.336 191.116 601.723 190.728 601.585 190.11C601.446 189.493 601.835 188.88 602.453 188.741L602.681 188.681C602.825 188.64 603.011 188.58 603.23 188.501C603.842 188.28 604.455 187.992 605.019 187.634C606.684 186.577 607.565 185.178 607.397 183.282C607.317 182.372 607.07 182.024 606.142 181.463L605.644 181.173C604.067 180.261 603.259 179.392 602.891 177.657C602.002 173.461 603.639 170.036 606.831 167.425C607.717 166.701 608.66 166.094 609.604 165.597L610.229 165.284C610.509 165.151 610.738 165.054 610.903 164.991Z" fill="#7A523E"/>
<path d="M547.048 140.744L557.724 142.058L561.017 142.437C568.583 143.269 573.465 143.505 575.852 143.054C577.59 142.725 579.264 143.867 579.593 145.604C579.921 147.341 578.78 149.016 577.042 149.345C573.709 149.975 568.281 149.702 559.564 148.718L556.266 148.332L546.297 147.102C544.541 146.895 543.286 145.303 543.493 143.548C543.688 141.895 545.109 140.686 546.74 140.722L547.048 140.744Z" fill="#252629"/>
<path d="M506.739 137.448C511.808 137.114 517.104 138.201 522.327 140.201C525.052 141.244 527.164 142.294 528.416 143.026C529.942 143.918 530.457 145.879 529.564 147.405C528.672 148.931 526.711 149.445 525.185 148.553L524.774 148.325C524.594 148.229 524.373 148.113 524.113 147.981L523.839 147.844C522.702 147.278 521.423 146.71 520.038 146.18C515.604 144.482 511.17 143.572 507.16 143.837C504.377 144.02 501.91 144.769 499.783 146.146C498.299 147.107 496.317 146.683 495.356 145.199C494.395 143.715 494.819 141.733 496.303 140.772C499.397 138.769 502.916 137.7 506.739 137.448Z" fill="#252629"/>
<path d="M556.756 167.329C557.639 167.361 558.329 168.103 558.297 168.986C558.184 172.139 560.258 174.693 562.809 174.785C565.359 174.876 567.61 172.476 567.721 169.323C567.752 168.44 568.494 167.749 569.377 167.78C570.26 167.811 570.951 168.553 570.92 169.436C570.75 174.268 567.116 178.142 562.694 177.984C558.272 177.825 554.924 173.702 555.098 168.871C555.13 167.987 555.872 167.297 556.756 167.329Z" fill="#755654"/>
<path d="M507.738 165.579C508.622 165.611 509.313 166.352 509.282 167.235C509.17 170.393 511.243 172.946 513.793 173.035C516.343 173.127 518.594 170.727 518.708 167.573C518.74 166.689 519.482 165.999 520.366 166.031C521.249 166.063 521.939 166.805 521.908 167.688C521.733 172.519 518.099 176.393 513.68 176.235C509.258 176.08 505.912 171.958 506.082 167.123C506.114 166.239 506.855 165.548 507.738 165.579Z" fill="#755654"/>
<mask id="mask2" mask-type="alpha" maskUnits="userSpaceOnUse" x="336" y="287" width="152" height="280">
<path d="M336 287.346H487.537V566.752H336V287.346Z" fill="white"/>
</mask>
<g mask="url(#mask2)">
<path fill-rule="evenodd" clip-rule="evenodd" d="M366.138 564.749C388.297 571.734 412 559.886 419.718 537.974L484.707 353.426C494.016 326.984 479.576 298.083 452.838 289.654C426.095 281.228 397.693 296.626 390.161 323.629L337.592 512.091C331.353 534.468 343.982 557.764 366.138 564.749Z" fill="#79624D"/>
</g>
<path fill-rule="evenodd" clip-rule="evenodd" d="M358.5 433.825L390.878 322.484C398.91 295.623 427.593 280.756 454.17 289.675C480.75 298.593 494.657 327.754 484.858 354.02L445.287 460.098L358.5 433.825Z" fill="#566BB1"/>
<path fill-rule="evenodd" clip-rule="evenodd" d="M636.134 613.595C636.134 613.595 479.345 613.045 457.922 612.561C446.763 612.308 426.114 689.594 428.682 734.732C436.025 748.964 502.554 770.32 534.372 784.326C546.399 789.621 557.306 786.448 557.306 786.448C573.075 790.335 669.824 741.16 669.824 741.16C669.824 741.16 661.629 655.055 636.134 613.595Z" fill="#ADC6FF"/>
<path fill-rule="evenodd" clip-rule="evenodd" d="M454.469 592.946L453.973 614.574C453.973 614.574 468.033 627.843 528.012 635.117C595.123 643.257 638.485 616.053 638.485 616.053L634.23 591.912C634.23 591.912 561.203 617.036 454.469 592.946Z" fill="#ADC6FF"/>
<path fill-rule="evenodd" clip-rule="evenodd" d="M497.982 1061.42C525.651 1060.85 547.935 1038.54 548.489 1010.88L554.068 731.459C554.782 695.71 525.603 666.55 489.857 667.289C454.109 668.026 426.158 698.361 428.345 734.052L445.436 1013C447.13 1040.62 470.317 1061.99 497.982 1061.42Z" fill="#ADC6FF"/>
<path fill-rule="evenodd" clip-rule="evenodd" d="M651.087 1076.83C678.515 1073.16 698.171 1048.51 695.626 1020.95L669.92 742.665C666.629 707.06 634.373 681.347 598.931 686.079C563.493 690.807 539.109 724.081 545.275 759.302L593.457 1034.59C598.227 1061.85 623.658 1080.49 651.087 1076.83Z" fill="#ADC6FF"/>
<path fill-rule="evenodd" clip-rule="evenodd" d="M443.048 556.052C443.048 556.052 398.217 395.844 436.956 287.705C456.82 282.423 475.467 279.538 496.704 275.934C505.252 274.484 535.449 292.484 545.694 292.007C560.832 291.3 589.74 275.406 604.075 277.358C662.012 285.24 688.067 298.929 688.067 298.929L647.856 552.553C647.856 552.553 670.428 591.442 617.149 604.382C567.866 616.351 487.587 614.447 457.012 599.247C439.197 590.392 436.741 572.727 443.048 556.052Z" fill="#566BB1"/>
<path fill-rule="evenodd" clip-rule="evenodd" d="M509.831 261.731L495.771 275.612L510.83 318.669L545.785 290.68L509.831 261.731Z" fill="#566BB1"/>
<path fill-rule="evenodd" clip-rule="evenodd" d="M543.082 290.615L595.743 255.321L612.06 278.085L580.95 318.373L543.082 290.615Z" fill="#566BB1"/>
<path d="M495.696 274.555C496.461 274.288 497.292 274.637 497.649 275.34L497.734 275.54L512.423 317.726L543.814 290.354C544.318 289.915 545.034 289.84 545.611 290.144L545.82 290.276L580.651 316.153L609.714 278.687C610.206 278.052 611.082 277.889 611.762 278.272L611.959 278.403C612.594 278.896 612.757 279.772 612.374 280.451L612.243 280.649L582.218 319.356C581.733 319.981 580.874 320.15 580.196 319.785L579.999 319.659L544.946 293.614L512.743 321.697C511.945 322.392 510.728 322.13 510.266 321.221L510.179 321.017L494.711 276.593C494.42 275.758 494.861 274.846 495.696 274.555Z" fill="#2C4597"/>
<path d="M424.668 356.341C425.546 356.44 426.178 357.232 426.08 358.111C424.326 373.711 423.736 390.816 424.198 409.183C424.976 440.121 428.662 473.264 434.32 506.631C436.568 519.887 438.976 532.264 441.384 543.423L442.206 547.181C442.739 549.589 443.243 551.798 443.711 553.797L444.59 557.467C444.672 557.797 444.648 558.145 444.519 558.46L444.266 559.133C444.21 559.289 444.148 559.466 444.081 559.663C443.741 560.663 443.399 561.8 443.08 563.049C441.603 568.829 441.118 574.791 442.202 580.303C443.729 588.065 448.223 594.063 456.465 597.755C457.271 598.116 457.632 599.063 457.271 599.87C456.91 600.677 455.963 601.038 455.156 600.676C445.933 596.545 440.782 589.671 439.061 580.921C437.872 574.873 438.394 568.459 439.979 562.256C440.251 561.19 440.539 560.199 440.831 559.294L441.158 558.32L441.362 557.752L440.594 554.527L439.607 550.228C439.177 548.323 438.725 546.277 438.255 544.098C435.837 532.895 433.42 520.471 431.164 507.166C425.482 473.66 421.78 440.372 420.998 409.264C420.532 390.758 421.127 373.51 422.898 357.753C422.989 356.948 423.662 356.35 424.45 356.332L424.668 356.341Z" fill="#2C4597"/>
<path d="M545.087 289.975C545.962 290.099 546.571 290.909 546.448 291.784L545.946 295.524L545.387 299.914C545.192 301.476 544.989 303.136 544.779 304.891L544.62 306.226C543.248 317.816 541.875 330.901 540.594 345.206C535.271 404.64 533.128 465.522 535.993 522.332C537.554 553.286 540.585 581.929 545.241 607.79C545.398 608.66 544.819 609.493 543.949 609.649C543.079 609.806 542.247 609.228 542.09 608.357C537.409 582.352 534.363 553.576 532.795 522.493C529.922 465.514 532.071 404.491 537.406 344.92L537.863 339.912C538.937 328.345 540.066 317.629 541.199 307.915L541.911 301.941C542.165 299.86 542.408 297.929 542.636 296.156L543.079 292.794L543.278 291.337C543.391 290.534 544.081 289.955 544.87 289.959L545.087 289.975Z" fill="#2C4597"/>
<path fill-rule="evenodd" clip-rule="evenodd" d="M550.18 332.645C549.796 335.469 551.39 338.02 553.746 338.34C556.103 338.661 558.321 336.631 558.705 333.807C559.092 330.981 557.495 328.432 555.139 328.109C552.786 327.789 550.564 329.819 550.18 332.645Z" fill="white"/>
<path fill-rule="evenodd" clip-rule="evenodd" d="M545.77 388.05C545.386 390.877 546.98 393.425 549.336 393.746C551.692 394.066 553.911 392.039 554.295 389.213C554.682 386.386 553.085 383.838 550.729 383.514C548.376 383.194 546.154 385.227 545.77 388.05Z" fill="white"/>
<path fill-rule="evenodd" clip-rule="evenodd" d="M542.723 441.662C542.339 444.486 543.933 447.037 546.289 447.357C548.646 447.677 550.864 445.651 551.251 442.824C551.635 439.998 550.038 437.449 547.682 437.126C545.329 436.806 543.11 438.839 542.723 441.662Z" fill="white"/>
<path fill-rule="evenodd" clip-rule="evenodd" d="M545.124 558.117C545.444 560.95 547.617 563.031 549.977 562.765C552.339 562.499 553.994 559.983 553.671 557.15C553.354 554.317 551.18 552.239 548.818 552.505C546.459 552.77 544.803 555.283 545.124 558.117Z" fill="white"/>
<path d="M509.901 790.178C510.053 789.636 510.571 789.296 511.112 789.348L511.315 789.386L552.931 801.124C553.541 801.296 553.895 801.929 553.723 802.538C553.571 803.08 553.053 803.42 552.513 803.368L552.309 803.33L510.693 791.592C510.083 791.42 509.729 790.787 509.901 790.178Z" fill="#597EF7"/>
<path d="M482.028 486.724C482.797 486.804 483.373 487.441 483.397 488.193L483.39 488.4L477.647 543.987C477.56 544.826 476.81 545.436 475.971 545.349C475.202 545.27 474.626 544.633 474.602 543.881L474.609 543.673L480.352 488.086C480.432 487.318 481.069 486.741 481.82 486.717L482.028 486.724Z" fill="#597EF7"/>
<path fill-rule="evenodd" clip-rule="evenodd" d="M461.43 503.968C458.939 503.709 457.15 501.282 457.432 498.545C457.713 495.805 459.964 493.795 462.454 494.051C464.945 494.31 466.734 496.74 466.45 499.477C466.168 502.214 463.921 504.228 461.43 503.968Z" fill="white"/>
<path d="M356.986 432.309C357.247 431.542 358.033 431.102 358.807 431.253L359.017 431.309L425.575 453.968C426.412 454.253 426.859 455.162 426.574 455.999C426.313 456.766 425.527 457.206 424.754 457.055L424.543 456.999L357.986 434.34C357.149 434.055 356.701 433.146 356.986 432.309Z" fill="#2C4597"/>
<path fill-rule="evenodd" clip-rule="evenodd" d="M444.503 484.251C444.503 484.251 411.318 441.569 397.912 440.688C384.505 439.808 361.199 442.407 357.396 449.514C348.433 466.27 349.572 482.443 349.572 482.443L394.028 483.928L444.503 484.251Z" fill="#79624D"/>
<path d="M382.138 452.591C383.84 452.579 385.486 452.612 387.071 452.693C387.703 452.725 388.19 453.263 388.157 453.895C388.125 454.528 387.587 455.014 386.955 454.982C385.416 454.904 383.813 454.872 382.154 454.883C376.521 454.924 370.475 455.458 364.412 456.323C362.569 456.586 360.833 456.865 359.236 457.146L357.382 457.485L355.985 457.762C355.365 457.894 354.757 457.499 354.625 456.88C354.493 456.261 354.888 455.652 355.507 455.521L356.952 455.234C357.243 455.178 357.554 455.12 357.883 455.06L359.827 454.718C361.168 454.491 362.593 454.267 364.089 454.054C370.245 453.175 376.39 452.632 382.138 452.591Z" fill="#7A523E"/>
<path d="M371.398 464.011C377.823 463.992 382.828 464.205 385.919 464.715C386.544 464.818 386.966 465.408 386.863 466.032C386.76 466.657 386.171 467.079 385.546 466.976C382.765 466.517 378.194 466.306 372.34 466.302L371.405 466.303C368.303 466.312 365.015 466.375 361.687 466.479L357.936 466.611L353.947 466.788C353.315 466.822 352.775 466.336 352.742 465.704C352.709 465.072 353.194 464.533 353.826 464.499L357.007 464.354C357.831 464.32 358.7 464.287 359.606 464.254C362.963 464.135 366.31 464.053 369.502 464.023L371.398 464.011Z" fill="#7A523E"/>
<path d="M350.859 473.191L386.291 474.346C386.924 474.367 387.42 474.897 387.399 475.529C387.38 476.099 386.95 476.557 386.403 476.628L386.216 476.637L350.784 475.482C350.152 475.461 349.656 474.932 349.676 474.299C349.695 473.73 350.126 473.271 350.673 473.2L350.859 473.191Z" fill="#7A523E"/>
<path fill-rule="evenodd" clip-rule="evenodd" d="M424.846 485.224L408.354 531.492L643.487 579.607C667.388 584.681 690.677 568.755 694.621 544.646C698.569 520.534 681.57 498.016 657.301 495.205L424.846 485.224Z" fill="#79624D"/>
<path fill-rule="evenodd" clip-rule="evenodd" d="M648.448 582.087C671.593 584.085 692.155 567.365 694.921 544.296L718.21 350.033C721.549 322.198 701.167 297.132 673.236 294.721C645.305 292.311 620.93 313.519 619.451 341.515L609.133 536.898C607.907 560.098 625.303 580.09 648.448 582.087Z" fill="#79624D"/>
<path fill-rule="evenodd" clip-rule="evenodd" d="M705.058 457.878L718.204 350.034C721.599 322.198 700.872 297.133 672.473 294.722C644.073 292.311 619.29 313.52 617.787 341.515L611.859 451.969L705.058 457.878Z" fill="#566BB1"/>
<path d="M441.906 535.982L658.583 580.597C659.409 580.767 659.941 581.575 659.771 582.401C659.615 583.158 658.924 583.668 658.173 583.617L657.967 583.588L441.29 538.973C440.464 538.803 439.933 537.996 440.103 537.17C440.259 536.412 440.95 535.902 441.7 535.954L441.906 535.982Z" fill="#7A523E"/>
<path fill-rule="evenodd" clip-rule="evenodd" d="M691.65 511.751C696.845 523.125 683.278 529.678 683.278 529.678C683.278 529.678 685.039 539.221 671.501 539.788C657.963 540.358 599.991 539.932 599.991 539.932L596.107 489.429L618.965 488.632C618.965 488.632 635.554 474.434 644.024 468.979C652.498 463.521 673.658 466.354 684.917 461.501C696.176 456.648 689.726 477.901 663.376 480.167C704.608 482.453 706.772 475.164 707.899 485.939C708.466 491.35 699.429 494.9 699.429 494.9C699.429 494.9 704.768 505.749 691.65 511.751Z" fill="#79624D"/>
<path fill-rule="evenodd" clip-rule="evenodd" d="M615.02 538.224L621.942 489.597L379.544 480.813C355.112 480.614 335.472 500.872 336.42 525.285C337.367 549.698 358.521 568.367 382.864 566.274L615.02 538.224Z" fill="#79624D"/>
<path d="M689.456 458.998C691.551 457.759 693.385 458.404 693.58 460.584C693.714 462.077 693.031 464.24 691.748 466.491C688.613 471.994 683.049 476.491 676.337 477.844C675.717 477.969 675.112 477.567 674.987 476.947C674.862 476.326 675.264 475.722 675.884 475.597C681.898 474.385 686.93 470.317 689.756 465.356C690.747 463.618 691.293 461.996 691.305 461.018L691.287 460.61C691.27 460.526 691.183 460.639 690.623 460.971C687.341 462.913 679.565 464.526 667.988 466.039L665.312 466.379C663.494 466.603 661.603 466.823 659.599 467.046L649.852 468.077C646.974 468.379 643.048 470.394 638.402 473.806C636.217 475.411 633.917 477.292 631.541 479.393C628.683 481.919 625.865 484.629 623.211 487.339L621.636 488.968L619.79 490.944C619.608 491.145 619.362 491.274 619.098 491.311L618.897 491.321L441.668 484.777C441.035 484.754 440.541 484.222 440.563 483.59C440.586 483.021 441.019 482.564 441.566 482.495L441.752 482.487L618.45 489.009L619.976 487.387C620.475 486.865 621.008 486.312 621.573 485.736C624.263 482.989 627.12 480.242 630.023 477.675C632.447 475.531 634.8 473.608 637.046 471.958C641.994 468.323 646.224 466.153 649.613 465.798L656.147 465.116L657.825 464.935C661.422 464.544 664.639 464.166 667.691 463.767L670.573 463.376C679.9 462.064 686.386 460.655 689.188 459.149L689.456 458.998Z" fill="#7A523E"/>
<path d="M381.075 440.928C377.835 441.503 374.415 442.226 370.891 443.065C368.277 443.687 365.721 444.344 363.286 445.009L360.287 445.848L357.665 446.622C357.331 446.725 357.063 446.975 356.936 447.3L355.007 452.314C353.923 455.159 352.839 458.045 351.795 460.874L350.406 464.673L348.89 468.915C346.504 475.693 344.995 480.529 344.63 482.838C344.52 483.531 345.053 484.159 345.754 484.163L386.212 484.422L445.683 485.405C446.62 485.421 447.151 484.385 446.67 483.643L446.493 483.426L442.723 479.321C441.972 478.509 441.184 477.661 440.363 476.78C436.456 472.589 432.48 468.398 428.597 464.399L426.279 462.025C425.328 461.056 424.392 460.109 423.475 459.187L422.014 457.727C412.893 448.64 406.183 442.702 402.626 440.894C398.722 438.91 391.253 439.122 381.075 440.928ZM401.588 442.938C405.018 444.681 412.195 451.107 421.85 460.805L423.701 462.673L424.643 463.631C428.47 467.531 432.424 471.664 436.341 475.837L440.279 480.056L443.059 483.068L384.975 482.122L347.164 481.879L347.214 481.679C347.894 478.929 349.426 474.234 351.601 468.127L352.561 465.454L352.92 464.465C353.929 461.693 354.992 458.831 356.069 455.978L358.285 450.164L358.868 448.65L360.64 448.131C361.101 447.998 361.59 447.859 362.103 447.715C365.038 446.89 368.186 446.065 371.421 445.295C374.905 444.466 378.282 443.751 381.476 443.185C391.147 441.469 398.298 441.266 401.588 442.938Z" fill="#7A523E"/>
<path d="M704.313 480.143C704.848 479.804 705.556 479.963 705.895 480.497C706.099 480.819 706.381 481.362 706.658 482.089C707.727 484.886 707.767 487.895 706.073 490.729C705.04 492.456 703.408 493.989 701.13 495.294L700.869 495.436L701.02 495.96C701.194 496.665 701.276 497.392 701.268 498.136L701.245 498.697C701.03 501.783 699.377 504.976 696.773 508.153C695.815 509.322 694.791 510.409 693.766 511.387L693.051 512.052L692.78 512.289L692.778 512.323C692.738 512.752 692.641 513.252 692.465 513.805L692.317 514.23C691.736 515.78 690.676 517.301 689.038 518.698C687.516 519.997 685.555 521.133 683.113 522.073L682.259 522.384C681.783 525.031 680.635 527.462 679.005 529.67L678.549 530.266C677.695 531.343 676.782 532.292 675.867 533.107L675.354 533.551C675.039 533.813 674.786 534.008 674.609 534.133C674.49 534.216 674.357 534.276 674.217 534.31L674.003 534.341L624.502 536.718L383.013 567.412C382.385 567.491 381.812 567.047 381.732 566.419C381.66 565.854 382.013 565.333 382.542 565.176L382.724 565.138L624.302 534.436L673.543 532.067L673.897 531.781L674.343 531.396C675.163 530.665 675.986 529.81 676.752 528.843C678.541 526.584 679.742 524.078 680.098 521.375C680.156 520.937 680.459 520.572 680.879 520.435C683.768 519.491 685.962 518.31 687.551 516.954C688.891 515.811 689.726 514.613 690.171 513.426C690.401 512.813 690.492 512.312 690.506 511.971L690.507 511.814C690.483 511.458 690.638 511.1 690.924 510.865L691.341 510.506C691.571 510.302 691.856 510.042 692.184 509.729C693.144 508.811 694.106 507.792 695 506.7C697.331 503.857 698.783 501.051 698.958 498.537C699.037 497.413 698.856 496.366 698.394 495.389C698.127 494.823 698.363 494.147 698.924 493.871C701.458 492.624 703.141 491.165 704.106 489.552C705.388 487.408 705.357 485.106 704.517 482.906C704.299 482.335 704.086 481.925 703.959 481.725C703.62 481.19 703.779 480.482 704.313 480.143Z" fill="#7A523E"/>
<path d="M614.565 373.789C615.375 373.819 616.023 374.444 616.102 375.228L616.109 375.446L612.133 488.376C612.102 489.26 611.36 489.951 610.477 489.921C609.667 489.891 609.019 489.266 608.941 488.481L608.934 488.264L612.909 375.333C612.94 374.45 613.682 373.759 614.565 373.789Z" fill="#2C4597"/>
<path d="M578.42 376.99L614.473 377.221C615.357 377.227 616.069 377.948 616.064 378.832C616.058 379.642 615.452 380.308 614.67 380.409L614.453 380.422L579.919 380.2L576.677 436.662L610.054 460.408C610.709 460.874 610.908 461.742 610.554 462.437L610.431 462.64C609.965 463.295 609.097 463.494 608.401 463.139L608.199 463.017L574.102 438.76C573.717 438.487 573.476 438.06 573.435 437.598L573.432 437.364L576.812 378.499C576.857 377.719 577.455 377.097 578.211 377.003L578.42 376.99Z" fill="#2C4597"/>
<path d="M633.369 615.982C633.966 615.773 634.62 616.087 634.829 616.684C635.039 617.282 634.725 617.936 634.127 618.145C570.038 640.619 517.641 640.906 477.552 627.88C471.816 626.016 466.868 624.017 462.718 622.016C461.503 621.43 460.429 620.878 459.496 620.37L458.384 619.746C458.05 619.553 457.808 619.406 457.658 619.311C457.124 618.971 456.966 618.263 457.306 617.729C457.646 617.195 458.354 617.037 458.888 617.377L459.541 617.768L460.073 618.07C461.084 618.636 462.298 619.269 463.714 619.951C467.772 621.909 472.624 623.869 478.261 625.7C517.877 638.572 569.758 638.288 633.369 615.982Z" fill="#597EF7"/>
<path d="M521.076 633.167H522.223L522.246 636.687L522.284 639.724C522.309 641.496 522.342 643.411 522.384 645.461L522.411 646.708C522.646 657.535 523.07 669.687 523.729 682.884C525.612 720.59 529.001 759.11 534.273 796.197C534.362 796.823 533.926 797.403 533.3 797.493C532.673 797.582 532.093 797.146 532.004 796.519C526.721 759.356 523.326 720.769 521.44 682.999L521.203 678.091C520.676 666.756 520.325 656.249 520.119 646.758L520.026 641.956L519.936 634.537L519.933 634.074C519.931 633.663 519.931 633.374 520.813 633.209L521.076 633.167ZM521.076 633.167L519.932 633.232L518.853 613.995C518.818 613.363 519.302 612.822 519.933 612.787C520.502 612.755 520.997 613.143 521.117 613.682L521.142 613.867L521.076 633.167Z" fill="#597EF7"/>
<path d="M544.939 634.036C545.572 634.029 546.091 634.535 546.1 635.168L546.196 641.112C546.281 645.802 546.39 650.951 546.525 656.399L546.71 663.437C546.906 670.436 547.132 677.304 547.39 683.898L547.522 687.171C547.643 690.078 547.769 692.897 547.901 695.62L548.244 702.25C548.885 713.853 549.629 723.059 550.482 729.338L550.577 730.024L550.579 730.332C549.483 738.798 545.525 746.563 539.59 753.525C536.968 756.6 534.132 759.312 531.274 761.638C530.473 762.291 529.715 762.876 529.013 763.391L528.035 764.091C527.759 764.282 527.549 764.422 527.413 764.51C526.88 764.851 526.171 764.695 525.83 764.162C525.489 763.628 525.645 762.92 526.178 762.579L526.938 762.061L527.165 761.9C527.969 761.326 528.864 760.645 529.827 759.861C532.583 757.617 535.32 755 537.845 752.038C543.288 745.655 546.97 738.603 548.169 730.992L548.283 730.184L548.211 729.652C547.349 723.299 546.6 714.042 545.955 702.382L545.611 695.732C545.512 693.685 545.417 691.585 545.324 689.434L545.232 687.266C544.872 678.589 544.571 669.384 544.324 659.988L544.137 652.424C544.061 649.115 543.994 645.94 543.938 642.935L543.808 635.198C543.799 634.565 544.306 634.045 544.939 634.036Z" fill="#597EF7"/>
<path d="M611.578 450.12L703.279 455.441C704.161 455.492 704.835 456.249 704.784 457.131C704.737 457.94 704.097 458.574 703.311 458.635L703.093 458.637L611.393 453.316C610.51 453.265 609.836 452.508 609.888 451.625C609.934 450.816 610.574 450.183 611.36 450.122L611.578 450.12Z" fill="#2C4597"/>
<path d="M634.556 594.229C635.119 593.94 635.81 594.163 636.098 594.726C636.387 595.289 636.165 595.98 635.602 596.269C618.812 604.879 598.652 610.143 575.841 612.496C547.818 615.388 517.83 613.786 488.694 609.356C482.711 608.446 477.202 607.477 472.258 606.503L470.792 606.21C469.552 605.96 468.409 605.721 467.367 605.497L464.48 604.853L464.153 604.776C463.537 604.627 463.159 604.008 463.308 603.393C463.456 602.778 464.075 602.399 464.691 602.548L466.04 602.859L467.851 603.257C468.625 603.423 469.455 603.598 470.341 603.78L471.246 603.964C476.524 605.029 482.495 606.095 489.038 607.09C517.999 611.493 547.802 613.085 575.606 610.216C598.154 607.89 618.045 602.697 634.556 594.229Z" fill="#2C4597"/>
<path fill-rule="evenodd" clip-rule="evenodd" d="M129.558 71.9744C129.558 71.9744 233.128 95.8501 230.05 155.846C228.468 186.71 196.299 218.323 210.266 228.644C264.865 269 209.475 280.87 250.622 303.027C308.616 334.253 281.543 414.071 223.718 426.464C165.893 438.853 111.941 487.099 54.1157 476.774C-3.70938 466.45 17.5872 419.848 -21.6481 397.13C-60.8876 374.416 -111.099 286.708 -57.9953 237.819C-24.9524 206.84 4.46069 211.916 25.1104 158.224C45.7643 104.527 64.4405 71.9991 91.2869 78.1957C102.061 64.6572 129.558 71.9744 129.558 71.9744Z" fill="#A96F5B"/>
<path fill-rule="evenodd" clip-rule="evenodd" d="M182.578 205.645C182.932 204.508 184.547 204.541 184.86 205.691C187.612 215.859 194.023 243.237 183.393 243.88C171.412 244.609 179.319 216.024 182.578 205.645Z" fill="white"/>
<path fill-rule="evenodd" clip-rule="evenodd" d="M148.082 318.788V243.411L89.1322 223.124C89.1322 223.124 88.7078 255.302 76.0098 330.217C97.6978 350.871 148.082 343.656 148.082 318.788Z" fill="#F4B784"/>
<path fill-rule="evenodd" clip-rule="evenodd" d="M122.234 135.276C122.234 135.276 129.951 116.88 142.41 126.373C151.322 133.163 149.077 127.77 151.314 122.813C159.62 104.417 161.799 148.333 191.072 159.016C190.739 182.447 188.106 259.504 137.409 260.617C117.686 261.049 94.3415 248.034 85.2403 219.148C79.7442 201.7 85.537 184.214 92.5617 180.972C115.708 170.293 115.708 158.423 122.234 135.276Z" fill="#FFC999"/>
<path d="M163.279 157.548C162.55 157.305 161.769 157.635 161.423 158.294L161.325 158.525L157.369 170.395L157.29 170.862L157.289 172.204C157.293 172.803 157.302 173.509 157.318 174.319L157.374 176.517C157.42 178.046 157.486 179.699 157.575 181.472C157.876 187.542 158.395 194.232 159.175 201.472L159.531 204.627L157.02 205.479C155.032 206.155 152.965 206.867 150.891 207.588L145.155 209.598C144.351 209.883 143.93 210.766 144.215 211.571C144.501 212.375 145.384 212.796 146.188 212.511L149.837 211.228L156.01 209.089L161.697 207.164C162.392 206.932 162.829 206.244 162.743 205.516C161.688 196.641 161.019 188.533 160.661 181.319L160.546 178.78C160.497 177.557 160.459 176.402 160.431 175.318L160.379 172.19L160.38 171.139L164.256 159.502C164.499 158.774 164.169 157.992 163.51 157.646L163.279 157.548Z" fill="#DD936F"/>
<path d="M166.87 175.265C165.745 175.098 164.697 175.875 164.53 177.001L164.462 177.571C164.454 177.654 164.446 177.743 164.438 177.839C164.269 179.782 164.319 181.893 164.75 183.93C165.647 188.161 168.047 191.112 172.249 191.672C178.081 192.449 181.731 189.355 183.333 184.129C183.75 182.769 184.005 181.338 184.134 179.892C184.203 179.117 184.23 178.418 184.228 177.827L184.216 177.22C184.159 176.084 183.191 175.209 182.055 175.266C181.013 175.318 180.191 176.136 180.106 177.147L180.104 177.515C180.145 179.059 179.968 181.05 179.394 182.922C178.328 186.4 176.365 188.064 172.794 187.588C170.591 187.294 169.352 185.771 168.781 183.076C168.446 181.498 168.406 179.768 168.542 178.195L168.594 177.695C168.598 177.658 168.602 177.628 168.606 177.605C168.773 176.48 167.996 175.432 166.87 175.265Z" fill="#090D33"/>
<path d="M120.156 172.945C119.029 172.79 117.99 173.577 117.834 174.705L117.779 175.211L117.758 175.449C117.604 177.387 117.673 179.513 118.14 181.568C119.088 185.742 121.513 188.648 125.697 189.206C131.488 189.979 135.219 187.009 136.989 181.94C137.746 179.77 138.045 177.613 138.089 175.886L138.094 175.218C138.072 174.08 137.132 173.176 135.994 173.198C134.952 173.218 134.105 174.009 133.988 175.017L133.974 175.297C133.988 176.681 133.765 178.673 133.099 180.582C131.917 183.966 129.859 185.605 126.241 185.122C124.023 184.827 122.761 183.315 122.158 180.656C121.798 179.071 121.741 177.335 121.865 175.776L121.916 175.267C122.071 174.139 121.283 173.1 120.156 172.945Z" fill="#090D33"/>
<path d="M128.879 214.123C127.823 213.7 126.624 214.214 126.202 215.271C125.779 216.327 126.293 217.526 127.35 217.948C136.898 221.766 145.87 222.942 153.06 222.621L154.029 222.568C154.538 222.535 154.9 222.501 155.105 222.477C156.235 222.34 157.039 221.314 156.903 220.184C156.778 219.149 155.905 218.386 154.89 218.371L153.763 218.457C146.986 218.896 138.231 217.862 128.879 214.123Z" fill="#B53026"/>
<path d="M189.125 155.729L186.679 155.921L183.683 156.136C182.65 156.207 181.585 156.276 180.497 156.344L176.788 156.558C174.959 156.655 173.175 156.737 171.456 156.802L168.804 156.888C167.52 156.923 166.299 156.945 165.151 156.954C164.013 156.962 163.098 157.891 163.106 159.029C163.115 160.167 164.044 161.082 165.182 161.074L167.624 161.038C168.467 161.02 169.34 160.996 170.24 160.967L171.61 160.919C174.511 160.81 177.591 160.651 180.752 160.456L183.965 160.246L188.306 159.928C188.811 159.889 189.203 159.857 189.47 159.834C190.603 159.739 191.445 158.743 191.35 157.609C191.263 156.57 190.418 155.776 189.405 155.724L189.125 155.729Z" fill="#090D33"/>
<path d="M115.004 151.475C113.898 151.208 112.785 151.888 112.518 152.994C112.25 154.1 112.93 155.213 114.036 155.48C121.169 157.204 128.374 158.618 135.29 159.746L137.64 160.119C138.4 160.237 139.134 160.347 139.842 160.451L144.133 161.035C144.213 161.045 144.285 161.054 144.348 161.061C145.478 161.193 146.502 160.385 146.634 159.255C146.767 158.125 145.958 157.101 144.828 156.969L142.918 156.723L140.436 156.374C139.043 156.17 137.544 155.939 135.953 155.679C129.133 154.568 122.028 153.173 115.004 151.475Z" fill="#090D33"/>
<path d="M139.577 228.267C138.442 228.191 137.46 229.05 137.384 230.186C137.315 231.226 138.031 232.138 139.025 232.341L139.303 232.378L144.799 232.745C145.934 232.821 146.916 231.962 146.991 230.826C147.061 229.786 146.345 228.874 145.351 228.671L145.073 228.634L139.577 228.267Z" fill="#D1836B"/>
<path fill-rule="evenodd" clip-rule="evenodd" d="M57.2342 191.03C54.07 171.052 72.9811 173.26 72.9811 173.26C72.9811 173.26 72.3136 192.962 76.5449 210.843C57.5556 209.261 57.2342 191.03 57.2342 191.03Z" fill="#E5A98F"/>
<path fill-rule="evenodd" clip-rule="evenodd" d="M67.2155 205.444C67.574 204.306 69.1891 204.339 69.4981 205.493C72.2503 215.657 78.6611 243.035 68.0354 243.678C56.0543 244.407 63.9566 215.826 67.2155 205.444Z" fill="white"/>
<path fill-rule="evenodd" clip-rule="evenodd" d="M233.933 344.565C233.933 344.565 245.864 349.571 264.751 385.889C282.648 420.308 295.89 451.954 295.89 451.954L368.382 304.3L406.032 333.552C406.032 333.552 359.701 521.196 326.177 549.707C300.36 572.235 278.994 550.869 271.87 542.563C256.667 524.822 224.296 469.852 224.296 469.852C224.296 469.852 194.005 352.826 233.933 344.565Z" fill="#FFC999"/>
<path fill-rule="evenodd" clip-rule="evenodd" d="M230.582 558.187L342.133 623.218C351.094 628.438 353.941 640.044 348.424 648.824L263.559 783.83C258.277 792.239 247.26 794.913 238.707 789.862L120.433 720.014C111.216 714.572 108.6 702.426 114.759 693.671L206.344 563.481C211.824 555.69 222.355 553.391 230.582 558.187Z" fill="#FF7A46"/>
<path fill-rule="evenodd" clip-rule="evenodd" d="M205.349 553.268L295.607 599.532L243.385 802.495L187.6 650.572L205.349 553.268Z" fill="#DF9D87"/>
<path fill-rule="evenodd" clip-rule="evenodd" d="M293 443.416C293 443.416 262.023 467.494 241.254 500C184.668 428.213 158.361 327.162 222.139 330.061C254.838 337.066 293 443.416 293 443.416Z" fill="#597EF7"/>
<path fill-rule="evenodd" clip-rule="evenodd" d="M78.352 268.843L150.474 273.305C150.474 273.305 153.98 306.793 164.651 312.301C175.322 317.81 229.356 323.096 234.284 341.579C237.448 353.448 229.908 377.889 229.908 377.889C229.908 377.889 248.321 424.585 246.945 445.235C245.565 465.889 207.685 550.911 207.685 550.911C207.685 550.911 205.637 565.872 196 570C186.363 574.132 124.295 574.214 91.8534 566.299C83.502 528.073 49.355 440.942 49.355 440.942L-24.7196 433.365C-24.7196 433.365 -39.4983 323.38 0.0666847 305.973C26.3238 294.42 61.8305 310.147 70.0912 296.377C74.3431 289.295 78.352 268.843 78.352 268.843Z" fill="#597EF7"/>
<path fill-rule="evenodd" clip-rule="evenodd" d="M80.7617 1440.83L273.053 1451.73C273.053 1451.73 281.957 1058.66 275.76 919.258C269.563 779.86 254.237 650.898 238.75 635.411C223.258 619.923 117.933 719.048 102.446 839.864C86.9583 960.677 80.7617 1440.83 80.7617 1440.83Z" fill="#A3B5D6"/>
<path fill-rule="evenodd" clip-rule="evenodd" d="M209.757 590.039C247.74 624.853 255.254 695.673 255.254 695.673L180.48 765.702L102.145 1527.69L-102 1490.4C-102 1490.4 -14.9637 791.81 2.4435 720.595C25.0709 628.042 78.4092 585.292 78.4092 585.292L209.757 590.039Z" fill="#E4EBF7"/>
<path fill-rule="evenodd" clip-rule="evenodd" d="M275.035 628.415C304.572 620.57 318.085 586.658 302.058 572.518C263.734 538.717 238.469 522.509 232.878 522.097C200.882 536.356 220.436 572.629 245.758 578.171C281.454 585.978 285.714 592.414 277.804 605.862C277.804 605.862 260.396 598.742 259.605 604.675C258.86 610.249 276.222 615.754 278.99 615.358C281.759 614.963 277.013 617.336 270.68 619.709C265.485 621.662 262.374 631.777 275.035 628.415Z" fill="#FFC999"/>
<mask id="mask3" mask-type="alpha" maskUnits="userSpaceOnUse" x="365" y="235" width="123" height="103">
<path d="M365.217 235.324H487.906V337.215H365.217V235.324Z" fill="white"/>
</mask>
<g mask="url(#mask3)">
<path fill-rule="evenodd" clip-rule="evenodd" d="M365.217 313.796C365.217 313.796 371.549 287.687 386.583 272.253C405.037 253.313 406.22 249.638 415.861 238.625C425.493 227.612 427.726 245.745 414.274 269.485C403.261 286.006 458.005 273.942 477.975 256.824C497.359 240.207 495.777 317.751 404.386 336.349C374.112 342.509 365.217 313.796 365.217 313.796Z" fill="#FFC999"/>
</g>
<path d="M50.7802 372.441C51.5649 372.475 52.1916 373.075 52.2823 373.83L52.2921 374.087L49.919 430.268C49.8822 431.14 49.1455 431.817 48.2737 431.78C47.489 431.747 46.8622 431.147 46.7716 430.391L46.7617 430.134L49.1349 373.953C49.1717 373.081 49.9083 372.405 50.7802 372.441Z" fill="#1D39C4"/>
<path fill-rule="evenodd" clip-rule="evenodd" d="M75.2422 586.872L209.758 590.04L206.31 564.702L83.9479 560.763L75.2422 586.872Z" fill="#E4EBF7"/>
<path fill-rule="evenodd" clip-rule="evenodd" d="M249.406 542.32C248.891 552.204 241.594 560.391 231.825 561.989C181.359 570.25 28.9164 590.372 5.98001 573.332C-23.9275 551.112 -24.8669 441.416 -25.226 430.98C-25.2418 430.522 -24.9369 430.114 -24.4919 429.991C10.2567 420.527 44.5232 438.297 48.8904 440.682C49.1953 440.847 49.3725 441.148 49.3931 441.49L54.0735 512.215C54.4072 517.274 58.5973 521.217 63.6691 521.242L230.276 522.07C241.26 522.128 249.974 531.348 249.406 542.32Z" fill="#FFC999"/>
<path d="M177.784 590.109C178.619 589.931 179.439 590.465 179.616 591.299L180.654 596.234C184.979 616.972 187.059 629.5 188.137 641.933L188.218 642.889C189.3 655.998 189.266 669.169 188.176 690.13L187.754 697.601L182.016 787.211L119.535 1438.72C119.453 1439.57 118.699 1440.19 117.849 1440.11C117.085 1440.03 116.504 1439.41 116.455 1438.67L116.459 1438.42L178.935 786.969L184.669 697.426C184.767 695.831 184.843 694.548 184.893 693.63L185.18 688.213C186.145 668.979 186.176 656.475 185.227 644.254L184.974 641.253C183.8 628.32 181.486 615.008 176.593 591.941C176.416 591.106 176.949 590.286 177.784 590.109Z" fill="#A3B5D6"/>
<path d="M78.5957 303.612L147.434 311.922C148.3 312.027 148.918 312.814 148.813 313.68C148.719 314.46 148.072 315.038 147.312 315.07L147.055 315.06L78.217 306.749C77.3507 306.645 76.7331 305.858 76.8377 304.991C76.9318 304.212 77.5788 303.634 78.3388 303.602L78.5957 303.612Z" fill="#1D39C4"/>
<path d="M78.8289 314.98C79.0272 314.22 79.7461 313.734 80.5034 313.805L80.7567 313.85L117.153 323.347C117.998 323.567 118.504 324.43 118.283 325.274C118.085 326.034 117.366 326.52 116.609 326.449L116.355 326.404L79.9588 316.908C79.1145 316.687 78.6086 315.824 78.8289 314.98Z" fill="#1D39C4"/>
<path d="M80.4291 426.341C81.2008 425.505 82.5041 425.453 83.3401 426.225L83.6756 426.518C84.0852 426.863 84.7164 427.356 85.5648 427.957C87.4844 429.317 89.7702 430.683 92.4117 431.961C104.609 437.863 119.518 439.85 136.974 435.6L138.395 435.242C144.584 433.627 159.015 433.641 179.524 434.838C184.597 435.134 189.909 435.497 195.374 435.914L198.671 436.17C203.832 436.579 208.868 437.012 213.634 437.45L220.202 438.071L223.003 438.35C224.134 438.467 224.957 439.479 224.84 440.611C224.724 441.743 223.711 442.566 222.58 442.449L215.609 441.771L208.423 441.119C205.148 440.831 201.774 440.549 198.346 440.277L191.816 439.78C188.589 439.544 185.425 439.328 182.341 439.136L176.595 438.8C158.465 437.811 145.401 437.836 139.829 439.132L139.435 439.229C120.377 444.199 103.993 442.142 90.6172 435.67C87.7639 434.29 85.2828 432.807 83.1826 431.319L82.297 430.674C81.4865 430.068 80.9015 429.581 80.5456 429.252C79.7096 428.481 79.6574 427.177 80.4291 426.341Z" fill="#1D39C4"/>
<path d="M75.6415 586.426L207.389 588.799C208.242 588.814 208.921 589.518 208.906 590.371C208.892 591.139 208.32 591.766 207.584 591.873L207.333 591.888L75.5858 589.515C74.7326 589.5 74.0535 588.796 74.0686 587.942C74.0827 587.175 74.6544 586.548 75.3905 586.441L75.6415 586.426Z" fill="#A3B5D6"/>
<path d="M370.137 298.049C370.531 297.27 371.481 296.958 372.26 297.351C372.961 297.705 373.284 298.51 373.055 299.236L372.958 299.474L280.401 482.742C280.007 483.521 279.057 483.834 278.278 483.44C277.577 483.086 277.254 482.281 277.483 481.556L277.58 481.318L370.137 298.049Z" fill="#DD936F"/>
<path d="M231.204 362.07C231.988 362.122 232.6 362.738 232.672 363.495L232.676 363.752L231.513 381.193L232.117 382.734L233.239 385.655C233.503 386.351 233.776 387.076 234.056 387.83C236.061 393.211 238.066 398.918 239.938 404.703C241.444 409.359 242.802 413.874 243.972 418.18L244.735 421.059C247.292 430.976 248.652 439.2 248.529 445.269C248.446 449.278 247.809 453.681 246.681 458.417C245.274 464.329 243.145 470.6 240.488 477.022C238.738 481.254 236.863 485.3 234.988 489.023L233.859 491.223L233.172 492.519C232.842 493.134 232.604 493.565 232.475 493.794C232.045 494.554 231.081 494.822 230.322 494.392C229.562 493.963 229.294 492.999 229.724 492.239L230.389 491.023L231.06 489.756C231.41 489.088 231.779 488.368 232.166 487.601C234.008 483.945 235.85 479.969 237.568 475.814C240.166 469.535 242.242 463.418 243.607 457.685C244.686 453.153 245.292 448.968 245.369 445.204C245.497 438.932 243.898 429.95 240.923 419.009C239.766 414.755 238.423 410.287 236.931 405.676C235.075 399.938 233.085 394.274 231.095 388.933L229.899 385.764L228.447 382.04C228.388 381.893 228.351 381.738 228.338 381.581L228.336 381.344L229.523 363.542C229.581 362.671 230.333 362.012 231.204 362.07Z" fill="#1D39C4"/>
<path d="M293.449 580.556C294.267 580.25 295.177 580.664 295.484 581.481L295.759 582.28L295.852 582.571C296.12 583.414 296.386 584.357 296.635 585.382C297.527 589.064 297.966 592.802 297.698 596.332C297.603 597.576 297.42 598.77 297.142 599.908C296.234 603.627 293.077 607.343 288.383 611.04C286.491 612.531 284.471 613.917 282.451 615.166C281.98 615.457 281.531 615.727 281.109 615.975L279.864 616.683C279.814 616.71 279.77 616.733 279.734 616.753C278.964 617.164 278.007 616.872 277.596 616.103C277.186 615.333 277.477 614.375 278.247 613.965L278.931 613.583L280.132 612.879C280.346 612.75 280.565 612.617 280.789 612.478C282.714 611.288 284.638 609.968 286.428 608.558C290.61 605.263 293.376 602.007 294.072 599.158C294.308 598.194 294.465 597.169 294.546 596.092C294.786 592.938 294.384 589.513 293.564 586.127C293.391 585.414 293.209 584.744 293.025 584.126L292.84 583.526C292.695 583.067 292.584 582.748 292.525 582.59C292.218 581.773 292.632 580.862 293.449 580.556Z" fill="#DD936F"/>
<path d="M466.928 291.353C472.677 285.194 476.823 283.601 479.55 285.197C479.955 285.434 480.24 285.7 480.422 285.941C480.948 286.637 480.811 287.628 480.115 288.154C479.419 288.681 478.428 288.543 477.901 287.847L477.962 287.927C477.643 287.743 477.08 287.712 476.074 288.098C474.455 288.721 472.364 290.259 469.796 292.921L469.238 293.509C458.52 304.997 442.853 308.928 420.229 306.799L418.863 306.664C408.794 305.623 401.904 308.356 397.462 313.528C396.137 315.07 395.134 316.725 394.412 318.376C393.984 319.352 393.749 320.092 393.662 320.477C393.469 321.327 392.622 321.861 391.771 321.667C390.92 321.474 390.387 320.627 390.581 319.776L390.733 319.203C390.896 318.657 391.151 317.945 391.517 317.109C392.359 315.185 393.524 313.263 395.065 311.469C400.183 305.51 408.09 302.373 419.188 303.521C441.212 305.801 456.181 302.362 466.314 291.997L466.928 291.353Z" fill="#DD936F"/>
<path d="M478.496 273.515C482.438 272.284 485.627 273.162 486.253 276.299C486.424 277.155 485.869 277.987 485.014 278.158C484.243 278.312 483.492 277.878 483.225 277.165L483.155 276.918C482.991 276.101 481.835 275.783 479.438 276.532C476.283 277.517 472.33 280.137 468.414 284.054C465.691 286.776 462.121 289.122 457.909 291.135C454.485 292.77 450.83 294.097 447.176 295.143C446.218 295.418 445.31 295.658 444.465 295.865L442.679 296.276C442.511 296.312 442.374 296.339 442.271 296.359C441.414 296.522 440.586 295.96 440.423 295.103C440.259 294.246 440.822 293.418 441.679 293.255L442.929 292.983C443.946 292.748 445.082 292.456 446.306 292.105C449.802 291.104 453.297 289.836 456.546 288.283C460.46 286.414 463.74 284.258 466.179 281.82C470.431 277.566 474.804 274.668 478.496 273.515Z" fill="#DD936F"/>
<path d="M467.873 270.638C476.719 263.354 482.162 261.65 485.124 263.731C485.624 264.082 485.941 264.475 486.115 264.822C486.505 265.603 486.189 266.552 485.409 266.942C484.628 267.332 483.679 267.016 483.289 266.236L483.331 266.329L483.307 266.316C482.892 266.024 482.028 265.943 480.449 266.438C477.908 267.234 474.414 269.346 469.881 273.077C469.164 273.668 468.435 274.24 467.696 274.793C461.955 279.091 455.807 282.125 449.658 284.115C447.502 284.813 445.497 285.331 443.692 285.696L442.827 285.862C442.17 285.981 441.674 286.053 441.356 286.089C440.489 286.185 439.708 285.56 439.611 284.693C439.515 283.825 440.14 283.044 441.007 282.948L441.395 282.897C441.788 282.839 442.351 282.743 443.066 282.598C444.757 282.256 446.647 281.768 448.685 281.109C454.52 279.221 460.358 276.339 465.802 272.264L466.845 271.464L467.873 270.638Z" fill="#DD936F"/>
</g>
</svg>
