<svg width="16" height="16" viewBox="0 0 16 16" fill="none" xmlns="http://www.w3.org/2000/svg">
<path d="M3.15385 2.19798V7.198C3.15385 7.75028 2.70614 8.198 2.15385 8.198H2C1.44772 8.198 1 7.75028 1 7.198V2.19798C1 1.6457 1.44772 1.19798 2 1.19798H2.15385C2.70614 1.19798 3.15385 1.6457 3.15385 2.19798Z" stroke="white"/>
<path d="M4.59961 7.70032V2.81464C4.59945 2.48023 4.69248 2.1524 4.86826 1.86792C5.04403 1.58343 5.2956 1.35356 5.59474 1.20408L5.63973 1.18158C6.13899 0.932052 6.68945 0.802061 7.24759 0.801884H12.1207C12.5368 0.801719 12.9402 0.945802 13.2621 1.2096C13.5839 1.4734 13.8044 1.8406 13.886 2.24869L14.9657 7.64724C15.0179 7.90828 15.0115 8.17765 14.947 8.43593C14.8825 8.6942 14.7615 8.93495 14.5927 9.14082C14.424 9.34669 14.2116 9.51255 13.971 9.62644C13.7304 9.74034 13.4675 9.79943 13.2013 9.79946H9.99815V13.3985C9.99815 13.8757 9.80856 14.3335 9.47109 14.6709C9.13361 15.0084 8.6759 15.198 8.19864 15.198C7.96001 15.198 7.73115 15.1032 7.56241 14.9345C7.39368 14.7657 7.29888 14.5369 7.29888 14.2982V13.6981C7.29888 12.9194 7.04631 12.1617 6.57908 11.5387L5.31942 9.85974C4.85218 9.23676 4.59961 8.47904 4.59961 7.70032V7.70032Z" stroke="white"/>
</svg>
