<svg width="108" height="92" viewBox="0 0 108 92" fill="none" xmlns="http://www.w3.org/2000/svg">
<path d="M104.834 0H45.1664C43.4177 0 42 1.41765 42 3.16642V62.8336C42 64.5824 43.4177 66 45.1664 66H104.834C106.582 66 108 64.5824 108 62.8336V3.16642C108 1.41765 106.582 0 104.834 0Z" fill="#8EA7F8"/>
<path d="M31.9445 70H12.0555C11.4726 70 11 70.4726 11 71.0555V90.9445C11 91.5274 11.4726 92 12.0555 92H31.9445C32.5274 92 33 91.5274 33 90.9445V71.0555C33 70.4726 32.5274 70 31.9445 70Z" fill="#597EF7"/>
<path d="M10.4723 9H0.527736C0.236275 9 0 9.23628 0 9.52774V19.4723C0 19.7637 0.236275 20 0.527736 20H10.4723C10.7637 20 11 19.7637 11 19.4723V9.52774C11 9.23628 10.7637 9 10.4723 9Z" fill="#597EF7"/>
</svg>
