<svg width="148" height="69" viewBox="0 0 148 69" fill="none" xmlns="http://www.w3.org/2000/svg">
<path d="M144.834 3H85.1664C83.4177 3 82 4.41765 82 6.16642V65.8336C82 67.5824 83.4177 69 85.1664 69H144.834C146.582 69 148 67.5824 148 65.8336V6.16642C148 4.41765 146.582 3 144.834 3Z" fill="#8EA7F8"/>
<path d="M20.9445 0H1.05547C0.472551 0 0 0.472551 0 1.05547V20.9445C0 21.5274 0.472551 22 1.05547 22H20.9445C21.5274 22 22 21.5274 22 20.9445V1.05547C22 0.472551 21.5274 0 20.9445 0Z" fill="#597EF7"/>
<path d="M50.4723 38H40.5277C40.2363 38 40 38.2363 40 38.5277V48.4723C40 48.7637 40.2363 49 40.5277 49H50.4723C50.7637 49 51 48.7637 51 48.4723V38.5277C51 38.2363 50.7637 38 50.4723 38Z" fill="#597EF7"/>
</svg>
