<svg width="86" height="121" viewBox="0 0 86 121" fill="none" xmlns="http://www.w3.org/2000/svg">
<path d="M82.8336 66H23.1664C21.4177 66 20 64.5823 20 62.8336V3.16642C20 1.41765 21.4177 0 23.1664 0H82.8336C84.5824 0 86 1.41765 86 3.16642V62.8336C86 64.5823 84.5824 66 82.8336 66Z" fill="#597EF7"/>
<path d="M73.9445 121H54.0555C53.4726 121 53 120.527 53 119.945V100.055C53 99.4726 53.4726 99 54.0555 99H73.9445C74.5274 99 75 99.4726 75 100.055V119.945C75 120.527 74.5274 121 73.9445 121Z" fill="#597EF7"/>
<path d="M10.4723 56H0.527736C0.236275 56 0 55.7637 0 55.4723V45.5277C0 45.2363 0.236275 45 0.527736 45H10.4723C10.7637 45 11 45.2363 11 45.5277V55.4723C11 55.7637 10.7637 56 10.4723 56Z" fill="#8EA7F8"/>
</svg>
