<svg width="110" height="74" viewBox="0 0 110 74" fill="none" xmlns="http://www.w3.org/2000/svg">
<path d="M85.2474 0H108.753C109.442 0 110 0.558469 110 1.24738V24.7526C110 25.4415 109.442 26 108.753 26H85.2474C84.5585 26 84 25.4415 84 24.7526V1.24738C84 0.558469 84.5585 0 85.2474 0Z" fill="#597EF7"/>
<path d="M0.383808 58H7.61619C7.82816 58 8 58.1718 8 58.3838V65.6162C8 65.8282 7.82816 66 7.61619 66H0.383808C0.171836 66 0 65.8282 0 65.6162V58.3838C0 58.1718 0.171836 58 0.383808 58Z" fill="#597EF7"/>
<path d="M34.063 31H72.937C74.0764 31 75 31.9236 75 33.063V71.937C75 73.0764 74.0764 74 72.937 74H34.063C32.9236 74 32 73.0764 32 71.937V33.063C32 31.9236 32.9236 31 34.063 31Z" fill="#8EA7F8"/>
</svg>
