<svg width="167" height="69" viewBox="0 0 167 69" fill="none" xmlns="http://www.w3.org/2000/svg">
<path d="M113.247 31H136.753C137.442 31 138 31.5585 138 32.2474V55.7526C138 56.4415 137.442 57 136.753 57H113.247C112.558 57 112 56.4415 112 55.7526V32.2474C112 31.5585 112.558 31 113.247 31Z" fill="#597EF7"/>
<path d="M153.672 16H166.328C166.699 16 167 16.3007 167 16.6717V29.3283C167 29.6993 166.699 30 166.328 30H153.672C153.301 30 153 29.6993 153 29.3283V16.6717C153 16.3007 153.301 16 153.672 16Z" fill="#8EA7F8"/>
<path d="M125.384 0H132.616C132.828 0 133 0.171837 133 0.383808V7.61619C133 7.82816 132.828 8 132.616 8H125.384C125.172 8 125 7.82816 125 7.61619V0.383808C125 0.171837 125.172 0 125.384 0Z" fill="#597EF7"/>
<path d="M0.383808 58H7.61619C7.82816 58 8 58.1718 8 58.3838V65.6162C8 65.8282 7.82816 66 7.61619 66H0.383808C0.171836 66 0 65.8282 0 65.6162V58.3838C0 58.1718 0.171836 58 0.383808 58Z" fill="#597EF7"/>
<path d="M54.063 26H92.937C94.0764 26 95 26.9236 95 28.063V66.937C95 68.0764 94.0764 69 92.937 69H54.063C52.9236 69 52 68.0764 52 66.937V28.063C52 26.9236 52.9236 26 54.063 26Z" fill="#8EA7F8"/>
</svg>
