<svg width="20" height="20" viewBox="0 0 20 20" fill="none" xmlns="http://www.w3.org/2000/svg">
<path d="M9.95276 0C4.46476 0 -0.000244141 4.486 -0.000244141 10C-0.000244141 15.514 4.48576 20 9.99976 20C15.5138 20 19.9998 15.514 19.9998 10C19.9998 4.486 15.4928 0 9.95276 0ZM9.99976 18C5.58876 18 1.99976 14.411 1.99976 10C1.99976 5.589 5.56676 2 9.95276 2C14.3908 2 17.9998 5.589 17.9998 10C17.9998 14.411 14.4108 18 9.99976 18Z" fill="#EB5757"/>
<path d="M8.99976 6C8.99976 5.44772 9.44747 5 9.99976 5C10.552 5 10.9998 5.44772 10.9998 6V11C10.9998 11.5523 10.552 12 9.99976 12C9.44747 12 8.99976 11.5523 8.99976 11V6ZM8.99976 14C8.99976 13.4477 9.44747 13 9.99976 13C10.552 13 10.9998 13.4477 10.9998 14C10.9998 14.5523 10.552 15 9.99976 15C9.44747 15 8.99976 14.5523 8.99976 14Z" fill="#EB5757"/>
</svg>
