<svg width="16" height="16" viewBox="0 0 16 16" fill="none" xmlns="http://www.w3.org/2000/svg">
<path d="M3.15385 13.802V8.802C3.15385 8.24972 2.70614 7.802 2.15385 7.802H2C1.44772 7.802 1 8.24972 1 8.802V13.802C1 14.3543 1.44772 14.802 2 14.802H2.15385C2.70614 14.802 3.15385 14.3543 3.15385 13.802Z" stroke="white"/>
<path d="M4.59961 8.29968V13.1854C4.59945 13.5198 4.69248 13.8476 4.86826 14.1321C5.04403 14.4166 5.2956 14.6464 5.59474 14.7959L5.63973 14.8184C6.13899 15.0679 6.68945 15.1979 7.24759 15.1981H12.1207C12.5368 15.1983 12.9402 15.0542 13.2621 14.7904C13.5839 14.5266 13.8044 14.1594 13.886 13.7513L14.9657 8.35276C15.0179 8.09172 15.0115 7.82235 14.947 7.56407C14.8825 7.3058 14.7615 7.06505 14.5927 6.85918C14.424 6.65331 14.2116 6.48745 13.971 6.37356C13.7304 6.25966 13.4675 6.20057 13.2013 6.20054H9.99815V2.60152C9.99815 2.12426 9.80856 1.66654 9.47109 1.32907C9.13361 0.991593 8.6759 0.802002 8.19864 0.802002C7.96001 0.802002 7.73115 0.896797 7.56241 1.06553C7.39368 1.23427 7.29888 1.46313 7.29888 1.70176V2.3019C7.29888 3.08062 7.04631 3.83834 6.57908 4.46131L5.31942 6.14026C4.85218 6.76324 4.59961 7.52096 4.59961 8.29968V8.29968Z" stroke="white"/>
</svg>
