<svg width="169" height="47" viewBox="0 0 169 47" fill="none" xmlns="http://www.w3.org/2000/svg">
<path d="M4.49239 47C3.71404 46.7739 3.10209 46.458 2.65651 46.0522C2.21658 45.6522 1.90356 45.1855 1.71743 44.6522C1.5313 44.1246 1.43824 43.5565 1.43824 42.9478V41.1913C1.43824 40.6638 1.32544 40.2435 1.09983 39.9304C0.874223 39.6174 0.507614 39.4609 0 39.4609V37.5391C0.507614 37.5391 0.874223 37.3826 1.09983 37.0696C1.32544 36.7507 1.43824 36.3275 1.43824 35.8V34.0435C1.43824 33.4348 1.5313 32.8667 1.71743 32.3391C1.90356 31.8058 2.21658 31.3391 2.65651 30.9391C3.10209 30.5333 3.71404 30.2203 4.49239 30L5 31.4957C4.52059 31.6754 4.1991 31.9971 4.03554 32.4609C3.87197 32.9188 3.79019 33.4464 3.79019 34.0435V35.8C3.79019 36.3739 3.6661 36.8986 3.41794 37.3739C3.17541 37.8435 2.78906 38.2174 2.25888 38.4957C2.78906 38.7739 3.17541 39.1507 3.41794 39.6261C3.6661 40.0957 3.79019 40.6174 3.79019 41.1913V42.9478C3.79019 43.5449 3.87197 44.0725 4.03554 44.5304C4.1991 44.9942 4.52059 45.3159 5 45.4957L4.49239 47Z" fill="#8EA7F8"/>
<path d="M115.508 47C116.286 46.7739 116.898 46.458 117.343 46.0522C117.783 45.6522 118.096 45.1855 118.283 44.6522C118.469 44.1246 118.562 43.5565 118.562 42.9478V41.1913C118.562 40.6638 118.675 40.2435 118.9 39.9304C119.126 39.6174 119.492 39.4609 120 39.4609V37.5391C119.492 37.5391 119.126 37.3826 118.9 37.0696C118.675 36.7507 118.562 36.3275 118.562 35.8V34.0435C118.562 33.4348 118.469 32.8667 118.283 32.3391C118.096 31.8058 117.783 31.3391 117.343 30.9391C116.898 30.5333 116.286 30.2203 115.508 30L115 31.4957C115.479 31.6754 115.801 31.9971 115.964 32.4609C116.128 32.9188 116.21 33.4464 116.21 34.0435V35.8C116.21 36.3739 116.334 36.8986 116.582 37.3739C116.825 37.8435 117.211 38.2174 117.741 38.4957C117.211 38.7739 116.825 39.1507 116.582 39.6261C116.334 40.0957 116.21 40.6174 116.21 41.1913V42.9478C116.21 43.5449 116.128 44.0725 115.964 44.5304C115.801 44.9942 115.479 45.3159 115 45.4957L115.508 47Z" fill="#8EA7F8"/>
<path d="M15.6959 37.7179L18.2403 32.1738H21.3918L17.169 40.264V44.8262H14.2317V40.264L10 32.1738H13.1604L15.6959 37.7179Z" fill="#8EA7F8"/>
<path d="M34.5036 38.752C34.5036 40.0439 34.2656 41.1591 33.7894 42.0976C33.3192 43.0303 32.6616 43.7487 31.8164 44.2527C30.9772 44.7509 30.01 45 28.9149 45C27.8138 45 26.8407 44.7509 25.9955 44.2527C25.1504 43.7487 24.4867 43.0303 24.0046 42.0976C23.5285 41.1591 23.2904 40.0439 23.2904 38.752V38.2567C23.2904 36.9648 23.5285 35.8525 24.0046 34.9198C24.4808 33.9813 25.1385 33.26 25.9777 32.756C26.8228 32.252 27.7959 32 28.897 32C29.9922 32 30.9623 32.252 31.8075 32.756C32.6526 33.26 33.3133 33.9813 33.7894 34.9198C34.2656 35.8525 34.5036 36.9648 34.5036 38.2567V38.752ZM31.5664 38.2393C31.5664 36.9532 31.3313 35.9799 30.8611 35.3195C30.3969 34.6533 29.7422 34.3202 28.897 34.3202C28.034 34.3202 27.3734 34.6533 26.9151 35.3195C26.4627 35.9799 26.2366 36.9532 26.2366 38.2393V38.752C26.2366 40.0207 26.4657 40.994 26.924 41.6718C27.3882 42.3496 28.0519 42.6885 28.9149 42.6885C29.766 42.6885 30.4207 42.3496 30.879 41.6718C31.3373 40.994 31.5664 40.0207 31.5664 38.752V38.2393Z" fill="#8EA7F8"/>
<path d="M47.8298 32.1738V40.4726C47.8298 41.4516 47.6155 42.2801 47.187 42.9579C46.7584 43.6299 46.1632 44.1397 45.4014 44.4873C44.6455 44.8291 43.7766 45 42.7945 45C41.8006 45 40.9227 44.8291 40.1608 44.4873C39.405 44.1397 38.8098 43.6299 38.3753 42.9579C37.9468 42.2801 37.7325 41.4516 37.7325 40.4726V32.1738H40.6429V40.4726C40.6429 41.2663 40.8304 41.8398 41.2054 42.1932C41.5804 42.5466 42.1101 42.7233 42.7945 42.7233C43.479 42.7233 44.0027 42.5466 44.3658 42.1932C44.7348 41.8398 44.9193 41.2663 44.9193 40.4726V32.1738H47.8298Z" fill="#8EA7F8"/>
<path d="M56.3796 32.1738C57.8854 32.1738 59.0728 32.5011 59.9417 33.1557C60.8107 33.8046 61.2452 34.7547 61.2452 36.006C61.2452 36.9503 61.0368 37.7005 60.6202 38.2567C60.2095 38.8128 59.656 39.2473 58.9597 39.5602L61.7094 44.6959V44.8262H58.6026L56.2456 40.2988H54.3351V44.8262H51.4336V32.1738H56.3796ZM56.3796 34.4592H54.3351V38.0134H56.3706C57.0253 38.0134 57.5163 37.857 57.8437 37.5441C58.171 37.2255 58.3347 36.7939 58.3347 36.2493C58.3347 35.6932 58.174 35.2558 57.8526 34.9372C57.5312 34.6185 57.0402 34.4592 56.3796 34.4592Z" fill="#8EA7F8"/>
<path d="M75.2806 41.4806C75.2806 41.2025 75.2183 40.9621 75.0938 40.7594C74.9752 40.5566 74.7439 40.3654 74.3999 40.1858C74.056 40.0004 73.5489 39.8006 72.8788 39.5862C72.1019 39.3429 71.3814 39.0504 70.7172 38.7086C70.053 38.3668 69.5192 37.9439 69.116 37.4398C68.7127 36.93 68.5111 36.3015 68.5111 35.5541C68.5111 34.8358 68.7186 34.2101 69.1338 33.6771C69.5548 33.1442 70.1301 32.7328 70.8595 32.4432C71.5949 32.1477 72.434 32 73.3769 32C74.3377 32 75.1768 32.1651 75.8944 32.4953C76.6179 32.8255 77.1783 33.2861 77.5756 33.877C77.9789 34.4621 78.1805 35.1428 78.1805 35.9191H75.2895C75.2895 35.4267 75.1294 35.0241 74.8091 34.7112C74.4889 34.3984 73.9937 34.242 73.3236 34.242C72.6772 34.242 72.1938 34.3723 71.8736 34.633C71.5593 34.8937 71.4021 35.2094 71.4021 35.5802C71.4021 35.9684 71.6156 36.2928 72.0426 36.5535C72.4755 36.8142 73.0804 37.0633 73.8573 37.3008C75.2687 37.7237 76.3392 38.2596 77.0686 38.9084C77.804 39.5573 78.1717 40.4089 78.1717 41.4632C78.1717 42.5871 77.7417 43.459 76.8818 44.0789C76.0219 44.693 74.8714 45 73.4303 45C72.778 45 72.1375 44.9189 71.5089 44.7567C70.8802 44.5887 70.3109 44.3338 69.8009 43.992C69.2909 43.6444 68.8817 43.2041 68.5733 42.6711C68.2709 42.1381 68.1197 41.5038 68.1197 40.768H71.0196C71.0196 41.5096 71.2331 42.031 71.6601 42.3322C72.093 42.6277 72.6831 42.7754 73.4303 42.7754C74.0767 42.7754 74.5452 42.6508 74.8358 42.4017C75.1323 42.1468 75.2806 41.8398 75.2806 41.4806Z" fill="#8EA7F8"/>
<path d="M84.4668 44.8262H81.5846V32.1738H84.4668V44.8262Z" fill="#8EA7F8"/>
<path d="M94.3379 44.8262H91.4557V34.4592H87.595V32.1738H98.2519V34.4592H94.3379V44.8262Z" fill="#8EA7F8"/>
<path d="M110 44.8262H101.211V32.1738H110V34.4592H104.111V37.2226H109.11V39.4298H104.111V42.5495H110V44.8262Z" fill="#8EA7F8"/>
<path d="M0 26.639V0.360963H8.02337C10.3291 0.360963 12.3657 0.890374 14.1331 1.9492C15.9004 3.00802 17.2816 4.48797 18.2764 6.38904C19.283 8.27808 19.7863 10.4679 19.7863 12.9586V14.0414C19.7863 16.5441 19.2889 18.74 18.294 20.629C17.2991 22.518 15.918 23.992 14.1506 25.0508C12.3833 26.1096 10.335 26.639 8.00582 26.639H0ZM8.02337 5.10762H5.72346V21.9104H8.00582C9.96045 21.9104 11.4469 21.2426 12.4652 19.9071C13.4952 18.5715 14.0102 16.6163 14.0102 14.0414V12.9225C14.0102 10.3596 13.501 8.41644 12.4828 7.09291C11.4645 5.76939 9.97801 5.10762 8.02337 5.10762Z" fill="white"/>
<path d="M43.6926 26.639H26.3466V0.360963H43.6926V5.10762H32.0701V10.8469H41.9369V15.4312H32.0701V21.9104H43.6926V26.639Z" fill="white"/>
<path d="M65.3165 0.360963H71.672L62.8761 26.639H56.8366L48.0934 0.360963H54.4314L59.8564 19.6364L65.3165 0.360963Z" fill="white"/>
<path d="M94.1737 26.639H76.8278V0.360963H94.1737V5.10762H82.5512V10.8469H92.418V15.4312H82.5512V21.9104H94.1737V26.639Z" fill="white"/>
<path d="M116.693 26.639H100.014V0.360963H105.72V21.9104H116.693V26.639Z" fill="white"/>
<path d="M142.583 14.0234C142.583 16.7066 142.115 19.0227 141.179 20.9719C140.254 22.9091 138.961 24.4011 137.299 25.4479C135.648 26.4826 133.746 27 131.593 27C129.427 27 127.514 26.4826 125.852 25.4479C124.19 24.4011 122.885 22.9091 121.937 20.9719C121 19.0227 120.532 16.7066 120.532 14.0234V12.9947C120.532 10.3115 121 8.00134 121.937 6.06417C122.873 4.11497 124.166 2.61698 125.817 1.57019C127.479 0.523396 129.392 0 131.558 0C133.711 0 135.619 0.523396 137.281 1.57019C138.943 2.61698 140.242 4.11497 141.179 6.06417C142.115 8.00134 142.583 10.3115 142.583 12.9947V14.0234ZM136.807 12.9586C136.807 10.2874 136.345 8.26604 135.42 6.89439C134.507 5.5107 133.22 4.81885 131.558 4.81885C129.86 4.81885 128.561 5.5107 127.66 6.89439C126.77 8.26604 126.326 10.2874 126.326 12.9586V14.0234C126.326 16.6584 126.776 18.6798 127.678 20.0876C128.591 21.4953 129.896 22.1992 131.593 22.1992C133.266 22.1992 134.554 21.4953 135.455 20.0876C136.356 18.6798 136.807 16.6584 136.807 14.0234V12.9586Z" fill="white"/>
<path d="M159.256 17.5969H154.849V26.639H149.126V0.360963H159.256C161.281 0.360963 163.019 0.745989 164.47 1.51604C165.933 2.27406 167.051 3.32086 167.824 4.65642C168.608 5.97995 169 7.48997 169 9.1865C169 11.7373 168.134 13.7767 166.402 15.3048C164.681 16.8329 162.299 17.5969 159.256 17.5969ZM159.256 5.10762H154.849V12.8683H159.256C160.649 12.8683 161.655 12.5254 162.276 11.8396C162.908 11.1537 163.224 10.2814 163.224 9.22259C163.224 8.13971 162.908 7.18316 162.276 6.35294C161.655 5.52273 160.649 5.10762 159.256 5.10762Z" fill="white"/>
<path d="M136.669 44.8262H133.78L128.89 36.8316V44.8262H126V32.1738H128.89L133.789 40.1771V32.1738H136.669V44.8262Z" fill="white"/>
<path d="M151.15 38.752C151.15 40.0439 150.913 41.1591 150.438 42.0976C149.97 43.0303 149.315 43.7487 148.474 44.2527C147.638 44.7509 146.675 45 145.584 45C144.487 45 143.518 44.7509 142.677 44.2527C141.835 43.7487 141.174 43.0303 140.694 42.0976C140.22 41.1591 139.983 40.0439 139.983 38.752V38.2567C139.983 36.9648 140.22 35.8525 140.694 34.9198C141.168 33.9813 141.823 33.26 142.659 32.756C143.501 32.252 144.47 32 145.566 32C146.657 32 147.623 32.252 148.465 32.756C149.306 33.26 149.964 33.9813 150.438 34.9198C150.913 35.8525 151.15 36.9648 151.15 38.2567V38.752ZM148.225 38.2393C148.225 36.9532 147.99 35.9799 147.522 35.3195C147.06 34.6533 146.408 34.3202 145.566 34.3202C144.707 34.3202 144.049 34.6533 143.592 35.3195C143.142 35.9799 142.917 36.9532 142.917 38.2393V38.752C142.917 40.0207 143.145 40.994 143.601 41.6718C144.064 42.3496 144.725 42.6885 145.584 42.6885C146.432 42.6885 147.084 42.3496 147.54 41.6718C147.996 40.994 148.225 40.0207 148.225 38.752V38.2393Z" fill="white"/>
<path d="M160.109 32.1738H162.554L164.528 40.7767L166.137 32.1738H169L166.199 44.8262H163.256L161.327 36.8316L159.407 44.8262H156.464L153.654 32.1738H156.526L158.144 40.7767L160.109 32.1738Z" fill="white"/>
</svg>
