<svg width="42" height="48" viewBox="0 0 42 48" fill="none" xmlns="http://www.w3.org/2000/svg">
<path d="M19.0557 13.9624H30.0707L40.0001 25.731V42.6424C40.0001 43.3817 39.7141 44.0797 39.2221 44.5858C38.7319 45.0899 38.0794 45.3624 37.4112 45.3624H19.0557C18.3875 45.3624 17.735 45.0899 17.2448 44.5858C16.7528 44.0797 16.4668 43.3817 16.4668 42.6424V16.6824C16.4668 15.9431 16.7528 15.2451 17.2448 14.739C17.735 14.2349 18.3875 13.9624 19.0557 13.9624Z" stroke="#597EF7" stroke-width="4"/>
<path d="M29 10.75V6.66667C29 5.42899 28.5259 4.242 27.682 3.36683C26.8381 2.49167 25.6935 2 24.5 2H6.5C5.30653 2 4.16193 2.49167 3.31802 3.36683C2.47411 4.242 2 5.42899 2 6.66667V32.3333C2 33.571 2.47411 34.758 3.31802 35.6332C4.16193 36.5083 5.30653 37 6.5 37H12.125" stroke="#597EF7" stroke-width="4"/>
<path d="M29 15V27H41" stroke="#597EF7" stroke-width="4"/>
</svg>
