<svg width="53" height="49" viewBox="0 0 53 49" fill="none" xmlns="http://www.w3.org/2000/svg">
<path d="M35.7905 37.1959C35.7905 37.6444 35.6124 38.0746 35.2956 38.3917C34.9788 38.7089 34.549 38.8871 34.1009 38.8871H10.4477C10.076 38.8871 9.72117 39.2253 9.41706 39.4452L3.68959 43.9607V16.9013C3.68959 16.4527 3.86759 16.0226 4.18443 15.7054C4.50128 15.3882 4.93102 15.2101 5.3791 15.2101H11.9006V11.8276H5.3791C4.03484 11.8276 2.74563 12.3622 1.79509 13.3137C0.844554 14.2652 0.310547 15.5557 0.310547 16.9013V47.3432C0.313061 47.6572 0.402908 47.9644 0.570017 48.2303C0.737126 48.4961 0.974895 48.7101 1.25668 48.8483C1.52815 48.9719 1.82746 49.0214 2.1242 48.9917C2.42095 48.962 2.70455 48.8542 2.9462 48.6792L11.6472 42.2695H34.3544C34.9947 42.2885 35.6321 42.1756 36.2271 41.9379C36.8221 41.7003 37.362 41.3429 37.8134 40.8878C38.2648 40.4328 38.6181 39.8899 38.8514 39.2926C39.0846 38.6954 39.1929 38.0566 39.1695 37.4157V35.5046H35.7905V37.1959Z" fill="#597EF7"/>
<path d="M47.7688 0H18.9192C17.569 0 16.274 0.585103 15.3193 1.62659C14.3645 2.66808 13.8281 4.08064 13.8281 5.55353V27.7677C13.8281 29.2406 14.3645 30.6531 15.3193 31.6946C16.274 32.7361 17.569 33.3212 18.9192 33.3212H41.914L50.0259 40.1891C50.267 40.3835 50.5511 40.5049 50.8492 40.5406C51.1473 40.5764 51.4487 40.5253 51.7229 40.3927C52.0117 40.2427 52.2557 40.0066 52.4268 39.7119C52.598 39.4171 52.6893 39.0756 52.6902 38.7266V5.55353C52.6909 4.11216 52.1779 2.72695 51.2595 1.69062C50.3412 0.654291 49.0894 0.0480454 47.7688 0ZM49.4658 35.0613L43.5262 30.0076C43.23 29.7568 42.866 29.6201 42.491 29.6188H18.9192C18.4691 29.6188 18.0375 29.4238 17.7192 29.0766C17.401 28.7295 17.2222 28.2586 17.2222 27.7677V5.55353C17.2222 5.06257 17.401 4.59172 17.7192 4.24455C18.0375 3.89739 18.4691 3.70236 18.9192 3.70236H47.7688C48.2224 3.74727 48.6453 3.97155 48.9579 4.33297C49.2705 4.69439 49.4511 5.168 49.4658 5.6646V35.0613Z" fill="#597EF7"/>
</svg>
