<svg width="48" height="54" viewBox="0 0 48 54" fill="none" xmlns="http://www.w3.org/2000/svg">
<path fill-rule="evenodd" clip-rule="evenodd" d="M15.2544 5.60726C12.0276 6.47473 8.82178 7.41824 5.63954 8.43703C5.35155 8.52593 5.09449 8.69427 4.89789 8.9227C4.70128 9.15114 4.57311 9.43041 4.5281 9.72842C2.64747 23.4786 6.98738 33.5133 12.1635 40.122C14.7604 43.4386 17.5725 45.8944 19.9154 47.5069C21.0904 48.3114 22.1242 48.8971 22.9392 49.2711C23.3485 49.4581 23.6802 49.5851 23.9342 49.6592C24.0463 49.6952 24.1606 49.7235 24.2765 49.7439C24.3012 49.7404 24.4106 49.7262 24.6187 49.6627C24.8728 49.5851 25.2045 49.4581 25.6137 49.2711C26.4253 48.8971 27.4662 48.3114 28.6376 47.5069C31.5754 45.4456 34.1883 42.9564 36.3895 40.122C41.5656 33.5133 45.9055 23.4786 44.0249 9.72842C43.9799 9.43041 43.8517 9.15114 43.6551 8.9227C43.4585 8.69427 43.2014 8.52593 42.9134 8.43703C40.7047 7.73135 36.9787 6.5811 33.2986 5.60726C29.5373 4.61579 26.076 3.87482 24.2765 3.87482C22.477 3.87482 19.0192 4.61579 15.2544 5.60726ZM14.3511 2.19884C18.0312 1.225 21.9372 0.346436 24.2765 0.346436C26.6123 0.346436 30.5217 1.225 34.2018 2.19884C37.4843 3.08014 40.7454 4.03896 43.9825 5.07448C45.8455 5.66725 47.2498 7.27266 47.5215 9.25209C49.5433 24.0607 44.8541 35.034 39.1698 42.2955C36.7475 45.4118 33.8717 48.1473 30.6382 50.4107C29.5138 51.1983 28.3253 51.8899 27.0851 52.4784C26.1324 52.9159 25.1162 53.2723 24.2765 53.2723C23.4367 53.2723 22.4206 52.9159 21.4679 52.4784C20.2274 51.8905 19.0388 51.1988 17.9148 50.4107C14.6826 48.1469 11.808 45.4115 9.38669 42.2955C3.6954 35.034 -0.990304 24.0607 1.03146 9.25209C1.16664 8.29262 1.57077 7.39104 2.19707 6.65172C2.82337 5.91239 3.64624 5.36555 4.57044 5.07448C7.80755 4.03898 11.0687 3.08017 14.3511 2.19884Z" fill="#597EF7"/>
<path fill-rule="evenodd" clip-rule="evenodd" d="M34.3454 20.2678C34.5097 20.4317 34.64 20.6264 34.729 20.8407C34.8179 21.055 34.8637 21.2848 34.8637 21.5169C34.8637 21.7489 34.8179 21.9787 34.729 22.193C34.64 22.4073 34.5097 22.602 34.3454 22.7659L23.7602 33.3511C23.5963 33.5154 23.4016 33.6457 23.1873 33.7347C22.973 33.8236 22.7432 33.8694 22.5112 33.8694C22.2791 33.8694 22.0493 33.8236 21.835 33.7347C21.6207 33.6457 21.426 33.5154 21.2621 33.3511L15.9695 28.0585C15.8055 27.8945 15.6754 27.6997 15.5866 27.4854C15.4978 27.2711 15.4521 27.0414 15.4521 26.8094C15.4521 26.5775 15.4978 26.3478 15.5866 26.1335C15.6754 25.9191 15.8055 25.7244 15.9695 25.5604C16.1335 25.3964 16.3283 25.2663 16.5426 25.1775C16.7569 25.0887 16.9866 25.043 17.2186 25.043C17.4505 25.043 17.6802 25.0887 17.8946 25.1775C18.1089 25.2663 18.3036 25.3964 18.4676 25.5604L22.5112 29.6075L31.8473 20.2678C32.0112 20.1035 32.2058 19.9732 32.4202 19.8842C32.6345 19.7953 32.8643 19.7495 33.0963 19.7495C33.3284 19.7495 33.5581 19.7953 33.7725 19.8842C33.9868 19.9732 34.1815 20.1035 34.3454 20.2678Z" fill="#597EF7"/>
</svg>
