<svg width="703" height="530" viewBox="0 0 703 530" fill="none" xmlns="http://www.w3.org/2000/svg">
<path d="M70 8C70 3.58172 73.5817 0 78 0H703V29.2154H70V8Z" fill="#F4F4F4"/>
<path d="M70 29.2154H703V467.446H70V29.2154Z" fill="#F97B99"/>
<mask id="mask0" mask-type="alpha" maskUnits="userSpaceOnUse" x="70" y="29" width="633" height="439">
<path d="M70 29.2154H703V467.446H70V29.2154Z" fill="#758CD8"/>
</mask>
<g mask="url(#mask0)">
<g opacity="0.2">
<path d="M425.751 189.24C389.99 189.24 361 159.861 361 123.62C361 87.3791 389.99 58 425.751 58C461.512 58 490.502 87.3791 490.502 123.62C490.502 159.861 461.512 189.24 425.751 189.24Z" fill="#4E5C93"/>
<path d="M425.751 184.553C392.544 184.553 365.625 157.273 365.625 123.62C365.625 89.9679 392.544 62.6873 425.751 62.6873C458.958 62.6873 485.877 89.9679 485.877 123.62C485.877 157.273 458.958 184.553 425.751 184.553Z" fill="#A3B5D6"/>
<path d="M425.751 182.356C393.742 182.356 367.793 156.059 367.793 123.62C367.793 91.1811 393.742 64.8842 425.751 64.8842C457.76 64.8842 483.709 91.1811 483.709 123.62C483.709 156.059 457.76 182.356 425.751 182.356Z" fill="#F4F6FB"/>
<path d="M425.75 86.2575C424.473 86.2575 423.437 87.3068 423.437 88.6011V121.902H428.062V88.6011C428.062 87.3068 427.027 86.2575 425.75 86.2575Z" fill="#253368"/>
<path d="M402.203 123.62C402.203 124.914 403.238 125.964 404.516 125.964H425.751V121.276H404.516C403.238 121.276 402.203 122.326 402.203 123.62Z" fill="#253368"/>
<path d="M425.75 129.04C422.796 129.04 420.402 126.613 420.402 123.62C420.402 120.627 422.796 118.201 425.75 118.201C428.703 118.201 431.098 120.627 431.098 123.62C431.098 126.613 428.703 129.04 425.75 129.04Z" fill="#A3B5D6"/>
<path d="M423.445 74.405C423.445 73.1107 424.481 72.0614 425.758 72.0614C427.035 72.0614 428.07 73.1107 428.07 74.405V79.0921C428.07 80.3865 427.035 81.4357 425.758 81.4357C424.481 81.4357 423.445 80.3865 423.445 79.0921V74.405Z" fill="#CED7EC"/>
<path d="M461.73 87.1653C460.827 86.2501 459.363 86.2501 458.46 87.1653L455.189 90.4796C454.286 91.3948 454.286 92.8787 455.189 93.7939C456.092 94.7092 457.557 94.7092 458.46 93.7939L461.73 90.4796C462.633 89.5644 462.633 88.0805 461.73 87.1653Z" fill="#CED7EC"/>
<path d="M476.627 123.626C476.627 122.331 475.592 121.282 474.314 121.282H469.689C468.412 121.282 467.377 122.331 467.377 123.626C467.377 124.92 468.412 125.969 469.689 125.969H474.314C475.592 125.969 476.627 124.92 476.627 123.626Z" fill="#CED7EC"/>
<path d="M461.721 160.082C462.624 159.167 462.624 157.683 461.721 156.768L458.451 153.454C457.548 152.538 456.083 152.538 455.18 153.454C454.277 154.369 454.277 155.853 455.18 156.768L458.451 160.082C459.354 160.998 460.818 160.998 461.721 160.082Z" fill="#CED7EC"/>
<path d="M428.059 172.835C428.059 174.13 427.023 175.179 425.746 175.179C424.469 175.179 423.434 174.13 423.434 172.835V168.148C423.434 166.854 424.469 165.805 425.746 165.805C427.023 165.805 428.059 166.854 428.059 168.148V172.835Z" fill="#CED7EC"/>
<path d="M389.772 160.073C390.675 160.988 392.139 160.988 393.042 160.073L396.313 156.759C397.216 155.844 397.216 154.36 396.313 153.445C395.41 152.529 393.945 152.529 393.042 153.445L389.772 156.759C388.869 157.674 388.869 159.158 389.772 160.073Z" fill="#CED7EC"/>
<path d="M374.875 123.614C374.875 124.908 375.91 125.958 377.188 125.958H381.813C383.09 125.958 384.125 124.908 384.125 123.614C384.125 122.32 383.09 121.27 381.813 121.27H377.188C375.91 121.27 374.875 122.32 374.875 123.614Z" fill="#CED7EC"/>
<path d="M389.781 87.1592C388.878 88.0744 388.878 89.5583 389.781 90.4735L393.051 93.7878C393.954 94.703 395.419 94.703 396.322 93.7878C397.225 92.8726 397.225 91.3887 396.322 90.4735L393.051 87.1592C392.148 86.2439 390.684 86.244 389.781 87.1592Z" fill="#CED7EC"/>
</g>
<path fill-rule="evenodd" clip-rule="evenodd" d="M481.217 259.083C452.03 245.181 434.635 281.64 449.313 301.941C467.226 326.713 476.401 355.217 481.511 363.805C485.822 371.05 497.629 388.712 511.847 380.572C524.932 373.079 517.801 343.675 517.801 343.675C517.801 343.675 517.223 276.233 481.217 259.083Z" fill="#389E0D"/>
<path fill-rule="evenodd" clip-rule="evenodd" d="M569.005 374.91C578.928 361.43 582.551 342.084 571.476 337.123C560.857 332.367 543.268 344.078 535.12 366.616C526.973 389.153 522.273 405.357 530.242 408.174C543.318 412.797 555.9 392.715 569.005 374.91Z" fill="#389E0D"/>
<path fill-rule="evenodd" clip-rule="evenodd" d="M464.689 375.934C475.912 389.178 492.107 415.819 502.253 406.488C508.402 400.834 500.181 374.054 477.68 359.483C458.539 347.089 453.466 362.69 464.689 375.934Z" fill="#BAE637"/>
<path fill-rule="evenodd" clip-rule="evenodd" d="M572.081 284.028C567.814 281.137 562.445 280.476 557.546 282.056C550.709 284.261 540.334 290.827 530.066 309.673C516.659 334.278 509.68 361.251 511.06 378.337C511.962 389.511 525.632 394.328 533.28 386.181C536.792 382.439 540.508 376.672 544.144 367.922C558.776 332.711 572.457 310.645 574.088 308.43C578.441 302.518 581.553 290.446 572.081 284.028Z" fill="#BAE637"/>
<path fill-rule="evenodd" clip-rule="evenodd" d="M562.268 298.073C562.123 299.811 563.405 301.339 565.132 301.485C566.858 301.631 568.375 300.339 568.52 298.601C568.665 296.862 567.383 295.335 565.656 295.189C563.93 295.043 562.413 296.334 562.268 298.073Z" fill="white"/>
<path fill-rule="evenodd" clip-rule="evenodd" d="M535.623 311.56C535.478 313.298 536.76 314.826 538.487 314.972C540.213 315.118 541.73 313.827 541.875 312.088C542.02 310.35 540.737 308.822 539.011 308.676C537.285 308.53 535.767 309.822 535.623 311.56Z" fill="white"/>
<path fill-rule="evenodd" clip-rule="evenodd" d="M540.089 347.47C539.923 349.461 541.391 351.211 543.368 351.377C545.345 351.545 547.083 350.066 547.248 348.075C547.414 346.084 545.946 344.335 543.969 344.168C541.992 344 540.255 345.479 540.089 347.47Z" fill="white"/>
<path fill-rule="evenodd" clip-rule="evenodd" d="M458.248 293.804C458.248 296.629 460.522 298.92 463.328 298.92C466.134 298.92 468.409 296.629 468.409 293.804C468.409 290.978 466.134 288.688 463.328 288.688C460.522 288.688 458.248 290.978 458.248 293.804Z" fill="white"/>
<path fill-rule="evenodd" clip-rule="evenodd" d="M499.147 309.427C499.147 312.252 501.422 314.543 504.228 314.543C507.034 314.543 509.308 312.252 509.308 309.427C509.308 306.601 507.034 304.311 504.228 304.311C501.422 304.311 499.147 306.601 499.147 309.427Z" fill="white"/>
<path fill-rule="evenodd" clip-rule="evenodd" d="M485.901 344.155C485.901 345.336 486.852 346.293 488.024 346.293C489.197 346.293 490.148 345.336 490.148 344.155C490.148 342.974 489.197 342.016 488.024 342.016C486.852 342.016 485.901 342.974 485.901 344.155Z" fill="white"/>
<path fill-rule="evenodd" clip-rule="evenodd" d="M470.602 371.502C470.602 373.246 472.007 374.661 473.739 374.661C475.472 374.661 476.876 373.246 476.876 371.502C476.876 369.757 475.472 368.343 473.739 368.343C472.007 368.343 470.602 369.757 470.602 371.502Z" fill="white"/>
<path d="M543.874 378.508C543.581 378.227 543.118 378.238 542.839 378.533L542.706 378.678L542.604 378.791C542.42 378.999 542.207 379.246 541.968 379.533C541.288 380.35 540.532 381.325 539.719 382.459C537.402 385.689 535.087 389.543 532.928 394.015C526.767 406.777 523.072 421.935 523.072 439.433C523.072 439.84 523.399 440.17 523.803 440.17C524.207 440.17 524.534 439.84 524.534 439.433C524.534 422.166 528.176 407.226 534.244 394.659C536.365 390.266 538.636 386.485 540.905 383.321C541.65 382.282 542.344 381.382 542.972 380.621L543.089 380.48C543.267 380.266 543.429 380.076 543.574 379.911L543.757 379.704C543.825 379.628 543.872 379.577 543.898 379.55C544.177 379.255 544.166 378.789 543.874 378.508Z" fill="#253369"/>
<path d="M488.61 383.664C488.369 383.338 487.91 383.271 487.587 383.514C487.263 383.758 487.197 384.219 487.438 384.545C490.102 388.138 492.561 392.002 494.822 396.097C499.602 404.754 503.297 414.036 506.04 423.318C507 426.567 507.772 429.583 508.373 432.288L508.495 432.842C508.638 433.504 508.762 434.108 508.868 434.649L508.936 435.002L509.057 435.671C509.124 436.072 509.502 436.342 509.9 436.275C510.298 436.207 510.567 435.827 510.5 435.426L510.458 435.189C510.424 434.997 510.382 434.772 510.332 434.514L510.211 433.9C510.094 433.316 509.957 432.67 509.801 431.966L509.668 431.375C509.08 428.792 508.343 425.946 507.442 422.898C504.671 413.519 500.937 404.14 496.101 395.381C493.809 391.23 491.315 387.312 488.61 383.664Z" fill="#253369"/>
<path d="M475.828 291.764C475.548 292.035 475.528 292.475 475.774 292.77L475.806 292.806C475.82 292.821 475.851 292.854 475.898 292.905L476.078 293.103L476.182 293.219C476.497 293.573 476.863 293.998 477.276 294.496C478.461 295.923 479.782 297.64 481.207 299.648C485.283 305.395 489.362 312.317 493.171 320.42C499.512 333.913 504.451 349.301 507.444 366.6C511.079 387.607 511.68 410.554 508.705 435.46C508.657 435.864 508.943 436.231 509.344 436.28C509.745 436.328 510.11 436.04 510.158 435.636C513.15 410.588 512.544 387.495 508.885 366.347C505.869 348.915 500.89 333.4 494.493 319.79C490.646 311.605 486.523 304.608 482.397 298.792L482.078 298.344C480.806 296.57 479.616 295.027 478.534 293.714L478.399 293.551C478.01 293.083 477.661 292.675 477.354 292.329L477.272 292.236C477.176 292.128 477.09 292.033 477.015 291.951L476.862 291.787C476.583 291.493 476.12 291.483 475.828 291.764Z" fill="#253369"/>
<path d="M539.144 335.445C538.798 335.235 538.348 335.346 538.139 335.694L538.065 335.818C538.007 335.918 537.938 336.036 537.859 336.174L537.745 336.376C537.548 336.724 537.328 337.123 537.085 337.573L536.884 337.948C536.14 339.343 535.325 340.956 534.454 342.784L534.335 343.035C531.496 349.026 528.658 356.031 526.009 363.991C518.595 386.28 514.084 411.578 513.915 439.429C513.912 439.835 514.238 440.167 514.642 440.17C515.046 440.172 515.375 439.844 515.378 439.438C515.546 411.75 520.029 386.606 527.397 364.459C529.978 356.701 532.739 349.86 535.502 343.994L535.655 343.669C536.6 341.677 537.479 339.938 538.272 338.46L538.511 338.017C538.74 337.596 538.946 337.227 539.128 336.909L539.214 336.758L539.39 336.457C539.599 336.109 539.489 335.656 539.144 335.445Z" fill="#253369"/>
<path fill-rule="evenodd" clip-rule="evenodd" d="M482.846 475.97H546.075C549.493 475.97 552.289 473.154 552.289 469.712V423.262C552.289 419.82 549.493 417.005 546.075 417.005H482.846C479.429 417.005 476.632 419.82 476.632 423.262V469.712C476.632 473.154 479.429 475.97 482.846 475.97Z" fill="#253369"/>
</g>
<circle cx="84.6075" cy="14.6077" r="4.86923" fill="#4285F4"/>
<path d="M98.2422 11.0369C98.2422 10.3198 98.8235 9.73846 99.5406 9.73846H106.682C107.399 9.73846 107.981 10.3198 107.981 11.0369V18.1785C107.981 18.8956 107.399 19.4769 106.682 19.4769H99.5406C98.8235 19.4769 98.2422 18.8956 98.2422 18.1785V11.0369Z" fill="#4285F4"/>
<path d="M120.945 10.408C121.45 9.5153 122.751 9.5153 123.256 10.408L127.286 17.5321C127.779 18.4034 127.142 19.4769 126.131 19.4769H118.07C117.059 19.4769 116.421 18.4034 116.914 17.5321L120.945 10.408Z" fill="#4285F4"/>
<g clip-path="url(#clip0)">
<path fill-rule="evenodd" clip-rule="evenodd" d="M548.881 241.121C571.146 274.485 601.102 255.037 608.699 246.356C617.303 236.524 628.09 237.753 631.368 225.736C635.118 211.988 624.63 203.205 626.679 197.059C632.823 173.299 615.92 181.836 618.532 167.155C622.897 142.621 619.133 143.099 608.699 125.642C596.255 104.82 583.026 114.493 583.026 114.493C583.026 114.493 564.728 110.075 556.534 134.656C555.052 139.099 549.024 141.756 548.887 152.953C548.539 181.485 533.1 183.742 530.041 203.205C526.847 223.523 541.507 229.65 548.881 241.121Z" fill="#253368"/>
<path fill-rule="evenodd" clip-rule="evenodd" d="M560.553 156.902C559.434 149.847 564.659 150.627 564.659 150.627C564.659 150.627 567.185 157.963 567.373 163.899C559.995 163.972 560.553 156.902 560.553 156.902Z" fill="#F4B784"/>
<path fill-rule="evenodd" clip-rule="evenodd" d="M611.124 156.902C612.241 149.847 605.563 150.627 605.563 150.627C605.563 150.627 603.037 157.963 602.849 163.899C610.228 163.972 611.124 156.902 611.124 156.902Z" fill="#F4B784"/>
<path fill-rule="evenodd" clip-rule="evenodd" d="M584.948 206.831C591.433 206.831 596.616 201.438 597.814 194.959L596.829 169.962H574.522L573.536 194.959C573.28 201.438 578.464 206.831 584.948 206.831Z" fill="#F4B784"/>
<path d="M584.292 170.695C583.984 170.674 583.718 170.907 583.698 171.214C583.679 171.491 583.866 171.734 584.127 171.795L584.217 171.808L586.157 171.938C586.464 171.958 586.73 171.725 586.751 171.418C586.769 171.141 586.583 170.898 586.321 170.837L586.231 170.824L584.292 170.695Z" fill="#DD936F"/>
<path fill-rule="evenodd" clip-rule="evenodd" d="M565.265 155.479C567.049 171.251 574.253 181.084 585.339 181.084C596.426 181.084 604.196 169.568 605.414 155.479C607.449 131.925 596.426 125.369 585.339 125.369C574.253 125.369 562.54 131.383 565.265 155.479Z" fill="#FFC999"/>
<path fill-rule="evenodd" clip-rule="evenodd" d="M562.814 137.113C565.273 127.584 569.914 117.995 583.845 120.454C600.642 111.44 626.558 149.485 610.884 151.13C596.134 152.68 597.842 141.139 594.721 133.563C591.854 126.598 586.576 134.382 586.576 134.382C586.576 134.382 583.66 131.104 580.383 132.334C574.891 134.392 580.84 145.306 566.911 152.134C565.215 152.965 566.678 162.454 566.091 161.693C563.36 158.142 560.356 146.637 562.814 137.113Z" fill="#253368"/>
<path d="M600.925 142.131L591.092 143.864C590.697 143.934 590.432 144.311 590.502 144.707C590.566 145.07 590.888 145.322 591.246 145.308L591.345 145.297L601.178 143.564C601.574 143.494 601.838 143.117 601.768 142.721C601.704 142.359 601.382 142.107 601.024 142.121L600.925 142.131Z" fill="#253368"/>
<path d="M570.261 142.67C569.861 142.63 569.505 142.922 569.465 143.321C569.428 143.688 569.67 144.018 570.018 144.101L570.116 144.118L581.95 145.305C582.35 145.345 582.706 145.054 582.746 144.654C582.783 144.287 582.541 143.957 582.193 143.874L582.095 143.857L570.261 142.67Z" fill="#253368"/>
<path d="M590.074 145.34C589.82 145.23 589.528 145.324 589.383 145.55L589.34 145.63L587.839 149.091C587.816 149.143 587.802 149.198 587.796 149.254L587.793 149.339L588.321 160.921L585.488 162.135C585.233 162.245 585.102 162.521 585.166 162.782L585.195 162.868C585.304 163.123 585.581 163.255 585.842 163.19L585.928 163.161L589.116 161.795C589.303 161.715 589.429 161.541 589.451 161.343L589.453 161.257L588.914 149.417L590.364 146.074C590.474 145.82 590.38 145.528 590.154 145.383L590.074 145.34Z" fill="#DD936F"/>
<path d="M596.135 148.994C594.115 148.994 592.54 150.908 592.54 153.205C592.54 153.607 592.865 153.933 593.267 153.933C593.669 153.933 593.995 153.607 593.995 153.205C593.995 151.656 594.988 150.449 596.135 150.449C597.283 150.449 598.275 151.655 598.275 153.205C598.275 153.607 598.601 153.933 599.003 153.933C599.405 153.933 599.73 153.607 599.73 153.205C599.73 150.907 598.156 148.994 596.135 148.994Z" fill="#253368"/>
<path d="M576.471 148.994C574.45 148.994 572.876 150.907 572.876 153.205C572.876 153.607 573.201 153.933 573.603 153.933C574.005 153.933 574.331 153.607 574.331 153.205C574.331 151.655 575.323 150.449 576.471 150.449C577.619 150.449 578.611 151.655 578.611 153.205C578.611 153.607 578.937 153.933 579.339 153.933C579.741 153.933 580.066 153.607 580.066 153.205C580.066 150.907 578.492 148.994 576.471 148.994Z" fill="#253368"/>
<path d="M591.661 165.654C591.548 166.241 591.236 167.072 590.617 167.906C589.578 169.307 588.015 170.155 585.894 170.155C583.605 170.155 581.998 169.366 581.016 168.042C580.42 167.237 580.171 166.433 580.117 165.857C580.076 165.43 580.412 165.062 580.841 165.062L581.889 165.058C583.422 165.046 585.045 165.011 586.694 164.959L588.664 164.89L590.908 164.79C591.38 164.766 591.75 165.19 591.661 165.654ZM589.872 166.349L589.898 166.293L588.721 166.343C588.403 166.356 588.074 166.368 587.737 166.38L586.739 166.414C585.411 166.455 584.1 166.486 582.837 166.503L581.804 166.513L581.824 166.564C581.92 166.773 582.039 166.979 582.185 167.175C582.889 168.125 584.061 168.7 585.894 168.7C587.537 168.7 588.675 168.083 589.449 167.039C589.613 166.817 589.754 166.585 589.872 166.349Z" fill="#B53026"/>
<path d="M584.254 172.579C583.946 172.579 583.696 172.829 583.696 173.137C583.696 173.414 583.898 173.645 584.163 173.688L584.254 173.695H587.122C587.43 173.695 587.68 173.445 587.68 173.137C587.68 172.86 587.477 172.63 587.212 172.586L587.122 172.579H584.254Z" fill="#DD936F"/>
<path fill-rule="evenodd" clip-rule="evenodd" d="M563.81 161.899C563.937 161.497 564.507 161.509 564.616 161.915C565.588 165.505 567.852 175.174 564.1 175.401C559.869 175.658 562.659 165.564 563.81 161.899Z" fill="white"/>
<path fill-rule="evenodd" clip-rule="evenodd" d="M606.328 161.899C606.454 161.497 607.025 161.509 607.134 161.915C608.106 165.505 610.37 175.174 606.617 175.401C602.386 175.658 605.177 165.564 606.328 161.899Z" fill="white"/>
<path fill-rule="evenodd" clip-rule="evenodd" d="M662.403 284.855C668.295 280.925 669.897 272.789 666.057 266.311L635.207 212.204C630.09 203.576 622.41 199.204 614.563 204.44C606.806 209.614 608.06 221.117 613.863 229.154L643.735 280.912C648.198 287.093 656.439 288.833 662.403 284.855Z" fill="#FFC999"/>
<path fill-rule="evenodd" clip-rule="evenodd" d="M627.116 252.168L649.238 234.552L635.72 209.972C629.103 198.002 620.949 198.599 610.609 200.388L611.081 200.892C602.693 205.882 602.255 220.262 607.393 228.561L627.116 252.168Z" fill="#597EF7"/>
<mask id="mask1" mask-type="alpha" maskUnits="userSpaceOnUse" x="618" y="262" width="51" height="47">
<path d="M668.627 262.828H618.231V308.579H668.627V262.828Z" fill="white"/>
</mask>
<g mask="url(#mask1)">
<path fill-rule="evenodd" clip-rule="evenodd" d="M620.217 294.111L618.231 308.579C618.231 308.579 655.873 295.519 664.674 284.779C678.957 267.351 649.942 262.828 649.942 262.828L620.217 294.111Z" fill="#FFC999"/>
</g>
<path d="M651.287 264.1C648.294 264.1 645.521 265.843 643.027 268.73C642.162 269.731 641.393 270.802 640.728 271.873C640.553 272.154 640.395 272.421 640.254 272.668L640.009 273.111C639.962 273.198 639.928 273.265 639.905 273.31C639.817 273.487 639.888 273.702 640.065 273.79C640.242 273.879 640.457 273.807 640.546 273.63L640.641 273.446L640.745 273.256C640.912 272.953 641.11 272.615 641.336 272.251C641.983 271.21 642.731 270.168 643.569 269.198C645.94 266.453 648.544 264.816 651.287 264.816C651.484 264.816 651.645 264.656 651.645 264.458C651.645 264.26 651.484 264.1 651.287 264.1Z" fill="#DD936F"/>
<path d="M649.664 234.212C649.498 234.002 649.208 233.948 648.98 234.071L648.898 234.125L627.205 251.398L625.29 248.962C625.125 248.752 624.835 248.696 624.607 248.817L624.524 248.87C624.314 249.036 624.258 249.325 624.379 249.554L624.432 249.636L626.686 252.504C626.852 252.716 627.144 252.771 627.373 252.648L627.455 252.594L649.577 234.979C649.813 234.791 649.852 234.448 649.664 234.212Z" fill="#1D39C4"/>
<path fill-rule="evenodd" clip-rule="evenodd" d="M508.925 284.884C503.232 280.67 502.031 272.464 506.183 266.185L537.193 213.193C542.725 204.827 553.065 201.295 560.647 206.908C568.14 212.456 566.324 223.884 560.135 231.628L527.764 281.859C523.004 287.814 514.687 289.15 508.925 284.884Z" fill="#FFC999"/>
<path fill-rule="evenodd" clip-rule="evenodd" d="M546.206 253.34L524.082 235.725L537.603 211.146C542.442 202.668 555.105 197.952 561.867 204.286L562.239 202.064C570.629 207.055 571.066 221.434 565.928 229.733L546.206 253.34Z" fill="#597EF7"/>
<path fill-rule="evenodd" clip-rule="evenodd" d="M595.088 550.665C595.062 550.291 598.174 643.158 597.835 649.818C596.913 667.992 594.697 670.379 604.149 675.702C606.57 677.065 610.392 675.865 614.1 680.493C624.249 693.166 639.641 700.835 641.987 693.978C643.608 687.523 619.278 665.434 617.438 651.827C615.526 637.694 630.978 528.27 621.782 519.841C612.586 511.414 602.365 474.427 595.088 550.665Z" fill="#FFC999"/>
<path fill-rule="evenodd" clip-rule="evenodd" d="M586.443 482.146L585.934 617.468L645.212 615.194C645.212 615.194 645.474 554.245 643.785 481.447C643.785 481.447 645.57 438.828 615.526 438.828C585.484 438.828 586.443 482.146 586.443 482.146Z" fill="#E4EBF7"/>
<path fill-rule="evenodd" clip-rule="evenodd" d="M643.532 475.415C642.017 416.736 639.168 344.33 633.827 331.511C633.827 331.511 627.272 323.77 607.607 336.06C584.679 350.39 586.756 371.29 586.756 371.29L586.468 477.426C586.937 485.186 587.749 509.284 617.714 509.284C647.21 509.284 643.565 476.692 643.532 475.415Z" fill="#E4EBF7"/>
<path fill-rule="evenodd" clip-rule="evenodd" d="M576.332 550.891C576.358 550.517 573.246 643.384 573.585 650.044C574.507 668.219 576.723 670.605 567.271 675.928C564.85 677.291 561.028 676.091 557.32 680.719C547.171 693.392 531.778 701.062 529.433 694.203C527.812 687.749 552.142 665.66 553.982 652.053C555.894 637.919 540.442 528.496 549.638 520.067C558.833 511.64 569.055 474.653 576.332 550.891Z" fill="#FFC999"/>
<path fill-rule="evenodd" clip-rule="evenodd" d="M583.52 482.372L584.029 617.694L524.751 615.42C524.751 615.42 524.489 554.471 526.179 481.673C526.179 481.673 524.393 439.054 554.437 439.054C584.479 439.054 583.52 482.372 583.52 482.372Z" fill="#E4EBF7"/>
<path fill-rule="evenodd" clip-rule="evenodd" d="M526.249 481.97C527.764 423.29 530.612 350.885 535.954 338.065C535.954 338.065 542.509 330.323 562.174 342.615C585.102 356.943 583.026 377.845 583.026 377.845L583.312 483.981C582.844 491.74 582.032 515.839 552.067 515.839C522.571 515.839 526.217 483.248 526.249 481.97Z" fill="#E4EBF7"/>
<path fill-rule="evenodd" clip-rule="evenodd" d="M532.678 354.042C532.678 354.042 534.413 320.45 556.9 302.921L617.004 302.698C617.004 302.698 637.697 321.143 637.697 355.681C637.697 355.681 627.188 357.709 614.981 365.65C607.019 370.83 598.119 377.939 584.209 377.939C570.026 377.939 562.585 371.485 554.529 366.196C542.567 358.345 532.678 354.042 532.678 354.042Z" fill="#E4EBF7"/>
<path fill-rule="evenodd" clip-rule="evenodd" d="M617.301 303.258L556.7 302.92L559.371 293.974L614.226 294.036L617.301 303.258Z" fill="#E4EBF7"/>
<path d="M558.607 293.478C558.298 293.478 558.049 293.728 558.049 294.036C558.049 294.314 558.251 294.544 558.516 294.587L558.607 294.594H615.065C615.373 294.594 615.623 294.345 615.623 294.036C615.623 293.759 615.421 293.529 615.156 293.486L615.065 293.478H558.607Z" fill="#DD936F"/>
<path d="M558.629 302.23C558.328 302.23 558.084 302.475 558.084 302.776C558.084 303.047 558.282 303.272 558.541 303.315L558.629 303.322H615.454C615.756 303.322 616 303.077 616 302.776C616 302.505 615.802 302.28 615.543 302.238L615.454 302.23H558.629Z" fill="#A3B5D6"/>
<path d="M586.118 293.276C585.847 293.276 585.622 293.474 585.58 293.733L585.573 293.822V375.029C585.573 375.331 585.817 375.575 586.118 375.575C586.39 375.575 586.615 375.377 586.657 375.118L586.664 375.029V293.822C586.664 293.521 586.42 293.276 586.118 293.276Z" fill="#A3B5D6"/>
<path fill-rule="evenodd" clip-rule="evenodd" d="M547.845 203.088C559.052 198.703 567.391 202.289 571.06 198.992C573.23 197.041 573.045 189.112 573.045 189.112H600.107C600.107 189.112 599.525 196.279 601.693 198.23C605.363 201.527 613.979 198.214 624.089 203.692C633.635 208.863 630.277 226.44 625.906 238.183C624.897 240.898 626.64 246.016 624.952 249.791C623.252 253.589 620.671 258.189 619.647 260.647C616.281 268.722 616.972 277.421 614.801 284.748C614.801 284.748 618.26 291.44 612.801 294.156H560.353C553.803 291.166 558.352 284.748 558.352 284.748C556.278 277.756 557.539 272.116 554.465 261.875C553.85 259.828 551.541 256.581 549.571 252.249C546.498 245.489 547.932 239.003 547.522 237.364C543.931 223.004 538.128 206.891 547.845 203.088Z" fill="#597EF7"/>
<path d="M595.567 201.042L575.966 201.911C575.665 201.924 575.432 202.179 575.445 202.48C575.457 202.751 575.665 202.967 575.926 202.998L576.015 203.001L595.615 202.132C595.916 202.119 596.15 201.864 596.136 201.563C596.124 201.292 595.917 201.076 595.656 201.045L595.567 201.042Z" fill="#1D39C4"/>
<path d="M621.755 222.109C621.626 221.837 621.301 221.721 621.028 221.85C620.756 221.98 620.64 222.305 620.77 222.577L620.946 222.968L621.125 223.386C621.187 223.534 621.252 223.691 621.319 223.856L621.421 224.111C621.914 225.355 622.407 226.765 622.868 228.313C624.537 233.919 625.344 239.765 624.817 245.438C624.394 249.982 622.904 253.662 619.268 259.633L618.976 260.109L618.904 260.3L618.208 264.207L617.757 266.714C617.531 267.963 617.306 269.202 617.083 270.415L616.11 275.647C615.254 280.171 614.615 283.318 614.272 284.608C614.235 284.745 614.254 284.891 614.324 285.015C616.328 288.582 614.873 293.126 612.912 293.588L612.799 293.61L560.317 293.61L560.151 293.505L560.052 293.436C559.755 293.225 559.455 292.96 559.176 292.638C557.698 290.935 557.34 288.454 558.85 284.965C558.894 284.864 558.906 284.753 558.886 284.645L558.309 281.612C557.374 276.639 556.571 272.083 555.893 267.987L555.571 266.015C555.39 264.889 555.229 263.863 555.087 262.939L554.78 260.865C554.768 260.781 554.737 260.7 554.688 260.631C550.299 254.27 548.371 249.237 548.065 243.616C547.787 238.49 548.724 233.393 550.458 228.596C550.992 227.118 551.564 225.78 552.135 224.605L552.367 224.138C552.442 223.99 552.514 223.851 552.584 223.72L552.888 223.165C553.041 222.906 552.954 222.571 552.694 222.418C552.435 222.266 552.1 222.352 551.947 222.612L551.784 222.902L551.725 223.011C551.587 223.267 551.436 223.557 551.276 223.88L551.154 224.128C550.566 225.336 549.979 226.71 549.431 228.225C547.651 233.15 546.689 238.388 546.975 243.675C547.285 249.363 549.192 254.466 553.449 260.752L553.717 261.143L553.94 262.649C554.142 263.987 554.389 265.559 554.683 267.351L555.095 269.831C555.807 274.056 556.646 278.737 557.618 283.827L557.783 284.689L557.71 284.861C556.243 288.459 556.622 291.221 558.204 293.177L558.351 293.353C558.936 294.026 559.525 294.444 559.94 294.646C559.989 294.671 560.042 294.687 560.096 294.695L560.179 294.701L612.88 294.695C615.715 294.27 617.532 289.1 615.507 284.924L615.382 284.676L615.56 283.929C615.931 282.311 616.481 279.557 617.173 275.898L617.715 273.002L618.38 269.39C618.604 268.161 618.831 266.911 619.057 265.656L619.96 260.592L620.203 260.195C623.819 254.258 625.379 250.48 625.866 245.911L625.903 245.539C626.445 239.711 625.62 233.731 623.914 228.002C623.444 226.422 622.94 224.982 622.435 223.709L622.229 223.198C622.162 223.037 622.098 222.884 622.036 222.74L621.812 222.231C621.789 222.18 621.77 222.139 621.755 222.109Z" fill="#1D39C4"/>
<path d="M555.306 242.691C555.004 242.691 554.76 242.935 554.76 243.236C554.76 243.507 554.958 243.732 555.217 243.775L555.306 243.782H620.034C620.336 243.782 620.58 243.538 620.58 243.236C620.58 242.965 620.382 242.74 620.123 242.698L620.034 242.691H555.306Z" fill="#1D39C4"/>
<path fill-rule="evenodd" clip-rule="evenodd" d="M555.031 292.53L558.17 307.567C558.17 307.567 517.717 296.607 507.699 285.98C491.439 268.733 521.558 261.868 521.558 261.868L555.031 292.53Z" fill="#FFC999"/>
<path fill-rule="evenodd" clip-rule="evenodd" d="M562.633 290.927C562.633 290.927 556.544 281.861 553.913 281.586C549.836 281.161 550.914 289.469 550.914 289.469C550.914 289.469 547.034 291 548.455 295.407C546.22 298.922 547.945 301.197 547.945 301.197C547.945 301.197 545.112 303.629 547.78 306.649C550.447 309.668 557.781 310.495 557.757 305.279C561.222 303.114 559.422 299.863 559.422 299.863C559.422 299.863 562.067 297.666 560.242 294.547C562.591 293.799 563.26 291.878 562.633 290.927Z" fill="#FFC999"/>
<path d="M553.772 288.239C553.625 288.107 553.399 288.118 553.267 288.265C553.153 288.391 553.146 288.575 553.238 288.709L553.293 288.771L560.002 294.813C560.149 294.945 560.375 294.934 560.508 294.787C560.621 294.661 560.629 294.477 560.536 294.343L560.481 294.281L553.772 288.239Z" fill="#DD936F"/>
<path d="M553.879 281.23C551.762 281.424 550.679 283.022 550.395 285.478C550.272 286.535 550.308 287.659 550.44 288.74L550.485 289.076L550.519 289.295L550.261 289.478C549.915 289.733 549.57 290.032 549.247 290.372C547.954 291.734 547.384 293.335 547.957 295.102L548.05 295.36L547.996 295.438C546.661 297.423 546.527 299.172 547.154 300.586L547.233 300.754C547.314 300.919 547.396 301.058 547.473 301.173L547.556 301.29L546.821 304.669C546.784 304.838 546.873 305.005 547.025 305.072L547.094 305.095C547.263 305.131 547.43 305.042 547.498 304.89L547.52 304.821L548.293 301.274C548.318 301.159 548.285 301.039 548.205 300.953C548.13 300.873 548.004 300.698 547.874 300.437C547.248 299.171 547.354 297.56 548.745 295.615C548.818 295.513 548.832 295.381 548.783 295.266C548.081 293.623 548.543 292.153 549.766 290.865C550.058 290.557 550.372 290.286 550.686 290.054C550.872 289.916 551.015 289.823 551.093 289.779C551.225 289.702 551.294 289.55 551.264 289.4L551.232 289.221C551.208 289.078 551.179 288.885 551.151 288.653C551.024 287.623 550.991 286.553 551.106 285.56C551.356 283.401 552.238 282.099 553.944 281.943C554.141 281.924 554.286 281.75 554.268 281.553C554.25 281.356 554.076 281.212 553.879 281.23Z" fill="#DD936F"/>
<path d="M552.654 295.924C552.479 295.833 552.262 295.901 552.171 296.076C552.091 296.229 552.133 296.414 552.262 296.519L552.322 296.559L559.256 300.18C559.431 300.272 559.647 300.204 559.739 300.029C559.819 299.875 559.777 299.691 559.648 299.586L559.587 299.546L552.654 295.924Z" fill="#DD936F"/>
<path d="M551.059 302.17C550.876 302.095 550.667 302.183 550.592 302.366C550.527 302.527 550.586 302.706 550.725 302.799L550.789 302.833L557.62 305.61C557.804 305.685 558.012 305.597 558.087 305.414C558.152 305.253 558.093 305.073 557.954 304.981L557.89 304.947L551.059 302.17Z" fill="#DD936F"/>
<path d="M522.034 265.272C521.836 265.272 521.676 265.432 521.676 265.63C521.676 265.828 521.836 265.988 522.034 265.988C524.787 265.988 527.674 267.635 530.5 270.392C531.498 271.366 532.417 272.41 533.234 273.455C533.52 273.82 533.773 274.159 533.99 274.463L534.252 274.84C534.361 275.005 534.583 275.05 534.748 274.941C534.913 274.832 534.958 274.61 534.849 274.445L534.648 274.154L534.573 274.047C534.35 273.735 534.091 273.387 533.798 273.014C532.962 271.946 532.023 270.878 531 269.88C528.052 267.005 525.016 265.272 522.034 265.272Z" fill="#DD936F"/>
<path d="M524.424 235.298C524.188 235.11 523.845 235.149 523.657 235.385C523.49 235.595 523.502 235.889 523.673 236.084L523.744 236.152L545.868 253.767C546.078 253.935 546.375 253.921 546.569 253.749L546.637 253.677L548.889 250.809C549.075 250.572 549.034 250.229 548.797 250.043C548.587 249.878 548.292 249.892 548.099 250.064L548.031 250.135L546.119 252.571L524.424 235.298Z" fill="#1D39C4"/>
<path fill-rule="evenodd" clip-rule="evenodd" d="M608.875 290.927C608.875 290.927 614.965 281.861 617.595 281.586C621.672 281.161 620.594 289.469 620.594 289.469C620.594 289.469 624.475 291 623.055 295.407C625.288 298.922 623.564 301.197 623.564 301.197C623.564 301.197 626.397 303.629 623.728 306.649C621.061 309.668 613.728 310.495 613.751 305.279C610.288 303.114 612.088 299.863 612.088 299.863C612.088 299.863 609.443 297.666 611.267 294.547C608.917 293.799 608.25 291.878 608.875 290.927Z" fill="#FFC999"/>
<path d="M618.24 288.265C618.127 288.139 617.944 288.113 617.802 288.191L617.735 288.239L611.027 294.281C610.88 294.414 610.868 294.64 611 294.787C611.114 294.913 611.296 294.939 611.439 294.861L611.506 294.813L618.214 288.771C618.361 288.638 618.372 288.412 618.24 288.265Z" fill="#DD936F"/>
<path d="M617.628 281.23C617.431 281.212 617.257 281.356 617.238 281.553C617.22 281.75 617.365 281.924 617.562 281.943C619.268 282.099 620.151 283.401 620.401 285.56C620.516 286.553 620.482 287.623 620.356 288.653L620.293 289.105C620.274 289.23 620.256 289.33 620.243 289.4C620.213 289.55 620.282 289.702 620.414 289.779C620.491 289.823 620.634 289.916 620.821 290.054C621.134 290.286 621.449 290.557 621.741 290.865C622.964 292.153 623.426 293.623 622.725 295.266C622.676 295.381 622.69 295.513 622.763 295.615C624.154 297.56 624.26 299.171 623.633 300.436C623.503 300.698 623.377 300.873 623.302 300.953C623.238 301.022 623.204 301.112 623.206 301.205L623.214 301.274L623.986 304.821C624.028 305.014 624.219 305.137 624.412 305.095C624.581 305.058 624.696 304.907 624.694 304.741L624.686 304.669L623.95 301.29L623.959 301.28C624.031 301.182 624.111 301.058 624.193 300.91L624.274 300.754C624.989 299.311 624.9 297.502 623.511 295.438L623.458 295.36L623.473 295.324C624.141 293.543 623.65 291.926 622.418 290.544L622.26 290.372C621.937 290.032 621.592 289.733 621.246 289.478L620.988 289.295L621.029 289.024L621.066 288.74C621.199 287.659 621.234 286.535 621.112 285.478C620.828 283.022 619.745 281.424 617.628 281.23Z" fill="#DD936F"/>
<path d="M619.336 296.076C619.256 295.923 619.081 295.851 618.921 295.897L618.853 295.924L611.92 299.546C611.745 299.637 611.677 299.853 611.768 300.029C611.849 300.182 612.024 300.253 612.184 300.207L612.251 300.18L619.185 296.559C619.36 296.467 619.428 296.251 619.336 296.076Z" fill="#DD936F"/>
<path d="M620.915 302.366C620.85 302.206 620.682 302.119 620.518 302.149L620.449 302.17L613.616 304.947C613.433 305.022 613.344 305.23 613.419 305.413C613.484 305.574 613.652 305.661 613.816 305.631L613.885 305.61L620.718 302.833C620.901 302.758 620.989 302.55 620.915 302.366Z" fill="#DD936F"/>
<path fill-rule="evenodd" clip-rule="evenodd" d="M102.113 367.801C102.113 367.801 82.0029 310.89 57.863 340.154C32.6482 413.468 11.009 563.433 -3.92775 637.452C8.19313 643.243 27.34 641.075 27.34 641.075C27.34 641.075 94.1088 413.888 102.113 367.801Z" fill="#4E5C93"/>
<path fill-rule="evenodd" clip-rule="evenodd" d="M100.12 373.276C100.12 373.276 105.415 374.291 110.586 372.198C124.263 366.663 149.46 353.296 152.754 347.36C154.33 333.906 149.207 300.899 144.468 300.866C135.371 300.804 104.584 306.601 91.7691 304.089C81.7995 302.133 69.222 299.741 69.222 299.741C69.222 299.741 65.7525 305.523 63.256 310.949C57.2017 324.107 57.4721 341.297 57.4721 341.297C57.4721 341.297 93.3808 374.725 100.12 373.276Z" fill="#4E5C93"/>
<path fill-rule="evenodd" clip-rule="evenodd" d="M148.959 277.341C148.959 277.341 171.672 209.153 163.939 171.78C150.215 164.052 138.365 154.988 110.488 153.481C79.092 151.785 49.1493 170.129 49.1493 170.129L53.3391 226.288L68.4973 271.671C68.4973 271.671 54.2578 290.698 82.6472 294.862C102.422 297.764 132.798 300.495 145.411 293.361C150.905 290.253 151.584 284.428 148.959 277.341Z" fill="#ADC6FF"/>
<path fill-rule="evenodd" clip-rule="evenodd" d="M164.317 172.547C164.317 172.547 189.709 209.237 203.167 255.531C207.206 269.423 192.656 279.155 179.734 273.099C166.811 267.045 137.242 198.104 135.501 190.693C132.105 176.24 150.43 161.508 164.317 172.547Z" fill="#ADC6FF"/>
<path fill-rule="evenodd" clip-rule="evenodd" d="M125.859 152.116L124.871 131.582L93.6539 121.8L90.3488 150.766C90.3488 150.766 105.572 186.196 125.859 152.116Z" fill="#A08889"/>
<path fill-rule="evenodd" clip-rule="evenodd" d="M82.5302 107.297C86.1166 130.833 102.521 141.385 118.197 142.114C136.886 142.982 141.009 126.927 139.884 103.689C138.741 80.0905 128.562 72.0775 110.992 71.5905C92.6751 71.0832 78.8976 83.4575 82.5302 107.297Z" fill="#A08889"/>
<mask id="mask2" mask-type="alpha" maskUnits="userSpaceOnUse" x="79" y="70" width="57" height="61">
<path d="M135.926 70.0452H79.7957V130.999H135.926V70.0452Z" fill="white"/>
</mask>
<g mask="url(#mask2)">
<path fill-rule="evenodd" clip-rule="evenodd" d="M95.4549 110.718C94.9032 108.881 94.3691 105.802 91.4119 104.581C87.3417 102.899 83.7621 107.497 84.3465 112.428C85.0559 118.404 90.3478 122.016 93.339 122.035C93.0468 127.89 92.5956 130.999 92.5956 130.999C92.5956 130.999 85.995 124.518 82.3216 114.417C76.5907 98.657 80.135 76.5876 97.878 71.5196C125.603 64.4426 135.926 85.1351 135.926 85.1351L101.562 84.6725L102.446 96.1366C102.446 96.1366 96.3206 96.4784 97.5709 110.046L95.4549 110.718Z" fill="#604346"/>
</g>
<path d="M120.587 98.2499L109.904 98.4859L109.718 98.5161L106.291 99.5741C105.932 99.6848 105.731 100.065 105.842 100.423C105.944 100.751 106.272 100.946 106.602 100.891L106.692 100.87L110.031 99.84L120.617 99.6061C120.961 99.5985 121.239 99.3371 121.277 99.0051L121.281 98.913C121.274 98.5697 121.012 98.2916 120.679 98.2541L120.587 98.2499Z" fill="#604346"/>
<path fill-rule="evenodd" clip-rule="evenodd" d="M104.646 128.856C108.581 123.295 108.231 118.327 124.491 118.624C132.402 118.768 135.186 121.367 138.016 127.687C135.847 137.413 127.884 143.545 117.321 142.73C95.1285 141.018 94.1242 118.857 94.1242 118.857C94.1242 118.857 97.2526 119.656 98.2623 121.318C101.052 125.913 102.872 127.063 104.646 128.856Z" fill="#7F6567"/>
<path fill-rule="evenodd" clip-rule="evenodd" d="M130.01 123.223C130.01 123.223 124.267 123.568 115.473 122.747C115.473 122.747 116.762 126.384 123.101 126.425C128.075 126.457 130.01 123.223 130.01 123.223Z" fill="white"/>
<path d="M115.519 122.241C120.756 122.729 125.241 122.852 128.7 122.763L129.756 122.727C129.85 122.723 129.924 122.719 129.978 122.715C130.387 122.691 130.656 123.133 130.446 123.484C130.174 123.939 129.618 124.59 128.737 125.234C127.268 126.31 125.394 126.948 123.096 126.933C120.224 126.915 118.092 126.189 116.606 124.98C115.68 124.227 115.184 123.459 114.991 122.917C114.867 122.567 115.149 122.206 115.519 122.241ZM116.415 123.341L116.442 123.378C116.66 123.655 116.927 123.929 117.25 124.192C118.551 125.25 120.457 125.899 123.103 125.916C125.176 125.929 126.837 125.363 128.135 124.414L128.393 124.216C128.559 124.082 128.713 123.946 128.855 123.808L128.888 123.775L128.285 123.79C125.299 123.85 121.608 123.757 117.368 123.421L116.415 123.341Z" fill="#604346"/>
<path d="M129.083 98.3492C128.839 98.2824 128.587 98.405 128.485 98.6278L128.457 98.7056L127.412 102.519C127.398 102.569 127.392 102.621 127.394 102.673L127.403 102.75L130.128 116.683C130.252 117.317 129.802 117.911 129.175 117.982L129.062 117.989L120.468 118.089C120.186 118.092 119.961 118.323 119.964 118.604C119.967 118.856 120.154 119.064 120.397 119.101L120.48 119.106L129.074 119.006C130.348 118.992 131.31 117.869 131.151 116.627L131.128 116.488L128.426 102.672L129.44 98.9741C129.507 98.7302 129.384 98.4791 129.161 98.3773L129.083 98.3492Z" fill="#604346"/>
<path fill-rule="evenodd" clip-rule="evenodd" d="M126.185 150.127L132.303 158.005L123.168 174.762L109.294 160.731L126.185 150.127Z" fill="#ADC6FF"/>
<path fill-rule="evenodd" clip-rule="evenodd" d="M109.293 160.731L90.3553 149.44L83.8892 156.943L96.4464 173.492L109.293 160.731Z" fill="#ADC6FF"/>
<path fill-rule="evenodd" clip-rule="evenodd" d="M119.873 171.733L109.288 160.841L98.5627 171.786L104.667 183.806L115.32 183.736L119.873 171.733Z" fill="#253368"/>
<path fill-rule="evenodd" clip-rule="evenodd" d="M115.132 183.544L104.609 183.476L94.497 257.662C94.4114 258.298 94.5745 258.942 94.9537 259.46L109.587 279.418C110.639 280.853 112.819 280.748 113.73 279.218L126.057 258.48C126.351 257.986 126.463 257.407 126.375 256.838L115.132 183.544Z" fill="#253368"/>
<path fill-rule="evenodd" clip-rule="evenodd" d="M146.182 292.602L146.122 301.768C146.122 301.768 135.384 305.517 109.743 306.115C85.0731 306.69 68.8412 299.738 68.8412 299.738L69.5126 290.089C69.5126 290.089 100.589 301.472 146.182 292.602Z" fill="#12183F"/>
<path fill-rule="evenodd" clip-rule="evenodd" d="M152.784 342.881C152.784 342.881 119.908 340.215 107.078 358.047C104.689 380.424 106.551 418.585 108.456 469.209C110.253 516.999 121.498 636.34 121.498 636.34C121.498 636.34 136.775 641.023 152.382 633.988C149.532 612.323 153.208 507.099 154.928 472.775C156.647 438.45 152.784 342.881 152.784 342.881Z" fill="#4E5C93"/>
<path d="M162.119 185.449C161.744 185.461 161.449 185.774 161.46 186.148C161.659 192.656 161.438 199.733 160.838 207.292C159.87 219.474 157.959 232.487 155.383 245.74C154.121 252.229 152.775 258.387 151.424 264.045L150.855 266.396C150.61 267.394 150.375 268.336 150.151 269.218L149.674 271.07L149.233 272.727C149.134 273.088 149.346 273.461 149.708 273.56C150.07 273.659 150.444 273.447 150.544 273.086L151.076 271.08L151.335 270.076C151.687 268.698 152.069 267.164 152.474 265.488C153.921 259.506 155.367 252.941 156.717 245.998C159.303 232.699 161.22 219.637 162.193 207.399C162.797 199.794 163.019 192.668 162.819 186.107C162.807 185.733 162.494 185.438 162.119 185.449Z" fill="#597EF7"/>
<path d="M124.802 130.2L120.69 130.266C120.409 130.271 120.184 130.502 120.189 130.783C120.193 131.036 120.381 131.243 120.624 131.278L120.707 131.284L124.819 131.217C125.1 131.213 125.325 130.981 125.32 130.7C125.316 130.448 125.128 130.241 124.885 130.205L124.802 130.2Z" fill="#604346"/>
<path d="M84.4316 156.534C84.2051 156.236 83.7788 156.177 83.4797 156.403C83.2077 156.609 83.1344 156.979 83.2936 157.269L83.3483 157.353L95.9054 173.902C96.1326 174.201 96.5541 174.255 96.8477 174.04L96.9244 173.975L109.291 161.791L122.753 174.915C123.051 175.206 123.531 175.159 123.771 174.836L123.822 174.757L132.898 158.332C133.079 158.004 132.96 157.592 132.631 157.411C132.33 157.245 131.957 157.331 131.758 157.6L131.708 157.677L123.064 173.321L109.763 160.356C109.522 160.121 109.15 160.101 108.887 160.294L108.811 160.358L96.5218 172.466L84.4316 156.534Z" fill="#597EF7"/>
<path d="M106.144 183.146C105.956 183.145 105.803 183.296 105.802 183.483C105.801 183.647 105.917 183.784 106.071 183.817L106.14 183.824L115.131 183.883C115.318 183.884 115.471 183.733 115.473 183.546C115.474 183.382 115.358 183.244 115.204 183.212L115.135 183.204L106.144 183.146Z" fill="#597EF7"/>
<path fill-rule="evenodd" clip-rule="evenodd" d="M122.713 304.517L122.957 297.862C123.025 295.987 121.557 294.452 119.759 294.528C115.448 294.709 107.835 294.902 102.327 294.321C100.526 294.133 98.9691 295.616 98.9568 297.504L98.9119 304.307C98.9025 305.898 100.005 307.249 101.51 307.506C105.089 308.115 111.994 308.868 120.07 307.588C121.541 307.355 122.656 306.068 122.713 304.517Z" fill="#F1F2F6"/>
<path fill-rule="evenodd" clip-rule="evenodd" d="M119.958 303.588L120.143 298.88C120.194 297.554 119.061 296.466 117.674 296.52C114.349 296.646 108.474 296.779 104.226 296.367C102.836 296.233 101.636 297.281 101.627 298.616L101.595 303.429C101.587 304.555 102.439 305.511 103.601 305.693C106.361 306.124 111.69 306.66 117.92 305.759C119.054 305.595 119.915 304.685 119.958 303.588Z" fill="#12183F"/>
<path d="M138.509 97.9167L129.44 98.165C129.065 98.1752 128.769 98.4871 128.78 98.8616C128.789 99.2048 129.052 99.4815 129.385 99.5173L129.478 99.521L138.546 99.2727C138.921 99.2625 139.217 98.9506 139.207 98.5761C139.197 98.2329 138.934 97.9562 138.601 97.9204L138.509 97.9167Z" fill="#604346"/>
<path d="M105.214 138.729C104.969 138.589 104.658 138.675 104.519 138.919C104.38 139.163 104.465 139.473 104.709 139.613C111.166 143.284 117.7 143.983 123.38 142.981C123.861 142.896 124.287 142.805 124.655 142.714L124.985 142.627C125.041 142.612 125.087 142.598 125.121 142.587C125.39 142.504 125.539 142.218 125.455 141.95C125.371 141.682 125.085 141.533 124.817 141.616L124.622 141.672C124.562 141.688 124.491 141.706 124.409 141.727C124.063 141.812 123.66 141.899 123.203 141.979C117.739 142.943 111.441 142.269 105.214 138.729Z" fill="#7C5B4D"/>
<path d="M91.2419 107.456C90.4718 107.058 89.6686 106.98 88.9502 107.083L88.7767 107.112C88.7539 107.117 88.7342 107.122 88.7178 107.126C88.4448 107.194 88.2791 107.471 88.3477 107.743C88.4094 107.988 88.6398 108.147 88.8843 108.126L89.0947 108.09C89.6207 108.015 90.218 108.072 90.7728 108.36C91.7264 108.853 92.3867 109.943 92.5945 111.848L92.6038 111.941L92.4561 111.977C91.1588 112.309 90.3764 113.029 90.1968 114.011L90.1744 114.16C90.0545 115.175 90.6019 116.297 91.5151 117.067C91.7301 117.248 92.0517 117.221 92.2333 117.006C92.4149 116.792 92.3878 116.471 92.1728 116.289C91.5022 115.724 91.1107 114.922 91.1866 114.279C91.2695 113.577 91.9016 113.055 93.2229 112.861C93.4845 112.822 93.6732 112.59 93.6573 112.327C93.5016 109.752 92.6282 108.174 91.2419 107.456Z" fill="#7C5B4D"/>
<path fill-rule="evenodd" clip-rule="evenodd" d="M16.6415 386.631L77.8411 393.385C80.4517 393.674 82.7702 391.722 82.9278 389.107L86.9233 322.908C87.0809 320.278 84.9921 318.057 82.3543 318.049L23.0818 317.869C20.005 317.859 17.423 320.181 17.1145 323.236L11.3483 380.097C11.0194 383.355 13.3813 386.272 16.6415 386.631Z" fill="#FAAD14"/>
<path fill-rule="evenodd" clip-rule="evenodd" d="M84.1072 318.044L83.6479 318.041C82.0756 318.03 80.7723 319.255 80.6867 320.823L76.9331 390.675C76.8448 392.302 78.0978 393.689 79.7259 393.769C81.3403 393.851 82.7184 392.619 82.8149 391.01L87.0277 321.161C87.1297 319.478 85.7951 318.055 84.1072 318.044Z" fill="#FF7A46"/>
<path d="M16.1502 340.559C15.9626 340.558 15.8096 340.71 15.8096 340.897C15.8096 341.061 15.9253 341.198 16.08 341.23L16.1485 341.237L79.282 341.397L84.8104 341.432C84.9981 341.433 85.1511 341.282 85.1523 341.095C85.1534 340.931 85.0378 340.794 84.8832 340.761L84.8148 340.754L79.285 340.719L16.1502 340.559Z" fill="#FF7A46"/>
<path fill-rule="evenodd" clip-rule="evenodd" d="M23.8694 390.493C25.6348 393.56 27.4232 393.062 29.7158 393.587C32.0085 394.111 34.7931 397.439 34.7931 397.439C40.7659 400.915 39.2968 391.357 40.4492 390.6C41.0254 390.223 41.3421 393.103 43.7366 394.951C46.1325 396.8 48.7119 395.826 48.0786 394.215C46.5728 390.386 43.6564 381.037 43.0938 376.103C42.3708 369.733 38.711 363.852 38.711 363.852C34.2821 354.867 19.9895 359.657 19.9895 359.657C19.9895 359.657 15.7263 387.384 19.0355 388.424C19.0355 388.424 23.1274 389.206 23.8694 390.493Z" fill="#A08889"/>
<path fill-rule="evenodd" clip-rule="evenodd" d="M66.0255 209.041C66.0255 209.041 73.8411 178.31 52.4655 170.15C35.5419 163.691 11.61 236.105 11.2825 286.52C11.0691 319.362 17.2797 364.477 17.2797 364.477C17.2797 364.477 32.1499 367.881 42.1534 362.969C40.8964 340.681 42.8098 292.45 45.9043 276.546C49.0001 260.642 66.0255 209.041 66.0255 209.041Z" fill="#ADC6FF"/>
<path d="M65.4122 214.283C65.0883 214.167 64.7345 214.312 64.5806 214.609L64.5437 214.693L56.3599 237.558C56.2336 237.91 56.4177 238.298 56.7711 238.424C57.0951 238.54 57.4488 238.395 57.6028 238.098L57.6396 238.014L65.8235 215.15C65.9497 214.797 65.7656 214.409 65.4122 214.283Z" fill="#597EF7"/>
<path d="M51.8889 170.26C51.5294 170.152 51.1507 170.356 51.0429 170.714C50.9352 171.073 51.1392 171.451 51.4987 171.559C57.5136 173.359 61.8859 178.482 64.8531 185.937C66.1847 189.283 67.1405 192.875 67.7805 196.469C67.9726 197.547 68.1239 198.559 68.2392 199.485L68.2939 199.941C68.3255 200.215 68.352 200.466 68.3739 200.692L68.4218 201.243C68.4473 201.616 68.7715 201.899 69.1459 201.873C69.5203 201.848 69.8032 201.524 69.7777 201.15L69.7478 200.787L69.7024 200.319C69.6937 200.236 69.6846 200.15 69.6748 200.061L69.6439 199.786C69.5201 198.713 69.3477 197.517 69.1185 196.231C68.4635 192.554 67.4849 188.876 66.1161 185.437C63.0106 177.633 58.3733 172.2 51.8889 170.26Z" fill="#597EF7"/>
<path d="M42.7219 362.599C42.5171 362.285 42.0962 362.196 41.7817 362.401C39.5602 363.844 35.8548 364.641 31.1046 364.876C27.7806 365.041 24.2114 364.922 20.729 364.624L19.9217 364.551C19.661 364.526 19.4088 364.501 19.1657 364.476L18.1492 364.364C17.9116 364.336 17.7373 364.313 17.6322 364.299C17.2603 364.249 16.918 364.509 16.8677 364.88C16.8173 365.252 17.078 365.593 17.4499 365.644L17.9873 365.71L18.311 365.748C18.9957 365.826 19.7683 365.903 20.6127 365.975C24.1513 366.279 27.7785 366.399 31.1719 366.231C36.1432 365.985 40.0496 365.145 42.5232 363.538C42.8377 363.333 42.9266 362.913 42.7219 362.599Z" fill="#597EF7"/>
<path d="M38.6686 352.728L37.8651 352.844L37.3477 352.916C36.3062 353.057 35.1694 353.198 33.9757 353.33C31.998 353.549 30.0654 353.719 28.2539 353.823L27.3697 353.868C24.4765 354 22.1304 353.934 20.5253 353.631C20.1565 353.562 19.8012 353.804 19.7316 354.172C19.6621 354.54 19.9046 354.895 20.2734 354.964C22.1744 355.322 24.9286 355.371 28.3315 355.177C30.1693 355.072 32.1253 354.9 34.1253 354.679L35.3101 354.543C35.8915 354.473 36.4553 354.402 36.9969 354.331L38.0544 354.188L38.8746 354.069C39.2455 354.012 39.5001 353.666 39.4432 353.296C39.3911 352.956 39.0953 352.714 38.7606 352.72L38.6686 352.728Z" fill="#597EF7"/>
<path fill-rule="evenodd" clip-rule="evenodd" d="M21.3104 359.396C21.3023 360.563 22.244 361.515 23.4128 361.522C24.5802 361.53 25.5342 360.59 25.541 359.423C25.5491 358.257 24.6087 357.306 23.4386 357.298C22.2712 357.291 21.3172 358.23 21.3104 359.396Z" fill="white"/>
<path d="M124.703 370.61L100.066 372.6C99.6919 372.63 99.4132 372.957 99.4435 373.331C99.4712 373.673 99.7489 373.935 100.083 373.953L100.176 373.952L124.813 371.962C125.187 371.932 125.466 371.605 125.435 371.231C125.408 370.889 125.13 370.627 124.796 370.609L124.703 370.61Z" fill="#12183F"/>
<path d="M112.336 104.755C111.96 104.753 111.654 105.055 111.652 105.43C111.64 107.377 113.155 108.977 115.051 108.989C116.948 109.001 118.483 107.421 118.496 105.474C118.499 105.099 118.197 104.793 117.821 104.791C117.446 104.788 117.14 105.09 117.137 105.464C117.129 106.676 116.192 107.64 115.059 107.633C113.928 107.626 113.004 106.649 113.011 105.438C113.013 105.063 112.711 104.758 112.336 104.755Z" fill="#604346"/>
<path d="M131.277 104.878C130.902 104.876 130.596 105.177 130.593 105.552C130.58 107.499 132.095 109.1 133.992 109.112C135.887 109.124 137.422 107.544 137.436 105.597C137.438 105.222 137.136 104.916 136.761 104.914C136.385 104.911 136.079 105.213 136.077 105.587C136.068 106.799 135.132 107.763 134 107.756C132.868 107.749 131.944 106.772 131.952 105.561C131.955 105.187 131.652 104.881 131.277 104.878Z" fill="#604346"/>
<path fill-rule="evenodd" clip-rule="evenodd" d="M140.576 214.28C140.576 214.28 122.307 192.166 117.765 191.724C112.157 191.178 106.074 191.222 103.694 191.481C102.956 191.561 102.359 192.106 102.206 192.83L99.9667 203.448C99.7112 204.662 99.9816 205.929 100.714 206.932L107.173 214.747C107.496 215.139 107.891 215.464 108.338 215.706L130.915 227.952C130.915 227.952 140.162 219.592 140.576 214.28Z" fill="#A08889"/>
<path d="M101.971 194.934C101.69 194.908 101.442 195.114 101.417 195.394C101.393 195.646 101.558 195.872 101.796 195.933L101.878 195.947L113.86 197.043C114.14 197.069 114.388 196.863 114.414 196.583C114.437 196.331 114.272 196.106 114.035 196.044L113.953 196.03L101.971 194.934Z" fill="#7C5B4D"/>
<path d="M101.838 198.532C101.577 198.426 101.28 198.551 101.173 198.811C101.078 199.045 101.17 199.309 101.379 199.437L101.453 199.474L110.358 203.097C110.619 203.203 110.916 203.078 111.023 202.818C111.118 202.584 111.027 202.32 110.817 202.193L110.743 202.155L101.838 198.532Z" fill="#7C5B4D"/>
<path d="M101.462 201.681C101.255 201.491 100.933 201.504 100.742 201.711C100.572 201.895 100.564 202.169 100.71 202.362L100.772 202.43L106.35 207.559C106.557 207.749 106.88 207.736 107.07 207.529C107.24 207.346 107.248 207.071 107.103 206.878L107.041 206.81L101.462 201.681Z" fill="#7C5B4D"/>
<mask id="mask3" mask-type="alpha" maskUnits="userSpaceOnUse" x="128" y="212" width="77" height="66">
<path d="M204.199 212.35H128.989V277.046H204.199V212.35Z" fill="white"/>
</mask>
<g mask="url(#mask3)">
<path fill-rule="evenodd" clip-rule="evenodd" d="M198.391 248.077L139.816 212.35L128.989 229.849C128.989 229.849 170.003 272.351 184.933 276.43C199.863 280.508 211.75 263.59 198.391 248.077Z" fill="#ADC6FF"/>
</g>
<path d="M139.686 211.908L139.627 211.988L128.416 229.484C128.245 229.752 128.282 230.103 128.507 230.329L130.29 232.095L132.116 233.885C133.18 234.925 134.316 236.026 135.513 237.179L136.118 237.76C141.919 243.331 147.912 248.903 153.774 254.104C155.488 255.625 157.169 257.094 158.811 258.506L159.792 259.346C170.595 268.565 179.146 274.781 184.674 277.056C185.021 277.199 185.418 277.034 185.561 276.687C185.704 276.341 185.539 275.945 185.192 275.802C179.928 273.635 171.641 267.639 161.191 258.754L160.675 258.315C158.73 256.655 156.727 254.91 154.677 253.091C149.414 248.421 144.044 243.451 138.802 238.45L137.06 236.782C135.844 235.614 134.689 234.497 133.603 233.439L130.464 230.359L129.856 229.755L140.413 213.279L148.335 218.133C153.111 221.061 157.888 223.993 162.485 226.82L178.921 236.956C183.953 240.072 187.895 242.529 190.523 244.193C190.84 244.393 191.26 244.299 191.461 243.983C191.662 243.667 191.568 243.248 191.251 243.047L187.02 240.391C185.477 239.427 183.729 238.34 181.79 237.137L167.729 228.453L156.977 221.842L140.554 211.775C140.267 211.599 139.9 211.662 139.686 211.908Z" fill="#597EF7"/>
<path fill-rule="evenodd" clip-rule="evenodd" d="M134.075 228.557C134.066 229.724 135.008 230.676 136.177 230.683C137.344 230.691 138.298 229.751 138.307 228.584C138.313 227.418 137.373 226.467 136.204 226.459C135.035 226.452 134.083 227.391 134.075 228.557Z" fill="white"/>
<path d="M147.366 221.743C147.069 221.569 146.695 221.645 146.488 221.908L146.436 221.984L137.923 236.443C137.733 236.766 137.841 237.182 138.165 237.372C138.461 237.546 138.836 237.47 139.043 237.207L139.095 237.131L147.607 222.671C147.798 222.348 147.689 221.933 147.366 221.743Z" fill="#597EF7"/>
<path fill-rule="evenodd" clip-rule="evenodd" d="M274.389 343.38C241.058 332.198 218.519 315.337 214.731 301.726C210.529 286.629 213.33 263.426 244.419 267.618C258.686 269.543 275.36 288.132 285.963 302.565C295.207 315.144 303.189 326.467 303.189 326.467C303.189 326.467 307.439 334.435 304.918 338.908C302.397 343.38 305.758 347.155 298.756 355.821C296.01 359.221 300.437 360.992 291.754 363.509C287.245 364.816 276.769 357.079 274.389 343.38Z" fill="#F9D6D3"/>
<path fill-rule="evenodd" clip-rule="evenodd" d="M394.675 300.271C394.675 300.271 445.495 197.937 440.635 188.234C435.774 178.529 399.894 156.71 345.661 160.437C291.192 164.179 272.146 186.265 272.146 186.265C272.146 186.265 286.15 251.125 297.896 293.214C291.709 304.24 302.955 312.069 302.955 312.069C302.955 312.069 373.55 308.811 390.342 309.693C398.185 306.338 394.675 300.271 394.675 300.271Z" fill="#597EF7"/>
<path fill-rule="evenodd" clip-rule="evenodd" d="M291.192 385.875L351.542 413.722L413.449 389.37C413.449 389.37 405.888 342.402 391.812 320.597C389.572 314.445 388.662 309.833 388.662 309.833C388.662 309.833 333.205 301.446 302.955 312.069L301.835 322.134C301.835 322.134 297.04 333.516 294.553 343.94C290.352 361.553 291.192 385.875 291.192 385.875Z" fill="#4E5C93"/>
<path fill-rule="evenodd" clip-rule="evenodd" d="M411.665 381.852C411.665 381.852 368.309 317.241 347.302 400.273C398.326 578.494 406.725 606.622 406.725 606.622C406.725 606.622 406.349 621.718 416.431 627.589H451.722C451.722 627.589 465.167 619.203 447.52 599.912C417.271 412.045 411.665 381.852 411.665 381.852Z" fill="#4E5C93"/>
<path fill-rule="evenodd" clip-rule="evenodd" d="M291.193 383.079C291.193 383.079 320.453 374.304 351.543 413.723C354.212 597.784 356.86 601.864 356.86 601.864C356.86 601.864 364.611 618.176 353.687 626.563H317.282C317.282 626.563 307.85 615.847 312.052 604.106C292.725 442.238 291.193 383.079 291.193 383.079Z" fill="#4E5C93"/>
<path fill-rule="evenodd" clip-rule="evenodd" d="M383.621 152.718L380.825 104.025H334.611L334.655 156.631L347.91 181.793L383.621 152.718Z" fill="#F9D6D3"/>
<path fill-rule="evenodd" clip-rule="evenodd" d="M365.792 76.9079C365.792 76.9079 340.024 70.1981 333.022 82.2194C326.212 93.9114 325.741 136.176 339.184 142.605C350.142 147.847 372.515 145.401 377.836 124.993C377.836 124.993 382.317 109.337 380.637 95.3586C378.957 81.3807 365.792 76.9079 365.792 76.9079Z" fill="#F9D6D3"/>
<path fill-rule="evenodd" clip-rule="evenodd" d="M377.835 112.692C377.835 112.692 384.837 99.2722 390.158 106.542C395.48 113.81 386.517 127.229 378.675 126.67C370.833 126.112 377.835 112.692 377.835 112.692Z" fill="#F9D6D3"/>
<mask id="mask4" mask-type="alpha" maskUnits="userSpaceOnUse" x="327" y="56" width="61" height="60">
<path d="M387.836 56.0445H327.199V115.536H387.836V56.0445Z" fill="white"/>
</mask>
<g mask="url(#mask4)">
<path fill-rule="evenodd" clip-rule="evenodd" d="M328.54 106.542C328.54 106.542 325.179 90.327 329.099 80.2622C333.021 70.1975 338.063 60.1341 341.704 65.4456C342.264 62.9294 345.626 57.897 348.145 56.2196C350.667 54.5421 358.51 65.4456 358.51 65.4456C358.51 65.4456 357.949 60.4132 361.031 63.489C364.111 66.5634 382.877 76.0686 385.957 81.101C389.038 86.1333 387.402 104.633 387.402 104.633C387.402 104.633 381.379 104.073 378.158 115.536C378.999 106.31 375.151 101.488 373.176 99.6535C372.427 98.9577 371.998 97.9906 371.92 96.9733C371.771 95.0193 371.551 91.7385 371.469 88.5331C371.432 87.1202 370.398 85.9521 369.003 85.7113C354.803 83.256 339.192 85.4639 333.632 86.4204C332.376 86.636 331.412 87.6441 331.245 88.9062L329.844 99.3916C329.844 99.3916 329.099 101.229 328.54 106.542Z" fill="#253368"/>
</g>
<path d="M363.163 102.807C363.046 102.776 362.924 102.765 362.804 102.772L362.683 102.787L353.599 104.372C352.99 104.478 352.583 105.057 352.689 105.664C352.789 106.234 353.305 106.627 353.871 106.587L353.984 106.573L362.826 105.029L367.325 106.224C367.885 106.372 368.459 106.07 368.66 105.54L368.695 105.431C368.843 104.872 368.54 104.299 368.009 104.099L367.9 104.064L363.163 102.807Z" fill="#253368"/>
<path d="M335.551 101.828C335.397 101.787 335.236 101.779 335.079 101.806L334.962 101.832L331.461 102.809C330.865 102.975 330.518 103.592 330.684 104.186C330.84 104.743 331.393 105.083 331.952 104.986L332.064 104.961L335.271 104.065L343.939 106.363C344.499 106.512 345.073 106.209 345.273 105.679L345.308 105.57C345.457 105.011 345.153 104.438 344.623 104.239L344.513 104.204L335.551 101.828Z" fill="#253368"/>
<path fill-rule="evenodd" clip-rule="evenodd" d="M377.416 118.073C377.416 118.073 370.178 123.713 366.397 129.584C361.145 123.085 355.612 120.288 355.612 120.288C355.612 120.288 349.268 124.992 345.907 123.525C344.857 122.267 344.97 120.988 344.97 120.988C344.97 120.988 339.298 123.085 335.308 128.956C333.626 124.762 328.891 119.331 328.891 119.331C328.891 119.331 327.884 146.708 348.051 147.126C368.427 147.126 375.219 135.874 377.529 126.438C378.063 123.481 378.886 115.976 377.416 118.073Z" fill="#EFADAB"/>
<path d="M360.367 125.272C360.186 124.813 359.666 124.588 359.206 124.768L358.892 124.885C358.754 124.934 358.585 124.993 358.385 125.06C357.714 125.283 356.961 125.508 356.142 125.717C353.374 126.426 350.581 126.793 347.998 126.637C346.74 126.561 345.566 126.361 344.493 126.026C344.021 125.879 343.519 126.142 343.371 126.613C343.224 127.084 343.487 127.585 343.959 127.732C345.178 128.113 346.494 128.337 347.891 128.421C350.684 128.589 353.653 128.2 356.587 127.448C357.449 127.228 358.243 126.991 358.953 126.755L359.467 126.578L359.862 126.431C360.322 126.251 360.548 125.732 360.367 125.272Z" fill="#D18682"/>
<path d="M346.548 105.323C346.214 105.353 345.96 105.626 345.946 105.952L345.948 106.042L346.219 109.016L346.033 109.9L345.984 110.144C345.792 111.095 345.6 112.114 345.422 113.159C345.237 114.236 345.077 115.281 344.947 116.273L344.859 116.974C344.393 120.859 344.481 123.256 345.5 124.047C346.487 124.813 348.194 124.547 350.553 123.613C351.142 123.38 351.759 123.107 352.394 122.804C353.147 122.444 353.887 122.059 354.584 121.674L355.395 121.213C355.436 121.189 355.468 121.17 355.491 121.157C355.805 120.969 355.906 120.562 355.718 120.249C355.53 119.936 355.123 119.834 354.809 120.022L354.58 120.156C354.392 120.265 354.179 120.386 353.942 120.516C353.267 120.889 352.549 121.263 351.821 121.61C351.212 121.902 350.623 122.162 350.064 122.383C348.159 123.137 346.767 123.355 346.314 123.003C345.838 122.633 345.792 120.202 346.222 116.751L346.262 116.444C346.389 115.471 346.546 114.442 346.728 113.381C346.869 112.556 347.019 111.747 347.17 110.976L347.423 109.721L347.534 109.2C347.544 109.156 347.549 109.111 347.55 109.065L347.547 108.998L347.268 105.922C347.237 105.588 346.964 105.335 346.638 105.321L346.548 105.323Z" fill="#D18682"/>
<path d="M347.282 132.067C346.916 132.066 346.618 132.36 346.616 132.726C346.615 133.06 346.863 133.338 347.186 133.384L347.276 133.39L351.994 133.413C352.36 133.414 352.658 133.12 352.66 132.754C352.662 132.42 352.414 132.142 352.091 132.096L352.001 132.09L347.282 132.067Z" fill="#D18682"/>
<path fill-rule="evenodd" clip-rule="evenodd" d="M360.191 112.831C360.191 114.453 361.132 115.767 362.292 115.767C363.452 115.767 364.393 114.453 364.393 112.831C364.393 111.211 363.452 109.896 362.292 109.896C361.132 109.896 360.191 111.211 360.191 112.831Z" fill="#253368"/>
<path fill-rule="evenodd" clip-rule="evenodd" d="M338.134 112.831C338.134 114.453 339.074 115.767 340.235 115.767C341.395 115.767 342.336 114.453 342.336 112.831C342.336 111.211 341.395 109.896 340.235 109.896C339.074 109.896 338.134 111.211 338.134 112.831Z" fill="#253368"/>
<path d="M358.882 122.896C358.624 122.638 358.204 122.638 357.945 122.896C357.71 123.131 357.689 123.498 357.881 123.757L357.945 123.832L361.588 127.466C361.846 127.724 362.266 127.724 362.525 127.465C362.76 127.23 362.781 126.863 362.589 126.604L362.525 126.53L358.882 122.896Z" fill="#D18682"/>
<path d="M377.453 126.735C377.153 126.662 376.85 126.845 376.776 127.144L376.69 127.459C376.66 127.562 376.624 127.683 376.581 127.82L376.535 127.963C376.321 128.629 376.047 129.372 375.709 130.174C374.741 132.466 373.45 134.759 371.794 136.897C365.726 144.734 356.575 148.458 343.611 145.811C343.308 145.749 343.012 145.944 342.95 146.246C342.889 146.548 343.084 146.843 343.386 146.905C356.783 149.64 366.358 145.744 372.679 137.58C374.398 135.36 375.736 132.984 376.74 130.607C377.091 129.774 377.376 129 377.6 128.304L377.755 127.799L377.863 127.411C377.936 127.111 377.753 126.809 377.453 126.735Z" fill="#D18682"/>
<path d="M349.299 139.288C348.984 139.102 348.577 139.207 348.391 139.521C348.259 139.745 348.071 140.123 347.885 140.619C347.421 141.857 347.238 143.137 347.514 144.363C347.801 145.638 348.569 146.727 349.868 147.546C350.178 147.741 350.587 147.649 350.782 147.34C350.978 147.031 350.885 146.622 350.576 146.427C349.575 145.796 349.017 145.006 348.807 144.073C348.597 143.137 348.744 142.101 349.126 141.083C349.282 140.666 349.437 140.355 349.532 140.194C349.718 139.88 349.614 139.474 349.299 139.288Z" fill="#D18682"/>
<path d="M388.632 110.703C388.37 109.389 387.336 108.781 385.662 109.424C383.016 110.438 382.744 112.376 383.64 115.95C384.132 117.918 383.451 119.027 381.621 119.392C381.318 119.452 381.121 119.747 381.182 120.049C381.243 120.351 381.537 120.547 381.84 120.487C384.304 119.995 385.37 118.258 384.725 115.679C383.953 112.599 384.15 111.2 386.064 110.466C387.075 110.078 387.405 110.271 387.535 110.921C387.572 111.108 387.583 111.312 387.576 111.511L387.558 111.754L387.551 111.812C387.501 112.116 387.708 112.403 388.013 112.452C388.318 112.502 388.605 112.295 388.655 111.991L388.677 111.814C388.711 111.458 388.706 111.076 388.632 110.703Z" fill="#D18682"/>
<path fill-rule="evenodd" clip-rule="evenodd" d="M356.208 131.68C356.256 131.966 356.526 132.159 356.813 132.112C357.099 132.065 357.292 131.794 357.245 131.51C357.197 131.224 356.927 131.031 356.64 131.077C356.354 131.125 356.161 131.395 356.208 131.68Z" fill="#D18682"/>
<path fill-rule="evenodd" clip-rule="evenodd" d="M364.093 133.653C364.141 133.939 364.411 134.132 364.697 134.084C364.984 134.038 365.177 133.767 365.129 133.483C365.082 133.197 364.811 133.004 364.525 133.05C364.239 133.098 364.045 133.367 364.093 133.653Z" fill="#D18682"/>
<path fill-rule="evenodd" clip-rule="evenodd" d="M338.691 135.367C338.591 135.638 338.728 135.94 339 136.042C339.272 136.142 339.575 136.003 339.676 135.732C339.777 135.461 339.639 135.159 339.367 135.059C339.095 134.957 338.792 135.096 338.691 135.367Z" fill="#D18682"/>
<path fill-rule="evenodd" clip-rule="evenodd" d="M333.764 132.86C333.663 133.132 333.801 133.433 334.072 133.535C334.344 133.636 334.648 133.497 334.748 133.226C334.849 132.954 334.711 132.653 334.439 132.552C334.168 132.45 333.866 132.589 333.764 132.86Z" fill="#D18682"/>
<path fill-rule="evenodd" clip-rule="evenodd" d="M342.971 136.894C342.87 137.165 343.008 137.467 343.28 137.567C343.551 137.668 343.855 137.53 343.955 137.259C344.056 136.988 343.917 136.686 343.645 136.586C343.374 136.484 343.071 136.623 342.971 136.894Z" fill="#D18682"/>
<path fill-rule="evenodd" clip-rule="evenodd" d="M349.1 135.691C348.999 135.962 349.137 136.264 349.408 136.366C349.68 136.466 349.984 136.327 350.084 136.056C350.185 135.785 350.046 135.483 349.774 135.383C349.503 135.281 349.2 135.42 349.1 135.691Z" fill="#D18682"/>
<path fill-rule="evenodd" clip-rule="evenodd" d="M370.211 131.498C370.109 131.769 370.248 132.072 370.52 132.172C370.791 132.273 371.094 132.134 371.196 131.863C371.296 131.592 371.157 131.29 370.886 131.189C370.614 131.088 370.312 131.226 370.211 131.498Z" fill="#D18682"/>
<path fill-rule="evenodd" clip-rule="evenodd" d="M360.169 139.038C360.217 139.324 360.487 139.517 360.774 139.469C361.06 139.421 361.253 139.152 361.206 138.866C361.158 138.58 360.888 138.387 360.601 138.435C360.315 138.482 360.121 138.752 360.169 139.038Z" fill="#D18682"/>
<path fill-rule="evenodd" clip-rule="evenodd" d="M356.095 138.225C356.143 138.51 356.413 138.703 356.699 138.656C356.986 138.608 357.179 138.338 357.131 138.053C357.084 137.767 356.813 137.574 356.527 137.621C356.241 137.669 356.047 137.939 356.095 138.225Z" fill="#D18682"/>
<path fill-rule="evenodd" clip-rule="evenodd" d="M339.638 139.636C339.686 139.922 339.956 140.115 340.243 140.067C340.528 140.021 340.721 139.75 340.675 139.465C340.627 139.18 340.357 138.986 340.07 139.033C339.784 139.08 339.591 139.35 339.638 139.636Z" fill="#D18682"/>
<path fill-rule="evenodd" clip-rule="evenodd" d="M342.246 133.444C342.293 133.73 342.564 133.923 342.85 133.875C343.135 133.827 343.329 133.558 343.282 133.272C343.234 132.986 342.964 132.793 342.678 132.84C342.392 132.888 342.198 133.158 342.246 133.444Z" fill="#D18682"/>
<path fill-rule="evenodd" clip-rule="evenodd" d="M340.355 128.202C340.402 128.488 340.673 128.681 340.959 128.633C341.245 128.585 341.439 128.316 341.391 128.03C341.343 127.744 341.073 127.551 340.787 127.599C340.501 127.646 340.307 127.916 340.355 128.202Z" fill="#D18682"/>
<path fill-rule="evenodd" clip-rule="evenodd" d="M364.609 136.921C364.657 137.207 364.927 137.4 365.213 137.352C365.498 137.305 365.692 137.035 365.645 136.749C365.598 136.463 365.327 136.27 365.041 136.318C364.755 136.365 364.561 136.635 364.609 136.921Z" fill="#D18682"/>
<path fill-rule="evenodd" clip-rule="evenodd" d="M329.844 163.901L331.945 155.373L341.376 156.212L347.025 177.875L359.533 154.024L387.444 151.181L391.371 164.599C391.371 164.599 373.191 189.256 343.708 184.729C329.144 182.492 329.844 163.901 329.844 163.901Z" fill="#597EF7"/>
<path fill-rule="evenodd" clip-rule="evenodd" d="M294.555 173.965C294.555 173.965 276.629 218.695 293.435 259.232C279.99 283.274 265.986 300.886 257.583 308.714C249.18 316.542 216.948 314.77 214.45 288.586C212.21 265.103 253.26 209.239 259.264 199.125C268.226 184.029 288.393 173.965 294.555 173.965Z" fill="#F9D6D3"/>
<path fill-rule="evenodd" clip-rule="evenodd" d="M236.577 234.63C247.646 215.588 256.838 203.133 259.964 197.868C268.927 182.771 289.092 172.707 295.254 172.707C295.254 172.707 277.329 217.436 294.134 257.974C288.432 268.17 289.064 267.26 283.63 274.888C283.63 274.888 279.43 265.662 263.465 252.242C246.863 238.288 236.577 234.63 236.577 234.63Z" fill="#597EF7"/>
<path d="M282.906 208.136C282.633 208.073 282.36 208.242 282.296 208.515L282.246 208.746C282.207 208.932 282.165 209.152 282.119 209.407C281.988 210.131 281.857 210.985 281.735 211.964C281.006 217.828 280.915 225.066 281.872 233.468C283.195 245.085 286.383 257.444 291.846 270.333C291.955 270.591 292.253 270.712 292.512 270.603C292.77 270.493 292.891 270.196 292.782 269.938C287.358 257.14 284.194 244.876 282.882 233.354C281.935 225.034 282.025 217.876 282.744 212.089C282.847 211.265 282.955 210.534 283.064 209.897L283.173 209.298C283.223 209.035 283.262 208.85 283.286 208.746C283.35 208.473 283.18 208.2 282.906 208.136Z" fill="#1D39C4"/>
<path fill-rule="evenodd" clip-rule="evenodd" d="M301.696 322.273C344.339 316.822 392.023 319.945 392.023 319.945L390.343 307.995C390.343 307.995 336.147 301.075 302.677 310.02C301.907 315.753 301.696 322.273 301.696 322.273Z" fill="#253368"/>
<path d="M261.467 270.846C261.242 270.558 260.825 270.507 260.537 270.732C260.275 270.936 260.208 271.298 260.368 271.579L260.422 271.66L274.426 289.553C274.652 289.84 275.068 289.892 275.357 289.667C275.619 289.462 275.685 289.1 275.525 288.82L275.471 288.738L261.467 270.846Z" fill="#D18682"/>
<path d="M342.703 320.27C342.323 320.285 342.019 320.58 341.986 320.948L341.987 321.149L342.161 325.439L342.353 329.645C342.45 331.684 342.558 333.829 342.678 336.062L342.729 337.025C343.343 348.306 344.119 359.587 345.073 370.203L345.254 372.186C346.825 389.135 348.718 402.708 350.967 411.688C351.067 412.087 351.472 412.329 351.872 412.23C352.272 412.13 352.515 411.725 352.415 411.326L352.194 410.422C350.064 401.535 348.252 388.365 346.74 372.048C345.765 361.537 344.969 350.318 344.336 339.056L344.22 336.944C344.009 333.078 343.833 329.466 343.688 326.187L343.562 323.248L343.475 320.989C343.46 320.578 343.115 320.257 342.703 320.27Z" fill="#253368"/>
<path d="M326.477 320.83C326.065 320.834 325.734 321.171 325.738 321.582L325.775 324.207C325.809 326.294 325.856 328.618 325.919 331.121C326.085 337.724 326.324 344.327 326.651 350.556L326.735 352.105C327.732 370.091 329.209 381.051 331.629 382.93C332.523 383.624 333.601 384.375 334.842 385.177C335.772 385.777 336.785 386.401 337.869 387.042C339.512 388.013 341.251 388.988 343.006 389.933L344.06 390.496C344.651 390.809 345.208 391.1 345.722 391.365L346.877 391.953C347.246 392.137 347.694 391.988 347.878 391.62C348.062 391.252 347.913 390.805 347.544 390.621L347.192 390.443L346.017 389.84C345.62 389.633 345.199 389.413 344.76 389.18C342.669 388.072 340.579 386.913 338.63 385.76L337.586 385.135C336.907 384.722 336.261 384.319 335.653 383.926C334.445 383.147 333.401 382.419 332.545 381.754C330.688 380.312 329.168 369.036 328.225 352.023C327.884 345.874 327.631 339.319 327.454 332.731L327.372 329.445C327.347 328.371 327.325 327.335 327.306 326.342L327.247 322.837L327.231 321.568C327.226 321.156 326.889 320.826 326.477 320.83Z" fill="#253368"/>
<path fill-rule="evenodd" clip-rule="evenodd" d="M353.652 318.429V306.491C353.652 304.931 352.461 303.654 350.953 303.609C345.951 303.46 334.835 303.326 324.751 304.603C323.345 304.781 322.283 306.005 322.283 307.468V318.692C322.283 320.298 323.544 321.594 325.098 321.574C330.815 321.504 343.835 321.35 350.886 321.31C352.421 321.302 353.652 320.013 353.652 318.429Z" fill="#E1E7F3"/>
<path fill-rule="evenodd" clip-rule="evenodd" d="M350.416 316.368L350.412 308.466C350.412 307.434 349.439 306.589 348.208 306.56C344.128 306.462 335.059 306.379 326.834 307.225C325.686 307.344 324.82 308.155 324.82 309.124L324.823 316.553C324.823 317.616 325.853 318.473 327.12 318.461C331.784 318.412 342.408 318.305 348.159 318.277C349.411 318.27 350.416 317.417 350.416 316.368Z" fill="#253368"/>
<path fill-rule="evenodd" clip-rule="evenodd" d="M324.908 305.701L351.389 317.497L350.295 319.899L323.594 307.885L324.908 305.701Z" fill="#E1E7F3"/>
<path fill-rule="evenodd" clip-rule="evenodd" d="M323.772 317.119L350.315 305.46L351.363 307.883L324.511 319.557L323.772 317.119Z" fill="#E1E7F3"/>
<path d="M377.587 320.287C377.183 320.371 376.925 320.765 377.009 321.168L377.15 321.788C377.18 321.912 377.212 322.045 377.247 322.185C377.446 322.984 377.689 323.872 377.978 324.829C378.803 327.564 379.83 330.299 381.074 332.857L381.395 333.503C385.919 342.435 392.028 346.814 399.844 343.94C400.23 343.797 400.428 343.369 400.286 342.983C400.143 342.597 399.714 342.4 399.328 342.542C392.246 345.146 386.679 340.971 382.417 332.206C381.21 329.726 380.21 327.063 379.407 324.4C379.172 323.623 378.969 322.892 378.796 322.221L378.602 321.443L378.47 320.863C378.385 320.461 377.99 320.203 377.587 320.287Z" fill="#253368"/>
<path d="M340.553 394.415C340.347 394.098 339.942 393.99 339.609 394.147L339.521 394.196L322.716 405.099C322.371 405.324 322.273 405.785 322.497 406.13C322.703 406.446 323.109 406.554 323.441 406.398L323.53 406.348L340.334 395.445C340.68 395.221 340.778 394.759 340.553 394.415Z" fill="#253368"/>
<path d="M347.894 391.678C347.576 391.474 347.161 391.541 346.923 391.82L346.862 391.902L339.3 403.643C339.077 403.989 339.177 404.449 339.524 404.672C339.842 404.876 340.256 404.809 340.495 404.529L340.555 404.448L348.118 392.707C348.341 392.361 348.24 391.9 347.894 391.678Z" fill="#253368"/>
<path fill-rule="evenodd" clip-rule="evenodd" d="M454.021 430.398L456.127 365.344C456.194 363.259 454.607 361.49 452.523 361.328L366.307 353.792C364.098 353.62 362.187 355.314 362.096 357.524L359.242 427.428C359.153 429.602 360.861 431.428 363.039 431.489L450.005 434.174C452.156 434.232 453.952 432.546 454.021 430.398Z" fill="#FFC540"/>
<path fill-rule="evenodd" clip-rule="evenodd" d="M457.832 431.132L459.979 364.812C460.036 363.074 458.712 361.599 456.975 361.464L369.466 353.828C367.624 353.685 366.03 355.095 365.955 356.938L363.046 428.174C362.971 429.985 364.396 431.508 366.212 431.558L454.485 434.278C456.278 434.328 457.773 432.922 457.832 431.132Z" fill="#FF7A46"/>
<path fill-rule="evenodd" clip-rule="evenodd" d="M432.356 178.438C432.356 178.438 447.479 181.793 454.202 207.513C460.924 233.232 458.403 256.716 456.723 289.146C455.042 321.575 443.278 378.326 438.236 399.014C433.196 419.702 431.35 426.608 426.194 433.959C423.253 438.153 418.352 439.132 414.989 437.874C410.509 442.346 403.367 439.272 403.367 439.272C403.367 439.272 392.583 442.067 390.342 435.917C381.521 437.175 385.301 425.014 384.181 420.541C383.061 416.067 387.681 407.121 400.006 394.821C407.848 380.843 400.846 256.157 397.485 240.501C394.124 224.846 394.264 181.793 432.356 178.438Z" fill="#F9D6D3"/>
<path fill-rule="evenodd" clip-rule="evenodd" d="M399.586 260.63C399.586 260.63 391.464 210.307 399.306 194.652C407.148 178.997 419.716 167.116 439.637 181.792C463.166 199.125 458.403 249.726 458.403 249.726C458.403 249.726 432.356 255.597 399.586 260.63Z" fill="#597EF7"/>
<path d="M420.236 187.97C418.898 187.887 417.387 187.973 415.634 188.374C413.067 188.962 410.55 190.131 408.197 192.019C401.153 197.67 396.702 208.701 396.019 226.516L395.997 227.126L399.079 262.351C399.103 262.631 399.35 262.837 399.63 262.813C399.881 262.791 400.074 262.589 400.092 262.346L400.092 262.263L397.012 227.099C397.608 209.257 401.969 198.317 408.834 192.81C411.062 191.022 413.439 189.917 415.861 189.363C417.372 189.017 418.688 188.921 419.858 188.967L420.213 188.986C420.318 188.994 420.595 189.012 420.651 189.006C420.929 188.973 421.129 188.721 421.096 188.443C421.063 188.164 420.811 187.965 420.532 187.998C420.575 187.993 420.439 187.983 420.236 187.97Z" fill="#1D39C4"/>
<path d="M391.434 419.32C391.068 419.337 390.785 419.646 390.802 420.011L390.831 420.802C390.836 420.961 390.841 421.129 390.846 421.306C390.91 423.634 390.913 426.107 390.814 428.421L390.78 429.141C390.617 432.201 390.275 434.487 389.742 435.64C389.589 435.972 389.734 436.365 390.066 436.518C390.399 436.671 390.792 436.526 390.946 436.194C391.617 434.741 391.986 432.072 392.138 428.477C392.224 426.464 392.234 424.338 392.195 422.288L392.163 421.008L392.126 419.951C392.109 419.586 391.799 419.304 391.434 419.32Z" fill="#D18682"/>
<path d="M389.141 164.845C389.055 164.608 388.81 164.475 388.57 164.52L388.49 164.542L370.005 171.252C369.741 171.347 369.605 171.639 369.701 171.902C369.787 172.139 370.032 172.273 370.272 172.227L370.352 172.205L388.837 165.495C389.101 165.4 389.237 165.109 389.141 164.845Z" fill="#1D39C4"/>
<path d="M347.168 177.387C346.899 177.309 346.617 177.463 346.539 177.732L346.442 178.074L346.202 178.962C346.144 179.182 346.084 179.413 346.022 179.656L345.927 180.028C345.47 181.841 345.013 183.846 344.587 185.986C343.581 191.04 342.901 196.045 342.698 200.728C342.563 203.846 342.646 206.733 342.973 209.344C343.008 209.622 343.262 209.819 343.54 209.785C343.819 209.75 344.017 209.496 343.982 209.218C343.662 206.668 343.581 203.836 343.714 200.772C343.914 196.147 344.587 191.19 345.584 186.184C346.007 184.061 346.46 182.073 346.913 180.276L347.185 179.221L347.498 178.074C347.504 178.052 347.51 178.032 347.515 178.015C347.593 177.746 347.438 177.465 347.168 177.387Z" fill="#1D39C4"/>
</g>
<path d="M660.328 166H647.672C647.301 166 647 166.301 647 166.672V179.328C647 179.699 647.301 180 647.672 180H660.328C660.699 180 661 179.699 661 179.328V166.672C661 166.301 660.699 166 660.328 166Z" fill="#597EF7"/>
<path d="M692.417 66H662.583C661.709 66 661 66.7088 661 67.5832V97.4168C661 98.2912 661.709 99 662.583 99H692.417C693.291 99 694 98.2912 694 97.4168V67.5832C694 66.7088 693.291 66 692.417 66Z" fill="#597EF7"/>
<path d="M552.328 104H539.672C539.301 104 539 103.699 539 103.328V90.6717C539 90.3007 539.301 90 539.672 90H552.328C552.699 90 553 90.3007 553 90.6717V103.328C553 103.699 552.699 104 552.328 104Z" fill="#8EA7F8"/>
<path d="M184.609 143H158.391C157.623 143 157 142.377 157 141.609V115.391C157 114.623 157.623 114 158.391 114H184.609C185.377 114 186 114.623 186 115.391V141.609C186 142.377 185.377 143 184.609 143Z" fill="#8EA7F8"/>
<defs>
<clipPath id="clip0">
<rect width="685" height="488" fill="white" transform="translate(0 42)"/>
</clipPath>
</defs>
</svg>
