<svg width="54" height="57" viewBox="0 0 54 57" fill="none" xmlns="http://www.w3.org/2000/svg">
<path d="M9.69231 51.6604V28.6604C9.69231 28.1081 9.24459 27.6604 8.69231 27.6604H3C2.44771 27.6604 2 28.1081 2 28.6604V51.6604C2 52.2127 2.44772 52.6604 3 52.6604H8.69231C9.24459 52.6604 9.69231 52.2127 9.69231 51.6604Z" stroke="#597EF7" stroke-width="4"/>
<path d="M14.8535 29.4377V46.8866C14.853 48.0809 15.1852 49.2517 15.813 50.2677C16.4407 51.2837 17.3392 52.1047 18.4075 52.6386L18.5682 52.7189C20.3513 53.6101 22.3172 54.0743 24.3106 54.075H41.7144C43.2007 54.0755 44.6412 53.561 45.7908 52.6188C46.9403 51.6767 47.7278 50.3653 48.0191 48.9078L51.8752 29.6273C52.0616 28.695 52.0387 27.733 51.8084 26.8106C51.578 25.8882 51.1459 25.0284 50.5431 24.2931C49.9404 23.5579 49.182 22.9655 48.3227 22.5588C47.4633 22.152 46.5245 21.941 45.5737 21.9409H34.134V9.08722C34.134 7.38272 33.4569 5.74803 32.2516 4.54277C31.0463 3.33751 29.4117 2.6604 27.7072 2.6604C26.8549 2.6604 26.0376 2.99895 25.4349 3.60159C24.8323 4.20422 24.4937 5.02156 24.4937 5.87381V8.01715C24.4937 10.7983 23.5917 13.5044 21.923 15.7293L17.4242 21.7256C15.7556 23.9505 14.8535 26.6566 14.8535 29.4377V29.4377Z" stroke="#597EF7" stroke-width="4"/>
</svg>
