<svg width="24" height="27" viewBox="0 0 24 27" fill="none" xmlns="http://www.w3.org/2000/svg">
<path d="M8.62006 2.99386C9.59049 -0.331289 14.4095 -0.331288 15.3799 2.99387C15.9005 4.77758 17.7745 5.8356 19.6145 5.38459C23.0445 4.54383 25.454 8.62488 22.9944 11.1093C21.675 12.442 21.675 14.558 22.9944 15.8907C25.454 18.3751 23.0445 22.4562 19.6145 21.6154C17.7745 21.1644 15.9005 22.2224 15.3799 24.0061C14.4095 27.3313 9.59049 27.3313 8.62006 24.0061C8.0995 22.2224 6.22549 21.1644 4.38552 21.6154C0.955476 22.4562 -1.45403 18.3751 1.00558 15.8907C2.32499 14.558 2.32499 12.442 1.00558 11.1093C-1.45403 8.62488 0.955476 4.54383 4.38552 5.38459C6.22549 5.83559 8.0995 4.77758 8.62006 2.99386Z" fill="#597EF7"/>
<path d="M8 13.7727L10.5 16.5L16 10.5" stroke="white" stroke-width="2" stroke-linecap="round" stroke-linejoin="round"/>
</svg>
